<?xml version="1.0" encoding="utf-8"?>
<!-- Generator: Adobe Illustrator 26.0.3, SVG Export Plug-In . SVG Version: 6.00 Build 0)  -->
<svg version="1.1" id="Layer_1" xmlns="http://www.w3.org/2000/svg" xmlns:xlink="http://www.w3.org/1999/xlink" x="0px" y="0px"
	 viewBox="0 0 595.3 841.9" style="enable-background:new 0 0 595.3 841.9;" xml:space="preserve">
<style type="text/css">
	.st0{fill:none;stroke:#E81464;stroke-miterlimit:10;}
	.st1{fill:none;stroke:#4E53A3;stroke-miterlimit:10;}
	.st2{fill:none;stroke:#6ABD45;stroke-miterlimit:10;}
	.st3{fill:none;stroke:#D759A1;stroke-miterlimit:10;}
	.st4{fill:none;stroke:#5BBFD7;stroke-miterlimit:10;}
	.st5{fill:none;stroke:#3DC1CD;stroke-miterlimit:10;}
	.st6{fill:none;stroke:#DAE125;stroke-miterlimit:10;}
	.st7{fill:none;stroke:#7E1A54;stroke-miterlimit:10;}
</style>
<path class="st0" d="M369.7,261.9c-2.7,0-7.4-1.4-9.3-4.6c-1.3-2.1-1.2-3.6-0.8-10.7l0.1-1.8c0.1-2.3,0.2-3.9,0.3-5
	c0-0.8,0.1-1.4,0.1-1.8c0-0.1-0.1-0.1-0.1-0.2c-0.9-1.1-1.3-1.3-2.2-1.7c-1-0.5-2.4-1.1-4.6-3.1c-1.6-1.5-6.5-6.7-5-10.6
	c1.3-3.4,4.4-5,6.9-5.4c0.6-0.1,1.3-0.1,1.9-0.1c3.9,0,7.8,1.6,10.7,4.3c0.5,0.4,1.8,1.8,2.9,3.9c0.2,0.3,0.3,0.6,0.5,0.9
	c0.4-1.5,0.5-3.7-0.7-6.2l-0.1-0.2c-1-2.1-1.7-3.6-7.1-8.7c-5.5-5.2-5.8-7.7-5.2-9.6c0.5-3.4,3.3-5.4,7.4-5.4c0.3,0,0.7,0,1.1,0
	c4.2,0.3,7.9,3,10.8,8c1.6,2.8,2.5,5.2,3.1,7c0.2,0.6,0.5,1.4,0.7,1.8c1.1-0.7,3.3-3.7,4.6-7.7c0.3-0.8,0.5-1.6,0.8-2.4
	c1.3-3.6,1.9-5.5,0.3-7.8c-1.9-2.6-4.7-4.6-11-8.9c-2.7-1.9-5.1-3.5-6.6-6.7c-1.7-3.7-0.7-7.7,2.6-10.4c1.8-1.6,4.1-2.4,6.8-2.4
	c4.3,0,8.3,2.1,9.8,3c3.2,1.9,11,7.4,14.1,17.5c2.7,8.8-2.3,24.3-6.8,30.1l-1.1,1.3l-1.5-0.9c0,0-1.1-0.6-2.3-0.6
	c-0.8,0-1.4,0.2-1.9,0.7c-0.6,0.6-0.4,3.8,0.5,6.4l0.4,1.3l-1,0.9c-5.6,4.7-11.1,10.4-12.1,12.4c-3.5,7-3.3,14.1-3.2,17.9
	c0.1,2.4,0.1,3.5-0.8,4.3C371.9,261.6,371,261.9,369.7,261.9z"/>
<path class="st0" d="M362.2,256.3c-1-1.7-0.9-3.1-0.5-11.4c0.4-8.4,0.7-7.2-0.2-8.3c-2.3-3-3.2-1.5-7-5.1c-1.7-1.6-5.5-5.9-4.5-8.5
	c1.1-2.9,3.8-3.9,5.3-4.1c4.3-0.6,8.4,1.2,10.9,3.6c0.5,0.4,1.6,1.6,2.5,3.4c1.4,2.8,1.7,3.6,2.2,3.7c1,0.1,3.9-4.9,1.1-10.8
	c-1.1-2.4-1.8-4-7.7-9.5c-6-5.6-4.7-7.2-4.6-7.9c0.4-2.7,2.8-3.9,6.4-3.6c5.2,0.4,8.2,5.2,9.3,7c3.2,5.5,3.1,9.6,4.9,9.9
	c2.2,0.4,5.6-4.6,7-9.2c1.4-4.4,3.7-8,0.8-11.9c-2.1-2.9-5.2-5.1-11.5-9.4c-2.7-1.9-4.7-3.3-5.9-5.9c-1.4-3-0.4-6,2-8.1
	c5.2-4.5,13.4,0.3,14.3,0.8c2.2,1.3,10.1,6.4,13.2,16.4c2.5,8.1-2.4,23.1-6.5,28.3c0,0-3.9-2.2-6.6,0.5c-2,2,0,8.4,0,8.4
	c-5,4.2-11.3,10.4-12.6,13.1c-5.2,10.4-2.7,20.8-3.5,21.7C370.1,260.5,364,259.4,362.2,256.3z"/>
<path class="st0" d="M425.9,257.2c-3.5,0-7.5-2.5-9.1-5.8c-1.9-3.8-0.4-7.6,1.8-13.3c1.2-3.1,3.3-8.4,8-14c1.5-1.8,2.7-3,3.7-4
	c1.8-1.8,2.2-2.2,2.2-3.1c0-0.7-0.3-1.1-1-2.1c-0.8-1.1-1.9-2.7-2.8-5.5c-2-6.2-2.1-9.5-0.6-11.4c1.4-1.6,3.4-2.6,5.5-2.6
	c1.1,0,2.1,0.2,3.1,0.7c3,1.4,4.2,3.7,6.1,7.2c0.6,1.2,1.4,2.6,2.3,4.3c1.9,3.3,3,5,3.6,5.6c0.8-0.4,2.7-2.1,4.7-5
	c2-2.9,2.9-7,2.5-11.5c0-0.1,0-0.2,0-0.3l-0.1-1.1c-0.2-3.7-0.4-6.2,1-8.3c1.1-1.6,2.9-2.5,5-2.5c1.6,0,3.3,0.5,5.1,1.3
	c3.2,1.5,5.1,4.8,5.7,9.6c0.4,3.5-0.6,6.4-2.1,10.3c-0.7,1.8-1.3,3.2-1.8,4.3c2.4-1.6,5.8-4.4,8-8.3c1.3-2.2,3.2-5.5,2.8-9.6
	c-0.2-2-0.8-3.3-1.5-4.7c-0.8-1.7-1.8-3.7-1.7-6.8c0-2.3,0.6-7.9,4.7-9.2c0.5-0.2,1-0.2,1.5-0.2c4.7,0,10.4,6.2,13,11.9
	c2.9,6.4,3.2,13.2,0.7,19.8c-2.5,6.8-7.4,12.3-14.9,16.7c-4.9,2.9-9.3,4.2-15.3,5.9c-4,1.1-7.1,1.9-9.5,2.5c-4.5,1.1-6.9,1.7-10,3.3
	c-8.3,4.1-11.7,9.7-12.7,12c-1.1,2.4-1.5,4.7-1.9,6.7c-0.5,3-1,5.8-3.8,6.8C427.5,257.1,426.7,257.2,425.9,257.2z"/>
<path class="st0" d="M418.6,250.6c-1.5-3-0.3-6.2,1.9-11.7c1.3-3.2,3.2-8.1,7.7-13.4c4-4.8,6.4-5.6,6.4-8.4
	c-0.1-2.7-2.3-3.2-3.9-8.1c-0.8-2.4-2.4-7.7-1-9.5c1.5-1.8,4-2.4,6.2-1.4c3.3,1.5,3.8,4.3,7.5,10.7c2.8,4.9,3.7,6.2,5,6.6
	c1.3,0.4,4.3-2.5,6.7-5.9c3.8-5.5,2.8-12.4,2.8-13c-0.2-4.1-0.5-6.5,0.6-8.2c1.5-2.3,4.7-1.9,7.6-0.5c3.8,1.8,4.4,6.6,4.5,8
	c0.3,3-0.5,5.4-2,9.4c-2.1,5.8-4,7.6-3.4,8.2c1,1,8.9-3.1,13.2-10.5c1.3-2.3,3.5-6,3.1-10.8c-0.4-5-3.3-6.3-3.2-11.4
	c0.1-2.8,0.8-6.5,3.3-7.3c3.6-1.1,9.5,4.9,12.1,10.6c1.2,2.6,3.9,9.5,0.7,18.3c-3,8-9.2,12.8-14,15.7c-4.7,2.8-8.8,4-14.9,5.7
	c-11.2,3.2-14.8,3.4-19.9,5.9c-9.9,4.9-13.2,11.9-13.6,12.9c-2.8,6-1.4,11.5-4.5,12.6C424.5,256,420.2,253.8,418.6,250.6z"/>
<path class="st0" d="M331.9,358.9c-3.7,0-8.4-0.7-10.3-4.3c-2.3-4.2,0.7-8.9,2-11l0.2-0.3c1.4-2.3,4-5.4,10.9-8.9
	c3.5-1.8,13.2-5.2,17.7-5.2c0.6,0,2.2,0,3.2,1.2c3.1,3.9-4.2,15.8-5.3,17.3c-2.2,3-7.4,9.9-16,11
	C334.3,358.8,333.3,358.9,331.9,358.9z"/>
<path class="st0" d="M323.3,353.7c-1.8-3.4,1-7.5,2.1-9.2c1.3-2.1,3.7-4.9,10.2-8.2c4.4-2.2,17-6.4,18.4-4.5
	c1.7,2.1-2.9,11.6-5.3,14.9c-2.2,2.9-6.9,9.2-14.6,10.2C333.4,356.9,325.4,357.6,323.3,353.7z"/>
<path class="st0" d="M270.8,513.5c-0.9,0-1.6,0-2-0.1l-0.8,0c-3.5-0.1-8.7-0.4-10.7-4.7c-1.5-3.4,0.3-11.8,1.3-13.6
	c3.2-6,7.1-8.1,9.2-8.8c3.9-1.4,8.7-1.6,12-1.6c0.4,0,10.3,0,12.4,2.1c0.4,0.4,0.7,1,0.7,1.6c0,1.5-1.1,2.3-1.9,2.9
	c-0.7,0.5-1.6,1.2-2.4,2.5c-0.3,0.5-0.5,2.4-0.7,3.9c-0.3,3.1-0.7,6.8-2.6,10C282.4,512.5,275.8,513.5,270.8,513.5z"/>
<path class="st0" d="M259.2,507.9c-1.1-2.6,0.4-10.4,1.2-11.9c2.9-5.5,6.4-7.3,8.1-7.9c8.1-2.8,22.5-1.1,22.5,0.2
	c0,1.2-2.1,1.3-4,4.4c-1.4,2.3-0.4,9.2-3.3,13.9c-3.3,5.4-12.8,4.9-14.7,4.8C265.7,511.3,260.7,511.4,259.2,507.9z"/>
<path class="st0" d="M339.2,575.3c-6.5,0-14.4-0.7-15.5-4.2c-2.2-6.9-1.6-17.7,0.3-24.1c2.7-9.5,7.6-21.2,14.9-23.3
	c1.1-0.3,2.3-0.5,3.4-0.5c10.5,0,18.4,12.7,21.3,18.1c2.1,3.9,6,11.3,3.2,19.2c-3.7,10.7-15.6,13.5-17,13.8
	C347,575,343.2,575.3,339.2,575.3z"/>
<path class="st0" d="M325.6,570.5c-2-6.1-1.6-16.5,0.3-23c2.2-7.6,6.8-20,13.6-21.9c9.7-2.7,18.3,8.9,22.4,16.7
	c2,3.7,5.6,10.5,3.1,17.7c-2.8,8.1-11.4,11.6-15.5,12.5C341.6,574.1,326.5,573.5,325.6,570.5z"/>
<path class="st1" d="M427.3,573.6c-2.2,0-5.4-0.6-10.1-2c-7.7-2.2-10.1-4.3-11.7-6c-0.5-0.6-3.2-3.6-2.9-8c0-0.7,1.4-5.1,4-6.2
	l1-0.4l0.9,0.6c0,0,1.7,1,4.6,1l0.1,0c1.7,0,2.3-0.2,2.9-1.1c0.3-0.5,0.3-0.6,0.4-1c0-0.6,0.1-1.7,1.4-2.6c0.6-0.4,1.3-0.6,2.1-0.6
	c2.6,0,6.8,2.3,9,4.9c2.4,2.9,3.4,5.8,4,11.1c0.4,3.8,0,6.7-1,8.4C431.2,573,429.6,573.6,427.3,573.6L427.3,573.6z"/>
<path class="st1" d="M430.3,570.6c0.6-0.9,1.1-3.1,0.7-7.1c-0.5-5.1-1.5-7.6-3.5-10c-2.1-2.6-6.9-4.9-8.4-3.9c-1,0.7,0,1.3-1.3,3.1
	c-1.2,1.7-2.8,1.9-4.7,1.9c-3.7,0-5.7-1.3-5.7-1.3c-1.6,0.7-2.8,4.1-2.8,4.5c-0.2,3,1.4,5.5,2.3,6.5c1.3,1.4,3.4,3.3,10.8,5.5
	C424.9,571.8,429.2,572.4,430.3,570.6z"/>
<path class="st2" d="M473.6,517.2c-1.3,0-2.9-0.4-4.8-0.8c-3.1-0.7-6.9-1.5-11.6-1.6c-4,0-7-0.7-10.3-1.5c-2.8-0.7-5.8-1.3-9.8-1.7
	c-1.9-0.2-3.8-0.3-5.8-0.3c-3.3,0-6.1,0.2-8.4,0.4c-1.6,0.1-3,0.3-4.2,0.3c-1.4,0-3.1-0.2-4.1-1.3c-2-2.3-3-5.7-2.4-8.8
	c0.8-4.7,3.2-7.3,5.5-8.6c-1.2-0.7-2.2-1.5-3.1-2.5c-1.2-1.3-2.1-2.5-2.7-3.3c-0.1-0.2-0.3-0.2-0.4-0.2c-0.4,0-0.9-0.1-1.4-0.1
	c-2.8-0.2-8.1-0.6-15-2.9c-5.8-2-10.3-4.8-13.2-6.7c-0.6-0.4-1.3-0.9-1.9-1.2c-0.7,1.5-2.1,3.6-4.4,5.6c1.5,0.3,3.1,0.8,4.6,1.6
	c6.2,3.3,7.6,11,7.9,13.3l0.1,0.5c0.4,3,0.9,7.6-2.3,9.3c-0.4,0.2-0.9,0.3-1.5,0.3c-2,0-5.1-1.4-10.7-3.9c-1.7-0.7-3.6-1.6-5.7-2.5
	c-3.1-1.3-9-2.6-14.1-3.7c-3.6-0.8-7-1.5-9.6-2.3c-1.3-0.4-2.8-0.6-4.5-0.8c-3.1-0.4-6.7-1-10.3-2.8c-1.5-0.7-6.3-3.5-7.1-8.2
	c-0.6-3.4,1.3-5.7,5-10.2c1.2-1.4,7.2-8.8,11.5-15.8c1.4-2.3,2-3.5,2.6-4.7c0.7-1.4,1.4-2.8,3.2-5.7c2.8-4.4,5.2-8.2,9.1-12.1
	c2.1-2.1,7.8-7.9,17-11.1c6.5-2.3,11.7-2.3,16.8-2.3l1.8,0c5.3,0,9.8,0.2,14.9,2.5c2.1,1,4.9,3,10.4,7.1c2.1,1.5,3.5,2.7,4.6,3.5
	c2,1.6,2.8,2.2,4.5,3.1c2.8,1.4,5.4,2.7,8.5,2.7c0.5,0,1.1,0,1.7-0.1c2.1-0.3,5.3-1.5,8.2-5.2c3.8-4.7,3.2-10.2,2.8-13.8l-0.1-0.8
	c0-0.5-0.1-1-0.1-1.4c-0.3-3.8-0.6-7.7-3.2-9.6c-2.1-1.5-5.7-1.6-13-1.7c-1.2,0-2.3,0-3.3,0c-3.8,0-6.1,0-7.8-1.4l-0.8-0.7l0.1-1
	c0,0,0.2-3-0.3-7.5c-0.1-0.5-0.6-4.8-4-7.7c-2-1.8-3.3-2-4.4-2.2c-1.1-0.2-2.5-0.4-3.5-2c-2.7-3.9-2.6-16.1-2.2-23
	c0.4-7.9,2.5-13.1,4.5-18.1c0.3-0.8,0.7-1.7,1-2.5c2.8-7.2,5.6-11.1,7.8-14.1c0.5-0.6,0.9-1.3,1.3-1.9c-0.4,0.2-0.7,0.4-1,0.6
	c-5.3,3.5-7,3.5-7.5,3.5c-0.9,0-1.5-0.4-1.8-0.7c-0.4-0.3-0.8-0.9-0.8-1.9c0-1.9,1.5-4.5,3.1-6.1c1.8-1.8,4.1-2.3,5.7-2.6
	c0.3-0.1,0.6-0.1,0.9-0.2c0.3-10.8,2.2-28.8,11.3-33.6c0.9-0.5,1.9-0.7,3.1-0.7c6.6,0,16,8.8,21,17l0.4,0.6l-0.1,0.7
	c-0.4,3.7-0.3,7.6,0.2,8.4c0.9,1.4,1.3,2,3.7,2.3c0.2,0,0.3,0,0.6,0.1c1.5,0.1,4.3,0.3,5.8,2.6c0.1,0.1,0.6,0.6,0.9,0.9
	c1.3,1.3,2.1,2.2,2.3,3.3l0.2,0.9l-0.4,0.5c0,0.2,0.2,0.9,1.2,2.1c1.4,1.6,3.4,2.7,5.1,2.7c0.6,0,1.1-0.1,1.5-0.3
	c0.4-0.2,0.5-0.6,0.5-2.2c0-1.5,0.1-4,2.6-5c0.5-0.2,1-0.3,1.5-0.3c3.1,0,6.6,3,8.3,5.9c0,0,0,0.1,0,0.1c0.7-1.6,1.6-3.7,3.1-5.6
	c2.3-3.1,5.7-5.4,10.1-6.9l0.1,0c2-0.7,3.7-1,5.5-1c1.9,0,3.8,0.3,6.4,0.7c2,0.3,4.4,0.7,7.6,1.1c5.2,0.6,9,0.7,11.7,0.7l1.5,0
	c1.9,0,3.4,0,4.2,1.3c0.3,0.5,0.9,1.5-1.7,11.6c-1,3.8-2.8,10.6-4.7,13.4c-0.2,0.3-0.4,0.7-0.7,1.1c-2.4,3.8-7,10.9-15.2,15.2
	c-2.6,1.3-4.9,2.3-6.7,3c-4,1.6-5.8,2.5-6.8,4.8c-0.7,1.7-0.8,3.2-0.8,4.8c0,0.5,0,0.9,0,1.3c-0.2,3.9-2.8,12.1-6.8,19.2
	c-4.7,8.2-7.1,12.3-11.7,15.4c-1.7,1.1-4.8,2-8.5,3c-3.8,1-8,2.2-10.7,3.7c0.3,1,1.4,2.9,2.1,4.1c0.7,1.3,1.5,2.6,2,3.7
	c3.1,7,4,12,5.5,29.8c1.1,12.9,0.4,22.4-1.9,25.3c-0.3,0.4-0.6,0.8-0.9,1.1c-1.1,1.2-1.7,2-1.7,2.9c0.1,1,1.1,1.7,3.1,3
	c1.8,1.2,4,2.7,6.2,5c0.1,0.1,0.3,0.3,0.4,0.4c1.4,1.5,4.1,4.2,4.5,7.3c0.8,5.2-0.6,20.9-4.5,23.3
	C475.3,517,474.5,517.2,473.6,517.2z"/>
<path class="st2" d="M417.3,318.5c0.3-13.3,2.8-28.6,10.3-32.7c5.3-2.8,16.1,6.8,21.4,15.5c0,0-0.9,7.6,0.5,9.7
	c1.1,1.7,2,2.8,5.1,3.2c1.1,0.2,3.8,0,5,1.8c0.5,0.8,2.7,2.6,2.9,3.5c0,0-1.2,1.3,1.4,4.4c2.5,3,6.4,4.3,9.1,2.8c3-1.6,0.3-6,2.9-7
	c2-0.8,5.7,1.8,7.3,4.8c1,1.7,0.9,3,1.6,3c1.3,0.2,1.9-4.4,4.8-8.3c3.3-4.3,8.3-5.9,9.3-6.3c5.4-1.9,7.6-0.4,18.6,1
	c10.9,1.3,15.4,0.3,15.9,1.1c0.5,0.8-3.4,18.5-6.3,22.9c-2,3-6.5,11.1-15.2,15.6c-7.8,4.1-12.4,4.1-14.4,8.8c-1.1,2.7-0.9,4.8-1,6.8
	c-0.2,3.5-2.7,11.5-6.6,18.3c-4.6,8-6.9,11.9-11.1,14.7c-3.1,2.1-14.4,3.8-19.7,7c-1.8,1.1,2.4,6.6,3.9,9.9
	c2.9,6.6,3.9,11.4,5.4,29.2c1.3,15.5-0.2,22.3-1.4,23.9c-1.4,1.7-3.2,3.2-3,5.5c0.3,3.5,5.1,4.2,9.8,9.2c1,1.1,4,3.9,4.5,6.7
	c0.9,6-1.1,19.8-3.6,21.3c-2,1.2-8.3-2-17.7-2.1c-7.1-0.1-11-2.4-19.9-3.2c-11.7-1.1-19.6,1.6-21.1-0.2c-1.6-1.9-2.4-4.7-2-7.2
	c0.9-5.6,4.4-7.6,7-8.3c0.6-0.2,0.6-1,0.1-1.2c-1.6-0.6-3.6-1.6-5.2-3.4c-1.1-1.2-2-2.3-2.5-3c-0.4-0.6-1.1-1-1.8-1
	c-2.3-0.3-8-0.2-16-3c-9.3-3.2-14.8-8.5-16.9-8.7c0,0-1.1,5-7.7,9c-0.4,0.2-0.2,0.8,0.2,0.8c1.9,0,4.9,0.3,7.8,1.8
	c5.6,3,6.7,10.5,6.8,11.8c0.3,2.5,1,6.6-1.2,7.7c-1.4,0.7-6.8-2-16.2-6.1c-5.5-2.4-17.7-4.2-23.9-6c-3.9-1.2-9.2-0.9-14.5-3.5
	c-2.4-1.2-5.5-3.6-6-6.7c-0.4-2.4,0.8-4,4.6-8.6c0.9-1.1,7.1-8.7,11.7-16c3.1-5,2.5-5.1,5.8-10.4c2.8-4.4,5.1-8,8.8-11.7
	c2.3-2.4,7.7-7.6,16.3-10.6c6.2-2.2,11.2-2.2,16.1-2.2c6.1,0,10.7,0,15.8,2.3c1.9,0.9,4.6,2.9,10,6.9c5.9,4.4,6.5,5.3,9.4,6.7
	c3.4,1.7,6.9,3.5,11.4,2.8c5.4-0.9,8.6-4.9,9.5-5.9c4.6-5.7,3.5-12.5,3.2-16.1c-0.4-4.5-0.4-9.7-4.2-12.4c-2.6-1.9-6.4-1.9-14.2-2.1
	c-5.4-0.1-8.3,0.2-9.8-1c0,0,0.2-3-0.3-7.9c0-0.2-0.5-5.4-4.6-9c-4.3-3.8-6.3-1.8-7.6-3.8c-2-2.9-2.3-12.3-1.9-21.8
	c0.4-8.9,3-14,5.4-20c4.1-10.5,8-13.6,10.3-18c0.3-0.5,0-0.9-0.1-1.1c-0.3-0.4-1.2-0.4-1.6-0.2c-0.8,0.3-2.3,0.8-3.5,1.6
	c-0.6,0.4-6,3.9-6.9,3c-0.6-0.6,0.5-3.2,2.3-5.2C412.7,319.3,417.3,320.3,417.3,318.5z"/>
<path class="st3" d="M204.3,511.6c-4.4,0-5.2-2-5.2-3.2c0-0.1,0-0.3-0.1-0.4c-0.1-0.9-0.4-3.1,1.5-3.6c6.4-1.7,7.9-5.3,9.3-8.8
	c0.2-0.4,0.3-0.7,0.5-1.1c0.3-0.8,0.5-1.8,0.7-2.9c0.4-2.7,1-6.1,4.4-8.7c0,0,0.1-0.1,0.2-0.1c0.8-0.7,2.9-2.5,6.2-2.5
	c0.9,0,1.8,0.1,2.8,0.4c5.7,1.6,11.3,8.6,10,15.1c-1.5,7.4-9.6,10.5-16.7,13.3C216.3,509.7,208.9,511.6,204.3,511.6z"/>
<path class="st3" d="M216.7,484.5c0.7-0.5,3.1-3.1,7.4-1.9c5,1.4,9.7,7.7,8.6,12.8c-1.3,6.3-8.5,9.1-15.5,11.8
	c-2.3,0.9-16.1,4.3-16.2,1.1c0-0.6-0.4-1.9,0-2c8-2.1,9.5-7.2,11.1-11C213.5,492.2,212.5,487.7,216.7,484.5z"/>
<path class="st4" d="M285.9,675.8l0.2-2.2c0-0.2,0.4-6.1-6.2-10.6c-0.6-0.4-1.2-0.8-1.8-1.2c-3-2-6.1-4-6.5-7.2
	c-0.3-2.2,1.8-5,3.1-6.5c2.1-2.5,1.9-13.3,1.7-18.4c-0.7-26.7-7.1-36.5-9.5-40.2c-0.6-1-0.8-2.2-0.4-3.4c0.4-1.2,1.2-2.2,2.2-2.6
	c1.8-0.8,5.1-1.8,8.6-2.9c3.8-1.2,9.6-3,10.6-3.8c0.4-0.3,0.9-0.5,1.5-0.5c0.9,0,1.7,0.5,2.2,1.2c1.1,1.7,4.9,8.4,9.3,24.4
	c4.4,16.1,5.6,21.8,6.1,26.4c1.5,14.8-0.2,23-2.1,25.4l-0.4,0.5c-1,1.2-1.9,2.3-2.3,5.4c-0.5,3.8-1.9,7.2-4.4,10.5
	c-2.4,3.2-7.1,5.8-9.6,5.8L285.9,675.8z"/>
<path class="st4" d="M268.5,588.4c-0.7-1.1-0.1-2.7,0.9-3.1c4.1-1.8,17.4-5.3,19.6-6.9c0.2-0.2,0.6-0.1,0.8,0.2
	c1.1,1.7,4.7,8.2,9.1,23.9c4.3,15.5,5.5,21.4,6,26c1.5,14.8-0.3,22.1-1.7,24c-1.1,1.4-2.5,2.8-3.1,6.8c-0.5,4.2-2.3,7.3-4,9.6
	c-2.2,2.9-6.4,5-8,5c0,0,0.7-7.1-7.1-12.5c-3.3-2.3-7.1-4.2-7.5-7c-0.2-1.5,2.1-4.3,2.6-4.9c2.5-2.9,2.4-11.9,2.2-19.8
	C277.6,602.4,271,592.3,268.5,588.4z"/>
<path class="st5" d="M307.5,389.8c-1.5,0-3.7-0.2-7.3-0.7c-1.2-0.2-4.5-1.5-5.6-5.7c-1.1-4,0.7-11.6,2.7-14.3c0.8-1,1.6-1.5,2.6-1.5
	c3.9,0,8.1,7.7,8.6,8.6c0.5,1,5,9.7,2,12.8C309.7,389.7,308.6,389.8,307.5,389.8z"/>
<path class="st5" d="M299.9,369.7c1.9,0,5.1,4.2,6.8,7.5c1.8,3.5,3.7,9,2.3,10.4c-0.6,0.6-4,0.2-8.6-0.4c-0.5-0.1-3.1-0.9-4-4.2
	C295.4,378.8,297.9,369.7,299.9,369.7z"/>
<path class="st0" d="M115.2,550.3c-1.9,0-5.5-0.7-9.4-2.8c-7.1-3.8-7.9-4.8-8.5-6.9l0-0.2c-1.1-3.8,1.4-7.7,3.9-9.8
	c3.2-2.8,9.6-4.9,13.2-4.9c0.7,0,1.4,0.1,1.9,0.3c0.5,0.2,1,0.5,2.6,1.5c1,0.7,2.3,1.6,3.1,2c0.9,0.5,1.4,1.4,1.4,2.4
	c0,1-0.6,1.9-1.5,2.3c-0.2,0.1-0.4,0.2-0.7,0.3c-2.2,1-4.6,2-5.2,5.6c-0.7,4.5,1.6,6.7,1.6,6.7l1.6,1.5l-1.6,1.5
	C116.8,550.2,115.8,550.3,115.2,550.3L115.2,550.3z"/>
<path class="st0" d="M115.6,527.8c-2.6-0.8-10.1,1.5-13.2,4.2c-1.6,1.4-4.2,4.6-3.3,7.8c0.4,1.4,0.3,2,7.5,5.9
	c4.6,2.4,8.9,2.9,9.5,2.4c0,0-3.1-2.8-2.2-8.5c0.8-5,4.7-6.3,7-7.3c0.5-0.2,0.5-0.9,0-1.1C119.2,530.3,116.2,528,115.6,527.8z"/>
<path class="st0" d="M127.9,602.1c-1.9,0-4.7-0.8-6-2.3c-0.7-0.8-0.9-2.1-0.4-3.1c0.1-0.2,0.3-0.6,0.6-1.2c1-2,0.4-5.3,0.1-7.3
	c-0.6-3.3-3.5-6.2-4.7-7.5c-0.8-0.8-1.4-1.4-1.2-2.5c0.1-0.6,0.6-2,2.9-2c2.6,0,7.9,1.6,10.6,4.4c0.2,0.2,5.8,6,4.5,13.7
	c-0.3,1.6-1.1,6.4-4.9,7.4C128.9,602,128.4,602.1,127.9,602.1z"/>
<path class="st0" d="M118.2,578.6c0.2-1,7.1,0.3,10.2,3.5c0.2,0.2,5.1,5.4,3.9,12c-0.2,1.2-0.9,5.1-3.5,5.9
	c-1.5,0.4-4.5-0.4-5.5-1.5c-0.2-0.3-0.3-0.6-0.1-1c0.1-0.2,0.3-0.6,0.6-1.1c1.3-2.5,0.7-6,0.2-8.5
	C123.2,582.8,118.1,578.9,118.2,578.6z"/>
<path class="st6" d="M90.2,506.3c-0.8,0-2.4-0.3-3.1-0.4c-2-0.4-3.4-0.6-3.6-2.2c-0.2-1.1-0.4-1.6-0.9-2.8c-0.3-0.6-0.6-1.3-1-2.3
	c-0.8-1.9-2.3-3.4-4.6-4.4c-1-0.5-4.7-1.1-5.6-1.1h-0.1l-0.7-0.1l-0.2-0.1c-1.5-0.6-5.9-2.2-8.1-2.2l0,0c-1.1,0-2-0.7-2.2-1.8
	c-0.2-1,0.2-2.1,1.2-2.5c1.7-0.9,6-4.5,6.5-7.2c0.2-1.2,1.2-2,2.3-2c0.3,0,0.6,0.1,0.9,0.2c1.9,0.9,3.5,1.9,5.1,2.9
	c2.6,1.6,5.2,3.3,9.9,5.1c5.9,2.2,14.8,3.2,16.6,3.3c0.8,0.1,1.5,0.4,2.2,0.8c0.8,0.6,1.9,1.7,3.1,3.5c0.4,0.7,0.5,1.5,0.1,2.2
	c-0.4,0.7-1.1,1.2-1.9,1.2c-1.1,0-6.7,0.4-9.6,3c-2.8,2.5-3.5,3.6-4,5.2C92.3,505.1,91.9,506.3,90.2,506.3z"/>
<path class="st6" d="M62.2,488.8c-0.3,0-0.4-0.5-0.2-0.6c2.1-1,6.9-5,7.6-8.6c0-0.2,0.3-0.5,0.5-0.4c4.7,2.2,7.2,5.1,15.2,8.1
	c5.5,2.1,13.5,3.1,17.1,3.4c0.4,0,0.8,0.2,1.1,0.4c0.6,0.5,1.6,1.4,2.6,3c0.1,0.2,0,0.4-0.2,0.4c-1.6,0.1-7.5,0.5-10.9,3.4
	c-3,2.6-3.9,4-4.6,6.2c-0.1,0.3-5-0.6-5-0.8c-0.3-2-0.9-2.7-2-5.5c-1.2-3.1-3.8-4.7-5.6-5.5c-1.3-0.6-5.3-1.3-6.5-1.3
	c-0.1,0-0.2,0-0.3,0C71.1,491.1,65.3,488.8,62.2,488.8z"/>
<path class="st6" d="M157.3,527.2c-5.6,0-11.8-5.6-12.4-6.2c-3.6-4.3-4.2-9.8-3.7-12.3c0.1-0.4,0.3-1.7,1.4-2.3
	c0.3-0.2,0.7-0.3,1.1-0.3c1.1,0,2.5,0.8,5.9,3c-1.4-2.8-2.9-6.6-2.7-10.9c0.1-3.4,2.5-7.6,4.7-8.3c0.2-0.1,0.4-0.1,0.7-0.1
	c1.3,0,2.3,1,3.6,2.3c0.9,0.9,2.6,2.7,3.5,2.7c0.6-0.1,1.7-1.4,2.3-2c0.6-0.7,1.1-1.2,1.7-1.5l0.4-0.2l0.6,0c2.5,0,7.6,6.3,7.7,6.3
	c1.9,2.7,6,11.3,4.9,15.1c-0.3,1-0.9,1.8-1.8,2.1c-1.3,0.5-7.2,4.5-8.5,6c-0.5,0.5-0.9,1-1.3,1.5c-2.7,3.1-3.9,4.5-6.7,5
	C158.1,527.2,157.7,527.2,157.3,527.2z M154.2,511.7C154.2,511.7,154.2,511.7,154.2,511.7z"/>
<path class="st6" d="M158.2,525.2c-4.8,0.7-11.2-4.7-11.8-5.5c-3.9-4.6-3.8-11.1-2.9-11.6c0.9-0.5,9.8,6.3,10.6,5.5
	c0.8-0.7-5.6-7-5.3-15.3c0.1-3.1,2.3-6.1,3.3-6.4c1.2-0.3,4.7,5.7,7.7,4.9c1.8-0.5,3.6-3.3,4.3-3.7c0.7-0.4,5.1,4,6.1,5.5
	c2.5,3.4,6.4,13.2,4,14.3c-1.5,0.6-7.7,4.7-9.3,6.5C161.4,523.5,160.7,524.8,158.2,525.2z"/>
<path class="st6" d="M343.2,302.6c-1.2,0-2.2-0.1-3-0.3c-2.5-0.6-4.1-3-3.6-5.5c1.1-5.5,2.3-9.2,3.7-10.8c0.7-0.8,1.7-1.3,2.8-1.3
	c0.9,0,1.8,0.3,2.4,1c1.5,1.4,3.5,4.6,5.8,9.6c0.7,1.5,0.7,3.1-0.1,4.6c-0.8,1.4-2.2,2.4-3.9,2.6
	C345.8,302.5,344.4,302.6,343.2,302.6z"/>
<path class="st6" d="M341.8,287.2c0.6-0.7,1.7-0.8,2.3-0.2c1.7,1.6,3.9,5.8,5.4,9c0.9,1.9-0.3,4.1-2.4,4.3c-2.2,0.3-4.8,0.4-6.5,0
	c-1.5-0.3-2.4-1.7-2.1-3.2C339.2,294.1,340.4,289,341.8,287.2z"/>
<path class="st6" d="M210,542.8c-4.6-0.1-7.3-1.2-8-3.5c-0.3-0.9-0.2-1.8,0.2-2.7c1-2.3,3.3-3.3,5-3.5c0.2,0,0.5,0,0.7,0
	c2.3,0,4,1.4,5.7,2.7c1.5,1.2,3.3,2.7,2.7,4.7c-0.7,2.3-3.8,2.3-5.5,2.3L210,542.8z"/>
<path class="st6" d="M204,537.4c0.6-1.4,2.1-2.2,3.4-2.3c1.8-0.2,3.2,0.9,4.9,2.2c1.1,0.9,2.3,1.8,2,2.6c-0.3,1-2.8,0.9-4.3,0.9
	c-1.5,0-5.5-0.2-6.1-2C203.7,538.2,203.8,537.9,204,537.4z"/>
<path class="st6" d="M195,606.7c-2,0-3.8-1.2-4.5-3c-0.6-1.5-0.5-3.5,0.9-4.8c0.7-0.6,1.5-0.9,2.5-0.9c1.1,0,2.1,0.4,2.4,0.6
	c1.8,0.8,3.6,2.7,3.1,4.9c-0.4,1.9-2.2,2.8-3.6,3.1C195.5,606.7,195.3,606.7,195,606.7z"/>
<path class="st6" d="M192.7,600.5c0.9-0.8,2.4-0.1,2.7,0c0.9,0.4,2.3,1.5,2,2.7c-0.2,0.9-1.3,1.4-2,1.5c-1.2,0.2-2.7-0.4-3.2-1.7
	C192,602.3,192,601.1,192.7,600.5z"/>
<path class="st6" d="M244.7,551.9c-1.1,0-1.8-0.3-2.3-0.6c-0.3-0.2-0.6-0.3-1-0.4c-0.1,0-0.4-0.1-0.9-0.3c-0.7-0.2-1.8-0.6-2.9-1
	c-0.2-0.1-0.4-0.1-0.6-0.2c-1.2-0.3-2.4-0.7-2.8-2c-0.6-2.2,2-4,3.8-4.6c0.7-0.2,1.5-0.4,2.2-0.4c1.3,0,2.5,0.4,3.4,0.6
	c1.8,0.5,5.9,2.1,6.1,4.8c0.2,2.2-2.1,3.6-4.3,3.9C245.2,551.9,244.9,551.9,244.7,551.9z"/>
<path class="st6" d="M236.2,546.9c-0.2-0.7,1.2-1.8,2.6-2.2c1.6-0.5,3.1-0.1,4.4,0.3c0.6,0.2,4.6,1.6,4.7,3.1
	c0.1,0.9-1.4,1.7-2.6,1.8c-1.5,0.2-1.6-0.4-3.3-0.9c-0.4-0.1-2-0.7-3.8-1.3C237.3,547.5,236.2,547.2,236.2,546.9z"/>
<path class="st6" d="M223.4,608.5c-2.2,0-4.1-1.3-5.1-2.7c-0.9-1.2-0.8-2.2-0.6-2.8c0.6-1.8,2.7-2,3.7-2.1c0.2,0,0.4,0,0.6,0
	c2.5,0,6,1.2,6.1,3.8c0.1,1.9-1.8,3.2-3.6,3.6C224,608.5,223.7,608.5,223.4,608.5z"/>
<path class="st6" d="M219.5,603.6c0.2-0.6,1.3-0.6,2-0.7c2.1-0.1,4.5,0.8,4.5,1.9c0,0.7-1.1,1.4-2,1.6
	C221.7,606.9,219.2,604.6,219.5,603.6z"/>
<path class="st7" d="M233.2,463c-1.1,0-2.3-0.3-3.9-0.6c-2.9-0.7-7.3-1.7-14.7-2c-3.3-0.2-6.4-0.9-9.6-1.6
	c-3.9-0.9-7.8-1.8-12.5-1.8c-0.7,0-1.4,0-2.1,0.1c-1.6,0.1-3.1,0.2-4.5,0.3c-3.1,0.2-5.6,0.4-7.8,0.4c-4.9,0-8.3-0.8-13.1-3.1
	c-4.2-2-6.8-4.3-7.8-6.9c-0.1-0.3-0.2-0.5-0.3-0.7c-0.7,3.4-2.5,8.4-7.2,8.4c-1.9,0-3.9-0.9-6-2.6c-0.2-0.1-0.4-0.1-0.6-0.2
	c-1.5-0.4-4-1.1-6.8-2.4c-4.5-2.2-10-4.3-22.1-7.5c-3.5-0.9-7-1.5-10.3-2.1c-4.8-0.8-9.3-1.6-13.6-3.2c-5.6-2.1-8.4-6.6-8.7-9.9
	c-0.3-3.7,1.9-6.2,4.7-9.3c1-1.1,2.2-2.4,3.3-3.9c4.2-5.4,6.8-9.6,9.7-14.5c0.7-1.1,1.4-2.3,2.1-3.5c1.2-2,3.6-5.7,5.4-8.5
	c-1.8-0.3-3.9-0.9-5.5-1.9l-0.5-0.3c-2.5-1.5-6.2-3.9-8-9.5c-0.4-1.3-1.8-5.9-0.5-8.3c0.4-0.8,1.1-1.3,1.9-1.5
	c0.2-0.1,0.5-0.1,0.7-0.1c1.1,0,2.5,0.6,5,2.1c-0.6-1.4-1.2-2.9-1.7-4.5c-1.4-5.1-0.1-8.6,0.9-10.2c1.1-1.8,2.6-3.1,4.2-3.5l0.3-0.1
	l0.4,0c1.4,0,2.1,0.8,3.3,2c0.5,0.5,1.1,1.1,1.9,2c0.8,0.8,1.3,0.9,1.5,0.9c0,0,0,0,0,0c0.4-0.2,1.1-1,1.5-1.5
	c1-1.1,1.9-2.2,3.5-2.2h0.2l0.2,0c1.6,0.2,5.8,3.2,8.1,7.4c2,3.8,3.5,7.8,4.3,10.4c1.1-0.4,2.4-0.9,4.1-1.4c2.9-0.9,4.2-1.1,9.8-1.6
	c1.5-0.1,3.5-0.2,5.7-0.2c2.3,0,4.6,0.1,6.1,0.2c4.4,0.4,9.2,1.3,14.3,5.1c1.8,1.3,3,2.3,4.2,3.2c1.8,1.4,3.4,2.8,7.3,5.4
	c4.9,3.2,9.5,5.1,12.5,5.1c0.2,0,0.3,0,0.5,0c4.5-0.3,8.3-4.5,9-5.6c1.9-2.8,2.8-6.5,2.5-11.3l0-0.2c-0.1-3.2-0.4-10.5-3-12.7
	c-1.4-1.2-4.9-1.8-10.5-1.9l-1.7,0c-3.4-0.1-7.7-0.1-10-0.4c-1.1,1-2.8,1.6-5.1,1.6c-2.2,0-5.2-0.5-8.7-1.5l-0.7-0.2
	c-2.9-0.8-7.7-2.2-12.4-6.1c-4.1-3.5-3.9-8.2-2.2-11.5c0.2-0.4,0.4-0.8,0.7-1.2c-0.7-0.8-1.3-1.9-1.5-3.3c-0.1-0.9-0.2-4.1,2.5-6.4
	c1.1-0.9,2.4-1.4,3.8-1.4c1.6,0,3.1,0.6,4.6,1.3l0.2,0.1c0.6,0.2,1.2,0.5,1.8,0.9c-0.5-2.5-0.9-5.6-0.8-8.4c0-0.8,0-1.8,0-2.9
	c0-4.4,0-10.5,1.4-15.2c1.8-6.1,4-11.2,5.9-15.7c1.7-4,4.2-7.5,6.1-10.3c0.1-0.1,0.1-0.2,0.2-0.3c-0.3,0.2-0.6,0.3-0.8,0.5
	c-2.9,1.6-4.7,2.6-6.2,2.6c-1,0-1.8-0.4-2.4-1.1c-1.4-1.7-1.9-4.7,3.7-9.3c1.6-1.4,3.7-1.8,5.2-2c0.1-1.2,0.2-2.5,0.4-4
	c0.3-3.4,0.7-7.6,1.3-12c0.7-4.7,4.3-17.1,12.1-18.3c0.4-0.1,0.9-0.1,1.3-0.1c3,0,5.9,1.4,8.7,3.3c-5.2-5.4-3.5-9.4-2.5-10.9
	c1.7-2.6,4.7-4.1,8.2-4.1c2,0,4.3,0.5,6.7,1.4c3.6,1.4,5.8,4.5,7.3,7c0.2-1.6-0.1-4-1.9-7c-0.9-1.5-2.6-3.1-4.4-4.9
	c-2.9-2.9-5.9-5.8-7.1-9.2c-0.6-1.6-0.4-3.2,0.4-4.6c1.3-2.2,4.1-3.4,6.3-3.7c0.3-0.1,0.7-0.1,1.1-0.1c3.9,0,9.4,2.7,12.3,7.9
	c1.8,3.3,2.6,5.9,3.1,7.6c0.1,0.4,0.3,0.9,0.4,1.2c0.5-0.5,1.3-1.5,2.4-3.4c2.8-4.7,4.4-10,3.6-11.9c-0.2-0.5-2.1-3.6-6-6.4
	c-1.3-0.9-2.6-1.8-3.8-2.6c-4.1-2.7-7.3-4.9-8.5-8c-2.7-7.1,0.8-9.9,3.2-11.8c1.6-1.3,3.8-1.9,6.5-1.9c3.1,0,6.8,0.9,9.1,2.3
	c5.4,3.1,9.9,8.7,11.1,10.3c3.6,4.7,5.2,10,4.7,15.3l0,0.4c-0.3,2.9-0.8,8.4-4.2,16.8c-0.5,1.3-1.4,2.9-2.1,4.1
	c1.3,1.5,3,3.9,4.5,7.9c0.4,0.9,1.4,2.5,2.3,3.9c0.6,0.9,1.2,1.8,1.6,2.6c0.2,0.4,0.4,0.6,0.5,0.7c0.6-0.4,1.5-1.5,2-2.1
	c0.4-0.5,0.8-1,1.2-1.4c2.6-2.7,4.1-6.4,3.2-16c-0.3-3.4,0.3-5.9,1.8-7.5c0.8-0.9,2.2-1.9,4.6-1.9c1.5,0,3.2,0.4,5,1.2
	c4.4,1.8,6.5,6,6.4,12.4c0,0.1,0,0.2,0,0.3c0.1,3.3-1.8,7.3-3.5,10.8c2.6-2.1,5.7-5.1,7.2-7.9c3.8-7.1,2.4-10.1,0.9-13.2
	c-0.8-1.7-1.6-3.5-1.7-5.7l0-0.3c0-3.7-0.1-8.9,4.9-10.7c0.7-0.2,1.4-0.4,2.1-0.4c6.3,0,12.9,9.2,14.9,17.4
	c3.1,12.6-4.4,21.9-9.1,26.3l-0.2,0.2c-7.8,7.7-17.8,10.2-28.5,12.9l-1.1,0.3c-8.5,2.1-14.9,4.1-21.1,10.3c-2.4,2.4-3.9,5.2-4.5,7
	c3.3,0.8,5.4,3.2,6.8,5.2c1.3-2.6,3.5-6,6.9-8.5c4-2.9,6.8-4.1,13.3-4.1c0.6,0,1.3,0,2,0c1.3,0,2.8,0.3,4.7,0.7
	c3,0.6,7,1.3,12.5,1.5c1.5,0,2.8,0,3.8,0l2.3,0c2,0,3.7,0,5,1.6c0.6,0.7,1.2,1.4-0.4,8.2c-0.9,4-2.1,8-3.4,11
	c-4.7,11.7-8.6,15.1-13.1,19c-4.4,3.8-8.8,5.5-12.3,6.8c-2.8,1.1-5,1.9-6.2,3.4c-0.6,0.7-0.7,2.1-0.9,4.3c-0.1,2.5-0.3,5.9-1.8,10.1
	c-2.2,6.3-3.9,9.4-6,13.3l-0.2,0.3c-2.9,5.3-6.2,9.5-8,11.5c1.8,2.9,5.1,9.5,8.2,22c1,3.9,1.8,7.1,2.6,10c1.5,5.6,2.7,10,3.6,15.6
	c1.2,7.6,0.6,16.5,0.1,21.6c0.7-0.2,1.5-0.3,2.3-0.3c1.1,0,2.2,0.2,3.3,0.6c5.3,2,8.9,7.1,9.7,11.2c1.1,5.2-2.4,9.3-4.6,11.3
	c-4.4,4-9.7,5.8-15.3,7.5c-3.2,0.9-6.4,1.4-9.6,1.4c-0.9,0-1.8,0-2.5-0.1c-0.3,4.3-1.2,11.7-4.7,14.2
	C235.3,462.7,234.3,463,233.2,463z M202.5,235.1c1.7,1.7,3.3,3.5,4.5,5c0-1-0.1-1.6-0.2-2c-0.3-0.3-1.1-0.8-1.8-1.2
	C204.4,236.3,203.5,235.8,202.5,235.1z"/>
<path class="st7" d="M84,427.3c-0.3-3.7,3.3-6.1,7.6-11.6c5.3-6.7,7.9-11.5,12-18.2c2-3.3,7.5-11.7,7.5-11.7s-5.4,0-8.4-1.9
	c-2.4-1.5-5.9-3.4-7.6-8.5c-1-2.9-1.3-6.5-0.2-6.8c1.3-0.3,10,6,10.6,5.5c0.4-0.3-3.3-5.3-4.8-10.9c-1.8-6.5,1.5-10.3,3.3-10.7
	c0.5-0.1,1.1,0.9,3.5,3.3c1.9,1.9,3.6,1.6,4,1.4c1.8-0.6,3.3-3.7,4.3-3.6c0.5,0.1,4.2,2.3,6.3,6.2c2.7,5.1,4.4,10.8,4.7,12.1
	c0,0.2,0.2,0.2,0.3,0.2c0.8-0.2,3-1.1,6.1-2.1c2.7-0.9,3.8-1,9.2-1.5c3-0.3,8.4-0.2,11.4,0c3.8,0.3,8.2,1,13.2,4.6
	c4.5,3.3,5,4.3,11.5,8.7c5.3,3.5,10.7,5.8,14.5,5.5c5.9-0.4,10.2-5.8,10.8-6.6c2.9-4.2,3.1-9.3,3-12.8c-0.2-3.9-0.4-11.8-3.8-14.7
	c-2-1.7-6-2.4-12-2.5c-3.4-0.1-9.4-0.1-11.8-0.4c-0.5-0.1-1.1,0.1-1.4,0.5c-0.8,0.9-3.3,2.1-11.6-0.3c-2.6-0.7-7.5-1.9-12.2-5.9
	c-3.1-2.6-2.9-6-1.6-8.5c0.5-1,1.1-1.9,1.6-2.3c0.2-0.1,0.2-0.4,0-0.5c-0.7-0.4-2-1.5-2.2-3.1c0-0.4-0.2-2.7,1.7-4.4
	c1.8-1.6,3.8-0.7,6,0.3c1.6,0.7,3.8,2,5.2,2.8c0.4,0.2,0.9-0.1,0.8-0.6c-0.5-2.4-1.8-7.6-1.6-11.9c0.1-3.7-0.3-11.9,1.3-17.5
	c1.7-5.8,3.7-10.6,5.8-15.4c3.2-7.6,9.9-14,8.7-15.5c-1.5-1.7-10.8,5.8-12,4.4c-0.7-0.9-0.4-2.8,3.4-6c1.6-1.3,4-1.5,5.1-1.6
	c0.4,0,0.7-0.6,0.8-1c0.5-3.9,0.8-10.1,1.8-16.8c0.8-5.2,4.3-15.4,10.1-16.3c7.5-1.1,16.8,10.8,19.5,15.1c0.2,0.3,0.8,0.2,0.8-0.2
	c0.3-2.1,0.7-6.7,0-8.5c-0.5-1.3-4.2-2.7-8.2-6.4c-4-3.7-4.2-6.7-3-8.6c1.9-2.8,5.9-4.2,12-1.8c5.5,2.2,7.5,9.9,8.5,9.4
	c0.8-0.3,4.5-5.3-0.2-12.9c-2.6-4.1-9.6-8.8-11.3-13.6c-1.1-3.2,2.7-4.9,4.8-5.2c2.6-0.4,8.1,1.6,10.9,6.6c3.5,6.3,2.8,9.6,4.9,10.4
	c1.6,0.6,3.7-2.4,5.2-4.9c2.5-4.2,5.1-10.8,3.7-14.1c-0.4-1-2.6-4.4-6.8-7.4c-5.5-3.9-10.3-6.3-11.5-9.5c-2.1-5.5,0.2-7.2,2.5-9.1
	c3.1-2.5,9.8-1.2,12.9,0.6c4.7,2.7,8.8,7.6,10.4,9.7c3,4,4.7,8.7,4.2,13.6c-0.3,2.7-0.6,8-4,16.5c-0.7,1.6-2.1,4.1-2.7,5
	c-0.1,0.2-0.2,0.5,0,0.6c1.2,0.9,3.2,3.2,5.1,8.1c0.7,1.8,2.8,4.7,4,6.8c2.8,4.8,5.5-0.2,7.6-2.3c3.5-3.6,4.7-8.5,3.9-17.8
	c-0.7-8.2,4.5-7.3,8.1-5.8c5.6,2.3,4.9,9.4,4.9,10.5c0.1,5.4-6.7,14.8-5.6,15.6c1.4,1,10.6-5.7,13.8-11.6c6.3-12-0.4-14.6-0.4-20.1
	c0-3.7-0.2-7.4,3.3-8.7c4.7-1.7,11.8,6.8,13.9,15.4c3.4,13.8-7.6,23.3-8.6,24.2c-7.6,7.5-17.6,9.8-28.5,12.6
	c-8.4,2.1-15.5,4.1-22.2,11c-4.5,4.6-6.5,10.7-5.1,10.7c6.6,0.3,8.6,8,9.2,8.1c0.7,0.1,2.4-7.3,8.2-11.5c3.9-2.8,6.2-3.9,13.9-3.7
	c3.1,0.1,8.2,1.9,17.2,2.2c7.3,0.2,8.4-0.3,9.3,0.8c0.5,0.6-1.4,10.2-4.1,16.8c-4.5,11-7.9,14.1-12.5,18.1
	c-7.6,6.6-15.3,6.3-18.8,10.5c-2.4,2.8-0.4,7.6-3.1,15.2c-2.2,6.3-3.9,9.3-6.1,13.3c-4.1,7.4-8.9,12.5-8.9,12.5s4.7,5.6,8.9,22.8
	c2.8,11.4,4.7,17.1,6.1,25.4c1.8,11.1-0.4,25.2-0.4,25.2s3.6-2.8,7.6-1.3c4.2,1.6,7.4,5.8,8.2,9.4c0.8,3.9-1.9,7.3-3.9,9.1
	c-4.1,3.8-9.5,5.5-14.3,6.9c-7.9,2.3-13.7,0.8-13.7,0.8s-0.1,12.3-3.8,15c-2,1.5-5.7-1.6-20-2.2c-7.5-0.3-14.4-3.9-24.4-3.3
	c-12.7,0.7-16.2,1.6-24.3-2.2c-8.7-4.1-6.8-8.1-6.8-8.1s-2.8-0.6-4.4-0.4c0,0-0.8,14.7-10,6.8c-0.3-0.3-3.8-0.9-7.6-2.7
	c-5.1-2.4-11-4.6-22.5-7.6c-8.6-2.3-16.5-2.6-23.7-5.3C86.3,433.3,84.2,429.6,84,427.3z"/>
</svg>
