<?xml version="1.0" encoding="utf-8"?>
<!-- Generator: Adobe Illustrator 26.0.3, SVG Export Plug-In . SVG Version: 6.00 Build 0)  -->
<svg version="1.1" id="Layer_1" xmlns="http://www.w3.org/2000/svg" xmlns:xlink="http://www.w3.org/1999/xlink" x="0px" y="0px"
	 viewBox="0 0 566.9 566.9" style="enable-background:new 0 0 566.9 566.9;" xml:space="preserve">
<style type="text/css">
	.st0{fill:none;stroke:#5ECAE7;stroke-miterlimit:10;}
	.st1{fill:none;stroke:#BF1F3F;stroke-miterlimit:10;}
	.st2{fill:none;stroke:#DD9A34;stroke-miterlimit:10;}
</style>
<path class="st0" d="M193.5,320.1c-8.5,0-9.2-0.7-9.6-1.1c-0.7-0.6-0.9-0.9-1.1-8.5c-0.1-3.1,0-6.3,0-8.7
	c-3.4-0.3-11.3-1.4-17.6-9.3c-2.7-3.5-6-10.3-6.3-18c-0.2-7.5,2.6-14.2,8-18.9c3.9-3.4,11.9-4.1,16.2-4.2c0-1.3-0.1-2.9,0-3.6
	l0.1-0.5l0.3-0.4c0.5-0.7,0.9-1.3,10.8-1.3c4,0,6.7,0,6.8,2.3c0,0.5,0,1.9-0.1,3.2c0.7,0,1.4-0.1,2.3-0.1c5.9,0,16.4,1.6,20.6,12.6
	c3.5,9.4,3,18.8-1.4,25.9c-2.9,4.7-8.9,10.5-21.1,12.1c-0.2,15.1-0.7,16.3-0.9,16.7C199.8,319.8,198.4,320.1,193.5,320.1z"/>
<path class="st0" d="M198.9,253.3c0,0,17.6-3.3,23.1,11c5.6,14.8,1.3,33.3-22.6,35.6c0,0-0.2,16.4-0.7,17.7
	c-0.4,0.9-12.9,0.5-13.4,0c-0.5-0.5-0.6-12.7-0.4-17.5c0-0.6-10.2,1.1-18.1-8.8c-2.4-3-5.6-9.4-5.8-16.8c-0.2-6.4,1.9-12.7,7.3-17.4
	c4.6-4.1,17-3.7,17-3.7s-0.2-4.3-0.1-5.4c0.2-0.3,14-0.9,14,0C199.1,248.7,198.9,253.3,198.9,253.3z"/>
<path class="st0" d="M181.4,290.9c-2-0.1-5.1-1-8.6-4.1c-3.3-3-5-7.2-4.8-11.8c0.2-4.9,2.6-9.7,6-12.3c3.1-2.4,5.8-3,7.5-3.2
	c0.1,0,0.2,0,0.3,0c1.1,0,2,0.4,2.8,1.2c0.7,0.8,1.2,1.8,1.1,2.8l-0.2,23.5c0,2.2-1.8,3.9-3.9,3.9
	C181.7,290.9,181.5,290.9,181.4,290.9z"/>
<path class="st0" d="M183.6,287l0.2-23.5c0-1.2-1-2.1-2.1-2c-1.5,0.1-3.8,0.7-6.5,2.8c-5.1,3.8-8.1,14.7-1,21.1
	c3,2.8,5.7,3.5,7.4,3.6C182.7,289,183.6,288.1,183.6,287z"/>
<path class="st1" d="M279.7,322.1c-3.4,0-3.5,0-3.7,0c-2-0.3-2-2-2.1-6.7c0-2.7,0-6.2,0.1-9.2c0-1.6,0.1-3.3,0.1-4.5
	c-6-0.1-17.3-1.3-20.2-12.1c-1.7-6.1-0.4-28.5,5-41.2l0.6-1.3l10.8,1.1c0.8,0.1,1.6,0.6,2.1,1.3c0.4,0.6,0.6,1.3,0.5,2
	c-3.5,20.6-5.5,33.3-3.6,35.6c0.1,0.1,0.4,0.5,1.9,0.5c0.8,0,1.8-0.1,3-0.2c0.3,0,0.6-0.1,1-0.1c0.1-2.6-0.2-8.4-0.4-13.3
	c-0.3-7.7-0.6-16.4-0.3-20.7c0.1-1.9,2-2.1,4.4-2.2c1.6-0.1,3.6-0.2,5.3-0.2c5.1,0,5.9,0.4,6.5,1.1l0.6,0.6l0,0.9
	c-0.2,3.9,0,27.4,0.2,33.7c0.9,0,1.8,0.1,2.6,0.1c2.2,0,2.8-0.4,3.1-0.8c2.1-2.6-0.1-14.7-4.6-34.9c-0.4-1.9,0.7-3,1.9-3.3
	c1.6-0.4,7.7-1.4,9.6-1.4c0.4,0,1.5,0,2.2,1c6.7,11.1,9,32.4,6.2,42.1c-2.8,9.8-11.9,11.6-20.8,11.8c0,1.2,0,2.9,0.1,4.4
	c0.1,3,0.1,6.5,0.1,9.2c0,4.2-0.1,6.5-2.3,6.7l-0.1,0H289C289,322.1,283.5,322.1,279.7,322.1z"/>
<path class="st1" d="M289,320.1c0,0-12.4,0-12.8,0c-0.7-0.1,0-20.4-0.2-20.4c-7.7,0-17.6-1.1-20.2-10.7c-1.6-5.9-0.3-27.8,4.9-39.9
	l9.2,0.9c0.5,0.1,1,0.5,0.9,1c-7.2,42.3-5.6,38.7,5.8,37.9c1-0.1-1-27.1-0.4-35.7c0-0.5,12.9-0.9,12.8,0c-0.2,4.2,0,35.7,0.4,35.7
	c11.2,0.4,13.9,2.8,4.8-37.9c-0.1-0.5,0-0.9,0.4-1c1.9-0.5,9.4-1.6,9.6-1.2c6.5,10.8,8.6,31.3,6,40.5c-2.4,8.4-10.2,10.4-20.8,10.4
	C289.1,299.7,290,320,289,320.1z"/>
<path class="st0" d="M202.1,290.9c-2.2,0-4.1-1.8-4.1-4.1v-23.2c0-2.2,1.8-4.1,4.1-4.1c0.1,0,0.2,0,0.2,0c2.1,0.1,5.3,0.8,8.5,3.3
	c3.2,2.5,5.4,7.3,5.6,12.1c0.2,4.6-1.4,8.7-4.5,11.7c-3.5,3.3-7.2,4.1-9.7,4.2L202.1,290.9z"/>
<path class="st0" d="M200,286.8v-23.2c0-1.2,1-2.1,2.2-2.1c1.8,0.1,4.6,0.7,7.4,2.9c4.8,3.8,7.5,14.5,1,20.8
	c-3.1,2.9-6.3,3.6-8.4,3.7C201,289,200,288,200,286.8z"/>
<path class="st2" d="M387.9,321c-9.6,0-11.3-1.1-12.2-2.1c-3.1-3.7-1.3-12.4-1.3-12.4c0.6-2.6,1.5-3.4,3.1-4.7
	c0.9-0.7,2.1-1.6,3.8-3.4c2.7-2.8,4.2-7.8,4-13.7c-0.2-6.8-2.4-12.2-4.4-14.1c-3.3-3.1-7.1-4.7-10.9-4.7c-3.9,0-7.7,1.7-11.3,5
	c-2.8,2.6-4.3,8.1-3.9,14.4c0.4,6.4,2.6,12.2,5.6,14.3c0.8,0.6,1.6,1.1,2.3,1.5c2.4,1.6,4.5,2.9,5.2,5.8c0,0.1,1.8,8.3-0.2,12.3
	c-0.7,1.4-2.2,1.7-7.8,1.7c-3.6,0-8.5-0.2-13.2-0.4c-3.1-0.1-6.1-0.2-8.8-0.3c-2.6-0.1-2.9-3.4-3.1-4.7c-0.1-1-1-9.9,2.3-10.7
	c1.6-0.4,3.8-0.6,6.6-0.7c-3.1-3.6-6.7-10.9-6.7-24.3c0-9.3,3.9-21.5,12.7-27.9c5-3.7,11.3-5.6,18-5.6c5.8,0,11.9,1.4,18.1,4.2
	c9.4,4.2,18.7,14.9,18.2,29.4c-0.4,12.5-4.1,20-7.2,24.2c0.3,0,0.6,0,0.9,0c0.1,0,0.2,0,0.3,0c2,0,4-0.1,6.1-0.3l0.2,0
	c2.7,0,3,3.7,3.2,5.5c0.4,4.5,0.4,10-2.3,10.5C402.7,320.5,394.5,321,387.9,321z"/>
<path class="st2" d="M365.9,318.4c-0.7,1.3-17.2,0.3-28,0c-1.8,0-1.4-11.2-0.4-11.4c1.7-0.4,4-0.6,6.2-0.6c1.6,0,2.5-1.9,1.5-3.2
	c-2.8-3.4-6.2-10.3-6.2-23.1c0-8.2,3.5-20.1,11.9-26.3c8.3-6,20.5-7.3,34.2-1.2c7.9,3.5,17.5,13.3,17.1,27.5
	c-0.4,12.4-4.2,19.6-6.9,23.2c-0.9,1.2-0.1,3,1.5,3c1.9,0,4.5,0,7.7-0.2c1.7-0.1,1.7,11.8,0.5,12c-4,0.7-25.8,2-27.7-0.4
	c-2-2.4-1.3-9-0.9-10.7c0.8-3.3,1.8-2.4,6.5-7.2c7.5-7.8,4.7-25.8-0.5-30.6c-7.3-6.8-16.6-7.3-24.8,0.3c-7.3,6.7-5.4,26.6,1.9,31.8
	c3.5,2.5,6,3.4,6.7,6.2C366.2,308.3,367.5,315.3,365.9,318.4z"/>
</svg>
