<?xml version="1.0" encoding="utf-8"?>
<!-- Generator: Adobe Illustrator 26.0.3, SVG Export Plug-In . SVG Version: 6.00 Build 0)  -->
<svg version="1.1" id="Layer_1" xmlns="http://www.w3.org/2000/svg" xmlns:xlink="http://www.w3.org/1999/xlink" x="0px" y="0px"
	 viewBox="0 0 566.9 566.9" style="enable-background:new 0 0 566.9 566.9;" xml:space="preserve">
<style type="text/css">
	.st0{fill:none;stroke:#5ECAE7;stroke-miterlimit:10;}
	.st1{fill:none;stroke:#BF1F3F;stroke-miterlimit:10;}
	.st2{fill:none;stroke:#DD9A34;stroke-miterlimit:10;}
</style>
<path class="st0" d="M199.5,355.8c-9.9,0-12.5-0.8-15.1-3.3c-3.3-3.2-3.4-6.6-3.5-14.1c0-0.8,0-1.5,0-2.3
	c-6.3-1.9-11.7-5.6-15.9-10.9c-3.6-4.6-7.7-13-8-22.7c-0.3-9.9,3.5-18.8,10.7-25.2c3.7-3.2,8.9-4.8,14.1-5.6l1.2-1.7
	c3.2-4.5,7.3-4.7,17.3-4.7c1.7,0,3.1,0,4.2,0.1c5.4,0.5,8.1,3.1,9.3,5.6c11.2,1.3,19.6,7.5,23.4,17.5c4.4,11.7,3.7,23.7-2,32.9
	c-3.2,5.2-9.2,11.3-20,14.4c-0.3,10.7-0.8,11.9-1.4,13.3C210.9,355.8,204,355.8,199.5,355.8z"/>
<path class="st0" d="M204.9,281c0,0,17.6-3.3,23.1,11c5.6,14.8,1.3,33.3-22.6,35.6c0,0-0.2,16.4-0.7,17.7c-0.4,0.9-12.9,0.5-13.4,0
	c-0.5-0.5-0.6-12.7-0.4-17.5c0-0.6-10.2,1.1-18.1-8.8c-2.4-3-5.6-9.4-5.8-16.8c-0.2-6.4,1.9-12.7,7.3-17.4c4.6-4.1,17-3.7,17-3.7
	s-0.2-4.3-0.1-5.4c0.2-0.3,14-0.9,14,0C205.1,276.4,204.9,281,204.9,281z"/>
<path class="st0" d="M168.9,261.7c-0.3,0-0.5,0-0.8,0c-3.3-0.2-8.2-1.5-13.4-6.1c-5.1-4.6-7.7-11-7.4-18.1
	c0.3-7.3,3.8-14.3,9.1-18.3c3.7-2.8,7.7-4.4,11.6-4.7c0.3,0,0.7,0,1,0c3.2,0,6.2,1.2,8.4,3.5c2.2,2.3,3.5,5.3,3.4,8.5l-0.2,23.5
	C180.7,256.4,175.4,261.7,168.9,261.7C168.9,261.7,168.9,261.7,168.9,261.7z"/>
<path class="st0" d="M170.8,249.8l0.2-23.5c0-1.2-1-2.1-2.1-2c-1.5,0.1-3.8,0.7-6.5,2.8c-5.1,3.8-8.1,14.7-1,21.1
	c3,2.8,5.7,3.5,7.4,3.6C169.9,251.9,170.8,251,170.8,249.8z"/>
<path class="st1" d="M285.7,357.7c-3.8,0-4,0-4.7-0.1c-1.4-0.2-8.3-1.5-8.9-10.6c-0.1-1-0.1-2.3-0.1-3.9c0-2,0-4.4,0-6.6
	c-10.6-2.1-17.3-7.8-19.9-17.1c-2.2-8.2-0.7-32.2,5.3-46.4l2.9-6.7l16.7,1.7l0.3,0c2.2,0.3,4.2,1.3,5.8,2.8c0.3,0,0.6,0,0.9-0.1
	c1.8-0.1,3.9-0.2,5.9-0.2c1.3,0,2.6,0,3.7,0.1c1.3-1.2,2.9-2,4.7-2.4c1.6-0.4,8.4-1.6,11.4-1.6c5.4,0,8.1,3.4,8.9,4.8
	c8,13.3,10.4,36.9,7,48.4c-3.3,11.5-12.6,15.5-20.4,16.9c0,2.2,0.1,4.5,0,6.5c0,1.8-0.1,3.1-0.2,4.1c-0.8,9.1-7.9,10.2-9.3,10.4
	l-0.4,0l-0.5,0C295.1,357.7,289.5,357.7,285.7,357.7z"/>
<path class="st1" d="M295,347.8c0,0-12.4,0-12.8,0c-0.7-0.1,0-20.4-0.2-20.4c-7.7,0-17.6-1.1-20.2-10.7c-1.6-5.9-0.3-27.8,4.9-39.9
	l9.2,0.9c0.5,0.1,1,0.5,0.9,1c-7.2,42.3-5.6,38.7,5.8,37.9c1-0.1-1-27.1-0.4-35.7c0-0.5,12.9-0.9,12.8,0c-0.2,4.2,0,35.7,0.4,35.7
	c11.2,0.4,13.9,2.8,4.8-37.9c-0.1-0.5,0-0.9,0.4-1c1.9-0.5,9.4-1.6,9.6-1.2c6.5,10.8,8.6,31.3,6,40.5c-2.4,8.4-10.2,10.4-20.8,10.4
	C295.1,327.4,296,347.7,295,347.8z"/>
<path class="st0" d="M212,256.6c-6.6,0-12-5.4-12-12v-23.2c0-6.6,5.4-12,12-12c0.2,0,0.4,0,0.7,0c3.3,0.2,8.2,1.2,13,5
	c5,3.9,8.2,10.8,8.6,17.9c0.3,6.9-2.1,13.2-6.9,17.8c-4.1,3.9-9.3,6.2-14.8,6.4l-0.2,0L212,256.6z"/>
<path class="st0" d="M209.9,244.6v-23.2c0-1.2,1-2.1,2.2-2.1c1.8,0.1,4.6,0.7,7.4,2.9c4.8,3.8,7.5,14.5,1,20.8
	c-3.1,2.9-6.3,3.6-8.4,3.7C210.9,246.8,209.9,245.8,209.9,244.6z"/>
<path class="st2" d="M393.9,356.7c-7.4,0-12.4-0.5-15.8-2.7c-3.4,2.7-8.2,2.7-12.2,2.7c-3.8,0-8.7-0.2-13.4-0.4
	c-3-0.1-6.1-0.2-8.7-0.3c-1.6,0-9.6-0.8-10.8-11.8c-0.7-6.5-0.2-14.3,4.9-17.8c-1.6-4.8-2.7-10.9-2.7-18.7c0-11.3,5-26.3,16-34.3
	c6.4-4.7,14.3-7.1,22.7-7.1c7,0,14.1,1.6,21.3,4.9c11.8,5.3,23.5,18.7,22.9,36.8c-0.2,6.8-1.3,12.3-2.8,16.9
	c2.8,1.5,5.6,4.6,6.2,11.5c0.4,4.2,1.6,17.1-8.8,19C409.4,356.1,400.6,356.7,393.9,356.7z M371.2,320.9c0.7,0.5,1.3,0.9,1.9,1.2
	c1.1,0.7,2.4,1.6,3.7,2.7c0.6-0.6,1.2-1.1,1.8-1.6c0.8-0.6,1.6-1.3,3-2.7c2.9-3,2-13.6-0.2-16.6c-1.3-1.2-3.2-2.5-5.3-2.5
	c-2.3,0-4.5,1.6-5.9,2.9C367.8,307,368.5,318.2,371.2,320.9z M371.3,320.9L371.3,320.9z"/>
<path class="st2" d="M371.9,346.1c-0.7,1.3-17.2,0.3-28,0c-1.8,0-1.4-11.2-0.4-11.4c1.7-0.4,4-0.6,6.2-0.6c1.6,0,2.5-1.9,1.5-3.2
	c-2.8-3.4-6.2-10.3-6.2-23.1c0-8.2,3.5-20.1,11.9-26.3c8.3-6,20.5-7.3,34.2-1.2c7.9,3.5,17.5,13.3,17.1,27.5
	c-0.4,12.4-4.2,19.6-6.9,23.2c-0.9,1.2-0.1,3,1.5,3c1.9,0,4.5,0,7.7-0.2c1.7-0.1,1.7,11.8,0.5,12c-4,0.7-25.8,2-27.7-0.4
	c-2-2.4-1.3-9-0.9-10.7c0.8-3.3,1.8-2.4,6.5-7.2c7.5-7.8,4.7-25.8-0.5-30.6c-7.3-6.8-16.6-7.3-24.8,0.3c-7.3,6.7-5.4,26.6,1.9,31.8
	c3.5,2.5,6,3.4,6.7,6.2C372.2,336,373.5,343,371.9,346.1z"/>
</svg>
