<?xml version="1.0" encoding="utf-8"?>
<!-- Generator: Adobe Illustrator 26.0.3, SVG Export Plug-In . SVG Version: 6.00 Build 0)  -->
<svg version="1.1" id="Layer_1" xmlns="http://www.w3.org/2000/svg" xmlns:xlink="http://www.w3.org/1999/xlink" x="0px" y="0px"
	 viewBox="0 0 566.9 566.9" style="enable-background:new 0 0 566.9 566.9;" xml:space="preserve">
<style type="text/css">
	.st0{fill:none;stroke:#BF1F3F;stroke-miterlimit:10;}
	.st1{fill:none;stroke:#5ECAE7;stroke-miterlimit:10;}
	.st2{fill:none;stroke:#DD9A34;stroke-miterlimit:10;}
	.st3{fill:none;stroke:#C057A1;stroke-miterlimit:10;}
	.st4{fill:none;stroke:#4552A3;stroke-miterlimit:10;}
</style>
<path class="st0" d="M459.7,319.6c-3.5,0-3.6,0-3.7,0c-2-0.3-2-2-2.1-6.7c0-2.8,0-6.2,0.1-9.2c0-1.6,0.1-3.3,0.1-4.5
	c-6.1-0.1-17.4-1.3-20.4-12.2c-1.7-6.1-0.4-28.6,5-41.4l0.6-1.3l10.8,1.1c0.8,0.1,1.6,0.6,2.1,1.3c0.4,0.6,0.6,1.3,0.5,2
	c-3.5,20.8-5.5,33.5-3.6,35.8c0.1,0.1,0.4,0.5,1.9,0.5c0.8,0,1.8-0.1,3-0.2c0.3,0,0.6-0.1,1-0.1c0.1-2.6-0.2-8.5-0.4-13.4
	c-0.3-7.7-0.6-16.5-0.4-20.8c0.1-1.9,2-2.1,4.4-2.2c1.6-0.1,3.6-0.2,5.4-0.2c5.1,0,5.9,0.4,6.5,1.1l0.6,0.6l0,0.9
	c-0.2,3.9,0,27.6,0.2,33.9c0.9,0,1.8,0.1,2.6,0.1c2.2,0,2.8-0.4,3.1-0.8c2.1-2.6-0.1-14.8-4.7-35.1c-0.4-1.9,0.7-3,1.9-3.3
	c1.6-0.4,7.7-1.4,9.7-1.4c0.4,0,1.5,0,2.2,1c6.7,11.1,9.1,32.6,6.3,42.3c-2.8,9.8-12,11.7-21,11.9c0,1.2,0,2.9,0.1,4.5
	c0.1,3,0.1,6.5,0.1,9.3c0,4.2-0.1,6.5-2.3,6.7l-0.1,0h-0.1C469.1,319.6,463.5,319.6,459.7,319.6z"/>
<path class="st0" d="M469.1,317.6c0,0-12.5,0-12.9,0c-0.7-0.1,0-20.5-0.2-20.5c-7.8,0-17.8-1.1-20.4-10.8
	c-1.6-5.9-0.3-27.9,4.9-40.1l9.3,0.9c0.5,0.1,1,0.5,1,1c-7.2,42.5-5.7,38.9,5.9,38.1c1-0.1-1-27.2-0.4-35.9c0-0.5,13-0.9,12.9,0
	c-0.2,4.2,0,35.9,0.4,35.9c11.3,0.4,14,2.8,4.8-38.1c-0.1-0.5,0-0.9,0.4-1c1.9-0.5,9.5-1.6,9.7-1.3c6.6,10.8,8.7,31.5,6,40.7
	c-2.5,8.5-10.2,10.5-21,10.5C469.1,297.2,470.1,317.5,469.1,317.6z"/>
<g>
	<path class="st1" d="M575.3,319.2c-7.7,0-8.5-0.8-8.8-1.2c-0.8-0.8-0.9-0.9-0.4-13.4c0-1.4,0.1-2.7,0.1-3.8
		c-3.4-0.3-10.9-1.4-16.5-9.4c-2.4-3.5-5.4-10.2-5.6-18c-0.2-7.5,2.3-14.2,7.2-18.9c3.5-3.4,10.6-4.2,14.6-4.3c0-1.3-0.1-2.9,0-3.6
		l0-0.5l0.3-0.4c0.5-0.8,0.9-1.4,9.9-1.4c3.5,0,6.2,0,6.3,2.4c0,0.5,0,1.9-0.1,3.2c0.5,0,1.2-0.1,1.8-0.1c5.4,0,14.9,1.7,18.7,12.7
		c3.2,9.5,2.4,19.5-2.2,26.7c-4,6.2-10.4,10.1-18.8,11.5c0.7,15,0.2,16.2,0.1,16.6C581.2,318.8,579.9,319.2,575.3,319.2z"/>
	<path class="st1" d="M580.2,252.2c0,0,15.8-3.3,20.7,11.1c5,14.8,0.2,33.5-21.2,35.8c0,0,0.8,16.3,0.3,17.6c-0.4,1-11.6,0.5-12,0
		c-0.5-0.5,0.2-12.8,0.3-17.6c0-0.6-9.9,1.2-16.9-8.8c-2.1-3-5-9.4-5.3-16.9c-0.2-6.4,1.7-12.7,6.6-17.4c4.2-4.1,15.3-3.7,15.3-3.7
		s-0.2-4.3-0.1-5.4c0.2-0.3,12.5-0.9,12.6,0C580.4,247.6,580.2,252.2,580.2,252.2z"/>
	<path class="st1" d="M566.8,289.9c-1.6-0.1-4.1-0.9-6.8-3.8c-2.5-2.7-3.8-6.4-3.6-10.6c0.2-4.3,2-8.5,4.5-10.8
		c2.5-2.2,4.6-2.8,6-2.9c0.1,0,0.2,0,0.3,0c0.9,0,1.7,0.4,2.4,1c0.7,0.7,1.1,1.7,1.1,2.7l-0.1,20.6c0,2-1.6,3.7-3.4,3.7L566.8,289.9
		z"/>
	<path class="st1" d="M568.5,286.2l0.1-20.6c0-1-0.7-1.8-1.6-1.7c-1.2,0.1-2.9,0.7-4.9,2.4c-3.8,3.4-6,12.9-0.8,18.5
		c2.3,2.4,4.3,3.1,5.6,3.2C567.8,287.9,568.5,287.2,568.5,286.2z"/>
	<path class="st1" d="M581.6,289.9c-1.9,0-3.4-1.7-3.4-3.8v-20.3c0-2.1,1.5-3.8,3.4-3.8l0.2,0c1.6,0.1,4,0.7,6.3,3.1
		c3.9,4,6,14.5,0.8,20.8c-2.5,3.1-5.3,3.8-7.2,4L581.6,289.9z"/>
	<path class="st1" d="M580.2,286.1v-20.3c0-1,0.7-1.9,1.5-1.8c1.3,0.1,3.2,0.6,5.1,2.5c3.3,3.3,5.2,12.7,0.7,18.2
		c-2.1,2.6-4.3,3.2-5.7,3.2C580.9,287.9,580.2,287.1,580.2,286.1z"/>
</g>
<path class="st2" d="M717.6,319.2c-11.3,0-12.1-1.1-12.6-2c-2.4-3.7-0.9-12.8-0.9-12.9c0.4-2.3,1.4-3.4,2.5-4.5
	c0.9-0.9,1.9-2,3.2-4.3c7.1-12.8,5.4-26.4,1.5-30.8c-2.2-2.5-5.4-3.8-9.1-3.8c-3.8,0-7.6,1.5-9.9,3.9c-5.9,6.1-5.3,17,1.7,30.8
	c0.7,1.3,1.6,2.5,2.4,3.6c1.3,1.8,2.6,3.4,3,5.5c0,0.1,1.5,8.2-0.1,12.2c-0.6,1.5-2.1,2.1-9.8,2.1c-4.6,0-10.5-0.3-15.6-0.7
	c-2.2-0.2-2.5-3-2.6-4.2c0-0.1-1-10.6,2.1-11.5c0.4-0.1,1-0.3,6-0.3c-0.1-0.1-0.2-0.2-0.3-0.3c-1.9-1.9-8-9.1-7.6-24.6
	c0.4-16.5,7.8-24,15-29.2c4.7-3.4,11.5-3.9,15.1-3.9c6.3,0,12.3,1.5,15.7,3.9c7,5,14.9,13,14.6,29.5c-0.3,14.6-5.1,21.6-7.1,24
	c-0.2,0.2-0.3,0.4-0.5,0.5c1.2,0,2.3,0,3.2,0c1.2,0,1.7,0,2-0.1l0.1,0l0.1,0c2.3,0,2.6,2.8,2.7,3.8c0,0.1,1.2,11.7-2.3,12.4
	C728,319,722.1,319.2,717.6,319.2z"/>
<path class="st2" d="M697.4,316.1c-0.5,1.3-14.5,0.9-23.4,0.2c-1.5-0.1-1-11.6-0.1-11.8c1.2-0.3,9.4-0.2,11.7-0.2
	c0.1,0,0.2-0.2,0-0.2c-1.2-0.5-3.8-2-5.3-3.5c-3-3-7.3-10.2-7-23.1c0.3-14.9,6.6-22.2,14.2-27.6c7.2-5.1,22.6-4.2,28.4,0
	c8.1,5.8,14,13.5,13.8,27.8c-0.3,12.5-3.9,19.6-6.6,22.8c-2,2.4-4.7,3-6.1,3.5c-0.1,0,0,0.1,0,0.1c1.9,0,10.2,0.4,12.5,0.1
	c1.4-0.1,0.9,12.1,0,12.3c-3.3,0.7-21.9,1.1-23-0.5c-1.6-2.5-0.9-9.6-0.6-11.4c0.6-3.4,2.5-2.9,5.5-8.3c7.6-13.7,5.6-28.1,1.2-33.1
	c-5.8-6.6-16.7-5.4-21.9,0c-6.2,6.4-6.4,17.9,1.3,33.1c1.8,3.5,4.7,5.8,5.3,8.6C697.7,305.9,698.7,313,697.4,316.1z"/>
<g>
	<path class="st3" d="M336.5,262.7c-1.8,0-3.2-1.4-3.2-3.2v-11.7c0-1.8,1.4-3.2,3.2-3.2h54.2c1.8,0,3.2,1.4,3.2,3.2v11.7
		c0,1.8-1.4,3.2-3.2,3.2H336.5z"/>
	<path class="st3" d="M390.8,260.7h-54.2c-0.7,0-1.2-0.6-1.2-1.2v-11.7c0-0.7,0.6-1.2,1.2-1.2h54.2c0.7,0,1.2,0.6,1.2,1.2v11.7
		C392,260.2,391.4,260.7,390.8,260.7z"/>
	<path class="st3" d="M348.9,290.2c-2.4,0-4.3-1.9-4.3-4.3v-8.1c0-2.4,1.9-4.3,4.3-4.3h29.4c2.4,0,4.3,1.9,4.3,4.3v8.1
		c0,2.4-1.9,4.3-4.3,4.3H348.9z"/>
	<path class="st3" d="M378.3,288.2h-29.4c-1.3,0-2.3-1-2.3-2.3v-8.1c0-1.3,1-2.3,2.3-2.3h29.4c1.3,0,2.3,1,2.3,2.3v8.1
		C380.7,287.2,379.6,288.2,378.3,288.2z"/>
	<path class="st3" d="M336.5,319.4c-1.8,0-3.2-1.4-3.2-3.2v-11.7c0-1.8,1.4-3.2,3.2-3.2h54.2c1.8,0,3.2,1.4,3.2,3.2v11.7
		c0,1.8-1.4,3.2-3.2,3.2H336.5z"/>
	<path class="st3" d="M390.8,317.5h-54.2c-0.7,0-1.2-0.6-1.2-1.2v-11.7c0-0.7,0.6-1.2,1.2-1.2h54.2c0.7,0,1.2,0.6,1.2,1.2v11.7
		C392,316.9,391.4,317.5,390.8,317.5z"/>
</g>
<path class="st3" d="M259.7,320.2c-0.7,0-1.4,0-2-0.1c-7.3-0.6-13.8-4.5-19-11.3c-7.3-9.4-10.5-22.7-8.4-34.8
	c2.4-13.9,11.9-25.5,23.2-28.1c1.7-0.4,3.4-0.6,5.2-0.6c15.1,0,31.4,14.8,31.7,36.9c0.1,11-4.1,22-11.4,29.3
	C273.3,317.1,266.5,320.2,259.7,320.2C259.7,320.2,259.7,320.2,259.7,320.2z"/>
<path class="st3" d="M253.9,247.9c-10.6,2.5-19.5,13.5-21.7,26.5c-3.3,19.4,8.1,42.2,25.7,43.7c16.3,1.4,30.6-15.9,30.4-35.9
	C288,260.1,269.8,244.2,253.9,247.9z"/>
<path class="st3" d="M259.8,306.5c-0.5,0-0.9,0-1.4-0.1c-5.1-0.4-9.9-3.2-13.4-7.8c-4.5-5.9-6.5-14.1-5.2-21.4
	c1.6-8.9,8.1-16.2,15.7-17.9c1.1-0.2,2.3-0.4,3.5-0.4c10.2,0,21.2,9.4,21.4,23.4c0.1,6.8-2.5,13.4-7.2,18.1
	C269.4,304.4,264.6,306.5,259.8,306.5L259.8,306.5z"/>
<path class="st3" d="M255.9,261.4c-7,1.5-12.7,8.3-14.2,16.3c-2.2,11.9,5.3,25.9,16.8,26.8c10.6,0.9,20-9.8,19.9-22
	C278.3,268.9,266.4,259.1,255.9,261.4z"/>
<path class="st3" d="M249.2,290.4c-2.6,0-4.7-2.1-4.7-4.7v-7.4c0-2.6,2.1-4.7,4.7-4.7h21.5c2.6,0,4.7,2.1,4.7,4.7v7.4
	c0,2.6-2.1,4.7-4.7,4.7H249.2z"/>
<path class="st3" d="M270.6,288.4h-21.5c-1.5,0-2.7-1.2-2.7-2.7v-7.4c0-1.5,1.2-2.7,2.7-2.7h21.5c1.5,0,2.7,1.2,2.7,2.7v7.4
	C273.3,287.2,272.1,288.4,270.6,288.4z"/>
<path class="st3" d="M35.1,320.3c-1.8,0-3.6-1.4-3.6-4.7l-0.2-54.1c0-0.1,0-0.1,0-0.2l-29.7,0c0,0.2,0,0.5,0,0.6L2,315.5
	c0,4.2-2.1,4.8-3.3,4.8h-8.2c-2.3,0-4.1-2.1-4.1-4.7v-65.1c0-2.7,1.9-5,4.3-5H43c2.2,0,4,2,4,4.6v65.3c0,2.7-1.9,5-4.3,5H35.1z"/>
<path class="st3" d="M-1.3,318.3h-8.2c-1.2,0-2.2-1.2-2.2-2.8v-65.1c0-1.7,1-3,2.3-3H43c1.1,0,2,1.2,2,2.6v65.3c0,1.6-1,3-2.3,3
	h-7.6c-1.1,0-1.6-1.3-1.6-2.7l-0.2-54.1c0-1.4-0.6-2.1-1.7-2.1l-30.8,0c-1.1,0-1.2,1.2-1.2,2.6L0,315.5C0,317-0.2,318.3-1.3,318.3z"
	/>
<path class="st4" d="M129.6,324.4c-0.5,0-1.6-0.2-2.3-1.7c-1.2-2.7-1.7-13.9,0.1-16c4.4-5.2,7.6-12.2,9.8-16.8
	c0.8-1.7,1.4-3,1.9-3.9c0.4-0.7,0.5-1.1-0.7-2.7c-0.5-0.7-1.3-1.6-2.1-2.6c-1.8-2.2-4.3-5.3-7-9c-1.7-2.4-1.7-17.3,0-20.5
	c0.7-1.4,1.9-1.6,2.3-1.6c0,0,0,0,0,0c8,0,14.6,0,20.3,0c6.8,0,23.7,0,23.7,0c3,0,4.9,3.2,5,8.3c0,4.8-1.6,9.7-5.4,9.7
	c-0.9,0-2.1,0-3.4,0c-5.2,0-13-0.1-18.7-0.2c-2.1,0-3.9,0-5.3-0.1c0,0.1,0.1,0.2,0.1,0.2c0.1,0.1,10.1,14,9.9,16.8
	c-0.2,3-5.8,17.1-10.1,22.8c1.1,0,2.4-0.1,3.9-0.2c6.4-0.3,16-0.8,24.8-0.8c2.8,0,5.3,0,7.5,0.1c3.6,0.2,3.7,7.9,3.6,10.3
	c-0.1,6.3-2.4,7.7-4.2,7.7H129.6z"/>
<path class="st4" d="M175.5,251.5c-7.6,0-20.1,0-44,0c-2.1,0-1.8,17.3-0.7,18.9c3.9,5.5,7.4,9.4,9.1,11.6c1.3,1.7,1.9,3,0.9,4.9
	c-1.9,3.4-5.8,13.7-11.9,21c-1.2,1.4-1,14.4,0.7,14.4c9.7,0,32.3,0,53.6,0c3.5,0,2.2-14,0.5-14c-12.7-0.5-31.6,0.7-37.2,0.8
	c-1.6,0.1-1.9-1.5-0.8-2.8c4.3-5.2,10-19.8,10.1-22.1c0.1-1.3-6.4-11.1-9.6-15.5c-0.9-1.3-1.3-3.4,0.3-3.4c5.3,0,22.3,0.3,28.6,0.2
	C179.3,265.6,179.8,251.5,175.5,251.5z"/>
<path class="st3" d="M-129.1,319.5c-6.6,0-13-0.2-19.8-0.4c-2-0.1-4-0.1-6.1-0.2c-3.6-0.1-6.4-1.5-8.1-3.9c-2.1-3-2.3-7.2-0.6-12
	c3.9-11.5,8.5-21.8,13.3-32.7c2.8-6.3,5.7-12.8,8.6-20c1.6-3.8,4.3-6.1,7.3-6.1c3,0,5.7,2.2,7.4,6.1c2.3,5.3,4.6,10.2,6.8,15
	c5.9,12.7,10.9,23.7,15.1,37.7c1.6,5.2,1.4,9.3-0.6,12.1c-1.8,2.5-4.8,3.9-9,4.1C-119.4,319.4-124,319.5-129.1,319.5z"/>
<path class="st3" d="M-154.9,316.9c-6.8-0.2-9.5-5.6-6.9-13.3c6.1-18,13.8-32.9,21.9-52.6c2.6-6.3,8.1-6.7,11,0
	c8.5,19.5,16.1,33.4,21.8,52.5c1.8,5.9,2,13.1-7.8,13.7C-128.9,317.9-140.7,317.3-154.9,316.9z"/>
<path class="st3" d="M-137.8,307.3c-2.4,0-4.7,0-7,0c-0.7,0-2.9,0-4.2-1.7c-1.4-1.8-1-4.5-0.3-7.1c2-7.6,6.9-22.5,11.1-30.7
	c0.9-1.7,2.5-2.8,4.3-2.8c1.8,0,3.4,1.1,4.3,3c4.4,9.6,9.4,26,10.6,30.8c0.6,2.4,0.9,4.9-0.4,6.6c-1.2,1.5-3.1,1.8-4.7,1.8
	C-128.2,307.2-132.9,307.3-137.8,307.3z"/>
<path class="st3" d="M-144.7,305.3c-3.1,0-3.8-1.6-2.6-6.3c2-7.8,6.9-22.4,10.9-30.3c1-2,3.8-2.5,5,0.2c4.2,9.2,9.2,25.3,10.4,30.5
	c1.2,4.8,0.2,5.9-3.2,5.9C-130.5,305.3-138.1,305.3-144.7,305.3z"/>
</svg>
