<?xml version="1.0" encoding="utf-8"?>
<!-- Generator: Adobe Illustrator 26.0.3, SVG Export Plug-In . SVG Version: 6.00 Build 0)  -->
<svg version="1.1" id="Layer_1" xmlns="http://www.w3.org/2000/svg" xmlns:xlink="http://www.w3.org/1999/xlink" x="0px" y="0px"
	 viewBox="0 0 566.9 566.9" style="enable-background:new 0 0 566.9 566.9;" xml:space="preserve">
<style type="text/css">
	.st0{fill:none;stroke:#BF1F3F;stroke-miterlimit:10;}
	.st1{fill:none;stroke:#5ECAE7;stroke-miterlimit:10;}
	.st2{fill:none;stroke:#DD9A34;stroke-miterlimit:10;}
	.st3{fill:none;stroke:#C057A1;stroke-miterlimit:10;}
	.st4{fill:none;stroke:#4552A3;stroke-miterlimit:10;}
</style>
<path class="st0" d="M459.7,327.6c-3.8,0-4,0-4.7-0.1c-1.4-0.2-8.3-1.5-8.9-10.6c-0.1-1-0.1-2.3-0.1-4c0-2,0-4.4,0-6.7
	c-10.7-2.1-17.4-7.8-20-17.2c-2.3-8.2-0.7-32.3,5.4-46.6l2.9-6.7l16.8,1.7l0.3,0c2.2,0.3,4.2,1.3,5.8,2.8c0.3,0,0.6-0.1,1-0.1
	c1.8-0.1,3.9-0.2,5.9-0.2c1.3,0,2.6,0,3.8,0.1c1.3-1.2,2.9-2,4.7-2.5c1.6-0.4,8.5-1.6,11.5-1.6c5.4,0,8.1,3.4,8.9,4.9
	c8.1,13.3,10.4,37.1,7.1,48.6c-3.4,11.6-12.8,15.6-20.6,16.9c0,2.3,0.1,4.6,0,6.6c0,1.8-0.1,3.1-0.2,4.2c-0.8,9.1-7.9,10.3-9.3,10.4
	l-0.4,0l-0.4,0C469.1,327.6,463.6,327.6,459.7,327.6z"/>
<path class="st0" d="M469.1,317.6c0,0-12.5,0-12.9,0c-0.7-0.1,0-20.5-0.2-20.5c-7.8,0-17.8-1.1-20.4-10.8
	c-1.6-5.9-0.3-27.9,4.9-40.1l9.3,0.9c0.5,0.1,1,0.5,1,1c-7.2,42.5-5.7,38.9,5.9,38.1c1-0.1-1-27.2-0.4-35.9c0-0.5,13-0.9,12.9,0
	c-0.2,4.2,0,35.9,0.4,35.9c11.3,0.4,14,2.8,4.8-38.1c-0.1-0.5,0-0.9,0.4-1c1.9-0.5,9.5-1.6,9.7-1.3c6.6,10.8,8.7,31.5,6,40.7
	c-2.5,8.5-10.2,10.5-21,10.5C469.1,297.2,470.1,317.5,469.1,317.6z"/>
<g>
	<path class="st1" d="M575.3,327.1c-8.8,0-11.9-0.8-14.6-3.7c-3-3.2-2.9-6.7-2.8-11.1c0-1.5,0.1-3.4,0.1-5.2c-6-2-11-5.7-14.8-11.2
		c-3.2-4.6-6.8-12.8-7.1-22.3c-0.3-9.7,3.1-18.5,9.5-24.8c3.4-3.3,8.1-5,12.8-5.8l0.9-1.5c3.2-5.1,8.3-5.1,16.7-5.1
		c1.6,0,2.9,0,4,0.1c5.4,0.5,8,3.3,9.2,5.7c10.1,1.6,17.8,8,21.1,17.7c4,11.7,2.8,24.3-3,33.5c-3,4.7-8.3,10.3-17.3,13.4
		c0.3,10.5-0.1,11.7-0.7,13.3C586.6,327.1,579.2,327.1,575.3,327.1z"/>
	<path class="st1" d="M580.2,252.2c0,0,15.8-3.3,20.7,11.1c5,14.8,0.2,33.5-21.2,35.8c0,0,0.8,16.3,0.3,17.6c-0.4,1-11.6,0.5-12,0
		c-0.5-0.5,0.2-12.8,0.3-17.6c0-0.6-9.9,1.2-16.9-8.8c-2.1-3-5-9.4-5.3-16.9c-0.2-6.4,1.7-12.7,6.6-17.4c4.2-4.1,15.3-3.7,15.3-3.7
		s-0.2-4.3-0.1-5.4c0.2-0.3,12.5-0.9,12.6,0C580.4,247.6,580.2,252.2,580.2,252.2z"/>
</g>
<path class="st2" d="M717.6,327.1c-6.8,0-11.9-0.2-15.5-2.1c-3.6,1.9-8.3,1.9-12.6,1.9c-4.8,0-11-0.3-16.2-0.7
	c-2.1-0.2-8.9-1.5-9.9-11.3c-0.2-2.2-0.2-5,0-7.6c0.2-2.3,0.5-6.8,3.6-9.8c-2-4.9-3.6-11.5-3.4-20.2c0.5-20.3,10.7-30,18.3-35.4
	c6.5-4.7,15.2-5.4,19.7-5.4c3.9,0,13.6,0.5,20.3,5.4c7.9,5.7,18.3,15.6,17.8,36.1c-0.2,8.1-1.6,14.3-3.3,19c1.8,1.6,3.4,4.2,3.8,8.3
	c0.2,2.2,0.3,5.3,0.1,8.1c-0.2,3.1-0.8,11.2-8.5,12.9C727.9,327.1,718.6,327.1,717.6,327.1z"/>
<path class="st2" d="M697.4,316.1c-0.5,1.3-14.5,0.9-23.4,0.2c-1.5-0.1-1-11.6-0.1-11.8c1.2-0.3,9.4-0.2,11.7-0.2
	c0.1,0,0.2-0.2,0-0.2c-1.2-0.5-3.8-2-5.3-3.5c-3-3-7.3-10.2-7-23.1c0.3-14.9,6.6-22.2,14.2-27.6c7.2-5.1,22.6-4.2,28.4,0
	c8.1,5.8,14,13.5,13.8,27.8c-0.3,12.5-3.9,19.6-6.6,22.8c-2,2.4-4.7,3-6.1,3.5c-0.1,0,0,0.1,0,0.1c1.9,0,10.2,0.4,12.5,0.1
	c1.4-0.1,0.9,12.1,0,12.3c-3.3,0.7-21.9,1.1-23-0.5c-1.6-2.5-0.9-9.6-0.6-11.4c0.6-3.4,2.5-2.9,5.5-8.3c7.6-13.7,5.6-28.1,1.2-33.1
	c-5.8-6.6-16.7-5.4-21.9,0c-6.2,6.4-6.4,17.9,1.3,33.1c1.8,3.5,4.7,5.8,5.3,8.6C697.7,305.9,698.7,313,697.4,316.1z"/>
<g>
	<path class="st3" d="M343.6,337.1c-15.5,0-28.1-12.6-28.1-28.1v-54.1c0-15.5,12.6-28.1,28.1-28.1h40.1c15.5,0,28.1,12.6,28.1,28.1
		v54.1c0,15.5-12.6,28.1-28.1,28.1H343.6z"/>
	<path class="st3" d="M325.4,308.9v-54.1c0-10.1,8.1-18.2,18.2-18.2h40.1c10.1,0,18.2,8.1,18.2,18.2v54.1c0,10.1-8.1,18.2-18.2,18.2
		h-40.1C333.5,327.1,325.4,319,325.4,308.9z"/>
</g>
<path class="st3" d="M259.7,328.1c-0.9,0-1.8,0-2.7-0.1c-9.4-0.8-18.1-5.9-24.6-14.3c-8.6-11.1-12.4-26.8-10-41
	c3-17.3,14.7-31.2,29.3-34.5c2.3-0.5,4.6-0.8,6.9-0.8c21.2,0,39.3,20.5,39.6,44.7c0.1,13.3-4.9,26.1-13.7,35
	C277.5,324.2,268.7,328.1,259.7,328.1C259.7,328.1,259.7,328.1,259.7,328.1z"/>
<path class="st3" d="M253.9,247.9c-10.6,2.5-19.5,13.5-21.7,26.5c-3.3,19.4,8.1,42.2,25.7,43.7c16.3,1.4,30.6-15.9,30.4-35.9
	C288,260.1,269.8,244.2,253.9,247.9z"/>
<path class="st3" d="M35.1,328.2c-5.6,0-11.5-4.4-11.5-12.6l-0.1-46.3l-13.8,0l0.2,46.2c0,10.1-7.3,12.7-11.2,12.7h-8.2
	c-6.7,0-12.1-5.7-12.1-12.7v-65.1c0-7.1,5.5-12.9,12.3-12.9H43c6.6,0,11.9,5.6,11.9,12.5v65.3c0,7.1-5.5,12.9-12.3,12.9H35.1z"/>
<path class="st3" d="M-1.3,318.3h-8.2c-1.2,0-2.2-1.2-2.2-2.8v-65.1c0-1.7,1-3,2.3-3H43c1.1,0,2,1.2,2,2.6v65.3c0,1.6-1,3-2.3,3
	h-7.6c-1.1,0-1.6-1.3-1.6-2.7l-0.2-54.1c0-1.4-0.6-2.1-1.7-2.1l-30.8,0c-1.1,0-1.2,1.2-1.2,2.6L0,315.5C0,317-0.2,318.3-1.3,318.3z"
	/>
<path class="st4" d="M129.6,332.3c-4.1,0-7.7-2.4-9.5-6.2c-1.7-3.7-3.6-18.7,1.3-24.5c3.7-4.4,6.7-10.8,8.7-15
	c0.1-0.2,0.2-0.4,0.3-0.7c-0.1-0.1-0.1-0.1-0.2-0.2c-1.9-2.3-4.5-5.5-7.4-9.5c-1.1-1.5-2.6-3.7-2.7-14.4
	c-0.1-10.2,1.5-13.1,2.1-14.4c1.9-3.6,5.5-5.9,9.4-5.9c0,0,0,0,0,0c7.9,0,14.6,0,20.3,0c6.8,0,23.7,0,23.7,0c6.4,0,12.8,5,12.9,16.2
	c0.1,10.3-5.4,17.6-13.2,17.7c-1,0-2.2,0-3.6,0c-2.6,0-5.8,0-9.1-0.1c3.3,5.8,3.2,7.7,3.1,9.3c-0.1,2.7-2,8.2-4.4,13.8
	c4.8-0.2,10-0.3,15-0.3c2.9,0,5.5,0,7.8,0.1c3.5,0.1,11.6,2.2,11.2,18.4c-0.3,14.7-10.2,15.4-12.1,15.4H129.6z"/>
<path class="st4" d="M175.5,251.5c-7.6,0-20.1,0-44,0c-2.1,0-1.8,17.3-0.7,18.9c3.9,5.5,7.4,9.4,9.1,11.6c1.3,1.7,1.9,3,0.9,4.9
	c-1.9,3.4-5.8,13.7-11.9,21c-1.2,1.4-1,14.4,0.7,14.4c9.7,0,32.3,0,53.6,0c3.5,0,2.2-14,0.5-14c-12.7-0.5-31.6,0.7-37.2,0.8
	c-1.6,0.1-1.9-1.5-0.8-2.8c4.3-5.2,10-19.8,10.1-22.1c0.1-1.3-6.4-11.1-9.6-15.5c-0.9-1.3-1.3-3.4,0.3-3.4c5.3,0,22.3,0.3,28.6,0.2
	C179.3,265.6,179.8,251.5,175.5,251.5z"/>
<path class="st3" d="M-129.1,327.5c-6.7,0-13.2-0.2-20-0.4c-2-0.1-4-0.1-6.1-0.2c-6.1-0.2-11.2-2.8-14.4-7.3
	c-3.5-5.1-4.1-11.9-1.6-19.1c4-11.8,8.7-22.3,13.6-33.4c2.8-6.3,5.6-12.7,8.5-19.8c2.8-6.9,8.3-11,14.7-11c6.2,0,11.7,4,14.6,10.8
	c2.3,5.3,4.6,10.1,6.7,14.9c5.7,12.5,11.2,24.2,15.5,38.8c2.3,7.7,1.7,14.1-1.7,19c-2.2,3.2-6.6,7-15,7.4
	C-119.1,327.3-123.9,327.5-129.1,327.5z"/>
<path class="st3" d="M-154.9,316.9c-6.8-0.2-9.5-5.6-6.9-13.3c6.1-18,13.8-32.9,21.9-52.6c2.6-6.3,8.1-6.7,11,0
	c8.5,19.5,16.1,33.4,21.8,52.5c1.8,5.9,2,13.1-7.8,13.7C-128.9,317.9-140.7,317.3-154.9,316.9z"/>
</svg>
