<?xml version="1.0" encoding="utf-8"?>
<!-- Generator: Adobe Illustrator 26.1.0, SVG Export Plug-In . SVG Version: 6.00 Build 0)  -->
<svg version="1.1" id="Layer_1" xmlns="http://www.w3.org/2000/svg" xmlns:xlink="http://www.w3.org/1999/xlink" x="0px" y="0px"
	 viewBox="0 0 566.9 566.9" style="enable-background:new 0 0 566.9 566.9;" xml:space="preserve">
<style type="text/css">
	.st0{fill:none;stroke:#B92990;stroke-miterlimit:10;}
</style>
<g>
	<path class="st0" d="M193,322c-0.4,0-0.8,0-1.2,0c-1.8,0-3.1-1-3.6-2.8c-0.5-1.6-1-3.6-1.5-5.9c-0.6-2.7-1.3-5.8-2.2-8.9
		c-1.7-0.3-6.4-0.7-11.7-0.7c-3.6,0-5.8,0.2-6.8,0.3c-0.6,1.6-1.4,4.2-2.3,7c-0.9,2.8-1.8,5.6-2.6,8.1c-0.5,1.6-1.7,2.6-3.3,2.7
		c-1.5,0.1-3.7,0.1-6.6,0.1l-3.3,0c-1.6,0-2.4-0.7-2.8-1.3c-0.8-1.1-0.4-2.4-0.3-2.7c1.2-3.2,2.5-6.7,3.7-10.1l1.3-3.5
		c3.7-10,12.8-35.1,18.5-51.5c1.4-3.9,3.7-6.1,6.4-6.1c1.6,0,4.5,0.8,6.5,6.1l3.2,8.8c5.5,14.8,10.2,27.7,15.4,43
		c1.2,3.6,3.9,11.8,4.4,13.6c0.3,0.9,0.1,1.8-0.5,2.5c-0.5,0.7-1.4,1.1-2.3,1.1c-0.8,0-2,0-3.3,0.1C196.4,322,194.6,322,193,322z"/>
	<path class="st0" d="M164.4,302.6c-1.1,2.6-3.4,10.5-5.3,16c0,0.1-0.3,1.3-1.5,1.3c-3.1,0.2-7.9,0.1-9.7,0.1
		c-1.7,0-1.3-1.2-1.2-1.3c1.6-4.3,3.4-9.1,4.9-13.4c1.6-4.4,12.2-33.3,18.6-51.7c2.2-6.2,6.7-6.6,9.2,0
		c7.1,19.2,12.5,33.6,18.6,51.7c1.2,3.6,3.8,11.8,4.3,13.5c0.2,0.5-0.2,1.1-0.9,1.1c-2.1,0-6.6,0.2-9.5,0.1c-0.9,0-1.5-0.4-1.8-1.4
		c-1.1-3.4-2-9.6-4-15.6C185.7,301.7,164.9,301.3,164.4,302.6z"/>
	<path class="st0" d="M176.9,291.9c-0.9,0-1.7,0-2.6,0c-1,0-2.2,0-3.6,0c-1.6,0-2.4-0.7-2.8-1.3c-1.1-1.5-0.5-3.6,0.1-5.3
		c1.2-3.3,1.8-4.9,2.5-6.7l1.2-3.3c0.6-1.5,1.9-2.5,3.4-2.5c1.5,0,2.9,1,3.5,2.7c0.9,2.7,1.8,5,2.9,7.6l0.8,2.1
		c0.9,2.2,1.4,4.1,0.5,5.4c-0.5,0.8-1.4,1.2-2.5,1.2C178.9,291.9,177.9,291.9,176.9,291.9z"/>
	<path class="st0" d="M170.8,289.9c-1.3,0-2-0.8-0.9-3.9c1.8-5,2.3-6.2,3.7-10.1c0.5-1.5,2.4-1.7,3.1,0.2c1.2,3.4,2.3,6.2,3.7,9.8
		c1.2,3.2,1.1,4-0.2,4C176.4,290,174.7,289.9,170.8,289.9z"/>
</g>
<path class="st0" d="M318,323c-5.7,0-12.3-0.1-17.6-0.3c-9.8-0.3-10-0.6-10.7-1.2l-0.6-0.6l0-0.9c0.1-3.6,0.1-7.3,0.2-11
	c0.4-19,0.8-38.7-0.1-56.1c0-0.7,0.2-1.4,0.7-1.9c2.5-2.7,14.7-2.9,18.4-2.9c4.5,0,15.6,0.3,21.7,3.1c5.7,2.6,9.6,7.5,10.3,13
	c0.7,5.2-1.4,10.4-5.7,14.1c-1.4,1.2-2.9,2.3-4.4,3.2c7,0.6,12.1,2.9,15.3,6.9c3.7,4.8,5.7,14.3,2.1,22.6c-3.1,7-9.5,11.1-18.2,11.7
	C326.5,322.9,321.6,323,318,323z"/>
<path class="st0" d="M291.3,252.8c-0.1-3,28.2-4.3,38,0.2c10.4,4.8,12.5,16.7,4.1,23.8c-10.2,8.6-22.2,8.4-22.2,8.4
	s24.2-6.4,32.7,4.5c6.3,8.1,5.9,29.7-14.7,31.1c-8.2,0.6-38,0-38-0.7C291.5,297.4,292.3,273.6,291.3,252.8z"/>
<path class="st0" d="M317.1,275c-4.3,0-7.8-3.5-7.8-7.8s3.5-7.8,7.8-7.8c4.3,0,7.8,3.5,7.8,7.8S321.4,275,317.1,275z"/>
<circle class="st0" cx="317.1" cy="267.2" r="5.9"/>
<path class="st0" d="M321.3,314c-6.6,0-11.9-5.3-11.9-11.9c0-6.6,5.3-11.9,11.9-11.9c6.6,0,11.9,5.3,11.9,11.9
	C333.2,308.7,327.9,314,321.3,314z"/>
<circle class="st0" cx="321.3" cy="302.1" r="9.9"/>
<path class="st0" d="M442,322.1c-6.6,0-13-0.2-19.7-0.4c-2-0.1-4-0.1-6.1-0.2c-3.6-0.1-6.4-1.5-8.1-3.9c-2.1-3-2.3-7.2-0.6-12
	c3.9-11.5,8.5-21.8,13.3-32.7c2.8-6.3,5.7-12.8,8.6-20c1.6-3.8,4.3-6.1,7.3-6.1c3,0,5.7,2.2,7.4,6.1c2.3,5.3,4.6,10.2,6.8,15
	c5.9,12.7,10.9,23.7,15.1,37.7c1.6,5.2,1.4,9.3-0.6,12.1c-1.8,2.5-4.8,3.9-9,4.1C451.7,322,447,322.1,442,322.1z"/>
<path class="st0" d="M416.1,319.5c-6.8-0.2-9.5-5.6-6.9-13.3c6.1-18,13.8-32.9,21.9-52.6c2.6-6.3,8.1-6.7,11,0
	c8.5,19.5,16.1,33.4,21.8,52.5c1.8,5.9,2,13.1-7.8,13.7C442.1,320.5,430.3,319.9,416.1,319.5z"/>
<path class="st0" d="M433.2,307.9c-2.4,0-4.8,0-7,0c-0.7,0-3,0-4.3-1.7c-1.4-1.8-0.9-4.4-0.2-6.8c2.1-7.6,8.1-21.4,12.1-29.1
	c0.4-0.8,1.3-2.5,3.1-2.5c1.9,0,2.9,2.1,3.4,3c4.1,8.6,10.3,23.6,11.6,28.8c0.6,2.2,1,4.6-0.3,6.3c-1.2,1.5-3.1,1.8-4.8,1.8
	C442.8,307.9,438.1,307.9,433.2,307.9z"/>
<path class="st0" d="M426.3,305.9c-3.1,0-3.8-1.5-2.6-6c2-7.4,8-21.1,12-28.6c1-1.9,1.7-2.1,2.9,0.5c4.2,8.8,10.2,23.5,11.5,28.5
	c1.2,4.6,0.2,5.6-3.2,5.6C440.5,305.9,432.9,306,426.3,305.9z"/>
</svg>
