<?xml version="1.0" encoding="utf-8"?>
<!-- Generator: Adobe Illustrator 26.1.0, SVG Export Plug-In . SVG Version: 6.00 Build 0)  -->
<svg version="1.1" id="Layer_1" xmlns="http://www.w3.org/2000/svg" xmlns:xlink="http://www.w3.org/1999/xlink" x="0px" y="0px"
	 viewBox="0 0 566.9 566.9" style="enable-background:new 0 0 566.9 566.9;" xml:space="preserve">
<style type="text/css">
	.st0{fill:none;stroke:#A92284;stroke-miterlimit:10;}
</style>
<g>
	<path class="st0" d="M170.3,329.6c-0.5,0-0.9,0-1.4,0c-5.2-0.1-9.5-3.3-11.1-8.3c-0.6-1.9-1.1-4.1-1.7-6.7c-0.2-1-0.5-2.1-0.7-3.1
		c-1.6-0.1-3.5-0.1-5.4-0.1c-0.3,0-0.6,0-0.9,0c-0.2,0.6-0.4,1.2-0.6,1.7c-0.8,2.6-1.8,5.6-2.7,8.1c-1.5,4.7-5.5,8-10.5,8.2
		c-1.7,0.1-3.9,0.1-7,0.1l-3.3,0c-3.9,0-7.3-1.7-9.4-4.7c-2-2.9-2.5-6.7-1.2-10.1c1.2-3.2,2.5-6.7,3.7-10l1.3-3.5
		c3.7-10,12.8-35,18.5-51.4c2.5-7.2,7.7-11.5,14-11.5c2.3,0,10.1,0.8,14,11.3l3.2,8.8c5.5,14.9,10.3,27.8,15.5,43.2
		c1.2,3.5,3.9,11.9,4.5,13.9c0.9,3.3,0.3,6.9-1.8,9.6c-2.1,2.8-5.3,4.3-8.7,4.3c-0.8,0-1.9,0-3.1,0.1
		C173.8,329.6,171.9,329.6,170.3,329.6z"/>
	<path class="st0" d="M141.7,302.1c-1.1,2.6-3.4,10.5-5.3,16c0,0.1-0.3,1.3-1.5,1.3c-3.1,0.2-7.9,0.1-9.7,0.1
		c-1.7,0-1.3-1.2-1.2-1.3c1.6-4.3,3.4-9.1,4.9-13.4c1.6-4.4,12.2-33.3,18.6-51.7c2.2-6.2,6.7-6.6,9.2,0
		c7.1,19.2,12.5,33.6,18.6,51.7c1.2,3.6,3.8,11.8,4.3,13.5c0.2,0.5-0.2,1.1-0.9,1.1c-2.1,0-6.6,0.2-9.5,0.1c-0.9,0-1.5-0.4-1.8-1.4
		c-1.1-3.4-2-9.6-4-15.6C163,301.3,142.2,300.9,141.7,302.1z"/>
</g>
<path class="st0" d="M295.3,330.5c-5.8,0-12.4-0.1-17.9-0.3c-10-0.3-13-0.4-16.1-3.6l-2.9-3l0.1-4.2c0.1-3.6,0.1-7.3,0.2-11
	c0.4-18.9,0.8-38.5-0.1-55.6c-0.1-2.9,0.9-5.7,2.9-7.8c1.7-1.7,5.1-5.4,24.2-5.4c6.2,0,17.8,0.5,25,3.8c8.2,3.8,13.8,11,14.9,19.2
	c0.7,5.1-0.4,10.2-3,14.7c2.5,1.5,4.6,3.4,6.4,5.6c6.2,7.9,7.5,20.9,3.1,30.8c-4.3,9.6-13.4,15.6-25,16.5
	C304.7,330.5,300.7,330.5,295.3,330.5z"/>
<path class="st0" d="M268.6,252.4c-0.1-3,28.2-4.3,38,0.2c10.4,4.8,12.5,16.7,4.1,23.8c-10.2,8.6-22.2,8.4-22.2,8.4
	s24.2-6.4,32.7,4.5c6.3,8.1,5.9,29.7-14.7,31.1c-8.2,0.6-38,0-38-0.7C268.8,297,269.6,273.2,268.6,252.4z"/>
<path class="st0" d="M419.2,329.7c-6.7,0-13.1-0.2-20-0.4c-2-0.1-4-0.1-6.1-0.2c-6.1-0.2-11.3-2.8-14.5-7.4
	c-3.5-5.1-4.1-11.9-1.6-19.2c4-11.8,8.7-22.3,13.6-33.4c2.8-6.3,5.6-12.7,8.5-19.8c2.9-6.9,8.4-11.1,14.7-11.1
	c6.2,0,11.7,4.1,14.7,10.9c2.3,5.3,4.6,10.1,6.7,14.9c5.7,12.5,11.2,24.2,15.5,38.8c2.3,7.7,1.7,14.1-1.8,19
	c-2.2,3.2-6.7,7-15.1,7.5C429.2,329.6,424.4,329.7,419.2,329.7z"/>
<path class="st0" d="M393.4,319.1c-6.8-0.2-9.5-5.6-6.9-13.3c6.1-18,13.8-32.9,21.9-52.6c2.6-6.3,8.1-6.7,11,0
	c8.5,19.5,16.1,33.4,21.8,52.5c1.8,5.9,2,13.1-7.8,13.7C419.4,320.1,407.6,319.5,393.4,319.1z"/>
</svg>
