<?xml version="1.0" encoding="utf-8"?>
<!-- Generator: Adobe Illustrator 26.1.0, SVG Export Plug-In . SVG Version: 6.00 Build 0)  -->
<svg version="1.1" id="Layer_1" xmlns="http://www.w3.org/2000/svg" xmlns:xlink="http://www.w3.org/1999/xlink" x="0px" y="0px"
	 viewBox="0 0 566.9 566.9" style="enable-background:new 0 0 566.9 566.9;" xml:space="preserve">
<style type="text/css">
	.st0{fill:none;stroke:#C057A1;stroke-miterlimit:10;}
	.st1{fill:none;stroke:#6ABD45;stroke-miterlimit:10;}
	.st2{fill:none;stroke:#CEDC2A;stroke-miterlimit:10;}
</style>
<g>
	<path class="st0" d="M-10.3,320c-0.8,0-1.4,0-2.1,0c-0.6,0-1.2,0-1.7,0c-1.8,0-2.7-0.8-3.1-1.4c-0.5-0.8-0.6-1.8-0.2-2.7
		c1.4-3.2,3-6.7,4.4-10.1l1.5-3.5c4.4-10,15.2-35.1,22-51.5c1.6-3.8,4.3-6,7.2-6c3,0,5.6,2.2,7.3,6l3.9,8.8
		c6.5,14.8,12.2,27.7,18.3,42.9c1.5,3.7,4.6,11.8,5.2,13.6c0.3,0.8,0.2,1.8-0.4,2.5c-0.6,0.8-1.5,1.2-2.6,1.2c-1,0-1.8,0-2.7,0
		c-1,0-2,0-3.2,0c-0.5,0-1.1,0-1.7,0c-2.2,0-3-1.3-3.5-2.6c-0.6-1.5-1.4-3.7-2.3-6.2c-1-2.7-2.2-5.8-3.3-8.8
		c-2-0.3-8.2-0.7-16.2-0.7c-7.1,0-11.1,0.2-12.6,0.5c-1,2-2.5,5.9-4,9.6c-0.8,1.9-1.6,3.9-2.3,5.6c-0.5,1.1-1.7,2.4-3.7,2.5
		C-7.6,320-8.9,320-10.3,320z"/>
	<path class="st0" d="M2.3,300.6c-1.3,2.6-4.4,10.5-6.7,16.1c0,0.1-0.4,1.2-1.9,1.2c-3.7,0.2-5.7,0.1-7.8,0.1c-2,0-1.5-1.2-1.4-1.3
		c1.9-4.3,4-9.1,5.9-13.4c1.9-4.4,14.5-33.3,22-51.7c2.6-6.2,8-6.6,10.9,0c8.4,19.2,14.8,33.6,22.1,51.7c1.4,3.6,4.5,11.8,5.1,13.5
		c0.2,0.5-0.2,1.1-1.1,1.1c-2.5,0-4.2,0.1-7.6,0.1c-1,0-1.3-0.3-1.7-1.3c-1.3-3.4-3.7-9.8-6-15.8C33.6,299.6,3,299.4,2.3,300.6z"/>
	<path class="st0" d="M21.1,290.9c-1.5,0-2.9,0-4.4,0c-1.7,0-3.6,0-6,0c-1.8,0-3-0.6-3.8-1.7c-1.3-2-0.3-4.7,0.5-6.6
		c2-4.6,3-7,4.2-9.5c0.6-1.4,1.2-2.8,2.1-4.7c0.8-1.7,2.5-2.8,4.3-2.8c2,0,3.7,1.2,4.5,3.2c1.6,3.8,3.1,7.1,4.8,10.9l1.4,3
		c1.5,3.3,2.1,5.4,1.1,6.9c-0.9,1.5-2.7,1.5-3.3,1.5C24.4,290.9,22.7,290.9,21.1,290.9z"/>
	<path class="st0" d="M10.7,288.9c-2.2,0-3.4-1.1-1.5-5.6c3.1-7.1,3.9-8.8,6.3-14.3c0.9-2.1,4.1-2.4,5.2,0.3c2,4.8,3.9,8.8,6.2,13.9
		c2,4.5,1.8,5.6-0.4,5.6C20.2,289,17.3,288.9,10.7,288.9z"/>
</g>
<path class="st0" d="M308.4,323c-11.1,0-24.4,0-28.3-0.1l-1.1,0h-8.2c-2.3,0-4.1-2.1-4.1-4.7v-65.1c0-2.7,1.9-5,4.3-5h52.3
	c2.6,0,3.3,1.9,3.6,2.5l0.2,0.5v8.8c0,1.2-0.4,2.2-1.2,2.9c-0.7,0.7-1.6,1-2.7,1l-41.3,0c0,0.2,0,0.5,0,0.6c0,0.1,0,11.8,0,12.9
	c1.4,0,33.4,0,33.4,0c1,0,1.9,0,2.6,0.8c0.7,0.7,0.7,1.6,0.6,2.2c0,0.2,0,0.4,0,0.6c0,5.2,0,6.4,0,9.4c0.1,0.8-0.2,1.5-0.6,2
	c-0.4,0.5-1.1,1-2.4,1c-2.5,0.1-6,0.1-10.8,0.1c-4.6,0-9.7,0-14.2-0.1c-3.2,0-6.1,0-8.4,0v13.4c0.1,0,0.2,0,0.3,0c0.3,0,1.5,0,8.9,0
	l31.4,0c2.4,0,3.8,1.4,3.8,4v9.3c0,1.5-1.2,2.7-2.7,2.7C321.9,323,316.7,323,308.4,323z"/>
<path class="st0" d="M325.1,260c0,0.3-0.1,1-0.6,1.5c-0.4,0.4-1,0.5-1.4,0.5l-42,0c-1.1,0-1.2,1.2-1.2,2.6c0,0.2,0,13.2,0,13.4
	c0,1.8,0.5,1.5,2,1.5c1.6,0,33.3,0,33.4,0c1.6,0,1.2,0,1.2,1.6c0,5.2,0,6.4,0,9.5c0,0,0.2,1-1.1,1c-8.3,0.2-26.2,0-34.3,0
	c-0.9,0-1.1,1-1.1,1.9c0,0.7,0,12,0,13.8c0,0.7,0.7,1.7,2.4,1.7c1.2,0,30.5,0,40.2,0c1.2,0,1.9,0.4,1.9,2l0,9.3
	c0,0.4-0.3,0.7-0.7,0.8c-6.6,0.2-44.3,0-44.9,0h-8.2c-1.2,0-2.2-1.2-2.2-2.8v-65.1c0-1.7,1-3,2.3-3h52.3c1.4,0,1.6,0.9,1.9,1.5
	C325.1,253.3,325.1,258.7,325.1,260z"/>
<path class="st0" d="M139.8,319.8c-2.3,0-4.1-2.1-4.1-4.7v-65.1c0-2.7,1.9-5,4.3-5h52.3c2.6,0,3.3,1.9,3.6,2.5l0.2,0.5v8.8
	c0,1.2-0.4,2.2-1.2,2.9c-0.7,0.7-1.6,1-2.7,1l-41.3,0c0,0.2,0,0.5,0,0.6l0.3,53.6c0,4.2-2.1,4.8-3.3,4.8H139.8z"/>
<path class="st0" d="M194.1,256.9c0,0.3-0.1,1-0.6,1.5c-0.4,0.4-1,0.5-1.4,0.5l-42,0c-1.1,0-1.2,1.2-1.2,2.6l0.3,53.6
	c0,1.4-0.2,2.8-1.3,2.8h-8.2c-1.2,0-2.2-1.2-2.2-2.8v-65.1c0-1.7,1-3,2.3-3h52.3c1.4,0,1.6,0.9,1.9,1.5
	C194.1,250.1,194.1,255.6,194.1,256.9z"/>
<path class="st1" d="M343.5,323c-2.3,0-4.2-1.9-4.2-4.2v-9c0-1,0.4-2,1-2.8L376,264l-32.2,0.1c-2.5,0-4.5-2-4.5-4.5v-7.1
	c0-2.4,2-4.4,4.4-4.4h51.7c2.4,0,4.4,2,4.4,4.4v7.3c0,1.7-0.6,3.3-1.7,4.6l-35.2,42.5h32.2c2.3,0,4.2,1.9,4.2,4.2v7.5
	c0,2.4-1.9,4.3-4.3,4.3H343.5z"/>
<path class="st1" d="M341.3,259.7v-7.1c0-1.3,1.1-2.4,2.4-2.4h51.7c1.3,0,2.4,1.1,2.4,2.4v7.3c0,1.2-0.4,2.4-1.2,3.3l-37.5,45.3
	c-0.2,0.2,0,0.5,0.2,0.5h35.7c1.2,0,2.2,1,2.2,2.2v7.5c0,1.3-1,2.3-2.3,2.3h-51.4c-1.2,0-2.3-1-2.3-2.3v-9c0-0.6,0.2-1.1,0.6-1.5
	l38.1-45.9c0.1-0.1,0-0.3-0.2-0.3l-36,0.2C342.4,262.2,341.3,261.1,341.3,259.7z"/>
<path class="st2" d="M419.3,319.8c-2.4,0-4.4-2-4.4-4.4l0-66c0-2.4,2-4.4,4.4-4.4h6.7c1.2,0,2.3,0.5,3.1,1.3c0.8,0.8,1.3,2,1.3,3.2
	l-0.1,24.5c0,0.2,0.1,0.3,0.1,0.3c0.1,0.1,0.2,0.1,0.3,0.1h28.7c0.3,0,0.5-0.2,0.5-0.5l0.1-24.5c0-2.4,2-4.4,4.4-4.4h6.6
	c2.4,0,4.4,2,4.4,4.4v65.8c0,2.4-2,4.4-4.4,4.4h-6.6c-2.4,0-4.4-2-4.4-4.4l0-24.3c0-0.3-0.2-0.5-0.5-0.5h-28.7
	c-0.3,0-0.5,0.2-0.5,0.5l-0.2,24.5c0,2.4-2,4.4-4.4,4.4H419.3z"/>
<path class="st2" d="M416.8,249.4l0,66c0,1.4,1.1,2.5,2.5,2.5h6.4c1.3,0,2.4-1.1,2.5-2.4l0.2-24.5c0-1.3,1.1-2.4,2.5-2.4h28.7
	c1.4,0,2.5,1.1,2.5,2.5l0,24.3c0,1.4,1.1,2.5,2.5,2.5h6.6c1.4,0,2.5-1.1,2.5-2.5v-65.8c0-1.4-1.1-2.5-2.5-2.5h-6.6
	c-1.4,0-2.5,1.1-2.5,2.4l-0.1,24.5c0,1.4-1.1,2.4-2.5,2.4h-28.7c-1.4,0-2.5-1.1-2.5-2.5l0.1-24.5c0-1.4-1.1-2.5-2.5-2.5h-6.7
	C417.9,247,416.8,248.1,416.8,249.4z"/>
<path class="st0" d="M572.8,324.1c-2.3,0-4.1-2.1-4.1-4.7v-65.1c0-2.7,1.9-5,4.3-5l6.8,0c1.2,0,2.3,0.5,3.2,1.3
	c0.8,0.8,1.3,2,1.3,3.2l0,65.6c0,4.1-2.1,4.8-3.3,4.8H572.8z"/>
<path class="st0" d="M582.3,319.3c0,1.4-0.2,2.8-1.3,2.8h-8.2c-1.2,0-2.2-1.2-2.2-2.8v-65.1c0-1.7,1-3,2.3-3l6.8,0
	c1.4,0,2.5,1.1,2.5,2.5L582.3,319.3z"/>
</svg>
