<?xml version="1.0" encoding="utf-8"?>
<!-- Generator: Adobe Illustrator 26.1.0, SVG Export Plug-In . SVG Version: 6.00 Build 0)  -->
<svg version="1.1" id="Layer_1" xmlns="http://www.w3.org/2000/svg" xmlns:xlink="http://www.w3.org/1999/xlink" x="0px" y="0px"
	 viewBox="0 0 566.9 566.9" style="enable-background:new 0 0 566.9 566.9;" xml:space="preserve">
<style type="text/css">
	.st0{fill:none;stroke:#C057A1;stroke-miterlimit:10;}
	.st1{fill:none;stroke:#CEDC2A;stroke-miterlimit:10;}
</style>
<g>
	<path class="st0" d="M-10.3,327.9c-0.8,0-1.5,0-2.2,0c-0.6,0-1.1,0-1.6,0c-4.1,0-7.7-1.8-9.7-5c-2-3-2.3-6.9-0.8-10.3
		c1.4-3.2,2.9-6.7,4.4-10.1l1.5-3.5c4.3-10,15.2-35,21.9-51.4c2.8-6.9,8.3-10.9,14.6-10.9c6.2,0,11.6,4,14.6,10.7l3.8,8.8
		c6.5,14.9,12.2,27.8,18.4,43.2c1.4,3.6,4.6,11.9,5.3,14c1.1,3.3,0.6,6.9-1.4,9.7c-2,2.9-5.4,4.6-9,4.6c-0.9,0-1.7,0-2.5,0
		c-1,0-2.1,0.1-3.4,0.1c-0.6,0-1.2,0-1.8,0c-5-0.1-9-2.9-10.8-7.6c-0.6-1.6-1.4-3.7-2.4-6.2c-0.5-1.3-1-2.6-1.5-4.1
		c-2.6-0.1-6.2-0.2-10.6-0.2c-2.9,0-5.4,0-7.2,0.1c-0.7,1.6-1.4,3.4-2,5c-0.8,2-1.6,3.9-2.3,5.7c-1.7,4.3-5.8,7.1-10.6,7.3
		C-7.4,327.9-8.8,327.9-10.3,327.9z"/>
	<path class="st0" d="M2.3,300.6c-1.3,2.6-4.4,10.5-6.7,16.1c0,0.1-0.4,1.2-1.9,1.2c-3.7,0.2-5.7,0.1-7.8,0.1c-2,0-1.5-1.2-1.4-1.3
		c1.9-4.3,4-9.1,5.9-13.4c1.9-4.4,14.5-33.3,22-51.7c2.6-6.2,8-6.6,10.9,0c8.4,19.2,14.8,33.6,22.1,51.7c1.4,3.6,4.5,11.8,5.1,13.5
		c0.2,0.5-0.2,1.1-1.1,1.1c-2.5,0-4.2,0.1-7.6,0.1c-1,0-1.3-0.3-1.7-1.3c-1.3-3.4-3.7-9.8-6-15.8C33.6,299.6,3,299.4,2.3,300.6z"/>
</g>
<path class="st0" d="M308.4,331c-11.1,0-24.4,0-28.4-0.1l-1.1,0h-8.2c-6.7,0-12.1-5.7-12.1-12.7v-65.1c0-7.1,5.5-12.9,12.3-12.9
	h52.3c1.8,0,8.1,0.5,10.9,7.4l0.9,1.9V260c0,3.4-1.3,6.4-3.6,8.7c-2.1,2-5,3.2-8,3.3l-0.5,0c0.3,0.2,0.6,0.5,0.8,0.8
	c2,2.1,3,4.8,2.8,8c0,0.1,0,0.1,0,0.2c0,5.1,0,6.4,0,9.2c0.1,2.7-0.8,5.4-2.5,7.4c-0.4,0.5-0.9,1-1.4,1.4h0.1
	c6.8,0,11.8,5,11.8,11.9v9.3c0,5.8-4.6,10.5-10.4,10.7C322,330.9,316.9,331,308.4,331z"/>
<path class="st0" d="M325.1,260c0,0.3-0.1,1-0.6,1.5c-0.4,0.4-1,0.5-1.4,0.5l-42,0c-1.1,0-1.2,1.2-1.2,2.6c0,0.2,0,13.2,0,13.4
	c0,1.8,0.5,1.5,2,1.5c1.6,0,33.3,0,33.4,0c1.6,0,1.2,0,1.2,1.6c0,5.2,0,6.4,0,9.5c0,0,0.2,1-1.1,1c-8.3,0.2-26.2,0-34.3,0
	c-0.9,0-1.1,1-1.1,1.9c0,0.7,0,12,0,13.8c0,0.7,0.7,1.7,2.4,1.7c1.2,0,30.5,0,40.2,0c1.2,0,1.9,0.4,1.9,2l0,9.3
	c0,0.4-0.3,0.7-0.7,0.8c-6.6,0.2-44.3,0-44.9,0h-8.2c-1.2,0-2.2-1.2-2.2-2.8v-65.1c0-1.7,1-3,2.3-3h52.3c1.4,0,1.6,0.9,1.9,1.5
	C325.1,253.3,325.1,258.7,325.1,260z"/>
<path class="st0" d="M139.8,327.7c-6.7,0-12.1-5.7-12.1-12.7v-65.1c0-7.1,5.5-12.9,12.3-12.9h52.3c1.8,0,8.1,0.5,10.9,7.4l0.9,1.9
	v10.6c0,3.4-1.3,6.4-3.6,8.7c-2.1,2-5,3.2-8,3.3l-33.5,0l0.2,46.2c0,10.1-7.3,12.7-11.2,12.7H139.8z"/>
<path class="st0" d="M194.1,256.9c0,0.3-0.1,1-0.6,1.5c-0.4,0.4-1,0.5-1.4,0.5l-42,0c-1.1,0-1.2,1.2-1.2,2.6l0.3,53.6
	c0,1.4-0.2,2.8-1.3,2.8h-8.2c-1.2,0-2.2-1.2-2.2-2.8v-65.1c0-1.7,1-3,2.3-3h52.3c1.4,0,1.6,0.9,1.9,1.5
	C194.1,250.1,194.1,255.6,194.1,256.9z"/>
<path class="st1" d="M419.3,327.7c-6.8,0-12.4-5.6-12.4-12.4l0-66c0-6.8,5.6-12.4,12.4-12.4h6.7c3.3,0,6.4,1.3,8.8,3.6
	c2.3,2.3,3.6,5.5,3.6,8.8l-0.1,17H452l0.1-17.1c0-6.8,5.6-12.3,12.4-12.3h6.6c6.8,0,12.4,5.6,12.4,12.4v65.8
	c0,6.8-5.6,12.4-12.4,12.4h-6.6c-6.8,0-12.4-5.5-12.4-12.4l0-16.9h-13.8l-0.1,17.1c-0.1,6.8-5.6,12.3-12.4,12.3H419.3z"/>
<path class="st1" d="M416.8,249.4l0,66c0,1.4,1.1,2.5,2.5,2.5h6.4c1.3,0,2.4-1.1,2.5-2.4l0.2-24.5c0-1.3,1.1-2.4,2.5-2.4h28.7
	c1.4,0,2.5,1.1,2.5,2.5l0,24.3c0,1.4,1.1,2.5,2.5,2.5h6.6c1.4,0,2.5-1.1,2.5-2.5v-65.8c0-1.4-1.1-2.5-2.5-2.5h-6.6
	c-1.4,0-2.5,1.1-2.5,2.4l-0.1,24.5c0,1.4-1.1,2.4-2.5,2.4h-28.7c-1.4,0-2.5-1.1-2.5-2.5l0.1-24.5c0-1.4-1.1-2.5-2.5-2.5h-6.7
	C417.9,247,416.8,248.1,416.8,249.4z"/>
<path class="st0" d="M572.8,332c-6.7,0-12.1-5.7-12.1-12.7v-65.1c0-7.1,5.5-12.9,12.3-12.9l6.8,0c3.3,0,6.4,1.3,8.8,3.6
	c2.3,2.3,3.6,5.5,3.6,8.8l0,65.6c0,10-7.3,12.7-11.2,12.7H572.8z"/>
<path class="st0" d="M582.3,319.3c0,1.4-0.2,2.8-1.3,2.8h-8.2c-1.2,0-2.2-1.2-2.2-2.8v-65.1c0-1.7,1-3,2.3-3l6.8,0
	c1.4,0,2.5,1.1,2.5,2.5L582.3,319.3z"/>
</svg>
