<?xml version="1.0" encoding="utf-8"?>
<!-- Generator: Adobe Illustrator 26.1.0, SVG Export Plug-In . SVG Version: 6.00 Build 0)  -->
<svg version="1.1" id="Layer_1" xmlns="http://www.w3.org/2000/svg" xmlns:xlink="http://www.w3.org/1999/xlink" x="0px" y="0px"
	 viewBox="0 0 566.9 566.9" style="enable-background:new 0 0 566.9 566.9;" xml:space="preserve">
<style type="text/css">
	.st0{fill:none;stroke:#8E1E3E;stroke-miterlimit:10;}
</style>
<path class="st0" d="M280.9,322.1c-5.7,0-12.4-0.1-17.8-0.3c-9.8-0.3-10.1-0.6-10.7-1.2l-0.6-0.6l0-0.9c0.1-3.7,0.1-7.4,0.2-11.1
	c0.4-19.2,0.8-39.1-0.1-56.7c0-0.7,0.2-1.4,0.7-1.9c2.6-2.7,14.8-2.9,18.5-2.9c4.5,0,15.7,0.3,21.8,3.1c5.7,2.6,9.6,7.6,10.4,13.1
	c0.7,5.3-1.4,10.5-5.8,14.2c-1.4,1.2-2.9,2.3-4.5,3.3c7.1,0.6,12.3,3,15.4,7c3.8,4.8,5.8,14.5,2.1,22.8c-3.1,7-9.6,11.2-18.3,11.8
	C289.4,322,284.5,322.1,280.9,322.1z"/>
<path class="st0" d="M253.9,251.2c-0.1-3,28.5-4.3,38.3,0.2c10.5,4.8,12.6,16.9,4.1,24c-10.3,8.7-22.4,8.5-22.4,8.5s24.4-6.4,33,4.5
	c6.4,8.2,5.9,30-14.8,31.4c-8.2,0.6-38.4,0-38.3-0.7C254.2,296.3,254.9,272.3,253.9,251.2z"/>
<path class="st0" d="M280.1,274.3c-4.6,0-8.3-3.4-8.3-7.7s3.7-7.7,8.3-7.7s8.3,3.4,8.3,7.7S284.7,274.3,280.1,274.3z"/>
<ellipse class="st0" cx="280.4" cy="266.3" rx="6" ry="5.4"/>
<path class="st0" d="M284.6,311.6c-7,0-12.8-5.1-12.8-11.4s5.7-11.4,12.8-11.4c7,0,12.8,5.1,12.8,11.4S291.6,311.6,284.6,311.6z"/>
<ellipse class="st0" cx="284.9" cy="300.2" rx="10.5" ry="9.4"/>
</svg>
