<?xml version="1.0" encoding="utf-8"?>
<!-- Generator: Adobe Illustrator 26.1.0, SVG Export Plug-In . SVG Version: 6.00 Build 0)  -->
<svg version="1.1" id="Layer_1" xmlns="http://www.w3.org/2000/svg" xmlns:xlink="http://www.w3.org/1999/xlink" x="0px" y="0px"
	 viewBox="0 0 566.9 566.9" style="enable-background:new 0 0 566.9 566.9;" xml:space="preserve">
<style type="text/css">
	.st0{fill:none;stroke:#C42252;stroke-miterlimit:10;}
</style>
<path class="st0" d="M280.9,330.1c-5.8,0-12.5-0.1-18-0.3c-10-0.3-13-0.4-16.2-3.6l-2.9-3l0.1-4.2c0.1-3.7,0.1-7.4,0.2-11.1
	c0.4-19.1,0.8-38.9-0.1-56.2c-0.1-2.9,0.9-5.7,2.9-7.8c1.7-1.7,5.1-5.4,24.3-5.4c6.3,0,17.9,0.5,25.2,3.8c8.2,3.8,13.8,11,15,19.3
	c0.7,5.2-0.4,10.4-3,14.9c2.5,1.5,4.7,3.4,6.5,5.7c6.2,8,7.5,21,3.1,31c-4.3,9.7-13.5,15.7-25.1,16.5
	C290.3,330,286.3,330.1,280.9,330.1z"/>
<path class="st0" d="M253.9,251.2c-0.1-3,28.5-4.3,38.3,0.2c10.5,4.8,12.6,16.9,4.1,24c-10.3,8.7-22.4,8.5-22.4,8.5s24.4-6.4,33,4.5
	c6.4,8.2,5.9,30-14.8,31.4c-8.2,0.6-38.4,0-38.3-0.7C254.2,296.3,254.9,272.3,253.9,251.2z"/>
</svg>
