<?xml version="1.0" encoding="utf-8"?>
<!-- Generator: Adobe Illustrator 26.1.0, SVG Export Plug-In . SVG Version: 6.00 Build 0)  -->
<svg version="1.1" id="Layer_1" xmlns="http://www.w3.org/2000/svg" xmlns:xlink="http://www.w3.org/1999/xlink" x="0px" y="0px"
	 viewBox="0 0 566.9 566.9" style="enable-background:new 0 0 566.9 566.9;" xml:space="preserve">
<style type="text/css">
	.st0{fill:none;stroke:#C057A1;stroke-miterlimit:10;}
	.st1{fill:none;stroke:#6ABD45;stroke-miterlimit:10;}
	.st2{fill:none;stroke:#CEDC2A;stroke-miterlimit:10;}
</style>
<path class="st0" d="M446,329.9c-0.9,0-1.8,0-2.7-0.1c-9.4-0.8-18.1-5.9-24.6-14.3c-8.6-11.1-12.4-26.8-10-41
	c3-17.3,14.7-31.2,29.3-34.5c2.3-0.5,4.6-0.8,6.9-0.8c21.2,0,39.3,20.5,39.6,44.7c0.1,13.3-4.9,26.1-13.7,35
	C463.8,326.1,455,329.9,446,329.9C446,329.9,446,329.9,446,329.9z"/>
<path class="st0" d="M440.2,249.7c-10.6,2.5-19.5,13.5-21.7,26.5c-3.3,19.4,8.1,42.2,25.7,43.7c16.3,1.4,30.6-15.9,30.4-35.9
	C474.3,261.9,456.1,246,440.2,249.7z"/>
<path class="st0" d="M174.6,190.3c-11.1,0-24.5-0.1-28.5-0.1l-1.1,0h-8.2c-6.7,0-12.1-5.7-12.1-12.7v-65.1c0-7.1,5.5-12.9,12.3-12.9
	h52.5c1.8,0,8.1,0.5,10.9,7.4l0.9,1.9v12.6c0,3.4-1.3,6.4-3.6,8.7c-1.6,1.5-3.6,2.5-5.8,3c0.6,1.5,0.9,3.2,0.8,5.1
	c0,0.1,0,0.1,0,0.2c0,5.1,0,8.2,0,11.2c0.1,2.5-0.6,4.9-2.1,6.9c5.9,0.8,10.1,5.5,10.1,11.8l0,11.3c0,5.8-4.6,10.5-10.4,10.7
	C188.1,190.3,183,190.3,174.6,190.3z"/>
<path class="st0" d="M191.3,121.4c0,0.3-0.1,1-0.6,1.5c-0.4,0.4-1,0.5-1.4,0.5l-39.2,0c-1.1,0-1.2,1.2-1.2,2.6c0,0.2,0,9.2,0,9.4
	c0,1.8,0.5,1.5,2,1.5c1.6,0,30.4,0,30.5,0c1.6,0,1.2,0,1.2,1.6c0,5.2,0,8.4,0,11.5c0,0,0.2,1-1.1,1c-8.3,0.2-23.3,0-31.4,0
	c-0.9,0-1.1,1-1.1,1.9c0,0.7,0,10,0,11.8c0,0.7,0.7,1.7,2.4,1.7c1.2,0,27.5,0,37.3,0c1.2,0,1.9,0.4,1.9,2l0,11.3
	c0,0.4-0.3,0.7-0.7,0.8c-6.6,0.2-44.4,0-45.1,0h-8.2c-1.2,0-2.2-1.2-2.2-2.8v-65.1c0-1.7,1.1-3,2.4-3h52.5c1.4,0,1.6,0.9,1.9,1.5
	C191.3,112.6,191.3,120.1,191.3,121.4z"/>
<path class="st0" d="M62.5,326.8c-6.7,0-12.1-5.7-12.1-12.7V249c0-7.1,5.5-12.9,12.3-12.9h52.5c1.8,0,8.1,0.5,10.9,7.4l0.9,1.9v12.6
	c0,3.4-1.3,6.4-3.6,8.7c-2.1,2-5,3.2-8,3.2l-30.6,0l0.2,44.2c0,10.1-7.3,12.7-11.2,12.7H62.5z"/>
<path class="st0" d="M117,257.9c0,0.3-0.1,1-0.6,1.5c-0.4,0.4-1,0.5-1.4,0.5l-39.2,0c-1.1,0-1.2,1.2-1.2,2.6l0.3,51.6
	c0,1.4-0.2,2.8-1.3,2.8H62.5c-1.2,0-2.2-1.2-2.2-2.8V249c0-1.7,1.1-3,2.4-3h52.5c1.4,0,1.6,0.9,1.9,1.5
	C117,249.1,117,256.6,117,257.9z"/>
<path class="st1" d="M266.2,329.9c-6.7,0-12.2-5.5-12.2-12.2v-9c0-2.8,1-5.6,2.8-7.8l22.4-27.9l-12.7,0.1c-6.9,0-12.5-5.6-12.5-12.4
	v-9.1c0-6.8,5.5-12.4,12.4-12.4h51.9c6.8,0,12.3,5.5,12.3,12.3v7.3c0,3.5-1.2,7-3.5,9.7L304.5,296h13.5c6.7,0,12.1,5.4,12.1,12.1
	v9.5c0,6.8-5.5,12.3-12.3,12.3H266.2z"/>
<path class="st1" d="M264,260.7v-9.1c0-1.3,1.1-2.4,2.4-2.4h51.9c1.3,0,2.4,1.1,2.4,2.4v7.3c0,1.2-0.4,2.4-1.2,3.3l-35.6,43.3
	c-0.2,0.2,0,0.5,0.2,0.5h33.8c1.2,0,2.2,1,2.2,2.2v9.5c0,1.3-1.1,2.3-2.3,2.3h-51.6c-1.2,0-2.3-1-2.3-2.3v-9c0-0.6,0.2-1.1,0.6-1.5
	l35.2-43.9c0.1-0.1,0-0.3-0.2-0.3l-33.1,0.2C265.1,263.2,264,262.1,264,260.7z"/>
<path class="st2" d="M323.1,173.5c-6.8,0-12.4-5.6-12.4-12.4l0-66c0-6.8,5.6-12.4,12.4-12.4h9.7c3.3,0,6.4,1.3,8.8,3.6
	c2.3,2.3,3.6,5.5,3.6,8.8l-0.1,16h7.8l0.1-16.1c0-6.8,5.6-12.3,12.4-12.3h9.6c6.8,0,12.4,5.6,12.4,12.4V161
	c0,6.8-5.6,12.4-12.4,12.4h-9.6c-6.8,0-12.4-5.5-12.4-12.4l0-15.9H345l-0.1,16.1c-0.1,6.8-5.6,12.3-12.4,12.3H323.1z"/>
<path class="st2" d="M320.7,95.2l0,66c0,1.4,1.1,2.5,2.5,2.5h9.4c1.3,0,2.4-1.1,2.5-2.4l0.2-23.5c0-1.3,1.1-2.4,2.5-2.4h22.7
	c1.4,0,2.5,1.1,2.5,2.5l0,23.3c0,1.4,1.1,2.5,2.5,2.5h9.6c1.4,0,2.5-1.1,2.5-2.5V95.2c0-1.4-1.1-2.5-2.5-2.5h-9.6
	c-1.4,0-2.5,1.1-2.5,2.4l-0.1,23.5c0,1.4-1.1,2.4-2.5,2.4h-22.7c-1.4,0-2.5-1.1-2.5-2.5l0.1-23.5c0-1.4-1.1-2.5-2.5-2.5h-9.7
	C321.8,92.7,320.7,93.8,320.7,95.2z"/>
<path class="st0" d="M487.6,204.2c-6.9,0-12.5-5.7-12.5-12.7v-65.1c0-7.1,5.7-12.9,12.8-12.9l8.3,0c7.1,0,12.9,5.6,12.9,12.4l0,65.6
	c0,8.7-6,12.7-11.5,12.7H487.6z"/>
<path class="st0" d="M499.2,191.5c0,1.4-0.2,2.8-1.6,2.8h-10c-1.4,0-2.6-1.2-2.6-2.8v-65.1c0-1.7,1.3-3,2.8-3l8.3,0
	c1.7,0,3,1.1,3,2.5L499.2,191.5z"/>
</svg>
