<?xml version="1.0" encoding="utf-8"?>
<!-- Generator: Adobe Illustrator 26.1.0, SVG Export Plug-In . SVG Version: 6.00 Build 0)  -->
<svg version="1.1" id="Layer_1" xmlns="http://www.w3.org/2000/svg" xmlns:xlink="http://www.w3.org/1999/xlink" x="0px" y="0px"
	 viewBox="0 0 566.9 566.9" style="enable-background:new 0 0 566.9 566.9;" xml:space="preserve">
<style type="text/css">
	.st0{fill:none;stroke:#C057A1;stroke-miterlimit:10;}
	.st1{fill:none;stroke:#6ABD45;stroke-miterlimit:10;}
	.st2{fill:none;stroke:#CEDC2A;stroke-miterlimit:10;}
	.st3{fill:none;stroke:#384EA1;stroke-miterlimit:10;}
</style>
<path class="st0" d="M450.2,399.5c-0.7,0-1.4,0-2-0.1c-7.3-0.6-13.8-4.5-19-11.3c-7.3-9.4-10.5-22.7-8.4-34.8
	c2.4-13.9,12-25.5,23.2-28.1c1.7-0.4,3.4-0.6,5.2-0.6c15.1,0,31.4,14.8,31.7,36.9c0.1,11-4.1,22-11.4,29.3
	C463.9,396.5,457.1,399.5,450.2,399.5C450.2,399.5,450.2,399.5,450.2,399.5z"/>
<path class="st0" d="M444.4,327.2c-10.6,2.5-19.5,13.5-21.7,26.5c-3.3,19.4,8.1,42.2,25.7,43.7c16.3,1.4,30.6-15.9,30.4-35.9
	C478.5,339.4,460.4,323.5,444.4,327.2z"/>
<path class="st0" d="M439.7,370.4c-2.6,0-4.7-2.1-4.7-4.7v-7.4c0-2.6,2.1-4.7,4.7-4.7h21.5c2.6,0,4.7,2.1,4.7,4.7v7.4
	c0,2.6-2.1,4.7-4.7,4.7H439.7z"/>
<path class="st0" d="M461.2,368.5h-21.5c-1.5,0-2.7-1.2-2.7-2.7v-7.4c0-1.5,1.2-2.7,2.7-2.7h21.5c1.5,0,2.7,1.2,2.7,2.7v7.4
	C463.9,367.3,462.7,368.5,461.2,368.5z"/>
<path class="st0" d="M178.1,259.1c-11.1,0-24.5-0.1-28.5-0.1l-1.1,0h-8.2c-2.3,0-4.1-2.1-4.1-4.7v-65.1c0-2.7,1.9-5,4.3-5H193
	c2.6,0,3.3,1.8,3.6,2.5l0.2,0.6v10.8c0,1.2-0.4,2.2-1.2,2.9c-0.7,0.7-1.6,1-2.7,1l-38.4,0c0,0.2,0,0.5,0,0.6l0,8.9
	c1.3,0,30.5,0,30.5,0c1,0,1.9,0,2.6,0.8c0.7,0.7,0.7,1.6,0.6,2.2c0,0.2,0,0.4,0,0.6c0,5.2,0,8.3,0,11.4c0.1,0.8-0.2,1.5-0.6,2
	c-0.4,0.5-1.1,1-2.4,1c-2.5,0.1-5.8,0.1-10.1,0.1c-4.1,0-8.4,0-12.4,0c-3,0-5.8,0-8.1,0V241c0.1,0,0.2,0,0.3,0c0.3,0,1.4,0,8.1,0
	l29.3,0c2.4,0,3.8,1.4,3.8,4v11.3c0,1.5-1.2,2.7-2.7,2.7C191.6,259.1,186.4,259.1,178.1,259.1z"/>
<path class="st0" d="M194.8,198.1c0,0.3-0.1,1-0.6,1.5c-0.4,0.4-1,0.5-1.4,0.5l-39.2,0c-1.1,0-1.2,1.2-1.2,2.6c0,0.2,0,9.2,0,9.4
	c0,1.8,0.5,1.5,2,1.5c1.6,0,30.4,0,30.5,0c1.6,0,1.2,0,1.2,1.6c0,5.2,0,8.4,0,11.5c0,0,0.2,1-1.1,1c-8.3,0.2-23.3,0-31.4,0
	c-0.9,0-1.1,1-1.1,1.9c0,0.7,0,10,0,11.8c0,0.7,0.7,1.7,2.4,1.7c1.2,0,27.5,0,37.3,0c1.2,0,1.9,0.4,1.9,2l0,11.3
	c0,0.4-0.3,0.7-0.7,0.8c-6.6,0.2-44.4,0-45.1,0h-8.2c-1.2,0-2.2-1.2-2.2-2.8v-65.1c0-1.7,1.1-3,2.4-3H193c1.4,0,1.6,0.9,1.9,1.5
	C194.8,189.4,194.8,196.8,194.8,198.1z"/>
<path class="st0" d="M66,395.6c-2.3,0-4.1-2.1-4.1-4.7v-65.1c0-2.7,1.9-5,4.3-5h52.5c2.6,0,3.3,1.8,3.6,2.5l0.2,0.6v10.8
	c0,1.2-0.4,2.2-1.2,2.9c-0.7,0.7-1.6,1-2.7,1l-38.4,0c0,0.2,0,0.4,0,0.6l0.3,51.6c0,4.2-2.1,4.8-3.3,4.8H66z"/>
<path class="st0" d="M120.5,334.6c0,0.3-0.1,1-0.6,1.5c-0.4,0.4-1,0.5-1.4,0.5l-39.2,0c-1.1,0-1.2,1.2-1.2,2.6l0.3,51.6
	c0,1.4-0.2,2.8-1.3,2.8H66c-1.2,0-2.2-1.2-2.2-2.8v-65.1c0-1.7,1.1-3,2.4-3h52.5c1.4,0,1.6,0.9,1.9,1.5
	C120.5,325.9,120.5,333.3,120.5,334.6z"/>
<path class="st1" d="M269.8,398.7c-2.3,0-4.2-1.9-4.2-4.2v-9c0-1,0.4-2,1-2.8l32.8-40.9l-29.3,0.1c-2.5,0-4.5-2-4.5-4.5v-9.1
	c0-2.4,2-4.4,4.4-4.4h51.9c2.4,0,4.4,2,4.4,4.4v7.3c0,1.7-0.6,3.3-1.7,4.6l-33.3,40.5h30.3c2.3,0,4.2,1.9,4.2,4.2v9.5
	c0,2.4-1.9,4.3-4.3,4.3H269.8z"/>
<path class="st1" d="M267.5,337.5v-9.1c0-1.3,1.1-2.4,2.4-2.4h51.9c1.3,0,2.4,1.1,2.4,2.4v7.3c0,1.2-0.4,2.4-1.2,3.3l-35.6,43.3
	c-0.2,0.2,0,0.5,0.2,0.5h33.8c1.2,0,2.2,1,2.2,2.2v9.5c0,1.3-1.1,2.3-2.3,2.3h-51.6c-1.2,0-2.3-1-2.3-2.3v-9c0-0.6,0.2-1.1,0.6-1.5
	l35.2-43.9c0.1-0.1,0-0.3-0.2-0.3L270,340C268.6,340,267.5,338.8,267.5,337.5z"/>
<path class="st2" d="M326.7,242.3c-2.4,0-4.4-2-4.4-4.4v-66c0-1.2,0.5-2.3,1.3-3.1s2-1.3,3.1-1.3h9.7c1.2,0,2.3,0.5,3.1,1.3
	s1.3,2,1.3,3.2l-0.1,23.5c0,0.2,0.1,0.3,0.1,0.3c0.1,0.1,0.2,0.1,0.3,0.1h22.7c0.3,0,0.5-0.2,0.5-0.5l0.1-23.5c0-2.4,2-4.4,4.4-4.4
	h9.6c2.4,0,4.4,2,4.4,4.4v65.8c0,2.4-2,4.4-4.4,4.4h-9.6c-2.4,0-4.4-2-4.4-4.4l0-23.3c0-0.3-0.2-0.5-0.5-0.5h-22.7
	c-0.3,0-0.5,0.2-0.5,0.5l-0.2,23.5c0,2.4-2,4.4-4.4,4.4H326.7z"/>
<path class="st2" d="M324.2,171.9l0,66c0,1.4,1.1,2.5,2.5,2.5h9.4c1.3,0,2.4-1.1,2.5-2.4l0.2-23.5c0-1.3,1.1-2.4,2.5-2.4h22.7
	c1.4,0,2.5,1.1,2.5,2.5l0,23.3c0,1.4,1.1,2.5,2.5,2.5h9.6c1.4,0,2.5-1.1,2.5-2.5v-65.8c0-1.4-1.1-2.5-2.5-2.5h-9.6
	c-1.4,0-2.5,1.1-2.5,2.4l-0.1,23.5c0,1.4-1.1,2.4-2.5,2.4h-22.7c-1.4,0-2.5-1.1-2.5-2.5l0.1-23.5c0-1.4-1.1-2.5-2.5-2.5h-9.7
	C325.3,169.5,324.2,170.6,324.2,171.9z"/>
<path class="st0" d="M491.2,273c-2.5,0-4.6-2.1-4.6-4.7v-65.1c0-2.7,2.2-5,4.8-5l8.3,0c2.8,0,5,2,5,4.5l0,65.6
	c0,4.1-2.2,4.8-3.6,4.8H491.2z"/>
<path class="st0" d="M502.7,268.2c0,1.4-0.2,2.8-1.6,2.8h-10c-1.4,0-2.6-1.2-2.6-2.8v-65.1c0-1.7,1.3-3,2.8-3l8.3,0
	c1.7,0,3,1.1,3,2.5L502.7,268.2z"/>
<path class="st3" d="M450.3,385.8c-0.5,0-0.9,0-1.4-0.1c-5.1-0.4-9.9-3.2-13.5-7.8c-4.5-5.9-6.5-14.1-5.2-21.3
	c1.6-8.9,8.1-16.2,15.8-17.9c1.1-0.2,2.3-0.4,3.5-0.4c10.2,0,21.3,9.4,21.4,23.4c0.1,6.8-2.5,13.4-7.2,18.1
	C460,383.7,455.2,385.8,450.3,385.8C450.3,385.8,450.3,385.8,450.3,385.8z"/>
<path class="st3" d="M446.5,340.9c-6.9,1.5-12.6,8.2-14.1,16.1c-2.2,11.8,5.2,25.6,16.6,26.6c10.5,0.9,19.8-9.7,19.7-21.8
	C468.6,348.3,456.9,338.7,446.5,340.9z"/>
</svg>
