<?xml version="1.0" encoding="utf-8"?>
<!-- Generator: Adobe Illustrator 26.1.0, SVG Export Plug-In . SVG Version: 6.00 Build 0)  -->
<svg version="1.1" id="Layer_1" xmlns="http://www.w3.org/2000/svg" xmlns:xlink="http://www.w3.org/1999/xlink" x="0px" y="0px"
	 viewBox="0 0 566.9 566.9" style="enable-background:new 0 0 566.9 566.9;" xml:space="preserve">
<style type="text/css">
	.st0{fill:none;stroke:#61BB46;stroke-miterlimit:10;}
	.st1{fill:none;stroke:#8E3293;stroke-miterlimit:10;}
	.st2{fill:none;stroke:#5CBA47;stroke-miterlimit:10;}
	.st3{fill:none;stroke:#414DA1;stroke-miterlimit:10;}
	.st4{fill:none;stroke:#C057A1;stroke-miterlimit:10;}
	.st5{fill:none;stroke:#C058A1;stroke-miterlimit:10;}
	.st6{fill:none;stroke:#3A4FA1;stroke-miterlimit:10;}
</style>
<path class="st0" d="M70.4,319.3c-1.1,0-2.1-0.4-2.9-1.2c-0.8-0.8-1.2-1.8-1.2-2.9v-67c0-2.3,1.8-4.1,4.1-4.1l10,0
	c1.1,0,2.1,0.4,2.9,1.2c0.8,0.8,1.2,1.8,1.2,2.9L84.4,264c0.1,0.1,0.1,0.1,0.1,0.1l30.9-19.2c0.7-0.4,1.4-0.6,2.2-0.6
	c1.3,0,2.6,0.7,3.4,1.8l5.7,8.2c0.6,0.9,0.9,2.1,0.7,3.2s-0.9,2.1-1.9,2.7l-32,19.8c0,0-0.1,0-0.1,0.1c0,0.1,0,0.1,0.1,0.1
	l31.7,23.6c0.9,0.7,1.5,1.6,1.6,2.7c0.1,1.1-0.1,2.2-0.8,3.1l-6.1,7.8c-0.8,1-2,1.6-3.2,1.6c-0.9,0-1.7-0.3-2.4-0.8l-29.6-22
	c0,0-0.1,0-0.1,0c-0.1,0-0.1,0-0.1,0.1v18.7c0,2.2-1.7,4-4,4.1L70.4,319.3z"/>
<path class="st0" d="M124.4,308.3l-6.1,7.8c-0.7,0.9-2,1.1-2.9,0.4l-29.6-22c-1.4-1-3.4,0-3.4,1.7v18.7c0,1.1-0.9,2.1-2.1,2.1
	l-10,0.3c-1.2,0-2.2-0.9-2.2-2.1v-67c0-1.2,1-2.1,2.1-2.1l10,0c1.2,0,2.1,1,2.1,2.1L82.4,264c0,1.7,1.8,2.7,3.2,1.8l30.8-19.2
	c1-0.6,2.2-0.3,2.9,0.6l5.7,8.2c0.7,1,0.4,2.4-0.6,3l-32,19.8c-1.3,0.8-1.3,2.6-0.1,3.5l31.7,23.6C125,306,125.2,307.4,124.4,308.3z
	"/>
<path class="st1" d="M205.2,169.5c-1.5,0-2.8-1-3.2-2.4l-14.8-48.2l-11.9,47c-0.4,1.5-1.7,2.5-3.2,2.5l-10.6,0.1
	c-1.1,0-2-0.5-2.6-1.3c-0.6-0.8-0.9-1.8-0.6-2.9l16-68.1c0.4-1.5,1.7-2.6,3.3-2.6l19.3,0.1c1.5,0,2.8,1,3.2,2.5l18.9,68.1
	c0.3,1,0.1,2-0.5,2.8c-0.6,0.8-1.5,1.3-2.5,1.4l-10.5,0.9C205.3,169.5,205.2,169.5,205.2,169.5z"/>
<path class="st1" d="M172,166.5l-10.6,0.1c-0.9,0-1.5-0.8-1.3-1.7l16-68.1c0.1-0.6,0.7-1.1,1.3-1.1l19.3,0.1c0.6,0,1.2,0.4,1.3,1
	l18.9,68.1c0.2,0.8-0.3,1.7-1.2,1.7l-10.5,0.9c-0.6,0.1-1.2-0.3-1.4-1l-15.4-50.3c-0.4-1.3-2.3-1.3-2.6,0.1l-12.4,49.2
	C173.2,166.1,172.7,166.5,172,166.5z"/>
<path class="st2" d="M255.1,319.6c-1.1,0-2.1-0.4-2.8-1.2c-0.8-0.8-1.2-1.8-1.2-2.8l0.2-40.8l-9.3,9.8c-0.8,0.8-1.8,1.3-2.9,1.3
	c-1.1,0-2.2-0.5-3-1.3l-9.3-10.3l-0.1,41.3c0,2.2-1.8,4-4,4l-10.2,0c-2.2,0-4-1.8-4-4v-66.8c0-2.2,1.8-4,4-4l11,0
	c1.2,0,2.3,0.5,3.1,1.4l12.4,14.6l11.9-14.6c0.8-0.9,1.9-1.5,3.1-1.5h11.2c2.2,0,4,1.8,4,4v66.8c0,2.2-1.8,4-4,4L255.1,319.6
	L255.1,319.6z"/>
<path class="st2" d="M210.6,315.6v-66.8c0-1.1,0.9-2,2-2l11,0c0.6,0,1.2,0.3,1.5,0.7l12.4,14.6c0.8,1,2.3,1,3.1,0l11.8-14.6
	c0.4-0.5,1-0.7,1.6-0.7h11.2c1.1,0,2,0.9,2,2v66.8c0,1.1-0.9,2-2,2l-10.1,0c-1.1,0-2-0.9-2-2l0.2-40.8c0-1.8-2.2-2.7-3.5-1.4
	l-9.2,9.8c-0.8,0.9-2.2,0.8-3,0l-9.3-10.3c-1.2-1.4-3.5-0.5-3.5,1.4v41.3c0,1.1-0.9,2-2,2l-10.2,0
	C211.5,317.6,210.6,316.7,210.6,315.6z"/>
<path class="st3" d="M407.3,172.8c-1.3,0-2.4-0.6-3.1-1.7l-24.1-38v36.1c0,2-1.7,3.7-3.7,3.7l-10.8,0c-2,0-3.7-1.7-3.7-3.7v-67.4
	c0-2,1.7-3.7,3.7-3.7l10.8,0c1.2,0,2.4,0.6,3.1,1.6l24.8,36.4l0.2-34.3c0-2,1.7-3.7,3.7-3.7l10.8,0c2,0,3.7,1.7,3.7,3.7v67.4
	c0,2-1.7,3.7-3.7,3.7L407.3,172.8L407.3,172.8z"/>
<path class="st3" d="M376.3,170.9l-10.8,0c-1,0-1.7-0.8-1.7-1.7v-67.4c0-1,0.8-1.7,1.7-1.7l10.8,0c0.6,0,1.1,0.3,1.4,0.8l25.3,37.1
	c1,1.4,3.1,0.7,3.1-1l0.2-35.1c0-0.9,0.8-1.7,1.7-1.7l10.8,0c1,0,1.7,0.8,1.7,1.7v67.4c0,1-0.8,1.7-1.7,1.7l-11.5,0
	c-0.6,0-1.1-0.3-1.5-0.8l-24.6-38.8c-0.9-1.5-3.2-0.8-3.2,0.9v37C378.1,170.1,377.3,170.9,376.3,170.9z"/>
<g>
	<path class="st4" d="M361.1,267c-1.8,0-3.2-1.4-3.2-3.2v-11.7c0-1.8,1.4-3.2,3.2-3.2h54.2c1.8,0,3.2,1.4,3.2,3.2v11.7
		c0,1.8-1.4,3.2-3.2,3.2H361.1z"/>
	<path class="st4" d="M415.3,265h-54.2c-0.7,0-1.2-0.6-1.2-1.2v-11.7c0-0.7,0.6-1.2,1.2-1.2h54.2c0.7,0,1.2,0.6,1.2,1.2v11.7
		C416.5,264.5,416,265,415.3,265z"/>
	<path class="st4" d="M373.5,294.5c-2.4,0-4.3-1.9-4.3-4.3v-8.1c0-2.4,1.9-4.3,4.3-4.3h29.4c2.4,0,4.3,1.9,4.3,4.3v8.1
		c0,2.4-1.9,4.3-4.3,4.3H373.5z"/>
	<path class="st4" d="M402.9,292.5h-29.4c-1.3,0-2.3-1-2.3-2.3v-8.1c0-1.3,1-2.3,2.3-2.3h29.4c1.3,0,2.3,1,2.3,2.3v8.1
		C405.2,291.5,404.2,292.5,402.9,292.5z"/>
	<path class="st4" d="M361.1,323.8c-1.8,0-3.2-1.4-3.2-3.2v-11.7c0-1.8,1.4-3.2,3.2-3.2h54.2c1.8,0,3.2,1.4,3.2,3.2v11.7
		c0,1.8-1.4,3.2-3.2,3.2H361.1z"/>
	<path class="st4" d="M415.3,321.8h-54.2c-0.7,0-1.2-0.6-1.2-1.2v-11.7c0-0.7,0.6-1.2,1.2-1.2h54.2c0.7,0,1.2,0.6,1.2,1.2v11.7
		C416.5,321.2,416,321.8,415.3,321.8z"/>
</g>
<path class="st5" d="M172.8,430.3c-0.7,0-1.4,0-2-0.1c-7.2-0.6-13.8-4.5-19-11.2c-7.3-9.4-10.5-22.8-8.5-34.8
	c2.3-13.9,11.9-25.4,23.2-28.1c1.7-0.4,3.4-0.6,5.2-0.6c15,0,31.4,14.8,31.7,36.8c0.1,11.1-4.2,22.1-11.4,29.4
	C186.4,427.3,179.6,430.3,172.8,430.3C172.8,430.3,172.8,430.3,172.8,430.3z"/>
<path class="st5" d="M166.9,358.1c-10.6,2.5-19.5,13.5-21.7,26.5c-3.3,19.4,8.1,42.2,25.7,43.7c16.3,1.4,30.6-15.9,30.4-35.9
	C201,370.3,182.9,354.4,166.9,358.1z"/>
<path class="st6" d="M172.5,416.5c-0.4,0-0.8,0-1.2-0.1c-3.6-0.4-6.9-2.4-9.6-5.9c-4.5-5.8-6.6-14.8-5.4-22.9
	c1.3-8.9,6.5-16,12.7-17.7c1-0.3,2-0.4,2.9-0.4c8.3,0,17.2,9.3,17.3,23.2c0,7.6-2.6,14.9-7.2,19.5
	C179.2,415,175.9,416.5,172.5,416.5L172.5,416.5z"/>
<path class="st6" d="M169.5,371.8c-5.5,1.5-10.1,8.2-11.3,16.1c-1.8,11.8,4.2,25.6,13.2,26.6c8.4,0.9,15.8-9.7,15.7-21.8
	C187.2,379.2,177.8,369.6,169.5,371.8z"/>
</svg>
