<?xml version="1.0" encoding="utf-8"?>
<!-- Generator: Adobe Illustrator 26.1.0, SVG Export Plug-In . SVG Version: 6.00 Build 0)  -->
<svg version="1.1" id="Layer_1" xmlns="http://www.w3.org/2000/svg" xmlns:xlink="http://www.w3.org/1999/xlink" x="0px" y="0px"
	 viewBox="0 0 566.9 566.9" style="enable-background:new 0 0 566.9 566.9;" xml:space="preserve">
<style type="text/css">
	.st0{fill:none;stroke:#61BB46;stroke-miterlimit:10;}
	.st1{fill:none;stroke:#8E3293;stroke-miterlimit:10;}
	.st2{fill:none;stroke:#5CBA47;stroke-miterlimit:10;}
	.st3{fill:none;stroke:#414DA1;stroke-miterlimit:10;}
	.st4{fill:none;stroke:#C057A1;stroke-miterlimit:10;}
	.st5{fill:none;stroke:#C058A1;stroke-miterlimit:10;}
</style>
<path class="st0" d="M109.3,350.8c-3.7,0-7.3-1.5-9.9-4.1c-2.7-2.6-4.1-6.2-4.1-9.9v-67c0-7.7,6.3-14,14-14l10,0
	c3.8,0,7.3,1.5,9.9,4.1c2.2,2.2,3.6,5,4,8.1l15.9-9.9c2.2-1.4,4.8-2.1,7.4-2.1c4.6,0,8.9,2.2,11.5,6l5.7,8.2c2.2,3.1,3,7.1,2.2,10.9
	c-0.8,3.8-3.1,7.1-6.3,9.1l-19.8,12.3l20.2,15c3.1,2.3,5,5.6,5.5,9.4c0.5,3.8-0.5,7.5-2.8,10.5l-6.1,7.8c-2.7,3.4-6.7,5.4-11.1,5.4
	c-3,0-5.9-1-8.4-2.8l-14-10.4c-0.4,7.2-6.2,13-13.5,13.2l-10.3,0.3H109.3z"/>
<path class="st0" d="M109.3,340.8c-1.1,0-2.1-0.4-2.9-1.2c-0.8-0.8-1.2-1.8-1.2-2.9v-67c0-2.3,1.8-4.1,4.1-4.1l10,0
	c1.1,0,2.1,0.4,2.9,1.2c0.8,0.8,1.2,1.8,1.2,2.9l-0.1,15.7c0.1,0.1,0.1,0.1,0.1,0.1l30.9-19.2c0.7-0.4,1.4-0.6,2.2-0.6
	c1.3,0,2.6,0.7,3.4,1.8l5.7,8.2c0.6,0.9,0.9,2.1,0.7,3.2s-0.9,2.1-1.9,2.7l-32,19.8c0,0-0.1,0-0.1,0.1c0,0.1,0,0.1,0.1,0.1
	l31.7,23.6c0.9,0.7,1.5,1.6,1.6,2.7c0.1,1.1-0.1,2.2-0.8,3.1l-6.1,7.8c-0.8,1-2,1.6-3.2,1.6c-0.9,0-1.7-0.3-2.4-0.8l-29.6-22
	c0,0-0.1,0-0.1,0c-0.1,0-0.1,0-0.1,0.1v18.7c0,2.2-1.7,4-4,4.1L109.3,340.8z"/>
<path class="st1" d="M244,201c-5.9,0-11-3.8-12.7-9.4l-4.4-14.3l-3.2,12.6c-1.5,5.9-6.7,10-12.8,10l-10.6,0.1c-4.1,0-7.9-1.8-10.5-5
	c-2.5-3.2-3.5-7.3-2.5-11.3l16-68.1c1.4-6,6.7-10.2,12.9-10.2l19.4,0.1c5.9,0,11.2,4,12.8,9.7l18.9,68.1c1.1,3.8,0.4,7.9-1.9,11.1
	c-2.3,3.3-5.8,5.3-9.8,5.7l-10.5,0.9C244.8,200.9,244.4,201,244,201z"/>
<path class="st1" d="M244,191c-1.5,0-2.8-1-3.2-2.4L226,140.4l-11.9,47c-0.4,1.5-1.7,2.5-3.2,2.5l-10.6,0.1c-1.1,0-2-0.5-2.6-1.3
	c-0.6-0.8-0.9-1.8-0.6-2.9l16-68.1c0.4-1.5,1.7-2.6,3.3-2.6l19.3,0.1c1.5,0,2.8,1,3.2,2.5l18.9,68.1c0.3,1,0.1,2-0.5,2.8
	c-0.6,0.8-1.5,1.3-2.5,1.4l-10.5,0.9C244.2,191,244.1,191,244,191z"/>
<path class="st2" d="M294,351c-3.7,0-7.2-1.5-9.9-4.1c-2.6-2.7-4.1-6.2-4.1-9.9l0.1-19.9c-0.7,0.1-1.4,0.2-2.2,0.2
	c-0.8,0-1.6-0.1-2.4-0.2l0,20c0,7.7-6.2,13.9-13.9,13.9l-10.2,0c-7.7,0-13.9-6.3-13.9-13.9v-66.8c0-7.7,6.2-13.9,13.9-13.9l11,0
	c4.1,0,8,1.8,10.6,4.9l4.7,5.5l4.3-5.3c2.6-3.3,6.6-5.1,10.8-5.1h11.2c7.7,0,13.9,6.2,13.9,13.9v66.8c0,7.7-6.2,13.9-13.9,13.9
	L294,351L294,351z"/>
<path class="st2" d="M294,341.1c-1.1,0-2.1-0.4-2.8-1.2c-0.8-0.8-1.2-1.8-1.2-2.8l0.2-40.8l-9.3,9.8c-0.8,0.8-1.8,1.3-2.9,1.3
	c-1.1,0-2.2-0.5-3-1.3l-9.3-10.3l-0.1,41.3c0,2.2-1.8,4-4,4l-10.2,0c-2.2,0-4-1.8-4-4v-66.8c0-2.2,1.8-4,4-4l11,0
	c1.2,0,2.3,0.5,3.1,1.4l12.4,14.6l11.9-14.6c0.8-0.9,1.9-1.5,3.1-1.5h11.2c2.2,0,4,1.8,4,4v66.8c0,2.2-1.8,4-4,4L294,341.1
	L294,341.1z"/>
<path class="st3" d="M446.2,204.2c-4.7,0-9-2.4-11.5-6.3l-5.8-9.2v1.9c0,7.5-6.1,13.6-13.6,13.6l-10.8,0c-7.5,0-13.6-6.1-13.6-13.6
	v-67.4c0-7.5,6.1-13.6,13.6-13.6l10.8,0c4.5,0,8.7,2.2,11.3,6l6.8,10l0-2.4c0-7.5,6.2-13.6,13.6-13.6l10.8,0
	c7.5,0,13.6,6.1,13.6,13.6v67.4c0,7.5-6.1,13.6-13.6,13.6L446.2,204.2L446.2,204.2z"/>
<path class="st3" d="M446.2,194.3c-1.3,0-2.4-0.6-3.1-1.7l-24.1-38v36.1c0,2-1.7,3.7-3.7,3.7l-10.8,0c-2,0-3.7-1.7-3.7-3.7v-67.4
	c0-2,1.7-3.7,3.7-3.7l10.8,0c1.2,0,2.4,0.6,3.1,1.6l24.8,36.4l0.2-34.3c0-2,1.7-3.7,3.7-3.7l10.8,0c2,0,3.7,1.7,3.7,3.7v67.4
	c0,2-1.7,3.7-3.7,3.7L446.2,194.3L446.2,194.3z"/>
<path class="st4" d="M386.8,335.4v-54c0-11.5,9.3-20.9,20.9-20.9h38.8c11.5,0,20.9,9.3,20.9,20.9v54c0,11.5-9.3,20.9-20.9,20.9
	h-38.8C396.1,356.2,386.8,346.9,386.8,335.4z"/>
<path class="st4" d="M399.9,288.5c-1.8,0-3.2-1.4-3.2-3.2v-11.7c0-1.8,1.4-3.2,3.2-3.2h54.2c1.8,0,3.2,1.4,3.2,3.2v11.7
	c0,1.8-1.4,3.2-3.2,3.2H399.9z"/>
<path class="st4" d="M412.3,316c-2.4,0-4.3-1.9-4.3-4.3v-8.1c0-2.4,1.9-4.3,4.3-4.3h29.4c2.4,0,4.3,1.9,4.3,4.3v8.1
	c0,2.4-1.9,4.3-4.3,4.3H412.3z"/>
<path class="st4" d="M399.9,345.2c-1.8,0-3.2-1.4-3.2-3.2v-11.7c0-1.8,1.4-3.2,3.2-3.2h54.2c1.8,0,3.2,1.4,3.2,3.2V342
	c0,1.8-1.4,3.2-3.2,3.2H399.9z"/>
<path class="st5" d="M211.6,461.8c-1,0-1.9,0-2.9-0.1c-10.1-0.9-19.1-6-26-15c-8.9-11.5-12.9-27.8-10.4-42.6
	c3-18,15.4-32.5,30.7-36.1c2.5-0.6,5-0.9,7.5-0.9c19.8,0,41.2,18.7,41.6,46.6c0.1,13.7-5.2,27.3-14.3,36.5
	C230.4,457.7,221.1,461.8,211.6,461.8z"/>
<path class="st5" d="M211.6,451.8c-0.7,0-1.4,0-2-0.1c-7.2-0.6-13.8-4.5-19-11.2c-7.3-9.4-10.5-22.8-8.5-34.8
	c2.3-13.9,11.9-25.4,23.2-28.1c1.7-0.4,3.4-0.6,5.2-0.6c15,0,31.4,14.8,31.7,36.8c0.1,11.1-4.2,22.1-11.4,29.4
	C225.3,448.8,218.5,451.8,211.6,451.8C211.6,451.8,211.6,451.8,211.6,451.8z"/>
</svg>
