<?xml version="1.0" encoding="utf-8"?>
<!-- Generator: Adobe Illustrator 26.0.3, SVG Export Plug-In . SVG Version: 6.00 Build 0)  -->
<svg version="1.1" id="Layer_1" xmlns="http://www.w3.org/2000/svg" xmlns:xlink="http://www.w3.org/1999/xlink" x="0px" y="0px"
	 viewBox="0 0 566.9 566.9" style="enable-background:new 0 0 566.9 566.9;" xml:space="preserve">
<style type="text/css">
	.st0{fill:none;stroke:#C057A1;stroke-miterlimit:10;}
</style>
<path class="st0" d="M256.2,264.2c-1.8,0-3.2-1.4-3.2-3.2v-11.7c0-1.8,1.4-3.2,3.2-3.2h54.2c1.8,0,3.2,1.4,3.2,3.2V261
	c0,1.8-1.4,3.2-3.2,3.2H256.2z"/>
<path class="st0" d="M310.4,262.2h-54.2c-0.7,0-1.2-0.6-1.2-1.2v-11.7c0-0.7,0.6-1.2,1.2-1.2h54.2c0.7,0,1.2,0.6,1.2,1.2V261
	C311.6,261.7,311.1,262.2,310.4,262.2z"/>
<path class="st0" d="M268.6,291.7c-2.4,0-4.3-1.9-4.3-4.3v-8.1c0-2.4,1.9-4.3,4.3-4.3H298c2.4,0,4.3,1.9,4.3,4.3v8.1
	c0,2.4-1.9,4.3-4.3,4.3H268.6z"/>
<path class="st0" d="M298,289.7h-29.4c-1.3,0-2.3-1-2.3-2.3v-8.1c0-1.3,1-2.3,2.3-2.3H298c1.3,0,2.3,1,2.3,2.3v8.1
	C300.3,288.7,299.3,289.7,298,289.7z"/>
<path class="st0" d="M256.2,321c-1.8,0-3.2-1.4-3.2-3.2v-11.7c0-1.8,1.4-3.2,3.2-3.2h54.2c1.8,0,3.2,1.4,3.2,3.2v11.7
	c0,1.8-1.4,3.2-3.2,3.2H256.2z"/>
<path class="st0" d="M310.4,319h-54.2c-0.7,0-1.2-0.6-1.2-1.2v-11.7c0-0.7,0.6-1.2,1.2-1.2h54.2c0.7,0,1.2,0.6,1.2,1.2v11.7
	C311.6,318.4,311.1,319,310.4,319z"/>
</svg>
