<?xml version="1.0" encoding="utf-8"?>
<!-- Generator: Adobe Illustrator 26.0.3, SVG Export Plug-In . SVG Version: 6.00 Build 0)  -->
<svg version="1.1" id="Layer_1" xmlns="http://www.w3.org/2000/svg" xmlns:xlink="http://www.w3.org/1999/xlink" x="0px" y="0px"
	 viewBox="0 0 566.9 566.9" style="enable-background:new 0 0 566.9 566.9;" xml:space="preserve">
<style type="text/css">
	.st0{fill:none;stroke:#C057A1;stroke-miterlimit:10;}
</style>
<path class="st0" d="M260.5,334.7c-14.2,0-25.8-11.6-25.8-25.8v-50c0-14.2,11.6-25.8,25.8-25.8h44.3c14.2,0,25.8,11.6,25.8,25.8v50
	c0,14.2-11.6,25.8-25.8,25.8H260.5z"/>
<path class="st0" d="M243.6,308.9v-50c0-9.3,7.5-16.9,16.9-16.9h44.3c9.3,0,16.9,7.5,16.9,16.9v50c0,9.3-7.5,16.9-16.9,16.9h-44.3
	C251.2,325.7,243.6,318.2,243.6,308.9z"/>
</svg>
