<?xml version="1.0" encoding="utf-8"?>
<!-- Generator: Adobe Illustrator 26.1.0, SVG Export Plug-In . SVG Version: 6.00 Build 0)  -->
<svg version="1.1" id="Layer_1" xmlns="http://www.w3.org/2000/svg" xmlns:xlink="http://www.w3.org/1999/xlink" x="0px" y="0px"
	 viewBox="0 0 566.9 566.9" style="enable-background:new 0 0 566.9 566.9;" xml:space="preserve">
<style type="text/css">
	.st0{fill:none;stroke:#BF1F3F;stroke-miterlimit:10;}
	.st1{fill:none;stroke:#5ECAE7;stroke-miterlimit:10;}
	.st2{fill:none;stroke:#DD9A34;stroke-miterlimit:10;}
	.st3{fill:none;stroke:#3D52A4;stroke-miterlimit:10;}
	.st4{fill:none;stroke:#414DA1;stroke-miterlimit:10;}
	.st5{fill:none;stroke:#4552A3;stroke-miterlimit:10;}
	.st6{fill:none;stroke:#3D002E;stroke-miterlimit:10;}
	.st7{fill:none;stroke:#2F429B;stroke-miterlimit:10;}
	.st8{fill:none;stroke:#3B002D;stroke-miterlimit:10;}
</style>
<path class="st0" d="M271.3,499.5c-3.9,0-4.1,0-4.8-0.1c-1.4-0.2-8.4-1.5-8.9-10.7c-0.1-1-0.1-2.3-0.1-4c0-2,0-4.4,0-6.7
	c-10.7-2.1-17.4-7.9-20-17.2c-2.3-8.2-0.7-32.4,5.4-46.7l2.9-6.7l16.9,1.7l0.3,0c2.2,0.3,4.2,1.3,5.8,2.8c0.3,0,0.6,0,0.9-0.1
	c1.8-0.1,3.9-0.2,5.9-0.2c1.3,0,2.6,0,3.8,0.1c1.3-1.2,2.9-2,4.7-2.5c1.6-0.4,8.5-1.6,11.5-1.6c5.5,0,8.1,3.4,9,4.9
	c8.1,13.3,10.4,37.1,7.1,48.7c-3.4,11.6-12.7,15.6-20.6,17c0,2.2,0.1,4.5,0,6.5c0,1.8-0.1,3.1-0.2,4.2c-0.8,9.2-7.9,10.3-9.4,10.5
	l-0.4,0l-0.5,0C280.7,499.5,275.1,499.5,271.3,499.5z"/>
<path class="st0" d="M280.7,489.5c0,0-12.5,0-12.9,0c-0.7-0.1,0-20.5-0.2-20.5c-7.8,0-17.8-1.1-20.4-10.8
	c-1.6-5.9-0.3-27.9,4.9-40.1l9.3,0.9c0.5,0.1,1,0.5,1,1c-7.2,42.5-5.7,38.9,5.9,38.1c1-0.1-1-27.2-0.4-35.9c0-0.5,13-0.9,12.9,0
	c-0.2,4.2,0,35.9,0.4,35.9c11.3,0.4,14,2.8,4.8-38.1c-0.1-0.5,0-0.9,0.4-1c1.9-0.5,9.5-1.6,9.7-1.3c6.6,10.8,8.7,31.5,6,40.7
	c-2.5,8.5-10.2,10.5-21,10.5C280.7,469,281.7,489.4,280.7,489.5z"/>
<g>
	<path class="st1" d="M332.5,329.8c-8.8,0-12-0.8-14.7-3.7c-3-3.2-2.9-6.7-2.8-11.1c0-1.5,0.1-3.3,0.1-5.1c-6-2-11-5.7-14.8-11.2
		c-3.2-4.6-6.8-12.9-7.1-22.4c-0.3-9.7,3.1-18.6,9.6-24.9c3.4-3.3,8.1-5,12.8-5.9l0.9-1.4c3.2-5.2,8.3-5.2,16.7-5.2
		c1.6,0,2.9,0,4,0.1c5.4,0.5,8,3.3,9.2,5.7c10.1,1.6,17.8,8,21.1,17.8c4,11.8,2.9,24.3-3,33.6c-3,4.7-8.3,10.3-17.3,13.4
		c0.3,10.5-0.1,11.7-0.7,13.3C343.8,329.8,336.5,329.8,332.5,329.8z"/>
	<path class="st1" d="M337.4,254.7c0,0,15.8-3.3,20.7,11.1c5,14.8,0.2,33.5-21.2,35.8c0,0,0.8,16.3,0.3,17.6c-0.4,1-11.6,0.5-12,0
		c-0.5-0.5,0.2-12.8,0.3-17.6c0-0.6-9.9,1.2-16.9-8.8c-2.1-3-5-9.4-5.3-16.9c-0.2-6.4,1.7-12.7,6.6-17.4c4.2-4.1,15.3-3.7,15.3-3.7
		s-0.2-4.3-0.1-5.4c0.2-0.3,12.5-0.9,12.6,0C337.6,250.1,337.4,254.7,337.4,254.7z"/>
</g>
<path class="st2" d="M459.6,482.8c-6.8,0-11.9-0.2-15.5-2.1c-3.6,1.9-8.3,1.9-12.6,1.9c-4.8,0-11-0.3-16.2-0.7
	c-2.1-0.2-9-1.5-10-11.4c-0.2-2.2-0.2-5,0-7.7c0.2-2.1,0.5-6.7,3.6-9.8c-2-4.9-3.6-11.5-3.4-20.2c0.5-20.4,10.7-30,18.4-35.5
	c6.6-4.7,15.2-5.4,19.8-5.4c3.9,0,13.6,0.5,20.4,5.4c7.9,5.7,18.3,15.7,17.9,36.1c-0.2,8.1-1.6,14.3-3.3,19c1.8,1.6,3.3,4.2,3.8,8.3
	c0.2,2.2,0.3,5.3,0.1,8.2c-0.2,3.1-0.8,11.2-8.6,13C470.1,482.7,461.4,482.8,459.6,482.8z M444.2,424.4c-1.8,0-3.4,0.7-4.1,1.5
	c-3.2,3.3-2,11.6,3.1,21.6c0.2,0.3,0.4,0.7,0.7,1.2c0.3-0.4,0.6-0.8,0.9-1.5c5.9-10.7,3.6-20.1,2.4-21.6
	C446.5,424.6,445.2,424.4,444.2,424.4z"/>
<path class="st2" d="M439.5,471.7c-0.5,1.3-14.5,0.9-23.4,0.2c-1.5-0.1-1-11.6-0.1-11.8c1.2-0.3,9.4-0.2,11.7-0.2
	c0.1,0,0.2-0.2,0-0.2c-1.2-0.5-3.8-2-5.3-3.5c-3-3-7.3-10.2-7-23.1c0.3-14.9,6.6-22.2,14.2-27.6c7.2-5.1,22.6-4.2,28.4,0
	c8.1,5.8,14,13.5,13.8,27.8c-0.3,12.5-3.9,19.6-6.6,22.8c-2,2.4-4.7,3-6.1,3.5c-0.1,0,0,0.1,0,0.1c1.9,0,10.2,0.4,12.5,0.1
	c1.4-0.1,0.9,12.1,0,12.3c-3.3,0.7-21.9,1.1-23-0.5c-1.6-2.5-0.9-9.6-0.6-11.4c0.6-3.4,2.5-2.9,5.5-8.3c7.6-13.7,5.6-28.1,1.2-33.1
	c-5.8-6.6-16.7-5.4-21.9,0c-6.2,6.4-6.4,17.9,1.3,33.1c1.8,3.5,4.7,5.8,5.3,8.6C439.7,461.5,440.8,468.6,439.5,471.7z"/>
<path class="st3" d="M91.6,133.4C86,133.4,80,129,80,120.7l-0.1-44.3l-8.1,0l0.2,44.1c0,10.2-7.4,12.8-11.3,12.8H49.5
	c-6.7,0-12.2-5.7-12.2-12.8V55.5c0-7.2,5.5-13,12.3-13H102c6.6,0,12,5.6,12,12.6v65.3c0,7.2-5.5,13-12.3,13L91.6,133.4L91.6,133.4z"
	/>
<path class="st3" d="M60.7,123.4H49.5c-1.2,0-2.2-1.2-2.2-2.8V55.5c0-1.7,1-3,2.3-3H102c1.1,0,2,1.2,2,2.6v65.3c0,1.6-1,3-2.3,3
	l-10.1,0c-1.1,0-1.6-1.3-1.6-2.7l-0.2-52.1c0-1.4-0.6-2.1-1.7-2.1l-25.2,0c-1.1,0-1.2,1.2-1.2,2.6l0.3,51.6
	C62,122,61.8,123.4,60.7,123.4z"/>
<path class="st4" d="M44.7,328.5l-10.1-0.3c-6.8-0.1-12.6-5.7-12.6-12.4v-66.3c0-6.3,4.9-11.4,11.1-11.7c6.6-0.5,12.3-0.8,17.3-0.8
	c4.8,0,9.1,0.2,13.2,0.7c9.4,1.1,16.6,6.9,20.1,11.9c3.2,4.5,5.4,9.3,5.8,18.4c0.3,7.6-2.3,14.7-7.8,21c-5.3,6.1-12.3,9.7-19.2,9.7
	c-1.6,0-3.2,0-4.7,0c-0.3,0-0.5,0-0.8,0l0,17.1c0.1,3.4-1.1,6.6-3.3,8.9c-2.2,2.3-5.3,3.6-8.6,3.6L44.7,328.5z"/>
<path class="st4" d="M45,318.5l-10.2-0.3c-1.3,0-2.8-1-2.8-2.4v-66.3c0-1,0.8-1.7,1.7-1.7c12.4-1,21.2-1,28.7-0.1
	c6.7,0.8,11.3,5.2,13.1,7.7c2.1,3,3.6,6.1,3.9,13.1c0.3,6.2-2.6,10.8-5.4,14c-2.9,3.3-7.2,6.3-11.8,6.3c-7.6,0.1-15.4-0.1-15.4-0.1
	l0,27.4C47,317.7,46.3,318.5,45,318.5z"/>
<path class="st4" d="M58.8,289.6c-11.8,0-21.4-9.6-21.4-21.4s9.6-21.4,21.4-21.4s21.4,9.6,21.4,21.4S70.6,289.6,58.8,289.6z"/>
<circle class="st4" cx="58.8" cy="268.2" r="11.4"/>
<path class="st5" d="M229,138.5c-4.1,0-7.8-2.4-9.6-6.3c-2.1-4.5-2.4-19.2,2.1-24.4c1.3-1.6,2.8-3.3,4.2-5c3.6-4.3,6.7-7.9,9.2-10.7
	c-2.4-2.1-5.1-4.6-8-7.3c-1.1-1-2.3-2.1-3.4-3.1c-3-2.8-4.2-6.6-4.3-14.3c-0.1-3.8,0.1-9,1.5-12.5c2.1-5.4,6.6-7.3,10.1-7.3
	c8.1,0,15.7,0,22.6,0c8.5,0,29.6,0,29.6,0c4.3,0,8.2,2.4,10.5,6.3c3.4,5.9,3.4,15.7,0.1,21.4c-2.3,4-6.2,6.3-10.6,6.3
	c0,0-0.3,0-0.3,0c-1.8,0-4.4-0.1-7.7-0.1c2.2,2.6,3.2,5,3.1,8.2c-0.1,2.6-0.2,4.8-7.9,14.1c4.8,0,9.5,0.2,14,0.3
	c3.5,0.1,11.7,2.3,11.4,18.7c-0.3,14.7-10.2,15.5-12.2,15.5C283.6,138.5,229,138.5,229,138.5z"/>
<path class="st5" d="M283.2,57.6c-7.8,0-27.9,0-52.2,0c-2.2,0-2,15.4-0.5,16.7c6.3,5.8,13.3,12.4,16.8,14.8c1.8,1.2,1.6,3.5-0.1,4.9
	c-3.9,3.2-11.8,13-18,20.2c-1.2,1.4-1.8,14.2-0.2,14.2c9.9,0,32.9,0,54.6,0c3.5,0,2.2-14.1,0.4-14.2c-14.8-0.6-28.1-0.3-33.5-0.1
	c-1,0-1.5-1.1-0.8-1.8c5-5.4,18.6-20.4,18.7-23c0.1-1.5-11.9-11.4-17.1-15.6c-0.8-0.6-0.3-1.9,0.7-1.9c6.9-0.1,24-0.2,31.2-0.1
	C287.4,71.8,287.1,57.6,283.2,57.6z"/>
<path class="st6" d="M186.7,329.8c-6.6,0-12.1-5.4-12.2-12l-0.5-44.6h-9.2c-6.7,0-12.2-5.5-12.2-12.2v-9.8c0-6.7,5.5-12.2,12.2-12.2
	h52.3c6.7,0,12.2,5.5,12.2,12.2v9.8c0,6.7-5.5,12.2-12.2,12.2l-9.1,0l0.1,44.5c0,3.3-1.3,6.3-3.6,8.6c-2.3,2.3-5.4,3.6-8.6,3.6
	H186.7z"/>
<path class="st6" d="M162.6,260.9v-9.8c0-1.2,1-2.2,2.2-2.2h52.3c1.2,0,2.2,1,2.2,2.2v9.8c0,1.2-1,2.2-2.2,2.2l-16.9,0
	c-1.2,0-2.2,1-2.2,2.2l0.1,52.3c0,1.2-1,2.2-2.2,2.2h-9.1c-1.2,0-2.2-1-2.2-2.2l-0.6-52.3c0-1.2-1-2.2-2.2-2.2h-16.9
	C163.6,263.1,162.6,262.1,162.6,260.9z"/>
<path class="st7" d="M439.7,133.5c-7.2,0-13-5.9-13-13V88.9L409,70.6c-4.9-5-4.9-12.9-0.1-18l5.6-6c2.5-2.6,5.9-4.1,9.5-4.1
	c3.5,0,7,1.5,9.4,4l10.4,10.9l10.5-10.8c2.4-2.5,5.9-4,9.4-4c3.5,0,6.8,1.4,9.3,3.9l5.7,5.8c5,5.1,5,13.3,0,18.4l-17.8,17.9v31.9
	c0,7.2-5.8,13-13,13L439.7,133.5L439.7,133.5z"/>
<path class="st7" d="M416.1,59.4l5.6-6c1.2-1.3,3.2-1.3,4.4,0l15.4,16.2c1.2,1.2,3.2,1.3,4.4,0l15.5-16c1.2-1.2,3.1-1.2,4.3,0
	l5.7,5.8c1.2,1.2,1.2,3.1,0,4.3l-19.8,19.9c-0.6,0.6-0.9,1.3-0.9,2.1v34.7c0,1.7-1.4,3-3,3l-8.1,0c-1.7,0-3-1.4-3-3V86.1
	c0-0.8-0.3-1.5-0.9-2.1l-19.7-20.4C415,62.4,415,60.6,416.1,59.4z"/>
<path class="st8" d="M138,499.4c-4.2,0-8.2-2.1-10.6-5.5l-7.3-10.4l-7.2,9.9c-2.4,3.3-6.4,5.3-10.5,5.3c-2.9,0-5.7-1-8-2.7l-6.3-4.9
	c-5.5-4.3-6.7-12.1-2.6-17.8l13.8-19.4l-14.5-20.8c-4-5.8-2.7-13.6,2.9-17.8l6.4-4.7c2.3-1.7,4.9-2.6,7.8-2.6
	c4.2,0,8.2,2.1,10.6,5.5l8,11.4l7.9-10.8c2.4-3.4,6.4-5.4,10.5-5.4c2.7,0,5.3,0.8,7.5,2.4l6.7,4.7c2.8,2,4.7,5,5.3,8.5
	c0.6,3.5-0.3,6.9-2.3,9.7l-14.7,20.2l13.8,19.4c4,5.6,2.9,13.4-2.4,17.7l-6.5,5.2C143.8,498.4,140.9,499.4,138,499.4z"/>
<path class="st8" d="M93.6,423.2l6.4-4.8c1.4-1,3.3-0.7,4.2,0.7l13.6,19.4c1.2,1.7,3.7,1.7,4.9,0l13.6-18.7c1-1.3,2.8-1.6,4.2-0.7
	l6.7,4.7c1.4,1,1.7,2.9,0.7,4.2l-17.7,24.3c-0.8,1-0.8,2.5,0,3.5l16.7,23.5c0.9,1.3,0.7,3.1-0.6,4.1l-6.5,5.2
	c-1.4,1.1-3.3,0.8-4.3-0.6l-12.9-18.4c-1.2-1.7-3.7-1.7-4.9,0l-13,17.8c-1,1.4-2.9,1.6-4.3,0.6l-6.3-4.9c-1.3-1-1.5-2.8-0.6-4.1
	l16.7-23.4c0.7-1,0.7-2.4,0-3.4L93,427.4C92,426,92.3,424.2,93.6,423.2z"/>
</svg>
