<?xml version="1.0" encoding="utf-8"?>
<!-- Generator: Adobe Illustrator 26.1.0, SVG Export Plug-In . SVG Version: 6.00 Build 0)  -->
<svg version="1.1" id="Layer_1" xmlns="http://www.w3.org/2000/svg" xmlns:xlink="http://www.w3.org/1999/xlink" x="0px" y="0px"
	 viewBox="0 0 566.9 566.9" style="enable-background:new 0 0 566.9 566.9;" xml:space="preserve">
<style type="text/css">
	.st0{fill:none;stroke:#BF1F3F;stroke-miterlimit:10;}
	.st1{fill:none;stroke:#5ECAE7;stroke-miterlimit:10;}
	.st2{fill:none;stroke:#DD9A34;stroke-miterlimit:10;}
	.st3{fill:none;stroke:#3D52A4;stroke-miterlimit:10;}
	.st4{fill:none;stroke:#414DA1;stroke-miterlimit:10;}
	.st5{fill:none;stroke:#4552A3;stroke-miterlimit:10;}
	.st6{fill:none;stroke:#3D002E;stroke-miterlimit:10;}
	.st7{fill:none;stroke:#2F429B;stroke-miterlimit:10;}
	.st8{fill:none;stroke:#3B002D;stroke-miterlimit:10;}
</style>
<path class="st0" d="M302.3,504c-3.5,0-3.6,0-3.8,0c-2-0.3-2-2-2.1-6.7c0-2.8,0-6.2,0.1-9.2c0-1.6,0.1-3.3,0.1-4.5
	c-6.1-0.1-17.4-1.3-20.4-12.2c-1.7-6.1-0.4-28.6,5-41.4l0.6-1.3l10.9,1.1c0.8,0.1,1.6,0.6,2.1,1.3c0.4,0.6,0.6,1.3,0.5,2
	c-3.5,20.8-5.5,33.5-3.6,35.8c0.1,0.1,0.4,0.5,1.9,0.5c0.8,0,1.8-0.1,3-0.2c0.3,0,0.6-0.1,1-0.1c0.1-2.6-0.2-8.5-0.4-13.4
	c-0.3-7.7-0.6-16.5-0.3-20.8c0.1-1.9,2-2.1,4.4-2.2c1.6-0.1,3.6-0.2,5.4-0.2c5.1,0,5.9,0.4,6.5,1.1l0.6,0.6l0,0.9
	c-0.2,3.9,0,27.6,0.2,33.9c0.9,0,1.8,0.1,2.6,0.1c2.2,0,2.8-0.4,3.1-0.8c2.1-2.6-0.1-14.8-4.7-35.1c-0.4-1.9,0.7-3,1.9-3.3
	c1.6-0.4,7.7-1.4,9.7-1.4c0.4,0,1.5,0,2.2,1c6.7,11.1,9.1,32.6,6.3,42.3c-2.8,9.8-12,11.7-21,11.9c0,1.2,0,2.9,0.1,4.5
	c0.1,3,0.1,6.5,0.1,9.3c0,4.2-0.1,6.5-2.3,6.7l-0.1,0h-0.1C311.7,504,306.1,504,302.3,504z"/>
<path class="st0" d="M311.7,502c0,0-12.5,0-12.9,0c-0.7-0.1,0-20.5-0.2-20.5c-7.8,0-17.8-1.1-20.4-10.8c-1.6-5.9-0.3-27.9,4.9-40.1
	l9.3,0.9c0.5,0.1,1,0.5,1,1c-7.2,42.5-5.7,38.9,5.9,38.1c1-0.1-1-27.2-0.4-35.9c0-0.5,13-0.9,12.9,0c-0.2,4.2,0,35.9,0.4,35.9
	c11.3,0.4,14,2.8,4.8-38.1c-0.1-0.5,0-0.9,0.4-1c1.9-0.5,9.5-1.6,9.7-1.3c6.6,10.8,8.7,31.5,6,40.7c-2.5,8.5-10.2,10.5-21,10.5
	C311.7,481.6,312.7,501.9,311.7,502z"/>
<g>
	<path class="st1" d="M363.5,334.3c-7.7,0-8.5-0.8-8.8-1.2c-0.8-0.8-0.9-0.9-0.4-13.4c0-1.4,0.1-2.7,0.1-3.8
		c-3.4-0.3-10.9-1.4-16.5-9.4c-2.4-3.5-5.4-10.2-5.6-18c-0.2-7.5,2.3-14.2,7.2-18.9c3.5-3.4,10.6-4.2,14.6-4.3c0-1.3-0.1-2.9,0-3.6
		l0-0.5l0.3-0.4c0.5-0.8,0.9-1.4,9.9-1.4c3.5,0,6.2,0,6.3,2.4c0,0.5,0,1.9-0.1,3.2c0.5,0,1.2-0.1,1.8-0.1c5.4,0,14.9,1.7,18.7,12.7
		c3.2,9.5,2.4,19.5-2.2,26.7c-4,6.2-10.4,10.1-18.8,11.5c0.7,15,0.2,16.2,0.1,16.6C369.4,333.9,368,334.3,363.5,334.3z"/>
	<path class="st1" d="M368.3,267.3c0,0,15.8-3.3,20.7,11.1c5,14.8,0.2,33.5-21.2,35.8c0,0,0.8,16.3,0.3,17.6c-0.4,1-11.6,0.5-12,0
		c-0.5-0.5,0.2-12.8,0.3-17.6c0-0.6-9.9,1.2-16.9-8.8c-2.1-3-5-9.4-5.3-16.9c-0.2-6.4,1.7-12.7,6.6-17.4c4.2-4.1,15.3-3.7,15.3-3.7
		s-0.2-4.3-0.1-5.4c0.2-0.3,12.5-0.9,12.6,0C368.6,262.6,368.3,267.3,368.3,267.3z"/>
	<path class="st1" d="M355,304.9c-1.6-0.1-4.1-0.9-6.8-3.8c-2.5-2.7-3.8-6.4-3.6-10.6c0.2-4.3,2-8.5,4.5-10.8c2.5-2.2,4.6-2.8,6-2.9
		c0.1,0,0.2,0,0.3,0c0.9,0,1.7,0.4,2.4,1c0.7,0.7,1.1,1.7,1.1,2.7l-0.1,20.6c0,2-1.6,3.7-3.4,3.7L355,304.9z"/>
	<path class="st1" d="M356.7,301.3l0.1-20.6c0-1-0.7-1.8-1.6-1.7c-1.2,0.1-2.9,0.7-4.9,2.4c-3.8,3.4-6,12.9-0.8,18.5
		c2.3,2.4,4.3,3.1,5.6,3.2C356,303,356.7,302.2,356.7,301.3z"/>
	<path class="st1" d="M369.8,305c-1.9,0-3.4-1.7-3.4-3.8v-20.3c0-2.1,1.5-3.8,3.4-3.8l0.2,0c1.6,0.1,4,0.7,6.3,3.1
		c3.9,4,6,14.5,0.8,20.8c-2.5,3.1-5.3,3.8-7.2,4L369.8,305z"/>
	<path class="st1" d="M368.4,301.1v-20.3c0-1,0.7-1.9,1.5-1.8c1.3,0.1,3.2,0.6,5.1,2.5c3.3,3.3,5.2,12.7,0.7,18.2
		c-2.1,2.6-4.3,3.2-5.7,3.2C369.1,303,368.4,302.2,368.4,301.1z"/>
</g>
<path class="st2" d="M490.6,487.3c-11.3,0-12-1.1-12.6-2c-2.4-3.7-0.9-12.8-0.9-12.9c0.4-2.3,1.4-3.4,2.5-4.5c0.9-0.9,1.9-2,3.2-4.3
	c7.1-12.8,5.4-26.4,1.5-30.8c-2.2-2.5-5.4-3.8-9.1-3.8c-3.8,0-7.6,1.5-9.9,3.9c-5.9,6.1-5.3,17,1.7,30.8c0.7,1.3,1.6,2.5,2.4,3.6
	c1.3,1.8,2.6,3.4,3,5.5c0,0.1,1.5,8.3-0.1,12.2c-0.6,1.5-2.1,2.1-9.8,2.1c-4.6,0-10.5-0.3-15.6-0.7c-2.2-0.2-2.5-3-2.6-4.2
	c0-0.1-1-10.6,2.1-11.5c0.4-0.1,1-0.3,6-0.3c-0.1-0.1-0.2-0.2-0.3-0.3c-1.9-1.9-8-9.1-7.6-24.6c0.4-16.5,7.8-24,15-29.2
	c4.7-3.4,11.5-3.9,15.1-3.9c6.3,0,12.3,1.5,15.7,3.9c7,5,14.9,13,14.6,29.5c-0.3,14.6-5.1,21.6-7.1,24c-0.2,0.2-0.3,0.4-0.5,0.5
	c1.2,0,2.3,0,3.2,0c1.2,0,1.7,0,2-0.1l0.1,0l0.1,0c2.3,0,2.6,2.8,2.7,3.8c0,0.1,1.2,11.7-2.3,12.4
	C501.1,487,495.2,487.3,490.6,487.3z"/>
<path class="st2" d="M470.5,484.2c-0.5,1.3-14.5,0.9-23.4,0.2c-1.5-0.1-1-11.6-0.1-11.8c1.2-0.3,9.4-0.2,11.7-0.2
	c0.1,0,0.2-0.2,0-0.2c-1.2-0.5-3.8-2-5.3-3.5c-3-3-7.3-10.2-7-23.1c0.3-14.9,6.6-22.2,14.2-27.6c7.2-5.1,22.6-4.2,28.4,0
	c8.1,5.8,14,13.5,13.8,27.8c-0.3,12.5-3.9,19.6-6.6,22.8c-2,2.4-4.7,3-6.1,3.5c-0.1,0,0,0.1,0,0.1c1.9,0,10.2,0.4,12.5,0.1
	c1.4-0.1,0.9,12.1,0,12.3c-3.3,0.7-21.9,1.1-23-0.5c-1.6-2.5-0.9-9.6-0.6-11.4c0.6-3.4,2.5-2.9,5.5-8.3c7.6-13.7,5.6-28.1,1.2-33.1
	c-5.8-6.6-16.7-5.4-21.9,0c-6.2,6.4-6.4,17.9,1.3,33.1c1.8,3.5,4.7,5.8,5.3,8.6C470.7,474,471.8,481.1,470.5,484.2z"/>
<path class="st3" d="M122.5,137.9c-1.8,0-3.6-1.4-3.6-4.7l-0.2-52.1c0-0.1,0-0.1,0-0.2l-24.1,0c0,0.2,0,0.5,0,0.6l0.3,51.6
	c0,4.2-2.1,4.8-3.3,4.8H80.5c-2.3,0-4.1-2.1-4.1-4.7V68c0-2.7,1.9-5,4.3-5H133c2.2,0,4,2,4,4.6v65.3c0,2.7-1.9,5-4.3,5L122.5,137.9
	L122.5,137.9z"/>
<path class="st3" d="M91.7,135.9H80.5c-1.2,0-2.2-1.2-2.2-2.8V68c0-1.7,1-3,2.3-3H133c1.1,0,2,1.2,2,2.6v65.3c0,1.6-1,3-2.3,3
	l-10.1,0c-1.1,0-1.6-1.3-1.6-2.7l-0.2-52.1c0-1.4-0.6-2.1-1.7-2.1l-25.2,0c-1.1,0-1.2,1.2-1.2,2.6l0.3,51.6
	C93,134.6,92.8,135.9,91.7,135.9z"/>
<path class="st4" d="M65.8,332.7c-2.2,0-4.7-1.8-4.7-4.4v-66.3c0-2,1.6-3.7,3.6-3.7c6.5-0.5,12-0.8,16.8-0.8c4.4,0,8.4,0.2,12.2,0.7
	c6.8,0.8,12,5.1,14.5,8.6c2.5,3.5,4,7,4.3,14.2c0.2,5.5-1.7,10.6-5.9,15.4c-1.8,2.1-6.7,6.9-13.3,7c-1.5,0-3.1,0-4.6,0
	c-3.6,0-6.8,0-8.8-0.1l0,25.4c0.1,1.6-0.5,2.6-1.1,3.2c-0.5,0.5-1.4,1.1-2.8,1.1L65.8,332.7z"/>
<path class="st4" d="M76,331.1l-10.2-0.3c-1.3,0-2.8-1-2.8-2.4v-66.3c0-1,0.8-1.7,1.7-1.7c12.4-1,21.2-1,28.7-0.1
	c6.7,0.8,11.3,5.2,13.1,7.7c2.1,3,3.6,6.1,3.9,13.1c0.3,6.2-2.6,10.8-5.4,14c-2.9,3.3-7.2,6.3-11.8,6.3c-7.6,0.1-15.4-0.1-15.4-0.1
	l0,27.4C78,330.2,77.3,331.1,76,331.1z"/>
<circle class="st4" cx="89.8" cy="280.7" r="13.4"/>
<circle class="st4" cx="89.8" cy="280.7" r="11.4"/>
<path class="st5" d="M260,143c-0.5,0-1.6-0.2-2.3-1.6c-1.2-2.6-0.8-13.8,0.9-15.9c1.4-1.6,2.8-3.3,4.3-5
	c5.3-6.3,10.8-12.8,13.9-15.4c0.4-0.3,0.6-0.8,0.6-1.1c0-0.1-0.1-0.4-0.4-0.6c-3-2-8.1-6.8-13.6-11.9c-1.1-1-2.3-2.1-3.4-3.1
	c-2.4-2.2-2-14.8-0.8-18c0.7-1.9,2-2.2,2.6-2.2c8,0,15.5,0,22.3,0c8.6,0,29.9,0,29.9,0c0.8,0,2.4,0.3,3.5,2.3
	c1.9,3.4,2,10.1,0.1,13.4c-1.2,2-2.8,2.3-3.6,2.3h0c-2.2-0.1-5.4-0.1-9.5-0.1c-6.5,0-14.2,0.1-19.3,0.1c16,13.1,15.9,14.5,15.9,15.7
	c-0.1,1-0.2,3.5-17.8,22.7c3.4-0.1,8-0.2,13.5-0.2c6.2,0,12.3,0.1,18,0.4c3.7,0.2,3.8,8.8,3.7,10.6c-0.1,6.3-2.4,7.6-4.2,7.6H260z"
	/>
<path class="st5" d="M314.2,70.1c-7.8,0-27.9,0-52.2,0c-2.2,0-2,15.4-0.5,16.7c6.3,5.8,13.3,12.4,16.8,14.8c1.8,1.2,1.6,3.5-0.1,4.9
	c-3.9,3.2-11.8,13-18,20.2c-1.2,1.4-1.8,14.2-0.2,14.2c9.9,0,32.9,0,54.6,0c3.5,0,2.2-14.1,0.4-14.2c-14.8-0.6-28.1-0.3-33.5-0.1
	c-1,0-1.5-1.1-0.8-1.8c5-5.4,18.6-20.4,18.7-23c0.1-1.5-11.9-11.4-17.1-15.6c-0.8-0.6-0.3-1.9,0.7-1.9c6.9-0.1,24-0.2,31.2-0.1
	C318.4,84.3,318.1,70.1,314.2,70.1z"/>
<path class="st6" d="M217.7,334.3c-2.3,0-4.2-1.9-4.2-4.1l-0.6-52.3c0-0.1-0.1-0.2-0.2-0.2h-16.9c-2.3,0-4.2-1.9-4.2-4.2v-9.8
	c0-2.3,1.9-4.2,4.2-4.2h52.3c2.3,0,4.2,1.9,4.2,4.2v9.8c0,2.3-1.9,4.2-4.2,4.2l-16.9,0c-0.1,0-0.1,0-0.2,0.1c0,0-0.1,0.1-0.1,0.2
	l0.1,52.3c0,1.1-0.4,2.2-1.2,3c-0.8,0.8-1.8,1.2-3,1.2H217.7z"/>
<path class="st6" d="M193.6,273.4v-9.8c0-1.2,1-2.2,2.2-2.2h52.3c1.2,0,2.2,1,2.2,2.2v9.8c0,1.2-1,2.2-2.2,2.2l-16.9,0
	c-1.2,0-2.2,1-2.2,2.2l0.1,52.3c0,1.2-1,2.2-2.2,2.2h-9.1c-1.2,0-2.2-1-2.2-2.2l-0.6-52.3c0-1.2-1-2.2-2.2-2.2h-16.9
	C194.6,275.6,193.6,274.6,193.6,273.4z"/>
<path class="st7" d="M470.7,138c-2.8,0-5-2.3-5-5V98.6c0-0.3-0.1-0.5-0.3-0.7l-19.7-20.4c-1.9-1.9-1.9-5,0-6.9l5.6-6
	c0.9-1,2.3-1.6,3.7-1.6c1.4,0,2.7,0.6,3.6,1.6L474,80.7c0.3,0.3,0.6,0.3,0.8,0.3c0.2,0,0.5,0,0.8-0.3l15.5-16c1-1,2.2-1.5,3.6-1.5
	c1.4,0,2.6,0.5,3.6,1.5l5.7,5.8c1.9,2,1.9,5.1,0,7.1l-19.8,19.9c-0.2,0.2-0.3,0.5-0.3,0.7v34.7c0,2.8-2.3,5-5,5L470.7,138L470.7,138
	z"/>
<path class="st7" d="M447.1,71.9l5.6-6c1.2-1.3,3.2-1.3,4.4,0l15.4,16.2c1.2,1.2,3.2,1.3,4.4,0l15.5-16c1.2-1.2,3.1-1.2,4.3,0
	l5.7,5.8c1.2,1.2,1.2,3.1,0,4.3L482.8,96c-0.6,0.6-0.9,1.3-0.9,2.1v34.7c0,1.7-1.4,3-3,3l-8.1,0c-1.7,0-3-1.4-3-3V98.6
	c0-0.8-0.3-1.5-0.9-2.1l-19.7-20.4C446,75,446,73.1,447.1,71.9z"/>
<path class="st8" d="M168.9,503.9c-1.6,0-3.2-0.8-4.1-2.1L152,483.4c-0.3-0.4-0.6-0.4-0.8-0.4c-0.2,0-0.6,0.1-0.8,0.4l-13,17.8
	c-0.9,1.3-2.4,2-4,2c-1.1,0-2.2-0.4-3-1l-6.3-4.9c-2.1-1.6-2.6-4.6-1-6.8l16.7-23.4c0.2-0.3,0.2-0.8,0-1.2L122.3,441
	c-1.5-2.2-1.1-5.2,1.1-6.8l6.4-4.8c0.9-0.6,1.9-1,3-1c1.6,0,3.1,0.8,4.1,2.1l13.6,19.4c0.3,0.4,0.6,0.4,0.8,0.4
	c0.2,0,0.6-0.1,0.8-0.4l13.6-18.7c0.9-1.3,2.4-2.1,4-2.1c1,0,2,0.3,2.9,0.9l6.7,4.7c1.1,0.8,1.8,1.9,2,3.3c0.2,1.3-0.1,2.6-0.9,3.7
	l-17.7,24.3c-0.3,0.4-0.3,0.8,0,1.2l16.7,23.5c1.5,2.1,1.1,5.1-0.9,6.8l-6.5,5.2C171.2,503.5,170.1,503.9,168.9,503.9z"/>
<path class="st8" d="M124.6,435.8l6.4-4.8c1.4-1,3.3-0.7,4.2,0.7l13.6,19.4c1.2,1.7,3.7,1.7,4.9,0l13.6-18.7c1-1.3,2.8-1.6,4.2-0.7
	l6.7,4.7c1.4,1,1.7,2.9,0.7,4.2l-17.7,24.3c-0.8,1-0.8,2.5,0,3.5l16.7,23.5c0.9,1.3,0.7,3.1-0.6,4.1l-6.5,5.2
	c-1.4,1.1-3.3,0.8-4.3-0.6l-12.9-18.4c-1.2-1.7-3.7-1.7-4.9,0l-13,17.8c-1,1.4-2.9,1.6-4.3,0.6l-6.3-4.9c-1.3-1-1.5-2.8-0.6-4.1
	l16.7-23.4c0.7-1,0.7-2.4,0-3.4l-17.3-24.8C123,438.6,123.3,436.7,124.6,435.8z"/>
</svg>
