<?xml version="1.0" encoding="utf-8"?>
<!-- Generator: Adobe Illustrator 26.0.3, SVG Export Plug-In . SVG Version: 6.00 Build 0)  -->
<svg version="1.1" id="Layer_1" xmlns="http://www.w3.org/2000/svg" xmlns:xlink="http://www.w3.org/1999/xlink" x="0px" y="0px"
	 viewBox="0 0 566.9 566.9" style="enable-background:new 0 0 566.9 566.9;" xml:space="preserve">
<style type="text/css">
	.st0{fill:none;stroke:#F7EC13;stroke-miterlimit:10;}
</style>
<path class="st0" d="M143.4,477.6c-12.8,0-23.3-10.4-23.3-23.3V112.7c0-12.8,10.4-23.3,23.3-23.3h279.7c12.8,0,23.3,10.4,23.3,23.3
	v341.7c0,12.8-10.4,23.3-23.3,23.3H143.4z"/>
<path class="st0" d="M423.2,467.7H143.4c-7.4,0-13.3-6-13.3-13.3V112.7c0-7.4,6-13.3,13.3-13.3h279.7c7.4,0,13.3,6,13.3,13.3v341.7
	C436.5,461.7,430.5,467.7,423.2,467.7z"/>
</svg>
