<?xml version="1.0" encoding="utf-8"?>
<!-- Generator: Adobe Illustrator 26.2.1, SVG Export Plug-In . SVG Version: 6.00 Build 0)  -->
<svg version="1.1" id="Layer_1" xmlns="http://www.w3.org/2000/svg" xmlns:xlink="http://www.w3.org/1999/xlink" x="0px" y="0px"
	 viewBox="0 0 566.9 566.9" style="enable-background:new 0 0 566.9 566.9;" xml:space="preserve">
<style type="text/css">
	.st0{fill:none;stroke:#00AEEF;stroke-width:0.5669;stroke-miterlimit:10;}
</style>
<path class="st0" d="M269.5,420.4c-29,0-53.9-16.4-67.3-25.2l-2.1-1.4l0.9-57.6l3,1.9c9.3,6,40.6,17.9,64.6,18.5
	c1.5,0,3,0.1,4.4,0.1c27.5,0,30.2-7.7,30.2-26.6c0-18.9-3.1-26-36.1-26l-28.1,0.3l0.2-64.3l2,0c0.2,0,18.4,0.4,29,0.7
	c2,0.1,3.7,0.1,5.1,0.1c8.2,0,12.2-1,14.5-3.6c2.4-2.7,3.2-7.8,2.3-15.9c-0.5-4.9-2.8-7.9-12.5-7.9c-2.7,0-5.9,0.2-9.9,0.7l-0.1,0
	h-0.1c-20.3,0-50.2,11.7-61,19.4l-3.1,2.2l-0.5-65.6c0-0.8,0.4-1.5,1-2c14.4-10.5,45.9-21.3,73.7-21.3c24.2,0,44.2,6.8,57.9,19.7
	c12,11.4,18.7,27.1,18.7,44.4c0,27.3-16.2,49.4-44.6,61.3c33.4,8.7,54.7,34.8,54.7,67.7C366.5,380.2,336.5,420.4,269.5,420.4z"/>
<path class="st0" d="M202.9,339.9c10,6.4,41.4,18.2,65.7,18.8c32.2,0.8,36.7-6.9,36.7-28.5c0-19.8-4-28-38.1-28l-26.1,0.3l0.2-60.3
	c0,0,18.3,0.4,29,0.7c18.5,0.6,26.2-0.9,24.1-21.6c-0.9-9.1-8.2-11-24.6-8.9c-20.8,0-50.9,11.8-62.1,19.8c0,0-0.5-57.6-0.5-61.8
	c0-0.2,0.1-0.3,0.2-0.4c13.7-10,44.6-20.9,72.6-20.9c51.3,0,74.5,30.5,74.5,62.1c0,26.8-16,49.7-48.1,61.3v0.8
	c32.1,6.4,58.1,30.5,58.1,66.9c0,41.7-32.5,78.1-95,78.1c-29.3,0-54.5-17.2-67.4-25.6L202.9,339.9z"/>
</svg>
