<?xml version="1.0" encoding="utf-8"?>
<!-- Generator: Adobe Illustrator 26.2.1, SVG Export Plug-In . SVG Version: 6.00 Build 0)  -->
<svg version="1.1" id="Layer_1" xmlns="http://www.w3.org/2000/svg" xmlns:xlink="http://www.w3.org/1999/xlink" x="0px" y="0px"
	 viewBox="0 0 566.9 566.9" style="enable-background:new 0 0 566.9 566.9;" xml:space="preserve">
<style type="text/css">
	.st0{fill:none;stroke:#00AEEF;stroke-width:0.5669;stroke-miterlimit:10;}
</style>
<path class="st0" d="M269.5,426.9c-30.9,0-56.9-17.1-70.9-26.3h0c-3.2-2.1-5-5.6-5-9.4l0.8-51.7c0.1-6.6,7.4-10.5,12.9-6.9l0.2,0.1
	c9.1,5.8,39.3,16.9,61.3,17.5c1.5,0,2.9,0.1,4.2,0.1c11,0,18-1.4,20.6-4c2.2-2.2,3.1-6.8,3.1-16c0-8.8-0.9-12.9-3.3-15
	c-3.5-3-12.1-4.5-26.3-4.5l-23.8,0.2c-6,0.1-10.9-4.8-10.8-10.8l0.2-58c0-4.8,3.9-8.6,8.7-8.5h0c0.2,0,18.4,0.4,29.1,0.7
	c2,0.1,3.5,0.1,4.9,0.1c7.8,0,9.4-1.1,9.7-1.4c0.2-0.2,1.6-2.1,0.7-10.9c-0.1-0.7-0.2-1.1-0.3-1.2c-0.3-0.2-1.7-0.8-5.7-0.8
	c-2.4,0-5.4,0.2-9,0.7l-0.5,0.1h-0.5c-18.4,0-46.9,10.9-57.2,18.2h0c-5.6,4-13.4,0-13.4-6.9l-0.5-61.8c0-2.9,1.4-5.6,3.7-7.3
	c15-10.9,47.3-22.6,77.6-22.6c57.4,0,83,35.5,83,70.6c0,14.9-4.3,28.4-12.4,39.7c-8.4,11.8-7,27.9,3,38.6c0.1,0.1,0.1,0.2,0.2,0.2
	c12.6,13.6,19.3,31.1,19.3,50.5c0,23.8-9.5,45.4-26.9,61C327.4,418.1,301,426.9,269.5,426.9z"/>
<path class="st0" d="M202.9,339.9c10,6.4,41.4,18.2,65.7,18.8c32.2,0.8,36.7-6.9,36.7-28.5c0-19.8-4-28-38.1-28l-26.1,0.3l0.2-60.3
	c0,0,18.3,0.4,29,0.7c18.5,0.6,26.2-0.9,24.1-21.6c-0.9-9.1-8.2-11-24.6-8.9c-20.8,0-50.9,11.8-62.1,19.8c0,0-0.5-57.6-0.5-61.8
	c0-0.2,0.1-0.3,0.2-0.4c13.7-10,44.6-20.9,72.6-20.9c51.3,0,74.5,30.5,74.5,62.1c0,26.8-16,49.7-48.1,61.3v0.8
	c32.1,6.4,58.1,30.5,58.1,66.9c0,41.7-32.5,78.1-95,78.1c-29.3,0-54.5-17.2-67.4-25.6L202.9,339.9z"/>
</svg>
