<?xml version="1.0" encoding="utf-8"?>
<!-- Generator: Adobe Illustrator 25.4.1, SVG Export Plug-In . SVG Version: 6.00 Build 0)  -->
<svg version="1.1" id="Layer_1" xmlns="http://www.w3.org/2000/svg" xmlns:xlink="http://www.w3.org/1999/xlink" x="0px" y="0px"
	 viewBox="0 0 566.9 566.9" style="enable-background:new 0 0 566.9 566.9;" xml:space="preserve">
<style type="text/css">
	.st0{fill:none;stroke:#661F53;stroke-miterlimit:10;}
	.st1{fill:none;stroke:#3E5CAA;stroke-miterlimit:10;}
	.st2{fill:none;stroke:#66BC46;stroke-miterlimit:10;}
	.st3{fill:none;stroke:#ED2224;stroke-miterlimit:10;}
	.st4{fill:none;stroke:#3F5CAA;stroke-miterlimit:10;}
	.st5{fill:none;stroke:#B3509E;stroke-miterlimit:10;}
	.st6{fill:none;stroke:#205228;stroke-miterlimit:10;}
</style>
<path class="st0" d="M-84.1,422.3c-1.1,0-2.2-0.5-2.9-1.3c-0.7-0.8-1.1-1.7-1-2.8c1.5-18.7-0.4-50.2-1.4-54
	c-2.4-2.6-23.3-25.4-43-55.5c-28.1-43-40.4-79.8-36.6-109.2c4-31.4,15.8-55.2,35-70.7c16.3-13.2,38-20.1,62.7-20.1
	c24.6,0,51.7,7,74.3,19.3c22.4,12.1,37.2,27.5,40.6,42.2c20.4,87.4-63.9,185.6-68.4,190.8c-0.5,0.8-8.4,14-2.5,57.8
	c0.1,0.9-0.1,1.7-0.7,2.4c-0.6,0.7-1.6,1.2-2.6,1.2C-38,422.2-76.5,422.3-84.1,422.3L-84.1,422.3z"/>
<path class="st0" d="M-87.7,363.1c0,0-88.2-93.5-79.3-163.3c18.3-143.3,196.1-83.5,208.8-29.3C62,257.4-22,354.7-26.3,359.6
	c-0.1,0.1-9.2,12.5-2.9,59.3c0.1,0.7-0.6,1.3-1.3,1.3c-7.4,0.1-44.7,0.2-53.6,0.2c-1.1,0-2-0.8-1.9-1.9
	C-84.5,399-86.6,364-87.7,363.1z"/>
<path class="st1" d="M229.3,536.3c-1.2,0-2.3-0.5-3.2-1.3c-0.9-0.9-1.3-2-1.3-3.2l0.3-34.9l2-0.1c0.4,0,0.9,0.1,1.2,0.4
	c1.5,1.2,3,1.8,4.5,1.8c4.1,0,7-5,7.2-5.2c0.4-0.6,1.1-1,1.8-1h0.3l0.3,0.1c1.9,0.5,3.7,1.7,5.6,2.9c2.4,1.6,4.9,3.2,7.7,3.2
	c2.9,0,5.9-1.8,9.2-5.5l0.6-0.7l1,0c0.8,0,1.6,0.5,1.9,1.3c0.3,0.7,2,4.3,6,4.3c1.7,0,3.6-0.6,5.7-1.8l0.5-0.3l0.6,0h0.9l0.6,0.6
	c0.4,0.4,0.6,1,0.6,1.5c-0.1,0.9-0.4,9.5,2.3,33.9c0.1,0.8-0.2,1.6-0.7,2.2c-0.5,0.6-1.3,1-2.1,1C279,535.6,240.9,536.1,229.3,536.3
	L229.3,536.3z"/>
<path class="st1" d="M241.8,494.7c6.2,1.6,12.7,13.1,24.4,0c0,0,0.1,0,0.1,0c0.5,1.1,4.3,9.3,14.5,3.4c0,0,0.1,0,0.1,0.1
	c-0.1,1.1-0.4,9.8,2.3,34.3c0.1,0.5-0.3,1-0.9,1c-3.6,0.1-42.7,0.7-53.1,0.8c-1.4,0-2.6-1.1-2.6-2.5l0.3-32.9c0-0.1,0.1-0.1,0.1,0
	c8.3,6.3,14-3.1,14.6-4C241.7,494.8,241.8,494.7,241.8,494.7z"/>
<path class="st2" d="M596.3,343.2c-1.3-0.1-4.4-2-5.2-3.3c-6.5-9.4-11.4-14.3-12-14.9c-3.5-2.9-21.5-24.1-37.7-51.5
	c-14.9-25.3-32.2-62.7-29.5-96.6c0.6-7.4,4.8-45.4,31.1-69.5c16.8-15.4,40.1-23.6,67.5-23.6c53.1,0,108,30.3,115.2,63.5
	c9.3,42.7-8.8,90.3-25.6,122.7c-18.7,36.2-39.7,61.7-42.8,64.6c-0.2,0.3-1,1.4-1.3,1.9c-0.3,0.5-0.6,0.9-0.7,0.9
	c-2.2,2.7-5.2,4.1-8.6,4.1c-3.8,0-7.8-1.8-10.6-4.9c-1.8-1.9-3-4.2-3.7-6.6c-2.9,4.1-8.4,9.7-14.5,9.7c-4,0-7.6-2.3-10.5-6.8
	c-3.9,10-10.5,10.2-10.8,10.2L596.3,343.2z"/>
<path class="st2" d="M596.4,341.2c-0.5,0-3.1-1.5-3.7-2.4c-7.1-10.2-12.3-15.2-12.3-15.2c-5.7-4.7-71.6-82.7-66.6-146.5
	c0.8-9.7,5.6-45.4,30.4-68.2c55.2-50.7,169.1-8.6,179.5,38.9c17.5,80.6-62.7,181.2-67.9,185.6c-0.1,0.1-2,2.8-2.1,3
	c-6.5,8.1-20.8,0.6-19.9-11.1c0-0.2-0.9-0.1-1.2,0.6c-1.3,3.4-15.4,23.5-25.5,3c-0.1-0.1-0.6-0.1-0.6,0.2
	C603.5,340.5,597.2,341.2,596.4,341.2z"/>
<path class="st3" d="M218,387.9c-1.6,0-3-0.7-4.3-1.9c-0.1-0.1-0.7-0.9-1-1.1c-4.5-4-18.6-27.8-31.2-61.9
	c-11.1-30-23.9-75.8-21.5-123c0.1-1.3,1.1-2.3,2.5-2.3l0.2,0c2.8,0.1,7.5,2.1,13.6,4.5c7.2,3,16.2,6.6,21.5,6.6c0.2,0,0.3,0,0.5,0
	l0.1,0c0.7,0,1.4,0.3,1.9,0.9c0.5,0.6,0.8,1.6,0.7,2.4c-1.1,7.7-9.3,77.6,28.9,159.1c0.6,1.2,0.1,4.4,0,4.9
	C228.9,378.5,223.8,387.9,218,387.9z"/>
<path class="st3" d="M161.9,199.9c0-0.3,0.3-0.4,0.6-0.4c6,0.3,26.2,11.6,35.8,11.2c0.5,0,0.7,0.6,0.6,1c-1.1,8-9.4,78.2,29,160.2
	c0.2,0.4,0,3-0.1,3.4c-1,3-7.6,14.3-12.7,9.2c-0.1-0.1-1-1.2-1-1.2C206,376.6,157.5,288.1,161.9,199.9z"/>
<path class="st3" d="M333.4,388.7c-7.3,0-13.3-9.3-14.1-14.3c-0.3-1.8,0-3.6,0.8-5.3c15.9-34.9,22.7-75.6,25.4-96.8
	c3.8-29.7,3.9-57.2,0.3-66.8c-0.3-0.7-0.2-1.5,0.3-2c0.4-0.6,1.2-1,2-1c0.3,0,0.6,0.1,0.9,0.2c2.3,1,14.5,5.8,27.2,5.8
	c5,0,9.5-0.7,13.3-2.2l0.3-0.1l0.4,0c1.1,0,2,0.8,2.1,1.9c1.9,18.5-3.5,53.3-14.5,93.2c-10.3,37.4-22.2,67.7-30.4,77.3
	c-0.1,0.1-0.3,0.3-0.5,0.6c-2,2.6-7.3,9.4-13.1,9.7C333.7,388.7,333.5,388.7,333.4,388.7z"/>
<path class="st3" d="M348.1,204.4c-0.3-0.1-0.6,0.1-0.5,0.4c7.2,19.3,0.8,106.4-25.8,165.1c-0.7,1.5-0.8,2.9-0.6,4.2
	c0.8,4.7,6.5,13,12.5,12.6c5.5-0.3,11.2-8.4,12.2-9.6c16.6-19.4,48.5-128.3,44.4-169c0-0.1-0.1-0.2-0.2-0.1
	C373.3,214.3,351.8,205.9,348.1,204.4z"/>
<path class="st4" d="M157,172.8c-3,0-6.1-0.2-9.2-0.7c-5.9-0.8-11.8-3.2-18-5.8c-6.9-2.8-14-5.7-22.2-7.1c-1.7-0.3-3.3-0.4-4.9-0.4
	c-3.7,0-6.8,0.8-9.4,2.5c-0.4,0.2-0.8,0.4-1.3,0.4c-0.7,0-1.4-0.3-1.8-0.9c-0.4-0.6-0.6-1.3-0.4-2c2-7.7,6.1-18.7,8.5-22.2
	c0.4-0.5,1-1.5,2.3-1.8c2.2-0.5,4.5-0.7,7-0.7c8.9,0,18.8,3,28.4,5.9c3.7,1.1,7.5,2.3,11.1,3.2c0.7,0.2,1.6,0.3,2.5,0.3
	c5.6,0,13.7-3.4,22.1-6.9c9.9-4.2,20.1-8.5,28.9-8.5c0.3,0,0.5,0,0.8,0c8.9,0.3,17,3,24.2,5.4c5.9,2,11.5,3.8,16.1,3.8
	c1.8,0,3.3-0.3,4.8-0.8c18.2-7.1,24.2-9.2,29.3-9.2c2.7,0,4.9,0.6,7.9,1.4c0.8,0.2,1.7,0.5,2.6,0.7c0.7,0.2,1.1,0.6,1.4,0.8l0.1,0.1
	c2.6,2.1,11.3,13.6,12,25.2c0.1,1.2-0.6,2.5-1.7,3c-3.1,1.6-21.3,9.6-29,10.7c-2.3,0.3-4.6,0.5-6.9,0.5c0,0,0,0,0,0
	c-10,0-18.7-2.9-27.1-5.7c-8.3-2.8-16.2-5.4-25.2-5.4l-0.2,0c-7.1,0-13.4,2.8-20.7,6.1C180.3,168.4,170.3,172.8,157,172.8
	C157,172.8,157,172.8,157,172.8z"/>
<path class="st4" d="M99.9,137.6c0.3-0.4,0.6-0.9,1.1-1c13.2-2.9,30.4,4.4,45.6,8.3c12.1,3.1,37.6-15.6,54.8-15.1
	c18.8,0.6,34.6,12.7,45.9,8.3c28.8-11.3,27.2-9.9,38.6-7c0.3,0.1,0.6,0.3,0.8,0.5c2.4,1.9,10.6,13,11.3,23.7c0,0.4-0.2,0.9-0.6,1.1
	c-3.2,1.6-21,9.5-28.4,10.5c-22.8,3.1-38.2-10.7-59.2-10.6c-18.4,0.1-32.1,18-61.6,13.7c-11.8-1.7-24-10.1-40.1-12.9
	c-4.5-0.8-10.6-1-15.7,2.3c-0.3,0.2-0.6-0.1-0.5-0.4C93.7,151.4,97.8,140.8,99.9,137.6z"/>
<path class="st3" d="M399.3,543.4l-0.6-1.2c-1.4-3.2-1.3-12-1.3-13.9c0-1.2,0.8-2,1.7-2.3c2.1-0.6,7.5-0.8,8.7-0.8l0.1,0
	c1,0,1.8,0.6,2.1,1.5c1.1,2.7,4.4,11.3,3.3,15.1l0,0.2l-0.6,1.2l-1.6,0l-0.4-0.1c-1.3-0.5-3.1-2.3-4.4-3.8c-1.6,1.7-3.6,3.6-5.1,4.1
	l-0.3,0.1l-0.3,0H399.3z"/>
<path class="st3" d="M399.4,528.3c0,0-0.1,10.1,1.2,13.1c0,0,0,0,0.1,0c1.7-0.5,5.2-4.7,5.6-5.2c0,0,0.1,0,0.1,0
	c0,0,3.5,4.3,5.2,4.9c0,0,0,0,0,0c1-3.4-3.2-13.8-3.2-13.8c0-0.1-0.1-0.2-0.3-0.2c0,0-6.3,0.1-8.2,0.7
	C399.6,527.9,399.4,528.1,399.4,528.3z"/>
<path class="st3" d="M232.8,449c-3.3,0-5.8-1.6-6.8-2.3c-0.7-0.5-1.1-1.3-1.2-2.2l-1.8-20.6l0.6-0.7c0.4-0.4,0.9-0.7,1.5-0.7h0.6
	l0.5,0.4c0.2,0.1,1.2,0.7,2.4,0.7c3.2,0,5.9-4.1,7.7-11.7l0.3-1.3l2.8-0.5l0.7,1.4c0.2,0.4,4,8.7,9.8,8.7c4.1,0,8.8-4.1,13.6-11.9
	l0.6-0.9l1.2,0h1l0.6,0.8c0.4,0.5,0.5,1.1,0.4,1.7c-0.4,1.7,0.4,4.9,2.6,7.8c1.3,1.6,4,4.3,8.1,4.3c0,0,0,0,0,0
	c1.9,0,3.9-0.6,5.9-1.8l0.5-0.3l0.6,0h0.9l0.6,0.7l0.6,0.7l-0.2,1l-4.1,22c-0.1,0.7-0.6,1.4-1.3,1.7c-2.2,1.1-4.8,2.2-7.6,2.2
	c-2.4,0-5.6-0.8-8.2-4.5c-3.1,2.8-6.2,4.7-10,4.7c-3.5,0-7.4-1.4-13.6-5.1C239.1,448,235.4,449,232.8,449z"/>
<path class="st3" d="M225.1,424.6l1.7,19.8c0,0.3,0.2,0.6,0.4,0.8c2.6,1.9,9.2,4.5,14.2-4.2c0.1-0.1,0.2-0.1,0.3-0.1
	c12.8,7.7,16.9,7.4,24.4-0.1c0,0,0.1,0,0.1,0c4.1,8.5,11.3,5.2,14.4,3.6c0.1,0,0.2-0.2,0.2-0.3l4.2-22c0,0,0-0.1-0.1,0
	c-12.3,7.1-20.9-6.4-19.5-12.5c0-0.1-0.1-0.1-0.1,0c-16,26.2-26.2,4.7-26.9,3c0,0,0,0-0.1,0c-4.2,17.4-12.1,12.8-13.2,12.1
	C225.1,424.5,225.1,424.6,225.1,424.6z"/>
<path class="st3" d="M368.5,509.2c-14.4,0-26.8-3.9-33.2-10.5l-0.5-0.6l-0.3-7.7l3.4,2.7c7,5.5,18.5,9,30.2,9c9.2,0,16.9-2.2,21-6
	l3-2.7l0.6,7l-0.1,0.3C391,507,378.7,509.2,368.5,509.2C368.5,509.2,368.5,509.2,368.5,509.2z"/>
<path class="st3" d="M390.4,497.6l0.2,2.7c-2.1,8.6-40.4,10.9-54-3l-0.1-2.6C350.6,505.8,379.7,507.4,390.4,497.6z"/>
<path class="st3" d="M403.4,448c-0.7,0-1.4-0.3-1.9-0.8c-0.5-0.5-0.7-1.2-0.6-2l2.9-20.7c0.1-0.7,0.5-1.3,1.1-1.7l2.1-1.3l0.4-0.4
	l0.9,0h0.9l0.6,0.7l0.6,0.7l-0.1,1l0,0.1c0,0.2-3,15.9-4.3,22.5C405.6,447.2,404.6,448,403.4,448z"/>
<path class="st3" d="M408.2,423.1C408.2,423.1,408.3,423.1,408.2,423.1c0.1,0-2.9,15.8-4.3,22.5c-0.1,0.7-1.2,0.5-1.1-0.2l2.9-20.7
	c0-0.1,0.1-0.2,0.2-0.2L408.2,423.1z"/>
<path class="st3" d="M388.7,444.7c-0.7,0-1.3-0.3-1.7-0.8c-0.4-0.5-0.6-1.1-0.5-1.8c2-12.8,3.1-19.7,3.3-20.5c0.2-1,1.1-1.7,2.1-1.7
	c0.5,0,1,0.2,1.4,0.5l0.8,0.7c0.8,0.7,1.2,1.8,1,2.8c-0.2,1.1-1.6,7.5-4.2,19.1C390.6,444,389.7,444.7,388.7,444.7L388.7,444.7z"/>
<path class="st3" d="M392,421.9c-0.1-0.1-0.3,0-0.3,0.1c-0.2,1.1-2,12.7-3.3,20.5c0,0.3,0.4,0.4,0.5,0.1c1.6-7.2,4-17.6,4.2-19
	c0.1-0.4-0.1-0.7-0.3-1L392,421.9z"/>
<path class="st3" d="M349.6,448.7c-1.2,0-2.1-0.9-2.2-2l-2.4-21.7l0.6-0.7l0.6-0.6l1.3,0l0.4,0.2c0,0,2.1,1,2.8,1.6l0.6,0.6l0,0.8
	l0.7,19.5c0,0.6-0.2,1.2-0.6,1.7C350.8,448.5,350.2,448.7,349.6,448.7L349.6,448.7z"/>
<path class="st3" d="M346.9,425.7l2.3,20.8c0,0.4,0.6,0.3,0.6,0l-0.7-19.6c0,0,0,0,0,0C349,426.7,347.2,425.7,346.9,425.7
	C347,425.7,346.9,425.7,346.9,425.7z"/>
<path class="st3" d="M363.9,444.4c-0.9,0-1.7-0.6-2-1.5c-0.7-2.3-1.3-4.8-1.9-7.3c-1.2-4.8-2.5-9.7-3.8-12.3c-0.5-1-0.4-2.3,0.4-3.2
	l0.7-0.8c0.4-0.5,1-0.8,1.6-0.8c0.6,0,1.1,0.3,1.2,0.4c0.8,0.5,2.5,1.5,4.7,12.3c0.9,4.7,1.9,10.6,1.1,12
	C365.4,444,364.7,444.4,363.9,444.4z"/>
<path class="st3" d="M358.7,420.7c0.1-0.1,0.2,0,0.3,0.1c2.6,1.6,5.7,20.5,5.1,21.5c-0.1,0.2-0.2,0.3-0.3,0.1
	c-2-7-3.8-15.8-5.9-19.9c-0.2-0.3-0.1-0.7,0.2-1L358.7,420.7z"/>
<path class="st3" d="M89.6,427.4c-3.7,0-6.7-2.8-7.1-6.5c-0.3-3.9,2.6-7.3,6.4-7.7c0.2,0,0.4,0,0.6,0c3.7,0,6.7,2.8,7.1,6.5
	c0.3,3.9-2.6,7.3-6.4,7.7C90,427.4,89.8,427.4,89.6,427.4z"/>
<circle class="st3" cx="89.6" cy="420.3" r="5.1"/>
<path class="st5" d="M267.2,387.6c-5.1,0-9.5-3.8-13.1-11.2c-6.5-13.4-38.7-84.3-29.3-162.5c0.1-1.2,1.2-2.1,2.3-2.1h0.1l0.2,0
	c1.7,0.2,3.4,0.3,5.2,0.3c15.5,0,31.3-8.6,32-9c6.5-3.6,13.7-5.4,21.2-5.4c7.2,0,14.8,1.6,23.3,5c0.8,0.3,2,0.8,2.3,2.2
	c9.2,45.5-6.1,118.4-25.2,163.8c-0.5,1-0.9,2-1.2,2.9c-0.6,1.5-1.2,2.8-1.7,3.8l0,0.1l-0.1,0.1C280.3,380.2,274.3,387.6,267.2,387.6
	z"/>
<path class="st5" d="M227.2,213.8c-0.2,0-0.4,0.1-0.4,0.3c-9.3,77.6,22.2,147.2,29.1,161.4c9.5,19.5,21.2,5.8,25.7-0.9
	c0.8-1.5,1.8-4.1,2.9-6.6c19.1-45.5,34-118.2,25-162.7c-0.1-0.3-0.6-0.5-1.1-0.7c-10.2-4-26.5-8.6-42.8,0.3
	C264.8,205.4,244.9,216.3,227.2,213.8z"/>
<path class="st6" d="M166.1,371.4c-0.2-0.2-23.5-24.2-43.5-57.6c-18.6-31-38.2-76.6-25.9-118.4l0.2-0.5l0.4-0.4
	c2.8-2.6,6.9-3.9,12.2-3.9c3.7,0,8.1,0.7,12.3,2l0.1,0c0.9,0.3,1.5,1.1,1.5,2c-1.4,101.2,45.3,173.6,45.7,174.3L166.1,371.4z"/>
<path class="st6" d="M121.4,194.6c0.1,0,0.1,0.1,0.1,0.1c-1.5,103,46.1,175.4,46.1,175.4s-92.3-94.5-68.9-174
	C105.7,189.6,120.2,194.2,121.4,194.6z"/>
<path class="st6" d="M384.6,387.7c-0.8,0-1.5-0.4-1.9-1c-0.4-0.6-0.5-1.3-0.2-2c36.8-85.4,41-146.1,39.5-162.2
	c-0.1-0.9,0.4-1.8,1.3-2.2c1-0.4,19.9-8.2,21-8.7l0.3-0.1l2,0l0.3,1.7c5.2,25.4,0.5,57.4-13.5,92.3c-11.3,28.2-28.5,57.8-47.2,81.3
	C386,387.4,385.3,387.7,384.6,387.7z"/>
<path class="st6" d="M423.9,222.2c0-0.1,0.1-0.1,0.1-0.1c1.6-0.7,19.9-8.2,21-8.6c0,0,0,0,0,0c11.3,55.8-26.9,130.2-60.2,172.1
	c-0.1,0.1-0.7,0.1-0.6-0.1C425.2,290.5,424.7,231,423.9,222.2z"/>
<path class="st3" d="M145,109.5c-2,0-4-0.3-5.8-0.9c-17.7-5.7-29.9-8.5-37.3-8.5c-2.5,0-4,0.3-5.3,0.6c-0.3,0.1-0.7,0.1-1,0.2
	c-0.2,0-0.3,0-0.5,0c-0.8,0-1.5-0.4-2-1.1c-0.4-0.7-0.4-1.5,0-2.3c15.6-30.4,47-47.9,86.2-47.9c36.3,0,73.6,15.2,102.5,41.7
	c0.8,0.7,1,1.7,0.6,2.7c-0.4,1-1.3,1.6-2.3,1.6c-0.4,0-0.7-0.1-1-0.2c-3.1-1.4-6.1-2.1-9.1-2.1c-5.2,0-10.3,2.1-16.2,4.5
	c-4.6,1.9-9.7,4-15.9,5.5c-0.6,0.2-1.3,0.2-2.2,0.2l0,0c-3.5,0-8.6-1.4-11-2.2c-13.7-5-21.5-7.3-28.9-7.3c-9.8,0-19.1,4-39.6,12.9
	C152.3,108.6,148.5,109.5,145,109.5z"/>
<path class="st3" d="M280,93.6c0.5,0.2,1-0.4,0.6-0.8c-61-56-154.3-55.5-185.6,5.7c-0.2,0.3,0,0.5,0.4,0.5c4-0.7,9.8-3.5,44.5,7.8
	c3.8,1.2,8.9,1.3,15.7-1.7c36.2-15.7,38.9-16.9,70-5.7c2.8,1,9.2,2.6,12,1.9C255.9,96.8,265.2,86.8,280,93.6z"/>
</svg>
