<?xml version="1.0" encoding="utf-8"?>
<!-- Generator: Adobe Illustrator 25.4.1, SVG Export Plug-In . SVG Version: 6.00 Build 0)  -->
<svg version="1.1" id="Layer_1" xmlns="http://www.w3.org/2000/svg" xmlns:xlink="http://www.w3.org/1999/xlink" x="0px" y="0px"
	 viewBox="0 0 566.9 566.9" style="enable-background:new 0 0 566.9 566.9;" xml:space="preserve">
<style type="text/css">
	.st0{fill:none;stroke:#661F53;stroke-miterlimit:10;}
	.st1{fill:none;stroke:#3E5CAA;stroke-miterlimit:10;}
	.st2{fill:none;stroke:#66BC46;stroke-miterlimit:10;}
	.st3{fill:none;stroke:#ED2224;stroke-miterlimit:10;}
	.st4{fill:none;stroke:#3F5CAA;stroke-miterlimit:10;}
	.st5{fill:none;stroke:#B3509E;stroke-miterlimit:10;}
	.st6{fill:none;stroke:#205228;stroke-miterlimit:10;}
</style>
<path class="st0" d="M-79.3,419.2c-3.3,0-6.5-1.4-8.8-3.8c-2.2-2.4-3.3-5.6-3-8.8c1.3-15.9,0-41.9-0.9-49.8
	c-13.5-14.8-88.8-100.8-80-169.3c4.3-33.5,17-59,37.9-75.9c17.7-14.3,41.1-21.9,67.7-21.9c25.9,0,54.4,7.4,78.1,20.2
	c24.4,13.2,40.7,30.5,44.6,47.3c9,38.6,0.4,83.1-25.7,132.2c-18.3,34.5-39.4,59.8-43.9,65c-1,2.1-6.2,15.5-1.2,52.1
	c0.4,3.1-0.5,6.2-2.6,8.6c-2.1,2.5-5.2,3.9-8.5,3.9C-32.9,419.1-68.6,419.2-79.3,419.2L-79.3,419.2L-79.3,419.2z"/>
<path class="st0" d="M-82.9,352.1c0,0-88.2-93.5-79.3-163.3c18.3-143.3,196.1-83.5,208.8-29.3c20.3,86.8-63.7,184.1-68,189.1
	c-0.1,0.1-9.2,12.5-2.9,59.3c0.1,0.7-0.6,1.3-1.3,1.3c-7.4,0.1-44.7,0.2-53.6,0.2c-1.1,0-2-0.8-1.9-1.9
	C-79.7,388-81.8,353-82.9,352.1z"/>
<path class="st1" d="M234.1,533.2c-3.3,0-6.5-1.3-8.8-3.7c-2.4-2.4-3.6-5.5-3.6-8.9l0.3-33l0.2-9.7l9.8-0.1c1.9,0,3.9,0.6,5.5,1.6
	c0.2-0.2,0.4-0.5,0.5-0.7c1.8-3.1,5.1-5,8.7-5h1.3l1.3,0.3c3.2,0.8,5.7,2.5,7.9,3.9c1,0.6,2.5,1.7,3.3,1.9c0.4-0.2,1.5-0.8,3.3-2.9
	l3-3.3l4.5,0c3.7,0,7.1,2,8.8,5.2c0.2-0.1,0.5-0.2,0.8-0.4l2.3-1.3l2.8,0h4.3l3,3.1c1.9,2,2.9,4.7,2.7,7.4c0,0.4-0.4,8.4,2.3,32.6
	c0.3,3-0.6,6-2.6,8.3c-2,2.3-4.8,3.6-7.8,3.8c-3.6,0.1-38.5,0.6-53.4,0.8L234.1,533.2z"/>
<path class="st1" d="M246.6,483.8c6.2,1.6,12.7,13.1,24.4,0c0,0,0.1,0,0.1,0c0.5,1.1,4.3,9.3,14.5,3.4c0,0,0.1,0,0.1,0.1
	c-0.1,1.1-0.4,9.8,2.3,34.3c0.1,0.5-0.3,1-0.9,1c-3.6,0.1-42.7,0.7-53.1,0.8c-1.4,0-2.6-1.1-2.6-2.5l0.3-32.9c0-0.1,0.1-0.1,0.1,0
	c8.3,6.3,14-3.1,14.6-4C246.5,483.8,246.6,483.8,246.6,483.8z"/>
<path class="st2" d="M601,340.1l-0.4,0c-4.1-0.2-9.2-3.7-11.3-6.7c-6.3-9.1-10.9-13.7-11-13.7l0,0c-9.2-8.8-74.8-87.6-69.6-154.4
	c0.6-7.9,5.2-48.6,33.6-74.7c18.3-16.8,43.5-25.7,72.9-25.7c26.3,0,54.7,7.3,78.1,20.1c24.9,13.6,40.8,31.2,44.8,49.7
	c9.8,45-8.9,94.5-26.3,128.1c-17.3,33.4-37.6,59.6-43.8,66.1c-0.3,0.4-0.6,0.9-0.9,1.3c-0.5,0.7-0.9,1.3-1,1.4
	c-3.7,4.6-9,7.1-14.8,7.1c-5.7,0-11.3-2.4-15.6-6.6c-3.7,2.8-8.2,4.8-13.2,4.8c-2.6,0-5.8-0.6-9-2.4c-5.4,5.5-11.4,5.7-12.3,5.7H601
	z"/>
<path class="st2" d="M601.2,330.2c-0.5,0-3.1-1.5-3.7-2.4c-7.1-10.2-12.3-15.2-12.3-15.2c-5.7-4.7-71.6-82.7-66.6-146.5
	c0.8-9.7,5.6-45.4,30.4-68.2c55.2-50.7,169.1-8.6,179.5,38.9c17.5,80.6-62.7,181.2-67.9,185.6c-0.1,0.1-2,2.8-2.1,3
	c-6.5,8.1-20.8,0.6-19.9-11.1c0-0.2-0.9-0.1-1.2,0.6c-1.3,3.4-15.4,23.5-25.5,3c-0.1-0.1-0.6-0.1-0.6,0.2
	C608.3,329.5,602,330.3,601.2,330.2z"/>
<path class="st3" d="M222.8,384.8c-3.7,0-7.2-1.5-9.9-4.3c-0.2-0.2-0.3-0.3-1.1-1.3c-7-7.1-21.4-33.7-32.9-64.6
	c-11.4-30.7-24.4-77.6-22-126.2c0.3-5.5,4.9-9.8,10.5-9.8h0.2l0.3,0c4,0.2,8.5,2,16.2,5.1c5.9,2.4,14.8,6,18.5,6l0.4,0l0.3,0
	c3,0,5.9,1.3,7.9,3.6c2.1,2.4,3,5.6,2.6,8.7c-1,7.5-9,75.2,28.2,154.6c2.1,4.5,0.3,10.6,0.3,10.7
	C240.8,371.1,234.1,384.8,222.8,384.8z"/>
<path class="st3" d="M166.7,189c0-0.3,0.3-0.4,0.6-0.4c6,0.3,26.2,11.6,35.8,11.2c0.5,0,0.7,0.6,0.6,1c-1.1,8-9.4,78.2,29,160.2
	c0.2,0.4,0,3-0.1,3.4c-1,3-7.6,14.3-12.7,9.2c-0.1-0.1-1-1.2-1-1.2C210.8,365.6,162.3,277.1,166.7,189z"/>
<path class="st3" d="M338.2,385.6c-11.9,0-20.5-12.4-22-20.9c-0.5-3.3-0.1-6.7,1.4-9.9c15.4-34,22.2-73.8,24.8-94.5
	c4-31.5,3.4-56,0.8-63c-1.2-3.1-0.7-6.6,1.2-9.3c1.9-2.8,5.1-4.4,8.5-4.4c1.4,0,2.7,0.3,4,0.8c2.1,0.9,12.9,5.2,24.1,5.2
	c4,0,7.6-0.6,10.6-1.7l1.7-0.6l1.8,0c5.2,0,9.5,3.9,10,9c2.9,28-9.3,76.6-14.7,96.1c-8.4,30.6-21.2,67.8-32,80.3l-0.2,0.3
	c-2.6,3.3-9.6,12.2-18.9,12.7C338.8,385.6,338.5,385.6,338.2,385.6z"/>
<path class="st3" d="M353,193.4c-0.3-0.1-0.6,0.1-0.5,0.4c7.2,19.3,0.8,106.4-25.8,165.1c-0.7,1.5-0.8,2.9-0.6,4.2
	c0.8,4.7,6.5,13,12.5,12.6c5.5-0.3,11.2-8.4,12.2-9.6c16.6-19.4,48.5-128.3,44.4-169c0-0.1-0.1-0.2-0.2-0.1
	C378.1,203.3,356.6,194.9,353,193.4z"/>
<path class="st4" d="M161.8,169.7c-3.4,0-6.8-0.3-10.3-0.8c-6.8-1-13.1-3.6-19.9-6.3c-6.5-2.6-13.2-5.4-20.6-6.7
	c-1.2-0.2-2.4-0.3-3.5-0.3c-2.1,0-3.8,0.4-5.1,1.2c-1.7,1.1-3.6,1.6-5.6,1.6c-3.2,0-6.1-1.4-8.1-4c-2-2.5-2.6-5.7-1.8-8.8
	c2-7.9,6.4-19.9,9.5-24.7c1.8-2.8,4.3-4.5,7.2-5.2c2.7-0.6,5.7-0.9,8.8-0.9c10.1,0,20.5,3.2,30.6,6.2c3.8,1.1,7.3,2.2,10.8,3.1l0,0
	c0,0,0.2,0,0.6,0c4,0,12-3.4,19.1-6.3c10.6-4.5,21.6-9.1,31.9-9.1c0.4,0,0.7,0,1.1,0c10,0.3,18.8,3.2,26.5,5.8
	c5.3,1.8,10.2,3.4,13.6,3.4c0.8,0,1.4-0.1,1.9-0.3c18.4-7.2,25.5-9.7,32.2-9.7c3.8,0,6.8,0.8,10,1.7c0.8,0.2,1.6,0.4,2.5,0.7
	c2.4,0.6,3.9,1.9,4.5,2.3c4,3.2,14.1,16.6,15,30.9c0.3,4.4-2.2,8.6-6,10.6c-0.2,0.1-21.2,10-31.5,11.4c-2.6,0.4-5.3,0.5-7.9,0.5
	c-11.3,0-21-3.2-29.6-6.1c-7.7-2.6-15-5-22.7-5h-0.2c-5.4,0-11,2.5-17.5,5.4C188,164.7,176.8,169.7,161.8,169.7z"/>
<path class="st4" d="M104.7,126.6c0.3-0.4,0.6-0.9,1.1-1c13.2-2.9,30.4,4.4,45.6,8.3c12.1,3.1,37.6-15.6,54.8-15.1
	c18.8,0.6,34.6,12.7,45.9,8.3c28.8-11.3,27.2-9.9,38.6-7c0.3,0.1,0.6,0.3,0.8,0.5c2.4,1.9,10.6,13,11.3,23.7c0,0.4-0.2,0.9-0.6,1.1
	c-3.2,1.6-21,9.5-28.4,10.5c-22.8,3.1-38.2-10.7-59.2-10.6c-18.4,0.1-32.1,18-61.6,13.7c-11.8-1.7-24-10.1-40.1-12.9
	c-4.5-0.8-10.6-1-15.7,2.3c-0.3,0.2-0.6-0.1-0.5-0.4C98.5,140.4,102.6,129.8,104.7,126.6z"/>
<path class="st3" d="M398.9,540.4l-2.6-6c-1.8-4.1-2.1-11.6-2-17.1c0-4.4,3-8.5,7.3-9.8c2.2-0.7,5.7-1.1,10.6-1.2l0.1,0l0.5,0
	c4.3,0,8.1,2.7,9.5,6.6c5.5,13.5,3.9,18.6,3.4,20.2l-0.1,0.4l-2.6,6.6l-8.6,0l-1.8-0.7c-0.3-0.1-0.8-0.3-1.5-0.7
	c-1.2,0.8-2.1,1-2.7,1.2l-1.4,0.4l-1.6,0L398.9,540.4z"/>
<path class="st3" d="M404.2,517.3c0,0-0.1,10.1,1.2,13.1c0,0,0,0,0.1,0c1.7-0.5,5.2-4.7,5.6-5.2c0,0,0.1,0,0.1,0
	c0,0,3.5,4.3,5.2,4.9c0,0,0,0,0,0c1-3.4-3.2-13.8-3.2-13.8c0-0.1-0.1-0.2-0.3-0.2c0,0-6.3,0.1-8.2,0.7
	C404.4,516.9,404.2,517.1,404.2,517.3z"/>
<path class="st3" d="M237.6,446c-5.4,0-9.5-2.4-11.5-3.8c-2.6-1.9-4.2-4.8-4.4-7.9l-2.1-24.1l3-3.3c1.9-2,4.6-3.2,7.3-3.2h2.1
	c0.4-1,0.9-2.4,1.4-4.5l1.5-6.4l6.6-1.1l7.5-1.2l3.1,6.9c0.6,1.4,1.9,3.1,2.7,3.8c0.9-0.5,3.3-2.4,6.7-8l2.9-4.7l5.6,0h4.8l3,3.8
	c1.7,2.2,2.4,5,2,7.7c0.3,1.1,1.7,3,2.8,3c0.5,0,1.2-0.2,1.9-0.7l2.3-1.3l2.7,0h4.7l3,3.6l3,3.6l-0.9,4.6l-4.1,22
	c-0.6,3.1-2.6,5.9-5.5,7.3c-2.8,1.4-6.6,3-11.2,3c-3.1,0-6.1-0.8-8.7-2.3c-2.7,1.5-5.9,2.5-9.5,2.5c-4,0-7.9-1.2-12-3.2
	C244.5,445.4,240.3,446,237.6,446z"/>
<path class="st3" d="M229.9,413.7l1.7,19.8c0,0.3,0.2,0.6,0.4,0.8c2.6,1.9,9.2,4.5,14.2-4.2c0.1-0.1,0.2-0.1,0.3-0.1
	c12.8,7.7,16.9,7.4,24.4-0.1c0,0,0.1,0,0.1,0c4.1,8.5,11.3,5.2,14.4,3.6c0.1,0,0.2-0.2,0.2-0.3l4.2-22c0,0,0-0.1-0.1,0
	c-12.3,7.1-20.9-6.4-19.5-12.5c0-0.1-0.1-0.1-0.1,0c-16,26.2-26.2,4.7-26.9,3c0,0,0,0-0.1,0c-4.2,17.4-12.1,12.8-13.2,12.1
	C230,413.6,229.9,413.6,229.9,413.7z"/>
<path class="st3" d="M373.3,506.2c-7.9,0-27.5-1.3-38.9-12.9l-2.7-2.8l-0.9-27.9l16.8,13.3c5.5,4.4,15.5,7.2,25.3,7.2
	c8.4,0,13.7-2.1,15.7-3.9l14.8-13.5l2.1,24.4l-0.4,1.6C401.9,504.8,381.8,506.2,373.3,506.2z"/>
<path class="st3" d="M395.2,486.6l0.2,2.7c-2.1,8.6-40.4,10.9-54-3l-0.1-2.6C355.4,494.8,384.5,496.4,395.2,486.6z"/>
<path class="st3" d="M408.2,445c-3,0-5.8-1.3-7.8-3.5c-2-2.2-2.9-5.1-2.6-8.1l0-0.3l2.9-20.9l0-0.2c0.5-2.9,2.3-5.5,4.8-7l1.2-0.7
	l2-2.1l4.2,0h4.5l3,3.4l3,3.4l-0.6,4.8l-0.1,0.3c-0.1,0.6-3,15.9-4.4,22.6C417.4,441.5,413.1,445,408.2,445z"/>
<path class="st3" d="M413,412.1C413,412.1,413.1,412.1,413,412.1c0.1,0-2.9,15.8-4.3,22.5c-0.1,0.7-1.2,0.5-1.1-0.2l2.9-20.7
	c0-0.1,0.1-0.2,0.2-0.2L413,412.1z"/>
<path class="st3" d="M393.5,441.7c-3,0-5.8-1.3-7.7-3.5c-1.9-2.3-2.8-5.2-2.3-8.2c3-19.4,3.2-20.4,3.3-20.9c0.9-4.7,5.1-8.1,9.9-8.1
	c2.4,0,4.7,0.8,6.5,2.4l0.8,0.6c3,2.5,4.4,6.5,3.7,10.4c-0.1,0.5-0.3,1.8-4.3,19.4C402.3,438.4,398.2,441.7,393.5,441.7
	C393.5,441.7,393.5,441.7,393.5,441.7z"/>
<path class="st3" d="M396.8,410.9c-0.1-0.1-0.3,0-0.3,0.1c-0.2,1.1-2,12.7-3.3,20.5c0,0.3,0.4,0.4,0.5,0.1c1.6-7.2,4-17.6,4.2-19
	c0.1-0.4-0.1-0.7-0.3-1L396.8,410.9z"/>
<path class="st3" d="M354.4,445.7c-5.2,0-9.6-3.9-10.1-9.1l-2.3-21l-0.4-4.5l3-3.2l2.9-3.2l6.3,0l1.8,0.8c0.5,0.2,3.4,1.5,5.3,3.3
	l2.9,2.9l0,3.9l0.7,19.4c0.1,2.8-0.9,5.5-2.8,7.5C359.8,444.5,357.1,445.7,354.4,445.7C354.4,445.7,354.4,445.7,354.4,445.7z"/>
<path class="st3" d="M351.8,414.7l2.3,20.8c0,0.4,0.6,0.3,0.6,0l-0.7-19.6c0,0,0,0,0,0C353.8,415.7,352,414.8,351.8,414.7
	C351.8,414.7,351.7,414.7,351.8,414.7z"/>
<path class="st3" d="M368.7,441.4c-4.5,0-8.4-2.9-9.6-7.2c-0.7-2.4-1.4-5-2-7.5c-1-3.9-2.3-8.9-3.2-10.6c-2-3.8-1.4-8.5,1.4-11.9
	l0.7-0.8c1.9-2.3,4.7-3.6,7.7-3.6c1.9,0,3.7,0.5,5.4,1.6c4,2.5,6.2,7,8.3,17.5c2.6,13.2,1.4,15.3,0.2,17.5
	C375.7,439.4,372.3,441.4,368.7,441.4z"/>
<path class="st3" d="M363.5,409.7c0.1-0.1,0.2,0,0.3,0.1c2.6,1.6,5.7,20.5,5.1,21.5c-0.1,0.2-0.2,0.3-0.3,0.1
	c-2-7-3.8-15.8-5.9-19.9c-0.2-0.3-0.1-0.7,0.2-1L363.5,409.7z"/>
<path class="st3" d="M94.4,424.4c-7.8,0-14.3-5.9-15-13.7c-0.7-8.3,5.4-15.6,13.7-16.3c0.4,0,0.9-0.1,1.3-0.1
	c7.8,0,14.3,5.9,15,13.7c0.7,8.3-5.4,15.6-13.7,16.3C95.2,424.3,94.8,424.4,94.4,424.4z"/>
<circle class="st3" cx="94.4" cy="409.3" r="5.1"/>
<path class="st5" d="M272,384.6c-5.8,0-13.9-2.7-20.2-15.6c-9.4-19.3-39.4-88.6-30.1-166.9c0.6-5.2,5-9.1,10.2-9.1h0.7l0.7,0.1
	c1.3,0.2,2.7,0.3,4.1,0.3c10.8,0,23.1-5.2,28.2-8c7.7-4.2,16.1-6.4,25.1-6.4c8.2,0,16.8,1.8,26.2,5.5c5,2,6.6,5.4,7.2,8
	c9.5,47-6.1,121.9-25.6,168.5l-0.1,0.2c-0.4,0.9-0.8,1.8-1.2,2.7c-0.7,1.6-1.3,3.2-2,4.5l-0.2,0.5l-0.3,0.4
	C290,376.2,282.2,384.6,272,384.6z"/>
<path class="st5" d="M232,202.8c-0.2,0-0.4,0.1-0.4,0.3c-9.3,77.6,22.2,147.2,29.1,161.4c9.5,19.5,21.2,5.8,25.7-0.9
	c0.8-1.5,1.8-4.1,2.9-6.6c19.1-45.5,34-118.2,25-162.7c-0.1-0.3-0.6-0.5-1.1-0.7c-10.2-4-26.5-8.6-42.8,0.3
	C269.6,194.5,249.7,205.3,232,202.8z"/>
<path class="st6" d="M165.3,366c-3.9-4-96-99.6-71.3-183.7l0.8-2.6l2-1.9c4.3-4,10.2-6,17.5-6c4.5,0,9.6,0.8,14.6,2.3
	c4.4,1.3,7.3,5.2,7.3,9.7l0,0.1c-1.4,98.5,44,169.1,44.4,169.8L165.3,366z"/>
<path class="st6" d="M126.2,183.6c0.1,0,0.1,0.1,0.1,0.1c-1.5,103,46.1,175.4,46.1,175.4s-92.3-94.5-68.9-174
	C110.5,178.6,125,183.2,126.2,183.6z"/>
<path class="st6" d="M389.4,384.6c-3.5,0-6.7-1.7-8.6-4.6c-1.9-2.8-2.2-6.4-0.8-9.5c42.9-99.5,38.9-157.8,38.9-158.4
	c-0.4-4.3,2-8.4,6.1-10.2c0.2-0.1,19.9-8.3,21.5-8.8l1.7-0.6l9.9,0l1.5,8c5.5,27,0.7,60.4-13.9,96.9c-11.5,28.9-29.2,59.3-48.3,83.3
	C395.5,383.2,392.5,384.6,389.4,384.6z"/>
<path class="st6" d="M428.7,211.3c0-0.1,0.1-0.1,0.1-0.1c1.6-0.7,19.9-8.2,21-8.6c0,0,0,0,0,0c11.3,55.8-26.9,130.2-60.2,172.1
	c-0.1,0.1-0.7,0.1-0.6-0.1C430,279.5,429.5,220,428.7,211.3z"/>
<path class="st3" d="M149.8,106.5c-2.9,0-5.6-0.4-8.3-1.3c-20.7-6.7-30.4-8.1-34.8-8.1c-1.7,0-2.5,0.2-3.6,0.4
	c-0.4,0.1-0.8,0.2-1.2,0.2c-0.6,0.1-1.3,0.2-2,0.2c-3.6,0-6.9-1.8-8.7-4.9c-1.9-3.1-2-6.8-0.3-10.1c17-33.2,51-52.2,93.3-52.2
	c38.3,0,77.6,15.9,107.8,43.8c3.2,2.9,4.2,7.4,2.7,11.4c-1.5,4-5.5,6.7-9.7,6.7c-1.5,0-3-0.3-4.4-1c-2.1-0.9-3.9-1.4-5.8-1.4
	c-3.7,0-7.9,1.7-13.2,3.9c-4.8,2-10.3,4.2-17,5.9c-1.2,0.3-2.6,0.5-4.1,0.5c0,0,0,0,0,0c-5,0-11.1-1.8-13.7-2.7
	c-12.8-4.6-20-6.8-26.2-6.8c-8.2,0-17,3.8-36.4,12.3C159.3,105.4,154.4,106.5,149.8,106.5z"/>
<path class="st3" d="M284.8,82.6c0.5,0.2,1-0.4,0.6-0.8c-61-56-154.3-55.5-185.6,5.7c-0.2,0.3,0,0.5,0.4,0.5c4-0.7,9.8-3.5,44.5,7.8
	c3.8,1.2,8.9,1.3,15.7-1.7c36.2-15.7,38.9-16.9,70-5.7c2.8,1,9.2,2.6,12,1.9C260.7,85.9,270,75.8,284.8,82.6z"/>
</svg>
