<?xml version="1.0" encoding="utf-8"?>
<!-- Generator: Adobe Illustrator 26.3.1, SVG Export Plug-In . SVG Version: 6.00 Build 0)  -->
<svg version="1.1" id="Layer_1" xmlns="http://www.w3.org/2000/svg" xmlns:xlink="http://www.w3.org/1999/xlink" x="0px" y="0px"
	 viewBox="0 0 566.9 566.9" style="enable-background:new 0 0 566.9 566.9;" xml:space="preserve">
<style type="text/css">
	.st0{fill:none;stroke:#205228;stroke-miterlimit:10;}
</style>
<path class="st0" d="M321.8,377.9c-4.8-2.9-96-99.6-71.3-183.7l0,0c0.5-1.7,1.5-3.3,2.8-4.5l0,0c4.3-4,10.2-6,17.5-6
	c4.5,0,9.6,0.8,14.6,2.3c4.4,1.3,7.3,5.2,7.3,9.7l0,0.1c-1.4,98.5,42.3,164.1,44.4,169.8C340.8,375.1,331.6,383.9,321.8,377.9z"/>
<path class="st0" d="M282.7,195.5c0.1,0,0.1,0.1,0.1,0.1c-1.5,103,46.1,175.4,46.1,175.4s-92.3-94.5-68.9-174
	C267,190.5,281.5,195.1,282.7,195.5z"/>
</svg>
