<?xml version="1.0" encoding="utf-8"?>
<!-- Generator: Adobe Illustrator 25.4.1, SVG Export Plug-In . SVG Version: 6.00 Build 0)  -->
<svg version="1.1" id="Layer_1" xmlns="http://www.w3.org/2000/svg" xmlns:xlink="http://www.w3.org/1999/xlink" x="0px" y="0px"
	 viewBox="0 0 566.9 566.9" style="enable-background:new 0 0 566.9 566.9;" xml:space="preserve">
<style type="text/css">
	.st0{fill:none;stroke:#ED2224;stroke-miterlimit:10;}
</style>
<path class="st0" d="M309.4,245.3c-0.3,0-0.6-0.1-0.9-0.4c-0.2-0.2-0.3-0.5-0.3-0.9l2.9-20.7c0.1-0.3,0.2-0.5,0.4-0.6l2.5-1.5l0.2,0
	l0.3,0l0.2,0.2l0.2,0.2l0,0.3c0,0.2-3,15.9-4.3,22.5C310.4,244.9,309.9,245.3,309.4,245.3z"/>
<path class="st0" d="M294.7,242c-0.2,0-0.5-0.1-0.6-0.3c-0.2-0.2-0.2-0.4-0.2-0.6c1.1-7.2,3-19.3,3.3-20.5c0.1-0.4,0.4-0.6,0.7-0.6
	c0.2,0,0.3,0.1,0.5,0.2l0.8,0.7c0.4,0.4,0.6,0.9,0.5,1.5c-0.3,1.4-2.4,11.1-4.2,19.1C295.4,241.7,295,242,294.7,242z"/>
<path class="st0" d="M255.6,246c-0.4,0-0.8-0.3-0.8-0.8l-2.4-21.1l0.2-0.2l0.2-0.2l0.4,0l0,0c0.1,0,2.2,1.1,2.4,1.3l0.1,0.2
	l0.7,19.8c0,0.2-0.1,0.5-0.2,0.6C256,245.9,255.8,246,255.6,246z"/>
<path class="st0" d="M269.9,241.7c-0.2,0-0.5-0.1-0.6-0.5c-0.7-2.3-1.3-4.8-1.9-7.2c-1.3-5.1-2.5-9.9-3.9-12.6
	c-0.3-0.5-0.2-1.1,0.2-1.6l0.7-0.8c0.1-0.2,0.3-0.3,0.5-0.3c0.2,0,0.4,0.1,0.5,0.2c3,1.8,6.2,20.8,5.3,22.3
	C270.4,241.5,270.2,241.7,269.9,241.7z"/>
</svg>
