<?xml version="1.0" encoding="utf-8"?>
<!-- Generator: Adobe Illustrator 25.4.1, SVG Export Plug-In . SVG Version: 6.00 Build 0)  -->
<svg version="1.1" id="Layer_1" xmlns="http://www.w3.org/2000/svg" xmlns:xlink="http://www.w3.org/1999/xlink" x="0px" y="0px"
	 viewBox="0 0 566.9 566.9" style="enable-background:new 0 0 566.9 566.9;" xml:space="preserve">
<style type="text/css">
	.st0{fill:none;stroke:#ED2224;stroke-miterlimit:10;}
</style>
<path class="st0" d="M261.2,312c-5.4,0-9.5-2.4-11.5-3.8c-2.5-1.9-4.2-4.7-4.4-7.9l-2.1-24.1l2.9-3.3c1.9-2.1,4.6-3.3,7.4-3.3h2.1
	c0.4-1,0.9-2.4,1.4-4.5l1.6-6.4l14-2.2l3.2,6.9c0.6,1.4,1.9,3.1,2.7,3.8c0.9-0.5,3.3-2.4,6.7-8l2.9-4.7l5.6,0h4.8l3,3.8
	c1.8,2.2,2.5,5,2,7.8c0.3,1.1,1.7,3,2.8,3c0.5,0,1.2-0.2,1.9-0.7l2.3-1.3l2.7,0h4.6l3,3.5l3,3.5l-0.8,4.7l-4.2,22
	c-0.6,3.2-2.7,5.9-5.5,7.3c-2.8,1.4-6.6,3-11.2,3c-3.1,0-6.1-0.8-8.7-2.3c-2.7,1.5-5.9,2.5-9.5,2.5c-4,0-7.9-1.2-12-3.2
	C268.1,311.4,263.9,312,261.2,312z"/>
<path class="st0" d="M253.5,279.7l1.7,19.8c0,0.3,0.2,0.6,0.4,0.8c2.6,1.9,9.2,4.5,14.2-4.2c0.1-0.1,0.2-0.1,0.3-0.1
	c12.8,7.7,16.9,7.4,24.4-0.1c0,0,0.1,0,0.1,0c4.1,8.5,11.3,5.2,14.4,3.6c0.1,0,0.2-0.2,0.2-0.3l4.2-22c0,0,0-0.1-0.1,0
	c-12.3,7.1-20.9-6.4-19.5-12.5c0-0.1-0.1-0.1-0.1,0c-16,26.2-26.2,4.7-26.9,3c0,0,0,0-0.1,0c-4.2,17.4-12.1,12.8-13.2,12.1
	C253.5,279.6,253.5,279.7,253.5,279.7z"/>
</svg>
