<?xml version="1.0" encoding="utf-8"?>
<!-- Generator: Adobe Illustrator 25.4.1, SVG Export Plug-In . SVG Version: 6.00 Build 0)  -->
<svg version="1.1" id="Layer_1" xmlns="http://www.w3.org/2000/svg" xmlns:xlink="http://www.w3.org/1999/xlink" x="0px" y="0px"
	 viewBox="0 0 566.9 566.9" style="enable-background:new 0 0 566.9 566.9;" xml:space="preserve">
<style type="text/css">
	.st0{fill:none;stroke:#3E5CAA;stroke-miterlimit:10;}
</style>
<path class="st0" d="M257.8,313c-3.3,0-6.5-1.3-8.8-3.7c-2.4-2.4-3.6-5.5-3.6-8.9l0.4-42.7l9.9-0.1c1.9,0,3.9,0.6,5.5,1.6
	c0.2-0.2,0.4-0.5,0.5-0.7c1.8-3.1,5.1-5,8.7-5h1.2l1.2,0.3c3.3,0.8,5.8,2.5,8.1,4c1,0.6,2.5,1.7,3.3,1.9c0.4-0.2,1.5-0.8,3.3-2.9
	l3-3.3l4.5,0c3.7,0,7.1,2,8.8,5.2c0.2-0.1,0.5-0.3,0.8-0.4l2.4-1.3l2.6,0h4.3l3,3.1c1.9,2,2.9,4.7,2.7,7.4c0,0.4-0.4,8.4,2.3,32.6
	c0.3,3-0.6,6-2.6,8.3c-2,2.3-4.8,3.6-7.8,3.7c-3.6,0.1-38.5,0.6-53.4,0.8L257.8,313z"/>
<path class="st0" d="M270.4,263.6c6.2,1.6,12.7,13.1,24.4,0c0,0,0.1,0,0.1,0c0.5,1.1,4.3,9.3,14.5,3.4c0,0,0.1,0,0.1,0.1
	c-0.1,1.1-0.4,9.8,2.3,34.3c0.1,0.5-0.3,1-0.9,1c-3.6,0.1-42.7,0.7-53.1,0.8c-1.4,0-2.6-1.1-2.6-2.5l0.3-32.9c0-0.1,0.1-0.1,0.1,0
	c8.3,6.3,14-3.1,14.6-4C270.3,263.6,270.3,263.6,270.4,263.6z"/>
</svg>
