<?xml version="1.0" encoding="utf-8"?>
<!-- Generator: Adobe Illustrator 26.3.1, SVG Export Plug-In . SVG Version: 6.00 Build 0)  -->
<svg version="1.1" id="Layer_1" xmlns="http://www.w3.org/2000/svg" xmlns:xlink="http://www.w3.org/1999/xlink" x="0px" y="0px"
	 viewBox="0 0 566.9 566.9" style="enable-background:new 0 0 566.9 566.9;" xml:space="preserve">
<style type="text/css">
	.st0{fill:none;stroke:#205228;stroke-miterlimit:10;}
</style>
<path class="st0" d="M326.8,374.1c-0.2-0.2-23.5-24.2-43.5-57.6c-18.6-31-38.2-76.6-25.9-118.4l0.2-0.5l0.4-0.4
	c2.8-2.6,6.9-3.9,12.2-3.9c3.7,0,8.1,0.7,12.3,2l0.1,0c0.9,0.3,1.5,1.1,1.5,2c-1.4,101.2,45.5,173.5,45.7,174.3
	C330.7,374.3,328,375.3,326.8,374.1z"/>
<path class="st0" d="M282.1,197.2c0.1,0,0.1,0.1,0.1,0.1c-1.4,96.3,40.1,165.8,45.5,174.5c0.1,0.1-0.1,0.2-0.2,0.1
	c-8.7-9.2-90.3-97.9-68.1-173.2C266.4,192.3,280.9,196.9,282.1,197.2z"/>
</svg>
