<?xml version="1.0" encoding="utf-8"?>
<!-- Generator: Adobe Illustrator 26.3.1, SVG Export Plug-In . SVG Version: 6.00 Build 0)  -->
<svg version="1.1" id="Layer_1" xmlns="http://www.w3.org/2000/svg" xmlns:xlink="http://www.w3.org/1999/xlink" x="0px" y="0px"
	 viewBox="0 0 566.9 566.9" style="enable-background:new 0 0 566.9 566.9;" xml:space="preserve">
<style type="text/css">
	.st0{fill:none;stroke:#000000;stroke-miterlimit:10;}
	.st1{fill:none;stroke:#CE2D5C;stroke-miterlimit:10;}
	.st2{fill:none;stroke:#4EB848;stroke-miterlimit:10;}
	.st3{fill:none;stroke:#D5A380;stroke-miterlimit:10;}
	.st4{fill:none;stroke:#273A96;stroke-miterlimit:10;}
	.st5{fill:none;stroke:#4DB748;stroke-miterlimit:10;}
	.st6{fill:none;stroke:#CA9E2C;stroke-miterlimit:10;}
	.st7{fill:none;stroke:#405AA8;stroke-miterlimit:10;}
	.st8{fill:none;stroke:#3EB6E9;stroke-miterlimit:10;}
	.st9{fill:none;stroke:#B8529F;stroke-miterlimit:10;}
	.st10{fill:none;stroke:#9D4B9D;stroke-miterlimit:10;}
	.st11{fill:none;stroke:#85D3EE;stroke-miterlimit:10;}
</style>
<path class="st0" d="M52.2,380.2c-15.8,0-31.4-5.8-44.1-16.4c-10.9-9.1-15.7-22.4-17.8-31.6c-2.5,0.2-5.4,0.5-8.2,0.8
	c-3.7,0.4-7.7,0.6-11.9,0.6c-8.3,0-16.8-0.7-25.5-2.2c-0.4,1.7-0.9,3.5-1.5,5.3c-4.1,12.1-11.7,21.6-17.5,26.3
	c-10.2,8.5-22.7,13.1-35.2,13.1c-0.8,0-1.6,0-2.5-0.1c-23.9-1.1-38.2-15.8-40.8-18.7c-5.4-6.1-12.4-18.3-14.2-32.6
	c-0.6-4.9-0.2-22.2,9.3-37c6-9.3,14.2-15.2,20.7-18.6c-0.4-1.2-0.7-2.5-1.1-3.9c-0.3-1.2-1.6-7-2-9.8c-0.3-2.3-0.4-5.2-0.4-8.4
	c-0.8-1.3-1.3-2.8-1.4-4.4c-0.2-1.7-0.1-3.4-0.1-5.4c0-1.4,0-3,0-4.9c0-1.5-0.1-2.9-0.1-4.1c-0.1-4.2-0.1-7.3-0.4-11.3
	c-0.2-3-0.4-4.4-0.5-5.2c-0.4-2.8-0.4-4.9,1.1-8c2.6-5.3,8-7.5,16-8.8c3-4.3,8.4-11.3,16.9-16c0.9-0.5,1.9-1.1,3-1.7
	c7.2-4.2,18.2-10.6,34-11.1c0.3,0,0.6,0,0.9,0c2.8,0,5.6,0.4,8.2,1.1c0.1-4.3,0.6-12.2,2.1-21.2c3.4-20.7,13.4-30.2,21.2-34.6
	c5.5-3.1,11.8-4.7,18.6-4.7c7.5,0,13.4,1.9,15.3,2.6c3,1,18.3,6.6,24.8,20.5c2.6,5.5,3,10.6,3.2,13c0.4,4.1,1,10.9-4.8,15.6
	c-2.5,2-5.6,3.1-9,3.1c-1.8,0-3.6-0.3-5.3-0.9c-5.3-1.8-7.6-5.7-9.1-8.3c-0.4-0.6-0.7-1.2-1.1-1.7c-1.3-1.9-3.5-4.4-5.9-5.5
	c-0.8-0.4-2-1-2.8-1c-0.1,0-0.2,0-0.3,0c-1.4,0.2-2.9,2.5-3.5,3.3c-2.4,3.5-2.2,7.6-1.8,13.6c0.1,1.2,0.7,3.2,1.5,5.4
	c0.8-0.3,1.7-0.7,2.5-1c4-1.5,9-2.2,15.7-2.2c2.5,0,5.3,0.1,8.5,0.3c11.4,0.7,21,2.6,22.1,2.9c21,5.4,33.1,23.1,37.1,28.9
	c13.3,19.4,13.8,33.2,14,40.6c0.3,9.8,0.7,20.8-2.7,31c0.3,0.1,0.6,0.2,0.8,0.4c20.7,9.2,30.1,33.1,30.2,33.4
	c8.2,22.5-1,42.1-4,47.5c-12.9,23.5-33.6,29.6-41.8,31.1C59.4,379.9,55.8,380.2,52.2,380.2z"/>
<path class="st0" d="M-53,182.4c0,0,0-6.6,0-11.9c0,0-0.1-10.2,2-22.9c0.6-3.7,3.3-20.3,16.2-27.5c11.1-6.2,23.1-2.2,25.9-1.3
	c1.2,0.4,14,4.8,18.9,15.2c1.8,3.8,2.1,7.6,2.3,9.6c0.3,3.1,0.5,5.6-1.2,7c-1.3,1.1-3.3,1-4.6,0.5c-2.5-0.9-3.1-3.1-5.1-6.1
	c-1-1.4-4.4-6.3-9.8-8.9c-1.7-0.9-5.1-2.5-9.1-1.8c-5.6,0.9-8.8,5.7-10.1,7.6c-4.3,6.5-4,13.3-3.5,19.9c0.5,6.7,6.5,18.2,6.5,18.2
	s4.4-2.7,10.9-5.1c4.6-1.7,11.6-1.8,20.1-1.3c11.2,0.7,20.1,2.6,20.1,2.6c17.4,4.5,27.6,19.4,31.3,24.9c11.3,16.5,12,27.8,12.3,35.3
	c0.4,11.1,0.6,21.4-3.2,30.3c-1.4,3.3-3.1,5.5-3.1,5.5s5.7,2.2,10.5,4.4c15.4,6.9,24.1,25.4,24.9,27.6c7.1,19.6-1.9,36.7-3.3,39.3
	c-10.6,19.2-27.3,24.7-34.9,26.1c-11.4,2.1-29.8,0.6-46.5-13.3c-14.6-12.2-15.7-34.5-15.7-34.5S-10,322.1-19,323
	c-4.7,0.5-18.9,1.6-38.3-2.2c-4.8-0.9-7-2.6-7-2.6s0.8,6.9-2,15.2c-3.6,10.6-10.3,18.5-14.4,21.9c-2.8,2.3-14.3,11.6-30.8,10.8
	c-18.3-0.9-30.2-11.4-33.8-15.4c-3.7-4.1-10.1-14.3-11.8-27.2c-0.3-2.6-0.4-17.6,7.8-30.3c9.1-14.2,25-18.6,25-18.6s-2.4-4.9-4-11.7
	c-0.3-1.3-1.5-6.6-1.8-8.8c-0.4-2.7-0.3-8-0.4-11.9c0-0.3-1.3,0.3-1.4-0.6c-0.2-2.1,0-4.9-0.1-9.5c-0.1-6.6-0.1-10.4-0.5-16
	c-0.5-7.8-1.2-6.5-0.4-8.1c0.8-1.7,5-2.9,12.4-3.7c1.2-0.4,6-11,16.2-16.5c6.7-3.6,16.9-11.1,32.5-11.6C-63,175.8-53,182.4-53,182.4
	z"/>
<path class="st1" d="M178.5,92c1.2-2.9,2.4-6.6,2.5-7.9c0.3-3.6,0.2-6.6,0.2-10.2c-0.2-6.6-0.3-14.1,2.1-25.9
	c1.4-7,3.2-14.4,7.4-20.7c2.3-3.6,7.8-11.9,19.3-16c3.8-1.4,8-2,12.5-2c5.4,0,10.2,1,13.2,1.8c4.2,1.2,13,4.7,19.5,10.9
	c6.2,5.8,9.4,11.4,10.4,18.2c0.1,0.5,0.2,1.1,0.3,1.6c0.8,4.8,2.1,12.1-3,17.8c-2.5,2.8-6.1,4.4-10,4.4c-2,0-3.6-0.4-4.5-0.6
	c-5.5-1.3-9-6.4-10.6-9.3c-1.2-2.2-3.1-4.4-3.7-4.9c-2.4-2-3.3-2.5-5.6-2.9c-0.7,0.3-2.3,1.3-3.7,3.3c-1.7,2.6-2,4-2.1,7.6
	c-0.1,4.1-0.2,7.6,3.4,16c0.6,1.5,1.2,2.6,1.6,3.4h4.3l3.1,16.2l-7.7,3.1l-0.4,0.1c-0.1,0.1-0.4,0.2-1,0.6c-0.9,0.5-1.9,1.1-2.1,1.4
	c-1.3,1.6-2.2,2.6-2.2,2.6l-5.1,6l-7-3.6c-0.1-0.1-0.4-0.2-0.8-0.3c-0.3,0.1-0.6,0.3-0.9,0.4c-1.8,0.8-2.8,1.3-2.8,1.3l-4.8,2.5
	l-4.8-2.6c-0.4-0.2-1-0.5-1.5-0.7c-0.2,0.1-0.4,0.2-0.4,0.2l-8.3,6.1c-5.8,4.3-13.6-1.8-10.8-8.5L178.5,92z"/>
<path class="st1" d="M187.8,95.9c0,0,4.2-3.1,7.8-2.1c2.3,0.6,4.8,2,4.8,2s1.3-0.7,3.6-1.7c1.8-0.8,4.2-1.8,6.5-1.2
	c1.9,0.5,3.6,1.4,3.6,1.4s0.8-1,2-2.4c1.4-1.7,3-2.6,4.9-3.7c1.9-1.1,2.1-1.1,2.7-1.3c0.1,0-2.4,1-6.8-9.4
	c-4.5-10.4-4.4-15.5-4.3-20.2c0.1-4.9,0.7-8.4,3.7-13c3.3-5.1,8.9-8.5,13-7.8c4.5,0.7,7.1,1.9,11,5.2c1.4,1.2,4.1,4.3,6,7.7
	c1.1,2.1,2.9,4.1,4.1,4.4c1.2,0.3,3.5,0.9,4.9-0.7c2.2-2.5,0.9-7.4,0.3-11.3c-0.7-4.5-2.7-8.1-7.4-12.4c-5.1-4.8-12.3-7.7-15.3-8.5
	c-3.1-0.8-11.8-2.8-19.6,0c-8.4,3-12.4,9.1-14.3,12.1c-3.4,5.1-4.9,12-5.9,17.2C189.6,66.9,192,73.7,191,85
	C190.7,88.9,187.8,95.9,187.8,95.9z"/>
<path class="st2" d="M469.4,214.5c-0.8,0-1.6,0-2.3,0c-33.8-1.4-38.6-6.5-40.4-8.4l-2.7-2.9v-4c0-6-0.8-13.3-6.8-22.3
	c-4.8-7.1-14.7-12.4-25.4-13.5c-1-0.1-2.1-0.2-3.3-0.2c-5.2,0-10.3,1-12.5,1.4c-1.2,0.2-1.9,0.4-3,0.4l-5.8,0l-2.9-5
	c-4.1-7.2-8.1-24-7.5-37.6c0.2-5.4,4.7-9.6,10.1-9.6c2.5,0,7.1,0.5,10,4.1c0.3,0.4,0.6,0.7,0.9,1.1c0.3,0,3.1-0.1,3.6-0.1l1.8-3.8
	l0.2-1.4c0.2-1.3,0.4-3.2,0.5-3.8c0.3-5.1-0.1-7.9-0.2-8.5l-0.3-1.8l0.3-2c0.1-0.7,0.2-1.4,0.3-2c0,0-0.1,0-0.1,0
	c-1.8,0-3.4,0.1-4.7,0.2c-0.9,0.1-1.5,0.1-2.1,0.1c-3.7,0-7-1.9-8.8-5l-2.9-4.9l2.8-5c8.4-15,20.2-21.5,34.9-28.4
	c6.7-3.2,13.7-4.8,20.8-4.8c14.8,0,25,6.8,26.1,7.6l4.9,3.4l-0.5,4.3c2.2-0.8,4.8-1.4,7.7-1.4c0.2,0,0.4,0,0.6,0l-0.8-2.4l3-4.2
	c3.1-4.3,17.2-10.8,30.2-10.8c0.3,0,0.6,0,0.9,0c18.5,0.4,34.2,3.6,43.1,8.7c16.9,9.7,28.3,28.2,32.4,37.6c7.2,16.7,6.5,29,5.7,44.7
	c-0.1,1.2-0.1,2.4-0.2,3.7c-0.2,4.1-1.6,8.8-4.2,14c-2.7,5.5-5.3,10.7-11.9,10.8l-0.7,0l-0.7-0.1c-3.9-0.5-7.7-1-11.8-1
	c-3.9,0-7.4,0.4-10.6,1.3c-10.4,2.9-17.6,6.2-23.2,14.6c-7.4,11.1-7.7,17.6-7.5,23.7l0.2,4.3l-3,3.1c-2.7,2.8-4,3-16,4.3
	C482.3,213.8,474.9,214.5,469.4,214.5z"/>
<path class="st2" d="M473,60.1c-0.1-0.3,10.9-6.9,22.8-6.6c19.2,0.4,32.3,3.9,38.4,7.4c14,8,24.4,24.2,28.2,32.9
	c6.8,15.7,5.6,26.6,4.6,43.8c-0.3,6.5-6.1,15.3-6.2,15.3c-6.7-0.9-16.5-2.2-26.4,0.6c-11.4,3.1-21.4,7.5-28.8,18.7
	c-8.3,12.4-9.5,20.9-9.1,29.8c0,0.1-19.7,2.8-28.9,2.4c-29.7-1.2-33.6-5.3-33.6-5.3c0-8.3-1.6-17.5-8.5-27.8
	c-6.9-10.3-19.9-16.6-32.7-17.9c-9.4-0.9-19.7,1.7-19.8,1.5c-3.1-5.4-6.7-20.3-6.2-32.2c0-0.1,2.3,0.3,2.4,0.4
	c1.6,1.9,3.5,4.5,3.7,4.5c2.5,0.5,4,0.3,7.4,0.2c4.5-0.2,5.8-0.3,7.7-0.7c0.2,0,2.5-5.1,2.5-5.1s2.5,0.2,2.5,0.1
	c0.5-2,0.1-3.5,0.2-3.5c3.6,1.4,8.9-0.4,8.9,0.2c0,5.2,3.6,5.1,4.6,5.2c1.7,0.1,0.2-13.2,0.1-13.3c-0.8-0.8-2.4-0.5-3.9,0.6
	c-1.6,1.2-1.1,4-1.2,3.9c-1.7-0.8-8.5-1.3-8.5-1.3s0.5-3.2,0.5-4.6c0.4-7.1-0.3-10.7-0.3-10.8c1.5-7.1,0.2-11.9,0-12
	c-5-3.4-16.8-1.3-16.6-1.7c7-12.6,17.2-18,30.5-24.2c20.3-9.6,36.9,2,36.9,2s-0.4,3.4-1.4,6c-1.9,5-1.9,5.3-1.9,5.3s2.3-1.9,5.3-2.4
	c3.6-0.6,7.7,2.1,7.7,2.1s6.7-5.3,13.6-1.3c0.1,0.1,3.5-5.8,9.7-7.4C477.4,64.9,474.6,64.9,473,60.1z"/>
<path class="st1" d="M594,299.2c-13.6,0-14.7-8.5-14.7-11.1c0-5.3-0.3-15.8-0.6-25.1c-0.1-5.1-0.3-9.9-0.4-13.4
	c-0.2-7.5-0.3-10.9,4-14.1c2.6-1.9,5.2-2.6,8.6-3.3l1.5-0.4c5.9-1.4,12.2-2.1,18.7-2.1c1.7,0,3.4,0,5.1,0.1l2.2,0.1
	c3.4,0.2,6.4,0.3,8.8,0.7c10.3,1.4,11.7,7.9,11.9,10.6c0.1,1.7,0.6,39,0.1,45.4c-0.6,7.6-8,9.4-11.1,10.2c-2.3,0.6-5.9,1.3-9.7,1.3
	c-2.8,0-5.4-0.4-7.6-1.1c-0.7-0.2-1.4-0.5-2-0.7c-2.7,1.3-6.2,2.5-10,2.8C596.9,299.2,595.3,299.2,594,299.2
	C594,299.2,594,299.2,594,299.2z"/>
<path class="st1" d="M588.2,243.6c-0.3,0.2,1,33.1,1,44.5c0,1.4,5,1.2,8.7,1c5.4-0.4,10.1-4.1,10.1-4.1s2.4,1.4,5.8,2.5
	c5.5,1.9,15.2-1.1,15.3-1.6c0.4-5.7,0-42.4-0.1-44.1c-0.1-1.4-5.9-1.6-13.4-2c-10.2-0.6-17.4,0.9-20.9,1.7
	C591.1,242.4,589.3,242.8,588.2,243.6z"/>
<path class="st3" d="M465.2,314c-1,0-2.7-0.1-4.2-0.2c-10.4-1.1-11.1-8.8-11.1-10.4c-0.3-13.8-0.9-30.5-1.3-42.8l-0.1-1.8
	c-0.1-3.1,1-8.6,9.5-11c1.7-0.5,3.8-0.9,6.5-1.4c5-0.9,10.7-1.5,14.9-1.7c1.1-0.1,2.4-0.1,3.6-0.1c4,0,8.5,0.3,12.2,0.7
	c2,0.2,3.7,0.5,5,0.8c8.4,2,9.1,8.4,9.1,10.3c0.2,19.2,0.2,44.4,0.2,44.7l0,7.8L502,311c-7.7,1.9-9.7,1.9-10.5,1.9
	c-5,0-9.2-3.3-10.2-8c-1.1-5,0.5-10.2,2.4-14.3c-0.1-0.2-0.3-0.5-0.4-0.7c-2-3.6-2.7-7.9-2.8-12.2c0,0,0,0-0.1,0
	c-0.7,0.4-1.5,0.9-2.4,1.2c0.1,1.7,0.1,3.4-0.2,5c-0.5,3.5-1.5,6.3-2.8,8.6c1.1,3.6,1.4,8.1,0.4,13.3
	C474.9,308.9,472.1,314,465.2,314L465.2,314z"/>
<path class="st3" d="M465.6,304c1.9-10.1-3.2-13.2-3.2-13.2s4.4-0.2,5.6-8.3c0.7-4.6-1.9-11.5-1.8-11.5c12.1,0.5,13.5-7.8,13.5-7.8
	s3.5,7.7,11.1,6.5c0.2,0-1.4,10.4,1.3,15.4c1.9,3.5,3.6,4.8,3.6,4.8s-5.7,7.7-4.6,12.8c0.1,0.6,8.5-1.5,8.5-1.5s0-25.3-0.2-44.6
	c0-1-11.4-2.3-19.5-1.9c-8,0.4-21.4,2.6-21.3,3.8c0.4,12.1,1,30.1,1.4,44.6C459.9,304,465.6,304.1,465.6,304z"/>
<path class="st1" d="M721.8,332c0,0-4.4-0.8-11-0.8c-2,0-4,0.1-6,0.2c-10.3,0.8-17.2,1-17.5,1.1l-2.9,0.1c-2.8,0.1-5.4-1.7-6.3-4.4
	l-0.8-2.7c-0.4-1.4-1.2-5.2-1.5-14.1c-0.2-8.7,0-12.2,0-12.8l0.2-2.9c0.2-3.1,2.6-5.6,5.7-5.9l2.9-0.3c0.3,0,7.1-0.8,19.2-1.5
	c4.4-0.3,8.5-0.4,12.3-0.4c5.4,0,8.2,0.3,8.5,0.3l3.4,0.3c3.5,0.4,6.1,3.4,5.8,6.9l-0.2,3.4c0,0-0.4,5.5-0.1,12.8
	c0.3,7.8,0.3,10.7,0.3,10.8l0,0C733.9,328.4,728.1,333.3,721.8,332L721.8,332z"/>
<path class="st1" d="M685.8,299.3c0,0,6.6-0.8,18.6-1.5c12.9-0.8,19.1-0.1,19.1-0.1s-0.4,5.8-0.1,13.8c0.3,7.8,0.3,10.7,0.3,10.7
	s-8.1-1.7-19.8-0.8c-10.2,0.8-17.1,1-17.1,1s-0.8-2.5-1-11.5C685.6,302.4,685.8,299.3,685.8,299.3z"/>
<path class="st4" d="M177.5,433.2c-1.7,0-1.7,0-16.4-4.6l-3.7-1.2c-3-0.9-4.8-4.1-4-7.1l1-3.7c1.6-6.2,3.2-12.7,10.9-13.2
	c2.6-0.1,4.6-0.4,5.9-0.6c1.1-0.1,1.9-0.3,2.8-0.3c2.5,0,5,0.9,6.8,2.6c2.4,2.1,7.1,5.6,8.7,6.8l4.1,3c3.8,2.7,3.6,8.4-0.4,10.9
	l-4.3,2.7c-0.4,0.3-4.2,2.6-7.8,4l-1.8,0.7H177.5z"/>
<path class="st4" d="M164.2,419c0.5-1.9,1.5-5.6,1.8-5.7c5-0.3,8.1-1,8.3-0.8c3.3,3,9.5,7.4,9.5,7.4l0,0c0,0-3.3,2.1-6.2,3.2
	C177.5,423.2,164.2,419,164.2,419z"/>
<path class="st4" d="M201.1,465.6c-4.6,0-7.8-2.9-10.4-6.1l-2.1-2.5c-4.7-5.5-0.8-13.9,6.4-13.9c5.3-0.1,9.7-0.1,9.7-0.1h8.3
	c3.6,0,6,3.8,4.4,7l-3.7,7.4c-1.4,2.7-5.3,6.1-8.6,7.4l-0.2,0.1l-1.8,0.6L201.1,465.6z"/>
<path class="st4" d="M198.3,453c0,0,6.2-0.1,6.2-0.1c0,0-1.8,2-3.4,2.6C200.6,455.8,198.3,453,198.3,453z"/>
<path class="st4" d="M229.2,427c-3.3,0-6.2-2-7.5-5.1l-0.5-1.3c-2.2-5.6-4-18.6-4.5-22.4l-0.3-2.1c-0.5-3.8,2-7.5,5.7-8.4l2.1-0.5
	c0.9-0.2,5.4-1.3,9.5-1.4c0.3,0,0.5,0,0.8,0c5.3,0,9.9,1.1,10.4,1.2l3.8,0.9c3.1,0.7,5,3.7,4.4,6.8l-0.7,3.8c0,0.2-1.1,5.7-2.5,11.2
	c-0.7,2.5-2.1,5-7.4,10.3c-4.9,4.8-7.7,7-11.9,7H229.2z"/>
<path class="st4" d="M226.6,396.9c0,0,4.1-1,7.4-1.1c4.5-0.1,8.6,0.9,8.6,0.9s-1,5.3-2.3,10.5c-0.5,2-9.5,10.3-9.7,9.8
	C228.6,412,226.6,396.9,226.6,396.9z"/>
<path class="st5" d="M198.1,383c-0.2-0.2-4.7-4.3-6.8-6.3c-3.3-3.2-6.9-6.4-6.9-6.4l-2.6-2.3c-2.8-2.5-3-6.8-0.5-9.5l2.4-2.5
	c0.3-0.3,3-3.2,7.2-6.3c4.7-3.5,8-5,8.7-5.2l2.9-1.2c3.7-1.5,7.9,0.4,9.3,4.2l1,3c0.6,1.7,1.2,3.4,1.7,5c0.9,2.8,1.9,5.7,2.5,7.1
	c3.1,6.8,3.9,9.8,4.1,10.8l1.3,5.7c0.7,3.1-1.6,6.1-4.8,6.2l-5.9,0.2c0,0-2.2,0.1-2.9,0.1c-1,0.1-3.1,0.1-3.9,0.1l-1.1,0
	c-1.8,0-3.5-0.7-4.9-1.9L198.1,383z"/>
<path class="st5" d="M203.3,353.6c1.8,5.1,3.3,10.2,4.6,12.9c3,6.6,3.5,8.9,3.5,8.9s-2.3,0.1-3,0.1c-0.9,0-3.4,0.1-3.4,0.1
	s-4.5-4.2-6.6-6.2c-3.5-3.4-7.3-6.7-7.3-6.7l0,0c0,0,2.3-2.5,5.8-5.1C200.8,354.6,203.3,353.6,203.3,353.6z"/>
<path class="st6" d="M143.7,325.3c-0.7,0.1,2.5-6,2.8-5.8c2.6,2.6,5.3,4.8,5.3,4.8S150.4,324.9,143.7,325.3z"/>
<path class="st4" d="M269.4,151c-18.4,0-21.6-4.6-23-6.5c-3-4.2-3.3-15.6-2.1-19c2.9-8.7,12.3-9.7,22.2-10.7c2-0.2,4-0.3,5.9-0.3
	c9.6,0,14.5,2.7,16.1,3.8l3.4,2.4l0.7,4.1c0.8,4.4,1.7,12.5-0.8,18.1c-2,4.4-5.9,5.7-10.1,6.7c-2.4,0.6-6.4,1.3-11.1,1.4
	C270.2,151,269.8,151,269.4,151z"/>
<path class="st4" d="M282.8,126.6c0,0,1.5,8.6-0.1,12.2c-0.1,0.1-5,2.1-12.3,2.2c-9.4,0.1-15.2-1.3-15.9-2.3
	c-0.5-0.7-1.3-8.5-0.8-10c0.5-1.5,2-2.7,13.8-3.9C278.6,123.7,282.8,126.6,282.8,126.6z"/>
<path class="st7" d="M242.3,206.3c-3.7,0-7.1-0.4-9.3-0.6c-1.2-0.2-2.3-0.3-3.2-0.5c-8.7-1.7-9.1-8.7-9.1-10.1c0-0.2,0-0.6,0-1.3
	c0.2-10.7,0.1-17.8-0.2-21.1l0-0.3c-0.7-7.4,6.8-12.8,13.6-9.9h0c0.5,0.2,4.5,1.5,10.6,1.5c0.3,0,0.6,0,1,0
	c4.2-0.1,8.7-1.1,10.4-1.4c0.9-0.2,1.7-0.4,2.9-0.4h1.9l1.8,0.7c6.6,2.6,6.6,8.8,6.6,14.7c0,3.4-0.2,9.4-1,18.2
	c-0.1,1.3-1.1,7.8-8.9,9.1c-0.5,0.1-1.3,0.2-2.6,0.4c-2.6,0.3-6.3,0.6-10.8,1C244.8,206.2,243.6,206.3,242.3,206.3z"/>
<path class="st7" d="M230.5,171.7c0,0,5.9,2.4,15.4,2.2c6.4-0.1,12.9-1.9,13-1.8c0.2,0.1,0.8,6.8-0.6,22.7c0,0.1-2.8,0.6-13.1,1.4
	c-6.6,0.5-14.5-1-14.5-1.1C230.8,193.9,231.1,178,230.5,171.7z"/>
<path class="st4" d="M183.9,190c-1.6,0-2.8-0.1-4.2-0.3l-0.5-0.1c-4.8-0.6-7.3-3.9-10.8-8.5l-1.4-1.9c-5.2-6.8,1-16.3,9.3-14.4
	l1.9,0.4c0.3,0,1.9,0.3,4.7,0.3c1.3,0,2.8,0,4.2-0.1c5.9-0.4,8.9-0.8,9-0.8l8.1-1.2c4.7-0.7,8.2,4.2,6.1,8.4l-3.7,7.3
	c-1,1.9-2.2,4.3-2.9,5.3c-3,4.9-7.2,5.1-16.4,5.5C186,189.9,184.9,190,183.9,190z"/>
<path class="st4" d="M176.4,175.1c0,0,3.8,0.7,11.4,0.3c6.5-0.4,9.9-0.9,9.9-0.9s-1.9,3.7-2.5,4.6c-0.2,0.3-3.5,0.6-8.5,0.8
	c-3.6,0.2-3.8,0.1-6.4-0.2C179.9,179.6,176.4,175.1,176.4,175.1z"/>
<path class="st8" d="M211.5,229.5c-4.4,0-7.9-2.4-9.2-3.5c-0.6-0.5-1.1-1-1.6-1.5c-2.8-0.1-5-0.6-6.8-1.5c-7.2-3.6-5.6-12-5-15.2
	c0.8-4,4.2-8.1,10.3-8.1c0.2,0,0.9,0,1.8,0c2.6-2.5,6.2-4.1,9.9-4.1c1.9,0,3.7,0.4,5.4,1.3c5.2,2.6,5.7,8,6,10.6
	c1.6,15.1-1.6,17.8-3.8,19.5C216.6,228.6,214.1,229.5,211.5,229.5C211.5,229.5,211.5,229.5,211.5,229.5z"/>
<path class="st8" d="M198.8,209.6c0-0.1,5.1,0,8.3,0.9c0.1,0-0.3-1.4,0.4-3c0.7-1.4,3.1-2.3,4.3-1.8c0.8,0.4,1.4,12.7,0.5,13.5
	c-0.8,0.6-2.5-0.1-3.6-1c-1.4-1.1-1.3-4.1-1.4-4.1c-3,0.4-7.4,0.5-8.7-0.2C198.4,214,198.2,212.4,198.8,209.6z"/>
<path class="st9" d="M205.2,277.9c-4.6,0-7-2.2-14.6-9.9c-8.1-8.1-9.5-10.4-10-13.7c-0.7-5,2.2-9.7,7.1-11.2c4.3-1.3,8.9-2,13.5-2
	c7.1,0,12,1.5,12.9,1.9l3.9,1.3c3.6,1.2,5.4,5.4,3.7,8.8l-1.8,3.7c-1.5,3.1-4.1,9.3-4.7,12.8l-0.4,2.3c-0.6,3.4-3.6,6-7.1,6
	L205.2,277.9z"/>
<path class="st9" d="M210.8,252.5c0,0-9.2-3.1-20.3,0.2c-1.2,0.4,14.6,15.9,14.7,15.2C206.3,261.8,210.8,252.5,210.8,252.5z"/>
<path class="st10" d="M233,319.2c-5,0-12.6-5.7-14.4-8.6l-0.7-1.2c-1.4-2.3-1.5-5.1-0.2-7.5l0.6-1.3c2.3-4.3,5.7-12.7,6.8-15.6
	l1.8-4.5c1.4-3.4,5.5-4.8,8.6-2.9l4.1,2.5c0.3,0.2,2.9,1.8,6.8,4.7c3,2.3,6.1,5.7,6.7,6.3l6.5,7.2l-7,6.7
	c-0.4,0.3-8.6,8.2-13.3,11.9l-2.7,2.1L233,319.2z"/>
<path class="st10" d="M234.5,288.8c0,0-4.3,10.9-7.3,16.6c-0.2,0.3,5.5,4.1,5.9,3.8c4.4-3.4,12.6-11.2,12.6-11.2s-2.9-3.2-5.3-5
	C236.8,290.2,234.5,288.8,234.5,288.8z"/>
<path class="st11" d="M155.8,277.1c-2.5,0-5.2-0.7-12.4-4.2c-7.5-3.7-10-5-11.3-9.5l-1.7-6c-0.2-0.7,0.1-1.5,0.7-2l5.2-3.3
	c0.6-0.4,2.3-1.4,13.3-5.9l6.9-2.8c1.6-0.6,3.3,0.2,3.9,1.8l2.4,7c3.9,11.2,4.9,16.6,0.8,21.2C161.7,275.8,158.8,277.1,155.8,277.1
	C155.8,277.1,155.8,277.1,155.8,277.1z"/>
<path class="st11" d="M153.4,255.6c0,0-10.2,4.1-11.7,5.1c-0.1,0,13.5,7.4,14.4,6.3C157,266,153.4,255.6,153.4,255.6z"/>
<path class="st1" d="M283.9,359.3c-2.9,0-5.7-1.2-7.7-3.3c-4-4.1-3.9-9.2-3.6-20.4c0.2-7.4,0.4-17.5-0.4-29.4
	c-1-14.1-1.6-26.3-1.9-34c-0.2-4.3-0.3-7.7-0.3-10.1c-0.1-5.2-0.2-7.9,2.8-10.9c5.7-5.7,12.3-8.3,23.1-11.3c5.4-1.5,11.7-1.8,16-1.8
	c6.2,0,14.6,0.7,19.2,2.6c2.1,0.8,12.6,5.4,15.7,11.7c1.2,2.4,1.2,2.4,1,20c-0.1,6.6-0.2,19.4-0.6,31.9c-0.3,10.8,0.8,19.6,1.6,26.6
	c1.3,10.4,2.4,19.4-5.7,24.1c-3.2,1.8-6.1,1.9-20.9,2c-11.2,0.1-28.2,0.2-36,1.9C285.4,359.2,284.7,359.3,283.9,359.3z"/>
<path class="st1" d="M279.9,258.3c3.7-3.7,8.1-5.8,18.6-8.7c9.2-2.5,24.6-1.3,28.8,0.4c5,2,9.7,5.3,10.6,6.9
	c0.1,0.2,0,25.3-0.6,47.2c-0.7,24.6,5.3,39.8,0.9,42.3c-2.4,1.4-39.2-0.3-54,2.9c-3.5,0.7-0.1-16.9-2-43.7
	C280.2,278.7,279.8,258.3,279.9,258.3z"/>
<path class="st8" d="M446.5,471c-8,0-16.2-1.5-23.5-4.4c-17.5-6.8-26.8-20-30-25.3c-1.5-2.5-14.3-25-5-50.8
	c4.3-11.9,11.4-19.6,15.3-23.1c12-10.9,25.4-13.5,29.8-14.3c1.8-0.3,7.1-1.3,14.1-1.3c11.3,0,27.6,2.7,41.3,15.3
	c20.4,18.9,18.7,44.8,17.6,52.3c-2.1,15-8.9,27.9-19.7,37.3C475.5,465.9,461.4,471,446.5,471z"/>
<path class="st8" d="M409.9,374.8c9.7-8.9,20.5-11,24.9-11.9c4.3-0.8,28.5-5.4,46.7,11.5c17.8,16.5,15,39.7,14.5,43.6
	c-0.6,4.2-2.9,19.5-16.3,31c-15,12.9-36.4,14.7-53.1,8.2c-15.6-6.1-23.2-18-25.1-21.1c-0.9-1.5-12-20.6-4.2-42.3
	C401.2,383,408.1,376.5,409.9,374.8z"/>
<path class="st8" d="M310.3,556.9c-7.5,0-15.1-1.4-21.9-4.2c-16.3-6.5-25-19-28-24c-1.4-2.3-13.2-23.6-4.7-48
	c3.9-11.2,10.6-18.6,14.2-21.9c11.2-10.4,23.7-12.8,27.8-13.6c1.6-0.3,6.6-1.3,13.1-1.3c15.1,0,28.5,5.1,38.6,14.6
	c19,17.9,17.3,42.4,16.4,49.5c-1.9,14.2-8.2,26.4-18.3,35.3C337.5,552,324.3,556.9,310.3,556.9z"/>
<path class="st8" d="M276.7,466.1c9-8.3,18.9-10.4,22.9-11.1c3.9-0.8,26.2-5.1,42.9,10.8c16.3,15.5,13.8,37.2,13.3,40.9
	c-0.5,4-2.7,18.3-15,29.1c-13.8,12.1-33.5,13.8-48.8,7.7c-14.3-5.7-21.3-16.9-23.1-19.8c-0.8-1.4-11-19.3-3.9-39.6
	C268.8,473.7,275,467.6,276.7,466.1z"/>
<path class="st6" d="M139.6,328.9c-1.7,0.1,5.9-14.1,6.5-13.6c4,4,8.2,7.6,10.5,9.6c0.8,0.7,0.4,2-0.6,2.2
	C153.5,327.6,148.6,328.2,139.6,328.9z"/>
</svg>
