<?xml version="1.0" encoding="utf-8"?>
<!-- Generator: Adobe Illustrator 26.3.1, SVG Export Plug-In . SVG Version: 6.00 Build 0)  -->
<svg version="1.1" id="Layer_1" xmlns="http://www.w3.org/2000/svg" xmlns:xlink="http://www.w3.org/1999/xlink" x="0px" y="0px"
	 viewBox="0 0 566.9 566.9" style="enable-background:new 0 0 566.9 566.9;" xml:space="preserve">
<style type="text/css">
	.st0{fill:none;stroke:#000000;stroke-miterlimit:10;}
	.st1{fill:none;stroke:#CE2D5C;stroke-miterlimit:10;}
	.st2{fill:none;stroke:#4EB848;stroke-miterlimit:10;}
	.st3{fill:none;stroke:#D5A380;stroke-miterlimit:10;}
	.st4{fill:none;stroke:#273A96;stroke-miterlimit:10;}
	.st5{fill:none;stroke:#4DB748;stroke-miterlimit:10;}
	.st6{fill:none;stroke:#CA9E2C;stroke-miterlimit:10;}
	.st7{fill:none;stroke:#405AA8;stroke-miterlimit:10;}
	.st8{fill:none;stroke:#3EB6E9;stroke-miterlimit:10;}
	.st9{fill:none;stroke:#B8529F;stroke-miterlimit:10;}
	.st10{fill:none;stroke:#9D4B9D;stroke-miterlimit:10;}
	.st11{fill:none;stroke:#85D3EE;stroke-miterlimit:10;}
</style>
<path class="st0" d="M52.2,372.2c-8,0-23.8-1.9-39-14.6C0.5,347-2.4,329.6-3.1,323.7c-3.1,0.2-9.4,0.7-15.7,1.3
	c-3.4,0.4-7.1,0.5-11.1,0.5c-9,0-18.4-0.9-27.9-2.8c-1.8-0.4-3.3-0.8-4.5-1.3c-0.1,3-0.5,7.5-2.2,12.5c-3.6,10.6-10.3,18.9-15,22.8
	c-8.7,7.3-19.4,11.3-30.1,11.3c-0.7,0-1.4,0-2.1,0c-20.7-1-32.9-13.6-35.2-16.1c-3.8-4.2-10.6-14.9-12.3-28.3
	c-0.4-3.4-0.3-18.6,8.1-31.7c7.5-11.6,19.2-17,23.9-18.7c-0.9-2.1-2.2-5.7-3.3-10c-0.3-1.3-1.5-6.7-1.8-9c-0.3-2-0.3-5.2-0.4-8.3
	c0-0.7,0-1.5,0-2.2c-0.9-0.4-1.3-1.2-1.4-2c-0.1-1.3-0.1-2.7-0.1-4.5c0-1.5,0-3.1,0-5.2c0-1.5-0.1-2.8-0.1-4.1
	c-0.1-4.4-0.1-7.5-0.4-11.8c-0.2-3.3-0.5-5-0.6-5.8c-0.2-1.5-0.2-1.9,0.4-3.3c0.8-1.7,3-3.6,13.3-4.8c0.3-0.4,0.7-1,1.1-1.6
	c2.5-3.7,7.2-10.5,15.1-14.8c1-0.5,2-1.1,3.2-1.8c6.5-3.8,16.4-9.5,30.2-10c0.2,0,0.4,0,0.6,0c6.1,0,12.5,2.9,16.2,4.8
	c0-2.4,0-5.6,0-8.5c0-0.4-0.1-10.5,2-23.2c2.3-13.9,8.2-23.9,17.2-28.9c4.3-2.4,9.3-3.7,14.6-3.7c6.2,0,11.2,1.6,12.8,2.2
	c1.5,0.5,14.8,5.2,20.1,16.3c2,4.2,2.3,8.1,2.5,10.3c0.3,3.3,0.6,6.6-1.9,8.7c-1,0.8-2.4,1.3-3.9,1.3c-0.9,0-1.8-0.2-2.7-0.4
	c-2.5-0.9-3.6-2.8-4.8-4.8c-0.4-0.7-0.8-1.4-1.3-2.1c-1.2-1.7-4.3-6-9-8.3c-1.4-0.7-3.6-1.8-6.3-1.8c-0.5,0-1.1,0-1.6,0.1
	c-4.8,0.8-7.6,5-8.8,6.8c-4.1,6.1-3.6,12.7-3.1,18.6c0.3,4.6,3.7,12.1,5.4,15.6c1.9-1,5.2-2.7,9.4-4.2c3.1-1.1,7.2-1.7,12.9-1.7
	c2.3,0,4.9,0.1,8,0.3c11.5,0.7,20.4,2.7,20.5,2.7c18.1,4.7,28.5,19.9,32.5,25.7c12,17.5,12.4,29.8,12.6,36.4
	c0.4,10.6,0.7,21.6-3.4,31.2c-0.6,1.5-1.3,2.8-1.9,3.8c2.1,0.9,5.4,2.2,8.3,3.5c15.2,6.8,24.5,24.7,26,28.8
	c7,19.4-0.9,36.2-3.4,40.9c-11.3,20.5-29.1,25.8-36.3,27.1C58.4,371.9,55.3,372.2,52.2,372.2z"/>
<path class="st0" d="M-53,182.4c0,0,0-6.6,0-11.9c0,0-0.1-10.2,2-22.9c0.6-3.7,3.3-20.3,16.2-27.5c11.1-6.2,23.1-2.2,25.9-1.3
	c1.2,0.4,14,4.8,18.9,15.2c1.8,3.8,2.1,7.6,2.3,9.6c0.3,3.1,0.5,5.6-1.2,7c-1.3,1.1-3.3,1-4.6,0.5c-2.5-0.9-3.1-3.1-5.1-6.1
	c-1-1.4-4.4-6.3-9.8-8.9c-1.7-0.9-5.1-2.5-9.1-1.8c-5.6,0.9-8.8,5.7-10.1,7.6c-4.3,6.5-4,13.3-3.5,19.9c0.5,6.7,6.5,18.2,6.5,18.2
	s4.4-2.7,10.9-5.1c4.6-1.7,11.6-1.8,20.1-1.3c11.2,0.7,20.1,2.6,20.1,2.6c17.4,4.5,27.6,19.4,31.3,24.9c11.3,16.5,12,27.8,12.3,35.3
	c0.4,11.1,0.6,21.4-3.2,30.3c-1.4,3.3-3.1,5.5-3.1,5.5s5.7,2.2,10.5,4.4c15.4,6.9,24.1,25.4,24.9,27.6c7.1,19.6-1.9,36.7-3.3,39.3
	c-10.6,19.2-27.3,24.7-34.9,26.1c-11.4,2.1-29.8,0.6-46.5-13.3c-14.6-12.2-15.7-34.5-15.7-34.5S-10,322.1-19,323
	c-4.7,0.5-18.9,1.6-38.3-2.2c-4.8-0.9-7-2.6-7-2.6s0.8,6.9-2,15.2c-3.6,10.6-10.3,18.5-14.4,21.9c-2.8,2.3-14.3,11.6-30.8,10.8
	c-18.3-0.9-30.2-11.4-33.8-15.4c-3.7-4.1-10.1-14.3-11.8-27.2c-0.3-2.6-0.4-17.6,7.8-30.3c9.1-14.2,25-18.6,25-18.6s-2.4-4.9-4-11.7
	c-0.3-1.3-1.5-6.6-1.8-8.8c-0.4-2.7-0.3-8-0.4-11.9c0-0.3-1.3,0.3-1.4-0.6c-0.2-2.1,0-4.9-0.1-9.5c-0.1-6.6-0.1-10.4-0.5-16
	c-0.5-7.8-1.2-6.5-0.4-8.1c0.8-1.7,5-2.9,12.4-3.7c1.2-0.4,6-11,16.2-16.5c6.7-3.6,16.9-11.1,32.5-11.6C-63,175.8-53,182.4-53,182.4
	z"/>
<path class="st1" d="M185.9,95.1c0.8-1.9,2.8-7.3,3.1-10.3c0.4-4,0.3-7.4,0.2-11c-0.2-6.5-0.3-13.2,1.9-24.1
	c1-4.9,2.5-12.3,6.2-17.9c2.1-3.1,6.3-9.6,15.3-12.8c2.9-1,6.2-1.6,9.8-1.6c4.8,0,9,1,11,1.5c3.2,0.9,10.8,3.9,16.2,9
	c4.9,4.6,7.2,8.6,8,13.6c0.1,0.6,0.2,1.2,0.3,1.8c0.7,3.9,1.4,8.3-1.1,11.1c-0.7,0.8-2,1.7-4.1,1.7c-1.1,0-2-0.2-2.7-0.4
	c-2.8-0.7-5-4.6-5.5-5.3c-1.7-3.1-4.3-6.1-5.5-7.1c-3.6-3-5.7-4-10-4.7c-0.2,0-0.5-0.1-0.8-0.1c-3.3,0-7.6,2.9-10.3,7
	c-2.8,4.2-3.3,7.2-3.4,11.9c-0.1,4.6-0.2,9.4,4.1,19.3c2.8,6.6,4.6,8,5,8.2h1.6l0.6,3.2l-1.8,0.7c-0.3,0.1-0.7,0.3-2.1,1.1
	c-1.9,1.1-3.2,1.8-4.3,3.3c-1.2,1.5-2,2.4-2,2.4l-1,1.2l-1.4-0.7c0,0-1.6-0.8-3.3-1.3c-0.3-0.1-0.7-0.1-1-0.1
	c-1.4,0-2.9,0.6-4.2,1.2c-2.2,0.9-3.4,1.6-3.4,1.6l-1,0.5l-0.9-0.5c0,0-2.3-1.3-4.4-1.8c-0.3-0.1-0.6-0.1-1-0.1
	c-2.1,0-4.5,1.4-5.2,1.9l-5.7,4.1L185.9,95.1z"/>
<path class="st1" d="M187.8,95.9c0,0,4.2-3.1,7.8-2.1c2.3,0.6,4.8,2,4.8,2s1.3-0.7,3.6-1.7c1.8-0.8,4.2-1.8,6.5-1.2
	c1.9,0.5,3.6,1.4,3.6,1.4s0.8-1,2-2.4c1.4-1.7,3-2.6,4.9-3.7c1.9-1.1,2.1-1.1,2.7-1.3c0.1,0-2.4,1-6.8-9.4
	c-4.5-10.4-4.4-15.5-4.3-20.2c0.1-4.9,0.7-8.4,3.7-13c3.3-5.1,8.9-8.5,13-7.8c4.5,0.7,7.1,1.9,11,5.2c1.4,1.2,4.1,4.3,6,7.7
	c1.1,2.1,2.9,4.1,4.1,4.4c1.2,0.3,3.5,0.9,4.9-0.7c2.2-2.5,0.9-7.4,0.3-11.3c-0.7-4.5-2.7-8.1-7.4-12.4c-5.1-4.8-12.3-7.7-15.3-8.5
	c-3.1-0.8-11.8-2.8-19.6,0c-8.4,3-12.4,9.1-14.3,12.1c-3.4,5.1-4.9,12-5.9,17.2C189.6,66.9,192,73.7,191,85
	C190.7,88.9,187.8,95.9,187.8,95.9z"/>
<path class="st2" d="M469.4,206.4c-0.7,0-1.4,0-2,0c-29.1-1.2-34.2-5.1-34.9-5.9l-0.5-0.6v-0.8c0-6.8-0.9-15.9-8.1-26.7
	c-6.1-9.2-18.1-15.7-31.3-17c-1.3-0.1-2.7-0.2-4.1-0.2c-5.9,0-11.5,1.1-13.9,1.5c-0.9,0.2-1.2,0.2-1.5,0.2h-1.2l-0.6-1
	c-3.5-6.1-7-21.2-6.5-33.3c0-1,0.8-1.9,2.1-1.9c0,0,2.9,0,3.8,1.1c0.6,0.7,1.2,1.5,1.8,2.2c0.5,0.6,1,1.3,1.3,1.7
	c0.9,0.1,1.7,0.2,2.6,0.2c0.8,0,1.6,0,2.7-0.1l1,0c3.6-0.1,5.1-0.3,6.5-0.5c0.5-0.9,1.3-2.7,2-4.2l0.6-1.2c0,0,1.8,0.1,2,0.1
	c0-0.5,0-0.9-0.1-1.1c0-0.3-0.1-1,0.5-1.7l0.9-1l1.3,0.5c0.7,0.3,1.7,0.4,2.8,0.4c1.3,0,2.5-0.2,3.5-0.3c0.1,0,0.1,0,0.2,0
	c-1.4-0.4-4.6-0.8-7.2-0.9l-2.1-0.2l0.3-2.1c0,0,0.4-3.1,0.5-4.4c0.3-5.7-0.1-9.1-0.3-10.2l-0.1-0.4l0.1-0.4c1.1-5.3,0.6-9,0.3-10.3
	c-1.3-0.6-3.7-1.3-7.9-1.3c-2.1,0-4,0.2-5.3,0.3c-0.7,0.1-1.2,0.1-1.5,0.1c-1.1,0-1.7-0.6-1.9-1l-0.6-1l0.6-1
	c7.2-12.9,17.5-18.5,31.3-25.1c5.6-2.6,11.4-4,17.4-4c12.5,0,21.1,5.9,21.5,6.1l1,0.7l-0.1,1.2c0,0.1-0.4,3.7-1.5,6.5
	c-0.1,0.2-0.1,0.4-0.2,0.5c0.5-0.1,1-0.3,1.5-0.3c0.4-0.1,0.9-0.1,1.4-0.1c2.6,0,5.1,1.1,6.5,1.8c1.6-1,4.6-2.5,8.2-2.5
	c1.7,0,3.4,0.3,4.9,1c1.9-2.3,3.9-4.1,6.1-5.3c-0.8-1-1.5-2.2-2-3.7l-0.3-1l0.6-0.9c1.1-1.5,12.5-7.4,23.7-7.4c0.2,0,0.5,0,0.7,0
	c16.9,0.4,31.6,3.2,39.3,7.6c15.1,8.7,25.6,25.9,29,33.8c6.5,14.9,5.9,25.9,5,41c-0.1,1.2-0.1,2.4-0.2,3.7c-0.2,3-1.3,6.7-3.4,10.9
	c-3.1,6.3-3.9,6.3-4.8,6.3l-0.1,0l-0.1,0c-3.1-0.4-7.9-1.1-12.9-1.1c-4.7,0-8.8,0.5-12.7,1.6c-11.6,3.2-20.8,7.5-27.7,17.9
	c-7.9,11.8-9.2,19.7-8.8,28.6l0,0.9l-0.6,0.6c-0.5,0.5-0.7,0.7-11.1,1.9C481.7,205.8,474.6,206.4,469.4,206.4z M402.8,117
	c0.8,0.4,1.2,1.2,1.2,1.9c0,2.1,0.6,2.8,1.4,3.1c0.2-2.3-0.2-7.1-0.4-9.5c-0.2,0.1-0.5,0.3-0.9,0.5c-0.2,0.1-0.4,0.6-0.4,2
	c0,0.4,0,1.1-0.6,1.7L402.8,117z"/>
<path class="st2" d="M473,60.1c-0.1-0.3,10.9-6.9,22.8-6.6c19.2,0.4,32.3,3.9,38.4,7.4c14,8,24.4,24.2,28.2,32.9
	c6.8,15.7,5.6,26.6,4.6,43.8c-0.3,6.5-6.1,15.3-6.2,15.3c-6.7-0.9-16.5-2.2-26.4,0.6c-11.4,3.1-21.4,7.5-28.8,18.7
	c-8.3,12.4-9.5,20.9-9.1,29.8c0,0.1-19.7,2.8-28.9,2.4c-29.7-1.2-33.6-5.3-33.6-5.3c0-8.3-1.6-17.5-8.5-27.8
	c-6.9-10.3-19.9-16.6-32.7-17.9c-9.4-0.9-19.7,1.7-19.8,1.5c-3.1-5.4-6.7-20.3-6.2-32.2c0-0.1,2.3,0.3,2.4,0.4
	c1.6,1.9,3.5,4.5,3.7,4.5c2.5,0.5,4,0.3,7.4,0.2c4.5-0.2,5.8-0.3,7.7-0.7c0.2,0,2.5-5.1,2.5-5.1s2.5,0.2,2.5,0.1
	c0.5-2,0.1-3.5,0.2-3.5c3.6,1.4,8.9-0.4,8.9,0.2c0,5.2,3.6,5.1,4.6,5.2c1.7,0.1,0.2-13.2,0.1-13.3c-0.8-0.8-2.4-0.5-3.9,0.6
	c-1.6,1.2-1.1,4-1.2,3.9c-1.7-0.8-8.5-1.3-8.5-1.3s0.5-3.2,0.5-4.6c0.4-7.1-0.3-10.7-0.3-10.8c1.5-7.1,0.2-11.9,0-12
	c-5-3.4-16.8-1.3-16.6-1.7c7-12.6,17.2-18,30.5-24.2c20.3-9.6,36.9,2,36.9,2s-0.4,3.4-1.4,6c-1.9,5-1.9,5.3-1.9,5.3s2.3-1.9,5.3-2.4
	c3.6-0.6,7.7,2.1,7.7,2.1s6.7-5.3,13.6-1.3c0.1,0.1,3.5-5.8,9.7-7.4C477.4,64.9,474.6,64.9,473,60.1z"/>
<path class="st1" d="M594,291.2c-2.2,0-6.7,0-6.7-3.1c0-5.4-0.3-16-0.6-25.3c-0.1-5.1-0.3-9.8-0.4-13.3c-0.2-6.8-0.2-6.8,0.8-7.5
	c1.2-0.9,2.8-1.3,5.6-2l1.6-0.4c5.3-1.3,10.9-1.9,16.8-1.9c1.5,0,3.1,0,4.6,0.1l2.2,0.1c9.1,0.5,12.9,0.7,13.1,3.7
	c0.1,1.6,0.6,38.3,0.1,44.4c-0.1,1.3-0.8,2-5,3c-1.6,0.4-4.6,1-7.8,1c-2,0-3.7-0.2-5.1-0.7c-2.2-0.7-3.9-1.5-5-2.1
	c-1.8,1.2-5.7,3.4-10.1,3.7C596.5,291.2,595.1,291.2,594,291.2z"/>
<path class="st1" d="M588.2,243.6c-0.3,0.2,1,33.1,1,44.5c0,1.4,5,1.2,8.7,1c5.4-0.4,10.1-4.1,10.1-4.1s2.4,1.4,5.8,2.5
	c5.5,1.9,15.2-1.1,15.3-1.6c0.4-5.7,0-42.4-0.1-44.1c-0.1-1.4-5.9-1.6-13.4-2c-10.2-0.6-17.4,0.9-20.9,1.7
	C591.1,242.4,589.3,242.8,588.2,243.6z"/>
<path class="st3" d="M465.2,306c-5.3,0-7.2-0.7-7.3-2.7c-0.3-13.8-0.9-30.6-1.3-42.8l-0.1-1.8c-0.1-1.9,1.3-2.9,9.3-4.3
	c4.7-0.8,10-1.4,13.9-1.6c1,0,2.1-0.1,3.3-0.1c3.6,0,7.8,0.2,11.3,0.7c4.9,0.6,7.1,1.2,7.1,3.3c0.2,19.1,0.2,44.4,0.2,44.6l0,1.6
	l-1.5,0.4c-1.1,0.3-6.8,1.7-8.6,1.7c-1.9,0-2.3-1.4-2.3-1.7c-1-4.6,2.3-10.4,4-13c-0.8-0.9-1.8-2.2-2.8-4.1
	c-2.2-4-1.9-10.7-1.7-14.3c-4.1-0.2-6.9-2.4-8.6-4.5c-1.8,2.6-5.3,5.3-11.2,5.7c0.7,2.6,1.6,6.6,1.1,9.8c-0.7,4.8-2.6,7.3-4.2,8.6
	c1.6,2.2,3.1,6.3,1.9,13C467.4,305.5,466.6,306,465.2,306L465.2,306z"/>
<path class="st3" d="M465.6,304c1.9-10.1-3.2-13.2-3.2-13.2s4.4-0.2,5.6-8.3c0.7-4.6-1.9-11.5-1.8-11.5c12.1,0.5,13.5-7.8,13.5-7.8
	s3.5,7.7,11.1,6.5c0.2,0-1.4,10.4,1.3,15.4c1.9,3.5,3.6,4.8,3.6,4.8s-5.7,7.7-4.6,12.8c0.1,0.6,8.5-1.5,8.5-1.5s0-25.3-0.2-44.6
	c0-1-11.4-2.3-19.5-1.9c-8,0.4-21.4,2.6-21.3,3.8c0.4,12.1,1,30.1,1.4,44.6C459.9,304,465.6,304.1,465.6,304z"/>
<path class="st1" d="M723.4,324.1c0,0-5-1-12.6-1c-2.2,0-4.4,0.1-6.6,0.2c-10.1,0.8-17.1,1-17.2,1l-1.5,0.1L685,323
	c-0.1-0.3-0.9-3.1-1.1-12c-0.2-8.6,0-11.8,0-11.9l0.1-1.6l1.6-0.2c0.1,0,6.8-0.8,18.7-1.5c4.2-0.3,8.2-0.4,11.8-0.4
	c5,0,7.6,0.3,7.7,0.3l1.9,0.2l-0.1,1.9c0,0.1-0.4,5.8-0.1,13.6c0.3,7.7,0.3,10.7,0.3,10.7l0.1,2.5L723.4,324.1z"/>
<path class="st1" d="M685.8,299.3c0,0,6.6-0.8,18.6-1.5c12.9-0.8,19.1-0.1,19.1-0.1s-0.4,5.8-0.1,13.8c0.3,7.8,0.3,10.7,0.3,10.7
	s-8.1-1.7-19.8-0.8c-10.2,0.8-17.1,1-17.1,1s-0.8-2.5-1-11.5C685.6,302.4,685.8,299.3,685.8,299.3z"/>
<path class="st4" d="M177.5,425.1c-0.4,0-0.4,0-14-4.3l-1.8-0.6l0.5-1.8c1.5-5.8,1.9-7,3.6-7.1c2.9-0.2,5-0.5,6.5-0.7
	c0.9-0.1,1.4-0.2,1.8-0.2c0.6,0,1.1,0.2,1.5,0.5c3.2,2.8,9.3,7.3,9.4,7.3l2.4,1.7l-2.5,1.6c-0.1,0.1-3.5,2.2-6.5,3.4l-0.3,0.1H177.5
	z"/>
<path class="st4" d="M164.2,419c0.5-1.9,1.5-5.6,1.8-5.7c5-0.3,8.1-1,8.3-0.8c3.3,3,9.5,7.4,9.5,7.4l0,0c0,0-3.3,2.1-6.2,3.2
	C177.5,423.2,164.2,419,164.2,419z"/>
<path class="st4" d="M201.1,457.6c-0.6,0-1.6,0-4.3-3.3l-2.8-3.2c0,0,10.5-0.1,10.5-0.1h3.2l-1.4,2.9c-0.2,0.5-2.4,2.8-4.4,3.6
	l-0.4,0.1L201.1,457.6z"/>
<path class="st4" d="M198.3,453c0,0,6.2-0.1,6.2-0.1c0,0-1.8,2-3.4,2.6C200.6,455.8,198.3,453,198.3,453z"/>
<path class="st4" d="M229.2,419l-0.5-1.3c-2-5.1-4-19.9-4.1-20.5l-0.2-1.8l1.7-0.4c0.2,0,4.4-1.1,7.8-1.1c0.2,0,0.4,0,0.6,0
	c4.4,0,8.3,0.9,8.5,1l1.8,0.4l-0.3,1.9c0,0.2-1,5.4-2.4,10.6c-0.6,2.2-9.4,11.3-11.6,11.3H229.2z"/>
<path class="st4" d="M226.6,396.9c0,0,4.1-1,7.4-1.1c4.5-0.1,8.6,0.9,8.6,0.9s-1,5.3-2.3,10.5c-0.5,2-9.5,10.3-9.7,9.8
	C228.6,412,226.6,396.9,226.6,396.9z"/>
<path class="st5" d="M203.5,377.1c-0.2-0.2-4.6-4.2-6.6-6.2c-3.4-3.3-7.2-6.6-7.2-6.7l-1.5-1.4l1.4-1.5c0.1-0.1,2.5-2.6,6.1-5.3
	c4.1-3.1,6.8-4.2,6.9-4.2l1.9-0.8l0.7,2c0.6,1.7,1.1,3.3,1.7,4.9c1,3.1,2,6.1,2.8,7.8c3,6.6,3.6,9,3.6,9.2l0.5,2.3l-2.4,0.1
	c0,0-2.3,0.1-3,0.1c-0.9,0-3.4,0.1-3.5,0.1l-0.8,0L203.5,377.1z"/>
<path class="st5" d="M203.3,353.6c1.8,5.1,3.3,10.2,4.6,12.9c3,6.6,3.5,8.9,3.5,8.9s-2.3,0.1-3,0.1c-0.9,0-3.4,0.1-3.4,0.1
	s-4.5-4.2-6.6-6.2c-3.5-3.4-7.3-6.7-7.3-6.7l0,0c0,0,2.3-2.5,5.8-5.1C200.8,354.6,203.3,353.6,203.3,353.6z"/>
<path class="st6" d="M143.7,325.3c-0.7,0.1,2.5-6,2.8-5.8c2.6,2.6,5.3,4.8,5.3,4.8S150.4,324.9,143.7,325.3z"/>
<path class="st4" d="M269.4,143c-1.5,0-14.3-0.1-16.4-3.1c-1-1.5-1.7-10-1.1-11.8c0.9-2.7,3.2-4,15.4-5.2c1.8-0.2,3.5-0.3,5.1-0.3
	c7.9,0,11.2,2.2,11.6,2.4l0.7,0.5l0.1,0.8c0.2,0.9,1.6,9.3-0.2,13.3c-0.9,2-9,3.3-14,3.4C270.1,143,269.7,143,269.4,143z"/>
<path class="st4" d="M282.8,126.6c0,0,1.5,8.6-0.1,12.2c-0.1,0.1-5,2.1-12.3,2.2c-9.4,0.1-15.2-1.3-15.9-2.3
	c-0.5-0.7-1.3-8.5-0.8-10c0.5-1.5,2-2.7,13.8-3.9C278.6,123.7,282.8,126.6,282.8,126.6z"/>
<path class="st7" d="M242.3,198.2c-3.2,0-6.2-0.3-8.2-0.6c-3.8-0.5-5.3-0.7-5.3-2.6c0-0.2,0-0.6,0-1.2c0.1-4.1,0.2-16.5-0.3-21.9
	l-0.3-3.2l3,1.2c0,0,5.2,2,13.5,2c0.4,0,0.7,0,1.1,0c5-0.1,10-1.2,11.9-1.6c0.7-0.2,0.9-0.2,1.1-0.2h0.4l0.4,0.1
	c1.2,0.5,1.5,0.9,1.5,7.3c0,3.3-0.2,8.9-0.9,17.5c-0.2,1.7-1.4,1.9-4.4,2.2c-1.7,0.2-4.9,0.5-10.5,1
	C244.4,198.2,243.4,198.2,242.3,198.2z"/>
<path class="st7" d="M230.5,171.7c0,0,5.9,2.4,15.4,2.2c6.4-0.1,12.9-1.9,13-1.8c0.2,0.1,0.8,6.8-0.6,22.7c0,0.1-2.8,0.6-13.1,1.4
	c-6.6,0.5-14.5-1-14.5-1.1C230.8,193.9,231.1,178,230.5,171.7z"/>
<path class="st4" d="M183.9,182c-1.2,0-1.9-0.1-3.3-0.2l-0.5-0.1c-0.8-0.1-1.4-0.2-5.3-5.4l-3.1-4.2l5.1,1c0,0,2.1,0.4,6.2,0.4
	c1.5,0,3.1-0.1,4.7-0.2c6.4-0.4,9.7-0.9,9.7-0.9l3.9-0.6l-1.8,3.5c-0.2,0.4-2,3.8-2.5,4.7c-0.7,1.1-1.2,1.3-10.1,1.8
	C185.4,181.9,184.6,182,183.9,182z"/>
<path class="st4" d="M176.4,175.1c0,0,3.8,0.7,11.4,0.3c6.5-0.4,9.9-0.9,9.9-0.9s-1.9,3.7-2.5,4.6c-0.2,0.3-3.5,0.6-8.5,0.8
	c-3.6,0.2-3.8,0.1-6.4-0.2C179.9,179.6,176.4,175.1,176.4,175.1z"/>
<path class="st8" d="M211.5,221.5c-1.5,0-3.1-0.9-4.1-1.7c-1.1-0.9-1.6-2.3-1.9-3.4c-1,0.1-2.1,0.1-3.1,0.1c-3.4,0-4.5-0.5-4.9-0.7
	c-0.7-0.3-1.8-0.9-0.7-6.5c0.2-1.1,1-1.6,2.4-1.6c0,0,3,0,6,0.5c0.1-0.5,0.3-0.9,0.5-1.4c0.9-1.9,3.4-3.1,5.2-3.1
	c0.6,0,1.2,0.1,1.7,0.4c1.1,0.6,1.4,1.8,1.7,4.3c0.3,2.5,1,10.9-0.9,12.5C212.9,221.2,212.3,221.5,211.5,221.5z"/>
<path class="st8" d="M198.8,209.6c0-0.1,5.1,0,8.3,0.9c0.1,0-0.3-1.4,0.4-3c0.7-1.4,3.1-2.3,4.3-1.8c0.8,0.4,1.4,12.7,0.5,13.5
	c-0.8,0.6-2.5-0.1-3.6-1c-1.4-1.1-1.3-4.1-1.4-4.1c-3,0.4-7.4,0.5-8.7-0.2C198.4,214,198.2,212.4,198.8,209.6z"/>
<path class="st9" d="M205.2,269.9c-0.8,0-1.5,0-9-7.5c-7.5-7.5-7.6-8.6-7.7-9.2c-0.2-1.1,0.5-2,1.5-2.3c3.6-1.1,7.3-1.6,11.2-1.6
	c6.1,0,10.2,1.4,10.4,1.4l2.1,0.7l-1,2c0,0.1-4.4,9.1-5.4,14.9l-0.3,1.6L205.2,269.9z"/>
<path class="st9" d="M210.8,252.5c0,0-9.2-3.1-20.3,0.2c-1.2,0.4,14.6,15.9,14.7,15.2C206.3,261.8,210.8,252.5,210.8,252.5z"/>
<path class="st10" d="M233,311.2c-1.5,0-6.9-3.7-7.5-4.7l-0.6-1l0.5-1.1c2.9-5.6,7.2-16.3,7.2-16.4l0.9-2.2l2,1.2
	c0.1,0.1,2.5,1.5,6.1,4.3c2.5,1.9,5.4,5.1,5.5,5.3l1.3,1.4l-1.4,1.3c-0.3,0.3-8.4,7.9-12.7,11.4l-0.5,0.4L233,311.2z"/>
<path class="st10" d="M234.5,288.8c0,0-4.3,10.9-7.3,16.6c-0.2,0.3,5.5,4.1,5.9,3.8c4.4-3.4,12.6-11.2,12.6-11.2s-2.9-3.2-5.3-5
	C236.8,290.2,234.5,288.8,234.5,288.8z"/>
<path class="st11" d="M155.8,269.1c-0.6,0-2,0-8.8-3.4c-6.9-3.4-6.9-3.6-7.2-4.5l-0.4-1.4l1.3-0.8c1.6-1,10.3-4.5,12-5.2l1.9-0.8
	l0.7,2c4,11.5,3,12.6,2.4,13.3C157.3,268.6,156.7,269.1,155.8,269.1C155.8,269.1,155.8,269.1,155.8,269.1z"/>
<path class="st11" d="M153.4,255.6c0,0-10.2,4.1-11.7,5.1c-0.1,0,13.5,7.4,14.4,6.3C157,266,153.4,255.6,153.4,255.6z"/>
<path class="st1" d="M283.9,351.3c-0.7,0-1.5-0.3-2-0.8c-1.6-1.6-1.6-4.8-1.3-14.6c0.2-7.5,0.4-17.9-0.4-30.1
	c-1-14-1.5-26.1-1.8-33.7c-0.6-14.3-0.6-14.3,0.2-15c4-4,8.7-6.2,19.5-9.2c4.6-1.3,10-1.5,13.8-1.5c6.7,0,13.3,0.8,16.2,2
	c4.7,1.9,10.4,5.4,11.6,7.9c0.3,0.5,0.3,0.6,0.2,16.3c-0.1,6.5-0.2,19.4-0.6,31.8c-0.3,11.4,0.8,20.9,1.7,27.8
	c1.1,9.1,1.7,14.2-1.7,16.2c-1.3,0.7-4.6,0.9-17,1c-12.2,0.1-29,0.3-37.7,2.1C284.3,351.2,284.1,351.3,283.9,351.3z"/>
<path class="st1" d="M279.9,258.3c3.7-3.7,8.1-5.8,18.6-8.7c9.2-2.5,24.6-1.3,28.8,0.4c5,2,9.7,5.3,10.6,6.9
	c0.1,0.2,0,25.3-0.6,47.2c-0.7,24.6,5.3,39.8,0.9,42.3c-2.4,1.4-39.2-0.3-54,2.9c-3.5,0.7-0.1-16.9-2-43.7
	C280.2,278.7,279.8,258.3,279.9,258.3z"/>
<path class="st1" d="M294,311.2c-2.2,0-6.7,0-6.7-3.1c0-5.4-0.3-16-0.6-25.3c-0.1-5.1-0.3-9.8-0.4-13.3c-0.2-6.8-0.2-6.8,0.8-7.5
	c1.2-0.9,2.8-1.3,5.6-2l1.6-0.4c5.3-1.3,10.9-1.9,16.8-1.9c1.5,0,3.1,0,4.6,0.1l2.2,0.1c9.1,0.5,12.9,0.7,13.1,3.7
	c0.1,1.8,0.6,38.7,0.1,44.4c-0.1,1.3-0.8,2-5,3c-1.6,0.4-4.6,1-7.8,1c-2,0-3.7-0.2-5.1-0.7c-2.2-0.7-3.9-1.5-5-2.1
	c-1.8,1.2-5.7,3.4-10.1,3.7C296.6,311.1,295.2,311.2,294,311.2L294,311.2z"/>
<path class="st1" d="M288.3,263.5c-0.3,0.2,1,33.1,1,44.5c0,1.4,5,1.2,8.7,1c5.4-0.4,10.1-4.1,10.1-4.1s2.4,1.4,5.8,2.5
	c5.5,1.9,15.2-1.1,15.3-1.6c0.4-5.7,0-42.4-0.1-44.1c-0.1-1.4-5.9-1.6-13.4-2c-10.2-0.6-17.4,0.9-20.9,1.7
	C291.2,262.4,289.4,262.7,288.3,263.5z"/>
<path class="st1" d="M328.1,342.1c0,0-5-1-12.6-1c-2.2,0-4.4,0.1-6.6,0.2c-10.1,0.8-17.1,1-17.2,1l-1.5,0.1l-0.4-1.5
	c-0.1-0.3-0.9-3.1-1.1-12c-0.2-8.6,0-11.8,0-11.9l0.1-1.6l1.6-0.2c0.1,0,6.8-0.8,18.7-1.5c4.2-0.3,8.2-0.4,11.8-0.4
	c5,0,7.6,0.3,7.7,0.3l1.9,0.2l-0.1,1.9c0,0.1-0.4,5.8-0.1,13.6c0.3,7.7,0.3,10.7,0.3,10.7l0.1,2.5L328.1,342.1z"/>
<path class="st1" d="M290.6,317.2c0,0,6.6-0.8,18.6-1.5c12.9-0.8,19.1-0.1,19.1-0.1s-0.4,5.8-0.1,13.8c0.3,7.8,0.3,10.7,0.3,10.7
	s-8.1-1.7-19.8-0.8c-10.2,0.8-17.1,1-17.1,1s-0.8-2.5-1-11.5C290.3,320.3,290.6,317.2,290.6,317.2z"/>
<path class="st4" d="M421.6,447.2c-0.5-0.2-2.2-1.1-6.6-5.4c-3.5-3.4-4.8-5.4-4.9-5.6l-1-1.6l1.6-1c9.4-6.1,24.2-16,26.2-18.1
	l0.6-0.6c0,0,0.8,0,0.8,0c1.7,0,3.8,3.4,3.8,3.4l0.6,1.1l-0.7,1c-9.2,13.9-18.1,26.1-18.1,26.2l-0.9,1.2L421.6,447.2z"/>
<path class="st4" d="M411.8,435.2c0,0,23.7-15.4,26.6-18.4c0,0,2.1,2.3,2.1,2.4c-9.3,14-18.1,26.2-18.1,26.2s-1.3-0.5-6-5
	C412.9,437.1,411.8,435.2,411.8,435.2z"/>
<path class="st4" d="M445.5,454.7c-1.6,0-3.6-0.2-5.9-0.6c-4.8-0.8-7.3-1.8-7.4-1.9l-1.9-0.8l0.8-1.9c4.2-9.7,10.7-25.1,11.2-27.9
	c0.1-0.4,0.4-1.6,2.2-1.6c3,0,4.8,0,4.8,2.1c0.2,16.6,0.6,30,0.6,30.2l0,1.3l-1.2,0.6C448.4,454.4,447.5,454.7,445.5,454.7z"/>
<path class="st4" d="M432.9,450.4c0,0,10.6-24.2,11.3-28.3c0,0,3.1,0,3.1,0.1c0.2,16.9,0.6,30.2,0.6,30.2s-1.7,0.8-8.1-0.3
	C435.3,451.3,432.9,450.4,432.9,450.4z"/>
<path class="st4" d="M458.6,450.6c0-0.1-2-9.6-4.6-17.2c-2.2-6.4-4.1-10.7-4.1-10.8l-0.8-1.7l4.8-2.3l1,1.4c0,0.1,4.6,6.4,6.5,8.8
	c7.1,9,11.2,14.4,11.3,14.5l0.9,1.2l-0.9,1.2c-0.2,0.3-1.5,1.8-5.5,3.8c-2.3,1.2-5.2,2.6-6.3,2.7l-1.8,0.2L458.6,450.6z"/>
<path class="st4" d="M451.6,421.9c0,0,1.9,4.3,4.2,10.9c2.7,7.9,4.7,17.4,4.7,17.4s1-0.1,5.6-2.5c3.9-2,4.9-3.3,4.9-3.3
	s-4.1-5.3-11.3-14.4c-2-2.5-6.5-8.9-6.5-8.9s-0.6,0.3-0.8,0.4C452.2,421.6,451.6,421.9,451.6,421.9z"/>
<path class="st4" d="M475.8,440.2c-0.1-0.1-6-7-10.5-11c-3.1-2.8-10.6-8.8-10.7-8.8l-1.6-1.3l1.4-1.6c0.2-0.2,0.4-0.5,0.5-0.7
	c0-0.1,0.1-0.2,0.1-0.3l0.7-2.1l2,0.9c0.1,0,6.7,3.2,12.6,5.8c6.9,3.1,14,6.1,14.1,6.1l1.7,0.7l-0.5,1.7c0,0.1-0.8,2.6-3.1,5.8
	c-2,2.7-3.7,4.6-3.8,4.7l-1.5,1.6L475.8,440.2z"/>
<path class="st4" d="M455.9,418.9c0,0,0.5-0.5,0.7-0.9c0.2-0.3,0.4-0.8,0.4-0.8s6.7,3.1,12.6,5.8c7,3.1,14.2,6.2,14.2,6.2
	s-0.7,2.3-2.8,5.3c-1.9,2.7-3.6,4.5-3.6,4.5s-6-7-10.6-11.1C463.5,424.9,455.9,418.9,455.9,418.9z"/>
<path class="st4" d="M488,416.5c-0.1,0-7.4-0.3-14.4-0.6c-7.3-0.4-15.4-0.8-15.4-0.8L456,415l0.4-2.2c0,0,0.1-0.8,0.1-1.7
	c-0.1-1-0.4-1.9-0.4-2l-0.7-1.9l1.9-0.7c0.3-0.1,6.4-2.4,14.2-3.5c8.1-1.2,16-2.3,16-2.3l1.7-0.2l0.5,1.6c0.1,0.2,0.6,2,0.7,6.3
	c0.1,4.6-0.2,6.2-0.2,6.4l-0.3,1.7L488,416.5z"/>
<path class="st4" d="M458.3,413.2c0,0,8.1,0.4,15.4,0.8c7,0.4,14.4,0.6,14.4,0.6s0.3-1.5,0.2-6c-0.1-4.1-0.6-5.8-0.6-5.8
	s-7.9,1.1-16,2.3c-7.7,1.1-13.8,3.4-13.8,3.4s0.5,1.2,0.5,2.5C458.5,412.2,458.3,413.2,458.3,413.2z"/>
<path class="st4" d="M454,406c0,0-0.9-0.7-1.3-1c-0.3-0.2-1.2-0.7-1.2-0.7l-1.6-0.9l0.8-1.6c0.3-0.5,6.4-12.7,8.9-16.9
	c2.7-4.5,6-11.3,6.1-11.3l0.8-1.6l1.7,0.6c0.3,0.1,3.1,1.2,7.6,5.5c4.9,4.6,6.6,7.4,6.6,7.6l0.9,1.5l-1.4,1c-0.1,0-6.5,4.8-11.9,8.5
	c-6.2,4.4-13.6,9.4-13.7,9.4l-1.2,0.8L454,406z"/>
<path class="st4" d="M455.2,404.4c0,0,7.4-5,13.7-9.4c5.4-3.8,11.9-8.5,11.9-8.5s-1.5-2.6-6.3-7.1c-4.3-4.1-6.9-5.1-6.9-5.1
	s-3.4,6.8-6.1,11.5c-2.5,4.2-8.8,16.8-8.8,16.8s1,0.6,1.3,0.8C454.2,403.7,455.2,404.4,455.2,404.4z"/>
<path class="st8" d="M443.5,402.7c-0.3-1-7.5-24.1-7.5-33.2c0-2.6,5.5-3,8.7-3l0.3,0c2.8,0,9.4,0.2,10.5,1.7l0.6,0.8l-0.2,1
	c-3.4,12.9-5.2,31.6-5.2,31.8l-0.2,1.9l-2-0.1c-0.5,0-0.9,0-1.3,0.1c-0.8,0.2-1.3,0.3-1.3,0.3l-1.9,0.6L443.5,402.7z"/>
<path class="st8" d="M454,369.4c-3.5,13.2-5.3,32.2-5.3,32.2s-1,0-1.9,0.2c-0.9,0.2-1.5,0.4-1.5,0.4s-7.4-23.7-7.4-32.7
	c0-0.1,2.2-1.1,7-1C448.6,368.4,454.1,369,454,369.4z"/>
<path class="st8" d="M438.7,406.8c-0.1-0.1-14.5-14.8-24.6-23.5l-0.7-0.6l0-1c0-1.6,4.4-5.1,5.8-6.1c3.3-2.6,7.8-4.5,8-4.6l2.2-1
	l0.5,2.3c0,0.1,0.7,2.8,5.8,16c3.3,8.7,7.4,14.3,7.5,14.4l1,1.4l-1.2,1.2c0,0-0.5,0.5-0.7,0.7c-0.1,0.1-0.2,0.1-0.2,0.2l-0.8,3.1
	L438.7,406.8z"/>
<path class="st8" d="M415.4,381.8c-0.1-0.1,2.6-2.8,5-4.6c3.2-2.4,7.5-4.4,7.5-4.4s0.6,2.5,5.8,16.2c3.5,9.1,7.7,14.8,7.7,14.8
	s-0.4,0.4-0.6,0.6c-0.7,0.6-0.8,0.9-0.8,0.9S425.7,390.6,415.4,381.8z"/>
<path class="st8" d="M437.3,412c-0.7-0.2-17.6-4.4-22.2-5.7c-3.9-1.2-10.7-3.1-10.7-3.1l-1.9-0.6l0.6-1.9c0-0.1,0.6-2.1,1.7-5.2
	c1.8-5.6,3.3-7.2,4.1-7.6l1.3-0.8l1.1,1.1c0,0,4.2,4,11.7,9.9c6.3,5,14.2,7.8,15.8,8.4h0.8l0.2,0.3l6.5,2.1l-4.7,0.9l1.2,2.1
	l-2.9-0.9l-0.1,1.6L437.3,412z"/>
<path class="st8" d="M415.7,404.3c-3.9-1.2-10.8-3.1-10.8-3.1s0.6-2,1.6-5.2c1.9-5.7,3.2-6.5,3.2-6.5s4.1,4,11.8,10.1
	c7.4,5.8,16.7,8.8,16.7,8.8s-0.1-0.1-0.3,0.7c-0.2,0.5-0.2,1-0.2,1S420.3,405.7,415.7,404.3z"/>
<path class="st8" d="M404.9,426.2c-0.1-0.2-1.9-3.8-2.3-8.3l-0.9-8.4l37.9,0.3l-0.1,2c0,0,0,0.3,0,0.8c0,0.4,0.1,0.8,0.1,0.9
	l0.3,1.6l-34.4,12.8L404.9,426.2z"/>
<path class="st8" d="M403.9,411.4l33.7,0.2c0,0,0,0.3,0.1,1c0,0.5,0.2,1.1,0.2,1.1l-31.1,11.5c0,0-1.7-3.5-2.1-7.6
	C404.4,415.8,403.9,411.4,403.9,411.4z"/>
<path class="st8" d="M446.5,463c-7.1,0-14.2-1.3-20.5-3.8c-15.2-5.9-23.3-17.3-26.1-22c-1.3-2.1-12.4-21.6-4.4-44
	c3.7-10.2,9.8-16.8,13.1-19.9c10.4-9.4,22-11.6,25.9-12.4c1.7-0.3,6.4-1.2,12.6-1.2c9.9,0,24.1,2.3,35.8,13.2
	c17.6,16.3,16,38.8,15.1,45.3c-1.8,13.1-7.7,24.2-17,32.3C471.8,458.6,459.5,463,446.5,463z"/>
<path class="st8" d="M409.9,374.8c9.7-8.9,20.5-11,24.9-11.9c4.3-0.8,28.5-5.4,46.7,11.5c17.8,16.5,15,39.7,14.5,43.6
	c-0.6,4.2-2.9,19.5-16.3,31c-15,12.9-36.4,14.7-53.1,8.2c-15.6-6.1-23.2-18-25.1-21.1c-0.9-1.5-12-20.6-4.2-42.3
	C401.2,383,408.1,376.5,409.9,374.8z"/>
<path class="st8" d="M310.3,548.8c-6.5,0-13.1-1.2-18.9-3.6c-14-5.6-21.5-16.3-24-20.7c-1.2-2-11.4-20.3-4-41.3
	c3.4-9.6,9-15.8,12.1-18.7c9.5-8.9,20.3-10.9,23.9-11.6c1.6-0.3,5.9-1.1,11.6-1.1c9.1,0,22.2,2.2,33,12.4
	c16.2,15.3,14.8,36.5,13.9,42.6c-1.7,12.3-7.1,22.8-15.7,30.3C333.6,544.7,322.3,548.8,310.3,548.8z"/>
<path class="st8" d="M276.7,466.1c9-8.3,18.9-10.4,22.9-11.1c3.9-0.8,26.2-5.1,42.9,10.8c16.3,15.5,13.8,37.2,13.3,40.9
	c-0.5,4-2.7,18.3-15,29.1c-13.8,12.1-33.5,13.8-48.8,7.7c-14.3-5.7-21.3-16.9-23.1-19.8c-0.8-1.4-11-19.3-3.9-39.6
	C268.8,473.7,275,467.6,276.7,466.1z"/>
<path class="st8" d="M299.7,499.5c-0.7-0.9-3.3-3.3-5-4.8l-0.3-0.3c-2.2-2-5.2-4.3-9.4-7.5l-0.6-0.5c-3-2.3-9-7.3-9.3-7.5l-1.4-1.2
	l1.1-1.5c0.3-0.4,2.6-3.5,4.1-4.9c4-3.5,7.4-6,7.5-6.1l1.8-1.3l17.6,32l-1.3,1c-0.2,0.2-0.5,0.5-0.6,0.6c-0.1,0.2-0.2,0.4-0.4,0.6
	c-0.2,0.3-0.3,0.5-0.4,0.8l-1.3,3.1L299.7,499.5z"/>
<path class="st8" d="M280.1,472.8c4-3.5,7.4-6,7.4-6l15.7,28.6c0,0-0.8,0.6-1.1,1.2c-0.3,0.6-0.6,1-0.9,1.6
	c-0.9-1.1-3.7-3.6-5.6-5.4c-2.4-2.2-5.5-4.6-10.1-8.1c-3-2.3-9.2-7.5-9.2-7.5S278.7,474,280.1,472.8z"/>
<path class="st8" d="M267.1,505.2c0-0.2-1.2-4.5,0-10.9c0.8-4.1,1.5-6.8,1.5-6.9l0.7-2.4l2.2,1.2c0,0,3.6,2,9.8,4.9
	c3.9,1.8,12.3,5.2,19.6,6.7l0.9,0.2l0.4,0.9c0.3,0.6,0.3,1.2,0.1,3.1c0,0.2,0,0.4,0,0.5c0,0.3,0,0.4,0,0.5l-0.3,1.6l-1.6,0
	c-0.1,0-5.6,0-18.1,0.7c-7.2,0.4-12.8,1.5-12.9,1.5l-1.8,0.4L267.1,505.2z"/>
<path class="st8" d="M270.6,487.9c0,0-0.7,2.7-1.5,6.7c-1.1,6,0,10,0,10s5.8-1.2,13.2-1.6c12.7-0.7,18.2-0.7,18.2-0.7
	c0,0,0-0.4,0-0.8c0.1-0.5,0.2-1.8,0.1-1.9c-7.5-1.5-16.2-5.1-20-6.8C274.1,489.9,270.6,487.9,270.6,487.9z"/>
<path class="st8" d="M274.9,525.6c-0.1-0.1-1.7-2.3-3.6-6c-3.1-6.1-3.4-8.8-3.4-9.1l-0.2-1.8l1.8-0.3c0.1,0,12.9-2.1,18.1-3.1
	c1.1-0.2,2.5-0.5,3.9-0.8c4.8-1,7.8-1.7,8.9-1.7c0.1,0,0.2,0,0.3,0c0.7,0.1,2.4,0.6,2.4,3.2c0,1.4-0.5,1.6-3,2.9
	c-2,1-5.6,2.9-6.7,3.8c-0.8,0.6-1.5,1.3-2.3,2c-1.3,1.2-2.9,2.6-5.7,4.9c-5.1,4.1-7.7,6.4-7.8,6.4l-1.6,1.3L274.9,525.6z"/>
<path class="st8" d="M269.9,510.4c0,0,0.2,2.5,3.2,8.4c1.8,3.6,3.4,5.7,3.4,5.7s2.7-2.2,7.8-6.4c4.5-3.6,5.9-5.2,8-6.9
	c1.9-1.5,9-4.9,9-5.1c0-0.4,0-1.2-0.7-1.3c-1-0.1-8.6,1.7-12.5,2.4C282.7,508.3,269.9,510.4,269.9,510.4z"/>
<path class="st8" d="M288.5,537.3c-0.1,0-3.1-1.2-5.9-3.7c-2.3-2.1-3.5-3.3-3.6-3.3l-1.4-1.4l1.4-1.4c0.1-0.1,7.6-7.5,11-10.8
	c5.5-5.2,10.8-10,10.9-10l0.9-0.8l1.1,0.4c0.4,0.1,2.2,0.9,2.8,2.6c0.5,1.4-0.2,2.4-3.6,7.8c-2,3.1-4.5,7.1-6.6,10.9
	c-2.7,5-4.6,8.8-4.6,8.8l-0.8,1.6L288.5,537.3z"/>
<path class="st8" d="M280.4,528.8c0,0,1.2,1.2,3.5,3.3c2.6,2.3,5.3,3.3,5.3,3.3s1.9-3.7,4.6-8.8c4.3-8,10.4-16.2,10.1-17.1
	c-0.3-0.9-1.7-1.4-1.7-1.4s-5.3,4.8-10.9,10C287.9,521.4,280.4,528.8,280.4,528.8z"/>
<path class="st8" d="M310.1,542.6c-1.3,0-2.8,0-4.3-0.1c-3.2-0.2-8.2-1.2-8.4-1.3l-2-0.4l0.5-2c0-0.2,1.2-4.8,2.7-8.6
	c1.3-3.1,2.1-5.4,2.9-7.3c0.5-1.3,1-2.6,1.5-3.9c1.3-3.2,3-7.9,3-7.9l0.5-1.5l6.5,0.8l0.3,1.3c0,0.1,0.7,3.1,0.8,6.7
	c0.1,1.5,0.3,3.9,0.5,6.9c0.1,1.5,0.3,3.1,0.4,4.9c0.4,5.5,1.3,9.6,1.3,9.6l0.4,1.9l-1.8,0.5C314.8,542.3,313.5,542.6,310.1,542.6
	L310.1,542.6z"/>
<path class="st8" d="M297.8,539.2c0,0,5.1,1.1,8.1,1.2c6.5,0.4,8.7-0.2,8.7-0.2s-0.9-4.1-1.4-9.9c-0.4-5.5-0.8-9.5-0.9-11.9
	c-0.1-3.5-0.8-6.3-0.8-6.3l-3.6-0.5c0,0-1.7,4.7-3.1,8c-1.3,3.3-2.2,6-4.4,11.2C298.9,534.6,297.8,539.2,297.8,539.2z"/>
<path class="st8" d="M320.8,538.5c0-0.1-1.1-5.9-3.6-12.9c-2.2-6.2-3.8-14.3-3.9-14.6l-0.5-2.4l2.1,0.1c0,0,0.1-0.1,0.1-0.1l0.6-1.1
	c0,0,1.2,0,1.2,0c0.9,0,1.1,0.2,2.6,2c1.5,1.8,4.5,5.5,8,9.5c5,5.8,9.2,9.7,9.3,9.7l1.4,1.3l-1.2,1.5c-0.1,0.2-1.5,1.7-6,4.6
	c-3.9,2.5-7.3,3.9-7.5,4l-2.3,0.9L320.8,538.5z"/>
<path class="st8" d="M315.3,510.6c0,0,1.6,8.2,3.8,14.3c2.6,7.2,3.7,13.2,3.7,13.2s3.4-1.3,7.1-3.8c4.4-2.8,5.6-4.2,5.6-4.2
	s-4.2-3.9-9.4-9.9c-5.1-5.9-9.1-10.9-9.1-10.9C316.3,510.4,315.3,510.6,315.3,510.6z"/>
<path class="st8" d="M338.7,527.8l-0.7-0.6c-0.8-0.8-1.7-1.6-2.9-2.7c-1.5-1.3-3.6-3.2-6.9-6.2c-2.7-2.5-4.7-4.6-6.3-6.4
	c-1.6-1.7-2.8-3-3.9-3.8c-0.6-0.4-1.1-1.3-0.7-2.4c0.1-0.2,0.7-2,2.3-2h0.2l0.2,0c2.9,0.6,4.8,1.2,6.7,1.7c1.8,0.5,3.7,1,6.6,1.7
	c2.1,0.5,3.8,0.9,5.8,1.5c1.9,0.5,4.2,1.2,7.7,2c0.6,0.2,1.2,0.6,1.4,1.2c0.3,0.7,0.8,1.9-3.4,9.3c-3.3,5.9-4.1,6.7-5.5,6.7H338.7z"
	/>
<path class="st8" d="M319.3,506.5c2.4,1.8,5,5.3,10.3,10.3c6,5.7,8,7.1,9.9,9c0.3,0.3,1.8-2,3.9-5.6c2.6-4.6,3.7-7.5,3.2-7.6
	c-7.1-1.8-9.4-2.6-13.5-3.5c-6.1-1.4-7.7-2.2-13.3-3.4C319.6,505.6,319.1,506.3,319.3,506.5z"/>
<path class="st8" d="M318.2,501.9c-0.3-1.7-0.8-3.5-1.1-3.9l-0.6-0.8l0.3-0.9c0.3-1.1,0.4-1.2,12.1-5.7c9.4-3.5,15.7-6.5,15.8-6.5
	l1.6-0.7l0.9,1.4c0.2,0.3,1.3,2.1,2.4,7c0.8,3.8,0.8,8.2,0.8,8.4l0,2l-2,0c0,0-1.3,0-3.5,0c-2.7,0-7,0-11.6,0.3
	c-6.7,0.3-12.8,1-12.9,1l-1.8,0.2L318.2,501.9z"/>
<path class="st8" d="M318.7,496.8c0,0,6.5-2.7,10.9-4.4c9.6-3.6,15.9-6.5,15.9-6.5s1,1.6,2.1,6.4c0.8,3.6,0.8,7.9,0.8,7.9
	s-7-0.2-15.2,0.2c-6.9,0.3-13,1-13,1S319.3,497.6,318.7,496.8z"/>
<path class="st8" d="M316.6,497.2l-0.6-0.6c-0.6-0.6-1.9-1.4-2.6-1.8l-1.8-0.9l0.9-1.8c0.1-0.1,1.6-3.1,4.1-7.5
	c2.1-3.7,3.6-6.9,5-10c0.6-1.3,1.1-2.5,1.7-3.8c1.3-2.7,2.1-5.7,2.1-5.7l0.5-2l2,0.6c0.3,0.1,2.8,1,6.4,3.9c3.8,3.2,5.9,5.4,6,5.5
	l1.4,1.5l-1.6,1.3c0,0-4.6,4-6,5.4c-1,1-2.4,2.3-3.9,3.6c-1.9,1.7-4.1,3.7-5.4,5.1c-6.1,6.8-6.4,6.9-7.3,6.9
	C317.5,497.2,316.6,497.2,316.6,497.2z"/>
<path class="st8" d="M314.3,493.1c0,0,2.1,1.1,3.2,2.2c0,0,3.4-3.5,5.9-6.3c2.4-2.7,7.2-6.5,9.4-8.8c1.4-1.5,6.1-5.5,6.1-5.5
	s-2.1-2.2-5.8-5.4c-3.4-2.8-5.7-3.6-5.7-3.6s-0.8,3.1-2.2,6.1c-2.1,4.4-3.7,8.6-6.8,13.9C315.8,490.1,314.3,493.1,314.3,493.1z"/>
<path class="st8" d="M304.4,493.5c0,0-0.4-1.8-0.6-2.6c-0.3-1.1-0.7-2.4-2-6.1c-0.4-1.1-0.8-2.3-1.2-3.5c-1.3-3.6-2.6-7.3-3.3-9.8
	c-1.2-4.3-2.3-8.3-2.3-8.3l-0.5-1.7l1.6-0.7c0.2-0.1,4-1.8,12.8-1.8h0.2c7.3,0,10.1,1.3,10.4,1.4l1.7,0.9l-0.8,1.8
	c0,0.1-2.7,5.7-4.4,11.5l-0.1,0.5c-0.6,1.9-1.4,4.4-2,8.8c-0.7,4.7-1.3,8.5-1.3,8.6l-0.2,1.6l-1.7,0.1c0,0-0.6,0-1.9,0.4
	c-1.1,0.3-1.6,0.5-1.6,0.5l-2.2,1L304.4,493.5z"/>
<path class="st8" d="M296.8,462.6c0,0,3.6-1.6,12.2-1.6c7,0,9.5,1.2,9.5,1.2s-2.7,5.8-4.5,11.8c-0.6,2-1.5,4.7-2.2,9.5
	c-0.7,4.7-1.3,8.6-1.3,8.6s-0.7,0-2.3,0.4c-1.4,0.3-1.9,0.6-1.9,0.6s-0.4-1.8-0.6-2.7c-0.3-1.2-0.8-2.6-2.1-6.3
	c-1.6-4.5-3.6-9.9-4.5-13.2C298,466.6,296.8,462.6,296.8,462.6z"/>
<path class="st6" d="M141.5,326.8c-1.2,0.1,4.2-10.1,4.6-9.7c4.3,4.3,8.8,8,8.8,8S152.7,326,141.5,326.8z"/>
</svg>
