<?xml version="1.0" encoding="utf-8"?>
<!-- Generator: Adobe Illustrator 26.4.1, SVG Export Plug-In . SVG Version: 6.00 Build 0)  -->
<svg version="1.1" id="Layer_1" xmlns="http://www.w3.org/2000/svg" xmlns:xlink="http://www.w3.org/1999/xlink" x="0px" y="0px"
	 viewBox="0 0 566.9 566.9" style="enable-background:new 0 0 566.9 566.9;" xml:space="preserve">
<style type="text/css">
	.st0{fill:none;stroke:#000000;stroke-miterlimit:10;}
	.st1{fill:none;stroke:#CE2D5C;stroke-miterlimit:10;}
	.st2{fill:none;stroke:#D5A380;stroke-miterlimit:10;}
	.st3{fill:none;stroke:#00A6E8;stroke-miterlimit:10;}
	.st4{fill:none;stroke:#590C3D;stroke-miterlimit:10;}
	.st5{fill:none;stroke:#DF8B26;stroke-miterlimit:10;}
	.st6{fill:none;stroke:#72471C;stroke-miterlimit:10;}
</style>
<path class="st0" d="M136.5,410.7c-13.2,0-25.3-4.5-36-13.3C86.1,385.6,83.5,368,83,362c-3.1,0.2-9.4,0.7-15.7,1.3
	c-3.4,0.4-7.1,0.5-11.1,0.5c-9,0-18.4-0.9-27.9-2.8c-1.8-0.4-3.3-0.8-4.4-1.2c0,3.3-0.3,8.5-2.1,13.7c-3.9,11.5-10.9,18.6-14.8,21.8
	C5,397.1-6.4,405.9-23,405.9c-0.7,0-1.5,0-2.2-0.1c-21.5-1-33.8-14.1-35.1-15.6c-4.8-5.4-11-16-12.6-28.2
	c-0.5-4.2-0.2-17.8,7.8-30.2c7.5-11.7,19.8-16.7,24.8-18.3c-1-2.6-2.7-7.3-3.9-11.9c-0.3-1.3-1.5-6.7-1.8-9c-0.3-2-0.3-5.2-0.4-8.3
	c0-1.3,0-2.6-0.1-3.8c0-0.2,0.4-18.8,7.9-33.2c3.8-7.2,8.4-16.1,19.4-23l0.7-0.5c6.4-4.1,17.2-10.9,32.8-11.4c0.2,0,0.4,0,0.6,0
	c6.1,0,12.5,2.9,16.2,4.8c0-2.4,0-5.6,0-8.5c0-0.4-0.1-10.5,2-23.2c2.3-13.9,8.2-23.9,17.2-28.9c4.3-2.4,9.3-3.7,14.6-3.7
	c6.2,0,11.2,1.6,12.8,2.2c1.5,0.5,14.8,5.2,20.1,16.3c2,4.2,2.3,8.1,2.5,10.3c0.3,3.3,0.6,6.6-1.9,8.7c-1,0.8-2.4,1.3-3.9,1.3
	c-0.9,0-1.8-0.2-2.7-0.4c-2.5-0.9-3.6-2.8-4.8-4.8c-0.4-0.7-0.8-1.4-1.3-2.1c-1.2-1.7-4.3-6-9-8.3c-1.4-0.7-3.6-1.8-6.3-1.8
	c-0.5,0-1.1,0-1.6,0.1c-4.8,0.8-7.6,5-8.8,6.8c-4.1,6.1-3.6,12.7-3.2,18.6c0.3,4.6,3.7,12.1,5.4,15.6c1.9-1,5.2-2.7,9.4-4.2
	c3.1-1.1,7.2-1.7,12.9-1.7c2.3,0,4.9,0.1,8,0.3c11.5,0.7,20.4,2.6,20.5,2.7c18.1,4.7,28.5,19.9,32.5,25.7
	c12,17.5,12.4,29.8,12.6,36.4c0.4,10.6,0.7,21.6-3.4,31.2c-0.6,1.5-1.3,2.8-1.9,3.8c2.1,0.9,5.4,2.2,8.3,3.5
	c18.1,8.1,24.3,26.2,24.9,28.2c6.2,19.6-0.3,37.7-2.4,41.4c-11.3,20.5-29.1,25.8-36.3,27.1C143.8,410.4,140.1,410.7,136.5,410.7z"/>
<path class="st0" d="M33.1,220.7c0,0,0-6.6,0-11.9c0,0-0.1-10.2,2-22.9c0.6-3.7,3.3-20.3,16.2-27.5c11.1-6.2,23.1-2.2,25.9-1.3
	c1.2,0.4,14,4.8,18.9,15.2c1.8,3.8,2.1,7.6,2.3,9.6c0.3,3.1,0.5,5.6-1.2,7c-1.3,1.1-3.3,1-4.6,0.5c-2.5-0.9-3.1-3.1-5.1-6.1
	c-1-1.4-4.4-6.3-9.8-8.9c-1.7-0.9-5.1-2.5-9.1-1.8c-5.6,0.9-8.8,5.7-10.1,7.6c-4.3,6.5-4,13.3-3.5,19.9c0.5,6.7,6.5,18.2,6.5,18.2
	s4.4-2.7,10.9-5.1c4.6-1.7,11.6-1.8,20.1-1.3c11.2,0.7,20.1,2.6,20.1,2.6c17.4,4.5,27.6,19.4,31.3,24.9c11.3,16.5,12,27.8,12.3,35.3
	c0.4,11.1,0.6,21.4-3.2,30.3c-1.4,3.3-3.1,5.5-3.1,5.5s5.7,2.2,10.5,4.4c15.4,6.9,22.2,21.8,23.8,27c6.2,19.6-0.8,37.3-2.2,39.9
	c-10.6,19.2-27.3,24.7-34.9,26.1c-11.4,2.1-28.5,1.9-45.3-11.9c-16.7-13.8-16.9-35.9-16.9-35.9s-8.8,0.5-17.7,1.5
	c-4.7,0.5-18.9,1.6-38.3-2.2c-4.8-0.9-7-2.6-7-2.6s1,8.1-1.8,16.4c-3.6,10.6-10,17.5-14.2,20.9c-2.8,2.3-14.4,10.8-31,10
	c-18.3-0.9-30.1-10.9-33.8-14.9c-3.7-4.1-10.5-14.3-12.1-27.2c-0.3-2.6-0.7-16.1,7.5-28.8c9.1-14.2,25.8-18.1,25.8-18.1
	s-2.9-6.9-4.6-13.7c-0.3-1.3-1.5-6.6-1.8-8.8c-0.4-2.7-0.3-8-0.4-11.9c0-0.3,0.4-18.4,7.7-32.2c3.8-7.2,8.2-15.7,18.7-22.2
	c6.4-4,16.9-11.1,32.5-11.6C23.2,214.2,33.1,220.7,33.1,220.7z"/>
<path class="st1" d="M190.4,200.8c0.8-1.9,2.8-7.3,3.1-10.3c0.3-4,0.3-7.4,0.2-11c-0.2-6.5-0.3-13.2,1.9-24.1
	c1-4.9,2.5-12.3,6.2-17.9c2.1-3.1,6.3-9.6,15.3-12.8c2.9-1,6.2-1.6,9.8-1.6c4.8,0,9,1,11,1.5c3.2,0.9,10.8,3.9,16.2,9
	c4.9,4.6,7.2,8.6,8,13.6c0.1,0.6,0.2,1.2,0.3,1.8c0.7,3.9,1.4,8.3-1.1,11.1c-0.7,0.8-2,1.7-4.1,1.7c-1.1,0-2-0.2-2.7-0.4
	c-2.8-0.7-5-4.6-5.5-5.3c-1.7-3.1-4.3-6.1-5.5-7.1c-3.6-3-5.7-4-10-4.7c-0.2,0-0.5-0.1-0.8-0.1c-3.3,0-7.6,2.9-10.3,7
	c-2.8,4.2-3.3,7.2-3.4,11.9c-0.1,4.6-0.2,9.4,4.1,19.3c2.8,6.6,4.6,8,5,8.2h1.6l0.6,3.2l-1.8,0.7c-0.3,0.1-0.7,0.3-2.1,1.1
	c-1.9,1.1-3.2,1.8-4.3,3.3c-1.2,1.5-2,2.4-2,2.4l-1,1.2l-1.4-0.7c0,0-1.6-0.8-3.3-1.3c-0.3-0.1-0.7-0.1-1-0.1
	c-1.4,0-2.9,0.6-4.2,1.2c-2.2,0.9-3.4,1.6-3.4,1.6l-1,0.5l-0.9-0.5c0,0-2.3-1.3-4.4-1.8c-0.3-0.1-0.6-0.1-1-0.1
	c-2.1,0-4.5,1.4-5.2,1.9l-5.7,4.1L190.4,200.8z"/>
<path class="st1" d="M192.2,201.6c0,0,4.2-3.1,7.8-2.1c2.3,0.6,4.8,2,4.8,2s1.3-0.7,3.6-1.7c1.8-0.8,4.2-1.8,6.5-1.2
	c1.9,0.5,3.6,1.4,3.6,1.4s0.8-1,2-2.4c1.4-1.7,3-2.6,4.9-3.7c1.9-1.1,2.1-1.1,2.7-1.3c0.1,0-2.4,1-6.8-9.4
	c-4.5-10.4-4.4-15.5-4.3-20.2c0.1-4.9,0.7-8.4,3.7-13c3.3-5.1,8.9-8.5,13-7.8c4.5,0.7,7.1,1.9,11,5.2c1.4,1.2,4.1,4.3,6,7.7
	c1.1,2.1,2.9,4.1,4.1,4.4c1.2,0.3,3.5,0.9,4.9-0.7c2.2-2.5,0.9-7.4,0.3-11.3c-0.7-4.5-2.7-8.1-7.4-12.4c-5.1-4.8-12.3-7.7-15.3-8.5
	c-3.1-0.8-11.8-2.8-19.6,0c-8.4,3-12.4,9.1-14.3,12.1c-3.4,5.1-4.9,12-5.9,17.2c-3.4,16.8-1.1,23.6-2.1,34.9
	C195.1,194.6,192.2,201.6,192.2,201.6z"/>
<path class="st1" d="M352.6,339.3c-0.7,0-1.5-0.3-2-0.8c-1.6-1.6-1.6-4.8-1.3-14.6c0.2-7.5,0.4-17.9-0.4-30.1
	c-1-14-1.5-26.1-1.8-33.7c-0.6-14.3-0.6-14.3,0.2-15.1c4-4,8.7-6.2,19.5-9.2c4.6-1.3,10-1.5,13.8-1.5c6.7,0,13.3,0.8,16.2,2
	c4.7,1.9,10.4,5.4,11.6,7.9c0.6,1.3-0.3,42.7-0.4,48.1c-0.3,11.4,0.8,20.9,1.7,27.8c1.1,9.1,1.7,14.2-1.7,16.2
	c-1.3,0.7-4.6,0.9-17,1c-12.2,0.1-29,0.3-37.7,2.1C353,339.3,352.8,339.3,352.6,339.3z"/>
<path class="st1" d="M348.6,246.4c3.7-3.7,8.1-5.8,18.6-8.7c9.2-2.5,24.6-1.3,28.8,0.4c5,2,9.7,5.3,10.6,6.9
	c0.1,0.2,0,25.3-0.6,47.2c-0.7,24.6,5.3,39.8,0.9,42.3c-2.4,1.4-39.2-0.3-54,2.9c-3.5,0.7-0.1-16.9-2-43.7
	C348.9,266.8,348.5,246.4,348.6,246.4z"/>
<path class="st1" d="M455.7,293.2c-2.2,0-6.7,0-6.7-3.1c0-5.4-0.3-16-0.6-25.3c-0.1-5.1-0.3-9.8-0.4-13.3c-0.2-6.8-0.2-6.8,0.8-7.5
	c1.2-0.9,2.8-1.3,5.6-2l1.6-0.4c5.3-1.3,10.9-1.9,16.8-1.9c1.5,0,3.1,0,4.6,0.1l2.2,0.1c9.1,0.5,12.9,0.7,13.1,3.7
	c0.1,1.6,0.6,38.3,0.1,44.4c-0.1,1.3-0.8,2-5,3c-1.6,0.4-4.6,1-7.8,1c-2,0-3.7-0.2-5.1-0.7c-2.2-0.7-3.9-1.5-5-2.1
	c-1.8,1.2-5.7,3.4-10.1,3.7C458.3,293.2,456.9,293.2,455.7,293.2L455.7,293.2z"/>
<path class="st1" d="M450,245.6c-0.3,0.2,1,33.1,1,44.5c0,1.4,5,1.2,8.7,1c5.4-0.4,10.1-4.1,10.1-4.1s2.4,1.4,5.8,2.5
	c5.5,1.9,15.2-1.1,15.3-1.6c0.4-5.7,0-42.4-0.1-44.1c-0.1-1.4-5.9-1.6-13.4-2c-10.2-0.6-17.4,0.9-20.9,1.7
	C452.9,244.5,451.1,244.8,450,245.6z"/>
<path class="st2" d="M571.5,195.7c-5.3,0-7.2-0.7-7.3-2.7c-0.3-13.9-0.9-30.7-1.3-43l-0.1-1.6c-0.1-1.9,1.3-2.9,9.3-4.3
	c4.7-0.8,10-1.4,13.9-1.6c1,0,2.1-0.1,3.3-0.1c3.6,0,7.8,0.2,11.3,0.7c4.9,0.6,7.1,1.2,7.1,3.3c0.2,19.1,0.2,44.4,0.2,44.6l0,1.6
	l-1.5,0.4c-1.1,0.3-6.8,1.7-8.6,1.7c-1.9,0-2.3-1.4-2.3-1.7c-1-4.6,2.3-10.4,4-13c-0.8-0.9-1.8-2.2-2.8-4.1
	c-2.2-4-1.9-10.7-1.7-14.3c-4-0.2-6.9-2.4-8.6-4.5c-1.8,2.6-5.3,5.3-11.2,5.7c0.7,2.6,1.6,6.6,1.1,9.8c-0.7,4.8-2.6,7.3-4.2,8.6
	c1.6,2.2,3.1,6.3,1.9,13C573.7,195.1,572.9,195.7,571.5,195.7z"/>
<path class="st2" d="M572,193.7c1.9-10.1-3.2-13.2-3.2-13.2s4.4-0.2,5.6-8.3c0.7-4.6-1.9-11.5-1.8-11.5c12.1,0.5,13.5-7.8,13.5-7.8
	s3.5,7.7,11.1,6.5c0.2,0-1.4,10.4,1.3,15.4c1.9,3.5,3.6,4.8,3.6,4.8s-5.7,7.7-4.6,12.8c0.1,0.6,8.5-1.5,8.5-1.5s0-25.3-0.2-44.6
	c0-1-11.4-2.3-19.5-1.9c-8,0.4-21.4,2.6-21.3,3.8c0.4,12.1,1,30.1,1.4,44.6C566.2,193.7,572,193.7,572,193.7z"/>
<path class="st1" d="M413.8,189.2c0,0-5-1-12.6-1c-2.2,0-4.4,0.1-6.6,0.2c-10.1,0.8-17.1,1-17.2,1l-1.5,0.1l-0.4-1.5
	c-0.1-0.3-0.9-3.1-1.1-12c-0.2-8.6,0-11.8,0-11.9l0.1-1.6l1.6-0.2c0.1,0,6.8-0.8,18.7-1.5c4.2-0.3,8.2-0.4,11.8-0.4
	c5,0,7.6,0.3,7.7,0.3l1.9,0.2l-0.1,1.9c0,0.1-0.4,5.8-0.1,13.6c0.3,7.7,0.3,10.7,0.3,10.7l0.1,2.5L413.8,189.2z"/>
<path class="st1" d="M376.3,164.3c0,0,6.6-0.8,18.6-1.5c12.9-0.8,19.1-0.1,19.1-0.1s-0.4,5.8-0.1,13.8c0.3,7.8,0.3,10.7,0.3,10.7
	s-8.1-1.7-19.8-0.8c-10.2,0.8-17.1,1-17.1,1s-0.8-2.5-1-11.5C376,167.4,376.3,164.3,376.3,164.3z"/>
<path class="st3" d="M259,334l-0.4-1.5c-0.1-0.2-0.2-1-0.5-2c-0.7-2.8-1.9-8-2.4-9.9l-0.3-0.9l0.6-0.8c0.7-0.9,0.9-1.1,10.8-1.2
	l2.3,0l-0.3,2.3c-0.3,2.1-0.8,5.8-1,6.6c-0.4,1.4-5.6,7.4-7.3,7.4H259z"/>
<path class="st3" d="M257.6,320.2c-0.1-0.4,9.2-0.4,9.2-0.4s-0.7,5.5-0.9,6.3c-0.5,1.7-5.4,6.1-5.4,6
	C260.3,331.1,258.3,322.7,257.6,320.2z"/>
<path class="st3" d="M283.8,376.6l-0.6-0.5c-1.4-1.3-3.3-3.2-5.2-5c-3-2.9-6.1-5.9-7-6.7l-1-0.9l0.4-1.3c0.5-1.4,7.2-5.9,8.9-6
	c0,0,0,0,0,0c1.7,0,1.9,0.5,5.3,8.6c1.2,2.9,2.8,6.9,3.4,7.6l0.7,1l-0.6,1.1c-0.4,0.7-2.5,2.2-3.5,2.2H283.8z"/>
<path class="st3" d="M272.3,362.8c-0.2-0.2,5.9-4.6,7.2-4.7c0.6,0,5.6,13.4,6.9,15.3c0.1,0.1-1.7,1.2-1.8,1.2
	C281.1,371.2,273.9,364.2,272.3,362.8z"/>
<path class="st3" d="M237.2,296.3c-0.1,0-11.3-2.1-12.4-4c-0.5-0.8-1-1.6,2.7-8.3l1-1.9l1.8,1.1c1,0.6,9.5,6,11.4,7.7
	c0.7,0.6,0.9,1.5,0.6,2.3c-0.6,1.6-4.2,2.9-5,2.9L237.2,296.3z"/>
<path class="st3" d="M226.5,291.3c-0.4-0.7,2.7-6.4,2.7-6.4s9.3,5.9,11.2,7.6c0.5,0.4-2.7,1.8-3.1,1.8
	C236.3,294.2,226.8,291.8,226.5,291.3z"/>
<path class="st3" d="M305.6,336.9l-0.5-0.4c-1.6-1.3-4.2-3.7-6.6-6.4c-0.2-0.2-1.6-2.5-1.1-3.9l0.4-1.1l1.2-0.2
	c2.6-0.4,5.3-0.5,7.2-0.5c1,0,1.6,0,1.6,0l2.2,0.1c0,0-0.7,4.3-1,6.4c-0.2,1.1-0.3,2.1-0.5,2.9c-0.3,1.6-0.5,3-2.2,3H305.6z"/>
<path class="st3" d="M299.1,326.9c4-0.6,8.5-0.4,8.5-0.4s-1.3,8.5-1.4,8.5c-1.5-1.2-4-3.5-6.3-6.2
	C299.6,328.3,299.1,326.9,299.1,326.9z"/>
<path class="st3" d="M323.4,368.2c-1,0-4.4-1.8-5-2.8l-0.6-0.9l0.5-1.1c0.3-0.6,0.7-1.3,1.1-2.1c0.6-1.1,1.3-2.4,1.8-3.6
	c0.5-0.9,1.5-3,2.3-4.5c0.4-0.7,0.7-1.3,0.8-1.5c0.4-0.7,1.1-1.2,2-1.2c1,0,2,0.5,5.2,3.2c4.4,3.8,4.4,4.8,4.3,5.4l-0.1,1l-0.8,0.6
	c-1.5,1-2.7,1.9-4,2.9c-1.9,1.4-3.9,2.9-6.5,4.5l-0.5,0.3L323.4,368.2z"/>
<path class="st3" d="M326.2,352.5c0.2-0.5,2,0.9,4.1,2.6c2,1.8,3.8,3.7,3.6,3.8c-3.7,2.4-6.2,4.6-10.5,7.3c-0.1,0-3.5-1.6-3.3-2
	c0.7-1.4,2-3.6,3-5.7C323.8,357.1,325.8,353.1,326.2,352.5z"/>
<path class="st1" d="M264.5,254.9c-0.8,0-1.5-0.3-2-0.9c-1.6-1.7-1.8-5.6-1.5-13.7c0.1-1.5,0.1-2.7,0.1-3.6
	c-0.1-3.4-1.1-12.4-1.5-15.7c-0.3-2.2-0.3-3,0.9-3.6c3.1-1.5,6.6-2.3,14.8-3.4c3.4-0.5,7.5-0.6,10.4-0.6c5,0,10,0.3,12.2,0.7
	c0.1,0,7.4,1.5,9.1,3.1c0.7,0.6,0.7,0.9,0.5,3.3c-0.2,3.3-0.8,12.2-0.4,15.3c0.1,0.7,0.2,1.5,0.3,2.5c1.4,10.4,1.5,14-0.7,15.2
	c-1.1,0.5-3.3,0.6-16.1,0.6c-8.8,0-19.9,0-25.8,0.6l-0.1,0L264.5,254.9z"/>
<path class="st1" d="M261.3,219.2c2.8-1.4,6.1-2.1,14.2-3.2c7-0.9,18.7-0.5,21.9,0.1c3.8,0.8,7.4,2,8.1,2.6c0.1,0.1-1,13.1-0.5,17.5
	c0.5,3.9,2.3,14.9,0.7,15.7c-1.7,0.9-29.9-0.1-41.2,1.1c-2.7,0.3-1.5-12.1-1.5-16.2C263,232.3,261.3,219.2,261.3,219.2z"/>
<path class="st2" d="M472.7,186.3c-2.2,0-4.1-1.8-4.1-4c0-1.3,0-3.2,0-5.4c0.1-6.8,0.2-17.2-1.6-25.7c-0.1-0.6,0-1.2,0.4-1.7
	c1.8-2.3,19.8-4.8,25-5c0.4,0,0.8,0,1.3,0c6.8,0,19.4,2.1,21,3.9c0.4,0.5,0.6,1,0.5,1.6c-1.2,10.5-0.2,19.9,0.5,26.2
	c0.3,2.4,0.5,4.3,0.5,5.6c0,1.9-1.5,3.5-3.5,3.6c-0.8,0-1.9,0-3,0.1c-1.5,0-3,0.1-4.1,0.1c-1.7,0-3.3,0-3.8-1.6
	c-1-3.6,1.8-7.9,3.7-10.3c-0.7-0.7-1.6-1.6-2.4-2.8c-2.2-3.1-2.1-7.9-1.8-10.9c-0.4,0-0.7,0-1.1-0.1c-2-0.2-4-0.4-6-0.4
	c-3.1,0-6.2,0.3-9.1,0.9c-1,0.2-2.2,0.4-3.4,0.4c0.7,2,1.3,4.8,0.9,7.2c-0.7,3.5-2.2,5.4-3.8,6.5c1.5,2,2.5,5.1,1.4,9.7
	c-0.3,1.2-0.4,1.7-7.2,2.1C472.8,186.3,472.7,186.3,472.7,186.3L472.7,186.3z"/>
<path class="st2" d="M478.2,183.7c1.9-7.7-3.2-9.8-3.2-9.8s4.4-0.2,5.6-6.3c0.7-3.5-1.9-8.8-1.8-8.8c2.3,0.1,4.2-0.1,5.8-0.4
	c5.2-1.1,10.5-1.2,15.8-0.6c0.9,0.1,1.9,0.1,3,0c0.2,0-1.4,8,1.3,11.8c1.9,2.7,3.6,3.7,3.6,3.7s-5.7,6.1-4.6,10c0.1,0.3,6.1,0,9,0
	c0.9,0,1.5-0.7,1.5-1.6c0-4.6-2.6-17.3-1-32c0.1-0.8-12.7-3.6-20.8-3.3c-8,0.3-23.7,3.4-23.5,4.3c2.4,11.5,1.4,26,1.6,31.4
	c0,1.2,1.1,2.1,2.3,2.1C475.1,184.2,478.2,183.8,478.2,183.7z"/>
<g>
	<path class="st4" d="M452.9,443.7c-7,0-14.1-1.3-20.5-3.8c-15.2-5.9-23.3-17.3-26-21.9c-1.3-2.1-12.4-21.6-4.4-43.9
		c3.7-10.2,9.8-16.8,13.1-19.8c10.3-9.4,22-11.6,25.8-12.3c1.7-0.3,6.3-1.2,12.5-1.2c9.8,0,24,2.3,35.8,13.2
		c17.6,16.3,16,38.7,15.1,45.2c-1.8,13.1-7.7,24.2-17,32.2C478.2,439.3,465.9,443.7,452.9,443.7z"/>
	<path class="st4" d="M416.5,355.7c9.7-8.8,20.5-11,24.9-11.9c4.2-0.8,28.4-5.4,46.6,11.5c17.7,16.4,15,39.6,14.5,43.5
		c-0.6,4.2-2.9,19.5-16.3,31c-15,12.9-36.4,14.7-53,8.2c-15.6-6.1-23.2-17.9-25.1-21.1c-0.9-1.5-11.9-20.6-4.2-42.2
		C407.8,363.9,414.6,357.4,416.5,355.7z"/>
	<path class="st4" d="M453.7,400.6c-4.1,0-7.5-3.4-7.5-7.5c0-4.1,3.4-7.5,7.5-7.5s7.5,3.4,7.5,7.5
		C461.2,397.3,457.8,400.6,453.7,400.6z"/>
	<path class="st4" d="M453.7,398.6c-3,0-5.5-2.5-5.5-5.5c0-3,2.5-5.5,5.5-5.5c3,0,5.5,2.5,5.5,5.5
		C459.2,396.2,456.7,398.6,453.7,398.6z"/>
	<path class="st4" d="M427.8,422.5c-1.4-1.1-2.6-2.1-3.5-3c-0.9-0.8-1.8-1.8-2.7-2.9l-1.4-1.7l20.6-14l1.1,1.5l0.1,0.1
		c0.1,0.1,0.2,0.2,0.2,0.3l1.1,1.2l-0.9,1.3c-0.9,1.2-2.1,2.9-3.8,5.4l-0.3,0.4c-2.8,4-6.2,9-7.7,11.1l-1.2,1.7L427.8,422.5z"/>
	<path class="st4" d="M429,420.9c-1-0.8-2.3-1.9-3.3-2.9c-1-0.9-1.9-2-2.6-2.8l17.2-11.7c0.1,0.1,0.1,0.1,0.2,0.2
		c0.1,0.1,0.2,0.2,0.3,0.3c-0.9,1.2-2.1,3-3.8,5.4C434.2,413.5,430.5,418.8,429,420.9z"/>
	<path class="st4" d="M450.2,430.9c-1.7-0.1-4-0.3-4.9-0.5c-1.3-0.2-2.7-0.6-4.2-1.1l-2.1-0.7l0.9-2c0.1-0.1,5.9-13.8,7.6-18
		l0.7-1.6l1.8,0.4c0.2,0.1,0.4,0.1,0.5,0.1l1.6,0.3l0.1,1.6c0.1,3,0.2,9.3,0.3,18.4l0,3.2L450.2,430.9z"/>
	<path class="st4" d="M450.4,428.9c-1.8-0.1-3.9-0.3-4.8-0.5c-1.4-0.2-2.8-0.6-4-1c0.8-2,6-14.1,7.6-18.1c0.1,0,0.1,0,0.2,0
		c0.2,0.1,0.4,0.1,0.6,0.1c0.1,2.2,0.2,7.2,0.3,18.3L450.4,428.9z"/>
	<path class="st4" d="M465.7,426.8c-0.4-1.3-1.7-5.7-3.2-10.1c-1.1-3.2-2.1-6.4-2.6-8l3.5-1.8c2,2.7,3.3,4.5,3.9,5.2
		c3.2,4,6.4,7.9,8,9.8l1.5,1.7l-1.9,1.2c-1,0.6-1.9,1.2-2.8,1.6c-1.2,0.6-2.4,1.2-3.7,1.6l-2,0.7L465.7,426.8z"/>
	<path class="st4" d="M467.6,426.3c-0.3-1.1-1.7-5.6-3.3-10.2c-1.1-3.3-2.2-6.5-2.6-8c1.3,1.8,3.1,4.3,3.9,5.3
		c3.1,3.9,6.2,7.7,8.1,9.9c-0.7,0.5-1.6,1-2.6,1.5C469.8,425.4,468.6,425.9,467.6,426.3z"/>
	<path class="st4" d="M480,417.8c-1.9-2-5.5-5.5-7.6-7.4c-1.5-1.3-4.7-4.4-6.4-6.1l2.2-3.2c2.1,1,5.4,2.5,7.9,3.6
		c3.1,1.4,7.6,3.3,10,4.4l2,0.8l-1,1.9c-0.7,1.3-1.4,2.4-2,3.3c-0.5,0.7-1.3,1.6-2.3,2.7l-1.4,1.5L480,417.8z"/>
	<path class="st4" d="M481.4,416.4c-2-2.1-5.5-5.6-7.7-7.5c-1.4-1.3-4.5-4.3-6.4-6c2.1,1,5.4,2.5,7.9,3.6c3.1,1.4,7.4,3.3,10,4.4
		c-0.5,1-1.2,2.1-1.8,3C482.9,414.7,482.1,415.7,481.4,416.4z"/>
	<path class="st4" d="M489.7,394.7c-1.5-0.1-6.1-0.2-10-0.4c-1.3-0.1-7.7-0.4-9.7-0.5l-1.8-0.1l-0.1-1.8c0-0.4-0.1-0.8-0.1-1.2
		c0-0.2-0.1-0.4-0.1-0.6l-0.4-1.9c0,0,7.2-1.4,11.1-2.1c3.4-0.7,7.6-1.4,10.5-1.9l2-0.3l0.3,2c0.2,1.4,0.3,2.6,0.3,3.7
		c0,1.2,0,2.4,0,3.3l0,2L489.7,394.7z"/>
	<path class="st4" d="M489.8,392.8c-1.4-0.1-6.1-0.2-10-0.4c-1.3-0.1-7.7-0.4-9.7-0.5c0-0.4-0.1-0.9-0.1-1.3c0-0.3-0.1-0.5-0.1-0.8
		c1.5-0.3,5.2-1,9.2-1.8c3.5-0.7,7.9-1.5,10.5-1.9c0.1,1,0.3,2.3,0.3,3.5C489.8,390.8,489.8,391.9,489.8,392.8z"/>
	<path class="st4" d="M462.6,381.6c-0.1-0.1-0.2-0.2-0.3-0.3l-1.4-1l0.8-1.5c1-1.8,4.3-8,5.5-10.4c1.1-2.2,3.2-6.1,4.4-8.2l1-1.8
		l1.8,1c1.3,0.8,3.3,2,5,3.6c1.3,1.2,2.6,2.5,3.8,3.9l1.5,1.7l-1.8,1.3c-2.2,1.5-5.8,4-8.2,5.7l-10.5,7.4L462.6,381.6z"/>
	<path class="st4" d="M463.9,380.1c-0.1-0.1-0.3-0.2-0.4-0.4c1.5-2.9,4.4-8.3,5.5-10.4c1.1-2.1,3.1-5.9,4.3-8.2
		c1.3,0.7,3.1,1.9,4.6,3.4c1.5,1.4,2.8,2.8,3.7,3.8c-2.2,1.5-5.8,4-8.2,5.7c-3,2.1-7.1,5-9.2,6.5L463.9,380.1z"/>
	<path class="st4" d="M444.5,355l2.2-0.3c1.5-0.2,3.6-0.5,4.8-0.5l0.6,0c1.2,0,2.8,0,4,0.1l2.2,0.1l-3.6,24.2l-1.7,0.1
		c-0.2,0-0.5,0-0.8,0c-0.1,0-0.2,0-0.4,0l-1.7,0.2L444.5,355z"/>
	<path class="st4" d="M447,356.6c1.6-0.2,3.5-0.5,4.6-0.5l0.6,0c1.2,0,2.7,0,3.9,0.1l-3,20.3c-0.3,0-0.5,0-0.9,0c-0.1,0-0.3,0-0.5,0
		C450.8,372.8,448.1,361.5,447,356.6z"/>
	<path class="st4" d="M441.1,382c-2.3-2.2-10.2-10-15.9-15.4l-1.6-1.5l1.7-1.4c0.8-0.7,1.8-1.4,2.9-2.3c1-0.8,2.6-1.7,4.7-2.7
		l1.8-0.9l0.9,1.8c0.6,1.3,2,4.2,4.5,10c2.1,5,3.7,8.7,4.2,9.9l0.1,0.3L441.1,382z"/>
	<path class="st4" d="M442.5,380.6c-2.6-2.5-10.3-10.1-15.9-15.4c0.7-0.6,1.6-1.3,2.8-2.2c1.2-0.9,3-1.9,4.3-2.5
		c0.6,1.2,1.9,4.2,4.4,10C440.6,376.2,442.3,380.2,442.5,380.6z"/>
	<path class="st4" d="M437,388.7c-4.1-1-11.2-2.9-13.6-3.6c-1.8-0.5-5.5-1.5-7.5-2l-1.9-0.5l0.5-1.9c0.3-1.1,0.6-2.1,1-2.9
		c0.3-0.8,1-2.1,2-3.9l1-1.9l1.8,1.2c1.4,0.9,4.4,2.8,8.4,5.5c3.5,2.3,7.6,5,10,6.5L437,388.7z"/>
	<path class="st4" d="M437.5,386.8c-3.4-0.9-11.1-2.9-13.6-3.6c-1.7-0.5-5.3-1.5-7.5-2.1c0.2-0.8,0.5-1.8,0.9-2.6
		c0.4-0.9,1.2-2.4,1.9-3.7c1.4,0.9,4.3,2.8,8.4,5.5C431,382.6,435.1,385.2,437.5,386.8z"/>
	<path class="st4" d="M415.1,404.2c-0.7-1.9-1.2-3.5-1.5-4.7c-0.1-0.6-0.3-1.8-0.4-3.8l-0.2-2.2l25.9,0.2l0.1,1.8c0,0.1,0,0.2,0,0.3
		l0.2,1.6l-23.4,8.7L415.1,404.2z"/>
	<path class="st4" d="M416.9,403.5c-0.5-1.3-1.1-3.1-1.5-4.5c-0.1-0.5-0.3-2-0.4-3.5l21.9,0.2c0,0.1,0,0.2,0,0.3L416.9,403.5z"/>
</g>
<g>
	<path class="st5" d="M590.7,422.3c-6.5,0-13-1.2-18.8-3.5c-13.9-5.4-21.3-15.9-23.9-20.1c-1.2-2-11.3-19.8-4-40.2
		c3.4-9.4,9-15.4,12-18.2c9.5-8.6,20.2-10.6,23.7-11.3c1.6-0.3,5.8-1.1,11.5-1.1c9,0,22,2.1,32.8,12.1
		c16.1,14.9,14.7,35.5,13.9,41.5c-1.6,12-7,22.2-15.6,29.5C613.9,418.3,602.7,422.3,590.7,422.3z"/>
	<path class="st5" d="M557.4,341.8c8.9-8.1,18.7-10.1,22.7-10.8c3.9-0.7,26-4.9,42.6,10.5c16.2,15,13.7,36.2,13.2,39.7
		c-0.5,3.9-2.7,17.8-14.9,28.3c-13.7,11.8-33.2,13.5-48.4,7.5c-14.2-5.6-21.2-16.4-22.9-19.3c-0.8-1.4-10.9-18.8-3.8-38.5
		C549.5,349.2,555.7,343.3,557.4,341.8z"/>
	<path class="st6" d="M591.5,383c-3.9,0-7-3.1-7-7c0-3.9,3.1-7,7-7c3.9,0,7,3.1,7,7C598.5,379.9,595.3,383,591.5,383z"/>
	<path class="st6" d="M591.5,381c-2.8,0-5-2.3-5-5s2.3-5,5-5s5,2.3,5,5S594.2,381,591.5,381z"/>
	<path class="st6" d="M567.6,402.9c-1.3-1-2.4-2-3.2-2.8c-0.8-0.8-1.6-1.7-2.5-2.7l-1.4-1.7l19.1-13l1.2,1.6
		c0.1,0.1,0.1,0.2,0.2,0.2l1.1,1.2l-0.9,1.3c-0.8,1.1-1.9,2.7-3.4,4.9l-0.2,0.2c-2.6,3.7-5.8,8.4-7.2,10.3l-1.2,1.7L567.6,402.9z"/>
	<path class="st6" d="M568.9,401.4c-0.9-0.7-2.1-1.7-3.1-2.6c-0.9-0.9-1.7-1.8-2.4-2.5l15.7-10.7c0.1,0.1,0.1,0.1,0.2,0.2
		c0.1,0.1,0.2,0.2,0.3,0.3c-0.8,1.1-1.9,2.7-3.5,5C573.7,394.6,570.3,399.5,568.9,401.4z"/>
	<path class="st6" d="M588.3,410.7c-1.6-0.1-3.6-0.3-4.5-0.5c-1.2-0.2-2.5-0.5-3.9-1l-2.1-0.7l0.9-2c0.1-0.1,5.4-12.7,6.9-16.5
		l0.6-1.6l1.8,0.5c0.1,0,0.3,0.1,0.4,0.1l1.6,0.3l0.1,1.6c0.1,2.7,0.2,8.5,0.3,16.8l0,3.1L588.3,410.7z"/>
	<path class="st6" d="M588.5,408.7c-1.6-0.1-3.6-0.3-4.3-0.4c-1.3-0.2-2.6-0.6-3.6-0.9c0.8-1.8,5.5-12.9,6.9-16.5c0.1,0,0.1,0,0.2,0
		c0.2,0,0.4,0.1,0.6,0.1c0.1,2,0.2,6.6,0.3,16.7L588.5,408.7z"/>
	<path class="st6" d="M602.3,406.8c-0.2-0.8-1.5-5-3-9.3c-1-2.9-2-5.9-2.4-7.4l3.5-1.8c1.8,2.5,3,4.1,3.6,4.8c2.9,3.7,5.8,7.2,7.3,9
		l1.5,1.7l-1.9,1.2c-0.9,0.6-1.7,1.1-2.5,1.5c-1.1,0.6-2.2,1.1-3.4,1.5l-2,0.7L602.3,406.8z"/>
	<path class="st6" d="M604.2,406.3c-0.3-1-1.5-5.2-3-9.3c-1-3-2-6-2.4-7.3c1.2,1.6,2.9,3.9,3.6,4.8c2.8,3.6,5.7,7.1,7.4,9
		c-0.7,0.4-1.5,0.9-2.4,1.4C606.2,405.5,605.1,405.9,604.2,406.3z"/>
	<path class="st6" d="M615.3,398.7c-1.8-1.8-5-5-6.9-6.7c-1.4-1.3-4.6-4.3-5.9-5.6l2.2-3.2c1.9,0.9,4.9,2.3,7.2,3.3
		c2.9,1.3,6.9,3.1,9.1,4l2,0.8l-1,1.9c-0.6,1.2-1.2,2.2-1.8,3c-0.5,0.7-1.2,1.5-2.1,2.5l-1.4,1.5L615.3,398.7z"/>
	<path class="st6" d="M616.8,397.3c-1.9-1.9-5.1-5.1-7-6.8c-1.3-1.2-4.1-3.9-5.8-5.5c1.9,0.9,4.9,2.3,7.3,3.3c2.8,1.3,6.8,3,9.1,4
		c-0.5,0.9-1.1,1.9-1.7,2.8C618.2,395.7,617.4,396.6,616.8,397.3z"/>
	<path class="st6" d="M624.4,377.6c-1.3,0-5.6-0.2-9.2-0.4c-1.2-0.1-7-0.3-8.9-0.4l-1.8-0.1l-0.1-1.8c0-0.4-0.1-0.7-0.1-1.1
		c0-0.2-0.1-0.4-0.1-0.6l-0.4-2c0,0,6.7-1.3,10.3-2c3.1-0.6,7-1.3,9.6-1.7l2-0.3l0.3,2c0.2,1.2,0.3,2.4,0.3,3.4c0,1.1,0,2.2,0,3l0,2
		L624.4,377.6z"/>
	<path class="st6" d="M624.5,375.7c-1.3,0-5.5-0.2-9.2-0.4c-1.2-0.1-7-0.3-8.9-0.4c0-0.4-0.1-0.8-0.1-1.2c0-0.2-0.1-0.5-0.1-0.7
		c1.4-0.3,4.8-0.9,8.4-1.6c3.2-0.6,7.2-1.3,9.6-1.7c0.1,0.9,0.3,2.1,0.3,3.2C624.5,373.8,624.5,374.8,624.5,375.7z"/>
	<path class="st6" d="M599.4,365.6c-0.1-0.1-0.2-0.2-0.3-0.2l-1.3-1l0.8-1.5c1.2-2.2,4-7.4,5-9.5c1-2,2.9-5.6,4-7.5l1-1.8l1.8,1
		c1.2,0.7,3,1.9,4.6,3.4c1.2,1.1,2.4,2.3,3.5,3.6l1.5,1.7l-1.8,1.3c-2,1.4-5.3,3.7-7.5,5.2L601,367L599.4,365.6z"/>
	<path class="st6" d="M600.8,364.1c-0.1-0.1-0.3-0.2-0.4-0.3c1.4-2.6,4-7.6,5-9.5c1-1.9,2.8-5.4,4-7.5c1.2,0.7,2.8,1.7,4.2,3.1
		c1.4,1.3,2.6,2.5,3.4,3.5c-2,1.4-5.3,3.7-7.5,5.2c-2.7,1.9-6.5,4.5-8.4,5.9L600.8,364.1z"/>
	<path class="st6" d="M582.9,341l2.2-0.3c2-0.3,3.5-0.4,4.4-0.4l0.6,0c1.1,0,2.5,0,3.6,0.1l2.2,0.1l-3.3,22.4l-1.7,0.1
		c-0.2,0-0.5,0-0.7,0c-0.1,0-0.2,0-0.4,0l-1.7,0.2L582.9,341z"/>
	<path class="st6" d="M585.3,342.6c1.5-0.2,3.2-0.4,4.2-0.4l0.6,0c1.1,0,2.5,0,3.6,0.1l-2.8,18.6c-0.2,0-0.5,0-0.8,0
		c-0.1,0-0.3,0-0.4,0C588.8,357.4,586.4,347.1,585.3,342.6z"/>
	<path class="st6" d="M579.8,366c-2.1-2.1-9.3-9.1-14.5-14l-1.6-1.5l1.7-1.4c0.7-0.6,1.6-1.3,2.6-2.1c1-0.7,2.4-1.6,4.3-2.5l1.8-0.9
		l0.9,1.8c0.6,1.2,1.8,3.9,4.1,9.2c1.9,4.5,4,9.3,4,9.3L579.8,366z"/>
	<path class="st6" d="M581.2,364.5c-2.3-2.3-9.4-9.2-14.6-14.1c0.6-0.5,1.4-1.2,2.6-2c1.1-0.8,2.7-1.7,4-2.3c0.5,1.1,1.8,3.8,4,9.1
		C579.5,360.5,581.1,364.2,581.2,364.5z"/>
	<path class="st6" d="M576.1,372.1c-3.7-1-10.3-2.7-12.5-3.3c-1.6-0.5-5-1.4-6.8-1.9l-1.9-0.5l0.5-1.9c0.3-1,0.6-1.9,0.9-2.6
		c0.3-0.7,0.9-2,1.8-3.6l1-1.9l1.8,1.2c1.3,0.8,4,2.6,7.7,5c3.2,2.1,6.9,4.6,9.1,6L576.1,372.1z"/>
	<path class="st6" d="M576.6,370.2c-3.1-0.8-10.2-2.6-12.4-3.3c-1.6-0.5-4.8-1.3-6.9-1.9c0.2-0.8,0.5-1.6,0.8-2.4
		c0.3-0.8,1.1-2.2,1.7-3.4c1.2,0.8,4,2.6,7.7,5C570.7,366.3,574.5,368.8,576.6,370.2z"/>
	<path class="st6" d="M556,386.2c-0.6-1.7-1.1-3.2-1.4-4.3c0-0.2-0.2-0.8-0.4-3.5l-0.2-2.2l24,0.2l0.1,1.8c0,0.1,0,0.1,0,0.2
		l0.2,1.6l-21.7,8L556,386.2z"/>
	<path class="st6" d="M557.8,385.5c-0.4-1.2-1-2.8-1.3-4.1c-0.1-0.5-0.2-1.8-0.3-3.2l20,0.2c0,0.1,0,0.2,0,0.3L557.8,385.5z"/>
</g>
</svg>
