<?xml version="1.0" encoding="utf-8"?>
<!-- Generator: Adobe Illustrator 26.4.1, SVG Export Plug-In . SVG Version: 6.00 Build 0)  -->
<svg version="1.1" id="Layer_1" xmlns="http://www.w3.org/2000/svg" xmlns:xlink="http://www.w3.org/1999/xlink" x="0px" y="0px"
	 viewBox="0 0 566.9 566.9" style="enable-background:new 0 0 566.9 566.9;" xml:space="preserve">
<style type="text/css">
	.st0{fill:none;stroke:#000000;stroke-miterlimit:10;}
	.st1{fill:none;stroke:#CE2D5C;stroke-miterlimit:10;}
	.st2{fill:none;stroke:#D5A380;stroke-miterlimit:10;}
	.st3{fill:none;stroke:#00A6E8;stroke-miterlimit:10;}
	.st4{fill:none;stroke:#590C3D;stroke-miterlimit:10;}
	.st5{fill:none;stroke:#DF8B26;stroke-miterlimit:10;}
</style>
<path class="st0" d="M136.4,418.9c-15.1,0-28.9-5.1-41.1-15.2c-12.2-10.1-17.2-23.7-19.2-33c-2.5,0.2-5.3,0.5-8.1,0.8
	c-3.7,0.4-7.7,0.6-11.9,0.6c-8.2,0-16.7-0.7-25.2-2.2c-0.4,2.1-0.9,4.3-1.7,6.5c-4.6,13.4-12.7,21.6-17.2,25.4
	C8.6,404.6-4.2,414-23.1,414c-0.9,0-1.7,0-2.6-0.1c-24.2-1.1-38.1-15.4-40.7-18.2c-2-2.3-12.2-14.5-14.5-32.5
	c-0.8-6.2,0.1-21.6,9-35.4c6.1-9.4,14.8-15.2,21.5-18.5c-0.6-1.8-1.1-3.7-1.6-5.6c-0.2-0.8-1.6-6.8-2-9.8c-0.3-2.5-0.4-5.7-0.4-9.2
	c0-1.3,0-2.5-0.1-3.7c0-0.2,0.2-20.8,8.8-37.2c4-7.6,9.4-18,22.2-26l0.7-0.5c7.1-4.5,19-12.1,36.8-12.6c0.3,0,0.6,0,0.9,0
	c2.8,0,5.7,0.4,8.3,1.1c0.1-4.2,0.6-12.2,2.1-21.3c3.4-20.6,13.4-30.2,21.2-34.6c5.5-3.1,11.8-4.7,18.5-4.7c7.5,0,13.4,1.9,15.3,2.6
	c3,1,18.2,6.6,24.8,20.4c2.6,5.4,3,10.5,3.2,13c0.4,4,1,10.8-4.7,15.5c-2.5,2-5.5,3.1-8.9,3.1c-1.8,0-3.6-0.3-5.3-0.9
	c-5.3-1.8-7.6-5.7-9.1-8.3c-0.4-0.6-0.7-1.2-1.1-1.7c-1.3-1.9-3.5-4.4-5.9-5.6c-0.9-0.4-2-1-2.8-1c-0.1,0-0.2,0-0.3,0
	c-1.4,0.2-2.9,2.5-3.5,3.4c-2.4,3.5-2.3,7.7-1.8,13.6c0.1,1.2,0.7,3.2,1.5,5.5c0.8-0.3,1.7-0.7,2.6-1c4-1.5,9-2.2,15.6-2.2
	c2.5,0,5.2,0.1,8.5,0.3c12.4,0.7,21.9,2.9,22,2.9c21.1,5.4,33.1,23.1,37.1,28.9c13.3,19.4,13.7,33.2,14,40.6
	c0.3,9.8,0.7,20.8-2.7,31c0.3,0.1,0.6,0.3,0.9,0.4c21.3,9.5,28.5,30.7,29.2,33.1c6.9,21.9,0,42.2-3,47.7
	c-12.9,23.5-33.5,29.6-41.8,31.1C144.6,418.5,140.5,418.8,136.4,418.9z"/>
<path class="st0" d="M33,220.9c0,0,0-6.6,0-11.9c0,0-0.1-10.2,2-22.9c0.6-3.7,3.3-20.3,16.2-27.5c11.1-6.2,23.1-2.2,25.9-1.3
	c1.2,0.4,14,4.8,18.9,15.2c1.8,3.8,2.1,7.6,2.3,9.6c0.3,3.1,0.5,5.6-1.2,7c-1.3,1.1-3.3,1-4.6,0.5c-2.5-0.9-3.1-3.1-5.1-6.1
	c-1-1.4-4.4-6.3-9.8-8.9c-1.7-0.9-5.1-2.5-9.1-1.8c-5.6,0.9-8.8,5.7-10.1,7.6c-4.3,6.5-4,13.3-3.5,19.9c0.5,6.7,6.5,18.2,6.5,18.2
	s4.4-2.7,10.9-5.1c4.6-1.7,11.6-1.8,20.1-1.3c11.2,0.7,20.1,2.6,20.1,2.6c17.4,4.5,27.6,19.4,31.3,24.9c11.3,16.5,12,27.8,12.3,35.3
	c0.4,11.1,0.6,21.4-3.2,30.3c-1.4,3.3-3.1,5.5-3.1,5.5s5.7,2.2,10.5,4.4c15.4,6.9,22.2,21.8,23.8,27c6.2,19.6-0.8,37.3-2.2,39.9
	c-10.6,19.2-27.3,24.7-34.9,26.1c-11.4,2.1-28.5,1.9-45.3-11.9c-16.7-13.8-16.9-35.9-16.9-35.9s-8.8,0.5-17.7,1.5
	c-4.7,0.5-18.9,1.6-38.3-2.2c-4.8-0.9-7-2.6-7-2.6s1,8.1-1.8,16.4c-3.6,10.6-10,17.5-14.2,20.9c-2.8,2.3-14.4,10.8-31,10
	c-18.3-0.9-30.1-10.9-33.8-14.9c-3.7-4.1-10.5-14.3-12.1-27.2c-0.3-2.6-0.7-16.1,7.5-28.8C-54.5,319-37.8,315-37.8,315
	s-2.9-6.9-4.6-13.7c-0.3-1.3-1.5-6.6-1.8-8.8c-0.4-2.7-0.3-8-0.4-11.9c0-0.3,0.4-18.4,7.7-32.2c3.8-7.2,8.2-15.7,18.7-22.2
	c6.4-4,16.9-11.1,32.5-11.6C23.1,214.3,33,220.9,33,220.9z"/>
<path class="st1" d="M183,197.9c1.2-2.9,2.4-6.7,2.5-7.9c0.3-3.6,0.2-6.6,0.2-10.2c-0.2-6.6-0.3-14.1,2.1-25.9
	c1.4-7,3.2-14.4,7.4-20.7c2.3-3.6,7.8-11.8,19.3-16c3.8-1.3,8-2,12.5-2c5.4,0,10.1,1,13.2,1.8c4.2,1.1,13,4.7,19.5,10.9
	c6.2,5.8,9.4,11.4,10.4,18.2c0.1,0.5,0.2,1.1,0.3,1.6c0.8,4.8,2.1,12.1-3,17.8c-2.5,2.8-6,4.3-10,4.3c-2,0-3.6-0.4-4.5-0.6
	c-5.5-1.3-9-6.3-10.6-9.2c-1.2-2.3-3.1-4.4-3.7-4.9c-2.4-2-3.4-2.5-5.6-2.9c-0.7,0.3-2.4,1.3-3.7,3.4c-1.7,2.6-2,4-2.1,7.7
	c-0.1,4.1-0.2,7.6,3.5,16c0.6,1.5,1.2,2.6,1.6,3.4h4.3l3.1,16.1l-7.6,3l-0.4,0.1c-0.1,0.1-0.4,0.2-1,0.6c-1,0.6-1.9,1.1-2.1,1.4
	c-1.3,1.6-2.2,2.6-2.2,2.6l-5.1,6l-7-3.6c-0.2-0.1-0.5-0.2-0.8-0.3c-0.3,0.1-0.7,0.3-1,0.4c-1.8,0.8-2.8,1.3-2.8,1.3l-4.8,2.5
	l-4.7-2.6c-0.4-0.2-1-0.5-1.5-0.7c-0.2,0.1-0.3,0.2-0.5,0.3l-5.9,4.6c-6.4,5-15.3-1.8-12.1-9.3L183,197.9z"/>
<path class="st1" d="M192.1,201.7c0,0,4.2-3.1,7.8-2.1c2.3,0.6,4.8,2,4.8,2s1.3-0.7,3.6-1.7c1.8-0.8,4.2-1.8,6.5-1.2
	c1.9,0.5,3.6,1.4,3.6,1.4s0.8-1,2-2.4c1.4-1.7,3-2.6,4.9-3.7c1.9-1.1,2.1-1.1,2.7-1.3c0.1,0-2.4,1-6.8-9.4
	c-4.5-10.4-4.4-15.5-4.3-20.2c0.1-4.9,0.7-8.4,3.7-13c3.3-5.1,8.9-8.5,13-7.8c4.5,0.7,7.1,1.9,11,5.2c1.4,1.2,4.1,4.3,6,7.7
	c1.1,2.1,2.9,4.1,4.1,4.4c1.2,0.3,3.5,0.9,4.9-0.7c2.2-2.5,0.9-7.4,0.3-11.3c-0.7-4.5-2.7-8.1-7.4-12.4c-5.1-4.8-12.3-7.7-15.3-8.5
	c-3.1-0.8-11.8-2.8-19.6,0c-8.4,3-12.4,9.1-14.3,12.1c-3.4,5.1-4.9,12-5.9,17.2c-3.4,16.8-1.1,23.6-2.1,34.9
	C195,194.8,192.1,201.7,192.1,201.7z"/>
<path class="st1" d="M352.5,347.4c-2.9,0-5.6-1.1-7.7-3.2c-4-4.1-3.9-9.2-3.6-20.3c0.2-7.4,0.4-17.5-0.4-29.4
	c-1-14.1-1.6-26.3-1.9-34c-0.2-4.3-0.3-7.7-0.3-10.1c-0.1-5.1-0.2-7.9,2.9-10.9c5.7-5.7,12.2-8.2,23-11.2c5.4-1.5,11.7-1.8,15.9-1.8
	c6.2,0,14.5,0.7,19.2,2.6c2.1,0.8,12.5,5.3,15.7,11.7c1.2,2.3,1.2,2.3,1,20c-0.1,6.6-0.2,19.4-0.6,31.9c-0.3,10.8,0.8,19.6,1.6,26.6
	c1.3,10.4,2.4,19.4-5.7,24c-3.1,1.8-6,1.9-20.8,2c-11.2,0.1-28.2,0.3-36.1,1.9C354,347.4,353.2,347.4,352.5,347.4z"/>
<path class="st1" d="M348.5,246.6c3.7-3.7,8.1-5.8,18.6-8.7c9.2-2.5,24.6-1.3,28.8,0.4c5,2,9.7,5.3,10.6,6.9
	c0.1,0.2,0,25.3-0.6,47.2c-0.7,24.6,5.3,39.8,0.9,42.3c-2.4,1.4-39.2-0.3-54,2.9c-3.5,0.7-0.1-16.9-2-43.7
	C348.8,266.9,348.4,246.6,348.5,246.6z"/>
<path class="st1" d="M455.6,301.3c-13.5,0-14.6-8.4-14.6-11c0-5.3-0.3-15.9-0.6-25.1c-0.2-5.1-0.3-9.9-0.4-13.4
	c-0.2-7.4-0.3-10.8,3.9-14c2.5-1.9,5.2-2.5,8.6-3.3l1.5-0.4c5.9-1.4,12.2-2.1,18.7-2.1c1.7,0,3.4,0,5.1,0.1l2.2,0.1
	c3.4,0.2,6.4,0.3,8.8,0.7c10.2,1.4,11.7,7.8,11.8,10.5c0.1,1.7,0.6,39,0.1,45.4c-0.6,7.6-7.9,9.4-11,10.1c-2.3,0.6-5.9,1.2-9.7,1.2
	c-2.8,0-5.4-0.4-7.6-1.1c-0.7-0.2-1.4-0.5-2-0.7c-2.7,1.3-6.2,2.5-10,2.8C458.5,301.3,457,301.3,455.6,301.3
	C455.6,301.3,455.6,301.3,455.6,301.3z"/>
<path class="st1" d="M449.9,245.8c-0.3,0.2,1,33.1,1,44.5c0,1.4,5,1.2,8.7,1c5.4-0.4,10.1-4.1,10.1-4.1s2.4,1.4,5.8,2.5
	c5.5,1.9,15.2-1.1,15.3-1.6c0.4-5.7,0-42.4-0.1-44.1c-0.1-1.4-5.9-1.6-13.4-2c-10.2-0.6-17.4,0.9-20.9,1.7
	C452.8,244.6,451,245,449.9,245.8z"/>
<path class="st2" d="M571.4,203.8c-1,0-2.7-0.1-4.2-0.2c-10.3-1.1-11-8.8-11-10.3c-0.3-13.9-0.9-30.8-1.3-43.2l0-1.3
	c-0.1-3.1,1-8.6,9.4-11c1.7-0.5,3.8-0.9,6.5-1.4c5-0.9,10.7-1.5,14.9-1.7c1.1-0.1,2.4-0.1,3.6-0.1c4,0,8.4,0.3,12.2,0.7
	c2,0.2,3.7,0.5,5,0.8c8.4,2,9.1,8.4,9.1,10.2c0.2,19.2,0.2,44.4,0.2,44.7l0,7.8l-7.6,1.9c-7.6,1.9-9.7,1.9-10.5,1.9
	c-4.9,0-9.1-3.3-10.1-7.9c-1.1-5,0.5-10.2,2.4-14.3c-0.1-0.2-0.3-0.5-0.4-0.7c-2-3.6-2.7-7.9-2.8-12.2c-0.1,0-0.1-0.1-0.2-0.1
	c-0.8,0.5-1.6,0.9-2.5,1.3c0.1,1.7,0.1,3.4-0.2,5.1c-0.5,3.5-1.5,6.3-2.8,8.6c1.1,3.6,1.4,8.1,0.4,13.3
	C581.1,198.7,578.3,203.8,571.4,203.8C571.4,203.8,571.4,203.8,571.4,203.8z"/>
<path class="st2" d="M571.9,193.9c1.9-10.1-3.2-13.2-3.2-13.2s4.4-0.2,5.6-8.3c0.7-4.6-1.9-11.5-1.8-11.5
	c12.1,0.5,13.5-7.8,13.5-7.8s3.5,7.7,11.1,6.5c0.2,0-1.4,10.4,1.3,15.4c1.9,3.5,3.6,4.8,3.6,4.8s-5.7,7.7-4.6,12.8
	c0.1,0.6,8.5-1.5,8.5-1.5s0-25.3-0.2-44.6c0-1-11.4-2.3-19.5-1.9c-8,0.4-21.4,2.6-21.3,3.8c0.4,12.1,1,30.1,1.4,44.6
	C566.1,193.9,571.9,193.9,571.9,193.9z"/>
<path class="st1" d="M412.1,197.1c0,0-4.4-0.8-11-0.8c-2,0-4,0.1-6,0.2c-10.3,0.8-17.2,1-17.5,1.1l-7.6,0.3l-2.2-7.3
	c-0.4-1.4-1.2-5.2-1.5-14.1c-0.2-8.7,0-12.2,0-12.8l0.7-8.1l8.1-0.9c0.3,0,7.1-0.8,19.2-1.5c4.4-0.3,8.5-0.4,12.3-0.4
	c5.4,0,8.2,0.3,8.5,0.3l9.5,1l-0.7,9.6c0,0-0.4,5.5-0.1,12.8c0.3,7.9,0.3,10.8,0.3,10.8l0,1.1c0.1,5.8-5.2,10.2-10.8,9L412.1,197.1z
	"/>
<path class="st1" d="M376.2,164.5c0,0,6.6-0.8,18.6-1.5c12.9-0.8,19.1-0.1,19.1-0.1s-0.4,5.8-0.1,13.8c0.3,7.8,0.3,10.7,0.3,10.7
	s-8.1-1.7-19.8-0.8c-10.2,0.8-17.1,1-17.1,1s-0.8-2.5-1-11.5C375.9,167.6,376.2,164.5,376.2,164.5z"/>
<path class="st3" d="M260.4,342.1c-4.6,0-8.5-3.1-9.6-7.5l0,0c-0.1-0.2-0.2-1-0.5-1.9c-0.6-2.6-1.9-7.9-2.4-9.7l-1.3-4.7l3-3.9
	c3.2-4.3,6.7-4.3,17.1-4.4l1,0c5.5,0,9.7,4.8,9,10.2l-0.1,1c-0.8,6.4-1.1,7.2-1.3,7.9c-0.7,2.4-2.3,4.6-5.3,7.7
	C267.1,339.8,264.8,342.1,260.4,342.1L260.4,342.1z"/>
<path class="st3" d="M257.5,320.3c-0.1-0.4,9.2-0.4,9.2-0.4s-0.7,5.5-0.9,6.3c-0.5,1.7-5.4,6.1-5.4,6
	C260.2,331.3,258.2,322.9,257.5,320.3z"/>
<path class="st3" d="M280.6,384.7l-2.9-2.7c-1.4-1.3-3.3-3.2-5.3-5.1c-2.5-2.4-5.9-5.8-6.7-6.4l0,0c-3-2.7-4.2-6.9-2.8-10.7l0,0
	c1-3,3-4.7,7-7.4c4-2.8,6.4-3.8,9.1-3.9l0.2,0h0.2c6.7,0,9.1,5.5,10.3,8.2c0.7,1.5,1.4,3.3,2.2,5.3c0.8,2,2.2,5.4,2.8,6.5l3.2,4.7
	l-2.8,5.3c-1.6,3.1-6.3,6.5-10.5,6.5H280.6z"/>
<path class="st3" d="M272.2,363c-0.2-0.2,5.9-4.6,7.2-4.7c0.6,0,5.6,13.4,6.9,15.3c0.1,0.1-1.7,1.2-1.8,1.2
	C281,371.4,273.8,364.3,272.2,363z"/>
<path class="st3" d="M236.9,304.4l-0.3,0c-0.6,0-1.8-0.1-7.6-1.6c-5.5-1.5-8.9-2.4-11.2-6.2c-3.2-5.5-0.3-10.9,2.5-16.1l0,0
	c2.7-5.1,9.2-6.8,14-3.7l0,0c3.7,2.4,10.3,6.6,12.5,8.5c3.1,2.8,4.2,7.2,2.8,11.1c-2.3,6.1-10,8.1-12.4,8.1H236.9z"/>
<path class="st3" d="M226.4,291.5c-0.4-0.7,2.7-6.4,2.7-6.4s9.3,5.9,11.2,7.6c0.5,0.4-2.7,1.8-3.1,1.8
	C236.2,294.4,226.7,292,226.4,291.5z"/>
<path class="st3" d="M302.7,345.1l-2.7-2.2c-1.9-1.5-4.9-4.3-7.6-7.5c0-0.1-4.8-5.7-2.5-11.8l2.1-5.5l5.8-0.9
	c3.1-0.5,6.2-0.5,8.4-0.5c1.2,0,1.9,0,1.9,0l0,0c5.9,0.2,10.3,5.6,9.4,11.4v0c0,0-0.3,2.1-0.7,4.3c-0.2,1.1-0.3,2.2-0.5,3
	c-1.4,8.7-7.5,9.7-10,9.7H302.7z"/>
<path class="st3" d="M299,327.1c4-0.6,8.5-0.4,8.5-0.4s-1.3,8.5-1.4,8.5c-1.5-1.2-4-3.5-6.3-6.2C299.5,328.5,299,327.1,299,327.1z"
	/>
<path class="st3" d="M323.3,376.3c-3.8,0-9.7-3.3-11.7-6.6v0c-1.8-2.9-2-6.6-0.5-9.7l0-0.1c0.3-0.7,0.8-1.5,1.2-2.4
	c0.5-1,1.4-2.7,1.9-3.7c0.5-1,1.3-2.5,2.2-4.2c0.3-0.7,0.6-1.2,0.7-1.4c1.7-3.4,5.2-5.6,9-5.6c4.1,0,7,2.2,10.4,5.1
	c4.8,4.1,7.4,7.3,7.1,11.9l-0.3,4.9l-4.1,2.8c-1.3,0.9-2.5,1.7-3.7,2.6c-2,1.4-4.2,3.1-7.1,4.8l-2.4,1.4L323.3,376.3z"/>
<path class="st3" d="M326.1,352.7c0.2-0.5,2,0.9,4.1,2.6c2,1.8,3.8,3.7,3.6,3.8c-3.7,2.4-6.2,4.6-10.5,7.3c-0.1,0-3.5-1.6-3.3-2
	c0.7-1.4,2-3.6,3-5.7C323.6,357.3,325.7,353.3,326.1,352.7z"/>
<path class="st1" d="M264.4,263c-2.9,0-5.7-1.2-7.7-3.3c-4-4.2-4-10.2-3.7-19.5c0-1.2,0.1-2.5,0.1-3.2c0-3-1.1-12-1.5-14.9
	c-0.2-2.1-1-8.5,5.2-11.6l0.1,0c4.4-2.1,9-3,17.2-4.1c3.9-0.5,8.4-0.6,11.5-0.6c4.3,0,10.5,0.2,13.7,0.9c9.7,1.9,12.2,4.4,13,5.2
	c3.3,3.2,3.1,6.7,2.9,9.5c-0.6,9.5-0.6,12.8-0.4,13.9c0.1,0.6,0.2,1.4,0.3,2.4c1.5,10.8,2.7,19.4-4.9,23.3
	c-2.8,1.5-4.8,1.5-19.7,1.5c-8.7,0-19.4,0-25,0.6L265,263L264.4,263z"/>
<path class="st1" d="M261.2,219.4c2.8-1.4,6.1-2.1,14.2-3.2c7-0.9,18.7-0.5,21.9,0.1c3.8,0.8,7.4,2,8.1,2.6c0.1,0.1-1,13.1-0.5,17.5
	c0.5,3.9,2.3,14.9,0.7,15.7c-1.7,0.9-29.9-0.1-41.2,1.1c-2.7,0.3-1.5-12.1-1.5-16.2C262.9,232.5,261.2,219.4,261.2,219.4z"/>
<path class="st2" d="M472.6,194.4c-6.5,0-11.8-5.1-12.1-11.7c-0.1-1.5,0-3.4,0-5.8c0.1-6.5,0.2-16.3-1.4-24
	c-0.6-2.9,0.1-5.9,1.9-8.2c2.4-3,5.3-4.2,15.2-6c5.9-1.1,11.8-1.8,15.8-2c0.5,0,1,0,1.6,0c5.4,0,11.2,0.9,14.2,1.5
	c8.3,1.5,10.7,2.9,12.7,5.1c1.9,2.1,2.8,5,2.5,7.8c-1.1,9.6-0.1,18.6,0.5,24.5c0.3,2.6,0.5,4.6,0.5,6.3c0.1,6.3-5,11.5-11.4,11.6
	c-0.8,0-1.8,0-2.8,0.1c-1.5,0-3.2,0.1-4.4,0.1c-7.7,0-10.5-4-11.4-7.4c-1.2-4.3-0.1-8.5,1.6-12c-1.2-2.1-1.9-4.4-2.3-6.7
	c-1,0-2,0.1-2.9,0.2c0,0.6-0.1,1.3-0.3,1.9c-0.5,2.4-1.3,4.5-2.3,6.2c0.8,3,0.8,6.5-0.1,10.3c-1.8,7.4-8.9,7.8-14.6,8.1
	C473,194.4,472.8,194.4,472.6,194.4z"/>
<path class="st2" d="M478.1,183.9c1.9-7.7-3.2-9.8-3.2-9.8s4.4-0.2,5.6-6.3c0.7-3.5-1.9-8.8-1.8-8.8c2.3,0.1,4.2-0.1,5.8-0.4
	c5.2-1.1,10.5-1.2,15.8-0.6c0.9,0.1,1.9,0.1,3,0c0.2,0-1.4,8,1.3,11.8c1.9,2.7,3.6,3.7,3.6,3.7s-5.7,6.1-4.6,10c0.1,0.3,6.1,0,9,0
	c0.9,0,1.5-0.7,1.5-1.6c0-4.6-2.6-17.3-1-32c0.1-0.8-12.7-3.6-20.8-3.3c-8,0.3-23.7,3.4-23.5,4.3c2.4,11.5,1.4,26,1.6,31.4
	c0,1.2,1.1,2.1,2.3,2.1C475,184.4,478.1,183.9,478.1,183.9z"/>
<path class="st4" d="M452.8,451.8c-8,0-16.1-1.5-23.4-4.3c-17.5-6.8-26.8-19.9-30-25.2c-1.5-2.5-14.3-24.9-5-50.6
	c4.2-11.8,11.4-19.5,15.2-23c12-10.9,25.3-13.4,29.7-14.3c1.8-0.3,7.1-1.3,14-1.3c11.3,0,27.5,2.7,41.2,15.3
	c20.4,18.9,18.6,44.7,17.6,52.1c-2.1,15-8.9,27.8-19.6,37.1C481.8,446.7,467.7,451.8,452.8,451.8z"/>
<path class="st4" d="M416.3,355.9c9.7-8.8,20.5-11,24.9-11.9c4.2-0.8,28.4-5.4,46.6,11.5c17.7,16.4,15,39.6,14.5,43.5
	c-0.6,4.2-2.9,19.5-16.3,31c-15,12.9-36.4,14.7-53,8.2c-15.6-6.1-23.2-17.9-25.1-21.1c-0.9-1.5-11.9-20.6-4.2-42.2
	C407.7,364,414.5,357.6,416.3,355.9z"/>
<path class="st5" d="M590.6,430.4c-7.4,0-14.9-1.4-21.7-4c-16.2-6.3-24.8-18.5-27.8-23.4c-1.4-2.3-13.2-23.1-4.7-47
	c3.9-11,10.6-18.1,14.2-21.4c11.1-10.1,23.5-12.5,27.6-13.2c1.6-0.3,6.6-1.2,13-1.2c15,0,28.2,4.9,38.2,14.2
	c18.9,17.5,17.3,41.5,16.3,48.4c-1.9,13.9-8.2,25.8-18.2,34.5C617.5,425.7,604.5,430.4,590.6,430.4z"/>
<path class="st5" d="M557.3,341.9c8.9-8.1,18.7-10.1,22.7-10.8c3.9-0.7,26-4.9,42.6,10.5c16.2,15,13.7,36.2,13.2,39.7
	c-0.5,3.9-2.7,17.8-14.9,28.3c-13.7,11.8-33.2,13.5-48.4,7.5c-14.2-5.6-21.2-16.4-22.9-19.3c-0.8-1.4-10.9-18.8-3.8-38.5
	C549.4,349.4,555.6,343.5,557.3,341.9z"/>
</svg>
