<?xml version="1.0" encoding="utf-8"?>
<!-- Generator: Adobe Illustrator 26.2.1, SVG Export Plug-In . SVG Version: 6.00 Build 0)  -->
<svg version="1.1" id="Layer_1" xmlns="http://www.w3.org/2000/svg" xmlns:xlink="http://www.w3.org/1999/xlink" x="0px" y="0px"
	 viewBox="0 0 566.9 566.9" style="enable-background:new 0 0 566.9 566.9;" xml:space="preserve">
<style type="text/css">
	.st0{fill:none;stroke:#4D56A5;stroke-width:0.9921;stroke-miterlimit:10;}
</style>
<path class="st0" d="M250.4,417.1c-19.7,0-32.4-3.9-40.2-12.4l-0.4-0.4c-3.8-4.1-13.7-14.8-11-33c0.3-1.9,0.7-3.8,1.3-5.6
	c-3.2-1.5-6.4-3.1-9.4-5c-19.9-12.5-29.4-38.7-20.8-57.2c1.5-3.2,3.2-6,5-8.5c-2.8-3.2-5.3-6.9-7.4-11.2
	c-12.4-25.5-6.6-55.4,12.5-66c-3.2-7.6-4.3-15.6-2.9-22.9c3.2-16.8,18.8-33.6,33.4-36.1c4-0.7,8.1-1,12.3-1c10.8,0,20.6,2.3,28,4.8
	c3-2.2,6.5-4.4,10.6-6.4c8.1-4,18.2-6,29.9-6c22.5,0,45,7.2,51.7,10c36.6,15.1,52.5,48.3,55.6,59.9c7.2,27,12.8,51.6,8.6,79.1
	c-4.5,30.4-17,61.2-33.4,82.3c-12.6,16.3-29.5,26.2-48.7,28.6c-1.8,0.2-3.7,0.3-6.2,0.3c-5.8,0-13.8-0.6-19.1-1.1
	c-4,1.8-9.4,3.8-15,4.9C281.8,414.6,266,417.1,250.4,417.1z"/>
<path class="st0" d="M196.7,198.5c1.9-9.8,12-19.4,17.3-20.3c21.5-3.7,41.1,7.5,41.1,7.5s4.9-6.9,15.2-11.9
	c19.4-9.6,55.6,0.5,65.3,4.5c31.8,13.1,43,42.9,44,46.6c7,26.2,11.7,47.7,8.2,71.1c-4.2,27.9-15.6,55.2-29.4,73.1
	c-8.5,11-20.4,19.2-35.4,21.1c-6.3,0.8-26.5-1.4-26.5-1.4c-4.1,2.3-10.1,4.8-15.3,5.8c-3.3,0.7-46.5,7.4-56.3-3.3
	c-3.1-3.4-7.8-7.9-6.4-17.1c0.9-6.2,6.1-12.4,10.2-16c1.5-1.4,0.9-3.9-1.2-4.4c-6.4-1.5-17.5-4.5-26.1-10
	c-11.4-7.2-17.8-22.7-13.4-32.1c3.8-8.1,10.1-12,14.8-14.3c2.1-1,2.2-4.1,0.1-5.2c-5.3-2.9-13.2-8.5-17.4-17.2
	c-7.8-16-5.1-35.1,4.6-40.1c6.6-3.4,14.4-3.8,20.1-3.3c2.3,0.2,3.6-2.6,1.9-4.2c-1.9-1.9-4.1-4.1-6.5-6.6
	C198.2,213.1,195.5,204.5,196.7,198.5z"/>
</svg>
