<?xml version="1.0" encoding="utf-8"?>
<!-- Generator: Adobe Illustrator 26.2.1, SVG Export Plug-In . SVG Version: 6.00 Build 0)  -->
<svg version="1.1" id="Layer_1" xmlns="http://www.w3.org/2000/svg" xmlns:xlink="http://www.w3.org/1999/xlink" x="0px" y="0px"
	 viewBox="0 0 566.9 566.9" style="enable-background:new 0 0 566.9 566.9;" xml:space="preserve">
<style type="text/css">
	.st0{fill:none;stroke:#CE288F;stroke-miterlimit:10;}
	.st1{fill:none;stroke:#4DB748;stroke-miterlimit:10;}
</style>
<path class="st0" d="M142.3,421.8c-3.5,0-7.1-0.2-10.6-0.5c-8-0.8-49.6-6.4-77.4-39.5c-31.7-37.7-36.6-72-37.2-100.6
	c-0.5-24.5,5.4-61,36.4-96c35.7-40.3,77.8-40.7,91.7-40.8l0.8,0c33.6,0,62,20.5,69.9,26.8c3.4,2.7,4.7,7.3,3.3,11.4
	c-1.4,4.1-5.3,6.9-9.7,6.9l0,0c-1.2,0-2.4-0.2-3.6-0.6c-3.8-1.4-13.6-4.9-22.9-7c-3.1-0.7-7.2-1.1-11.7-1.1
	c-9.5,0-18.4,1.7-22.5,3.2c-6.3,2.3-9.4,5.7-10.2,6.7c-2.3,2.8-5.6,4.4-9.2,4.4c-1.4,0-2.7-0.2-4-0.7c-8-2.9-19.6-6-28.4-6
	c-1.5,0-2.9,0.1-4.1,0.3c-3,0.5-6.6,3.3-10.1,7.9c-1.7,2.3-3.6,7.8-0.1,14.3c1.8,3.3,5.6,7.4,10.4,11.4c3.6,3,5,8,3.4,12.5
	c-1.6,4.4-5.8,7.4-10.5,7.4l-0.3,0c-9.8,0-15.3,1.7-16.6,2.9c-3.7,3.3-4.6,11.2-3.6,17c0.4,2.2,2,9.9,7.3,16.8
	c1.8,2.3,5.1,4.9,9.3,7.2c4,2.2,6.4,6.4,6.4,11c-0.1,4.6-2.6,8.7-6.6,10.9c-4.9,2.6-8.6,5.7-10,8.5c-3,6,1.5,17.8,10.9,23.2
	c4.6,2.6,12.3,4.8,21.3,6.1c4.7,0.7,8.5,4.1,9.8,8.6c1.3,4.7-0.2,9.6-3.9,12.7c-4.4,3.7-7.1,7.6-7.2,10.8c-0.1,2.9,0.7,5.3,2.7,7.5
	c2.7,2.9,6.5,4.4,9,4.5c1.6,0.1,3.3,0.1,5,0.2c3.9,0.2,7.9,0.4,11.9,0.4c6.4,0,11.6-0.5,16.4-1.6c10.7-2.5,21.1-6.3,21.2-6.3l2.8-1
	l2.9,0.7c3.8,0.9,8.1,1.4,12.8,1.4c7.8,0,14-1.3,14.1-1.3c11.2,2.8,12.5,9.3,8.3,17.4C209.2,400.9,181.7,421.8,142.3,421.8z"/>
<path class="st0" d="M209.4,179.3c0.4,0.1,0.7-0.4,0.3-0.6c-6.7-5.4-33.4-24.9-64.4-24.6c-19.2,0.2-54.1,3.3-84.4,37.5
	c-28.7,32.5-34.4,66.7-33.9,89.3c0.5,26.1,4.5,58.4,34.8,94.5c23.9,28.4,60.1,35,70.8,36c41.5,4.1,70.9-19.5,70.9-19.5
	s-16.2,3.5-31.3-0.1c0,0-10.9,4-22.4,6.7c-12.6,2.9-25.5,1.6-35.9,1.2c-9.2-0.4-21.9-8.5-21.2-22.4c0.4-7.9,6.4-14.3,10.8-18
	c1.4-1.2,0.8-3.7-1-3.9c-6.4-0.9-17.1-3-24.7-7.3c-13.4-7.6-20.7-24.8-14.9-36.3c3.1-6.1,9.7-10.4,14.2-12.8c1.8-0.9,1.8-3.5,0-4.4
	c-3.8-2.1-9-5.5-12.3-9.9c-6.2-8-8.5-16.9-9.3-21.2c-1.2-7.1-0.6-19.4,6.8-26c5.4-4.8,17.4-5.4,23.5-5.4c1.2,0,1.6-1.6,0.7-2.3
	c-3.6-3-9.6-8.5-12.7-14.3c-5.2-9.4-3.5-19.2,0.9-25c7.4-9.9,13.9-11.4,16.6-11.8c13.4-2,32.3,4.4,37.3,6.2c0.8,0.3,1.6,0,2.1-0.6
	c1.7-2.1,6.2-6.8,14.5-9.8c9.1-3.3,27.8-5.3,40-2.4C195.1,174.2,205.2,177.8,209.4,179.3z"/>
<ellipse class="st1" cx="412" cy="283.5" rx="137.5" ry="146.1"/>
<ellipse class="st1" cx="412" cy="283.5" rx="127.6" ry="136.1"/>
</svg>
