<?xml version="1.0" encoding="utf-8"?>
<!-- Generator: Adobe Illustrator 26.2.1, SVG Export Plug-In . SVG Version: 6.00 Build 0)  -->
<svg version="1.1" id="Layer_1" xmlns="http://www.w3.org/2000/svg" xmlns:xlink="http://www.w3.org/1999/xlink" x="0px" y="0px"
	 viewBox="0 0 566.9 566.9" style="enable-background:new 0 0 566.9 566.9;" xml:space="preserve">
<style type="text/css">
	.st0{fill:none;stroke:#4D56A5;stroke-width:0.9921;stroke-miterlimit:10;}
	.st1{fill:none;stroke:#CE288F;stroke-width:0.9921;stroke-miterlimit:10;}
	.st2{fill:none;stroke:#DF8926;stroke-miterlimit:10;}
	.st3{fill:none;stroke:#000000;stroke-miterlimit:10;}
</style>
<path class="st0" d="M275.1,286.4c-6.9,0-15.1-1.9-19.3-7.3c-5.6-7.2-7.8-17.4-6.9-32.2c0.2-3.4,0.2-7.9,0.2-13
	c0-13.2-1.4-29.4,1.8-48.5c0,0,0.1,0.1,1.3,0.8c0.6,0.3,1.2-2.2,1.9-2.1c-3.5,20.3-3,39.4-3,49.8c0,5.2,0,9.7-0.2,13.2
	c-0.8,14.3,1.3,24.1,6.5,30.8c5.6,7.2,20,7.5,25.9,5.4c10.8-3.9,13.7-10.6,15.7-15.1l0.2-0.6c2.7-6.1,2.8-9.2,3.2-22.4l0.1-2.5
	c0.2-6,0.2-8.4,0.1-13.1l-0.1-2.4h2l0.1,2.4c0.1,4.8,0.2,7.2-0.1,13.2l-0.1,2.5c-0.4,13.2-0.6,16.7-3.4,23.2l-0.2,0.6
	c-2.1,4.7-5.2,11.9-16.8,16.1C281.9,285.9,278.7,286.4,275.1,286.4z"/>
<path class="st0" d="M295.2,391.7l-1.1-1.7c2-1.2,7.3-7.1,8.8-9.9c4.1-7.7,2-18.3-2.4-24.1c-2.9-3.9-8.6-5.9-18.9-6.8
	c-9.7-0.8-32.1,1.2-53.7,8.2l-0.8-2.1c20.5-6.7,43.1-8.9,54.6-8c7.7,0.6,16.2,2,20.3,7.6c4.8,6.3,7,17.9,2.6,26.3
	C302.9,384.3,297.4,390.3,295.2,391.7z"/>
<path class="st0" d="M290.4,348.4l-2.7-0.6c2.9-0.8,6-2.8,7.7-9.1c2.5-9.4,2.3-30.7-9.3-39.7c-2.3-1.8-12.5-2.9-26.5-2.9
	c-1.2,0-2.9,0-4.9,0c-5.5,0-13,0.1-18.8,0c-6.3-0.1-19.2,0.1-33.3,1l0-2c14.1-0.9,27-1.1,33.3-1c5.8,0.1,13.3,0.1,18.8,0
	c2,0,3.7,0,4.9,0c8.8,0,24,0.4,27.7,3.3c12.4,9.6,12.7,32,10,41.8C295.3,346.4,293.8,347.5,290.4,348.4z"/>
<path class="st0" d="M249.1,241c-10.5-9.6-35.1-10.8-37.7-9.9l-0.7-1.9c3.6-1.2,27.6-0.8,38.4,9L249.1,241z"/>
<path class="st0" d="M290.3,300.2l-1.4-1.4c0.3-0.1,8.9-2.5,10-11c0.6-4.9-2-10.9-2.1-11l1.2-1.9c0,0,3.5,7.5,2.8,13.1
	C299.5,297.8,290.6,300.1,290.3,300.2z"/>
<path class="st1" d="M314.4,393.5c-6.7,0-12.7-0.8-16.3-1.3c-1.3-0.2-2.3-0.3-2.9-0.4l2.4-2.1c0.7,0.1,25.3,3.9,38.1-2.3
	c6.7-3.2,19.7-13.6,26.5-24.7c10.9-17.6,15.3-29.1,19.4-43c6.6-22.4,7.4-47.6,2.3-69.1c-0.1-0.6-0.3-1.5-0.5-2.7
	c-1.7-10.9-6.9-43.9-38.9-63.5c-11.6-7.1-38.7-16-62.5-13.5c-9.4,1-24.5,8.1-27.9,13.2l-1.6-1.1c3.7-5.5,19.4-13,29.4-14.1
	c24.2-2.6,51.9,6.5,63.7,13.8c32.7,20,38,53.8,39.8,64.8c0.2,1.2,0.3,2.1,0.4,2.6c5.2,21.9,4.3,47.4-2.4,70.2
	c-4.1,14-8.6,25.6-19.6,43.5c-6.4,10.4-19.3,21.6-27.4,25.4C329.6,392.5,321.6,393.5,314.4,393.5z"/>
<path class="st2" d="M250.7,400.2c-10.1,0-18.8-1-22.7-2.6c-9.9-4.2-15.6-16.2-12.2-25.7c2.6-7.3,6.8-11.6,9.8-14
	c0.4-0.3,0.3-0.7,0.3-0.9c0-0.1-0.2-0.5-0.7-0.6c-8.7-1.7-29.9-7.1-37.6-21.6c-4.9-9.2-5.8-17.1-2.7-23.4
	c5.3-10.9,12.7-13.8,14.9-14.5c0.4-0.1,0.7-0.5,0.8-0.9c0-0.2,0-0.7-0.5-1l-0.5-0.3c-6.6-4-16.5-10.1-20.7-27.2
	c-3.2-12.7,0.1-24.4,2.5-27.6c7.5-10,20.6-10.1,27.8-9.2c0.1,0,0.2,0,0.3-0.1c0.1-0.2,0-0.2-0.1-0.3c-5.8-5.5-15.6-16-16.3-25.2
	c-1.1-13.2,8.7-21.7,12.9-24.7l0.2-0.1c9.3-7.8,36-1.8,47.4,4.2l-0.9,1.8c-10.7-5.5-36.7-11.6-45.3-4.4c0,0-0.1,0.1-0.3,0.2
	c-4,2.8-13.1,10.8-12.1,23c0.7,8.9,11.2,19.7,15.7,24c0.7,0.7,0.9,1.7,0.5,2.6c-0.4,0.9-1.3,1.4-2.3,1.3c-6.8-0.8-19.1-0.8-26,8.4
	c-1.9,2.6-5.3,13.7-2.2,26c4.1,16.3,13.2,21.9,19.9,25.9l0.5,0.3c1,0.6,1.6,1.8,1.4,3c-0.2,1.2-1,2.2-2.2,2.6
	c-4,1.2-9.7,5.4-13.6,13.4c-2.8,5.8-1.9,13.1,2.7,21.6c7.3,13.7,27.8,19,36.2,20.6c1.1,0.2,2,1,2.2,2.1c0.3,1.1-0.1,2.2-1,2.9
	c-2.8,2.2-6.7,6.3-9.2,13.1c-3.1,8.6,2.1,19.4,11.1,23.2c10,4.2,51.8,3.8,65.4-5.6l1.1,1.6C286.6,397.7,266.9,400.2,250.7,400.2z"/>
<path class="st1" d="M551.8,401.3c-6.7,0-12.7-0.8-16.3-1.3c-1.3-0.2-2.3-0.3-2.9-0.4l-0.2-1.6c0-0.2,0.1-0.3,0.3-0.3
	c1,0.1,3.3,0.3,4.5,0.5c7.3,1,23.1,3.2,35.9-3c6.7-3.2,19.7-13.6,26.5-24.7c10.9-17.6,15.3-29.1,19.4-43c6.6-22.4,7.4-47.6,2.3-69.1
	c-0.1-0.6-0.3-1.5-0.5-2.7c-1.7-10.9-6.9-43.9-38.9-63.5c-11.6-7.1-38.7-16-62.5-13.5c-9.4,1-24.5,8.1-27.9,13.2l-1.6-1.1
	c3.7-5.5,19.4-13,29.4-14.1c24.2-2.6,51.9,6.5,63.7,13.8c32.7,20,38,53.8,39.8,64.8c0.2,1.2,0.3,2.1,0.4,2.6
	c5.2,21.9,4.3,47.4-2.4,70.2c-4.1,14-8.6,25.6-19.6,43.5c-6.4,10.4-19.3,21.6-27.4,25.4C567,400.4,559,401.3,551.8,401.3z"/>
<path class="st2" d="M488.1,408c-10.1,0-18.8-1-22.7-2.6c-9.9-4.2-15.6-16.2-12.2-25.7c2.6-7.3,6.8-11.6,9.8-14
	c0.4-0.3,0.3-0.7,0.3-0.9c0-0.1-0.2-0.5-0.7-0.6c-8.7-1.7-29.9-7.1-37.6-21.6c-4.9-9.2-5.8-17.1-2.7-23.4
	c5.3-10.9,12.7-13.8,14.9-14.5c0.4-0.1,0.7-0.5,0.8-0.9c0-0.2,0-0.7-0.5-1l-0.5-0.3c-6.6-4-16.5-10.1-20.7-27.2
	c-3.2-12.7,0.1-24.4,2.5-27.6c7.5-10,20.6-10.1,27.8-9.2c0.1,0,0.2,0,0.3-0.1c0.1-0.2,0-0.2-0.1-0.3c-5.8-5.5-15.6-16-16.3-25.2
	c-1.1-13.2,8.7-21.7,12.9-24.7l0.2-0.1c9.3-7.8,36-1.8,47.4,4.2l-0.9,1.8c-10.7-5.5-36.7-11.6-45.3-4.4c0,0-0.1,0.1-0.3,0.2
	c-4,2.8-13.1,10.8-12.1,23c0.7,8.9,11.4,19.9,15.9,24.2c0.7,0.7,0.7,1.5,0.3,2.3c-0.4,0.9-1.3,1.4-2.3,1.3c-6.8-0.8-19.1-0.8-26,8.4
	c-1.9,2.6-5.3,13.7-2.2,26c4.1,16.3,13.2,21.9,19.9,25.9l0.5,0.3c1,0.6,1.6,1.8,1.4,3s-1,2.2-2.2,2.6c-4,1.2-9.7,5.4-13.6,13.4
	c-2.8,5.8-1.9,13.1,2.7,21.6c7.3,13.7,27.8,19,36.2,20.6c1.1,0.2,2,1,2.2,2.1c0.3,1.1-0.1,2.2-1,2.9c-2.8,2.2-6.7,6.3-9.2,13.1
	c-3.1,8.6,2.1,19.4,11.1,23.2c10,4.2,52.6,3.1,66.2-6.3l0.3,2.3C524,405.6,504.3,408,488.1,408z"/>
<path class="st3" d="M490.3,201.9c-0.7,7.6-1.2,9.9-1.5,19.8c-0.2,8.3-0.3,19.4-0.6,38.3c-0.4,18.7,5.3,27,11.8,29.7
	c13.2,5.6,27.7,0.5,31.8-5.8c8.1-12.3,7.1-15.2,8.1-28.9c1-13.4-0.3-14.1,0.2-19.7c0.1-1.4,1.9-1.3,2-0.4c0.7,5.3,0.4,5.7-0.2,19.4
	c-0.3,7.3-0.5,14.1-1.2,16.2c-2.9,8.7-5.9,12.9-5.9,12.9s3.3,1.9,3.7,9.1c0.1,1-0.1,5.5-1.9,9.3c-2.4,5.3-7.4,6.3-8.4,6.5
	c-0.1,0-0.1,0.1-0.1,0.2c0.4,0.4,1.7,2,3.2,4.9c1.5,2.8,2.9,5.2,4.3,14.9c1.8,12.3-0.8,19.7-2.1,22.3c-1.4,3-3.9,5.1-4.7,5.6
	c-0.1,0.1-0.1,0.2,0,0.2c1.3,0.3,7.4,2,11.2,7c4,5.3,5.4,14.1,3.6,21.7c-1.4,6.1-9,12.7-9,12.7s-2.8-0.2-2.4-0.5
	c1.1-0.9,1.6-1.3,5.3-5.5c1.2-1.4,4.2-4.2,4.9-13c0.2-2.2-0.9-11.6-5.8-16.3c-3.1-3-8.8-4.7-16.8-5.4c-7.3-0.7-18,0.3-22.5,0.9
	c-3.5,0.5-10.9,1.2-17.8,3.1c-11.2,3-9.8,2.4-14.3,3.8l-0.7-1.9c2.5-1,6.4-1.8,8.9-2.5c3.8-1.1,5.2-1.2,7.7-1.8
	c5-1.3,8.4-1.6,12.4-2.2c4.7-0.8,7.2-1,14.6-1.5c12.5-0.8,14,0.9,16.7,0.3c6.5-1.5,8.4-8.9,8.9-15.6c0.7-9-0.9-15.9-1.6-18.7
	c-1.5-5.7-4.3-9.7-6.6-12.3c-3-3.3-8.2-4.1-14.4-4.4c-6.5-0.3-9-0.9-22.1-0.4c-9.9,0.3-13.1-0.1-21,0c-13.9,0.2-17.5,0.5-20.4,0.6
	c-3.6,0.1-5,0-7.6,0.1l-0.4-2c0,0,10.5-0.3,13.7-0.3c1.9,0,4.3-0.3,15.7-0.4c3.5,0,12,0,14.3,0c9.8-0.1,11.4,0,13.3,0
	c4.6,0.1,8.6-0.1,11.2,0.1c7,0.5,9.1,0.6,13.4,1.8c2.5,0.7,4.5,2.4,5,2.9c0.1,0.1,0.2,0.1,0.4,0.1c1-0.3,5.5-1.7,7.1-4
	c2.7-4,2.5-7.4,2.7-10.4c0.2-2.9-2.9-7.2-2.9-7.2s-3.4,3.9-7.8,6.1c-1.7,0.8-6.6,2.9-9,3.2c-5.5,0.7-16.4-0.9-21.7-5.4
	c-3.9-3.3-5.1-6.3-6.4-9.7c-0.7-1.8-2.3-7.7-2.6-15c-0.4-9,0.2-15.9,0.2-15.9s-5.9-3.8-10.1-5.2c-2.9-1-10.3-3-19.7-3.7
	c-5.3-0.4-7.7,0-7.7,0l-0.1-2c2.3-0.3,4-0.3,8.2,0c1.2,0.1,4.1,0.3,7.6,0.9c3,0.5,6,1,9,1.8c1.8,0.5,2.6,0.6,7.4,2.7
	c3.1,1.3,5.8,2.8,5.8,2.8s0.2-5.2,0-10.7c-0.1-3.5,0.1-8.1,0.3-14.4c0.2-5.1,0.2-7.5,0.8-12.6c1.2-10.5,0.7-14.5,1.3-14.3
	c0.6,0.2,0.9,1.5,2.4-1.4C491.9,191.5,490.4,200.5,490.3,201.9z"/>
</svg>
