<?xml version="1.0" encoding="utf-8"?>
<!-- Generator: Adobe Illustrator 26.2.1, SVG Export Plug-In . SVG Version: 6.00 Build 0)  -->
<svg version="1.1" id="Layer_1" xmlns="http://www.w3.org/2000/svg" xmlns:xlink="http://www.w3.org/1999/xlink" x="0px" y="0px"
	 viewBox="0 0 566.9 566.9" style="enable-background:new 0 0 566.9 566.9;" xml:space="preserve">
<style type="text/css">
	.st0{fill:none;stroke:#CE288F;stroke-miterlimit:10;}
	.st1{fill:none;stroke:#4DB748;stroke-miterlimit:10;}
</style>
<path class="st0" d="M142.3,413.8c-3.3,0-6.6-0.2-9.8-0.5c-4.6-0.5-45.7-5.3-72.1-36.7c-30.1-35.8-34.7-68.5-35.3-95.7
	c-0.5-23.1,5.1-57.5,34.4-90.6c33.3-37.7,72.8-38,85.8-38.2l0.7,0c31.1,0,57.5,19.2,64.9,25.1c0.8,0.6,1.1,1.7,0.8,2.6
	c-0.3,0.9-1.2,1.6-2.2,1.6l0,0c-0.3,0-0.6,0-0.8-0.1c-3.9-1.4-14.1-5-23.8-7.3c-3.7-0.9-8.4-1.3-13.5-1.3c-9.1,0-19.3,1.5-25.3,3.7
	c-8,2.9-12.2,7.4-13.6,9.2c-0.8,0.9-1.9,1.5-3,1.5c-0.4,0-0.9-0.1-1.3-0.2c-4.2-1.5-18.8-6.5-31.1-6.5c-1.9,0-3.7,0.1-5.3,0.4
	c-5.2,0.8-10.4,4.5-15.3,11c-3.8,5.1-5.5,14.1-0.7,22.9c3.1,5.6,9,11,12.3,13.7c1.1,0.9,1.5,2.4,1,3.7c-0.5,1.3-1.6,2.1-3,2.1
	l-0.3,0c-10.4,0-18.4,1.8-21.9,4.9c-7,6.3-7.2,18.2-6.2,24.2c0.4,2.6,2.4,11.9,8.9,20.4c3.1,4,8.1,7.3,11.7,9.3
	c1.4,0.8,2.3,2.3,2.3,4c0,1.7-0.9,3.2-2.4,3.9c-3.7,2-10.5,6.2-13.4,12c-5.3,10.5,1.5,26.5,14.1,33.7c7.4,4.2,18.2,6.2,24,7
	c1.6,0.2,2.8,1.4,3.3,2.9c0.5,1.6-0.1,3.4-1.4,4.5c-4.4,3.7-9.7,9.5-10.1,16.5c-0.3,6.3,2.4,10.7,4.8,13.2c3.7,4.1,9.4,6.8,14.5,7
	c1.6,0.1,3.2,0.1,4.9,0.2c4,0.2,8.1,0.4,12.3,0.4c7.1,0,12.8-0.6,18.2-1.8c11.2-2.6,22-6.5,22.1-6.6l0.6-0.2l0.6,0.1
	c4.4,1.1,9.3,1.6,14.7,1.6c8.8,0,15.7-1.5,15.8-1.5l1.7,3.5C203.8,394.2,179,413.8,142.3,413.8z"/>
<path class="st0" d="M209.4,179.3c0.4,0.1,0.7-0.4,0.3-0.6c-6.7-5.4-33.4-24.9-64.4-24.6c-19.2,0.2-54.1,3.3-84.4,37.5
	c-28.7,32.5-34.4,66.7-33.9,89.3c0.5,26.1,4.5,58.4,34.8,94.5c23.9,28.4,60.1,35,70.8,36c41.5,4.1,70.9-19.5,70.9-19.5
	s-16.2,3.5-31.3-0.1c0,0-10.9,4-22.4,6.7c-12.6,2.9-25.5,1.6-35.9,1.2c-9.2-0.4-21.9-8.5-21.2-22.4c0.4-7.9,6.4-14.3,10.8-18
	c1.4-1.2,0.8-3.7-1-3.9c-6.4-0.9-17.1-3-24.7-7.3c-13.4-7.6-20.7-24.8-14.9-36.3c3.1-6.1,9.7-10.4,14.2-12.8c1.8-0.9,1.8-3.5,0-4.4
	c-3.8-2.1-9-5.5-12.3-9.9c-6.2-8-8.5-16.9-9.3-21.2c-1.2-7.1-0.6-19.4,6.8-26c5.4-4.8,17.4-5.4,23.5-5.4c1.2,0,1.6-1.6,0.7-2.3
	c-3.6-3-9.6-8.5-12.7-14.3c-5.2-9.4-3.5-19.2,0.9-25c7.4-9.9,13.9-11.4,16.6-11.8c13.4-2,32.3,4.4,37.3,6.2c0.8,0.3,1.6,0,2.1-0.6
	c1.7-2.1,6.2-6.8,14.5-9.8c9.1-3.3,27.8-5.3,40-2.4C195.1,174.2,205.2,177.8,209.4,179.3z"/>
<ellipse class="st1" cx="412" cy="283.5" rx="129.6" ry="138.1"/>
<ellipse class="st1" cx="412" cy="283.5" rx="127.6" ry="136.1"/>
</svg>
