<?xml version="1.0" encoding="utf-8"?>
<!-- Generator: Adobe Illustrator 26.2.1, SVG Export Plug-In . SVG Version: 6.00 Build 0)  -->
<svg version="1.1" id="Layer_1" xmlns="http://www.w3.org/2000/svg" xmlns:xlink="http://www.w3.org/1999/xlink" x="0px" y="0px"
	 viewBox="0 0 566.9 566.9" style="enable-background:new 0 0 566.9 566.9;" xml:space="preserve">
<style type="text/css">
	.st0{fill:none;stroke:#4D56A5;stroke-width:0.9921;stroke-miterlimit:10;}
</style>
<path class="st0" d="M250.4,399.3c-13.9,0-23-2.2-27-6.6l-0.5-0.5c-3.1-3.4-7.9-8.5-6.4-18.2c1.2-8,8.6-15.2,10.8-17.2
	c0.2-0.2,0.2-0.4,0.2-0.6c0-0.1-0.1-0.4-0.4-0.4c-6.1-1.4-17.8-4.5-26.8-10.2c-12.2-7.7-19-24.2-14.1-34.6
	c4.1-8.8,10.9-12.9,15.7-15.2c0.5-0.2,0.5-0.7,0.5-0.8c0-0.2,0-0.6-0.5-0.9c-5.9-3.3-13.8-9.1-18.2-18c-8.2-16.7-5.5-37.1,5.5-42.7
	c6-3.1,12.6-3.7,17-3.7c1.4,0,2.8,0.1,4.2,0.2c0,0,0,0,0,0c0.3,0,0.4-0.2,0.5-0.3c0.1-0.3-0.1-0.5-0.1-0.5c-2.3-2.2-4.4-4.4-6.5-6.6
	c-7.2-7.6-10.8-16.8-9.4-24.1c2-10.6,12.9-20.9,18.9-21.9c3-0.5,6.1-0.8,9.3-0.8c14.9,0,27.4,5.6,31.6,7.7c2-2.4,6.9-7.3,14.8-11.2
	c5.7-2.8,13.1-4.2,22-4.2c18.1,0,38.1,5.8,44.9,8.7c34.8,14.4,45.1,47.6,45.1,47.9c6.6,25,11.9,47.7,8.2,71.9
	c-4.1,27.5-15.3,55.2-29.8,74c-9.7,12.5-22.4,20-36.8,21.8c-1,0.1-2.3,0.2-4,0.2c-7.4,0-19.5-1.2-22.4-1.5c-4,2.1-9.9,4.6-15.3,5.7
	C279.3,396.9,264.5,399.3,250.4,399.3z"/>
<path class="st0" d="M196.7,198.5c1.9-9.8,12-19.4,17.3-20.3c21.5-3.7,41.1,7.5,41.1,7.5s4.9-6.9,15.2-11.9
	c19.4-9.6,55.6,0.5,65.3,4.5c31.8,13.1,43,42.9,44,46.6c7,26.2,11.7,47.7,8.2,71.1c-4.2,27.9-15.6,55.2-29.4,73.1
	c-8.5,11-20.4,19.2-35.4,21.1c-6.3,0.8-26.5-1.4-26.5-1.4c-4.1,2.3-10.1,4.8-15.3,5.8c-3.3,0.7-46.5,7.4-56.3-3.3
	c-3.1-3.4-7.8-7.9-6.4-17.1c0.9-6.2,6.1-12.4,10.2-16c1.5-1.4,0.9-3.9-1.2-4.4c-6.4-1.5-17.5-4.5-26.1-10
	c-11.4-7.2-17.8-22.7-13.4-32.1c3.8-8.1,10.1-12,14.8-14.3c2.1-1,2.2-4.1,0.1-5.2c-5.3-2.9-13.2-8.5-17.4-17.2
	c-7.8-16-5.1-35.1,4.6-40.1c6.6-3.4,14.4-3.8,20.1-3.3c2.3,0.2,3.6-2.6,1.9-4.2c-1.9-1.9-4.1-4.1-6.5-6.6
	C198.2,213.1,195.5,204.5,196.7,198.5z"/>
</svg>
