<?xml version="1.0" encoding="utf-8"?>
<!-- Generator: Adobe Illustrator 26.2.1, SVG Export Plug-In . SVG Version: 6.00 Build 0)  -->
<svg version="1.1" id="Layer_1" xmlns="http://www.w3.org/2000/svg" xmlns:xlink="http://www.w3.org/1999/xlink" x="0px" y="0px"
	 viewBox="0 0 566.9 566.9" style="enable-background:new 0 0 566.9 566.9;" xml:space="preserve">
<style type="text/css">
	.st0{fill:none;stroke:#7E1B54;stroke-miterlimit:10;}
</style>
<path class="st0" d="M323.3,431.8c-1,0-2.2-0.3-3.9-0.6c-2.9-0.7-7.4-1.7-14.8-2c-3.3-0.2-6.3-0.8-9.5-1.6
	c-3.9-0.9-7.9-1.8-12.6-1.8c-0.7,0-1.4,0-2.1,0.1c-1.7,0.1-3.1,0.2-4.5,0.3c-3.1,0.2-5.5,0.4-7.7,0.4c-4.8,0-8.2-0.8-13-3
	c-4.1-1.9-6.6-4.2-7.6-6.6c-0.2-0.6-0.4-1.1-0.4-1.6c-0.2,0-0.3,0-0.5-0.1c-0.5,3.2-2,9.1-7,9.1c-1.8,0-3.7-0.8-5.8-2.6
	c-0.2-0.1-0.4-0.1-0.7-0.2c-1.5-0.4-4-1.1-6.7-2.4c-4.5-2.2-10-4.3-22.1-7.5c-3.5-0.9-7-1.5-10.3-2.1c-4.7-0.8-9.2-1.6-13.5-3.2
	c-5.4-2.1-8.1-6.4-8.4-9.6c-0.3-3.5,1.9-5.9,4.6-9c1-1.1,2.2-2.4,3.4-3.9c4.2-5.4,6.8-9.6,9.7-14.5c0.7-1.1,1.4-2.3,2.1-3.5
	c1.3-2.1,3.9-6.2,5.7-9c-1.9-0.3-4.2-0.8-6-1.9l-0.5-0.3c-2.4-1.5-6.1-3.8-7.8-9.2c-0.3-0.9-1.7-5.7-0.5-8c0.4-0.7,0.9-1.1,1.6-1.3
	c0.2-0.1,0.4-0.1,0.6-0.1c1.2,0,2.7,0.8,5.9,2.8c-0.8-1.7-1.6-3.6-2.2-5.7c-1.4-5-0.1-8.3,0.9-9.9c1-1.7,2.5-3,3.9-3.3l0.2-0.1h0.3
	c1.2,0,1.8,0.7,3,1.9c0.5,0.5,1.1,1.1,1.9,2c0.8,0.8,1.5,1,1.8,1c0.1,0,0.1,0,0.1,0c0.4-0.1,1.2-1,1.7-1.6c0.9-1.1,1.8-2.1,3.2-2.1
	h0.1h0.2c1.2,0.2,5.5,2.9,7.8,7.2c2.1,3.9,3.6,8.3,4.4,10.8c1.1-0.4,2.6-0.9,4.5-1.5c2.8-0.9,4.1-1.1,9.7-1.6
	c1.5-0.1,3.5-0.2,5.7-0.2c2.3,0,4.5,0.1,6.1,0.2c4.3,0.4,9,1.3,14.1,5c1.8,1.3,3,2.3,4.1,3.2c1.8,1.4,3.5,2.8,7.3,5.4
	c5,3.3,9.7,5.2,12.8,5.2c0.2,0,0.3,0,0.5,0c5.4-0.4,9.3-5.7,9.3-5.8c2-2.8,2.8-6.6,2.6-11.6v-0.2c-0.1-3.2-0.5-10.7-3.1-13
	c-1.5-1.3-5-1.9-10.8-2h-1.7c-3.5-0.1-7.9-0.1-10.2-0.4c-1,1.1-2.7,1.6-4.9,1.6s-5.1-0.5-8.6-1.5l-0.7-0.2c-2.8-0.8-7.6-2.1-12.3-6
	c-4-3.3-3.7-7.8-2.1-10.9c0.3-0.5,0.5-1,0.8-1.4c-0.8-0.8-1.4-1.9-1.6-3.3c-0.1-0.9-0.2-3.9,2.4-6.1c1-0.9,2.2-1.3,3.5-1.3
	c1.5,0,3,0.6,4.4,1.2l0.2,0.1c0.8,0.3,1.7,0.8,2.6,1.3c-0.5-2.7-1.1-6.1-1-9.2c0-0.8,0-1.8,0-2.9c0-4.4,0-10.4,1.4-15.1
	c1.8-6.1,3.9-11.2,5.8-15.7c1.7-3.9,4.1-7.4,6.1-10.2c0.4-0.6,0.8-1.2,1.2-1.7c-0.8,0.4-1.7,0.9-2.4,1.3c-2.8,1.6-4.6,2.5-6,2.5
	c-0.8,0-1.6-0.3-2-0.9c-1.3-1.5-1.6-4.5,3.5-9.1c1.7-1.4,4-2.3,5.5-2.4c0.1-1.2,0.5-4.6,0.6-6.2c0.3-3.4,0.4-4.9,1-9.2
	c0.7-4.6,2.8-20.4,13.7-19.2c2.4,0.3,5.4,1,5.4,1s-2.6-4,0.1-7.8c1.7-2.5,3.6-4.4,6.8-4.7c2-0.2,5.3,0.1,7.6,1
	c3.4,1.3,5.8,5.4,7.3,8.2c0.2,0.4,0.8,0.3,0.8-0.2c0.2-1.8-0.2-4.2-2-7.1c-0.9-1.5-2.7-3.2-4.5-5c-2.9-2.8-5.8-5.7-7-9
	c-0.5-1.5-0.4-3,0.4-4.3c1.3-2.1,3.2-3.4,5.2-4.1c4.7-1.5,12.5,2.9,14.5,8c1.6,3.9,2.8,7.4,2.8,7.4c0.3,0.9,1,1.2,1.6,0.5
	c0.4-0.6,1-1.4,1.6-2.4c2.9-4.9,4.5-10.3,3.6-12.3c-0.2-0.5-2.2-3.7-6.1-6.5c-1.3-0.9-2.6-1.8-3.8-2.6c-4-2.7-7.2-4.8-8.3-7.8
	c-2.6-6.8,0.1-10.2,2.5-12.1c1.5-1.2,4.2-2,6.8-2c3,0,7.5,1.2,9.8,2.6c5.3,3,9.4,8.6,10.6,10.3c3.5,4.6,5.3,10.4,4.8,15.6
	c0,0-1.5,8.7-4.9,17c-0.5,1.3-0.7,2.7-1.5,3.9c1.3,1.3,3,3.9,4.9,8.1c1.1,2.4,3.9,6.9,3.9,6.9c0.5-0.1,1.6-0.6,2.2-1.4
	c0.4-0.5,0.8-1,1.2-1.4c2.6-2.7,4.2-6.6,3.4-16.3c-0.3-3.3,0.3-5.6,1.7-7.2c0.7-0.8,2.1-1.8,4.3-1.8c1.7-0.7,3.3-0.3,5.1,0.5
	c4.2,1.8,6.3,5.8,6.1,12c0,0.1,0,0.2,0,0.3c0.1,3.6-2.2,8.2-4.1,11.8c-0.1,0.1-0.1,0.2-0.2,0.4c2.9-2,6.9-5.7,8.7-9.1
	c4-7.3,2.5-10.4,1-13.6c-0.8-1.7-1.6-3.4-1.6-5.6v-0.3c0-3.8-0.1-8.6,4.6-10.3c0.6-0.2,1.3-0.3,1.9-0.3c6.1,0,12.5,9,14.5,17.1
	c3,12.4-4.3,21.6-9,25.9l-0.2,0.2c-7.6,7.7-17.6,10.2-28.1,12.9l-1.1,0.3c-8.5,2.1-15.1,4.1-21.3,10.4c-2.8,2.8-4.3,5.9-4.8,7.5
	c3.7,0.8,6,3.5,7.4,5.8c1.3-2.7,3.4-6.4,7.1-9c4-2.9,6.7-4.1,13.1-4.1c0.6,0,1.3,0,2,0c1.3,0,2.8,0.3,4.6,0.7c3,0.6,7,1.3,12.6,1.5
	c1.5,0,2.8,0,3.8,0h2.3c2,0,3.5,0,4.7,1.5c1.8,2.3-2.7,16.2-3.8,18.8c-4.7,11.6-8.6,15-13,18.8c-4.3,3.7-8.7,5.4-12.2,6.8
	c-2.8,1.1-5.1,2-6.4,3.5c-0.7,0.8-0.8,2.2-1,4.6c-0.2,2.6-0.3,5.9-1.8,10c-2.2,6.3-3.9,9.4-6,13.2l-0.2,0.3c-3,5.5-6.4,9.7-8.1,11.7
	c1.7,2.7,5.1,9.2,8.3,22.2c1,3.9,1.8,7.1,2.6,10c1.5,5.6,2.7,10,3.5,15.5c1.3,7.9,0.6,17.1,0,22.1c0.8-0.2,1.7-0.4,2.7-0.4
	c1.1,0,2.1,0.2,3.1,0.6c5.1,1.9,8.6,6.9,9.4,10.9c1,5-2.4,9-4.5,10.9c-4.3,4-9.6,5.7-15.1,7.4c-3.1,0.9-6.3,1.4-9.5,1.4
	c-1.1,0-2.1-0.1-2.9-0.1c-0.2,4.1-1.1,11.8-4.5,14.3C325.2,431.5,324.4,431.8,323.3,431.8z"/>
<path class="st0" d="M174.1,396.4c-0.3-3.7,3.3-6.1,7.6-11.6c5.3-6.7,7.9-11.5,12-18.2c2-3.3,7.5-11.7,7.5-11.7s-5.4,0-8.4-1.9
	c-2.4-1.5-5.9-3.4-7.6-8.5c-1-2.9-1.3-6.5-0.2-6.8c1.3-0.3,10,6,10.6,5.5c0.4-0.3-3.3-5.3-4.8-10.9c-1.8-6.5,1.5-10.3,3.3-10.7
	c0.5-0.1,1.1,0.9,3.5,3.3c1.9,1.9,3.6,1.6,4,1.4c1.8-0.6,3.3-3.7,4.3-3.6c0.5,0.1,4.2,2.3,6.3,6.2c2.7,5.1,4.4,10.8,4.7,12.1
	c0,0.2,0.2,0.2,0.3,0.2c0.8-0.2,3-1.1,6.1-2.1c2.7-0.9,3.8-1,9.2-1.5c3-0.3,8.4-0.2,11.4,0c3.8,0.3,8.2,1,13.2,4.6
	c4.5,3.3,5,4.3,11.5,8.7c5.3,3.5,10.7,5.8,14.5,5.5c5.9-0.4,10.2-5.8,10.8-6.6c2.9-4.2,3.1-9.3,3-12.8c-0.2-3.9-0.4-11.8-3.8-14.7
	c-2-1.7-6-2.4-12-2.5c-3.4-0.1-9.4-0.1-11.8-0.4c-0.5-0.1-1.1,0.1-1.4,0.5c-0.8,0.9-3.3,2.1-11.6-0.3c-2.6-0.7-7.5-1.9-12.2-5.9
	c-3.1-2.6-2.9-6-1.6-8.5c0.5-1,1.1-1.9,1.6-2.3c0.2-0.1,0.2-0.4,0-0.5c-0.7-0.4-2-1.5-2.2-3.1c0-0.4-0.2-2.7,1.7-4.4
	c1.8-1.6,3.8-0.7,6,0.3c1.6,0.7,3.8,2,5.2,2.8c0.4,0.2,0.9-0.1,0.8-0.6c-0.5-2.4-1.8-7.6-1.6-11.9c0.1-3.7-0.3-11.9,1.3-17.5
	c1.7-5.8,3.7-10.6,5.8-15.4c3.2-7.6,9.9-14,8.7-15.5c-1.5-1.7-10.8,5.8-12,4.4c-0.7-0.9-0.4-2.8,3.4-6c1.6-1.3,4-1.5,5.1-1.6
	c0.4,0,0.7-0.6,0.8-1c0.5-3.9,0.8-10.1,1.8-16.8c0.8-5.2,4.3-15.4,10.1-16.3c7.3-1,16.7,10.9,19.3,15.2c0.2,0.3,0.8,0.2,0.8-0.2
	c0.3-2.1,0.7-6.7,0-8.5c-0.5-1.3-4.2-2.7-8.2-6.4s-4.2-6.7-3-8.6c1.9-2.8,5.9-4.2,12-1.8c5.5,2.2,7.5,9.9,8.5,9.4
	c0.8-0.3,4.5-5.3-0.2-12.9c-2.6-4.1-9.6-8.8-11.3-13.6c-1.1-3.2,2.7-4.9,4.8-5.2c2.8-0.4,8.3,1.5,11.1,6.5c3.5,6.3,2.8,9.6,4.9,10.4
	c1.6,0.6,3.7-2.4,5.2-4.9c2.5-4.2,5.1-10.8,3.7-14.1c-0.4-1-2.6-4.4-6.8-7.4c-5.5-3.9-10.3-6.3-11.5-9.5c-2.1-5.5,0.2-7.2,2.5-9.1
	c3.1-2.5,9.8-1.2,12.9,0.6c4.7,2.7,8.8,7.6,10.4,9.7c3,4,4.7,8.7,4.2,13.6c-0.3,2.7-0.6,8-4,16.5c-0.7,1.6-2.1,4.1-2.7,5
	c-0.1,0.2-0.2,0.5,0,0.6c1.2,0.9,3.2,3.2,5.1,8.1c0.7,1.8,2.8,4.7,4,6.8c2.8,4.8,5.5-0.2,7.6-2.3c3.5-3.6,4.7-8.5,3.9-17.8
	c-0.7-8,4.5-7.1,8.1-5.6c5.6,2.3,4.9,9.4,5,10.5c0.1,5.4-6.7,14.8-5.6,15.6c1.4,1.1,10.6-5.7,13.7-11.6c6.4-12-0.3-14.5-0.4-20.1
	c0-3.7-0.2-7.4,3.3-8.7c4.7-1.7,11.8,6.8,13.9,15.4c3.3,13.8-7.7,23.3-8.7,24.3c-7.6,7.5-17.6,9.8-28.5,12.6
	c-8.4,2.1-15.5,4.1-22.2,11c-4.5,4.4-6.5,10.5-5.1,10.6c6.6,0.3,8.6,8,9.2,8.1c0.7,0.1,2.4-7.3,8.2-11.5c3.9-2.8,6.2-3.9,13.9-3.7
	c3.1,0.1,8.2,1.9,17.2,2.2c7.3,0.2,8.4-0.3,9.3,0.8c0.5,0.6-1.4,10.2-4.1,16.8c-4.4,11.1-7.9,14.2-12.4,18.1
	c-7.6,6.6-15.3,6.3-18.8,10.5c-2.4,2.8-0.4,7.6-3.1,15.2c-2.2,6.3-3.9,9.3-6.1,13.3c-4.1,7.4-8.9,12.5-8.9,12.5s4.7,5.6,8.9,22.8
	c2.8,11.4,4.7,17.1,6.1,25.4c1.8,11.1-0.4,25.2-0.4,25.2s3.6-2.8,7.6-1.3c4.2,1.6,7.4,5.8,8.2,9.4c0.8,3.9-1.9,7.3-3.9,9.1
	c-4.1,3.8-9.5,5.5-14.3,6.9c-7.9,2.3-13.7,0.8-13.7,0.8s-0.1,12.3-3.8,15c-2,1.5-5.7-1.6-20-2.2c-7.5-0.3-14.4-3.9-24.4-3.3
	c-12.7,0.7-16.2,1.6-24.3-2.2c-8.7-4.1-6.8-8.1-6.8-8.1s-2.8-0.6-4.4-0.4c0,0-0.8,14.7-10,6.8c-0.3-0.3-3.8-0.9-7.6-2.7
	c-5.1-2.4-11-4.6-22.5-7.6c-8.6-2.3-16.5-2.6-23.7-5.3C176.4,402.5,174.3,398.8,174.1,396.4z"/>
</svg>
