<?xml version="1.0" encoding="utf-8"?>
<!-- Generator: Adobe Illustrator 26.2.1, SVG Export Plug-In . SVG Version: 6.00 Build 0)  -->
<svg version="1.1" id="Layer_1" xmlns="http://www.w3.org/2000/svg" xmlns:xlink="http://www.w3.org/1999/xlink" x="0px" y="0px"
	 viewBox="0 0 566.9 566.9" style="enable-background:new 0 0 566.9 566.9;" xml:space="preserve">
<style type="text/css">
	.st0{fill:none;stroke:#E81464;stroke-miterlimit:10;}
	.st1{fill:none;stroke:#4E53A3;stroke-miterlimit:10;}
	.st2{fill:none;stroke:#6ABD45;stroke-miterlimit:10;}
	.st3{fill:none;stroke:#D759A1;stroke-miterlimit:10;}
	.st4{fill:none;stroke:#5BBFD7;stroke-miterlimit:10;}
	.st5{fill:none;stroke:#3DC1CD;stroke-miterlimit:10;}
	.st6{fill:none;stroke:#DAE125;stroke-miterlimit:10;}
	.st7{fill:none;stroke:#48ADE2;stroke-miterlimit:10;}
	.st8{fill:none;stroke:#7E1A54;stroke-miterlimit:10;}
</style>
<path class="st0" d="M485,43.2c-5.3,0-12.7-2.6-16.1-8.4c-2.5-4.2-2.4-7.4-2-15.2c0,0,0.2-3.4,0.2-4.1c-1.2-0.7-2.6-1.7-4.2-3.3
	c-3.9-3.7-10-11.2-7-19.3c2.1-5.6,6.7-8.7,10.9-9.9c-1.7-3-2.5-6.3-1.6-10.1c1.4-6.9,7.4-11.5,15.1-11.6c-1.3-1.4-2.5-3.1-3.5-5.2
	c-3.2-6.9-1.4-14.8,4.6-19.9c3.3-2.8,7.4-4.3,12-4.3c6,0,11.3,2.6,13.9,4.1c4,2.4,13.8,9.2,17.7,22.1c3.6,11.9-2.4,30.1-8.2,37.4
	c0,0-1.4,1.8-1.9,2.4c-0.4,0.5-1.2,1.5-1.6,2c-0.6,0.9-1.7,2.6-2.4,3.4c-0.5,0.6-2.2,2.5-2.2,2.5c-4.9,4.2-9.3,8.7-10.3,10.1
	c-2.5,5.1-2.3,10.6-2.2,13.8c0.1,3,0.2,7-3.2,10.4C491.8,41.5,489.2,43.2,485,43.2z"/>
<path class="st0" d="M477.4,29.6c-1-1.7-0.9-3.1-0.5-11.4c0.4-8.4,0.7-7.2-0.2-8.3c-2.3-3-3.2-1.5-7-5.1c-1.7-1.6-5.5-5.9-4.5-8.5
	c1.1-2.9,3.8-3.9,5.3-4.1c4.3-0.6,8.4,1.2,10.9,3.6c0.5,0.4,1.6,1.6,2.5,3.4c1.4,2.8,1.7,3.6,2.2,3.7c1,0.1,3.9-4.9,1.1-10.8
	c-1.1-2.4-1.8-4-7.7-9.5c-6-5.6-4.7-7.2-4.6-7.9c0.4-2.7,2.8-3.9,6.4-3.6c5.2,0.4,8.2,5.2,9.3,7c3.2,5.5,3.1,9.6,4.9,9.9
	c2.2,0.4,5.6-4.6,7-9.2c1.4-4.4,3.7-8,0.8-11.9c-2.1-2.9-5.2-5.1-11.5-9.4c-2.7-1.9-4.7-3.3-5.9-5.9c-1.4-3-0.4-6,2-8.1
	c5.2-4.5,13.4,0.3,14.3,0.8c2.2,1.3,10.1,6.4,13.2,16.4c2.5,8.1-2.4,23.1-6.5,28.3c0,0-3.9-2.2-6.6,0.5c-2,2,0,8.4,0,8.4
	c-5,4.2-11.3,10.4-12.6,13.1c-5.2,10.4-2.7,20.8-3.5,21.7C485.4,33.8,479.3,32.7,477.4,29.6z"/>
<path class="st0" d="M541.1,38.6c-6.6,0-13.2-4.2-16.3-10.1c-3.6-7-1.1-13.3,1.5-19.9c1.4-3.6,3.8-9.6,9.3-16.1
	c0.9-1.1,1.7-2,2.4-2.7c-0.6-1.2-1.2-2.6-1.8-4.3c-1.4-4.5-4.1-12.9,0.8-18.9c2.9-3.5,7.1-5.5,11.7-5.5c2.2,0,4.4,0.5,6.5,1.4
	c3.8,1.8,6,4.3,7.7,7.1l0-0.2c-0.3-4.4-0.5-8.8,2.3-13.2c2.6-3.9,6.9-6.1,11.7-6.1c2.2,0,4.4,0.4,6.7,1.3
	c0.8-7.1,4.5-12.3,10.1-14.1c1.3-0.4,2.6-0.6,4-0.6c10.1,0,17.7,10.9,20.3,16.6c3.8,8.4,4.1,17.3,0.9,25.9
	c-3.1,8.5-9.3,15.5-18.3,20.8c-5.8,3.5-10.9,4.9-17.2,6.7c-4.1,1.2-7.3,2-9.8,2.6c-4.2,1-6.1,1.5-8.4,2.7c-6.4,3.2-8.6,7.4-9,8.2
	c-0.7,1.4-0.9,3-1.2,4.6c-0.6,3.4-1.8,10.5-9.1,13.1C544.5,38.3,542.9,38.6,541.1,38.6z"/>
<path class="st0" d="M533.8,23.9c-1.5-3-0.3-6.2,1.9-11.7c1.3-3.2,3.2-8.1,7.7-13.4c4-4.8,6.4-5.6,6.4-8.4c-0.1-2.7-2.3-3.2-3.9-8.1
	c-0.8-2.4-2.4-7.7-1-9.5c1.5-1.8,4-2.4,6.2-1.4c3.3,1.5,3.8,4.3,7.5,10.7c2.8,4.9,3.7,6.2,5,6.6c1.3,0.4,4.3-2.5,6.7-5.9
	c3.8-5.5,2.8-12.4,2.8-13c-0.2-4.1-0.5-6.5,0.6-8.2c1.5-2.3,4.7-1.9,7.6-0.5c3.8,1.8,4.4,6.6,4.5,8c0.3,3-0.5,5.4-2,9.4
	c-2.1,5.8-4,7.6-3.4,8.2c1,1,8.9-3.1,13.2-10.5c1.3-2.3,3.5-6,3.1-10.8c-0.4-5-3.3-6.3-3.2-11.4c0.1-2.8,0.8-6.5,3.3-7.3
	c3.6-1.1,9.5,4.9,12.1,10.6c1.2,2.6,3.9,9.5,0.7,18.3c-3,8-9.2,12.8-14,15.7c-4.7,2.8-8.8,4-14.9,5.7c-11.2,3.2-14.8,3.4-19.9,5.9
	c-9.9,4.9-13.2,11.9-13.6,12.9c-2.8,6-1.4,11.5-4.5,12.6C539.8,29.4,535.4,27.1,533.8,23.9z"/>
<path class="st0" d="M575.7,127.5c-11.1,0-15.7-5.3-17.4-8.4c-4.5-8.4,0.6-16.4,2.3-19.1l0.2-0.2c3-4.7,7.3-8.3,14.1-11.8
	c3.5-1.8,14.7-6.1,21.3-6.1c5.1,0,8,2.3,9.5,4.3c7.6,9.7-5,26.8-5.1,27c-2.6,3.5-9.4,12.7-21.4,14.2
	C578.5,127.4,577.2,127.5,575.7,127.5z"/>
<path class="st0" d="M567.2,114.2c-1.8-3.4,1-7.5,2.1-9.2c1.3-2.1,3.7-4.9,10.2-8.2c4.4-2.2,17-6.4,18.4-4.5
	c1.7,2.1-2.9,11.6-5.3,14.9c-2.2,2.9-6.9,9.2-14.6,10.2C577.2,117.4,569.3,118.2,567.2,114.2z"/>
<path class="st0" d="M594.2,283.9c-1.1,0-1.9,0-2.4-0.1l-0.8,0c-4.1-0.2-13.7-0.6-17.6-9.4c-3-6.7,0.1-18,1.5-20.6
	c4.4-8.4,10.4-11.5,13.6-12.6c5-1.7,10.7-2.1,14.6-2.1c13.6,0,16.9,3.3,18.1,4.5c2,2,3,4.6,3,7.3c0,3.6-1.7,6.7-4.9,9.2
	c0,0.3-0.1,0.6-0.1,0.9c-0.3,3.5-0.8,8.7-3.7,13.4C611.7,280.4,604.1,283.9,594.2,283.9z"/>
<path class="st0" d="M582.5,270.2c-1.1-2.6,0.4-10.4,1.2-11.9c2.9-5.5,6.4-7.3,8.1-7.9c8.1-2.8,22.5-1.1,22.5,0.2
	c0,1.2-2.1,1.3-4,4.4c-1.4,2.3-0.4,9.2-3.3,13.9c-3.3,5.4-12.8,4.9-14.7,4.8C589.1,273.6,584.1,273.7,582.5,270.2z"/>
<path class="st0" d="M503.3,205.5c-13.9,0-21-3-23.2-9.8c-2.8-8.7-2-21.1,0.2-28.8c4.9-16.8,11.6-26.2,20.5-28.7
	c1.8-0.5,3.7-0.8,5.6-0.8c14.8,0,24.8,15.6,28.3,22.4c2.3,4.3,7.6,14.3,3.7,25.6c-3.9,11.3-14.8,17.3-22.9,19
	C512.2,205.2,507.9,205.5,503.3,205.5z"/>
<path class="st0" d="M489.6,192.7c-2-6.1-1.6-16.5,0.3-23c2.2-7.6,6.8-20,13.6-21.9c9.7-2.7,18.3,8.9,22.4,16.7
	c2,3.7,5.6,10.5,3.1,17.7c-2.8,8.1-11.4,11.6-15.5,12.5C505.7,196.3,490.6,195.7,489.6,192.7z"/>
<path class="st0" d="M410.2,332.6c-5.3,0-9.5-2.4-10.3-2.8c-2.2-1.3-7.3-4.3-8.2-10.9c-0.8-6.2,2.9-12.6,8.9-15c1.7-0.7,3.4-1,5.2-1
	c3.6,0,6.4,1.4,9.4,2.8c3.4,1.6,10.4,5,10.4,13.1c0,7.6-6.7,13.8-15,14L410.2,332.6z"/>
<path class="st0" d="M415.5,318.6c0-1.5-1.5-2.5-4.8-4.1c-3-1.4-4.6-2.2-6.4-1.5c-1.7,0.7-3.1,2.6-2.8,4.5c0.2,1.8,1.9,2.7,3.4,3.6
	c0.9,0.5,3.2,1.5,5.4,1.4C413.3,322.5,415.5,320.6,415.5,318.6z"/>
<path class="st1" d="M464.6,369c-3.1,0-6.8-0.7-12.3-2.3c-9.1-2.7-12.8-5.5-15.3-8.2c-1.3-1.4-5.7-6.6-5.1-14.2
	c0.1-1.9,2.2-10.1,8.8-12.9l4.8-2.1l0,0c1.4,0.9,3.3,0.8,4.6-0.3c0.2-0.2,0.4-0.3,0.7-0.5c1.9-1.3,4.1-1.9,6.5-1.9
	c5.7,0,12,3.9,15.2,7.8c3.4,4.2,5,8.5,5.7,15.3c0.6,5.7-0.1,10.1-2.2,13.4C474.7,365.4,471.4,369,464.6,369
	C464.6,369,464.6,369,464.6,369z"/>
<path class="st1" d="M467.5,357.9c0.6-0.9,1.1-3.1,0.7-7.1c-0.5-5.1-1.5-7.6-3.5-10c-2.1-2.6-6.9-4.9-8.4-3.9c-1,0.7,0,1.3-1.3,3.1
	c-1.2,1.7-2.8,1.9-4.7,1.9c-3.7,0-5.7-1.3-5.7-1.3c-1.6,0.7-2.8,4.1-2.8,4.5c-0.2,3,1.4,5.5,2.3,6.5c1.3,1.4,3.4,3.3,10.8,5.5
	C462.2,359.2,466.4,359.7,467.5,357.9z"/>
<path class="st2" d="M197.5,317.7c-2.2,0-4.2-0.5-6.6-1c-2.9-0.6-6.1-1.4-9.9-1.4c-4.9-0.1-8.5-0.9-12-1.7c-2.7-0.6-5.3-1.2-8.8-1.5
	c-1.6-0.2-3.3-0.2-5-0.2c-2.9,0-5.5,0.2-7.8,0.4c-1.8,0.1-3.4,0.3-4.9,0.3c-1.6,0-6.6,0-10.1-4.1c-3.6-4.1-5.2-10-4.3-15.4
	c0.3-2,0.9-3.9,1.7-5.7c-2.7-0.3-6.3-0.9-10.5-2.1c0.3,1.4,0.5,2.5,0.6,3.3l0.1,0.4c0.4,3.6,1.6,13.1-6.6,17.4
	c-1.6,0.8-3.3,1.2-5.2,1.2c-3.6,0-7.1-1.5-14-4.6c-1.7-0.7-3.5-1.6-5.6-2.4c-2.4-1-8.1-2.3-12.6-3.2c-3.8-0.8-7.3-1.6-10.2-2.4
	c-0.7-0.2-2-0.4-3.3-0.6c-3.4-0.5-8-1.1-12.8-3.5c-3-1.5-10.1-5.8-11.5-14.1c-1.1-7,2.5-11.4,6.8-16.6c1.1-1.3,6.8-8.4,10.9-14.9
	c1.2-2,1.7-2.9,2.3-4.1c0.7-1.5,1.6-3.2,3.6-6.4c2.9-4.6,5.7-8.9,10.1-13.4c2.5-2.5,9.1-9.2,20.1-13c7.8-2.7,14.2-2.7,19.4-2.8
	l1.8,0c5.9,0,11.7,0.3,18.3,3.3c2.9,1.3,5.7,3.4,11.8,7.9c2.2,1.6,3.7,2.8,4.7,3.6c1.9,1.5,2.2,1.7,3.2,2.2c1.9,1,3.7,1.9,4.9,1.9
	c0.1,0,0.3,0,0.4,0c1.1-0.2,2.2-0.9,3.2-2.3c1.6-2,1.4-4.7,1.1-8l-0.1-0.9c0-0.5-0.1-1-0.1-1.5c-0.1-1-0.2-2.6-0.4-3.6
	c-1.7-0.2-4.9-0.3-8.1-0.4c-1.2,0-2.2,0-3.1,0c-4.6,0-8.9,0-12.8-3.1l-4.1-3.3l0.4-5.3c0,0,0,0,0,0c0,0,0.1-2.3-0.3-6
	c-0.1-0.5-0.4-1.9-1.3-2.6c-0.2-0.1-0.3-0.2-0.4-0.3c0,0-0.1,0-0.1,0c-1.6-0.3-5.8-1-8.8-5.3c-1.4-2-4.7-6.7-3.6-27.9
	c0.4-9.3,2.9-15.4,5.1-20.8c0.3-0.8,0.7-1.6,1-2.4c0.5-1.2,0.9-2.2,1.3-3.2c-0.3-0.2-0.5-0.4-0.7-0.6c-2.1-2-3.2-4.6-3.3-7.6
	c-0.1-4.6,2.7-9.1,5.4-11.8c1.5-1.5,3.1-2.5,4.7-3.3c1.3-18.3,6.5-29.9,15.3-34.6c2.1-1.1,4.4-1.7,6.8-1.7
	c11.1,0,22.8,12.5,27.9,20.8l1.8,2.9l-0.4,3.4c-0.1,0.7-0.1,1.5-0.2,2.2c2.6,0.5,6.2,1.8,8.8,5.2c0.1,0.1,0.2,0.2,0.3,0.3
	c0.5,0.5,1.1,1.1,1.6,1.7c0.9-0.6,1.8-1.1,2.7-1.5c1.4-0.6,2.9-0.8,4.5-0.8c2.3,0,4.6,0.6,6.6,1.7c2.5-2.7,6.4-5.7,12.3-7.7
	c2.9-1,5.5-1.5,8.2-1.5c2.5,0,4.8,0.4,7.7,0.9c2,0.3,4.3,0.7,7.3,1.1c4.8,0.6,8.1,0.7,10.7,0.7l1.5,0c2.4,0,7.9,0,11,5.2
	c2,3.4,2.2,6.1-0.8,17.7c-2.9,11.5-5.1,14.8-5.8,15.9c-0.2,0.3-0.4,0.6-0.6,1c-2.6,4.1-8.1,12.7-18.3,17.9c-2.9,1.5-5.4,2.5-7.3,3.3
	c-0.9,0.4-1.9,0.8-2.5,1.1c0,0.3,0,0.6,0,1.2c0,0.6,0,1.1,0,1.6c-0.3,5.7-3.6,15.3-7.9,22.8c-4.5,8-7.8,13.7-14.1,18
	c-2.8,1.9-6.3,2.9-10.9,4.1c-0.5,0.1-0.9,0.3-1.4,0.4c0,0.1,0,0.1,0.1,0.2c3.5,7.9,4.6,13.7,6.2,32.3c1.5,17.3-0.3,24.9-2,28.4
	c1.5,1.1,3.1,2.5,4.7,4.2l0.3,0.3c1.9,2,5.8,6,6.7,11.6c0.9,5.8-0.2,13.3-0.5,15.5c-1.4,8.7-3.7,13.4-7.7,15.9
	C202.1,317.1,200,317.7,197.5,317.7z"/>
<path class="st2" d="M141.3,110.9c0.3-13.3,2.8-28.6,10.3-32.7c5.3-2.8,16.1,6.8,21.4,15.5c0,0-0.9,7.6,0.5,9.7
	c1.1,1.7,2,2.8,5.1,3.2c1.1,0.2,3.8,0,5,1.8c0.5,0.8,2.7,2.6,2.9,3.5c0,0-1.2,1.3,1.4,4.4c2.5,3,6.4,4.3,9.1,2.8c3-1.6,0.3-6,2.9-7
	c2-0.8,5.7,1.8,7.3,4.8c1,1.7,0.9,3,1.6,3c1.3,0.2,1.9-4.4,4.8-8.3c3.3-4.3,8.3-5.9,9.3-6.3c5.4-1.9,7.6-0.4,18.6,1
	c10.9,1.3,15.4,0.3,15.9,1.1c0.5,0.8-3.4,18.5-6.3,22.9c-2,3-6.5,11.1-15.2,15.6c-7.8,4.1-12.4,4.1-14.4,8.8c-1.1,2.7-0.9,4.8-1,6.8
	c-0.2,3.5-2.7,11.5-6.6,18.3c-4.6,8-6.9,11.9-11.1,14.7c-3.1,2.1-14.4,3.8-19.7,7c-1.8,1.1,2.4,6.6,3.9,9.9
	c2.9,6.6,3.9,11.4,5.4,29.2c1.3,15.5-0.2,22.3-1.4,23.9c-1.4,1.7-3.2,3.2-3,5.5c0.3,3.5,5.1,4.2,9.8,9.2c1,1.1,4,3.9,4.5,6.7
	c0.9,6-1.1,19.8-3.6,21.3c-2,1.2-8.3-2-17.7-2.1c-7.1-0.1-11-2.4-19.9-3.2c-11.7-1.1-19.6,1.6-21.1-0.2c-1.6-1.9-2.4-4.7-2-7.2
	c0.9-5.6,4.4-7.6,7-8.3c0.6-0.2,0.6-1,0.1-1.2c-1.6-0.6-3.6-1.6-5.2-3.4c-1.1-1.2-2-2.3-2.5-3c-0.4-0.6-1.1-1-1.8-1
	c-2.3-0.3-8-0.2-16-3c-9.3-3.2-14.8-8.5-16.9-8.7c0,0-1.1,5-7.7,9c-0.4,0.2-0.2,0.8,0.2,0.8c1.9,0,4.9,0.3,7.8,1.8
	c5.6,3,6.7,10.5,6.8,11.8c0.3,2.5,1,6.6-1.2,7.7c-1.4,0.7-6.8-2-16.2-6.1c-5.5-2.4-17.7-4.2-23.9-6c-3.9-1.2-9.2-0.9-14.5-3.5
	c-2.4-1.2-5.5-3.6-6-6.7c-0.4-2.4,0.8-4,4.6-8.6c0.9-1.1,7.1-8.7,11.7-16c3.1-5,2.5-5.1,5.8-10.4c2.8-4.4,5.1-8,8.8-11.7
	c2.3-2.4,7.7-7.6,16.3-10.6c6.2-2.2,11.2-2.2,16.1-2.2c6.1,0,10.7,0,15.8,2.3c1.9,0.9,4.6,2.9,10,6.9c5.9,4.4,6.5,5.3,9.4,6.7
	c3.4,1.7,6.9,3.5,11.4,2.8c5.4-0.9,8.6-4.9,9.5-5.9c4.6-5.7,3.5-12.5,3.2-16.1c-0.4-4.5-0.4-9.7-4.2-12.4c-2.6-1.9-6.4-1.9-14.2-2.1
	c-5.4-0.1-8.3,0.2-9.8-1c0,0,0.2-3-0.3-7.9c0-0.2-0.5-5.4-4.6-9c-4.3-3.8-6.3-1.8-7.6-3.8c-2-2.8-2.3-12.3-1.9-21.8
	c0.4-8.9,3-14,5.4-20c4.1-10.5,8-13.6,10.3-18c0.3-0.5,0-0.9-0.1-1.1c-0.3-0.4-1.2-0.4-1.6-0.2c-0.8,0.3-2.3,0.8-3.5,1.6
	c-0.6,0.4-6,3.9-6.9,3c-0.6-0.6,0.5-3.2,2.3-5.2C136.7,111.7,141.2,112.8,141.3,110.9z"/>
<path class="st3" d="M595.5,614.4c-9.7,0-12.8-6.4-13.2-10.5l0-0.1c-1.4-9.8,6.5-12.2,7.4-12.5c2.5-0.7,2.7-1.1,4-4.1
	c0.1-0.3,0.3-0.7,0.4-1c0.1-0.3,0.1-0.8,0.2-1.1c0.5-3.2,1.4-9.2,7.3-13.8c1.4-1.2,5.3-4.4,11.4-4.4c1.7,0,3.3,0.2,5,0.7
	c10.4,3,17.7,14.4,15.7,24.4c-2.4,11.7-13.5,16-21.7,19.2C609.8,612.1,601.4,614.4,595.5,614.4z"/>
<path class="st3" d="M607.8,579.2c0.7-0.5,3.1-3.1,7.4-1.9c5,1.4,9.7,7.7,8.6,12.8c-1.3,6.3-8.5,9.1-15.5,11.8
	c-2.3,0.9-16.1,4.3-16.2,1.1c0-0.6-0.4-1.9,0-2c8-2.1,9.5-7.2,11.1-11C604.7,587,603.6,582.4,607.8,579.2z"/>
<path class="st4" d="M731.1,461.9L731.1,461.9c-0.1-0.6-0.6-2.1-2.8-3.6c-0.5-0.4-1.1-0.7-1.6-1.1c-3.7-2.4-9.3-6-10.1-13
	c-0.5-3.8,1-7.8,4.3-11.8c0.5-1.9,0.6-6.6,0.5-13.8c-0.6-24.5-6.1-32.9-8.2-36c-1.9-2.9-2.4-6.6-1.4-10.1c1-3.5,3.5-6.3,6.7-7.7
	c2.2-0.9,5.5-2,9.4-3.2c2.8-0.9,7.3-2.3,8.8-3c1.7-1.1,3.7-1.7,5.7-1.7c3.6,0,7.1,1.9,9,5c1.9,3,5.8,10.6,10.2,26.5
	c4.6,16.7,5.8,22.6,6.3,27.7c1.1,10.6,1.3,24.7-3.8,31.2c-0.1,0.2-0.3,0.4-0.4,0.5c-0.1,0.2-0.3,0.4-0.4,0.5c0,0.1-0.1,0.4-0.2,0.9
	c-0.7,5.1-2.6,9.9-5.9,14.2c-3.7,5.1-10.8,9-16,9l-1.6,0C734,472.5,729.9,467.3,731.1,461.9z"/>
<path class="st4" d="M721.5,377.1c-0.7-1.1-0.1-2.7,0.9-3.1c4.1-1.8,17.4-5.3,19.6-6.9c0.2-0.2,0.6-0.1,0.8,0.2
	c1.1,1.7,4.7,8.2,9.1,23.9c4.3,15.5,5.5,21.4,6,26c1.5,14.8-0.3,22.1-1.7,24c-1.1,1.4-2.5,2.8-3.1,6.8c-0.5,4.2-2.3,7.3-4,9.6
	c-2.2,2.9-6.4,5-8,5c0,0,0.7-7.1-7.1-12.5c-3.3-2.3-7.1-4.2-7.5-7c-0.2-1.5,2.1-4.3,2.6-4.9c2.5-2.9,2.4-11.9,2.2-19.8
	C730.6,391.2,724.1,381,721.5,377.1z"/>
<path class="st2" d="M539.3,278.2c-2.6,0-6.5-0.2-10.3-1.3c-6.3-1.7-10.4-7.5-10.8-15c-0.5-10.5,6.4-23,14-25.3
	c1.4-0.4,2.9-0.6,4.3-0.6c7.1,0,13.9,5,17.8,13.2c0.3,0.6,7.5,15.9,1.1,23.6C554.4,274.1,551,278.2,539.3,278.2z"/>
<path class="st2" d="M535.2,246.2c3.8-1.1,7.9,2.4,10.2,7.3c2,4.3,3.4,11.7,2.4,12.9c-1.6,1.9-10.4,2.5-16.1,0.9
	c-2.5-0.7-3.3-3.5-3.5-5.9C527.9,254.2,533.3,246.8,535.2,246.2z"/>
<path class="st5" d="M495.3,282.2c-1.9,0-4.4-0.2-8.4-0.8c-4.7-0.7-10.4-4.5-12.2-11.5c-1.8-6.8,0.7-16.8,4.1-21.3
	c3.1-4,6.9-4.6,9-4.6c7.7,0,13.1,8,15.7,12.8c2.9,5.6,6.9,15.8,0.5,22.2C500.7,282.2,496.6,282.2,495.3,282.2z"/>
<path class="st5" d="M487.7,254c1.9,0,5.1,4.2,6.8,7.5c1.8,3.5,3.7,9,2.3,10.4c-0.6,0.6-4,0.2-8.6-0.4c-0.5-0.1-3.1-0.9-4-4.2
	C483.2,263.1,485.8,254,487.7,254z"/>
<path class="st0" d="M497.3,635.7c-3.8,0-8.8-1.4-13.2-3.8c-6.9-3.7-10.8-6-12.4-11.9l0-0.1c-2-7.4,1.9-14.1,6.3-18
	c4.8-4.3,13.4-6.9,18.5-6.9c1.6,0,3,0.2,4.3,0.6c1.7,0.5,2.9,1.4,4.7,2.6c0.6,0.4,1.8,1.2,2.2,1.5c3.6,1.8,5.8,5.6,5.7,9.7
	c-0.1,3-3.8,6.9-5.9,8.8c-0.7,0.6-0.7,1.7,0,2.3h0c3,2.8,3,7.6,0,10.3l-2.5,2.2C503,634.7,500.4,635.7,497.3,635.7
	C497.3,635.7,497.3,635.7,497.3,635.7z"/>
<path class="st0" d="M497.8,605.1c-2.6-0.8-10.1,1.5-13.2,4.2c-1.6,1.4-4.2,4.6-3.3,7.8c0.4,1.4,0.3,2,7.5,5.9
	c4.6,2.4,8.9,2.9,9.5,2.4c0,0-3.1-2.8-2.2-8.5c0.8-5,4.7-6.3,7-7.3c0.5-0.2,0.5-0.9,0-1.1C501.4,607.6,498.4,605.3,497.8,605.1z"/>
<path class="st0" d="M385,634.4c-3.5,0-8.7-1.3-12-5.1c-2.8-3.2-3.5-7.9-1.6-11.8c0.1-0.2,0.2-0.4,0.4-0.7c0-0.8-0.3-2.2-0.4-2.8
	c-0.1-0.4-0.6-1.4-2.5-3.3c-1.1-1.1-4.3-4.4-3.3-9.6c0.8-4.2,4.4-8.5,10.8-8.5c4.7,0,12,2.4,16.4,6.8c0.9,0.9,8.6,9.2,6.6,20.7
	c-1.6,9.3-6.6,12.6-10.6,13.8C387.5,634.3,386.3,634.4,385,634.4z"/>
<path class="st0" d="M375.3,602.9c0.2-1,7.1,0.3,10.2,3.5c0.2,0.2,5.1,5.4,3.9,12c-0.2,1.2-0.9,5.1-3.5,5.9
	c-1.5,0.4-4.5-0.4-5.5-1.5c-0.2-0.3-0.3-0.6-0.1-1c0.1-0.2,0.3-0.6,0.6-1.1c1.3-2.5,0.7-6,0.2-8.5
	C380.3,607.2,375.2,603.2,375.3,602.9z"/>
<path class="st6" d="M436.6,611.7c-0.4,0-1.7,0-4.5-0.5c-2.2-0.4-9-1.7-10.1-8.9c-0.1-0.2-0.2-0.4-0.3-0.7c-0.3-0.6-0.6-1.4-1-2.3
	c-0.1,0-0.1-0.1-0.2-0.1c-0.7-0.2-2.2-0.5-2.9-0.6h-0.4l-1-0.1l-1.3-0.2l-1.2-0.5c-1.8-0.7-4.3-1.5-5.2-1.6c-4.7-0.1-8.8-3.3-9.9-8
	c-1.1-4.6,1.1-9.3,5.3-11.5c0.7-0.4,1.9-1.5,2.4-2.2c1.2-4.6,5.3-7.8,10-7.8c1.5,0,3,0.3,4.3,1c2.4,1.1,4.3,2.4,6,3.4
	c2.3,1.5,4.5,2.9,8.4,4.4c3.6,1.4,9.9,2.4,14.5,2.9c2.3,0.2,4.5,1.1,6.3,2.5c1.8,1.4,3.6,3.4,5,5.6c1.9,3.1,2.1,7,0.4,10.2
	c-1.7,3.2-5,5.3-8.7,5.5c-2.2,0.1-4.2,0.7-4.7,1c-0.9,0.8-1.3,1.2-1.5,1.4C445.2,608.8,441.2,611.7,436.6,611.7
	C436.6,611.7,436.6,611.7,436.6,611.7z"/>
<path class="st6" d="M408.6,586.2c-0.3,0-0.4-0.5-0.2-0.6c2.1-1,6.9-5,7.6-8.6c0-0.2,0.3-0.5,0.5-0.4c4.7,2.2,7.2,5.1,15.2,8.1
	c5.5,2.1,13.5,3.1,17.1,3.4c0.4,0,0.8,0.2,1.1,0.4c0.6,0.5,1.6,1.4,2.6,3c0.1,0.2,0,0.4-0.2,0.4c-1.6,0.1-7.5,0.5-10.9,3.4
	c-3,2.6-3.9,4-4.6,6.2c-0.1,0.3-5-0.6-5-0.8c-0.3-2-0.9-2.7-2-5.5c-1.2-3.1-3.8-4.7-5.6-5.5c-1.3-0.6-5.3-1.3-6.5-1.3
	c-0.1,0-0.2,0-0.3,0C417.4,588.5,411.7,586.1,408.6,586.2z"/>
<path class="st6" d="M396.7,454.4c-9,0-17.3-7.6-18.5-9.1c-5-6-6.3-14-5.5-18.8c0.8-4.7,3.6-6.9,5.2-7.9c0.1-0.1,0.2-0.1,0.4-0.2
	c0-0.4,0-0.9,0-1.3c0.2-6.1,4.3-13.8,10.5-15.7c1-0.3,1.9-0.4,2.9-0.4c3,0,5.3,1.2,7,2.6c0.1-0.1,0.2-0.1,0.4-0.2l2.1-1.1l2.5,0
	c4.3,0,7.3,2.6,9.9,5c0.7,0.6,3,2.9,4.3,4.7c0.1,0.1,8.6,13.1,6.1,22c-0.9,3.3-3.2,5.9-6.2,7.2c-1.3,0.7-4.9,3.1-6,4.1
	c-0.4,0.5-0.8,0.9-1.1,1.3c-3,3.5-5.8,6.8-11.6,7.7C398.4,454.3,397.5,454.4,396.7,454.4z"/>
<path class="st6" d="M397.6,444.3c-4.8,0.7-11.2-4.7-11.8-5.5c-3.9-4.6-3.8-11.1-2.9-11.6c0.9-0.5,9.8,6.3,10.6,5.5
	c0.8-0.7-5.6-7-5.3-15.3c0.1-3.1,2.3-6.1,3.3-6.4c1.2-0.3,4.7,5.7,7.7,4.9c1.8-0.5,3.6-3.3,4.3-3.7c0.7-0.4,5.1,4,6.1,5.5
	c2.5,3.4,6.4,13.2,4,14.3c-1.5,0.6-7.7,4.7-9.3,6.5C400.9,442.6,400.1,443.9,397.6,444.3z"/>
<path class="st7" d="M344.7,432.1c-10.5,0-15.1-14.5-16.1-20.1c-0.5-2.8-0.5-7,2.2-10.4c1.8-2.3,4.5-3.8,7.5-4c0.3,0,0.6,0,0.9,0
	c4.3,0,8.2,2.4,10.3,6.5c0.8,1.6,1.3,3.2,1.7,4.6c0.1,0.5,0.3,1,0.5,1.6c0.2,0.7,0.8,1.8,1.2,2.8c0.7,1.4,1.3,2.9,1.8,4.4
	c2,6.6-1.2,11.6-5.4,13.6C347.9,431.7,346.3,432.1,344.7,432.1C344.7,432.1,344.7,432.1,344.7,432.1z"/>
<path class="st7" d="M338.5,410.4c1,6.3,4.9,12.4,6.5,11.6c1.3-0.7-1.6-5.2-2.8-8.8c-1-3.1-1.3-5.9-3-5.7
	C338.1,407.6,338.5,410.1,338.5,410.4z"/>
<path class="st6" d="M451.3,114.6c-1.8,0-3.3-0.2-4.7-0.5c-6.8-1.5-11.1-8.1-9.7-14.9c1.8-9.1,3.8-12.4,5.3-14.3
	c2.2-2.7,5.5-4.3,9-4.3c2.9,0,5.7,1.1,7.9,3.1c1.6,1.5,3.9,4.2,7.6,12c1.8,3.8,1.7,8.2-0.4,11.9c-2,3.7-5.8,6.2-10,6.6
	C454.5,114.5,452.8,114.6,451.3,114.6z"/>
<path class="st6" d="M449.9,91.2c0.6-0.7,1.7-0.8,2.3-0.2c1.7,1.6,3.9,5.8,5.4,9c0.9,1.9-0.3,4.1-2.4,4.3c-2.2,0.3-4.8,0.4-6.5,0
	c-1.5-0.3-2.4-1.7-2.1-3.2C447.2,98.1,448.4,93.1,449.9,91.2z"/>
<path class="st6" d="M484,504.4c-0.5,0-1.1,0-1.6-0.1c-4.2-0.6-6.5-3.4-7.6-5.2c-6.7-0.8-8.8-5.4-9.4-7.4c-2-7.1,3.7-13.5,10.1-15.5
	c1.5-0.5,3-0.7,4.5-0.7c4.8,0,9.3,2.2,12.4,6.1c5.6,6.9,4.5,13.6,1.7,17.4C491.5,502.5,487.9,504.4,484,504.4
	C484,504.4,484,504.4,484,504.4z"/>
<path class="st6" d="M475,489c0.1,0.5,3.6-0.2,5.7,1.4c1.8,1.3,2.4,3.9,3.1,4c0.9,0.1,1.7-0.7,2.2-1.3c1.1-1.5-0.4-4-1.4-5.3
	c-1.5-1.9-3.8-2.8-6.2-2.1C476.4,486.4,474.7,488.1,475,489z"/>
<path class="st6" d="M530.5,509.1c-1.7,0-3.3-0.3-4.1-0.5l-0.2,0c-3.5-0.7-7.1-2.9-9.5-4.6c-4.3-3.1-5.8-9-3.8-14
	c2.1-5.1,7.3-7.5,11.3-7.7c0.2,0,0.4,0,0.5,0c7.2,0,11.3,5.2,13.4,7.7c3.7,4.6,4.5,9.1,2.4,13.3
	C538.7,506.8,534.9,509.1,530.5,509.1z"/>
<path class="st6" d="M522.2,493.6c0.5-1.2,2.3-1.5,2.4-1.5c2.5-0.1,4.3,2.1,5.7,3.9c0.8,1,1.5,1.9,1.3,2.5c-0.5,0.9-2.7,0.3-3.5,0.1
	c-1.1-0.2-3.2-1.2-5.5-2.9C522.1,495.4,521.9,494.5,522.2,493.6z"/>
<path class="st6" d="M570.9,498.3c-11.2-0.1-14.6-5.9-15.6-9.3c-0.8-2.8-0.6-5.5,0.5-8.2c2-4.5,6.3-7.6,11.3-8.2
	c0.5-0.1,1.1-0.1,1.6-0.1c5.2,0,8.6,2.8,10.7,4.5c1.9,1.5,7.5,6.1,5.3,13.3c-1.1,3.6-4.3,8-13.2,8
	C571.4,498.3,571.2,498.3,570.9,498.3z"/>
<path class="st6" d="M565,484.9c0.6-1.4,2.1-2.2,3.4-2.3c1.8-0.2,3.2,0.9,4.9,2.2c1.1,0.9,2.3,1.8,2,2.6c-0.3,1-2.8,0.9-4.3,0.9
	c-1.5,0-5.5-0.2-6.1-2C564.8,485.7,564.8,485.3,565,484.9z"/>
<path class="st6" d="M400.4,527.8c-5.3,0-10.1-3.2-12-8.1c-1.9-4.9-0.7-10.4,3.1-13.7c2.1-1.8,4.9-2.9,7.7-2.9
	c1.9,0,3.8,0.4,5.7,1.3c5.7,2.6,8.9,8.3,7.7,13.9c-1,4.8-5,8.4-10.1,9.3C401.9,527.8,401.2,527.8,400.4,527.8z"/>
<path class="st6" d="M398.1,513.6c0.9-0.8,2.4-0.1,2.7,0c0.9,0.4,2.3,1.5,2,2.7c-0.2,0.9-1.3,1.4-2,1.5c-1.2,0.2-2.7-0.4-3.2-1.7
	C397.5,515.4,397.4,514.2,398.1,513.6z"/>
<path class="st6" d="M616.8,507.4c-3,0-5-1-5.9-1.5c-0.2-0.1-0.5-0.2-0.9-0.3c-0.7-0.2-1.7-0.6-2.7-0.9c-0.1,0-0.2-0.1-0.4-0.1
	c-4.5-1.3-7.3-3.8-8.4-7.7c-1.6-6,2.2-12,9-14.3c1.5-0.5,3.1-0.8,4.8-0.8c2.3,0,4.2,0.5,5.7,1c7.2,2.2,11.3,6.4,11.7,11.9
	c0.5,6.2-4.3,11.5-11.2,12.5C618,507.4,617.4,507.4,616.8,507.4z"/>
<path class="st6" d="M608.2,494.4c-0.2-0.7,1.2-1.8,2.6-2.2c1.6-0.5,3.1-0.1,4.4,0.3c0.6,0.2,4.6,1.6,4.7,3.1
	c0.1,0.9-1.4,1.7-2.6,1.8c-1.5,0.2-1.6-0.4-3.3-0.9c-0.4-0.1-2-0.7-3.8-1.3C609.4,494.9,608.3,494.7,608.2,494.4z"/>
<path class="st6" d="M437.8,529.6c-5.3,0-9.5-3.1-11.6-5.9c-2.2-3-2.9-6.6-1.8-9.9c0.7-2.1,3-7.1,10.8-7.7c0.4,0,0.8,0,1.1,0
	c7.9,0,13.9,5,14.1,11.6c0.2,5.6-4.1,10.5-10,11.7C439.5,529.5,438.6,529.6,437.8,529.6z"/>
<path class="st6" d="M433.9,516.7c0.2-0.6,1.3-0.6,2-0.7c2.1-0.1,4.5,0.8,4.5,1.9c0,0.7-1.1,1.4-2,1.6
	C436.1,520,433.6,517.7,433.9,516.7z"/>
<path class="st8" d="M-42.8,263.1c-1.9,0-3.6-0.4-5.6-0.8c-2.8-0.6-6.7-1.5-13.4-1.8c-4-0.2-7.5-1-10.9-1.8c-3.6-0.8-7-1.6-10.8-1.6
	c-0.5,0-1.1,0-1.6,0c-1.6,0.1-3.1,0.2-4.5,0.3c-3.2,0.2-5.8,0.4-8.3,0.4c-6,0-10.6-1.1-16.4-3.8c-1.2-0.6-2.2-1.1-3.3-1.7
	c-2.4,2.1-5.4,3.3-8.8,3.3c-3.2,0-6.4-1.1-9.5-3.3c-1.7-0.5-4.4-1.3-7.2-2.7c-4.1-2-9.2-3.9-20.7-7c-3.2-0.8-6.5-1.4-9.7-2
	c-4.9-0.8-10-1.7-15-3.6c-8.7-3.3-13.1-10.6-13.5-16.4c-0.6-6.9,3.4-11.4,6.6-15c1-1.1,2-2.2,3-3.6c3.9-5,6.2-8.8,9.2-13.7
	c0.7-1.1,1.4-2.3,2.2-3.6c0.2-0.3,0.4-0.7,0.6-1c-3-2-7.7-5.6-10.1-12.8c-1.3-4-2.4-9.8,0.1-14.3c1-1.9,2.6-3.4,4.4-4.4
	c0-3.6,0.8-7.1,2.6-10c2.1-3.6,5.4-6.2,9-7l1.1-0.3l1.2,0c3,0,5.1,1.2,6.7,2.4c1.4-0.7,3-1.2,5-1.2h0.7l0.8,0.1
	c4.6,0.6,10.7,5.6,13.7,11.3c0.8,1.5,1.6,3.1,2.2,4.6c2.3-0.5,4.5-0.7,8.6-1.1c2.3-0.2,5-0.2,6.4-0.2c1.5,0,4.4,0,6.8,0.2
	c5.2,0.5-1.4-1.4-7.3-6.4c-5.5-4.7-7.4-11.6-5.1-18.3c-0.3-0.9-0.5-1.8-0.6-2.7c-0.5-4.9,1.4-9.8,5.2-13c2-1.7,4.4-2.8,6.9-3.1
	c0-0.5,0-1.1,0-1.7c0-4.6,0-11.6,1.7-17.3c1.8-6.2,4-11.3,5.9-15.8c-0.6-0.5-1.1-1-1.6-1.6c-1.3-1.6-7.2-10,4.7-19.9
	c1-0.8,2-1.4,3-1.9c0.3-3.3,0.7-7.2,1.3-11.4c1.3-8.3,6.6-22.9,18.5-24.6c0.1,0,0.2,0,0.4,0c0.4-1.6,1.1-3,1.9-4.3
	c2.2-3.3,5.5-5.7,9.4-6.8c-0.6-1-1.1-2.1-1.5-3.3c-1.3-3.8-0.9-7.7,1.1-11c3.4-5.6,9.8-7,11.6-7.3c0.7-0.1,1.3-0.2,2-0.2
	c-1.4-1.5-2.6-3.2-3.3-5.3c-4.6-12.3,3-18.4,5.5-20.4c2.9-2.4,6.8-3.6,11.2-3.6c4.5,0,9.4,1.3,12.9,3.3C-31-42-26-35.8-24.1-33.3
	c4.7,6.1,6.9,13.5,6.2,20.6l0,0.4c0,0.4-0.1,0.8-0.1,1.3c2.3-1.6,5.1-2.5,8.1-2.5c2.2,0,4.5,0.4,6.9,1.3c0.4-4.7,2.2-11.3,9.8-14
	c1.5-0.5,3.1-0.8,4.7-0.8c11.5,0,20,13.6,22.3,23.2C36.6,8.2,32.5,20.5,22.4,30l-0.1,0.1c-6.1,6-13.1,9.3-20.4,11.7
	c1.9,0.3,4,0.5,6.4,0.5c1.4,0,2.6,0,3.6,0l2.3,0c2.6,0,7.4,0,11,4.5c3.2,4,2.5,8.6,1.1,14.7c-1,4.3-2.3,8.8-3.7,12.2
	c-5,12.5-9.5,16.9-15.2,21.9c-5.4,4.6-10.6,6.7-14.5,8.2c-0.7,0.3-1.6,0.6-2.3,0.9c0,0.1,0,0.1,0,0.2c-0.2,2.8-0.4,7-2.2,12.2
	c-2.4,6.9-4.3,10.4-6.5,14.4l-0.2,0.3c-1.9,3.4-3.9,6.4-5.6,8.8c2,4.2,4.4,10.5,6.5,19.4c0.9,3.8,1.8,7,2.5,9.8
	c1.5,5.8,2.8,10.4,3.7,16.3c0.9,5.3,0.9,11.1,0.7,16c0,0,0,0,0.1,0c7.1,2.7,13,9.4,14.5,16.8c1.3,6.5-1.2,13.2-6.9,18.4
	c-5.6,5.1-12.1,7.3-18.3,9.1c-2.5,0.7-5,1.2-7.5,1.5c-1,5.2-3.1,10-6.9,12.9C-36.9,261.8-39.4,263.1-42.8,263.1z"/>
<path class="st8" d="M-192,219.7c-0.3-3.7,3.3-6.1,7.6-11.6c5.3-6.7,7.9-11.5,12-18.2c2-3.3,7.5-11.7,7.5-11.7s-5.4,0-8.4-1.9
	c-2.4-1.5-5.9-3.4-7.6-8.5c-1-2.9-1.3-6.5-0.2-6.8c1.3-0.3,10,6,10.6,5.5c0.4-0.3-3.3-5.3-4.8-10.9c-1.8-6.5,1.5-10.3,3.3-10.7
	c0.5-0.1,1.1,0.9,3.5,3.3c1.9,1.9,3.6,1.6,4,1.4c1.8-0.6,3.3-3.7,4.3-3.6c0.5,0.1,4.2,2.3,6.3,6.2c2.7,5.1,4.4,10.8,4.7,12.1
	c0,0.2,0.2,0.2,0.3,0.2c0.8-0.2,3-1.1,6.1-2.1c2.7-0.9,3.8-1,9.2-1.5c3-0.3,8.4-0.2,11.4,0c3.8,0.3,8.2,1,13.2,4.6
	c4.5,3.3,5,4.3,11.5,8.7c5.3,3.5,10.7,5.8,14.5,5.5c5.9-0.4,10.2-5.8,10.8-6.6c2.9-4.2,3.1-9.3,3-12.8c-0.2-3.9-0.4-11.8-3.8-14.7
	c-2-1.7-6-2.4-12-2.5c-3.4-0.1-9.4-0.1-11.8-0.4c-0.5-0.1-1.1,0.1-1.4,0.5c-0.8,0.9-3.3,2.1-11.6-0.3c-2.6-0.7-7.5-1.9-12.2-5.9
	c-3.1-2.6-2.9-6-1.6-8.5c0.5-1,1.1-1.9,1.6-2.3c0.2-0.1,0.2-0.4,0-0.5c-0.7-0.4-2-1.5-2.2-3.1c0-0.4-0.2-2.7,1.7-4.4
	c1.8-1.6,3.8-0.7,6,0.3c1.6,0.7,3.8,2,5.2,2.8c0.4,0.2,0.9-0.1,0.8-0.6c-0.5-2.4-1.8-7.6-1.6-11.9c0.1-3.7-0.3-11.9,1.3-17.5
	c1.7-5.8,3.7-10.6,5.8-15.4c3.2-7.6,9.9-14,8.7-15.5c-1.5-1.7-10.8,5.8-12,4.4c-0.7-0.9-0.4-2.8,3.4-6c1.6-1.3,4-1.5,5.1-1.6
	c0.4,0,0.7-0.6,0.8-1c0.5-3.9,0.8-10.1,1.8-16.8c0.8-5.2,4.3-15.4,10.1-16.3C-79.9,22-70.5,34-67.9,38.2c0.2,0.3,0.8,0.2,0.8-0.2
	c0.3-2.1,0.7-6.7,0-8.5c-0.5-1.3-4.2-2.7-8.2-6.4c-4-3.7-4.2-6.7-3-8.6c1.9-2.8,5.9-4.2,12-1.8c5.5,2.2,7.5,9.9,8.5,9.4
	c0.8-0.3,4.5-5.3-0.2-12.9c-2.6-4.1-9.6-8.8-11.3-13.6c-1.1-3.2,2.7-4.9,4.8-5.2C-61.6-10-56.2-8-53.4-3c3.5,6.3,2.8,9.6,4.9,10.4
	c1.6,0.6,3.7-2.4,5.2-4.9c2.5-4.2,5.1-10.8,3.7-14.1c-0.4-1-2.6-4.4-6.8-7.4c-5.5-3.9-10.3-6.3-11.5-9.5c-2.1-5.5,0.2-7.2,2.5-9.1
	c3.1-2.5,9.8-1.2,12.9,0.6c4.7,2.7,8.8,7.6,10.4,9.7c3,4,4.7,8.7,4.2,13.6c-0.3,2.7-0.6,8-4,16.5c-0.7,1.6-2.1,4.1-2.7,5
	c-0.1,0.2-0.2,0.5,0,0.6c1.2,0.9,3.2,3.2,5.1,8.1c0.7,1.8,2.8,4.7,4,6.8c2.8,4.8,5.5-0.2,7.6-2.3c3.5-3.6,4.7-8.5,3.9-17.8
	C-14.6-4.8-9.4-4-5.8-2.5C-0.3-0.1-0.9,7-0.9,8.1c0.1,5.4-6.7,14.8-5.6,15.6c1.4,1,10.6-5.7,13.8-11.6C13.6,0.1,6.9-2.5,6.8-8
	c0-3.7-0.2-7.4,3.3-8.7C14.8-18.4,21.9-9.8,24-1.3c3.4,13.8-7.6,23.3-8.6,24.2c-7.6,7.5-17.6,9.8-28.5,12.6
	c-8.4,2.1-15.5,4.1-22.2,11c-4.5,4.6-6.5,10.7-5.1,10.7c6.6,0.3,8.6,8,9.2,8.1c0.7,0.1,2.4-7.3,8.2-11.5c3.9-2.8,6.2-3.9,13.9-3.7
	C-6.1,50.2-1,52,8,52.3c7.3,0.2,8.4-0.3,9.3,0.8c0.5,0.6-1.4,10.2-4.1,16.8C8.8,80.9,5.4,84,0.8,87.9c-7.6,6.6-15.3,6.3-18.8,10.5
	c-2.4,2.8-0.4,7.6-3.1,15.2c-2.2,6.3-3.9,9.3-6.1,13.3c-4.1,7.4-8.9,12.5-8.9,12.5s4.7,5.6,8.9,22.8c2.8,11.4,4.7,17.1,6.1,25.4
	c1.8,11.1-0.4,25.2-0.4,25.2s3.6-2.8,7.6-1.3c4.2,1.6,7.4,5.8,8.2,9.4c0.8,3.9-1.9,7.3-3.9,9.1c-4.1,3.8-9.5,5.5-14.3,6.9
	c-7.9,2.3-13.7,0.8-13.7,0.8s-0.1,12.3-3.8,15c-2,1.5-5.7-1.6-20-2.2c-7.5-0.3-14.4-3.9-24.4-3.3c-12.7,0.7-16.2,1.6-24.3-2.2
	c-8.7-4.1-6.8-8.1-6.8-8.1s-2.8-0.6-4.4-0.4c0,0-0.8,14.7-10,6.8c-0.3-0.3-3.8-0.9-7.6-2.7c-5.1-2.4-11-4.6-22.5-7.6
	c-8.6-2.3-16.5-2.6-23.7-5.3C-189.7,225.7-191.8,222-192,219.7z"/>
</svg>
