<?xml version="1.0" encoding="utf-8"?>
<!-- Generator: Adobe Illustrator 26.2.1, SVG Export Plug-In . SVG Version: 6.00 Build 0)  -->
<svg version="1.1" id="Layer_1" xmlns="http://www.w3.org/2000/svg" xmlns:xlink="http://www.w3.org/1999/xlink" x="0px" y="0px"
	 viewBox="0 0 566.9 566.9" style="enable-background:new 0 0 566.9 566.9;" xml:space="preserve">
<style type="text/css">
	.st0{fill:none;stroke:#DAE125;stroke-miterlimit:10;}
</style>
<path class="st0" d="M234.2,201.5c-0.1,0-0.2,0-0.2,0l0.5-3.9c1,0,5-1,6.9-1.8c-0.2-0.2-0.4-0.5-0.7-0.9c-1.2-1.4-2.1-2.3-2.8-3
	c-1.1-1.1-2.2-2.2-1.4-3.7c1.4-2.8,6.8-0.5,9,0.6c2.1,1,4,2.4,5.7,4l-2.8,2.8c-1.4-1.3-2.9-2.5-4.6-3.3c0,0,0,0,0,0
	c1.6,1.9,2.6,3.3,2,4.9C244.7,199.8,236.1,201.5,234.2,201.5z M242.3,195.3L242.3,195.3L242.3,195.3z"/>
<path class="st0" d="M271.6,381.6c-0.9,0-1.9,0-2.8,0c-3.3-0.1-9.4-0.2-17.3-1.7c-4.9-0.9-11.4-3-13.3-3.6l1.2-3.8
	c1.3,0.4,8,2.5,12.8,3.5c7.5,1.4,13.4,1.6,16.6,1.7c4.4,0.1,8.8,0,13.2-0.4l0.4,4C278.8,381.5,275.2,381.6,271.6,381.6z"/>
<path class="st0" d="M184.4,366.8c-1.4,0-3.2-0.1-5.5-0.4c-5-0.6-8.9-2.5-10.2-3.1l1.7-3.6c2,0.9,5.1,2.3,9,2.7
	c5.9,0.7,7.8,0.2,8.3,0l1.5,3.7C188.6,366.3,187.5,366.8,184.4,366.8z"/>
<path class="st0" d="M386.7,278.1c-1,0-1.7-0.1-1.8-0.1l0.3-4c1.7,0.1,5.5,0,6.6-0.7c1.7-1.1,2.2-2.9,2.3-3.5l3.9,0.8
	c-0.2,1.1-1.1,4-4,5.9C392.1,277.9,388.8,278.1,386.7,278.1z"/>
</svg>
