<?xml version="1.0" encoding="utf-8"?>
<!-- Generator: Adobe Illustrator 26.2.1, SVG Export Plug-In . SVG Version: 6.00 Build 0)  -->
<svg version="1.1" id="Layer_1" xmlns="http://www.w3.org/2000/svg" xmlns:xlink="http://www.w3.org/1999/xlink" x="0px" y="0px"
	 viewBox="0 0 566.9 566.9" style="enable-background:new 0 0 566.9 566.9;" xml:space="preserve">
<style type="text/css">
	.st0{fill:none;stroke:#E81464;stroke-miterlimit:10;}
	.st1{fill:none;stroke:#4E53A3;stroke-miterlimit:10;}
	.st2{fill:none;stroke:#6ABD45;stroke-miterlimit:10;}
	.st3{fill:none;stroke:#D759A1;stroke-miterlimit:10;}
	.st4{fill:none;stroke:#5BBFD7;stroke-miterlimit:10;}
	.st5{fill:none;stroke:#3DC1CD;stroke-miterlimit:10;}
	.st6{fill:none;stroke:#DAE125;stroke-miterlimit:10;}
	.st7{fill:none;stroke:#48ADE2;stroke-miterlimit:10;}
	.st8{fill:none;stroke:#7E1A54;stroke-miterlimit:10;}
</style>
<path class="st0" d="M484.8,35.2c-2.7,0-7.4-1.4-9.3-4.6c-1.3-2.1-1.2-3.6-0.8-10.7l0.1-1.8c0.1-2.3,0.2-3.9,0.3-5
	c0.1-0.8,0.1-1.4,0.1-1.8c0-0.1-0.1-0.1-0.1-0.2c-0.9-1.1-1.3-1.3-2.2-1.7c-1-0.5-2.4-1.1-4.6-3.1c-1.6-1.5-6.5-6.7-5-10.6
	c1.3-3.4,4.4-5,6.9-5.4c0.6-0.1,1.3-0.1,1.9-0.1c3.9,0,7.8,1.6,10.7,4.3c0.5,0.4,1.8,1.8,2.9,3.9c0.2,0.3,0.3,0.6,0.5,0.9
	c0.4-1.5,0.5-3.7-0.7-6.2L485.3-7c-1-2.1-1.7-3.6-7.1-8.7c-5.5-5.2-5.8-7.7-5.2-9.6c0.5-3.4,3.3-5.4,7.4-5.4c0.3,0,0.7,0,1.1,0
	c4.2,0.3,7.9,3,10.8,8c1.6,2.8,2.5,5.2,3.1,7c0.2,0.6,0.5,1.4,0.7,1.8c1.1-0.7,3.3-3.7,4.6-7.7c0.3-0.8,0.5-1.6,0.8-2.4
	c1.3-3.6,1.9-5.5,0.3-7.8c-1.9-2.6-4.7-4.6-11-8.9c-2.7-1.9-5.1-3.5-6.6-6.7c-1.7-3.7-0.7-7.7,2.6-10.4c1.8-1.6,4.1-2.4,6.8-2.4
	c4.3,0,8.3,2.1,9.8,3c3.2,1.9,11,7.4,14.1,17.5c2.7,8.8-2.3,24.3-6.8,30.1l-1.1,1.3L508-9c0,0-1.1-0.6-2.3-0.6
	c-0.8,0-1.4,0.2-1.9,0.7c-0.6,0.6-0.4,3.8,0.5,6.4l0.4,1.3l-1,0.9c-5.6,4.7-11.1,10.4-12.1,12.4c-3.5,7-3.3,14.1-3.2,17.9
	c0.1,2.4,0.1,3.5-0.8,4.3C487,35,486.1,35.2,484.8,35.2z"/>
<path class="st0" d="M477.3,29.7c-1-1.7-0.9-3.1-0.5-11.4c0.4-8.4,0.7-7.2-0.2-8.3c-2.3-3-3.2-1.5-7-5.1c-1.7-1.6-5.5-5.9-4.5-8.5
	c1.1-2.9,3.8-3.9,5.3-4.1c4.3-0.6,8.4,1.2,10.9,3.6c0.5,0.4,1.6,1.6,2.5,3.4c1.4,2.8,1.7,3.6,2.2,3.7c1,0.1,3.9-4.9,1.1-10.8
	c-1.1-2.4-1.8-4-7.7-9.5c-6-5.6-4.7-7.2-4.6-7.9c0.4-2.7,2.8-3.9,6.4-3.6c5.2,0.4,8.2,5.2,9.3,7c3.2,5.5,3.1,9.6,4.9,9.9
	c2.2,0.4,5.6-4.6,7-9.2c1.4-4.4,3.7-8,0.8-11.9c-2.1-2.9-5.2-5.1-11.5-9.4c-2.7-1.9-4.7-3.3-5.9-5.9c-1.4-3-0.4-6,2-8.1
	c5.2-4.5,13.4,0.3,14.3,0.8c2.2,1.3,10.1,6.4,13.2,16.4c2.5,8.1-2.4,23.1-6.5,28.3c0,0-3.9-2.2-6.6,0.5c-2,2,0,8.4,0,8.4
	c-5,4.2-11.3,10.4-12.6,13.1c-5.2,10.4-2.7,20.8-3.5,21.7C485.2,33.9,479.1,32.8,477.3,29.7z"/>
<path class="st0" d="M541,30.6c-3.5,0-7.5-2.5-9.1-5.8c-1.9-3.8-0.4-7.6,1.8-13.3c1.2-3.1,3.3-8.4,8-14c1.5-1.8,2.7-3,3.7-4
	c1.8-1.8,2.2-2.2,2.2-3.1c0-0.7-0.3-1.1-1-2.1c-0.8-1.1-1.9-2.7-2.8-5.5c-1.9-6.1-2.1-9.5-0.6-11.4c1.4-1.6,3.3-2.6,5.5-2.6
	c1.1,0,2.1,0.2,3.1,0.7c3,1.4,4.2,3.7,6.1,7.2c0.6,1.2,1.4,2.6,2.3,4.3c1.9,3.3,3,5,3.6,5.6c0.8-0.4,2.7-2.1,4.7-5
	c2-2.9,2.9-7,2.5-11.5c0-0.1,0-0.2,0-0.3l-0.1-1.1c-0.2-3.7-0.4-6.2,1-8.3c1.1-1.6,2.9-2.5,5-2.5c1.6,0,3.3,0.5,5.1,1.3
	c3.2,1.5,5.1,4.8,5.7,9.6c0.4,3.5-0.6,6.4-2.1,10.3c-0.7,1.8-1.3,3.2-1.8,4.3c2.4-1.6,5.8-4.4,8-8.3c1.3-2.2,3.2-5.5,2.8-9.6
	c-0.2-2-0.8-3.3-1.5-4.7c-0.8-1.7-1.8-3.7-1.7-6.8c0-2.3,0.6-7.9,4.7-9.2c0.5-0.2,1-0.2,1.6-0.2c4.7,0,10.4,6.2,13,11.9
	c2.9,6.4,3.2,13.2,0.7,19.8c-2.5,6.8-7.4,12.3-14.9,16.7c-4.9,2.9-9.3,4.2-15.3,5.9c-4,1.1-7.1,1.9-9.5,2.5c-4.5,1.1-6.9,1.7-10,3.3
	c-8.3,4.1-11.7,9.7-12.7,12c-1.1,2.4-1.5,4.7-1.9,6.7c-0.5,3-1,5.8-3.8,6.8C542.6,30.5,541.8,30.6,541,30.6z"/>
<path class="st0" d="M533.7,23.9c-1.5-3-0.3-6.2,1.9-11.7c1.3-3.2,3.2-8.1,7.7-13.4c4-4.8,6.4-5.6,6.4-8.4c-0.1-2.7-2.3-3.2-3.9-8.1
	c-0.8-2.4-2.4-7.7-1-9.5c1.5-1.8,4-2.4,6.2-1.4c3.3,1.5,3.8,4.3,7.5,10.7c2.8,4.9,3.7,6.2,5,6.6c1.3,0.4,4.3-2.5,6.7-5.9
	c3.8-5.5,2.8-12.4,2.8-13c-0.2-4.1-0.5-6.5,0.6-8.2c1.5-2.3,4.7-1.9,7.6-0.5c3.8,1.8,4.4,6.6,4.5,8c0.3,3-0.5,5.4-2,9.4
	c-2.1,5.8-4,7.6-3.4,8.2c1,1,8.9-3.1,13.2-10.5c1.3-2.3,3.5-6,3.1-10.8c-0.4-5-3.3-6.3-3.2-11.4c0.1-2.8,0.8-6.5,3.3-7.3
	c3.6-1.1,9.5,4.9,12.1,10.6c1.2,2.6,3.9,9.5,0.7,18.3c-3,8-9.2,12.8-14,15.7c-4.7,2.8-8.8,4-14.9,5.7c-11.2,3.2-14.8,3.4-19.9,5.9
	c-9.9,4.9-13.2,11.9-13.6,12.9c-2.8,6-1.4,11.5-4.5,12.6C539.6,29.4,535.3,27.2,533.7,23.9z"/>
<path class="st0" d="M575.6,119.5c-3.7,0-8.4-0.7-10.3-4.3c-2.3-4.2,0.7-8.9,2-11l0.2-0.3c1.4-2.3,4-5.4,10.9-8.9
	c3.5-1.8,13.2-5.2,17.7-5.2c0.6,0,2.2,0,3.2,1.2c3.1,3.9-4.2,15.8-5.3,17.3c-2.2,3-7.4,9.9-16,11C578,119.4,577.1,119.5,575.6,119.5
	z"/>
<path class="st0" d="M567,114.3c-1.8-3.4,1-7.5,2.1-9.2c1.3-2.1,3.7-4.9,10.2-8.2c4.4-2.2,17-6.4,18.4-4.5
	c1.7,2.1-2.9,11.6-5.3,14.9c-2.2,2.9-6.9,9.2-14.6,10.2C577.1,117.5,569.2,118.2,567,114.3z"/>
<path class="st0" d="M594.1,275.9c-0.9,0-1.6,0-2-0.1l-0.8,0c-3.5-0.1-8.7-0.4-10.7-4.7c-1.5-3.3,0.3-11.8,1.3-13.6
	c3.2-6,7.1-8.1,9.2-8.8c3.9-1.4,8.7-1.6,12-1.6c0.4,0,10.3,0,12.4,2.1c0.4,0.4,0.7,1,0.7,1.6c0,1.5-1.1,2.3-1.9,2.9
	c-0.7,0.5-1.6,1.2-2.4,2.5c-0.3,0.5-0.5,2.4-0.7,3.9c-0.3,3.1-0.7,6.8-2.6,10C605.6,274.9,599.1,275.9,594.1,275.9z"/>
<path class="st0" d="M582.4,270.3c-1.1-2.6,0.4-10.4,1.2-11.9c2.9-5.5,6.4-7.3,8.1-7.9c8.1-2.8,22.5-1.1,22.5,0.2
	c0,1.2-2.1,1.3-4,4.4c-1.4,2.3-0.4,9.2-3.3,13.9c-3.3,5.4-12.8,4.9-14.7,4.8C589,273.7,584,273.8,582.4,270.3z"/>
<path class="st0" d="M503.2,197.6c-6.5,0-14.4-0.7-15.5-4.2c-2.2-6.9-1.6-17.7,0.3-24.1c2.7-9.5,7.6-21.2,14.9-23.3
	c1.1-0.3,2.3-0.5,3.4-0.5c10.5,0,18.4,12.7,21.3,18.1c2.1,3.9,6,11.3,3.2,19.2c-3.7,10.7-15.6,13.5-17,13.8
	C511,197.2,507.2,197.6,503.2,197.6z"/>
<path class="st0" d="M489.5,192.7c-2-6.1-1.6-16.5,0.3-23c2.2-7.6,6.8-20,13.6-21.9c9.7-2.7,18.3,8.9,22.4,16.7
	c2,3.7,5.6,10.5,3.1,17.7c-2.8,8.1-11.4,11.6-15.5,12.5C505.6,196.4,490.5,195.7,489.5,192.7z"/>
<path class="st0" d="M410.1,324.6c-2.7,0-5.3-1.1-6.3-1.7c-1.7-1-4-2.4-4.4-5.1c-0.4-2.9,1.7-5.6,4-6.6c0.7-0.3,1.4-0.4,2.1-0.4
	c1.8,0,3.5,0.8,5.9,2c2.9,1.4,5.9,2.8,5.9,5.9c0,3.2-3.2,5.9-7.1,5.9L410.1,324.6z"/>
<path class="st0" d="M415.3,318.7c0-1.5-1.5-2.5-4.8-4.1c-3-1.4-4.6-2.2-6.4-1.5c-1.7,0.7-3.1,2.6-2.8,4.5c0.2,1.8,1.9,2.7,3.4,3.6
	c0.9,0.5,3.2,1.5,5.4,1.4C413.2,322.6,415.3,320.6,415.3,318.7z"/>
<path class="st1" d="M464.5,361c-2.2,0-5.4-0.6-10.1-2c-7.7-2.2-10.1-4.3-11.7-6c-0.5-0.6-3.2-3.6-2.9-8c0.1-0.7,1.4-5.1,4-6.2
	l1-0.4l0.9,0.6c0,0,1.7,1,4.6,1l0.1,0c1.7,0,2.3-0.2,2.9-1.1c0.3-0.5,0.3-0.6,0.4-1c0-0.6,0.1-1.7,1.4-2.6c0.6-0.4,1.3-0.6,2.1-0.6
	c2.6,0,6.8,2.3,9,4.9c2.4,2.9,3.4,5.8,4,11.1c0.4,3.8,0,6.7-1,8.4C468.3,360.3,466.7,361,464.5,361L464.5,361z"/>
<path class="st1" d="M467.4,358c0.6-0.9,1.1-3.1,0.7-7.1c-0.5-5.1-1.5-7.6-3.5-10c-2.1-2.6-6.9-4.9-8.4-3.9c-1,0.7,0,1.3-1.3,3.1
	c-1.2,1.7-2.8,1.9-4.7,1.9c-3.7,0-5.7-1.3-5.7-1.3c-1.6,0.7-2.8,4.1-2.8,4.5c-0.2,3,1.4,5.5,2.3,6.5c1.3,1.4,3.4,3.3,10.8,5.5
	C462.1,359.2,466.3,359.7,467.4,358z"/>
<path class="st2" d="M197.4,309.7c-1.3,0-2.9-0.4-4.8-0.8c-3.1-0.7-6.9-1.5-11.6-1.6c-4,0-7-0.7-10.3-1.5c-2.8-0.7-5.8-1.3-9.8-1.7
	c-1.9-0.2-3.8-0.3-5.8-0.3c-3.3,0-6.1,0.2-8.4,0.4c-1.6,0.1-3,0.3-4.2,0.3c-1.4,0-3.1-0.2-4.1-1.3c-2-2.3-3-5.7-2.4-8.8
	c0.8-4.7,3.2-7.3,5.5-8.6c-1.2-0.7-2.2-1.5-3.1-2.5c-1.2-1.3-2.1-2.5-2.7-3.3c-0.1-0.2-0.3-0.2-0.4-0.2c-0.4,0-0.9-0.1-1.4-0.1
	c-2.8-0.2-8.1-0.6-15-2.9c-5.8-2-10.3-4.8-13.2-6.7c-0.6-0.4-1.3-0.9-1.9-1.2c-0.7,1.5-2.1,3.6-4.4,5.6c1.5,0.3,3.1,0.8,4.6,1.6
	c6.2,3.3,7.6,11,7.9,13.3l0.1,0.5c0.4,3,0.9,7.6-2.3,9.3c-0.4,0.2-0.9,0.3-1.5,0.3c-2,0-5.1-1.4-10.7-3.9c-1.7-0.7-3.6-1.6-5.7-2.5
	c-3.1-1.3-9-2.6-14.1-3.7c-3.6-0.8-7-1.5-9.6-2.3c-1.3-0.4-2.8-0.6-4.5-0.8c-3.1-0.4-6.7-1-10.3-2.8c-1.5-0.7-6.3-3.5-7.1-8.2
	c-0.6-3.4,1.3-5.7,5-10.2c1.2-1.4,7.2-8.8,11.5-15.8c1.4-2.3,2-3.5,2.6-4.7c0.7-1.4,1.4-2.8,3.2-5.7c2.8-4.4,5.2-8.2,9.1-12.1
	c2.1-2.1,7.8-7.9,17-11.1c6.5-2.3,11.7-2.3,16.8-2.3l1.8,0c5.3,0,9.8,0.2,14.9,2.5c2.1,1,4.9,3,10.4,7.1c2.1,1.5,3.5,2.7,4.6,3.5
	c2,1.6,2.8,2.2,4.5,3.1c2.8,1.4,5.4,2.7,8.5,2.7c0.5,0,1.1,0,1.7-0.1c2.1-0.3,5.3-1.5,8.2-5.2c3.8-4.7,3.2-10.2,2.8-13.8l-0.1-0.8
	c0-0.5-0.1-1-0.1-1.4c-0.3-3.8-0.6-7.7-3.2-9.6c-2.1-1.5-5.7-1.6-13-1.7c-1.2,0-2.3,0-3.3,0c-3.8,0-6.1,0-7.8-1.4l-0.8-0.7l0.1-1
	c0,0,0.2-3-0.3-7.5c-0.1-0.5-0.6-4.8-4-7.7c-2-1.8-3.3-2-4.4-2.2c-1.1-0.2-2.5-0.4-3.5-2c-2.7-3.9-2.6-16.1-2.2-23
	c0.4-7.9,2.5-13.1,4.5-18.1c0.3-0.8,0.7-1.7,1-2.5c2.8-7.2,5.6-11.1,7.8-14.1c0.5-0.6,0.9-1.3,1.3-1.9c-0.4,0.2-0.7,0.4-1,0.6
	c-5.3,3.5-7,3.5-7.5,3.5c-0.9,0-1.5-0.4-1.8-0.7c-0.4-0.3-0.8-0.9-0.8-1.9c0-1.9,1.5-4.5,3.1-6.1c1.8-1.8,4.1-2.3,5.7-2.6
	c0.3-0.1,0.6-0.1,0.9-0.2c0.3-10.8,2.2-28.8,11.3-33.6c0.9-0.5,1.9-0.7,3.1-0.7c6.6,0,16,8.8,21,17l0.4,0.6l-0.1,0.7
	c-0.4,3.7-0.3,7.6,0.2,8.4c0.9,1.4,1.3,2,3.7,2.3c0.2,0,0.3,0,0.6,0.1c1.5,0.1,4.3,0.3,5.8,2.6c0.1,0.1,0.6,0.6,0.9,0.9
	c1.3,1.3,2.1,2.2,2.3,3.3l0.2,0.9l-0.4,0.4c0,0.2,0.2,0.9,1.2,2.1c1.4,1.6,3.4,2.7,5.1,2.7c0.6,0,1.1-0.1,1.5-0.3
	c0.4-0.2,0.5-0.6,0.5-2.2c0-1.5,0.1-4,2.6-5c0.5-0.2,1-0.3,1.5-0.3c3.1,0,6.6,3,8.3,5.9c0,0,0,0.1,0,0.1c0.7-1.6,1.6-3.7,3.1-5.6
	c2.3-3.1,5.7-5.4,10.1-6.9l0.1,0c2-0.7,3.7-1,5.5-1c1.9,0,3.8,0.3,6.4,0.7c2,0.3,4.4,0.7,7.6,1.1c5.2,0.6,9,0.7,11.7,0.7l1.5,0
	c1.9,0,3.4,0,4.2,1.3c0.3,0.5,0.9,1.5-1.7,11.6c-1,3.8-2.8,10.6-4.7,13.4c-0.2,0.3-0.4,0.7-0.7,1.1c-2.4,3.8-7,10.9-15.2,15.2
	c-2.6,1.3-4.9,2.3-6.7,3c-4,1.6-5.8,2.5-6.8,4.8c-0.7,1.7-0.8,3.2-0.8,4.8c0,0.5,0,0.9,0,1.3c-0.2,3.9-2.8,12.1-6.8,19.2
	c-4.7,8.2-7.1,12.3-11.7,15.4c-1.7,1.1-4.8,2-8.5,3c-3.8,1-8,2.2-10.7,3.7c0.3,1,1.4,2.9,2.1,4.1c0.7,1.3,1.5,2.6,2,3.7
	c3.1,7,4,12,5.5,29.8c1.1,12.9,0.4,22.4-1.9,25.3c-0.3,0.4-0.6,0.8-0.9,1.1c-1.1,1.2-1.7,2-1.7,2.9c0.1,1,1.1,1.7,3.1,3
	c1.8,1.2,4,2.7,6.2,5c0.1,0.1,0.3,0.3,0.4,0.4c1.4,1.5,4.1,4.2,4.5,7.3c0.8,5.2-0.6,20.9-4.5,23.3
	C199.1,309.5,198.3,309.7,197.4,309.7z"/>
<path class="st2" d="M141.2,111c0.3-13.3,2.8-28.6,10.3-32.7c5.3-2.8,16.1,6.8,21.4,15.5c0,0-0.9,7.6,0.5,9.7c1.1,1.7,2,2.8,5.1,3.2
	c1.1,0.2,3.8,0,5,1.8c0.5,0.8,2.7,2.6,2.9,3.5c0,0-1.2,1.3,1.4,4.4c2.5,3,6.4,4.3,9.1,2.8c3-1.6,0.3-6,2.9-7c2-0.8,5.7,1.8,7.3,4.8
	c1,1.7,0.9,3,1.6,3c1.3,0.2,1.9-4.4,4.8-8.3c3.3-4.3,8.3-5.9,9.3-6.3c5.4-1.9,7.6-0.4,18.6,1c10.9,1.3,15.4,0.3,15.9,1.1
	c0.5,0.8-3.4,18.5-6.3,22.9c-2,3-6.5,11.1-15.2,15.6c-7.8,4.1-12.4,4.1-14.4,8.8c-1.1,2.7-0.9,4.8-1,6.8c-0.2,3.5-2.7,11.5-6.6,18.3
	c-4.6,8-6.9,11.9-11.1,14.7c-3.1,2.1-14.4,3.8-19.7,7c-1.8,1.1,2.4,6.6,3.9,9.9c2.9,6.6,3.9,11.4,5.4,29.2
	c1.3,15.5-0.2,22.3-1.4,23.9c-1.4,1.7-3.2,3.2-3,5.5c0.3,3.5,5.1,4.2,9.8,9.2c1,1.1,4,3.9,4.5,6.7c0.9,6-1.1,19.8-3.6,21.3
	c-2,1.2-8.3-2-17.7-2.1c-7.1-0.1-11-2.4-19.9-3.2c-11.7-1.1-19.6,1.6-21.1-0.2c-1.6-1.9-2.4-4.7-2-7.2c0.9-5.6,4.4-7.6,7-8.3
	c0.6-0.2,0.6-1,0.1-1.2c-1.6-0.6-3.6-1.6-5.2-3.4c-1.1-1.2-2-2.3-2.5-3c-0.4-0.6-1.1-1-1.8-1c-2.3-0.3-8-0.2-16-3
	c-9.3-3.2-14.8-8.5-16.9-8.7c0,0-1.1,5-7.7,9c-0.4,0.2-0.2,0.8,0.2,0.8c1.9,0,4.9,0.3,7.8,1.8c5.6,3,6.7,10.5,6.8,11.8
	c0.3,2.5,1,6.6-1.2,7.7c-1.4,0.7-6.8-2-16.2-6.1c-5.5-2.4-17.7-4.2-23.9-6c-3.9-1.2-9.2-0.9-14.5-3.5c-2.4-1.2-5.5-3.6-6-6.7
	c-0.4-2.4,0.8-4,4.6-8.6c0.9-1.1,7.1-8.7,11.7-16c3.1-5,2.5-5.1,5.8-10.4c2.8-4.4,5.1-8,8.8-11.7c2.3-2.4,7.7-7.6,16.3-10.6
	c6.2-2.2,11.2-2.2,16.1-2.2c6.1,0,10.7,0,15.8,2.3c1.9,0.9,4.6,2.9,10,6.9c5.9,4.4,6.5,5.3,9.4,6.7c3.4,1.7,6.9,3.5,11.4,2.8
	c5.4-0.9,8.6-4.9,9.5-5.9c4.6-5.7,3.5-12.5,3.2-16.1c-0.4-4.5-0.4-9.7-4.2-12.4c-2.6-1.9-6.4-1.9-14.2-2.1c-5.4-0.1-8.3,0.2-9.8-1
	c0,0,0.2-3-0.3-7.9c0-0.2-0.5-5.4-4.6-9c-4.3-3.8-6.3-1.8-7.6-3.8c-2-2.9-2.3-12.3-1.9-21.8c0.4-8.9,3-14,5.4-20
	c4.1-10.5,8-13.6,10.3-18c0.3-0.5,0-0.9-0.1-1.1c-0.3-0.4-1.2-0.4-1.6-0.2c-0.8,0.3-2.3,0.8-3.5,1.6c-0.6,0.4-6,3.9-6.9,3
	c-0.6-0.6,0.5-3.2,2.3-5.2C136.5,111.8,141.1,112.8,141.2,111z"/>
<path class="st3" d="M595.4,606.4c-4.4,0-5.2-2-5.2-3.2c0-0.1,0-0.3-0.1-0.4c-0.1-0.9-0.4-3.1,1.5-3.6c6.4-1.7,7.9-5.3,9.3-8.8
	c0.2-0.4,0.3-0.7,0.5-1.1c0.3-0.8,0.5-1.8,0.7-2.9c0.4-2.7,1-6.1,4.4-8.7c0,0,0.1-0.1,0.2-0.1c0.8-0.7,2.9-2.5,6.2-2.5
	c0.9,0,1.8,0.1,2.8,0.4c5.7,1.6,11.3,8.6,10,15.1c-1.5,7.4-9.6,10.5-16.7,13.3C607.3,604.5,599.9,606.4,595.4,606.4z"/>
<path class="st3" d="M607.7,579.2c0.7-0.5,3.1-3.1,7.4-1.9c5,1.4,9.7,7.7,8.6,12.8c-1.3,6.3-8.5,9.1-15.5,11.8
	c-2.3,0.9-16.1,4.3-16.2,1.1c0-0.6-0.4-1.9,0-2c8-2.1,9.5-7.2,11.1-11C604.6,587,603.5,582.4,607.7,579.2z"/>
<path class="st4" d="M738.8,464.6l0.2-2.2c0-0.2,0.4-6.1-6.2-10.6c-0.6-0.4-1.2-0.8-1.8-1.2c-3-2-6.2-4-6.5-7.2
	c-0.3-2.3,2-5.3,3.1-6.5c2.1-2.5,1.9-13.3,1.7-18.4c-0.7-26.7-7.1-36.5-9.5-40.2c-0.6-1-0.8-2.2-0.4-3.4c0.4-1.2,1.2-2.2,2.2-2.6
	c1.8-0.8,5.1-1.8,8.6-2.9c3.8-1.2,9.6-3,10.6-3.8c0.4-0.3,0.9-0.5,1.5-0.5c0.9,0,1.7,0.5,2.2,1.2c1.1,1.7,4.9,8.4,9.3,24.4
	c4.4,16.1,5.6,21.8,6.1,26.4c1.5,14.8-0.2,23-2.1,25.4l-0.4,0.5c-1,1.2-1.9,2.3-2.3,5.4c-0.5,3.8-1.9,7.2-4.4,10.5
	c-2.4,3.2-7.1,5.8-9.6,5.8L738.8,464.6z"/>
<path class="st4" d="M721.4,377.2c-0.7-1.1-0.1-2.7,0.9-3.1c4.1-1.8,17.4-5.3,19.6-6.9c0.2-0.2,0.6-0.1,0.8,0.2
	c1.1,1.7,4.7,8.2,9.1,23.9c4.3,15.5,5.5,21.4,6,26c1.5,14.8-0.3,22.1-1.7,24c-1.1,1.4-2.5,2.8-3.1,6.8c-0.5,4.2-2.3,7.3-4,9.6
	c-2.2,2.9-6.4,5-8,5c0,0,0.7-7.1-7.1-12.5c-3.3-2.3-7.1-4.2-7.5-7c-0.2-1.5,2.1-4.3,2.6-4.9c2.5-2.9,2.4-11.9,2.2-19.8
	C730.5,391.2,723.9,381.1,721.4,377.2z"/>
<path class="st2" d="M539.2,270.2c-2.9,0-5.8-0.3-8.1-1c-2.9-0.8-4.7-3.6-4.9-7.7c-0.4-7.8,5.3-16.3,8.3-17.2c0.7-0.2,1.3-0.3,2-0.3
	c4,0,8,3.3,10.6,8.6c1.6,3.4,4.3,12.5,2.2,15C547.3,270,541.6,270.2,539.2,270.2z"/>
<path class="st2" d="M535,246.3c3.8-1.1,7.9,2.4,10.2,7.3c2,4.3,3.4,11.7,2.4,12.9c-1.6,1.9-10.4,2.5-16.1,0.9
	c-2.5-0.7-3.3-3.5-3.5-5.9C527.7,254.2,533.2,246.8,535,246.3z"/>
<path class="st5" d="M495.2,274.2c-1.5,0-3.7-0.2-7.3-0.7c-1.2-0.2-4.5-1.5-5.6-5.7c-1.1-4,0.7-11.6,2.7-14.3c0.8-1,1.6-1.5,2.6-1.5
	c3.9,0,8.1,7.7,8.6,8.6c0.5,1,5,9.7,2,12.8C497.4,274.1,496.3,274.2,495.2,274.2z"/>
<path class="st5" d="M487.6,254c1.9,0,5.1,4.2,6.8,7.5c1.8,3.5,3.7,9,2.3,10.4c-0.6,0.6-4,0.2-8.6-0.4c-0.5-0.1-3.1-0.9-4-4.2
	C483.1,263.1,485.6,254,487.6,254z"/>
<path class="st0" d="M497.2,627.7c-1.9,0-5.5-0.7-9.4-2.8c-7.1-3.8-7.9-4.8-8.5-6.9l0-0.2c-1.1-3.8,1.4-7.7,3.9-9.8
	c3.2-2.8,9.6-4.9,13.2-4.9c0.7,0,1.4,0.1,1.9,0.3c0.5,0.2,1,0.5,2.5,1.5c1,0.7,2.3,1.6,3.1,2c0.9,0.5,1.4,1.4,1.4,2.4
	c0,1-0.6,1.9-1.5,2.3c-0.2,0.1-0.4,0.2-0.7,0.3c-2.2,1-4.6,2-5.2,5.6c-0.7,4.4,1.5,6.6,1.6,6.7l1.5,1.5l-1.6,1.4
	C498.9,627.6,497.9,627.7,497.2,627.7L497.2,627.7z"/>
<path class="st0" d="M497.7,605.2c-2.6-0.8-10.1,1.5-13.2,4.2c-1.6,1.4-4.2,4.6-3.3,7.8c0.4,1.4,0.3,2,7.5,5.9
	c4.6,2.4,8.9,2.9,9.5,2.4c0,0-3.1-2.8-2.2-8.5c0.8-5,4.7-6.3,7-7.3c0.5-0.2,0.5-0.9,0-1.1C501.3,607.7,498.3,605.3,497.7,605.2z"/>
<path class="st0" d="M384.9,626.5c-1.9,0-4.7-0.8-6-2.3c-0.7-0.8-0.9-2.1-0.4-3.1c0.1-0.2,0.3-0.6,0.6-1.2c1-2,0.4-5.3,0.1-7.2
	c-0.6-3.3-3.5-6.2-4.7-7.5c-0.8-0.8-1.4-1.4-1.2-2.5c0.1-0.6,0.6-2,2.9-2c2.6,0,7.9,1.6,10.6,4.4c0.2,0.2,5.8,6,4.5,13.7
	c-0.7,4.2-2.4,6.7-4.9,7.4C385.9,626.4,385.4,626.5,384.9,626.5z"/>
<path class="st0" d="M375.2,603c0.2-1,7.1,0.3,10.2,3.5c0.2,0.2,5.1,5.4,3.9,12c-0.2,1.2-0.9,5.1-3.5,5.9c-1.5,0.4-4.5-0.4-5.5-1.5
	c-0.2-0.3-0.3-0.6-0.1-1c0.1-0.2,0.3-0.6,0.6-1.1c1.3-2.5,0.7-6,0.2-8.5C380.2,607.2,375.1,603.3,375.2,603z"/>
<path class="st6" d="M436.5,603.7c-0.8,0-2.4-0.3-3.1-0.4c-2-0.4-3.4-0.6-3.6-2.2c-0.2-1.1-0.4-1.6-0.9-2.8c-0.3-0.6-0.6-1.3-1-2.3
	c-0.8-1.9-2.3-3.4-4.6-4.4c-1-0.5-4.7-1.1-5.6-1.1h-0.1l-0.7-0.1l-0.2-0.1c-1.5-0.6-5.9-2.2-8.1-2.2c-1.1,0-2-0.7-2.2-1.8
	c-0.2-1,0.2-2.1,1.2-2.5c1.7-0.9,6-4.5,6.5-7.2c0.2-1.2,1.2-2,2.3-2c0.3,0,0.6,0.1,0.9,0.2c1.9,0.9,3.5,1.9,5.1,2.9
	c2.6,1.6,5.2,3.3,9.9,5.1c5.9,2.2,14.8,3.2,16.6,3.3c0.8,0.1,1.5,0.4,2.2,0.8c0.8,0.6,1.9,1.7,3.1,3.5c0.4,0.7,0.5,1.5,0.1,2.2
	c-0.4,0.7-1.1,1.2-1.9,1.2c-3.2,0.1-7.3,1-9.6,3c-2.8,2.5-3.5,3.6-4,5.2C438.5,602.5,438.1,603.7,436.5,603.7z"/>
<path class="st6" d="M408.5,586.2c-0.3,0-0.4-0.5-0.2-0.6c2.1-1,6.9-5,7.6-8.6c0-0.2,0.3-0.5,0.5-0.4c4.7,2.2,7.2,5.1,15.2,8.1
	c5.5,2.1,13.5,3.1,17.1,3.4c0.4,0,0.8,0.2,1.1,0.4c0.6,0.5,1.6,1.4,2.6,3c0.1,0.2,0,0.4-0.2,0.4c-1.6,0.1-7.5,0.5-10.9,3.4
	c-3,2.6-3.9,4-4.6,6.2c-0.1,0.3-5-0.6-5-0.8c-0.3-2-0.9-2.7-2-5.5c-1.2-3.1-3.8-4.7-5.6-5.5c-1.3-0.6-5.3-1.3-6.5-1.3
	c-0.1,0-0.2,0-0.3,0C417.3,588.5,411.6,586.2,408.5,586.2z"/>
<path class="st6" d="M396.6,446.4c-5.6,0-11.8-5.6-12.4-6.2c-3.6-4.3-4.2-9.8-3.7-12.3c0.1-0.4,0.3-1.7,1.4-2.3
	c0.3-0.2,0.7-0.3,1.1-0.3c1.1,0,2.5,0.8,5.9,3c-1.4-2.8-2.9-6.6-2.7-10.9c0.1-3.4,2.5-7.6,4.7-8.3c0.2-0.1,0.4-0.1,0.7-0.1
	c1.3,0,2.3,1,3.6,2.3c0.9,0.9,2.6,2.7,3.5,2.7c0.6-0.1,1.7-1.4,2.3-2c0.6-0.7,1.1-1.2,1.7-1.5l0.4-0.2l0.6,0c2.5,0,7.6,6.3,7.7,6.3
	c1.9,2.7,6,11.3,4.9,15.1c-0.3,1-0.9,1.8-1.8,2.1c-1.3,0.5-7.2,4.5-8.5,6c-0.5,0.5-0.9,1-1.3,1.5c-2.6,3.1-3.9,4.5-6.7,5
	C397.4,446.4,397,446.4,396.6,446.4z M393.5,430.8L393.5,430.8z"/>
<path class="st6" d="M397.5,444.3c-4.8,0.7-11.2-4.7-11.8-5.5c-3.9-4.6-3.8-11.1-2.9-11.6c0.9-0.5,9.8,6.3,10.6,5.5
	c0.8-0.7-5.6-7-5.3-15.3c0.1-3.1,2.3-6.1,3.3-6.4c1.2-0.3,4.7,5.7,7.7,4.9c1.8-0.5,3.6-3.3,4.3-3.7c0.7-0.4,5.1,4,6.1,5.5
	c2.5,3.4,6.4,13.2,4,14.3c-1.5,0.6-7.7,4.7-9.3,6.5C400.7,442.7,400,444,397.5,444.3z"/>
<path class="st7" d="M344.6,424.1c-3.6,0-7.3-7.9-8.1-13.4c-0.2-1-0.3-3,0.6-4.2c0.5-0.6,1.1-0.9,1.8-1c0.1,0,0.2,0,0.3,0
	c2.8,0,3.5,2.8,4.2,5.2c0.2,0.6,0.4,1.3,0.6,1.9c0.4,1.2,1,2.5,1.6,3.7c1.4,3,2.9,6.2,0.2,7.4C345.4,424,345,424.1,344.6,424.1
	L344.6,424.1z"/>
<path class="st7" d="M338.4,410.4c1,6.3,4.9,12.4,6.5,11.6c1.3-0.7-1.6-5.2-2.8-8.8c-1-3.1-1.3-5.9-3-5.7
	C338,407.6,338.3,410.1,338.4,410.4z"/>
<path class="st6" d="M451.1,106.7c-1.2,0-2.2-0.1-3-0.3c-2.5-0.6-4.1-3-3.6-5.5c1.1-5.5,2.3-9.2,3.7-10.8c0.7-0.8,1.7-1.3,2.8-1.3
	c0.9,0,1.8,0.3,2.4,1c1.5,1.4,3.5,4.6,5.8,9.6c0.7,1.5,0.7,3.1-0.1,4.6c-0.8,1.4-2.2,2.4-3.9,2.6
	C453.7,106.6,452.3,106.7,451.1,106.7z"/>
<path class="st6" d="M449.8,91.3c0.6-0.7,1.7-0.8,2.3-0.2c1.7,1.6,3.9,5.8,5.4,9c0.9,1.9-0.3,4.1-2.4,4.3c-2.2,0.3-4.8,0.4-6.5,0
	c-1.5-0.3-2.4-1.7-2.1-3.2C447.1,98.1,448.3,93.1,449.8,91.3z"/>
<path class="st6" d="M483.9,496.4c-0.2,0-0.3,0-0.5,0c-1.3-0.2-1.8-1.2-2.4-2.2c-0.4-0.7-0.9-1.7-1.6-2.2c-0.9-0.7-2.4-0.7-3.4-0.8
	c-1.1-0.1-2.6-0.1-3-1.7c-0.6-2.2,1.9-4.8,4.7-5.6c0.7-0.2,1.5-0.3,2.2-0.3c2.3,0,4.5,1.1,6.1,3.1c2.4,2.9,2.9,5.7,1.5,7.7
	C486.4,495.7,485.2,496.4,483.9,496.4L483.9,496.4z"/>
<path class="st6" d="M474.9,489c0.1,0.5,3.6-0.2,5.7,1.4c1.8,1.3,2.4,3.9,3.1,4c0.9,0.1,1.7-0.7,2.2-1.3c1.1-1.5-0.4-4-1.4-5.3
	c-1.5-1.9-3.8-2.8-6.2-2.1C476.2,486.4,474.6,488.2,474.9,489z"/>
<path class="st6" d="M530.3,501.1c-0.9,0-1.8-0.2-2.4-0.3l-0.3-0.1c-1.6-0.3-3.9-1.5-6.3-3.3c-1.3-0.9-1.7-2.9-1.1-4.5
	c0.9-2.2,3.5-2.7,4.2-2.7l0.2,0c3.3,0,5.5,2.7,7.1,4.7c1.1,1.3,2.4,2.9,1.5,4.7C533,500.1,532.2,501.1,530.3,501.1z"/>
<path class="st6" d="M522.1,493.7c0.5-1.2,2.3-1.5,2.4-1.5c2.5-0.1,4.3,2.1,5.7,3.9c0.8,1,1.5,1.9,1.3,2.5c-0.5,0.9-2.7,0.3-3.5,0.1
	c-1.1-0.2-3.2-1.2-5.5-2.9C522,495.5,521.8,494.5,522.1,493.7z"/>
<path class="st6" d="M570.9,490.3c-4.6-0.1-7.3-1.2-8-3.5c-0.3-0.9-0.2-1.8,0.2-2.7c1-2.3,3.3-3.3,5-3.5c0.2,0,0.5,0,0.7,0
	c2.3,0,4,1.4,5.7,2.7c1.5,1.2,3.3,2.7,2.7,4.7c-0.7,2.3-3.8,2.3-5.5,2.3L570.9,490.3z"/>
<path class="st6" d="M564.9,484.9c0.6-1.4,2.1-2.2,3.4-2.3c1.8-0.2,3.2,0.9,4.9,2.2c1.1,0.9,2.3,1.8,2,2.6c-0.3,1-2.8,0.9-4.3,0.9
	c-1.5,0-5.5-0.2-6.1-2C564.7,485.7,564.7,485.4,564.9,484.9z"/>
<path class="st6" d="M400.3,519.8c-2,0-3.8-1.2-4.5-3c-0.6-1.5-0.5-3.5,0.9-4.7c0.7-0.6,1.5-0.9,2.5-0.9c1.1,0,2.1,0.4,2.4,0.6
	c1.8,0.8,3.6,2.7,3.1,4.9c-0.4,1.9-2.2,2.8-3.6,3.1C400.8,519.8,400.6,519.8,400.3,519.8z"/>
<path class="st6" d="M398,513.6c0.9-0.8,2.4-0.1,2.7,0c0.9,0.4,2.3,1.5,2,2.7c-0.2,0.9-1.3,1.4-2,1.5c-1.2,0.2-2.7-0.4-3.2-1.7
	C397.3,515.4,397.3,514.2,398,513.6z"/>
<path class="st6" d="M616.6,499.4c-1.1,0-1.8-0.3-2.3-0.6c-0.3-0.2-0.6-0.3-1-0.4c-0.1,0-0.4-0.1-0.8-0.3c-0.7-0.2-1.8-0.6-3-1
	c-0.2-0.1-0.4-0.1-0.6-0.2c-1.2-0.3-2.4-0.7-2.8-2c-0.6-2.2,2-4,3.8-4.6c0.7-0.2,1.5-0.4,2.2-0.4c1.3,0,2.5,0.4,3.4,0.6
	c1.8,0.5,5.9,2.1,6.1,4.8c0.2,2.2-2.1,3.6-4.3,3.9C617.1,499.4,616.9,499.4,616.6,499.4z"/>
<path class="st6" d="M608.1,494.4c-0.2-0.7,1.2-1.8,2.6-2.2c1.6-0.5,3.1-0.1,4.4,0.3c0.6,0.2,4.6,1.6,4.7,3.1
	c0.1,0.9-1.4,1.7-2.6,1.8c-1.5,0.2-1.6-0.4-3.3-0.9c-0.4-0.1-2-0.7-3.8-1.3C609.3,495,608.2,494.7,608.1,494.4z"/>
<path class="st6" d="M437.7,521.6c-2.2,0-4.1-1.3-5.1-2.7c-0.9-1.2-0.8-2.2-0.6-2.8c0.6-1.9,2.7-2,3.7-2.1c0.2,0,0.4,0,0.6,0
	c2.5,0,6,1.2,6.1,3.8c0.1,1.9-1.8,3.2-3.6,3.6C438.3,521.6,438,521.6,437.7,521.6z"/>
<path class="st6" d="M433.8,516.8c0.2-0.6,1.3-0.6,2-0.7c2.1-0.1,4.5,0.8,4.5,1.9c0,0.7-1.1,1.4-2,1.6
	C436,520,433.5,517.7,433.8,516.8z"/>
<path class="st8" d="M-43,255.1c-1,0-2.2-0.3-3.9-0.6c-2.9-0.7-7.4-1.7-14.8-2c-3.3-0.2-6.3-0.8-9.5-1.6c-3.9-0.9-7.9-1.8-12.6-1.8
	c-0.7,0-1.4,0-2.1,0.1c-1.7,0.1-3.1,0.2-4.5,0.3c-3.1,0.2-5.5,0.4-7.7,0.4c-4.8,0-8.2-0.8-13-3c-4.1-1.9-6.6-4.2-7.6-6.6
	c-0.2-0.6-0.4-1.1-0.4-1.6c-0.2,0-0.3,0-0.5-0.1c-0.5,3.2-2,9.1-7,9.1c-1.8,0-3.7-0.8-5.8-2.6c-0.2-0.1-0.4-0.1-0.7-0.2
	c-1.5-0.4-4-1.1-6.7-2.4c-4.5-2.2-10-4.3-22.1-7.5c-3.5-0.9-7-1.5-10.3-2.1c-4.7-0.8-9.2-1.6-13.5-3.2c-5.4-2.1-8.1-6.4-8.4-9.6
	c-0.3-3.5,1.9-5.9,4.6-9c1-1.1,2.2-2.4,3.4-3.9c4.2-5.4,6.8-9.6,9.7-14.5c0.7-1.1,1.4-2.3,2.1-3.5c1.3-2.1,3.9-6.2,5.7-9
	c-1.9-0.3-4.2-0.8-6-1.9l-0.5-0.3c-2.4-1.5-6.1-3.8-7.8-9.2c-0.3-0.9-1.7-5.7-0.5-8c0.4-0.7,0.9-1.1,1.6-1.3
	c0.2-0.1,0.4-0.1,0.6-0.1c1.2,0,2.7,0.8,5.9,2.8c-0.8-1.7-1.6-3.6-2.2-5.7c-1.4-5-0.1-8.3,0.9-9.9c1-1.7,2.5-3,3.9-3.3l0.2-0.1
	l0.3,0c1.2,0,1.8,0.7,3,1.9c0.5,0.5,1.1,1.1,1.9,2c0.8,0.8,1.5,1,1.8,1c0.1,0,0.1,0,0.1,0c0.4-0.1,1.2-1,1.7-1.6
	c0.9-1.1,1.8-2.1,3.2-2.1h0.1l0.2,0c1.2,0.2,5.5,2.9,7.8,7.2c2.1,3.9,3.6,8.3,4.4,10.8c1.1-0.4,2.6-0.9,4.5-1.5
	c2.8-0.9,4.1-1.1,9.7-1.6c1.5-0.1,3.5-0.2,5.7-0.2c2.3,0,4.5,0.1,6.1,0.2c4.3,0.4,9,1.3,14.1,5c1.8,1.3,3,2.3,4.1,3.2
	c1.8,1.4,3.5,2.8,7.3,5.4c5,3.3,9.7,5.2,12.8,5.2c0.2,0,0.3,0,0.5,0c5.4-0.4,9.3-5.7,9.3-5.8c2-2.8,2.8-6.6,2.6-11.6l0-0.2
	c-0.1-3.2-0.5-10.7-3.1-13c-1.5-1.3-5-1.9-10.8-2l-1.7,0c-3.5-0.1-7.9-0.1-10.2-0.4c-1,1.1-2.7,1.6-4.9,1.6c-2.2,0-5.1-0.5-8.6-1.5
	l-0.7-0.2c-2.8-0.8-7.6-2.1-12.3-6c-4-3.3-3.7-7.8-2.1-10.9c0.3-0.5,0.5-1,0.8-1.4c-0.8-0.8-1.4-1.9-1.6-3.3
	c-0.1-0.9-0.2-3.9,2.4-6.1c1-0.9,2.2-1.3,3.5-1.3c1.5,0,3,0.6,4.4,1.2l0.2,0.1c0.8,0.3,1.7,0.8,2.6,1.3c-0.5-2.7-1.1-6.1-1-9.2
	c0-0.8,0-1.8,0-2.9c0-4.4,0-10.4,1.4-15.1c1.8-6.1,3.9-11.2,5.8-15.7c1.7-3.9,4.1-7.4,6.1-10.2c0.4-0.6,0.8-1.2,1.2-1.7
	c-0.8,0.4-1.7,0.9-2.4,1.3c-2.8,1.6-4.6,2.5-6,2.5c-0.8,0-1.6-0.3-2-0.9c-1.3-1.5-1.7-4.3,3.6-8.7c1.7-1.4,3.8-1.8,5.3-1.9
	c0.1-1.2,0.3-2.7,0.4-4.3c0.3-3.4,0.7-7.6,1.3-11.9c0.7-4.6,2-19.9,12.9-18.7c6.5,0.7,14.2,8.6,17.8,13.3c0.1-1.7,0-2.9-0.2-3.4
	c-0.3-0.3-1.2-0.9-1.9-1.3c-1.5-1-3.7-2.4-5.9-4.4c-6-5.6-4.3-9.7-3.3-11.2c1.7-2.5,3.3-4.3,6.5-4.6c2-0.2,6.2,0.3,8.5,1.2
	c3.9,1.5,5.7,6.1,7.1,8.7c0.5-1.8,0.5-4.7-1.8-8.4c-0.9-1.5-2.7-3.2-4.5-5c-2.9-2.8-5.8-5.7-7-9c-0.5-1.5-0.4-3,0.4-4.3
	c1.3-2.1,3.2-3,5.2-3.7c4.7-1.5,12.1,2.5,14.1,7.6c1.6,3.9,2.2,5.8,2.8,7.6l0,0c0.3,0.9,1.4,1.1,2,0.4c0.4-0.6,1-1.4,1.6-2.4
	c2.9-4.9,4.5-10.3,3.6-12.3c-0.2-0.5-2.2-3.7-6.1-6.5c-1.3-0.9-2.6-1.8-3.8-2.6c-4-2.7-7.2-4.8-8.3-7.8c-2.6-6.8,0.2-9.9,2.6-11.8
	c1.5-1.2,4.1-1.8,6.7-1.8c3,0,7.3,1,9.6,2.4c5.3,3,9.6,8.3,10.8,10c3.5,4.6,5.3,10.4,4.8,15.6c0,0-1.5,8.7-4.9,17
	c-0.5,1.3-0.7,2.7-1.5,3.9c1.3,1.3,3,3.9,4.9,8.1c1.1,2.4,3.9,6.9,3.9,6.9c0.5-0.1,1.6-0.6,2.2-1.4c0.4-0.5,0.8-1,1.2-1.4
	c2.6-2.7,4.2-6.6,3.4-16.3c-0.3-3.3,0.3-5.6,1.7-7.2c0.7-0.8,2.1-1.8,4.3-1.8C-8.6-5.4-7-5-5.2-4.2c4.2,1.8,6.3,5.8,6.1,12
	c0,0.1,0,0.2,0,0.3c0.1,3.6-2.2,8.2-4.1,11.8c-0.1,0.1-0.1,0.2-0.2,0.4c2.9-2,6.9-5.7,8.7-9.1C9.3,3.9,7.8,0.8,6.3-2.4
	C5.5-4.1,4.7-5.8,4.7-8l0-0.3c0-3.8-0.1-8.6,4.6-10.3c0.6-0.2,1.3-0.3,1.9-0.3c6.1,0,12.5,9,14.5,17.1c3,12.4-4.3,21.6-9,25.9
	l-0.2,0.2C8.9,32-1.1,34.5-11.6,37.2l-1.1,0.3c-8.5,2.1-15.1,4.1-21.3,10.4c-2.8,2.8-4.3,5.9-4.8,7.5c3.7,0.8,6,3.5,7.4,5.8
	c1.3-2.7,3.4-6.4,7.1-9c4-2.9,6.7-4.1,13.1-4.1c0.6,0,1.3,0,2,0c1.3,0,2.8,0.3,4.6,0.7c3,0.6,7,1.3,12.6,1.5c1.5,0,2.8,0,3.8,0
	l2.3,0c2,0,3.5,0,4.7,1.5c1.8,2.3-2.7,16.2-3.8,18.8c-4.7,11.6-8.6,15-13,18.8c-4.3,3.7-8.7,5.4-12.2,6.8c-2.8,1.1-5.1,2-6.4,3.5
	c-0.7,0.8-0.8,2.2-1,4.6c-0.2,2.6-0.3,5.9-1.8,10c-2.2,6.3-3.9,9.4-6,13.2l-0.2,0.3c-3,5.5-6.4,9.7-8.1,11.7
	c1.7,2.7,5.1,9.2,8.3,22.2c1,3.9,1.8,7.1,2.6,10c1.5,5.6,2.7,10,3.5,15.5c1.3,7.9,0.6,17.1,0,22.1c0.8-0.2,1.7-0.4,2.7-0.4
	c1.1,0,2.1,0.2,3.1,0.6c5.1,1.9,8.6,6.9,9.4,10.9c1,5-2.4,9-4.5,10.9c-4.3,4-9.6,5.7-15.1,7.4c-3.1,0.9-6.3,1.4-9.5,1.4
	c-1.1,0-2.1-0.1-2.9-0.1c-0.2,4.1-1.1,11.8-4.5,14.3C-41.1,254.8-41.9,255.1-43,255.1z"/>
<path class="st8" d="M-192.2,219.7c-0.3-3.7,3.3-6.1,7.6-11.6c5.3-6.7,7.9-11.5,12-18.2c2-3.3,7.5-11.7,7.5-11.7s-5.4,0-8.4-1.9
	c-2.4-1.5-5.9-3.4-7.6-8.5c-1-2.9-1.3-6.5-0.2-6.8c1.3-0.3,10,6,10.6,5.5c0.4-0.3-3.3-5.3-4.8-10.9c-1.8-6.5,1.5-10.3,3.3-10.7
	c0.5-0.1,1.1,0.9,3.5,3.3c1.9,1.9,3.6,1.6,4,1.4c1.8-0.6,3.3-3.7,4.3-3.6c0.5,0.1,4.2,2.3,6.3,6.2c2.7,5.1,4.4,10.8,4.7,12.1
	c0,0.2,0.2,0.2,0.3,0.2c0.8-0.2,3-1.1,6.1-2.1c2.7-0.9,3.8-1,9.2-1.5c3-0.3,8.4-0.2,11.4,0c3.8,0.3,8.2,1,13.2,4.6
	c4.5,3.3,5,4.3,11.5,8.7c5.3,3.5,10.7,5.8,14.5,5.5c5.9-0.4,10.2-5.8,10.8-6.6c2.9-4.2,3.1-9.3,3-12.8c-0.2-3.9-0.4-11.8-3.8-14.7
	c-2-1.7-6-2.4-12-2.5c-3.4-0.1-9.4-0.1-11.8-0.4c-0.5-0.1-1.1,0.1-1.4,0.5c-0.8,0.9-3.3,2.1-11.6-0.3c-2.6-0.7-7.5-1.9-12.2-5.9
	c-3.1-2.6-2.9-6-1.6-8.5c0.5-1,1.1-1.9,1.6-2.3c0.2-0.1,0.2-0.4,0-0.5c-0.7-0.4-2-1.5-2.2-3.1c0-0.4-0.2-2.7,1.7-4.4
	c1.8-1.6,3.8-0.7,6,0.3c1.6,0.7,3.8,2,5.2,2.8c0.4,0.2,0.9-0.1,0.8-0.6c-0.5-2.4-1.8-7.6-1.6-11.9c0.1-3.7-0.3-11.9,1.3-17.5
	c1.7-5.8,3.7-10.6,5.8-15.4c3.2-7.6,9.9-14,8.7-15.5c-1.5-1.7-10.8,5.8-12,4.4c-0.7-0.9-0.4-2.8,3.4-6c1.6-1.3,4-1.5,5.1-1.6
	c0.4,0,0.7-0.6,0.8-1c0.5-3.9,0.8-10.1,1.8-16.8c0.8-5.2,4.3-15.4,10.1-16.3C-80,22.1-70.6,34-68,38.3c0.2,0.3,0.8,0.2,0.8-0.2
	c0.3-2.1,0.7-6.7,0-8.5c-0.5-1.3-4.2-2.7-8.2-6.4c-4-3.7-4.2-6.7-3-8.6c1.9-2.8,5.9-4.2,12-1.8c5.5,2.2,7.5,9.9,8.5,9.4
	c0.8-0.3,4.5-5.3-0.2-12.9c-2.6-4.1-9.6-8.8-11.3-13.6c-1.1-3.2,2.7-4.9,4.8-5.2C-61.8-9.9-56.3-8-53.5-3c3.5,6.3,2.8,9.6,4.9,10.4
	c1.6,0.6,3.7-2.4,5.2-4.9c2.5-4.2,5.1-10.8,3.7-14.1c-0.4-1-2.6-4.4-6.8-7.4c-5.5-3.9-10.3-6.3-11.5-9.5c-2.1-5.5,0.2-7.2,2.5-9.1
	c3.1-2.5,9.8-1.2,12.9,0.6c4.7,2.7,8.8,7.6,10.4,9.7c3,4,4.7,8.7,4.2,13.6c-0.3,2.7-0.6,8-4,16.5c-0.7,1.6-2.1,4.1-2.7,5
	c-0.1,0.2-0.2,0.5,0,0.6c1.2,0.9,3.2,3.2,5.1,8.1c0.7,1.8,2.8,4.7,4,6.8c2.8,4.8,5.5-0.2,7.6-2.3c3.5-3.6,4.7-8.5,3.9-17.8
	C-14.8-4.8-9.6-3.9-6-2.4C-0.4-0.1-1.1,7-1,8.1c0.1,5.4-6.7,14.8-5.6,15.6C-5.2,24.8,4,18,7.1,12.1C13.5,0.1,6.8-2.4,6.7-8
	c0-3.7-0.2-7.4,3.3-8.7c4.7-1.7,11.8,6.8,13.9,15.4C27.2,12.5,16.2,22,15.2,23c-7.6,7.5-17.6,9.8-28.5,12.6
	c-8.4,2.1-15.5,4.1-22.2,11C-40,51-42,57.1-40.6,57.2c6.6,0.3,8.6,8,9.2,8.1c0.7,0.1,2.4-7.3,8.2-11.5c3.9-2.8,6.2-3.9,13.9-3.7
	c3.1,0.1,8.2,1.9,17.2,2.2c7.3,0.2,8.4-0.3,9.3,0.8c0.5,0.6-1.4,10.2-4.1,16.8C8.7,81,5.2,84.1,0.7,88c-7.6,6.6-15.3,6.3-18.8,10.5
	c-2.4,2.8-0.4,7.6-3.1,15.2c-2.2,6.3-3.9,9.3-6.1,13.3c-4.1,7.4-8.9,12.5-8.9,12.5s4.7,5.6,8.9,22.8c2.8,11.4,4.7,17.1,6.1,25.4
	c1.8,11.1-0.4,25.2-0.4,25.2s3.6-2.8,7.6-1.3c4.2,1.6,7.4,5.8,8.2,9.4c0.8,3.9-1.9,7.3-3.9,9.1c-4.1,3.8-9.5,5.5-14.3,6.9
	c-7.9,2.3-13.7,0.8-13.7,0.8s-0.1,12.3-3.8,15c-2,1.5-5.7-1.6-20-2.2c-7.5-0.3-14.4-3.9-24.4-3.3c-12.7,0.7-16.2,1.6-24.3-2.2
	c-8.7-4.1-6.8-8.1-6.8-8.1s-2.8-0.6-4.4-0.4c0,0-0.8,14.7-10,6.8c-0.3-0.3-3.8-0.9-7.6-2.7c-5.1-2.4-11-4.6-22.5-7.6
	c-8.6-2.3-16.5-2.6-23.7-5.3C-189.9,225.8-192,222.1-192.2,219.7z"/>
</svg>
