<?xml version="1.0" encoding="utf-8"?>
<!-- Generator: Adobe Illustrator 26.5.0, SVG Export Plug-In . SVG Version: 6.00 Build 0)  -->
<svg version="1.1" id="Layer_1" xmlns="http://www.w3.org/2000/svg" xmlns:xlink="http://www.w3.org/1999/xlink" x="0px" y="0px"
	 viewBox="0 0 566.93 566.93" style="enable-background:new 0 0 566.93 566.93;" xml:space="preserve">
<style type="text/css">
	.st0{fill:none;stroke:#5ABA47;stroke-miterlimit:10;}
</style>
<path class="st0" d="M268.64,262.58c-0.71,0-1.41-0.01-2.12-0.03c-6.78-0.21-14.87-2.46-15.21-2.56l-2.57-0.72l1.43-2.25
	c0-0.01,2.01-3.53,3.07-14.75c0.42-4.44-0.22-8.41-1.49-16.33c-0.66-4.09-1.48-9.17-2.4-15.88c-0.39-2.82-0.71-5.22-0.99-7.29
	c-1.48-10.95-1.67-12.35-3.33-16.69c-5.01-13.08-11.61-20.33-11.68-20.41l-1.14-1.24l1.04-1.33c0.26-0.33,6.45-8.15,20.09-17.13
	c11.04-7.26,18.52-11.64,24.12-12.55c2-0.34,4.01-0.5,6.04-0.5c6.06,0,14.72,1.45,21.61,8.34c13.16,13.16,7.96,35.71,5.11,44.79
	c-1.64,5.22-3.59,9.6-5.49,13.84c-2.77,6.2-5.39,12.06-6.33,19.38c-0.61,4.73-0.55,8.42-0.5,11.68c0.03,1.59,0.05,3.09-0.02,4.49
	c-0.17,3.67-1.54,11.88-3.69,15.19C287.23,261.35,276.28,262.58,268.64,262.58z"/>
<path class="st0" d="M234.79,164.32c0,0,6.09-7.79,19.62-16.69c10.07-6.62,17.97-11.38,23.35-12.25c1.18-0.19,15.71-2.94,25.93,7.28
	c13.73,13.74,5.74,39.23,4.62,42.79c-4.04,12.89-10.27,20.96-11.9,33.56c-0.94,7.25-0.35,12.25-0.53,16.34
	c-0.17,3.65-1.56,11.41-3.37,14.21c-6.22,9.6-16.07,11.32-25.93,11.01c-6.62-0.21-14.74-2.49-14.74-2.49s2.23-3.52,3.37-15.63
	c0.67-7.05-1.15-12.7-3.91-32.67c-2.45-17.74-2.37-19.01-4.44-24.42C241.64,171.72,234.79,164.32,234.79,164.32z"/>
<path class="st0" d="M192.25,149.08c-6.62,0-12.81-2.47-17.89-7.14c-2.74-2.52-6.69-9.65-7.88-13.51c-0.47-1.52-0.79-3.21-1.13-5
	c-0.59-3.12-1.26-6.65-2.93-10.8c-4.79-11.93-8.57-19.34-15.53-30.53c-0.14-0.23-0.36-0.56-0.64-0.98
	c-11.39-17.04-13.78-31.19-7.09-42.05c6.02-9.77,18.17-12.5,24.4-12.57c0.66-0.01,1.33-0.03,2.02-0.04
	c0.99-0.03,2.01-0.05,3.07-0.05c4.96,0,11.14,0.58,19.45,4.84c12.06,6.2,21.01,15.54,21.38,15.93l1.1,1.16l-0.91,1.32
	c0,0.01-2.39,3.91-3.92,17.45c-0.53,4.67-0.49,12.82,2.71,25.06c1.55,5.95,1.44,14.34,1.34,21.75c-0.08,6.2-0.16,12.06,0.76,14.9
	c1.56,4.84,3.7,7.85,3.72,7.88l0.83,1.16l-0.83,1.16c-0.13,0.18-3.33,4.56-9.94,7.43C200.33,148.2,196.26,149.08,192.25,149.08
	C192.25,149.08,192.25,149.08,192.25,149.08z"/>
<path class="st0" d="M208.04,48.56c0,0-8.95-9.42-20.85-15.53c-10.72-5.51-17.61-4.6-23.62-4.53c-6.38,0.07-17.31,2.84-22.73,11.63
	c-10.19,16.53,5.75,37.76,7.72,40.93c7.15,11.47,10.95,19.05,15.69,30.84c2.72,6.78,2.9,12.05,4.11,15.95
	c1.08,3.49,4.88,10.38,7.33,12.64c8.42,7.73,18.81,8.08,27.86,4.16c6.19-2.68,9.12-6.76,9.12-6.76s-2.31-3.2-4-8.43
	c-2.17-6.74,0.66-26.06-2.13-36.76c-2.97-11.39-3.41-20.03-2.76-25.79C205.43,52.38,208.04,48.56,208.04,48.56z"/>
<path class="st0" d="M82.08,402.73c-3.98,0-7.09-4.38-7.09-9.96c0-5.59,3.11-9.96,7.09-9.96c3.98,0,7.09,4.38,7.09,9.96
	C89.17,398.35,86.05,402.73,82.08,402.73z"/>
<ellipse class="st0" cx="82.08" cy="392.77" rx="5.11" ry="7.98"/>
<path class="st0" d="M13.51,404.86c-3.6,0-6.89-3.6-7.83-8.56c-0.47-2.46-0.28-4.92,0.53-6.93c0.91-2.28,2.59-3.8,4.58-4.18
	c0.32-0.06,0.66-0.09,0.99-0.09c3.6,0,6.89,3.6,7.83,8.56c0.47,2.46,0.28,4.92-0.53,6.93c-0.91,2.28-2.59,3.8-4.58,4.18
	C14.17,404.83,13.84,404.86,13.51,404.86z"/>
<ellipse transform="matrix(0.9825 -0.1861 0.1861 0.9825 -73.29 9.2539)" class="st0" cx="12.64" cy="394.97" rx="5.11" ry="7.98"/>
<path class="st0" d="M164.4,457.82c-1.39,0-2.74-0.39-4.38-1.28c-1.97-1.06-3.25-2.88-4.05-5.71c-0.36-1.29-0.59-4.07,1.15-5.32
	c1.79-1.29,3.47-1.54,7.3-1.6c0.35,0,0.68-0.01,0.98-0.01c2.95,0,4.5,0.29,5.85,2.04c1.34,1.72,0.56,5.32,0.55,5.35
	c-0.32,1.46-1.93,5.43-5.42,6.27C165.68,457.74,165.03,457.82,164.4,457.82z"/>
<path class="st0" d="M157.88,450.29c-0.24-0.86-0.34-2.64,0.4-3.17c1.23-0.88,2.28-1.16,6.17-1.22c3.53-0.05,4.35,0.13,5.24,1.27
	c0.47,0.6,0.44,2.52,0.18,3.71c-0.22,1-1.49,4.18-3.95,4.77c-1.75,0.42-3.08,0.16-4.95-0.84
	C159.46,453.98,158.52,452.58,157.88,450.29z"/>
<path class="st0" d="M214.76,478.45c-0.31,0-0.64-0.02-0.99-0.05c-1.47-0.15-2.75-0.77-3.69-1.28c-0.91-0.5-2.3-1.26-3.59-2.99
	c-1.53-2.06,0.17-5.92,1.03-6.89c0.89-0.99,2.38-2.66,4.66-2.66c2.64,0.02,4.02,2.04,4.93,3.38l0.17,0.25
	c1.05,1.53,2.74,5.13,1.63,7.86C218.54,476.96,217.52,478.45,214.76,478.45L214.76,478.45z"/>
<path class="st0" d="M209,468.56c-0.61,0.68-1.59,3.47-0.92,4.38c1.07,1.43,2.16,2,2.95,2.43c0.75,0.41,1.8,0.93,2.95,1.05
	c1.6,0.17,2.69-0.13,3.09-1.1c0.69-1.69-0.37-4.45-1.42-5.99c-0.87-1.26-1.76-2.75-3.45-2.76C210.8,466.56,209.79,467.69,209,468.56
	z"/>
<path class="st0" d="M122.35,464.62c-0.25,0-0.48-0.02-0.68-0.04c-1.19-0.16-2.28-0.84-3.08-1.91c-0.97-1.3-1.39-3.06-1.12-4.7
	c0.2-1.25,0.68-3.14,2.51-5.09c1.28-1.36,2.6-2.76,4.46-2.76c0.18,0,0.37,0.01,0.56,0.04c3.79,0.56,6.67,5.14,6.67,7.21
	c0,2.45-2.21,4.59-4.28,5.78C125.81,464.05,123.88,464.62,122.35,464.62L122.35,464.62z"/>
<path class="st0" d="M121.43,454.24c-1.47,1.56-1.83,3.02-2,4.04c-0.33,2.05,0.9,4.11,2.51,4.33c0.96,0.13,2.81-0.24,4.46-1.19
	c1.84-1.05,3.29-2.69,3.29-4.05c0-1.21-2.22-4.84-4.98-5.25C123.7,451.97,122.92,452.66,121.43,454.24z"/>
<path class="st0" d="M-1.31,440.23c-0.52,0-1.01-0.07-1.48-0.21c-2.21-0.66-3.59-2.53-3.8-5.12c-0.12-1.45-0.05-3.51,0.95-5.08
	c1.02-1.61,3.35-2.34,5.1-2.34c2.2,0,5.79,1.67,6.53,4.7c0.57,2.3-0.23,4.52-2.19,6.1C3.55,438.47,1.29,440.23-1.31,440.23
	C-1.31,440.23-1.31,440.23-1.31,440.23z"/>
<path class="st0" d="M-3.96,430.88c-0.56,0.88-0.77,2.26-0.64,3.86c0.14,1.8,0.99,2.95,2.39,3.38c1.76,0.53,3.94-0.72,4.77-1.39
	c0.85-0.68,2.01-2.02,1.51-4.08c-0.48-1.96-3.11-3.19-4.6-3.19C-1.94,429.46-3.45,430.08-3.96,430.88z"/>
<path class="st0" d="M35.15,441.54c-5.6,0-8.03-6.55-8.29-7.29c-0.35-1.01-0.93-2.7-0.06-4.36c1.41-2.71,5.13-2.71,7.84-2.71
	c4.94,0,7.57,1.48,8.52,4.81c0.51,1.79,0.04,3.91-1.3,5.81c-1.53,2.17-3.87,3.57-6.25,3.72C35.46,441.53,35.3,441.54,35.15,441.54z"
	/>
<path class="st0" d="M28.74,433.59c-0.31-0.89-0.64-1.9-0.18-2.8c0.83-1.59,3.59-1.64,6.08-1.64c5.24,0,6.17,1.83,6.61,3.37
	c0.76,2.67-2.12,6.77-5.77,7.01C30.99,439.84,28.9,434.06,28.74,433.59z"/>
<path class="st0" d="M70.04,454.79c-3.37,0-6.82-0.32-8.7-4.07c-0.97-1.95-0.89-3.65-0.65-4.73c0.53-2.39,2.1-4.04,4.3-4.53
	c0.34-0.07,0.69-0.11,1.04-0.11c2.36,0,4.31,1.63,5.53,3c1.75,1.96,3.39,4.99,3.11,7.36C74.54,452.85,73.76,454.79,70.04,454.79
	L70.04,454.79z"/>
<path class="st0" d="M62.63,446.41c0.35-1.6,1.33-2.69,2.8-3.02c3.45-0.77,7.59,5.37,7.28,8.08c-0.13,1.14-1.42,1.33-2.66,1.33
	c-3.49,0-5.63-0.39-6.93-2.97C62.91,449.41,62.26,448.07,62.63,446.41z"/>
<path class="st0" d="M151.15,505.29c-1.65,0-3.13-0.62-4.06-1.7c-0.52-0.6-0.68-1.4-0.46-2.38c0.35-1.58,1.58-3.57,3.57-4.47
	c0.99-0.45,2.04-0.69,3.04-0.69c1.88,0,3.39,0.85,4.04,2.27c0.95,2.1-0.34,4.66-3.15,6.23
	C153.27,505.03,152.21,505.29,151.15,505.29L151.15,505.29z"/>
<path class="st0" d="M155.47,499.14c-0.54-1.2-2.54-1.46-4.46-0.6c-1.92,0.87-2.76,3.36-2.43,3.74c1.07,1.24,3.27,1.26,4.57,0.53
	C154.86,501.86,156.01,500.34,155.47,499.14z"/>
<path class="st0" d="M115.29,522.64c-2.31,0-6.56-1.45-6.81-4.35c-0.09-1.02,0.22-1.97,0.89-2.74c1.06-1.21,3.01-1.89,5.78-2.01
	c0.19-0.01,0.37-0.01,0.56-0.01c3.41,0,7.09,1.32,7.09,4.21c0,2.74-4.56,4.38-6.31,4.78C116.12,522.59,115.72,522.64,115.29,522.64z
	"/>
<path class="st0" d="M120.81,517.73c0-1.4-2.88-2.33-5.57-2.21c-2.7,0.12-4.94,0.84-4.78,2.6c0.13,1.46,3.73,2.88,5.59,2.46
	C118.57,520,120.81,518.53,120.81,517.73z"/>
<path class="st0" d="M95.45,497.73c-1.66,0-3.08-0.65-4.36-1.35c-3.03-1.65-3.35-3.48-3.1-4.72c0.31-1.47,2.11-2.59,3.65-3
	c1.29-0.35,2.52-0.52,3.65-0.52c1.63,0,3.08,0.36,4.32,1.08c2.28,1.32,2.8,3.66,2.14,5.19c-0.69,1.59-2.41,2.37-3.83,2.87
	C97.05,497.58,96.25,497.73,95.45,497.73L95.45,497.73z"/>
<path class="st0" d="M89.93,492.07c-0.23,1.11,1.11,2.03,2.1,2.57c1.92,1.05,3.29,1.45,5.21,0.77c0.86-0.3,2.27-0.86,2.67-1.79
	c0.24-0.56,0.14-1.85-1.31-2.69c-1.31-0.76-3.34-1.19-6.46-0.36C90.91,490.91,90.01,491.7,89.93,492.07z"/>
<path class="st0" d="M0.61,520.19c-0.96,0-1.87-0.13-2.72-0.38c-1.68-0.5-3.2-1.51-4.29-2.84c-1.21-1.48-1.66-3.13-1.25-4.53
	c0.24-0.81,1.19-2.71,4.71-2.71c1.18,0,2.52,0.21,3.86,0.61c4.63,1.38,7.03,3.84,6.26,6.42C6.5,519.12,3.29,520.19,0.61,520.19z"/>
<path class="st0" d="M5.29,516.2c-0.45,1.52-4.05,2.53-6.84,1.71c-2.78-0.83-4.65-3.38-4.2-4.9c0.45-1.52,3.32-1.59,6.11-0.76
	C3.15,513.07,5.75,514.68,5.29,516.2z"/>
<path class="st0" d="M21.62,473.5c-4.26,0-7.47-3.01-7.47-4.96c0-2.59,2.84-4.27,7.23-4.27c4.19,0,7.23,1.9,7.23,4.53
	C28.62,470.67,25.83,473.5,21.62,473.5z"/>
<path class="st0" d="M26.63,468.8c0,0.63-1.75,2.72-5.02,2.72c-3.4,0-5.48-2.34-5.48-2.97c0-1.4,2.35-2.29,5.25-2.29
	S26.63,467.39,26.63,468.8z"/>
<path class="st0" d="M54.88,531.22c-2.03,0-6.8-1.63-6.8-4.79c0-2.6,2.87-4.56,6.68-4.56c4.3,0,6.97,1.59,6.97,4.14
	C61.72,528.69,58.4,531.22,54.88,531.22z"/>
<path class="st0" d="M59.74,526.01c0,1.45-2.39,3.23-4.86,3.23c-1.66,0-4.82-1.35-4.82-2.81s2.22-2.57,4.69-2.57
	C57.23,523.86,59.74,524.56,59.74,526.01z"/>
<path class="st0" d="M46.98,325.13c-1.61,0-3.75-0.58-4.96-2.2c-0.99-1.33-0.8-2.61-0.69-3.38c0.08-0.53,0.07-0.6,0-0.72
	c-0.2-0.36-0.88-0.56-1.98-0.83c-1.6-0.4-3.79-0.95-5.33-3.07c-1.18-1.63-1.45-3.06-0.8-4.25c0.62-1.13,1.97-1.75,3.81-1.75
	c1.44,0,3.48,0.41,5.27,1.52c0.19-1.02,0.6-1.98,1.37-2.75c0.66-0.66,1.81-1.36,3.05-1.36c0.52,0,1,0.12,1.43,0.35
	c1.39,0.76,1.71,2.24,1.67,3.89c0.11-0.1,0.22-0.2,0.33-0.3c0.69-0.6,4.26-3.62,7.34-3.62c0.87,0,1.64,0.23,2.29,0.67
	c1.96,1.35,2.55,4.68,1.2,6.73c-1.03,1.55-2.6,1.72-3.87,1.85c-1.02,0.11-2.08,0.22-3.36,0.92c-0.77,0.42-2.06,1.12-2.39,2.18
	c-0.13,0.41-0.07,0.72,0.04,1.28c0.16,0.74,0.42,1.99-0.48,3.18C50.13,324.52,48.69,325.13,46.98,325.13z"/>
<path class="st0" d="M43.61,321.74c-0.97-1.3,0.28-2.36-0.53-3.86c-1.3-2.41-5.31-1.16-7.46-4.13c-0.23-0.32-1.04-1.44-0.67-2.13
	c0.63-1.15,4.47-0.99,6.93,0.93c2.4,1.88,2.92,5.02,3.2,4.93c0.4-0.13-2.25-6.15,0-8.39c0.56-0.56,1.53-0.99,2.13-0.67
	c1.66,0.9-0.57,7.08,0.4,7.46c0.58,0.22,1.44-1.99,3.86-4.13c1.79-1.58,5.44-4,7.19-2.8c1.07,0.73,1.45,2.81,0.67,4
	c-1.03,1.55-3.25,0.35-6.53,2.13c-0.98,0.54-2.76,1.5-3.33,3.33c-0.57,1.84,0.59,2.9-0.13,3.86
	C48.35,323.58,44.86,323.42,43.61,321.74z"/>
<path class="st0" d="M36.71,505.12c-2.94,0-10.35-7.96-10.42-8.04c-1.19-1.32-1.73-2.12-1.63-3.12c0.21-1.99,1.55-3,3.98-3
	c0.72,0,1.61,0.07,2.74,0.22c4.39,0.59,7.89,5.04,8.28,8.68c0.04,0.33-0.09,3.7-1.58,4.82C37.69,504.96,37.22,505.12,36.71,505.12z"
	/>
<path class="st0" d="M26.64,494.16c0.1-0.99,0.49-1.55,4.48-1.02c3.48,0.46,6.27,4.15,6.57,6.93c0.05,0.44-0.3,2.64-0.8,3.02
	C35.85,503.87,26.54,495.09,26.64,494.16z"/>
<path class="st0" d="M389.71,540.23c-8.83,0-16.71-2.3-21.6-6.3c-0.11-0.09-11.27-9.96-10.31-25.28c0.54-8.52,5.4-18.77,14.81-21.16
	c1.74-0.44,3.7-0.67,5.8-0.67c4.66,0,9.19,1.08,11.88,1.87c0.28-2.13,0.99-5.24,2.75-8.27c1.55-2.67,3.41-4.81,4.74-6.17
	c-1.29-1.1-3.21-2.8-5.5-5.11c-1.82-1.83-3.28-3.34-4.24-4.35c-1.54,1.3-3.99,3.35-5.75,4.7c-4.91,3.77-12.82,6.11-20.63,6.11
	c-5.81,0-11.21-1.26-15.62-3.63c-9.63-5.2-13.67-14.06-15.6-18.33c-2.36-5.2-2.74-8.71-3.14-12.43c-0.26-2.45-0.53-4.99-1.41-8.3
	c-1.81-6.83-4.35-9.97-8.55-15.16c-2.48-3.07-5.57-6.89-9.29-12.48c-10.67-16.05-15.9-26.53-14.89-39.26
	c0.91-11.5,6.51-26.48,19.27-30.84c6.86-2.34,13.72-3.53,20.4-3.53c27.66,0,45.01,19.71,49.57,25.58c6.03-4,27.65-17.41,47.8-18.07
	c0.81-0.03,1.63-0.04,2.43-0.04c17.99,0,34.16,6.31,38.84,8.31c3.49-3.7,15.97-16.39,33.69-28.18c8.02-5.34,22.05-11.57,35.23-11.57
	c2.75,0,5.39,0.27,7.84,0.8c19.64,4.26,26.95,29.14,25.87,45.45c-0.33,4.97-1.98,9.99-5.26,19.99c-1.6,4.87-3.59,10.92-6.03,18.79
	c-0.92,2.96-1.73,5.57-2.46,7.9c-4.84,15.52-5.58,17.91-6.14,23.53c-0.32,3.25-0.51,5.95-0.67,8.33
	c-0.48,6.98-0.77,11.19-3.84,16.93c-4.82,9-13.03,14.66-21.95,15.16c-1.4,0.08-2.78,0.12-4.12,0.12c-13,0-20.33-3.64-23.48-5.76
	c-1.49,2.06-4.28,5.45-8.23,8.23c-2.66,1.87-5.35,3.65-7.31,4.91c1.46,0.97,3.1,2.4,4.26,4.4c1.41,2.43,2.11,5.18,2.44,6.99
	c2.13-0.21,5.74-0.54,9.25-0.71c0.24-0.01,0.48-0.02,0.73-0.02c7.67,0,17.36,5.74,21.59,12.8c6.92,11.56,4.52,27.32-5.47,35.89
	c-4.62,3.96-11.29,6.23-18.3,6.24c-3.88,0-7.51-0.74-9.98-2.03c-1.52-0.79-3.79-2.26-5.35-3.3c-0.63,0.81-1.49,1.67-2.57,2.13
	c-0.91,0.39-1.86,0.59-2.82,0.59c-0.73,0-1.37-0.12-1.88-0.26c-1.13,0.72-3.08,1.83-4.88,2.13c-0.32,0.05-0.65,0.08-0.99,0.08
	c-1.59,0-3.2-0.58-4.31-1.1c-1.13,0.9-2.85,1.74-5.12,1.79l-0.12,0c-2.12,0-4.34-1.31-5.63-2.24c-1.85,0.93-5.53,2.56-8.94,2.76
	c-0.22,0.01-0.45,0.02-0.67,0.02c-3.43,0-6.97-1.44-8.96-2.4c-1.07,1.09-2.76,2.16-5.15,2.38c-0.15,0.01-0.31,0.02-0.47,0.02
	c-1.57,0-3.19-0.74-4.35-1.42c-1.15,1.08-2.88,2.09-5.12,2.13l-0.23,0c-2.82,0-4.81-1.08-6.07-2.25c-1.06,0.57-2.56,1.09-4.52,1.09
	c-0.79,0-1.61-0.09-2.44-0.26c-2.03-0.43-3.6-1.84-4.64-3.11c-2.23,2.11-6.19,5.29-10.04,5.63
	C392.51,540.17,391.11,540.23,389.71,540.23z"/>
<path class="st0" d="M381.94,359.94c0,0,25.46-18.05,48.33-18.8c21.66-0.71,41.7,8.68,41.7,8.68s13.34-14.97,34.3-28.92
	c9.17-6.11,26.81-13.67,41.55-10.48c17.68,3.83,25.43,26.54,24.31,43.37c-0.47,7.03-3.77,14.33-11.21,38.33
	c-7.03,22.66-8.01,25.12-8.68,31.82c-1.28,12.78-0.42,17.31-4.29,24.52c-3.64,6.79-10.63,13.58-20.31,14.12
	c-20.31,1.13-27.97-6.53-27.97-6.53s-3.18,5.44-8.9,9.47c-5.05,3.56-10.14,6.71-10.14,6.71s4.32,1.43,6.53,5.22
	c2.11,3.63,2.46,8.17,2.46,8.17s5.6-0.63,11.05-0.9c6.59-0.33,16.23,4.67,20.52,11.82c6.18,10.31,4.52,25.15-5.06,33.36
	c-7.97,6.83-20.64,6.79-26.07,3.96c-2.38-1.24-6.87-4.34-6.87-4.34s-1.06,2.39-2.75,3.11c-2.33,1-4.17-0.07-4.17-0.07
	s-2.77,2.03-4.95,2.4c-2.32,0.39-5.35-1.51-5.35-1.51s-1.43,2.18-4.79,2.25c-2.44,0.05-5.51-2.61-5.51-2.61s-4.97,2.89-9.26,3.13
	c-4.7,0.27-10.1-2.95-10.1-2.95s-1.18,2.62-4.75,2.95c-2.17,0.2-5.02-2.06-5.02-2.06s-1.53,2.73-4.77,2.8
	c-4.42,0.09-5.88-2.97-5.88-2.97s-2.31,2.57-6.93,1.6c-2.89-0.61-4.77-4.28-4.77-4.28s-5.65,6.34-10.5,6.77
	c-7.99,0.71-18.21-0.67-24.33-5.68c-1.47-1.2-10.42-10.43-9.59-23.62c0.54-8.6,5.43-17.36,13.32-19.36c8.3-2.1,19,1.95,19,1.95
	s-0.15-5.1,2.66-9.94c2.55-4.4,6.04-7.28,6.04-7.28s-2.9-2.16-7.1-6.39c-3.41-3.43-5.5-5.68-5.5-5.68s-4.41,3.8-7.1,5.86
	c-7.64,5.86-23.29,8.14-34.09,2.31c-9.05-4.88-12.9-13.35-14.74-17.4c-3.76-8.27-2.18-11.92-4.44-20.42
	c-3.05-11.5-8.2-13.31-18.11-28.23c-10.52-15.83-15.52-25.93-14.56-38c0.84-10.62,6.01-25.05,17.93-29.12
	C356.22,322.32,381.94,359.94,381.94,359.94z"/>
</svg>
