<?xml version="1.0" encoding="utf-8"?>
<!-- Generator: Adobe Illustrator 26.5.0, SVG Export Plug-In . SVG Version: 6.00 Build 0)  -->
<svg version="1.1" id="Layer_1" xmlns="http://www.w3.org/2000/svg" xmlns:xlink="http://www.w3.org/1999/xlink" x="0px" y="0px"
	 viewBox="0 0 566.93 566.93" style="enable-background:new 0 0 566.93 566.93;" xml:space="preserve">
<style type="text/css">
	.st0{fill:none;stroke:#5ABA47;stroke-miterlimit:10;}
</style>
<path class="st0" d="M404.14,351.98c-0.44,0-0.89-0.01-1.33-0.02c-4.27-0.13-9.33-1.54-9.55-1.6l-2.57-0.72l1.43-2.25v0
	c0,0,1.15-2.14,1.78-8.75c0.25-2.63-0.14-5.05-0.91-9.87c-0.41-2.52-0.91-5.66-1.48-9.79c-0.24-1.74-0.44-3.22-0.61-4.49
	c-0.9-6.66-1.02-7.52-2.01-10.1c-3.02-7.9-7-12.28-7.04-12.32l-1.14-1.24l1.03-1.33c0.16-0.21,4.05-5.12,12.56-10.71
	c6.88-4.53,11.57-7.26,15.15-7.85c1.27-0.21,2.55-0.32,3.84-0.32c3.87,0,9.42,0.93,13.84,5.36c8.4,8.4,5.13,22.62,3.33,28.35
	c-1.02,3.25-2.24,5.97-3.41,8.61c-1.75,3.93-3.27,7.32-3.84,11.72c-0.37,2.86-0.33,5.1-0.3,7.09c0.02,0.99,0.03,1.92-0.01,2.81
	c-0.1,2.19-0.93,7.47-2.39,9.73C416.03,351.19,409.02,351.98,404.14,351.98z"/>
<path class="st0" d="M383.3,290.72c0,0,3.75-4.8,12.08-10.28c6.2-4.08,11.06-7,14.38-7.54c0.73-0.12,9.68-1.81,15.96,4.48
	c8.45,8.46,3.53,24.15,2.84,26.35c-2.49,7.94-6.32,12.91-7.33,20.67c-0.58,4.46-0.21,7.55-0.33,10.06c-0.1,2.25-0.96,7.03-2.08,8.75
	c-3.83,5.91-9.9,6.97-15.96,6.78c-4.08-0.13-9.08-1.53-9.08-1.53s1.37-2.17,2.08-9.62c0.41-4.34-0.71-7.82-2.41-20.12
	c-1.51-10.92-1.46-11.7-2.73-15.03C387.52,295.27,383.3,290.72,383.3,290.72z"/>
<path class="st0" d="M321.51,403.13c-4.27,0-8.26-1.59-11.53-4.6c-1.91-1.75-4.39-6.46-5.07-8.66c-0.3-0.98-0.5-2.04-0.71-3.16
	c-0.36-1.89-0.76-4.02-1.76-6.51c-2.93-7.3-5.24-11.83-9.51-18.68c-0.08-0.14-0.22-0.33-0.38-0.58
	c-7.19-10.76-8.67-19.75-4.38-26.71c3.63-5.89,10.71-8.05,15.66-8.11c0.4,0,0.81-0.02,1.23-0.03c0.62-0.02,1.25-0.03,1.91-0.03
	c3.14,0,7.07,0.36,12.33,3.07c7.54,3.88,13.14,9.72,13.37,9.96l1.1,1.16l-0.91,1.32c0,0,0,0,0,0c0,0-1.38,2.4-2.29,10.4
	c-0.26,2.3-0.39,7.34,1.65,15.15c0.98,3.77,0.91,8.99,0.85,13.59c-0.05,3.59-0.1,7.3,0.43,8.93c0.92,2.85,2.17,4.63,2.18,4.65
	l0.82,1.16l-0.82,1.16c-0.09,0.12-2.17,2.98-6.44,4.83C326.69,402.57,324.09,403.13,321.51,403.13z"/>
<path class="st0" d="M331.24,340.47c0,0-5.51-5.8-12.84-9.56c-6.6-3.39-10.84-2.83-14.54-2.79c-3.93,0.05-10.66,1.75-14,7.16
	c-6.27,10.18,3.54,23.25,4.76,25.2c4.4,7.06,6.75,11.73,9.66,18.99c1.68,4.18,1.79,7.42,2.53,9.82c0.66,2.15,3,6.39,4.51,7.78
	c5.19,4.76,11.58,4.97,17.15,2.56c3.81-1.65,5.62-4.16,5.62-4.16s-1.42-1.97-2.46-5.19c-1.34-4.15,0.4-16.05-1.31-22.63
	c-1.83-7.02-2.1-12.33-1.7-15.88C329.63,342.82,331.24,340.47,331.24,340.47z"/>
<path class="st0" d="M172.52,305.99c-2.88,0-5.13-3.03-5.13-6.9c0-3.87,2.25-6.9,5.13-6.9s5.13,3.03,5.13,6.9
	C177.65,302.96,175.4,305.99,172.52,305.99z"/>
<ellipse class="st0" cx="172.52" cy="299.09" rx="3.14" ry="4.91"/>
<path class="st0" d="M141.08,296.57c-2.58,0-4.92-2.48-5.57-5.89c-0.31-1.66-0.18-3.32,0.37-4.69c0.66-1.65,1.9-2.76,3.39-3.04
	c0.25-0.05,0.5-0.07,0.75-0.07c2.58,0,4.92,2.48,5.57,5.89c0.72,3.8-0.93,7.2-3.75,7.73C141.58,296.54,141.33,296.57,141.08,296.57z
	"/>
<ellipse transform="matrix(0.9825 -0.1861 0.1861 0.9825 -51.4653 31.2197)" class="st0" cx="140.55" cy="289.72" rx="3.14" ry="4.91"/>
<path class="st0" d="M223.93,353.04c-1.62,0-3.01-1.15-3.31-2.75c-0.35-1.83,0.86-3.6,2.69-3.94c0.21-0.04,0.42-0.06,0.63-0.06
	c1.62,0,3.01,1.16,3.31,2.75c0.17,0.88-0.02,1.78-0.53,2.53c-0.51,0.74-1.27,1.25-2.16,1.41
	C224.35,353.02,224.14,353.04,223.93,353.04z"/>
<circle class="st0" cx="223.93" cy="349.67" r="1.39"/>
<path class="st0" d="M134.8,330.76c-1.62,0-3.01-1.16-3.31-2.75c-0.17-0.88,0.02-1.78,0.53-2.53c0.51-0.75,1.28-1.25,2.16-1.42
	c0.21-0.04,0.42-0.06,0.63-0.06c1.62,0,3.01,1.15,3.31,2.75c0.35,1.83-0.86,3.6-2.69,3.94C135.22,330.74,135.01,330.76,134.8,330.76
	z"/>
<circle class="st0" cx="134.81" cy="327.39" r="1.39"/>
<path class="st0" d="M184.05,397.13c-0.99,0-1.93-0.27-3.06-0.88c-1.85-1-2.52-2.75-2.87-3.98c-0.29-1.04-0.42-3.08,1-4.1
	c1.28-0.93,2.5-1.09,4.93-1.13l0.62,0c1.7,0,3.09,0.11,4.2,1.55c1.02,1.31,0.54,3.67,0.48,3.93c-0.23,1.03-1.37,3.83-3.91,4.44
	C184.96,397.07,184.5,397.13,184.05,397.13z"/>
<path class="st0" d="M180.04,391.73c-0.15-0.53-0.21-1.62,0.25-1.95c0.75-0.54,1.4-0.72,3.8-0.75c2.17-0.03,2.68,0.08,3.23,0.78
	c0.29,0.37,0.27,1.55,0.11,2.28c-0.14,0.62-0.92,2.58-2.43,2.94c-1.08,0.26-1.9,0.1-3.05-0.52
	C181.01,394,180.43,393.14,180.04,391.73z"/>
<path class="st0" d="M262.46,372.35c-0.21,0-0.44-0.01-0.68-0.04c-1.04-0.11-1.92-0.53-2.56-0.88c-0.61-0.34-1.56-0.85-2.45-2.05
	c-1.25-1.68-0.01-4.44,0.68-5.2c0.59-0.66,1.69-1.89,3.44-1.89c2.03,0.01,3.06,1.51,3.67,2.41l0.1,0.15
	c0.78,1.14,1.89,3.59,1.08,5.56C265.48,371,264.68,372.35,262.46,372.35C262.46,372.35,262.46,372.35,262.46,372.35z"/>
<path class="st0" d="M258.91,365.5c-0.37,0.42-0.98,2.13-0.56,2.7c0.66,0.88,1.33,1.23,1.81,1.5c0.46,0.25,1.11,0.57,1.81,0.65
	c0.98,0.1,1.66-0.08,1.9-0.68c0.42-1.04-0.22-2.74-0.88-3.69c-0.54-0.78-1.09-1.7-2.13-1.7
	C260.02,364.27,259.39,364.96,258.91,365.5z"/>
<path class="st0" d="M164.47,338.56c-0.19,0-0.36-0.01-0.52-0.03c-0.94-0.13-1.79-0.65-2.41-1.48c-0.73-0.98-1.03-2.24-0.83-3.47
	c0.14-0.87,0.47-2.18,1.74-3.53c0.85-0.91,1.83-1.94,3.3-1.94c0.15,0,0.3,0.01,0.46,0.03c2.62,0.39,4.76,3.42,4.76,5.19
	c0,1.83-1.56,3.38-3.02,4.22C166.85,338.19,165.55,338.56,164.47,338.56L164.47,338.56z"/>
<path class="st0" d="M163.9,331.41c-0.9,0.96-1.13,1.86-1.23,2.49c-0.2,1.26,0.55,2.53,1.54,2.67c0.59,0.08,1.73-0.15,2.75-0.73
	c1.13-0.65,2.02-1.66,2.02-2.5c0-0.74-1.37-2.98-3.06-3.23C165.3,330.01,164.81,330.44,163.9,331.41z"/>
<path class="st0" d="M198.81,332.08c-0.39,0-0.77-0.05-1.13-0.16c-1.68-0.5-2.73-1.9-2.88-3.82c-0.12-1.45,0.13-2.69,0.7-3.6
	c0.79-1.24,2.46-1.8,3.78-1.8c1.64,0,4.21,1.21,4.76,3.47c0.42,1.72-0.16,3.37-1.61,4.53C202.15,330.93,200.63,332.08,198.81,332.08
	C198.81,332.08,198.81,332.08,198.81,332.08z"/>
<path class="st0" d="M197.18,325.56c-0.34,0.54-0.48,1.39-0.4,2.38c0.09,1.11,0.61,1.82,1.47,2.08c1.08,0.33,2.43-0.45,2.94-0.86
	c0.52-0.42,1.24-1.24,0.93-2.51c-0.3-1.21-1.92-1.96-2.83-1.96C198.42,324.68,197.49,325.06,197.18,325.56z"/>
<path class="st0" d="M228.13,322.34c-3.02,0-5.03-2.7-5.82-5.01c-0.24-0.69-0.68-1.97,0.01-3.29c1.08-2.08,3.74-2.08,5.5-2.08
	c3.39,0,5.29,1.12,5.98,3.52c0.38,1.33,0.05,2.87-0.91,4.23c-1.07,1.53-2.73,2.5-4.42,2.62
	C228.35,322.33,228.24,322.34,228.13,322.34z"/>
<path class="st0" d="M224.18,316.68c-0.19-0.55-0.4-1.17-0.11-1.72c0.51-0.98,2.21-1.01,3.74-1.01c3.23,0,3.8,1.13,4.07,2.08
	c0.47,1.64-1.31,4.17-3.55,4.32C225.57,320.53,224.28,316.97,224.18,316.68z"/>
<path class="st0" d="M254.19,343.81c-1.71,0-4.58,0-6.04-2.93c-0.7-1.4-0.64-2.63-0.46-3.42c0.39-1.75,1.59-3,3.23-3.37
	c0.26-0.06,0.53-0.09,0.8-0.09c1.37,0,2.75,0.73,3.98,2.1c1.1,1.23,2.31,3.32,2.1,5.12C257.72,342.01,257.19,343.81,254.19,343.81
	L254.19,343.81z"/>
<path class="st0" d="M249.63,337.89c0.22-0.99,0.82-1.66,1.72-1.86c2.13-0.47,4.67,3.31,4.48,4.98c-0.08,0.7-0.87,0.82-1.64,0.82
	c-2.15,0-3.47-0.24-4.26-1.83C249.8,339.74,249.4,338.91,249.63,337.89z"/>
<path class="st0" d="M249,409.2c-1.23,0-2.36-0.48-3.08-1.31c-0.33-0.38-0.68-1.06-0.45-2.12c0.25-1.16,1.16-2.62,2.63-3.29
	c0.71-0.32,1.47-0.49,2.19-0.49c1.47,0,2.66,0.69,3.18,1.85c0.76,1.67-0.17,3.65-2.26,4.82C250.57,409,249.78,409.2,249,409.2
	L249,409.2z"/>
<path class="st0" d="M251.66,404.65c-0.33-0.74-1.56-0.9-2.74-0.37c-1.18,0.54-1.7,2.07-1.5,2.3c0.66,0.76,2.02,0.77,2.82,0.33
	C251.29,406.33,251.99,405.39,251.66,404.65z"/>
<path class="st0" d="M219.14,399.22c-1.91,0-4.77-1.2-4.96-3.37c-0.07-0.83,0.19-1.63,0.74-2.25c0.81-0.92,2.15-1.41,4.1-1.5
	c0.13-0.01,0.25-0.01,0.38-0.01c3.02,0,5.13,1.38,5.13,3.35c0,2.63-4.3,3.64-4.48,3.68C219.76,399.19,219.46,399.22,219.14,399.22
	L219.14,399.22z"/>
<path class="st0" d="M222.54,395.44c0-0.86-1.77-1.44-3.43-1.36c-1.66,0.07-3.04,0.52-2.95,1.6c0.08,0.9,2.29,1.77,3.44,1.51
	C221.16,396.84,222.54,395.93,222.54,395.44z"/>
<path class="st0" d="M280.47,394.07c-1.2,0-2.17-0.44-3.05-0.92c-2.39-1.3-2.46-2.9-2.29-3.73c0.25-1.23,1.59-2.1,2.8-2.43
	c0.86-0.23,1.68-0.35,2.44-0.35c1.14,0,2.16,0.26,3.04,0.77c1.79,1.03,2.17,2.92,1.63,4.16c-0.55,1.26-1.86,1.85-2.81,2.18
	C281.63,393.96,281.05,394.07,280.47,394.07C280.47,394.07,280.47,394.07,280.47,394.07z"/>
<path class="st0" d="M277.08,389.82c-0.14,0.69,0.68,1.25,1.29,1.58c1.18,0.64,2.03,0.89,3.21,0.47c0.53-0.19,1.4-0.53,1.65-1.1
	c0.15-0.35,0.09-1.14-0.81-1.65c-0.81-0.47-2.05-0.73-3.98-0.22C277.68,389.11,277.12,389.59,277.08,389.82z"/>
<path class="st0" d="M162.9,367.69c-0.66,0-1.3-0.09-1.89-0.26c-1.18-0.35-2.25-1.06-3.01-2c-0.9-1.11-1.24-2.38-0.91-3.49
	c0.2-0.67,0.95-2.21,3.63-2.21c0.8,0,1.7,0.14,2.6,0.41c3.3,0.98,4.98,2.86,4.37,4.9C167.14,366.87,164.89,367.69,162.9,367.69z"/>
<path class="st0" d="M165.78,364.47c-0.28,0.94-2.49,1.56-4.21,1.05c-1.71-0.51-2.86-2.08-2.58-3.02s2.05-0.98,3.76-0.47
	S166.06,363.53,165.78,364.47z"/>
<path class="st0" d="M149.69,389.54c-2.97,0-5.36-2.09-5.36-3.82c0-2.06,2.05-3.39,5.22-3.39c3.02,0,5.22,1.49,5.22,3.55
	C154.77,387.61,152.6,389.54,149.69,389.54z"/>
<path class="st0" d="M152.78,385.89c0,0.39-1.08,1.67-3.09,1.67c-2.09,0-3.38-1.44-3.38-1.83c0-0.86,1.45-1.41,3.23-1.41
	S152.78,385.02,152.78,385.89z"/>
<path class="st0" d="M203.81,373.34c-1.73,0-4.95-1.28-4.95-3.71c0-2.04,2.1-3.57,4.88-3.57c3.07,0,5.05,1.3,5.05,3.31
	C208.79,371.64,206.16,373.34,203.81,373.34z"/>
<path class="st0" d="M206.8,369.37c0,0.89-1.47,1.99-2.99,1.99c-1.03,0-2.97-0.83-2.97-1.73c0-0.89,1.37-1.59,2.89-1.59
	C205.26,368.05,206.8,368.48,206.8,369.37z"/>
<path class="st0" d="M151.09,258.45c-1.52,0-2.89-0.62-3.67-1.67c-0.76-1.03-0.65-2.05-0.58-2.58c-0.19-0.06-0.45-0.13-0.64-0.18
	c-1.04-0.26-2.6-0.65-3.72-2.18c-1.14-1.58-0.93-2.74-0.54-3.43c0.3-0.55,1.1-1.47,3.02-1.47c0.93,0,1.9,0.21,2.78,0.6
	c0.18-0.41,0.43-0.79,0.77-1.13c0.66-0.66,1.57-1.06,2.42-1.06c0.44,0,0.87,0.11,1.24,0.31c0.69,0.38,1.07,0.94,1.26,1.59
	c1.02-0.75,2.61-1.7,4.13-1.7c0.68,0,1.32,0.19,1.84,0.55c1.55,1.06,2,3.59,0.94,5.19c-0.83,1.26-2.1,1.39-2.94,1.48
	c-0.58,0.06-1.13,0.12-1.79,0.48c-0.35,0.19-1,0.54-1.11,0.9c-0.02,0.06-0.02,0.11,0.04,0.4c0.11,0.51,0.33,1.56-0.43,2.57
	C153.5,257.96,152.39,258.45,151.09,258.45z"/>
<path class="st0" d="M149.01,255.6c-0.6-0.8,0.17-1.45-0.33-2.38c-0.8-1.48-3.27-0.72-4.59-2.54c-0.14-0.2-0.64-0.89-0.41-1.31
	c0.39-0.71,2.75-0.61,4.26,0.57c1.48,1.16,1.8,3.09,1.97,3.03c0.25-0.08-1.38-3.79,0-5.17c0.35-0.34,0.94-0.61,1.31-0.41
	c1.02,0.55-0.35,4.36,0.25,4.59c0.36,0.14,0.88-1.22,2.38-2.54c1.1-0.97,3.35-2.47,4.43-1.72c0.66,0.45,0.89,1.73,0.41,2.46
	c-0.63,0.95-2,0.21-4.02,1.31c-0.6,0.33-1.7,0.93-2.05,2.05c-0.35,1.13,0.36,1.78-0.08,2.38
	C151.93,256.74,149.78,256.63,149.01,255.6z"/>
<path class="st0" d="M214.32,291.7c-2.27,0-6.94-5.15-6.98-5.2c-0.71-0.79-1.3-1.53-1.2-2.51c0.1-0.95,0.65-2.53,3.21-2.53
	c0.48,0,1.06,0.05,1.79,0.14c3.1,0.41,5.48,3.45,5.76,6.02c0,0.03,0.08,2.64-1.27,3.66C215.25,291.55,214.8,291.7,214.32,291.7z"/>
<path class="st0" d="M208.12,284.19c0.06-0.61,0.3-0.96,2.76-0.63c2.14,0.29,3.86,2.55,4.05,4.26c0.03,0.27-0.19,1.63-0.49,1.86
	C213.79,290.17,208.06,284.77,208.12,284.19z"/>
<path class="st0" d="M262.12,303.16c-5.61,0-10.64-1.48-13.78-4.06c-1.89-1.54-7.15-7.84-6.63-16.2c0.35-5.51,3.53-12.16,9.69-13.72
	c1.13-0.29,2.4-0.43,3.76-0.43c2.52,0,4.97,0.49,6.7,0.95c0.25-1.3,0.73-2.92,1.65-4.51c0.79-1.36,1.71-2.51,2.48-3.36
	c-0.76-0.66-1.72-1.55-2.83-2.67c-0.85-0.86-1.57-1.6-2.13-2.17c-0.92,0.78-2.12,1.76-3.02,2.46c-3.2,2.46-8.12,3.92-13.17,3.92
	c-3.7,0-7.15-0.8-9.98-2.33c-6.16-3.32-8.71-8.94-9.94-11.64c-1.51-3.31-1.74-5.54-2-7.89c-0.16-1.48-0.32-3.02-0.85-5
	c-1.08-4.05-2.6-5.93-5.12-9.05c-1.54-1.9-3.45-4.27-5.77-7.75c-6.66-10.03-9.93-16.59-9.29-24.65c0.58-7.31,4.17-16.85,12.38-19.65
	c4.3-1.47,8.61-2.21,12.81-2.21c16.57,0,27.25,11.25,30.69,15.49c4.43-2.87,17.23-10.47,29.24-10.87c0.51-0.02,1.02-0.02,1.52-0.02
	c10.64,0,20.27,3.54,23.72,4.97c2.57-2.7,9.96-10.05,20.52-17.08c5.02-3.34,13.83-7.25,22.12-7.25c1.75,0,3.42,0.17,4.99,0.51
	c12.54,2.72,17.21,18.47,16.53,28.78c-0.21,3.16-1.24,6.28-3.28,12.5c-0.98,2.99-2.21,6.72-3.71,11.56l-1.51,4.86
	c-2.96,9.5-3.42,10.96-3.75,14.35c-0.2,1.99-0.31,3.65-0.41,5.11c-0.3,4.4-0.48,7.05-2.45,10.73c-3.1,5.78-8.38,9.42-14.14,9.74
	c-0.87,0.05-1.74,0.07-2.58,0.07c-7.42,0-11.96-1.91-14.27-3.29c-1.02,1.32-2.65,3.14-4.82,4.67c-1.27,0.9-2.54,1.74-3.6,2.44
	c0.7,0.59,1.4,1.34,1.95,2.29c0.76,1.3,1.2,2.74,1.45,3.86c1.33-0.12,3.19-0.28,5.05-0.38c0.16-0.01,0.32-0.01,0.49-0.01
	c5.05,0,11.17,3.63,13.95,8.25c4.45,7.43,2.9,17.56-3.53,23.07c-2.98,2.56-7.27,4.02-11.77,4.02c-2.54,0-4.85-0.47-6.5-1.33
	c-0.79-0.41-1.89-1.11-2.8-1.7c-0.39,0.4-0.86,0.77-1.42,1.01c-0.66,0.28-1.34,0.42-2.04,0.42c-0.38,0-0.72-0.04-1.02-0.1
	c-0.77,0.47-1.91,1.07-3.02,1.25c-0.24,0.04-0.49,0.06-0.74,0.06c-0.93,0-1.84-0.27-2.56-0.57c-0.74,0.5-1.81,0.96-3.23,0.99
	c0,0,0,0,0,0c-1.37,0-2.71-0.67-3.62-1.26c-1.28,0.61-3.38,1.46-5.4,1.58c-0.15,0.01-0.3,0.01-0.46,0.01
	c-2.02,0-4.04-0.73-5.38-1.33c-0.72,0.61-1.76,1.17-3.24,1.31c-0.12,0.01-0.24,0.02-0.36,0.02c-0.92,0-1.85-0.34-2.59-0.71
	c-0.8,0.62-1.88,1.13-3.22,1.16l-0.16,0c-1.68,0-2.96-0.56-3.85-1.25c-0.69,0.3-1.58,0.54-2.67,0.54c-0.54,0-1.1-0.06-1.66-0.18
	c-1.13-0.24-2.05-0.89-2.75-1.59c-1.51,1.32-3.79,2.95-6.07,3.15C263.9,303.12,263.01,303.16,262.12,303.16z"/>
<path class="st0" d="M257.35,191.39c0,0,15.68-11.11,29.76-11.58c13.34-0.44,25.68,5.34,25.68,5.34s8.21-9.22,21.12-17.81
	c5.65-3.76,16.51-8.42,25.59-6.45c10.89,2.36,15.66,16.34,14.97,26.71c-0.29,4.33-2.32,8.83-6.9,23.6
	c-4.33,13.96-4.93,15.47-5.34,19.59c-0.79,7.87-0.26,10.66-2.64,15.1c-2.24,4.18-6.55,8.36-12.51,8.69
	c-12.51,0.7-17.22-4.02-17.22-4.02s-1.96,3.35-5.48,5.83c-3.11,2.19-6.25,4.13-6.25,4.13s2.66,0.88,4.02,3.21
	c1.3,2.24,1.52,5.03,1.52,5.03s3.45-0.39,6.8-0.56c4.06-0.21,9.99,2.88,12.63,7.28c3.8,6.35,2.78,15.48-3.12,20.54
	c-4.91,4.21-12.71,4.18-16.05,2.44c-1.46-0.76-4.23-2.67-4.23-2.67s-0.66,1.47-1.69,1.92c-1.44,0.62-2.57-0.04-2.57-0.04
	s-1.7,1.25-3.05,1.48c-1.43,0.24-3.29-0.93-3.29-0.93s-0.88,1.34-2.95,1.39c-1.5,0.03-3.39-1.61-3.39-1.61s-3.06,1.78-5.7,1.93
	c-2.89,0.16-6.22-1.82-6.22-1.82s-0.72,1.61-2.92,1.82c-1.34,0.12-3.09-1.27-3.09-1.27s-0.94,1.68-2.94,1.72
	c-2.72,0.06-3.62-1.83-3.62-1.83s-1.42,1.59-4.26,0.98c-1.78-0.38-2.94-2.64-2.94-2.64s-3.48,3.9-6.46,4.17
	c-4.92,0.44-11.22-0.42-14.98-3.5c-0.9-0.74-6.41-6.42-5.9-14.54c0.33-5.29,3.35-10.69,8.2-11.92c5.11-1.29,11.7,1.2,11.7,1.2
	s-0.09-3.14,1.64-6.12c1.57-2.71,3.72-4.48,3.72-4.48s-1.78-1.33-4.37-3.94c-2.1-2.11-3.39-3.5-3.39-3.5s-2.72,2.34-4.37,3.61
	c-4.7,3.61-14.34,5.01-20.99,1.42c-5.57-3-7.94-8.22-9.08-10.72c-2.31-5.09-1.34-7.34-2.73-12.57c-1.88-7.08-5.05-8.2-11.15-17.39
	c-6.48-9.75-9.56-15.97-8.97-23.4c0.52-6.54,3.7-15.42,11.04-17.93C241.51,168.22,257.35,191.39,257.35,191.39z"/>
</svg>
