<?xml version="1.0" encoding="utf-8"?>
<!-- Generator: Adobe Illustrator 26.5.0, SVG Export Plug-In . SVG Version: 6.00 Build 0)  -->
<svg version="1.1" id="Layer_1" xmlns="http://www.w3.org/2000/svg" xmlns:xlink="http://www.w3.org/1999/xlink" x="0px" y="0px"
	 viewBox="0 0 566.93 566.93" style="enable-background:new 0 0 566.93 566.93;" xml:space="preserve">
<style type="text/css">
	.st0{fill:none;stroke:#5ABA47;stroke-miterlimit:10;}
</style>
<path class="st0" d="M404.14,360c-0.53,0-1.06-0.01-1.58-0.03c-5.14-0.16-10.83-1.72-11.46-1.9l-4.56-1.28
	c-4.18-1.17-6.04-6.04-3.72-9.7l2.12-3.35c0.2-0.64,0.66-2.42,0.98-5.86c0.15-1.54-0.1-3.22-0.85-7.84
	c-0.41-2.56-0.92-5.74-1.51-9.97c-0.24-1.74-0.44-3.23-0.62-4.51c-0.89-6.59-0.92-6.66-1.55-8.31c-2.27-5.92-5.12-9.37-5.47-9.77
	l-2.06-2.13c-2.25-2.33-2.4-5.98-0.34-8.48l1.9-2.31c0.49-0.62,5.04-6.27,14.47-12.47c7.97-5.24,13.24-8.24,18.26-9.06
	c1.67-0.28,3.39-0.42,5.13-0.42c7.62,0,14.55,2.74,19.51,7.71c11.49,11.5,7.54,29.29,5.31,36.41c-1.16,3.7-2.53,6.77-3.74,9.48
	c-1.56,3.49-2.79,6.25-3.21,9.48c-0.3,2.28-0.27,4.13-0.24,5.93c0.02,1.07,0.03,2.17-0.02,3.3c0,0.08-0.49,8.8-3.67,13.72
	C422.35,356.18,414.58,360,404.14,360z"/>
<path class="st0" d="M383.3,290.72c0,0,3.75-4.8,12.08-10.28c6.2-4.08,11.06-7,14.38-7.54c0.73-0.12,9.68-1.81,15.96,4.48
	c8.45,8.46,3.53,24.15,2.84,26.35c-2.49,7.94-6.32,12.91-7.33,20.67c-0.58,4.46-0.21,7.55-0.33,10.06c-0.1,2.25-0.96,7.03-2.08,8.75
	c-3.83,5.91-9.9,6.97-15.96,6.78c-4.08-0.13-9.08-1.53-9.08-1.53s1.37-2.17,2.08-9.62c0.41-4.34-0.71-7.82-2.41-20.12
	c-1.51-10.92-1.46-11.7-2.73-15.03C387.52,295.27,383.3,290.72,383.3,290.72z"/>
<path class="st0" d="M321.51,411.15c-6.31,0-12.17-2.32-16.95-6.71c-3.22-2.96-6.31-8.99-7.3-12.2c-0.43-1.41-0.69-2.74-0.93-4.03
	c-0.32-1.67-0.62-3.25-1.32-5.01c-2.77-6.88-4.84-10.96-8.87-17.43l-0.24-0.37c-11.32-16.94-8.72-28.59-4.54-35.37
	c5.34-8.67,15.4-11.84,22.4-11.92c0.37,0,0.73-0.01,1.11-0.02c0.68-0.02,1.39-0.04,2.12-0.04c3.86,0,9.17,0.45,15.99,3.95
	c8.59,4.41,14.83,10.85,15.52,11.57l0.78,0.82c2.79,2.94,3.15,7.43,0.87,10.78l-0.18,0.26c-0.25,0.74-0.89,2.94-1.4,7.44
	c-0.16,1.41-0.34,5.42,1.44,12.23c1.25,4.81,1.18,10.61,1.11,15.72c-0.03,2.17-0.07,5.42,0.11,6.57c0.41,1.2,0.89,2.03,1.04,2.28
	l1.11,1.42c2.02,2.58,2.01,6.22-0.04,8.79l-1.12,1.4c-0.8,1.12-3.87,4.96-9.77,7.51C328.87,410.36,325.19,411.15,321.51,411.15
	L321.51,411.15z"/>
<path class="st0" d="M331.24,340.47c0,0-5.51-5.8-12.84-9.56c-6.6-3.39-10.84-2.83-14.54-2.79c-3.93,0.05-10.66,1.75-14,7.16
	c-6.27,10.18,3.54,23.25,4.76,25.2c4.4,7.06,6.75,11.73,9.66,18.99c1.68,4.18,1.79,7.42,2.53,9.82c0.66,2.15,3,6.39,4.51,7.78
	c5.19,4.76,11.58,4.97,17.15,2.56c3.81-1.65,5.62-4.16,5.62-4.16s-1.42-1.97-2.46-5.19c-1.34-4.15,0.4-16.05-1.31-22.63
	c-1.83-7.02-2.1-12.33-1.7-15.88C329.63,342.82,331.24,340.47,331.24,340.47z"/>
<path class="st0" d="M172.52,314.01c-7.37,0-13.14-6.55-13.14-14.92s5.77-14.91,13.14-14.91s13.14,6.55,13.14,14.91
	S179.89,314.01,172.52,314.01z"/>
<ellipse class="st0" cx="172.52" cy="299.09" rx="3.14" ry="4.91"/>
<path class="st0" d="M141.08,304.58c-6.53,0-12.06-5.11-13.45-12.42c-0.6-3.19-0.33-6.36,0.8-9.17c1.68-4.17,5.17-7.14,9.33-7.93
	c0.74-0.14,1.49-0.21,2.24-0.21c6.53,0,12.06,5.11,13.45,12.42c1.56,8.22-2.9,15.73-10.14,17.1
	C142.58,304.51,141.83,304.58,141.08,304.58z"/>
<ellipse transform="matrix(0.9825 -0.1861 0.1861 0.9825 -51.4653 31.2197)" class="st0" cx="140.55" cy="289.72" rx="3.14" ry="4.91"/>
<path class="st0" d="M223.93,361.06c-5.46,0-10.17-3.9-11.19-9.27c-1.17-6.17,2.9-12.14,9.06-13.31c0.71-0.13,1.42-0.2,2.13-0.2
	c5.47,0,10.17,3.9,11.19,9.27c0.57,2.99-0.06,6.02-1.78,8.54c-1.71,2.51-4.31,4.21-7.29,4.78
	C225.36,360.99,224.64,361.06,223.93,361.06z"/>
<circle class="st0" cx="223.93" cy="349.67" r="1.39"/>
<path class="st0" d="M134.8,338.78c-5.47,0-10.17-3.9-11.19-9.27c-0.57-2.98,0.07-6.02,1.78-8.53c1.71-2.52,4.31-4.21,7.3-4.78
	c0.69-0.13,1.41-0.2,2.12-0.2c5.46,0,10.17,3.9,11.19,9.27c1.17,6.17-2.9,12.14-9.06,13.31
	C136.23,338.71,135.51,338.78,134.8,338.78z"/>
<circle class="st0" cx="134.81" cy="327.39" r="1.39"/>
<path class="st0" d="M184.05,405.14c-2.33,0-4.58-0.6-6.87-1.84c-3.34-1.81-5.62-4.79-6.77-8.86c-1.4-4.98,0.17-10,4.02-12.77
	c3.26-2.36,6.48-2.6,9.5-2.64c0.26,0,0.51-0.01,0.74-0.01c1.89,0,6.92,0,10.53,4.65c3.04,3.9,2.39,8.7,1.98,10.58
	c-0.95,4.27-4.36,9.18-9.86,10.5C186.22,405.01,185.13,405.14,184.05,405.14z"/>
<path class="st0" d="M180.04,391.73c-0.15-0.53-0.21-1.62,0.25-1.95c0.75-0.54,1.4-0.72,3.8-0.75c2.17-0.03,2.68,0.08,3.23,0.78
	c0.29,0.37,0.27,1.55,0.11,2.28c-0.14,0.62-0.92,2.58-2.43,2.94c-1.08,0.26-1.9,0.1-3.05-0.52
	C181.01,394,180.43,393.14,180.04,391.73z"/>
<path class="st0" d="M262.46,380.37c-0.49,0-1-0.03-1.51-0.08c-2.78-0.29-4.89-1.44-5.58-1.82c-1.47-0.8-3.32-1.99-5.04-4.3
	c-3.94-5.3-1.71-12.16,1.13-15.33c2.71-3.03,5.88-4.56,9.41-4.56c4.2,0.03,7.63,2.02,10.29,5.91l0.08,0.12
	c2.21,3.21,3.86,8.34,1.9,13.14C271.39,377.72,267.3,380.37,262.46,380.37C262.46,380.37,262.46,380.37,262.46,380.37z"/>
<path class="st0" d="M258.91,365.5c-0.37,0.42-0.98,2.13-0.56,2.7c0.66,0.88,1.33,1.23,1.81,1.5c0.46,0.25,1.11,0.57,1.81,0.65
	c0.98,0.1,1.66-0.08,1.9-0.68c0.42-1.04-0.22-2.74-0.88-3.69c-0.54-0.78-1.09-1.7-2.13-1.7
	C260.02,364.27,259.39,364.96,258.91,365.5z"/>
<path class="st0" d="M164.47,346.58c-0.53,0-1.07-0.04-1.58-0.1c-3.1-0.42-5.87-2.07-7.78-4.64c-2.01-2.7-2.85-6.17-2.31-9.52
	c0.47-2.95,1.76-5.56,3.82-7.76c1.25-1.33,4.2-4.46,9.14-4.46c0.55,0,1.1,0.04,1.64,0.12c6.82,1.02,11.58,7.73,11.58,13.12
	c0,4.46-2.63,8.64-7.05,11.17C169.61,345.84,166.96,346.58,164.47,346.58C164.47,346.58,164.47,346.58,164.47,346.58z"/>
<path class="st0" d="M163.9,331.41c-0.9,0.96-1.13,1.86-1.23,2.49c-0.2,1.26,0.55,2.53,1.54,2.67c0.59,0.08,1.73-0.15,2.75-0.73
	c1.13-0.65,2.02-1.66,2.02-2.5c0-0.74-1.37-2.98-3.06-3.23C165.3,330.01,164.81,330.44,163.9,331.41z"/>
<path class="st0" d="M198.81,340.09c-1.18,0-2.33-0.17-3.44-0.5c-4.86-1.46-8.14-5.62-8.56-10.86c-0.25-3.19,0.41-6.14,1.92-8.52
	c2.15-3.41,6.2-5.53,10.56-5.53c4.94,0,11.02,3.36,12.55,9.58c1.16,4.72-0.51,9.58-4.37,12.69
	C206.29,337.89,203.09,340.09,198.81,340.09C198.81,340.09,198.81,340.09,198.81,340.09z"/>
<path class="st0" d="M197.18,325.56c-0.34,0.54-0.48,1.39-0.4,2.38c0.09,1.11,0.61,1.82,1.47,2.08c1.08,0.33,2.43-0.45,2.94-0.86
	c0.52-0.42,1.24-1.24,0.93-2.51c-0.3-1.21-1.92-1.96-2.83-1.96C198.42,324.68,197.49,325.06,197.18,325.56z"/>
<path class="st0" d="M228.13,330.36c-5.96,0-11.22-4.09-13.4-10.41c-1.2-3.47-1.04-6.7,0.48-9.61c3.33-6.38,10.31-6.38,12.61-6.38
	c9.95,0,12.89,6.52,13.69,9.33c1.05,3.67,0.3,7.69-2.06,11.05c-2.49,3.54-6.3,5.73-10.45,6
	C228.71,330.35,228.42,330.36,228.13,330.36z"/>
<path class="st0" d="M224.18,316.68c-0.19-0.55-0.4-1.17-0.11-1.72c0.51-0.98,2.21-1.01,3.74-1.01c3.23,0,3.8,1.13,4.07,2.08
	c0.47,1.64-1.31,4.17-3.55,4.32C225.57,320.53,224.28,316.97,224.18,316.68z"/>
<path class="st0" d="M254.19,351.83c-6.32,0-10.76-2.48-13.2-7.36c-1.38-2.78-1.77-5.8-1.12-8.73c1.06-4.8,4.63-8.42,9.32-9.46
	c0.83-0.18,1.69-0.28,2.54-0.28c3.67,0,7.21,1.7,9.96,4.78c1.12,1.26,4.73,5.79,4.09,11.37
	C265.23,346.81,261.38,351.83,254.19,351.83L254.19,351.83z"/>
<path class="st0" d="M249.63,337.89c0.22-0.99,0.82-1.66,1.72-1.86c2.13-0.47,4.67,3.31,4.48,4.98c-0.08,0.7-0.87,0.82-1.64,0.82
	c-2.15,0-3.47-0.24-4.26-1.83C249.8,339.74,249.4,338.91,249.63,337.89z"/>
<path class="st0" d="M249,417.21c-3.56,0-6.89-1.49-9.14-4.08c-2.13-2.45-2.95-5.76-2.23-9.08c0.66-3.03,2.88-6.95,7.15-8.89
	c1.75-0.79,3.65-1.21,5.5-1.21c4.63,0,8.65,2.51,10.48,6.56c2.51,5.53,0.13,11.89-5.65,15.12
	C253.27,416.67,251.16,417.21,249,417.21C249,417.21,249,417.21,249,417.21z"/>
<path class="st0" d="M251.66,404.65c-0.33-0.74-1.56-0.9-2.74-0.37c-1.18,0.54-1.7,2.07-1.5,2.3c0.66,0.76,2.02,0.77,2.82,0.33
	C251.29,406.33,251.99,405.39,251.66,404.65z"/>
<path class="st0" d="M219.14,407.24c-5.9,0-12.36-4-12.94-10.69c-0.26-3.03,0.69-5.95,2.69-8.23c2.29-2.61,5.58-4.04,9.77-4.22
	c0.25-0.01,0.49-0.02,0.73-0.02c7.49,0,13.14,4.89,13.14,11.37c0,5.5-4.21,10.02-10.71,11.5
	C220.96,407.14,220.06,407.24,219.14,407.24L219.14,407.24z"/>
<path class="st0" d="M222.54,395.44c0-0.86-1.77-1.44-3.43-1.36c-1.66,0.07-3.04,0.52-2.95,1.6c0.08,0.9,2.29,1.77,3.44,1.51
	C221.16,396.84,222.54,395.93,222.54,395.44z"/>
<path class="st0" d="M280.47,402.08c-3.05,0-5.4-1.08-6.89-1.9c-5.88-3.2-7.11-8.5-6.3-12.4c1.01-4.87,5.09-7.6,8.57-8.53
	c1.54-0.41,3.06-0.62,4.52-0.62c2.56,0,4.94,0.62,7.05,1.84c5.1,2.95,7.24,9.1,4.97,14.3c-1.32,3.05-3.85,5.26-7.49,6.54
	C283.45,401.82,281.96,402.08,280.47,402.08L280.47,402.08z"/>
<path class="st0" d="M277.08,389.82c-0.14,0.69,0.68,1.25,1.29,1.58c1.18,0.64,2.03,0.89,3.21,0.47c0.53-0.19,1.4-0.53,1.65-1.1
	c0.15-0.35,0.09-1.14-0.81-1.65c-0.81-0.47-2.05-0.73-3.98-0.22C277.68,389.11,277.12,389.59,277.08,389.82z"/>
<path class="st0" d="M162.9,375.7c-1.44,0-2.84-0.2-4.18-0.6c-2.71-0.8-5.18-2.45-6.95-4.62c-2.6-3.2-3.47-7.15-2.37-10.83
	c1.43-4.83,5.87-7.95,11.32-7.95c1.58,0,3.23,0.25,4.88,0.74c8.96,2.66,11.35,9.58,9.77,14.87
	C173.87,372.33,168.86,375.7,162.9,375.7z"/>
<path class="st0" d="M165.78,364.47c-0.28,0.94-2.49,1.56-4.21,1.05c-1.71-0.51-2.86-2.08-2.58-3.02s2.05-0.98,3.76-0.47
	S166.06,363.53,165.78,364.47z"/>
<path class="st0" d="M149.69,397.56c-7.25,0-13.38-5.42-13.38-11.83c0-5.67,4.55-11.41,13.23-11.41c7.54,0,13.23,4.97,13.23,11.57
	C162.78,392.21,156.79,397.56,149.69,397.56z"/>
<path class="st0" d="M152.78,385.89c0,0.39-1.08,1.67-3.09,1.67c-2.09,0-3.38-1.44-3.38-1.83c0-0.86,1.45-1.41,3.23-1.41
	S152.78,385.02,152.78,385.89z"/>
<path class="st0" d="M203.81,381.36c-6.26,0-12.97-4.71-12.97-11.73c0-6.5,5.66-11.59,12.89-11.59c8.58,0,13.07,5.7,13.07,11.33
	C216.8,375.87,210.85,381.36,203.81,381.36z"/>
<path class="st0" d="M206.8,369.37c0,0.89-1.47,1.99-2.99,1.99c-1.03,0-2.97-0.83-2.97-1.73c0-0.89,1.37-1.59,2.89-1.59
	C205.26,368.05,206.8,368.48,206.8,369.37z"/>
<path class="st0" d="M151.09,266.46c-4.04,0-7.82-1.83-10.1-4.9c-0.32-0.43-0.61-0.88-0.86-1.33c-1.39-0.78-2.87-1.94-4.13-3.67
	c-4.05-5.59-1.85-10.6-1.08-12c1.94-3.53,5.69-5.63,10.04-5.63c0.08,0,0.15,0,0.23,0c1.75-1.03,3.74-1.59,5.75-1.59
	c1.21,0,2.4,0.21,3.53,0.6c0.98-0.25,2.02-0.4,3.1-0.4c2.31,0,4.52,0.68,6.39,1.96c5.15,3.54,6.56,10.97,3.08,16.22
	c-1.31,1.98-3.09,3.39-5.3,4.23c-0.35,0.78-0.77,1.44-1.18,1.98C158.39,264.8,154.94,266.46,151.09,266.46z"/>
<path class="st0" d="M149.01,255.6c-0.6-0.8,0.17-1.45-0.33-2.38c-0.8-1.48-3.27-0.72-4.59-2.54c-0.14-0.2-0.64-0.89-0.41-1.31
	c0.39-0.71,2.75-0.61,4.26,0.57c1.48,1.16,1.8,3.09,1.97,3.03c0.25-0.08-1.38-3.79,0-5.17c0.35-0.34,0.94-0.61,1.31-0.41
	c1.02,0.55-0.35,4.36,0.25,4.59c0.36,0.14,0.88-1.22,2.38-2.54c1.1-0.97,3.35-2.47,4.43-1.72c0.66,0.45,0.89,1.73,0.41,2.46
	c-0.63,0.95-2,0.21-4.02,1.31c-0.6,0.33-1.7,0.93-2.05,2.05c-0.35,1.13,0.36,1.78-0.08,2.38
	C151.93,256.74,149.78,256.63,149.01,255.6z"/>
<path class="st0" d="M214.32,299.72c-1.6,0-5.86,0-12.94-7.85c-1.01-1.12-3.69-4.1-3.22-8.71c0.6-5.73,5.19-9.72,11.18-9.72
	c0.85,0,1.75,0.07,2.85,0.21c6.51,0.87,11.96,6.5,12.67,13.11c0.03,0.29,0.7,7.08-4.44,10.93
	C218.66,299.02,216.55,299.72,214.32,299.72z"/>
<path class="st0" d="M208.12,284.19c0.06-0.61,0.3-0.96,2.76-0.63c2.14,0.29,3.86,2.55,4.05,4.26c0.03,0.27-0.19,1.63-0.49,1.86
	C213.79,290.17,208.06,284.77,208.12,284.19z"/>
<path class="st0" d="M262.12,311.18c-4.37,0-12.63-0.76-18.86-5.87c-3.61-2.96-10.26-11.55-9.55-22.9c0.16-2.52,0.65-4.92,1.44-7.15
	c0.91-2.58-0.38-5.36-2.86-6.53c-0.41-0.19-0.82-0.4-1.21-0.61c-8.53-4.6-12.09-12.43-13.43-15.38c-2.04-4.49-2.39-7.74-2.67-10.35
	c-0.14-1.34-0.26-2.4-0.63-3.79c-0.64-2.4-1.27-3.17-3.61-6.07c-1.64-2.03-3.69-4.56-6.21-8.35c-6.34-9.53-11.51-18.35-10.61-29.73
	c0.77-9.74,5.89-22.54,17.78-26.6c5.14-1.75,10.32-2.64,15.4-2.64c12.39,0,22.05,5.18,28.59,10.35c2.19,1.73,5.17,2.04,7.68,0.82
	c6.53-3.16,14.98-6.27,23.4-6.54c0.6-0.02,1.19-0.03,1.79-0.03c6.19,0,12.08,1.06,16.88,2.31c3.03,0.79,6.24,0.01,8.59-2.05
	c3.76-3.31,8.62-7.22,14.32-11.02c6.24-4.15,16.5-8.59,26.56-8.59c2.32,0,4.57,0.23,6.69,0.69c16.2,3.51,23.85,21.76,22.83,37.15
	c-0.28,4.17-1.48,7.83-3.66,14.47c-0.97,2.97-2.19,6.66-3.67,11.43l-1.51,4.87c-2.9,9.32-3.18,10.26-3.43,12.76
	c-0.19,1.86-0.29,3.46-0.39,4.86c-0.32,4.71-0.6,8.77-3.38,13.97c-2.6,4.85-9.31,8.82-14.4,11.26c-3.12,1.5-4.22,5.37-2.41,8.32
	c0.03,0.05,0.06,0.1,0.09,0.16c6.5,10.86,4.28,25.16-5.19,33.28c-6.04,5.18-13.24,5.95-16.99,5.95c-2.56,0-6.25-0.35-9.66-1.97
	c-0.76,0.19-1.54,0.3-2.33,0.35c-1.05,0.46-2.23,0.85-3.47,1.06c-0.67,0.11-1.37,0.17-2.06,0.17c-0.66,0-1.3-0.05-1.92-0.14
	c-1.13,0.33-2.37,0.54-3.7,0.57l-0.27,0c-1.34,0-2.61-0.23-3.77-0.59c-1.44,0.45-3.05,0.8-4.71,0.89c-0.3,0.02-0.61,0.03-0.91,0.03
	c-1.71,0-3.35-0.27-4.83-0.66c-0.94,0.3-1.95,0.51-3.04,0.61c-0.36,0.03-0.73,0.05-1.1,0.05c-0.67,0-1.31-0.06-1.93-0.15
	c-1.14,0.35-2.38,0.57-3.72,0.59l-0.32,0c-1.79,0-3.41-0.3-4.85-0.8c-0.53,0.06-1.09,0.09-1.67,0.09c-1.1,0-2.22-0.12-3.32-0.35
	c-0.17-0.04-0.34-0.08-0.5-0.12c-1.78,0.93-3.78,1.63-5.94,1.82C264.37,311.13,263.25,311.18,262.12,311.18z"/>
<path class="st0" d="M257.35,191.39c0,0,15.68-11.11,29.76-11.58c13.34-0.44,25.68,5.34,25.68,5.34s8.21-9.22,21.12-17.81
	c5.65-3.76,16.51-8.42,25.59-6.45c10.89,2.36,15.66,16.34,14.97,26.71c-0.29,4.33-2.32,8.83-6.9,23.6
	c-4.33,13.96-4.93,15.47-5.34,19.59c-0.79,7.87-0.26,10.66-2.64,15.1c-2.24,4.18-6.55,8.36-12.51,8.69
	c-12.51,0.7-17.22-4.02-17.22-4.02s-1.96,3.35-5.48,5.83c-3.11,2.19-6.25,4.13-6.25,4.13s2.66,0.88,4.02,3.21
	c1.3,2.24,1.52,5.03,1.52,5.03s3.45-0.39,6.8-0.56c4.06-0.21,9.99,2.88,12.63,7.28c3.8,6.35,2.78,15.48-3.12,20.54
	c-4.91,4.21-12.71,4.18-16.05,2.44c-1.46-0.76-4.23-2.67-4.23-2.67s-0.66,1.47-1.69,1.92c-1.44,0.62-2.57-0.04-2.57-0.04
	s-1.7,1.25-3.05,1.48c-1.43,0.24-3.29-0.93-3.29-0.93s-0.88,1.34-2.95,1.39c-1.5,0.03-3.39-1.61-3.39-1.61s-3.06,1.78-5.7,1.93
	c-2.89,0.16-6.22-1.82-6.22-1.82s-0.72,1.61-2.92,1.82c-1.34,0.12-3.09-1.27-3.09-1.27s-0.94,1.68-2.94,1.72
	c-2.72,0.06-3.62-1.83-3.62-1.83s-1.42,1.59-4.26,0.98c-1.78-0.38-2.94-2.64-2.94-2.64s-3.48,3.9-6.46,4.17
	c-4.92,0.44-11.22-0.42-14.98-3.5c-0.9-0.74-6.41-6.42-5.9-14.54c0.33-5.29,3.35-10.69,8.2-11.92c5.11-1.29,11.7,1.2,11.7,1.2
	s-0.09-3.14,1.64-6.12c1.57-2.71,3.72-4.48,3.72-4.48s-1.78-1.33-4.37-3.94c-2.1-2.11-3.39-3.5-3.39-3.5s-2.72,2.34-4.37,3.61
	c-4.7,3.61-14.34,5.01-20.99,1.42c-5.57-3-7.94-8.22-9.08-10.72c-2.31-5.09-1.34-7.34-2.73-12.57c-1.88-7.08-5.05-8.2-11.15-17.39
	c-6.48-9.75-9.56-15.97-8.97-23.4c0.52-6.54,3.7-15.42,11.04-17.93C241.51,168.22,257.35,191.39,257.35,191.39z"/>
</svg>
