<?xml version="1.0" encoding="utf-8"?>
<!-- Generator: Adobe Illustrator 26.5.0, SVG Export Plug-In . SVG Version: 6.00 Build 0)  -->
<svg version="1.1" id="Layer_1" xmlns="http://www.w3.org/2000/svg" xmlns:xlink="http://www.w3.org/1999/xlink" x="0px" y="0px"
	 viewBox="0 0 566.93 566.93" style="enable-background:new 0 0 566.93 566.93;" xml:space="preserve">
<style type="text/css">
	.st0{fill:none;stroke:#5ABA47;stroke-miterlimit:10;}
</style>
<path class="st0" d="M288.1,298.22c-4.45,0-9.94-3.59-16.32-10.66c-1.34-1.48-4.11-4.56-3.63-9.25c0.53-5.04,4.4-10.12,11.88-10.12
	c1.09,0,2.29,0.09,3.79,0.29c8.53,1.14,14.39,8.88,15.12,15.7c0.01,0.07,0.7,7.96-4.72,12.02
	C292.45,297.52,290.33,298.22,288.1,298.22z"/>
<path class="st0" d="M278.02,279.33c0.1-0.99,0.49-1.55,4.48-1.02c3.48,0.46,6.27,4.15,6.57,6.93c0.05,0.44-0.3,2.64-0.8,3.02
	C287.23,289.04,277.92,280.26,278.02,279.33z"/>
</svg>
