<?xml version="1.0" encoding="utf-8"?>
<!-- Generator: Adobe Illustrator 26.5.0, SVG Export Plug-In . SVG Version: 6.00 Build 0)  -->
<svg version="1.1" id="Layer_1" xmlns="http://www.w3.org/2000/svg" xmlns:xlink="http://www.w3.org/1999/xlink" x="0px" y="0px"
	 viewBox="0 0 566.93 566.93" style="enable-background:new 0 0 566.93 566.93;" xml:space="preserve">
<style type="text/css">
	.st0{fill:none;stroke:#5ABA47;stroke-miterlimit:10;}
</style>
<path class="st0" d="M256.45,364.2c-4.37,0-12.63-0.76-18.86-5.87c-3.61-2.96-10.26-11.56-9.55-22.91c0.13-1.99,0.46-3.91,0.98-5.72
	c0.96-3.34-0.5-6.9-3.56-8.54l-0.06-0.03c-8.53-4.6-12.09-12.43-13.43-15.38c-2.04-4.49-2.39-7.74-2.67-10.35
	c-0.14-1.34-0.26-2.4-0.63-3.79c-0.64-2.4-1.27-3.17-3.61-6.07c-1.64-2.03-3.69-4.56-6.21-8.35c-6.34-9.54-11.51-18.35-10.61-29.73
	c0.77-9.74,5.89-22.54,17.78-26.6c5.14-1.75,10.32-2.65,15.4-2.65c11.94,0,21.33,4.81,27.85,9.78c2.67,2.03,6.22,2.42,9.26,0.99
	c6.41-3.02,14.5-5.88,22.56-6.14c0.6-0.02,1.19-0.03,1.79-0.03c6.18,0,12.06,1.05,16.85,2.3c3.05,0.79,6.28,0.01,8.64-2.06
	c3.76-3.31,8.61-7.21,14.3-11c6.24-4.15,16.5-8.59,26.56-8.59c2.31,0,4.57,0.23,6.69,0.69c16.2,3.51,23.85,21.76,22.83,37.15
	c-0.28,4.17-1.48,7.83-3.66,14.47c-0.97,2.96-2.19,6.65-3.67,11.42l-1.52,4.89c-2.9,9.3-3.17,10.23-3.42,12.73
	c-0.19,1.87-0.29,3.46-0.39,4.86c-0.32,4.71-0.6,8.78-3.39,13.97c-2.86,5.33-10.67,9.59-15.85,11.94c-2.43,1.1-3.29,4.13-1.8,6.34
	c0.35,0.52,0.67,1.02,0.94,1.46c6.51,10.86,4.28,25.16-5.19,33.28c-6.04,5.18-13.23,5.95-16.98,5.95c-2.56,0-6.25-0.35-9.66-1.97
	c-0.77,0.19-1.54,0.3-2.33,0.35c-1.05,0.46-2.23,0.85-3.47,1.06c-0.67,0.11-1.37,0.17-2.06,0.17c-0.66,0-1.3-0.05-1.92-0.14
	c-1.13,0.33-2.37,0.54-3.69,0.57l-0.27,0c-1.34,0-2.61-0.23-3.77-0.59c-1.44,0.45-3.05,0.8-4.71,0.89c-0.3,0.02-0.61,0.03-0.91,0.03
	c-1.71,0-3.35-0.27-4.83-0.66c-0.94,0.3-1.95,0.51-3.04,0.61c-0.36,0.03-0.73,0.05-1.1,0.05c-0.67,0-1.31-0.06-1.93-0.15
	c-1.14,0.35-2.38,0.57-3.72,0.59l-0.33,0c-1.79,0-3.41-0.3-4.85-0.8c-0.53,0.06-1.09,0.09-1.67,0.09c-1.1,0-2.21-0.12-3.32-0.35
	c-0.17-0.04-0.34-0.08-0.51-0.12c-1.78,0.93-3.78,1.63-5.94,1.82C258.7,364.15,257.57,364.2,256.45,364.2z"/>
<path class="st0" d="M251.67,244.41c0,0,15.68-11.11,29.76-11.58c13.34-0.44,25.68,5.34,25.68,5.34s8.21-9.22,21.12-17.81
	c5.65-3.76,16.51-8.42,25.59-6.45c10.89,2.36,15.66,16.34,14.97,26.71c-0.29,4.33-2.32,8.83-6.9,23.6
	c-4.33,13.96-4.93,15.47-5.34,19.59c-0.79,7.87-0.26,10.66-2.64,15.1c-2.24,4.18-6.55,8.36-12.51,8.69
	c-12.51,0.7-17.22-4.02-17.22-4.02s-1.96,3.35-5.48,5.83c-3.11,2.19-6.25,4.13-6.25,4.13s2.66,0.88,4.02,3.21
	c1.3,2.24,1.52,5.03,1.52,5.03s3.45-0.39,6.8-0.56c4.06-0.21,9.99,2.88,12.63,7.28c3.8,6.35,2.78,15.48-3.12,20.54
	c-4.91,4.21-12.71,4.18-16.05,2.44c-1.46-0.76-4.23-2.67-4.23-2.67s-0.66,1.47-1.69,1.92c-1.44,0.62-2.57-0.04-2.57-0.04
	s-1.7,1.25-3.05,1.48c-1.43,0.24-3.29-0.93-3.29-0.93s-0.88,1.34-2.95,1.39c-1.5,0.03-3.39-1.61-3.39-1.61s-3.06,1.78-5.7,1.93
	c-2.89,0.16-6.22-1.82-6.22-1.82s-0.72,1.61-2.92,1.82c-1.34,0.12-3.09-1.27-3.09-1.27s-0.94,1.68-2.94,1.72
	c-2.72,0.06-3.62-1.83-3.62-1.83s-1.42,1.59-4.26,0.98c-1.78-0.38-2.94-2.64-2.94-2.64s-3.48,3.9-6.46,4.17
	c-4.92,0.44-11.22-0.42-14.98-3.5c-0.9-0.74-6.41-6.42-5.9-14.54c0.33-5.29,3.35-10.69,8.2-11.92c5.11-1.29,11.7,1.2,11.7,1.2
	s-0.09-3.14,1.64-6.12c1.57-2.71,3.72-4.48,3.72-4.48s-1.78-1.33-4.37-3.94c-2.1-2.11-3.39-3.5-3.39-3.5s-2.72,2.34-4.37,3.61
	c-4.7,3.61-14.34,5.01-20.99,1.42c-5.57-3-7.94-8.22-9.08-10.72c-2.31-5.09-1.34-7.34-2.73-12.57c-1.88-7.08-5.05-8.2-11.15-17.39
	c-6.48-9.75-9.56-15.97-8.97-23.4c0.52-6.54,3.7-15.42,11.04-17.93C235.83,221.24,251.67,244.41,251.67,244.41z"/>
</svg>
