<?xml version="1.0" encoding="utf-8"?>
<!-- Generator: Adobe Illustrator 26.5.0, SVG Export Plug-In . SVG Version: 6.00 Build 0)  -->
<svg version="1.1" id="Layer_1" xmlns="http://www.w3.org/2000/svg" xmlns:xlink="http://www.w3.org/1999/xlink" x="0px" y="0px"
	 viewBox="0 0 566.93 566.93" style="enable-background:new 0 0 566.93 566.93;" xml:space="preserve">
<style type="text/css">
	.st0{fill:none;stroke:#5ABA47;stroke-miterlimit:10;}
</style>
<path class="st0" d="M268.71,270.77c-0.79,0-1.58-0.01-2.38-0.04c-7.61-0.24-16.17-2.59-17.12-2.85l-1.62-0.45
	c-6.23-1.75-8.55-9.37-4.34-14.28l0,0c0.38-1.06,1.41-4.43,2.07-11.46c0.32-3.42-0.23-6.83-1.43-14.31
	c-0.66-4.12-1.49-9.26-2.43-16.06c-0.39-2.82-0.72-5.23-1-7.3c-1.49-11.01-1.6-11.57-2.88-14.91
	c-4.38-11.44-10.06-17.81-10.12-17.87l-0.01-0.01c-3.33-3.59-3.53-9.07-0.49-12.9l0,0c0.73-0.93,7.52-9.36,22-18.89
	c12.23-8.04,20.19-12.62,27.24-13.77c2.4-0.41,4.85-0.61,7.33-0.61c7.57,0,18.45,1.85,27.28,10.69
	c16.26,16.27,10.37,42.38,7.08,52.86c-1.77,5.66-3.92,10.47-5.82,14.71c-2.63,5.89-4.91,10.99-5.7,17.14
	c-0.54,4.15-0.49,7.39-0.44,10.53c0.03,1.71,0.05,3.33-0.02,4.98c-0.12,2.61-1.31,13.54-4.97,19.18
	C290.86,270.77,274.19,270.77,268.71,270.77z"/>
<path class="st0" d="M234.87,164.5c0,0,6.09-7.79,19.62-16.69c10.07-6.62,17.97-11.38,23.35-12.25c1.18-0.19,15.71-2.94,25.93,7.28
	c13.73,13.74,5.74,39.23,4.62,42.79c-4.04,12.89-10.27,20.96-11.9,33.56c-0.94,7.25-0.35,12.25-0.53,16.34
	c-0.17,3.65-1.56,11.41-3.37,14.21c-6.22,9.6-16.07,11.32-25.93,11.01c-6.62-0.21-14.74-2.49-14.74-2.49s2.23-3.52,3.37-15.63
	c0.67-7.05-1.15-12.7-3.91-32.67c-2.45-17.74-2.37-19.01-4.44-24.42C241.72,171.89,234.87,164.5,234.87,164.5z"/>
<path class="st0" d="M192.32,157.27c-8.66,0-16.72-3.2-23.31-9.25c-4.2-3.86-8.73-12.53-10.12-17.05c-0.6-1.95-0.96-3.86-1.34-5.87
	c-0.55-2.89-1.11-5.88-2.49-9.3c-4.6-11.43-8.22-18.55-14.9-29.28c-0.11-0.18-0.29-0.44-0.5-0.76C123.1,61,126.57,44.52,132.4,35.06
	c7.34-11.91,21.36-16.27,31.13-16.38c0.62-0.01,1.25-0.02,1.9-0.04c1.06-0.03,2.15-0.06,3.29-0.06c5.57,0,13.23,0.65,23.12,5.73
	c13.26,6.81,23.12,17.1,23.53,17.54l2.2,2.32c2.38,2.5,2.38,6.43,0.01,8.94v0c-0.69,0.73-1.21,1.61-1.5,2.58
	c-0.62,2.08-1.54,5.98-2.28,12.52c-0.37,3.27-0.54,10.51,2.5,22.14c1.82,7,1.71,15.96,1.6,23.87c-0.06,4.21-0.14,10.58,0.38,12.36
	c0.86,2.67,1.94,4.58,2.41,5.35c0.11,0.19,0.23,0.36,0.36,0.53l1.28,1.69c1.76,2.32,1.75,5.54-0.01,7.86l-1.44,1.89
	c-0.76,1.06-4.96,6.52-13.27,10.11C202.58,156.17,197.44,157.27,192.32,157.27C192.32,157.27,192.32,157.27,192.32,157.27z"/>
<path class="st0" d="M208.12,48.73c0,0-8.95-9.42-20.85-15.53c-10.72-5.51-17.61-4.6-23.62-4.53c-6.38,0.07-17.31,2.84-22.73,11.63
	c-10.19,16.53,5.75,37.76,7.72,40.93c7.15,11.47,10.95,19.05,15.69,30.84c2.72,6.78,2.9,12.05,4.11,15.95
	c1.08,3.49,4.88,10.38,7.33,12.64c8.42,7.73,18.81,8.08,27.86,4.16c6.19-2.68,9.12-6.76,9.12-6.76s-2.31-3.2-4-8.43
	c-2.17-6.74,0.66-26.06-2.13-36.76c-2.97-11.39-3.41-20.03-2.76-25.79C205.5,52.55,208.12,48.73,208.12,48.73z"/>
<path class="st0" d="M82.15,410.92c-8.47,0-15.11-7.9-15.11-17.98c0-10.08,6.64-17.98,15.11-17.98c8.47,0,15.11,7.9,15.11,17.98
	C97.26,403.02,90.62,410.92,82.15,410.92z"/>
<ellipse class="st0" cx="82.15" cy="392.94" rx="5.11" ry="7.98"/>
<path class="st0" d="M13.58,413.05c-7.56,0-14.02-6.2-15.71-15.09c-0.75-3.95-0.41-8,0.96-11.41c1.95-4.86,5.79-8.17,10.53-9.07
	c0.81-0.15,1.65-0.23,2.48-0.23c7.56,0,14.02,6.2,15.71,15.09c0.75,3.95,0.4,8-0.96,11.41c-1.95,4.87-5.79,8.17-10.53,9.07
	C15.25,412.97,14.41,413.05,13.58,413.05z"/>
<ellipse transform="matrix(0.9825 -0.1861 0.1861 0.9825 -73.321 9.2708)" class="st0" cx="12.72" cy="395.15" rx="5.11" ry="7.98"/>
<path class="st0" d="M164.47,466.01c-3.62,0-6.41-1.28-8.19-2.24c-3.89-2.1-6.57-5.67-7.96-10.59c-1.18-4.22-0.8-10.41,4.17-14
	c3.85-2.78,7.5-3.05,11.88-3.11c0.4,0,0.76-0.01,1.1-0.01c2.86,0,8.19,0,12.18,5.14c3.31,4.25,2.53,9.82,2.05,12.01
	c-0.84,3.77-4.17,10.6-11.38,12.33C167,465.85,165.74,466.01,164.47,466.01z"/>
<path class="st0" d="M157.95,450.46c-0.24-0.86-0.34-2.64,0.4-3.17c1.23-0.88,2.28-1.16,6.17-1.22c3.53-0.05,4.35,0.13,5.24,1.27
	c0.47,0.6,0.44,2.52,0.18,3.71c-0.22,1-1.49,4.18-3.95,4.77c-1.75,0.42-3.08,0.16-4.95-0.84
	C159.53,454.15,158.6,452.75,157.95,450.46z"/>
<path class="st0" d="M214.83,486.64c-0.59,0-1.2-0.03-1.82-0.1c-2.93-0.3-5.23-1.42-6.71-2.22c-1.3-0.71-3.83-2.1-6.17-5.23
	c-4.67-6.28-0.93-14.32,1.49-17.02c1.31-1.46,4.78-5.33,10.63-5.33c6.9,0.04,10.41,5.19,11.56,6.88l0.15,0.22
	c2.65,3.86,4.69,9.94,2.44,15.44C224.54,483.82,220.11,486.64,214.83,486.64C214.83,486.64,214.84,486.64,214.83,486.64z"/>
<path class="st0" d="M209.07,468.74c-0.61,0.68-1.59,3.47-0.92,4.38c1.07,1.43,2.16,2,2.95,2.43c0.75,0.41,1.8,0.93,2.95,1.05
	c1.6,0.17,2.69-0.13,3.09-1.1c0.69-1.69-0.37-4.45-1.42-5.99c-0.87-1.26-1.76-2.75-3.45-2.76
	C210.87,466.73,209.86,467.86,209.07,468.74z"/>
<path class="st0" d="M122.43,472.81c-0.6,0-1.19-0.04-1.75-0.12c-3.34-0.45-6.34-2.25-8.44-5.07c-2.26-3.04-3.21-6.96-2.6-10.75
	c0.58-3.59,2.08-6.64,4.59-9.31c1.74-1.85,4.98-5.29,10.3-5.29c0.58,0,1.17,0.04,1.74,0.13c7.72,1.15,13.5,8.94,13.5,15.14
	c0,4.99-3.11,9.75-8.31,12.73C128.64,471.88,125.35,472.81,122.43,472.81C122.43,472.81,122.43,472.81,122.43,472.81z"/>
<path class="st0" d="M121.51,454.42c-1.47,1.56-1.83,3.02-2,4.04c-0.33,2.05,0.9,4.11,2.51,4.33c0.96,0.13,2.81-0.24,4.46-1.19
	c1.84-1.05,3.29-2.69,3.29-4.05c0-1.21-2.22-4.84-4.98-5.25C123.78,452.15,122.99,452.84,121.51,454.42z"/>
<path class="st0" d="M-1.23,448.42c-1.3,0-2.57-0.19-3.79-0.55c-5.38-1.62-9.01-6.28-9.48-12.16c-0.3-3.82,0.44-7.28,2.16-10
	c2.84-4.48,7.99-6.08,11.87-6.08c5.73,0,12.65,4.04,14.31,10.8c1.32,5.37-0.53,10.7-4.94,14.26C7.81,445.57,3.87,448.42-1.23,448.42
	C-1.23,448.42-1.23,448.42-1.23,448.42z"/>
<path class="st0" d="M-3.89,431.05c-0.56,0.88-0.77,2.26-0.64,3.86c0.14,1.8,0.99,2.95,2.39,3.38c1.76,0.53,3.94-0.72,4.77-1.39
	c0.85-0.68,2.01-2.02,1.51-4.08c-0.48-1.96-3.11-3.19-4.6-3.19C-1.86,429.63-3.38,430.25-3.89,431.05z"/>
<path class="st0" d="M35.22,449.73c-8.46,0-13.84-6.83-15.86-12.69c-0.51-1.48-2.06-5.96,0.4-10.69c3.66-7.02,11.57-7.02,14.95-7.02
	c11.48,0,15.1,6.66,16.23,10.62c1.18,4.13,0.29,8.74-2.45,12.63c-2.91,4.13-7.5,6.79-12.27,7.11
	C35.89,449.72,35.55,449.73,35.22,449.73z"/>
<path class="st0" d="M28.81,433.77c-0.31-0.89-0.64-1.9-0.18-2.8c0.83-1.59,3.59-1.64,6.08-1.64c5.24,0,6.17,1.83,6.61,3.37
	c0.76,2.67-2.12,6.77-5.77,7.01C31.06,440.01,28.97,434.23,28.81,433.77z"/>
<path class="st0" d="M70.11,462.98c-3.18,0-11.62-0.01-15.87-8.51c-2.02-4.04-1.83-7.69-1.31-10.04c1.19-5.4,5.18-9.47,10.4-10.63
	c0.9-0.2,1.84-0.3,2.77-0.3c4.16,0,8.25,2.02,11.51,5.68c1.38,1.55,5.84,7.12,5.1,13.6C82.13,457.86,78.01,462.98,70.11,462.98
	L70.11,462.98z"/>
<path class="st0" d="M62.7,446.58c0.35-1.6,1.33-2.69,2.8-3.02c3.45-0.77,7.59,5.37,7.28,8.08c-0.13,1.14-1.42,1.33-2.66,1.33
	c-3.49,0-5.63-0.39-6.93-2.97C62.98,449.59,62.33,448.24,62.7,446.58z"/>
<path class="st0" d="M151.22,513.48c-3.97,0-7.66-1.63-10.12-4.47c-2.17-2.5-2.99-5.91-2.24-9.34s3.27-7.88,8.09-10.06
	c2.02-0.92,4.22-1.4,6.35-1.4c5.04,0,9.39,2.67,11.34,6.98c2.7,5.96-0.05,12.91-6.54,16.54
	C156.05,512.87,153.67,513.48,151.22,513.48C151.22,513.48,151.22,513.48,151.22,513.48z"/>
<path class="st0" d="M155.54,499.31c-0.54-1.2-2.54-1.46-4.46-0.6c-1.92,0.87-2.76,3.36-2.43,3.74c1.07,1.24,3.27,1.26,4.57,0.53
	C154.94,502.04,156.08,500.51,155.54,499.31z"/>
<path class="st0" d="M115.37,530.83c-5.72,0-14.1-3.62-14.8-11.67c-0.28-3.21,0.73-6.3,2.85-8.72c2.56-2.92,6.41-4.51,11.45-4.74
	c0.31-0.01,0.61-0.02,0.92-0.02c8.75,0,15.1,5.14,15.1,12.22c0,7.18-6.76,11.27-12.55,12.59
	C117.39,530.72,116.39,530.83,115.37,530.83L115.37,530.83z"/>
<path class="st0" d="M120.89,517.91c0-1.4-2.88-2.33-5.57-2.21c-2.7,0.12-4.94,0.84-4.78,2.6c0.13,1.46,3.73,2.88,5.59,2.46
	C118.65,520.17,120.89,518.71,120.89,517.91z"/>
<path class="st0" d="M95.52,505.92c-3.49,0-6.21-1.24-8.2-2.32c-8.25-4.5-7.53-11.39-7.11-13.39c1.07-5.14,5.57-8.08,9.42-9.11
	c1.97-0.53,3.9-0.8,5.72-0.8c3.06,0,5.86,0.72,8.33,2.16c5.52,3.19,7.88,9.78,5.47,15.32c-1.44,3.32-4.31,5.76-8.53,7.24
	C98.94,505.61,97.22,505.92,95.52,505.92L95.52,505.92z"/>
<path class="st0" d="M90,492.24c-0.23,1.11,1.11,2.03,2.1,2.57c1.92,1.05,3.29,1.45,5.21,0.77c0.86-0.3,2.27-0.86,2.67-1.79
	c0.24-0.56,0.14-1.85-1.31-2.69c-1.31-0.76-3.34-1.19-6.46-0.36C90.98,491.09,90.08,491.87,90,492.24z"/>
<path class="st0" d="M0.69,528.38c-1.73,0-3.41-0.24-5-0.71c-3.21-0.95-6.13-2.9-8.22-5.47c-2.9-3.57-3.89-7.9-2.71-11.87
	c1.21-4.08,5.11-8.44,12.4-8.44c1.94,0,4.07,0.33,6.15,0.94c10.49,3.12,13.42,10.48,11.66,16.39C13.3,524.78,7.7,528.38,0.69,528.38
	z"/>
<path class="st0" d="M5.37,516.37c-0.45,1.52-4.05,2.53-6.84,1.71s-4.65-3.38-4.2-4.9c0.45-1.52,3.32-1.59,6.11-0.76
	C3.23,513.25,5.82,514.85,5.37,516.37z"/>
<path class="st0" d="M21.69,481.69c-8.25,0-15.48-6.06-15.48-12.97c0-5.92,4.77-12.29,15.25-12.29c8.84,0,15.25,5.28,15.25,12.54
	C36.71,475.87,29.83,481.69,21.69,481.69z"/>
<path class="st0" d="M26.71,468.97c0,0.63-1.75,2.72-5.02,2.72c-3.4,0-5.48-2.34-5.48-2.97c0-1.4,2.35-2.29,5.25-2.29
	S26.71,467.57,26.71,468.97z"/>
<path class="st0" d="M54.95,539.41c-6.21,0-14.82-4.45-14.82-12.81c0-7.17,6.32-12.58,14.69-12.58c10.29,0,14.98,6.3,14.98,12.15
	C69.81,534.1,62.13,539.41,54.95,539.41z"/>
<path class="st0" d="M59.81,526.18c0,1.45-2.39,3.23-4.86,3.23c-1.66,0-4.82-1.35-4.82-2.81c0-1.45,2.22-2.57,4.69-2.57
	C57.3,524.03,59.81,524.73,59.81,526.18z"/>
<path class="st0" d="M47.05,333.32c-4.6,0-8.86-2.03-11.39-5.44c-0.76-1.03-1.29-2.06-1.65-3.04c-2.06-0.87-4.45-2.35-6.41-5.04
	c-4.3-5.92-2.37-10.94-1.34-12.82c2.06-3.76,6.01-5.91,10.84-5.91c0.7,0,1.39,0.04,2.09,0.13c2.2-1.74,4.9-2.71,7.61-2.71
	c1.84,0,3.66,0.46,5.25,1.32c0.04,0.02,0.08,0.05,0.13,0.07c1.67-0.65,3.49-1.07,5.39-1.07c2.49,0,4.85,0.72,6.83,2.09
	c5.62,3.86,7.15,12,3.34,17.75c-1.16,1.76-2.56,2.93-3.95,3.71c-2.34,1.33-4.43,3.1-5.88,5.37c-0.15,0.24-0.32,0.48-0.49,0.71
	C55.1,331.54,51.32,333.32,47.05,333.32z"/>
<path class="st0" d="M43.68,321.91c-0.97-1.3,0.28-2.36-0.53-3.86c-1.3-2.41-5.31-1.16-7.46-4.13c-0.23-0.32-1.04-1.44-0.67-2.13
	c0.63-1.15,4.47-0.99,6.93,0.93c2.4,1.88,2.92,5.02,3.2,4.93c0.4-0.13-2.25-6.15,0-8.39c0.56-0.56,1.53-0.99,2.13-0.67
	c1.66,0.9-0.57,7.08,0.4,7.46c0.58,0.22,1.44-1.99,3.86-4.13c1.79-1.58,5.44-4,7.19-2.8c1.07,0.73,1.45,2.81,0.67,4
	c-1.03,1.55-3.25,0.35-6.53,2.13c-0.98,0.54-2.76,1.5-3.33,3.33c-0.57,1.84,0.59,2.9-0.13,3.86
	C48.43,323.76,44.93,323.59,43.68,321.91z"/>
<path class="st0" d="M36.79,513.31c-4.47,0-9.99-3.6-16.38-10.69c-1.34-1.49-4.14-4.59-3.64-9.31c0.53-5.07,4.43-10.19,11.95-10.19
	c1.09,0,2.3,0.09,3.8,0.29c8.57,1.14,14.45,8.92,15.19,15.77c0.01,0.07,0.7,8-4.74,12.08C41.17,512.6,39.04,513.31,36.79,513.31z"/>
<path class="st0" d="M26.71,494.34c0.1-0.99,0.49-1.55,4.48-1.02c3.48,0.46,6.27,4.15,6.57,6.93c0.05,0.44-0.3,2.64-0.8,3.02
	C35.92,504.04,26.61,495.27,26.71,494.34z"/>
<path class="st0" d="M389.78,548.42c-6.26,0-18.05-1.05-26.68-8.12c-4.04-3.31-14.27-15.5-13.23-31.98
	c0.64-10.26,5.51-19.33,12.63-24.52c-0.25,0-0.51,0.01-0.76,0.01c-7.14,0-13.85-1.59-19.42-4.59c-12.01-6.48-16.97-17.4-19.09-22.06
	c-2.9-6.38-3.38-10.91-3.81-14.9c-0.25-2.35-0.47-4.38-1.19-7.1c-1.38-5.18-3.03-7.23-7.04-12.18c-2.59-3.2-5.81-7.18-9.74-13.09
	c-11.43-17.19-17.39-29.35-16.2-44.33c1.11-13.92,8.23-32.18,24.67-37.79c7.69-2.63,15.43-3.96,23-3.96
	c24.92,0,42.43,14.1,51.12,23.2c10.08-5.93,28.38-15.1,45.99-15.68c0.9-0.03,1.8-0.04,2.7-0.04c15.04,0,28.92,4.07,36.81,6.93
	c5.92-5.86,16.87-15.87,31.28-25.46c9.37-6.24,24.72-12.91,39.67-12.91c3.32,0,6.53,0.33,9.54,0.99
	c22.89,4.96,33.66,31.43,32.17,53.81c-0.4,5.98-2.15,11.32-5.65,21.97c-1.59,4.84-3.57,10.86-5.99,18.66
	c-0.92,2.97-1.74,5.59-2.46,7.92c-4.81,15.43-5.35,17.28-5.82,21.93c-0.31,3.12-0.49,5.76-0.65,8.08
	c-0.49,7.21-0.88,12.91-4.77,20.17c-6.15,11.48-16.83,18.72-28.57,19.38c-1.54,0.09-3.08,0.13-4.57,0.13
	c-9.52,0-16.55-1.73-21.52-3.74c-1.57,1.59-3.44,3.24-5.58,4.75c-0.01,0.01-0.02,0.01-0.03,0.02c0.2,0.4,0.39,0.8,0.56,1.2
	c1.01-0.07,2.06-0.13,3.1-0.19c0.37-0.02,0.75-0.03,1.14-0.03c10.52,0,22.76,7.18,28.46,16.7c8.87,14.81,5.74,35.06-7.13,46.09
	c-6.05,5.19-14.63,8.17-23.52,8.17c-5.2,0-10.06-1.04-13.69-2.93c-0.43-0.22-0.9-0.48-1.38-0.77c-1.81,0.73-3.71,1.1-5.65,1.1
	c-0.07,0-0.14,0-0.22,0c-1.54,0.76-3.34,1.45-5.22,1.77c-0.75,0.13-1.53,0.19-2.31,0.19c-1.24,0-2.44-0.16-3.55-0.42
	c-1.68,0.65-3.59,1.06-5.7,1.11l-0.3,0c-2.21,0-4.27-0.56-6.07-1.32c-2.35,0.88-5.19,1.66-8.05,1.83c-0.37,0.02-0.75,0.03-1.13,0.03
	c-2.9,0-5.72-0.63-8.1-1.43c-1.55,0.69-3.3,1.18-5.26,1.37c-0.4,0.04-0.8,0.06-1.21,0.06c-1.27,0-2.49-0.19-3.63-0.49
	c-1.68,0.71-3.58,1.16-5.67,1.2l-0.4,0c-2.72,0-5.11-0.57-7.13-1.48c-1.06,0.2-2.21,0.32-3.45,0.32c-1.35,0-2.73-0.15-4.1-0.44
	c-1-0.21-1.94-0.52-2.81-0.9c-2.75,1.77-6.02,3.25-9.51,3.56C393.06,548.35,391.42,548.42,389.78,548.42z"/>
<path class="st0" d="M382.02,360.12c0,0,25.46-18.05,48.33-18.8c21.66-0.71,41.7,8.68,41.7,8.68s13.34-14.97,34.3-28.92
	c9.17-6.11,26.81-13.67,41.55-10.48c17.68,3.83,25.43,26.54,24.31,43.37c-0.47,7.03-3.77,14.33-11.21,38.33
	c-7.03,22.66-8.01,25.12-8.68,31.82c-1.28,12.78-0.42,17.31-4.29,24.52c-3.64,6.79-10.63,13.58-20.31,14.12
	c-20.31,1.13-27.97-6.53-27.97-6.53s-3.18,5.44-8.9,9.47c-5.05,3.56-10.14,6.71-10.14,6.71s4.32,1.43,6.53,5.22
	c2.11,3.63,2.46,8.17,2.46,8.17s5.6-0.63,11.05-0.9c6.59-0.33,16.23,4.67,20.52,11.82c6.18,10.31,4.52,25.15-5.06,33.36
	c-7.97,6.83-20.64,6.79-26.07,3.96c-2.38-1.24-6.87-4.34-6.87-4.34s-1.06,2.39-2.75,3.11c-2.33,1-4.17-0.07-4.17-0.07
	s-2.77,2.03-4.95,2.4c-2.32,0.39-5.35-1.51-5.35-1.51s-1.43,2.18-4.79,2.25c-2.44,0.05-5.51-2.61-5.51-2.61s-4.97,2.89-9.26,3.13
	c-4.7,0.27-10.1-2.95-10.1-2.95s-1.18,2.62-4.75,2.95c-2.17,0.2-5.02-2.06-5.02-2.06s-1.53,2.73-4.77,2.8
	c-4.42,0.09-5.88-2.97-5.88-2.97s-2.31,2.57-6.93,1.6c-2.89-0.61-4.77-4.28-4.77-4.28s-5.65,6.34-10.5,6.77
	c-7.99,0.71-18.21-0.67-24.33-5.68c-1.47-1.2-10.42-10.43-9.59-23.62c0.54-8.6,5.43-17.36,13.32-19.36c8.3-2.1,19,1.95,19,1.95
	s-0.15-5.1,2.66-9.94c2.55-4.4,6.04-7.28,6.04-7.28s-2.9-2.16-7.1-6.39c-3.41-3.43-5.5-5.68-5.5-5.68s-4.41,3.8-7.1,5.86
	c-7.64,5.86-23.29,8.14-34.09,2.31c-9.05-4.88-12.9-13.35-14.74-17.4c-3.76-8.27-2.18-11.92-4.44-20.42
	c-3.05-11.5-8.2-13.31-18.11-28.23c-10.52-15.83-15.52-25.93-14.56-38c0.84-10.62,6.01-25.05,17.93-29.12
	C356.3,322.49,382.02,360.12,382.02,360.12z"/>
</svg>
