<?xml version="1.0" encoding="utf-8"?>
<!-- Generator: Adobe Illustrator 26.5.0, SVG Export Plug-In . SVG Version: 6.00 Build 0)  -->
<svg version="1.1" id="Layer_1" xmlns="http://www.w3.org/2000/svg" xmlns:xlink="http://www.w3.org/1999/xlink" x="0px" y="0px"
	 viewBox="0 0 566.93 566.93" style="enable-background:new 0 0 566.93 566.93;" xml:space="preserve">
<style type="text/css">
	.st0{fill:none;stroke:#5ABA47;stroke-miterlimit:10;}
</style>
<ellipse class="st0" cx="310.24" cy="286.06" rx="3.14" ry="4.91"/>
<ellipse transform="matrix(0.9825 -0.1861 0.1861 0.9825 -48.8196 54.8043)" class="st0" cx="267.48" cy="287.42" rx="3.14" ry="4.91"/>
<path class="st0" d="M320.08,326.51c-0.15-0.53-0.21-1.62,0.25-1.95c0.75-0.54,1.4-0.72,3.8-0.75c2.17-0.03,2.68,0.08,3.23,0.78
	c0.29,0.37,0.27,1.55,0.11,2.28c-0.14,0.62-0.92,2.58-2.43,2.94c-1.08,0.26-1.9,0.1-3.05-0.52
	C321.05,328.78,320.47,327.92,320.08,326.51z"/>
<path class="st0" d="M329.72,327.23c-0.37,0.42-0.98,2.13-0.56,2.7c0.66,0.88,1.33,1.23,1.81,1.5c0.46,0.25,1.11,0.57,1.81,0.65
	c0.98,0.1,1.66-0.08,1.9-0.68c0.42-1.04-0.22-2.74-0.88-3.69c-0.54-0.78-1.09-1.7-2.13-1.7
	C330.83,325.99,330.2,326.69,329.72,327.23z"/>
<path class="st0" d="M314.26,327.67c-0.9,0.96-1.13,1.86-1.23,2.49c-0.2,1.26,0.55,2.53,1.54,2.67c0.59,0.08,1.73-0.15,2.75-0.73
	c1.13-0.65,2.02-1.66,2.02-2.5c0-0.74-1.37-2.98-3.06-3.23C315.66,326.27,315.17,326.7,314.26,327.67z"/>
<path class="st0" d="M241.65,329.95c-0.34,0.54-0.48,1.39-0.4,2.38c0.09,1.11,0.61,1.82,1.47,2.08c1.08,0.33,2.43-0.45,2.94-0.86
	c0.52-0.42,1.24-1.24,0.93-2.51c-0.3-1.21-1.92-1.96-2.83-1.96C242.9,329.08,241.97,329.46,241.65,329.95z"/>
<path class="st0" d="M246.85,328.42c-0.19-0.55-0.4-1.17-0.11-1.72c0.51-0.98,2.21-1.01,3.74-1.01c3.23,0,3.8,1.13,4.07,2.08
	c0.47,1.64-1.31,4.17-3.55,4.32C248.24,332.27,246.95,328.71,246.85,328.42z"/>
<path class="st0" d="M256.31,329.92c0.22-0.99,0.82-1.66,1.72-1.86c2.13-0.47,4.67,3.31,4.48,4.98c-0.08,0.7-0.87,0.82-1.64,0.82
	c-2.15,0-3.47-0.24-4.26-1.83C256.48,331.77,256.08,330.95,256.31,329.92z"/>
<path class="st0" d="M313.74,348.48c-0.33-0.74-1.56-0.9-2.74-0.37s-1.7,2.07-1.5,2.3c0.66,0.76,2.02,0.77,2.82,0.33
	C313.37,350.15,314.07,349.21,313.74,348.48z"/>
<path class="st0" d="M309.64,350.43c0-0.86-1.77-1.44-3.43-1.36c-1.66,0.07-3.04,0.52-2.95,1.6c0.08,0.9,2.29,1.77,3.44,1.51
	C308.26,351.82,309.64,350.92,309.64,350.43z"/>
<path class="st0" d="M297.1,350.4c-0.14,0.69,0.68,1.25,1.29,1.58c1.18,0.64,2.03,0.89,3.21,0.47c0.53-0.19,1.4-0.53,1.65-1.1
	c0.15-0.35,0.09-1.14-0.81-1.65c-0.81-0.47-2.05-0.73-3.98-0.22C297.7,349.69,297.15,350.17,297.1,350.4z"/>
<path class="st0" d="M272.39,351.48c-0.28,0.94-2.49,1.56-4.21,1.05c-1.71-0.51-2.86-2.08-2.58-3.02c0.28-0.94,2.05-0.98,3.76-0.47
	C271.07,349.55,272.67,350.54,272.39,351.48z"/>
<path class="st0" d="M279.03,351.73c0,0.39-1.08,1.67-3.09,1.67c-2.09,0-3.38-1.44-3.38-1.83c0-0.86,1.45-1.41,3.23-1.41
	C277.59,350.17,279.03,350.87,279.03,351.73z"/>
<path class="st0" d="M285.09,350.97c0,0.89-1.47,1.99-2.99,1.99c-1.03,0-2.97-0.83-2.97-1.73c0-0.89,1.37-1.59,2.89-1.59
	S285.09,350.08,285.09,350.97z"/>
<path class="st0" d="M281.48,250c-0.6-0.8,0.17-1.45-0.33-2.38c-0.8-1.48-3.27-0.72-4.59-2.54c-0.14-0.2-0.64-0.89-0.41-1.31
	c0.39-0.71,2.75-0.61,4.26,0.57c1.48,1.16,1.8,3.09,1.97,3.03c0.25-0.08-1.38-3.79,0-5.17c0.35-0.34,0.94-0.61,1.31-0.41
	c1.02,0.55-0.35,4.36,0.25,4.59c0.36,0.14,0.88-1.22,2.38-2.54c1.1-0.97,3.35-2.47,4.43-1.72c0.66,0.45,0.89,1.73,0.41,2.46
	c-0.63,0.95-2,0.21-4.02,1.31c-0.6,0.33-1.7,0.93-2.05,2.05c-0.35,1.13,0.36,1.78-0.08,2.38C284.4,251.13,282.25,251.03,281.48,250z
	"/>
<path class="st0" d="M284.84,309.53c1.12,0.77,2.44-1.02,4.67-0.93c2.72,0.11,4.46,1.56,5.82,2.32c0.41,0.23,1.2-0.54,1.07-0.98
	c-0.25-0.79-4.91-2.32-6.75-2.41c-1.27-0.06-3.75,0.09-4.89,1.04C284.38,308.89,284.41,309.23,284.84,309.53z"/>
<path class="st0" d="M285.17,314.15c-0.06-1.16,2.14-2.46,4.62-2.57c2.94-0.13,6.12,1.19,6.04,2.46c-0.03,0.47-0.34,1.1-0.77,0.82
	c-1.12-0.74-2.9-2.08-5.06-2.05c-2.03,0.03-2.92,1.42-3.99,1.94C285.62,314.95,285.19,314.58,285.17,314.15z"/>
<path class="st0" d="M287.17,316.94c0.21-0.76,0.85-1.19,2.32-1.61c2.48-0.72,5.13,0.84,5,1.64c-0.06,0.39-0.65,0.71-1.28,0.68
	c-0.6-0.03-1.16-1.49-2.71-1.31c-2.21,0.25-1.29,1.55-2.46,1.69C287.47,318.11,286.98,317.62,287.17,316.94z"/>
<path class="st0" d="M279.57,317.73c0,0-1.78-3.18-4.24-7.13c-2.1-3.39-4.24-7.71-4.12-8.07c0.25-0.75,1.02-0.72,1.17-0.51
	c0.28,0.4,2.67,4.68,4.48,8.36c4.78,9.73,6.03,9.36,8.56,17.96c1.72,5.87,2.26,10,0.74,10.8c-0.78,0.41-1.63-0.3-3.03,0.33
	c-1.6,0.72-2.65,2.62-2.21,3.28c0.34,0.51,1.26-0.16,2.82,0.19c2.09,0.47,4.09,2.48,4.05,4.26c-0.02,0.86-0.51,1.28-0.22,1.86
	c0.38,0.75,1.91,1,2.6,0.96c1.47-0.09,2.73-0.77,4.67-4.35c1.15-2.1,2.66-7.44,3.83-12.68c1.33-6,2.1-7.98,2.87-11.59
	c1.04-4.88,1.3-8,2.68-11.92c1.74-4.95,4.98-10.67,7.22-10.24c0.59,0.11,0.68,0.15,0.68,0.72c0,0.41-1.93,1.89-3.79,4.16
	c-1.45,1.77-2.98,6.26-3.53,8.71c-0.3,1.35-0.33,2.6-0.33,2.6s1.87,0.29,2.85,0.02c2.75-0.76,3.63-1.66,4.12-1.91
	c0.91-0.45,1.06-0.03,1,0.62c-0.07,0.92-2.52,1.96-4.26,2.39c-2.86,0.7-4.31,0.71-4.31,0.71s-1,4.16-1.39,5.92
	c-0.44,1.97-0.88,3.6-2.97,11.62c-1.04,3.96-1.8,7.4-2.54,9.55c-1.05,3.05-1.69,3.85-2.92,5.57c-0.96,1.36-2.14,1.68-3.28,1.69
	c-0.63,0-3.12-0.41-5.21-1.97c-3.94-2.95-5.87-4.89-6.01-6.62c-0.12-1.61,0.37-3.31,1.62-4.2c1.68-1.19,3.01-0.26,4.05-1.2
	c0.83-0.76,1.01-2.3-0.87-8.86c-1.66-5.78-4.1-9.51-4.1-9.51s-3.06,0.39-8.26-0.14c-2.95-0.3-7.3-2.21-8.88-3.77
	c-0.41-0.4,0.53-1.09,0.98-0.71c0.87,0.72,4.87,2.49,7.52,3.09C274.69,318.44,279.57,317.73,279.57,317.73z"/>
<path class="st0" d="M280.96,343.56c0.06-0.61,0.3-0.96,2.76-0.63c2.14,0.29,3.86,2.55,4.05,4.26c0.03,0.27-0.19,1.63-0.49,1.86
	C286.63,349.54,280.9,344.14,280.96,343.56z"/>
</svg>
