<?xml version="1.0" encoding="utf-8"?>
<!-- Generator: Adobe Illustrator 26.5.0, SVG Export Plug-In . SVG Version: 6.00 Build 0)  -->
<svg version="1.1" id="Layer_1" xmlns="http://www.w3.org/2000/svg" xmlns:xlink="http://www.w3.org/1999/xlink" x="0px" y="0px"
	 viewBox="0 0 566.93 566.93" style="enable-background:new 0 0 566.93 566.93;" xml:space="preserve">
<style type="text/css">
	.st0{fill:none;stroke:#5ABA47;stroke-miterlimit:10;}
</style>
<ellipse class="st0" cx="326.89" cy="287.9" rx="5.11" ry="7.98"/>
<ellipse transform="matrix(0.9825 -0.1861 0.1861 0.9825 -49.4963 52.9854)" class="st0" cx="257.46" cy="290.11" rx="5.11" ry="7.98"/>
<path class="st0" d="M342.87,353.6c-0.24-0.86-0.34-2.64,0.4-3.17c1.23-0.88,2.28-1.16,6.17-1.22c3.53-0.05,4.35,0.13,5.24,1.27
	c0.47,0.6,0.44,2.52,0.18,3.71c-0.22,1-1.49,4.18-3.95,4.77c-1.75,0.42-3.08,0.16-4.95-0.84
	C344.45,357.29,343.52,355.88,342.87,353.6z"/>
<path class="st0" d="M358.53,354.76c-0.61,0.68-1.59,3.47-0.92,4.38c1.07,1.43,2.16,2,2.95,2.43c0.75,0.41,1.8,0.93,2.95,1.05
	c1.6,0.17,2.69-0.13,3.09-1.1c0.69-1.69-0.37-4.45-1.42-5.99c-0.87-1.26-1.76-2.75-3.45-2.76
	C360.33,352.75,359.32,353.88,358.53,354.76z"/>
<path class="st0" d="M333.42,355.48c-1.47,1.56-1.83,3.02-2,4.04c-0.33,2.05,0.9,4.11,2.51,4.33c0.96,0.13,2.81-0.24,4.46-1.19
	c1.84-1.05,3.29-2.69,3.29-4.05c0-1.21-2.22-4.84-4.98-5.25C335.69,353.21,334.9,353.9,333.42,355.48z"/>
<path class="st0" d="M215.51,359.19c-0.56,0.88-0.77,2.26-0.64,3.86c0.14,1.8,0.99,2.95,2.39,3.38c1.76,0.53,3.94-0.72,4.77-1.39
	c0.85-0.68,2.01-2.02,1.51-4.08c-0.48-1.96-3.11-3.19-4.6-3.19C217.54,357.77,216.02,358.38,215.51,359.19z"/>
<path class="st0" d="M223.95,356.7c-0.31-0.89-0.64-1.9-0.18-2.8c0.83-1.59,3.59-1.64,6.08-1.64c5.24,0,6.17,1.83,6.61,3.37
	c0.76,2.67-2.12,6.77-5.77,7.01C226.2,362.95,224.11,357.17,223.95,356.7z"/>
<path class="st0" d="M239.31,359.14c0.35-1.6,1.33-2.69,2.8-3.02c3.45-0.77,7.59,5.37,7.28,8.08c-0.13,1.14-1.42,1.33-2.66,1.33
	c-3.49,0-5.63-0.39-6.93-2.97C239.59,362.15,238.94,360.8,239.31,359.14z"/>
<path class="st0" d="M332.58,389.27c-0.54-1.2-2.54-1.46-4.46-0.6c-1.92,0.87-2.76,3.36-2.43,3.74c1.07,1.24,3.27,1.26,4.57,0.53
	C331.98,392,333.12,390.47,332.58,389.27z"/>
<path class="st0" d="M325.92,392.44c0-1.4-2.88-2.33-5.57-2.21c-2.7,0.12-4.94,0.84-4.78,2.6c0.13,1.46,3.73,2.88,5.59,2.46
	C323.67,394.7,325.92,393.24,325.92,392.44z"/>
<path class="st0" d="M305.56,392.39c-0.23,1.11,1.11,2.03,2.1,2.57c1.92,1.05,3.29,1.45,5.21,0.77c0.86-0.3,2.27-0.86,2.67-1.79
	c0.24-0.56,0.14-1.85-1.31-2.69c-1.31-0.76-3.34-1.19-6.46-0.36C306.54,391.24,305.64,392.02,305.56,392.39z"/>
<path class="st0" d="M265.43,394.15c-0.45,1.52-4.05,2.53-6.84,1.71c-2.78-0.83-4.65-3.38-4.2-4.9c0.45-1.52,3.32-1.59,6.11-0.76
	C263.29,391.02,265.88,392.63,265.43,394.15z"/>
<path class="st0" d="M276.22,394.56c0,0.63-1.75,2.72-5.02,2.72c-3.4,0-5.48-2.34-5.48-2.97c0-1.4,2.35-2.29,5.25-2.29
	S276.22,393.16,276.22,394.56z"/>
<path class="st0" d="M286.05,393.33c0,1.45-2.39,3.23-4.86,3.23c-1.67,0-4.82-1.35-4.82-2.81c0-1.45,2.22-2.57,4.69-2.57
	S286.05,391.87,286.05,393.33z"/>
<path class="st0" d="M280.19,229.34c-0.97-1.3,0.28-2.36-0.53-3.86c-1.3-2.41-5.31-1.16-7.46-4.13c-0.23-0.32-1.04-1.44-0.67-2.13
	c0.63-1.15,4.47-0.99,6.93,0.93c2.4,1.88,2.92,5.02,3.2,4.93c0.4-0.13-2.25-6.15,0-8.39c0.56-0.56,1.53-0.99,2.13-0.67
	c1.66,0.9-0.57,7.08,0.4,7.46c0.58,0.22,1.44-1.99,3.86-4.13c1.79-1.58,5.44-4,7.19-2.8c1.07,0.73,1.45,2.81,0.67,4
	c-1.03,1.55-3.25,0.35-6.53,2.13c-0.98,0.54-2.76,1.5-3.33,3.33c-0.57,1.84,0.59,2.9-0.13,3.86
	C284.94,231.19,281.44,231.02,280.19,229.34z"/>
<path class="st0" d="M285.65,326.03c1.82,1.25,3.96-1.65,7.59-1.51c4.42,0.18,7.24,2.53,9.46,3.77c0.67,0.37,1.96-0.88,1.73-1.6
	c-0.4-1.29-7.97-3.77-10.97-3.91c-2.06-0.09-6.09,0.14-7.95,1.69C284.91,324.98,284.94,325.54,285.65,326.03z"/>
<path class="st0" d="M286.18,333.53c-0.1-1.88,3.48-4,7.5-4.17c4.77-0.21,9.94,1.94,9.81,4c-0.05,0.76-0.55,1.79-1.24,1.34
	c-1.82-1.2-4.72-3.38-8.21-3.34c-3.29,0.05-4.75,2.31-6.48,3.15C286.92,334.82,286.22,334.22,286.18,333.53z"/>
<path class="st0" d="M289.43,338.06c0.34-1.23,1.38-1.93,3.77-2.62c4.03-1.17,8.33,1.36,8.12,2.66c-0.1,0.63-1.06,1.16-2.09,1.11
	c-0.98-0.04-1.88-2.42-4.39-2.13c-3.6,0.41-2.09,2.51-4,2.75C289.91,339.95,289.11,339.17,289.43,338.06z"/>
<path class="st0" d="M277.08,339.35c0,0-2.9-5.17-6.88-11.59c-3.42-5.5-6.88-12.52-6.69-13.11c0.4-1.22,1.66-1.17,1.89-0.83
	c0.46,0.65,4.34,7.6,7.28,13.58c7.77,15.8,9.8,15.2,13.9,29.17c2.8,9.53,3.67,16.23,1.2,17.54c-1.27,0.67-2.65-0.49-4.93,0.53
	c-2.6,1.17-4.3,4.25-3.6,5.33c0.55,0.83,2.05-0.25,4.57,0.31c3.39,0.76,6.65,4.03,6.57,6.93c-0.04,1.39-0.83,2.07-0.36,3.02
	c0.61,1.21,3.11,1.62,4.22,1.55c2.39-0.15,4.43-1.26,7.59-7.06c1.86-3.42,4.32-12.08,6.22-20.6c2.16-9.74,3.42-12.96,4.66-18.82
	c1.68-7.93,2.11-13,4.35-19.36c2.83-8.04,8.08-17.32,11.72-16.63c0.95,0.18,1.1,0.24,1.1,1.17c0,0.67-3.14,3.08-6.16,6.76
	c-2.35,2.87-4.83,10.17-5.73,14.15c-0.49,2.19-0.53,4.23-0.53,4.23s3.04,0.47,4.63,0.03c4.46-1.23,5.89-2.7,6.69-3.1
	c1.47-0.74,1.72-0.05,1.63,1c-0.12,1.5-4.09,3.19-6.93,3.87c-4.65,1.13-6.99,1.15-6.99,1.15s-1.63,6.76-2.26,9.62
	c-0.71,3.21-1.42,5.85-4.83,18.88c-1.68,6.43-2.93,12.02-4.13,15.52c-1.7,4.96-2.75,6.25-4.73,9.05c-1.56,2.2-3.48,2.73-5.32,2.74
	c-1.03,0.01-5.06-0.67-8.46-3.21c-6.41-4.79-9.54-7.94-9.76-10.74c-0.2-2.62,0.6-5.38,2.63-6.81c2.72-1.93,4.88-0.42,6.57-1.95
	c1.35-1.23,1.65-3.73-1.42-14.38c-2.7-9.38-6.66-15.45-6.66-15.45s-4.97,0.64-13.41-0.22c-4.79-0.49-11.85-3.6-14.43-6.13
	c-0.67-0.66,0.86-1.76,1.6-1.15c1.42,1.17,7.9,4.04,12.21,5.02C269.17,340.49,277.08,339.35,277.08,339.35z"/>
<path class="st0" d="M279.35,381.3c0.1-0.99,0.49-1.55,4.48-1.02c3.48,0.46,6.27,4.15,6.57,6.93c0.05,0.44-0.3,2.64-0.8,3.02
	C288.56,391,279.25,382.23,279.35,381.3z"/>
<circle class="st0" cx="283.46" cy="382.79" r="0.8"/>
<circle class="st0" cx="286.7" cy="385.52" r="0.8"/>
</svg>
