<?xml version="1.0" encoding="utf-8"?>
<!-- Generator: Adobe Illustrator 26.5.0, SVG Export Plug-In . SVG Version: 6.00 Build 0)  -->
<svg version="1.1" id="Layer_1" xmlns="http://www.w3.org/2000/svg" xmlns:xlink="http://www.w3.org/1999/xlink" x="0px" y="0px"
	 viewBox="0 0 566.93 566.93" style="enable-background:new 0 0 566.93 566.93;" xml:space="preserve">
<style type="text/css">
	.st0{fill:none;stroke:#5ABA47;stroke-miterlimit:10;}
</style>
<path class="st0" d="M239.54,408.56c-6.26,0-18.05-1.05-26.68-8.12c-4.03-3.31-14.27-15.49-13.23-31.98
	c0.64-10.26,5.51-19.33,12.63-24.52c-0.25,0-0.51,0.01-0.76,0.01c-7.14,0-13.85-1.59-19.42-4.59c-12.01-6.48-16.98-17.4-19.1-22.07
	c-2.9-6.38-3.38-10.9-3.81-14.9c-0.25-2.35-0.47-4.38-1.19-7.1c-1.38-5.18-3.03-7.23-7.04-12.17c-2.59-3.2-5.81-7.18-9.74-13.09
	c-11.43-17.19-17.39-29.35-16.2-44.33c1.11-13.92,8.23-32.18,24.67-37.79c7.69-2.63,15.43-3.96,23-3.96
	c24.92,0,42.42,14.1,51.12,23.19c10.08-5.93,28.38-15.1,45.99-15.68c0.9-0.03,1.8-0.04,2.7-0.04c15.05,0,28.92,4.07,36.81,6.93
	c5.92-5.86,16.87-15.87,31.28-25.46c9.38-6.24,24.72-12.91,39.67-12.91c3.32,0,6.53,0.33,9.54,0.99
	c22.89,4.96,33.66,31.43,32.17,53.81c-0.4,5.98-2.15,11.33-5.65,21.97c-1.59,4.84-3.57,10.86-5.99,18.66
	c-0.92,2.97-1.74,5.59-2.46,7.92c-4.81,15.42-5.35,17.27-5.81,21.93c-0.31,3.12-0.49,5.76-0.65,8.08
	c-0.49,7.21-0.88,12.91-4.77,20.17c-6.16,11.48-16.83,18.72-28.57,19.38c-1.54,0.09-3.08,0.13-4.57,0.13
	c-9.52,0-16.55-1.73-21.52-3.74c-1.57,1.59-3.44,3.24-5.58,4.75c-0.01,0.01-0.02,0.01-0.03,0.02c0.2,0.4,0.39,0.8,0.56,1.2
	c1.01-0.07,2.06-0.13,3.1-0.19c0.37-0.02,0.75-0.03,1.13-0.03c10.52,0,22.76,7.18,28.46,16.7c8.87,14.81,5.74,35.06-7.13,46.09
	c-6.05,5.19-14.63,8.17-23.52,8.17c-5.2,0-10.06-1.04-13.69-2.93c-0.43-0.22-0.9-0.48-1.38-0.77c-1.81,0.73-3.71,1.1-5.65,1.1
	c-0.07,0-0.15,0-0.22,0c-1.54,0.76-3.34,1.45-5.22,1.77c-0.75,0.12-1.53,0.19-2.31,0.19c-1.24,0-2.44-0.16-3.55-0.42
	c-1.68,0.65-3.59,1.06-5.7,1.11l-0.3,0c-2.21,0-4.27-0.56-6.07-1.32c-2.35,0.88-5.19,1.66-8.05,1.83c-0.37,0.02-0.75,0.03-1.13,0.03
	c-2.9,0-5.72-0.63-8.1-1.43c-1.55,0.69-3.3,1.18-5.26,1.37c-0.4,0.04-0.8,0.06-1.21,0.06c-1.27,0-2.49-0.19-3.63-0.49
	c-1.68,0.71-3.58,1.16-5.67,1.2l-0.4,0c-2.72,0-5.11-0.57-7.13-1.48c-1.06,0.2-2.21,0.32-3.45,0.32c-1.35,0-2.73-0.15-4.1-0.44
	c-1-0.21-1.94-0.52-2.81-0.9c-2.75,1.77-6.02,3.25-9.51,3.56C242.82,408.49,241.18,408.56,239.54,408.56z"/>
<path class="st0" d="M231.78,220.26c0,0,25.46-18.05,48.33-18.8c21.66-0.71,41.7,8.68,41.7,8.68s13.34-14.97,34.3-28.92
	c9.17-6.11,26.81-13.67,41.55-10.48c17.68,3.83,25.43,26.54,24.31,43.37c-0.47,7.03-3.77,14.33-11.21,38.33
	c-7.03,22.66-8.01,25.12-8.68,31.82c-1.28,12.78-0.42,17.31-4.29,24.52c-3.64,6.79-10.63,13.58-20.31,14.12
	c-20.31,1.13-27.97-6.53-27.97-6.53s-3.18,5.44-8.9,9.47c-5.05,3.56-10.14,6.71-10.14,6.71s4.32,1.43,6.53,5.22
	c2.11,3.63,2.46,8.17,2.46,8.17s5.6-0.63,11.05-0.9c6.59-0.33,16.23,4.67,20.52,11.82c6.18,10.31,4.52,25.15-5.06,33.36
	c-7.97,6.83-20.64,6.79-26.07,3.96c-2.38-1.24-6.87-4.34-6.87-4.34s-1.06,2.39-2.75,3.11c-2.33,1-4.17-0.07-4.17-0.07
	s-2.77,2.03-4.95,2.4c-2.32,0.39-5.35-1.51-5.35-1.51s-1.43,2.18-4.79,2.25c-2.44,0.05-5.51-2.61-5.51-2.61s-4.97,2.89-9.26,3.13
	c-4.7,0.27-10.1-2.95-10.1-2.95s-1.18,2.62-4.75,2.95c-2.17,0.2-5.02-2.06-5.02-2.06s-1.53,2.73-4.77,2.8
	c-4.42,0.09-5.88-2.97-5.88-2.97s-2.31,2.57-6.93,1.6c-2.89-0.61-4.77-4.28-4.77-4.28s-5.65,6.34-10.5,6.77
	c-7.99,0.71-18.21-0.67-24.33-5.68c-1.47-1.2-10.42-10.43-9.59-23.62c0.54-8.6,5.43-17.36,13.32-19.36c8.3-2.1,19,1.95,19,1.95
	s-0.15-5.1,2.66-9.94c2.55-4.4,6.04-7.28,6.04-7.28s-2.9-2.16-7.1-6.39c-3.41-3.43-5.5-5.68-5.5-5.68s-4.41,3.8-7.1,5.86
	c-7.64,5.86-23.29,8.14-34.09,2.31c-9.05-4.88-12.9-13.35-14.74-17.4c-3.76-8.27-2.18-11.92-4.44-20.42
	c-3.05-11.5-8.2-13.31-18.11-28.23c-10.52-15.83-15.52-25.93-14.56-38c0.84-10.62,6.01-25.05,17.93-29.12
	C206.06,182.64,231.78,220.26,231.78,220.26z"/>
</svg>
