<?xml version="1.0" encoding="utf-8"?>
<!-- Generator: Adobe Illustrator 26.4.1, SVG Export Plug-In . SVG Version: 6.00 Build 0)  -->
<svg version="1.1" id="Layer_1" xmlns="http://www.w3.org/2000/svg" xmlns:xlink="http://www.w3.org/1999/xlink" x="0px" y="0px"
	 viewBox="0 0 566.9 566.9" style="enable-background:new 0 0 566.9 566.9;" xml:space="preserve">
<style type="text/css">
	.st0{fill:none;stroke:#A02990;stroke-miterlimit:10;}
	.st1{fill:none;stroke:#000000;stroke-miterlimit:10;}
</style>
<path class="st0" d="M274.4,493.5c-24.7,0-41.4-5.7-51.2-10.5c-7-3.4-11.6-10.1-12.4-17.8c-0.5-5.1-1.2-13.3-1.3-23.2
	c-0.1-9,1-19.5,2-26.7c1.1-8,6.8-14.7,14.6-17.1c24.4-7.3,42-11.6,52.4-12.7c2.8-0.3,6.3-0.5,10.4-0.5c13.9,0,34.8,1.8,43.9,3.8
	c0.4,0.1,0.9,0.2,1.3,0.3c3.6,0.7,9.7,1.9,13.6,8c9.6,15.2,13.1,49.4,12.5,57.5l-0.1,0.8c-0.6,9.2-4,13.6-16.9,22.1
	c-7.1,4.7-23.7,12.9-55.6,15.4C283.2,493.3,278.7,493.5,274.4,493.5z"/>
<path class="st0" d="M221.4,416.5c0.6-4.2,3.5-7.7,7.6-8.9c11.9-3.6,37.1-10.9,50.7-12.4c12.5-1.3,41.1,1,51,3.2
	c3.4,0.7,6.8,1,8.7,3.9c7.9,12.4,11.6,44.1,11,51.4c-0.4,5.4,0.2,7-12.6,15.4c-8,5.3-24.3,11.7-50.9,13.8c-30.6,2.4-50.1-4.5-59.2-9
	c-3.9-1.9-6.5-5.7-6.9-10c-0.5-5.1-1.2-12.9-1.3-22.3C219.4,433.3,220.5,423.1,221.4,416.5z"/>
<path class="st1" d="M361.2,320.2c-5.2,0-10.5-0.2-14.5-0.4c-4.2-0.3-9.6-0.7-13-3.9c-1.2,0.1-2.6,0.1-3.9,0.1
	c-3.9,0-12.1,0-14.8-7.3c-1.8-4.7-2.1-11.4-2.5-21.1c-0.1-1.6-0.1-3.6-0.2-5.4c-3.8-0.6-8.9-1.3-13-1.7c-0.3,1.5-0.6,3.1-0.9,4.6
	c-1.5,7.9-3.3,17.8-6.4,26.1c-2.6,7-8.9,8.7-32.3,8.7c-5.3,0-10.4-0.1-14.3-0.4c-4.7-0.3-10.8-0.7-13.8-5.1
	c-1.6,2.5-4.7,4.7-10.5,5.2c-2,0.2-4.7,0.3-8.1,0.3c-6.3,0-13.3-0.3-17-0.5c-10.9-0.5-12.3-0.6-15.1-3.3c-2.7-2.5-7.2-6.8-13.5-52
	c-0.9-6.7-3.8-28.3-4.6-40.4c-4.7-2.8-8.1-5.9-10.2-11.5c-3.3-8.7-2.8-27.7-2.4-35.4c1.4-28.9,6.1-31.9,9.2-33.9
	c2.5-1.6,5.4-2.8,7.9-3.7c0.6-5.2,1.7-12.4,4.1-19.5c1.5-4.3,3.2-8.2,5-11.6c-4.7-2.7-7.6-7-8.2-12.3c-1.1-9.5,6.4-19.4,16.3-21.7
	c1.6-0.4,3.2-0.6,4.6-0.6c5.9,0,10.6,2.9,14.1,8.7c0,0.1,0.1,0.1,0.1,0.2c0.5-0.2,1-0.3,1.5-0.5c3-1,11-2.8,19.6-2.8
	c5.7,0,10.7,0.8,15,2.3c1.2,0.4,2.4,0.9,3.5,1.3c2.7-4.4,7.7-9.2,14.2-10.1c0.8-0.1,1.5-0.2,2.3-0.2c5.8,0,11.7,3,15.8,7.9
	c3.5,4.3,5.1,9.4,4.1,14.1c-1.3,6.6-6.7,10.1-10.3,12.2c1.1,3.1,2.3,6.7,3.5,10.6c1.4,4.5,2.4,8.5,3,11.9c4-0.3,8.7-0.9,12.7-2
	c3.3-0.9,15.3-3.8,30-3.8c11.7,0,22.6,1.8,32.2,5.5c20.1,7.6,31.8,20.4,37,27.4c1.6,2.1,3.9,5,6,7.3c-0.1-2.6,0.6-5.1,2.2-7.2
	c2.2-3.1,5.9-4.9,9.9-4.9c3.1,0,6,1.1,8.2,3.1c4,3.7,4.5,8.7,4.3,13.6c-0.2,6.6-0.4,10-2.7,15c-1.4,3.2-3.8,5.9-6.6,7.7
	c0.6,2.2,1,4.5,1.2,6.6c1,13,3.2,39.9-11.6,82.8c-3.2,9.3-5.2,16.1-6.7,21c-2,6.7-3.1,10.3-5.1,13.3
	C383.3,319.2,378.8,320.2,361.2,320.2z"/>
<path class="st1" d="M176.7,147c0,0,0-12.2,4.1-24.2c4.1-12.1,11.1-21.2,11.1-21.2s-13,0.5-13.9-7.1c-0.5-4.4,3.5-9.7,8.7-10.9
	c4.2-1,6.1,0.4,8,3.6c2.3,3.9,3.8,7.9,3.8,7.9s2-1.6,9.3-3.9c3.3-1.1,17.9-4.3,28.2-0.6c6.6,2.4,12.7,5.2,12.7,5.2l0,0l0,0
	c0.2-2.1,0.8-4.6,2.2-7.3c0,0,0,0,0-0.1c1.3-2.6,4.3-5.8,7.4-6.2c5.7-0.8,12,5.8,11.1,10.1c-0.5,2.5-3.4,4.2-6,5.8
	c-4.2,2.5-6.9,3.2-6.9,3.2s3.3,8.6,6.4,18.7c3.5,11.2,3.9,19.2,3.9,19.2s13.7,0,23.9-2.8c3.5-1,31-8.1,56,1.3
	c17.2,6.5,27.6,17.4,32.5,24c2.4,3.2,8.2,10.3,11.3,12.8c4.1,3.3,10.1,1.8,11.6-1.4c1.4-3.1,2.2-6.4,1.1-9.8
	c-0.8-2.4,2.5-2.9,3.6-1.9c0.7,0.6,1.2,1.8,1.1,6c-0.2,6.4-0.4,8.1-1.8,11.1c-1.1,2.5-3.5,4.3-5.6,4.6c-2.1,0.4-4-0.2-5-0.8
	c-0.2-0.1-0.4,0.1-0.3,0.3c1.1,2.4,4.1,9.5,4.5,15.2c1.1,13.5,2.8,38.7-11.1,78.8c-7,20.1-8.4,28.8-10.7,32.1
	c-1.4,2.1-37,1.7-37.4-0.2c-0.3-1.1-0.2-3.3-0.2-3.3c0.1,0.1-15.6,1.6-16.2-0.2c-2.6-7-1.2-30-3.6-31.3c-1.9-1.1-27.8-4.6-28.8-3.4
	c-2.5,2.7-4,23.2-9.2,37.3c-1.1,3.1-42.6,2.6-42.9,0.9c-3.4-17.2-8.3-45-8-45c0.3,0-5.3,24-8.6,45.2c-0.3,2.3-35.3,0.3-35.6,0
	c-7.1-6.8-16-86-15.2-91.2c-7.2-3.7-9.2-5.2-10.7-9c-3.9-10.1-1.8-54.4,2.9-57.4C169.6,148.1,176.7,147,176.7,147z"/>
</svg>
