<?xml version="1.0" encoding="utf-8"?>
<!-- Generator: Adobe Illustrator 26.4.1, SVG Export Plug-In . SVG Version: 6.00 Build 0)  -->
<svg version="1.1" id="Layer_1" xmlns="http://www.w3.org/2000/svg" xmlns:xlink="http://www.w3.org/1999/xlink" x="0px" y="0px"
	 viewBox="0 0 566.9 566.9" style="enable-background:new 0 0 566.9 566.9;" xml:space="preserve">
<style type="text/css">
	.st0{fill:none;stroke:#000000;stroke-miterlimit:10;}
	.st1{fill:none;stroke:#A02990;stroke-miterlimit:10;}
</style>
<path class="st0" d="M310.5,420.4c-1.3-0.4-2.7-1.2-2.8-2.7c-0.1-1.3,1-3,2.5-3.7c3-1.2,7.9,1.4,9,5.4c0.8,3.2-1.1,5.9-1.4,6.3
	c-1.4,1.9-4.3,4-6.1,3c-0.9-0.5-1.5-1.7-1.4-2.8c0.2-1.6,2-1.9,2-3.2C312.3,422.1,312.1,420.9,310.5,420.4z"/>
<path class="st0" d="M249.7,420.5c1.3-0.4,2.7-1.2,2.8-2.7c0.1-1.3-1-3-2.5-3.7c-3-1.2-7.9,1.4-9,5.4c-0.8,3.2,1.1,5.9,1.4,6.3
	c1.4,1.9,4.3,4,6.1,3c0.9-0.5,1.5-1.7,1.4-2.8c-0.2-1.6-2-1.9-2-3.2C248,422.2,248.2,420.9,249.7,420.5z"/>
<path class="st0" d="M273.8,463.1c-0.1-0.6-0.2-1.5,1-1.8c1.2-0.3,2.2,0.8,2.5,1.5c0.4,1,0.3,1.8,1.5,4c0.7,1.4,2.6,2.8,4.6,2.8
	c2.4,0.1,3.6-0.8,4.1-1.9c0.6-1.2,1.4-3.1,1.8-4.7c0.5-1.9,1.7-1.6,1.9-1.6c1,0.1,1.8,0.7,1.8,1.9c0,2.6-1.3,5.4-2.7,6.8
	c-3.1,3.3-9.6,2.5-12.6,0C275,467.9,274.1,465.2,273.8,463.1z"/>
<path class="st0" d="M200.6,120.9c0.8,0.9,0.4,7.7-0.1,8.2c-0.9,0.8-3.6,0.9-4.4-0.1c-0.5-0.7-0.6-7.4,0.1-8.1
	C197.3,119.7,199.4,119.6,200.6,120.9z"/>
<path class="st0" d="M245.8,120.9c0.8,0.9,0.4,7.7-0.1,8.2c-0.9,0.8-3.6,0.9-4.4-0.1c-0.5-0.7-0.6-7.4,0.1-8.1
	C242.5,119.7,244.6,119.6,245.8,120.9z"/>
<path class="st1" d="M314.3,272.2c-0.1-0.5-0.3-1.5,0-1.5c3.5-0.4,6.9,0,9.4,0.1c1.7,0.1,5.1,0.3,7.7,0.7c0,0,0,0.1,0-2
	c0-1.2,2.7-2.7,3.1,2c0.1,0.8,3.3,22.4,6,33.6c0,0.1-2.1,0.3-2.2,0.2c-1.5-6-6.4-31-6.4-31s-6.8,0.6-10.2,0.1
	c-0.7-0.1-0.6-0.6-1.7-0.9C318.9,273.2,314.4,272.5,314.3,272.2z"/>
<path class="st1" d="M347.8,306c-0.5,4.5-0.8,3.8-3.5,3.5c-3.4-0.4-3.7,0-3.7-3.7c0-1.9,1.7-3.4,3.7-3.4S348,304.1,347.8,306z"/>
<path class="st1" d="M355.5,306.3c-0.1,4.6-0.5,3.9-3.2,3.8c-3.4-0.1-3.7,0.3-4-3.3c-0.1-1.9,1.4-3.5,3.4-3.7
	C353.6,302.9,355.5,304.3,355.5,306.3z"/>
<path class="st1" d="M363.3,306.4c0.1,4.6-0.4,3.9-3.1,3.9c-3.4,0-3.7,0.4-4.1-3.2c-0.2-1.9,1.3-3.5,3.3-3.8
	C361.3,303.1,363.3,304.4,363.3,306.4z"/>
<path class="st1" d="M331.3,302.2c-0.1,4.6-0.6,3.8-3.3,3.8c-3.4-0.1-3.7,0.2-3.9-3.4c-0.1-1.9,1.5-3.5,3.4-3.6
	C329.5,298.8,331.4,300.3,331.3,302.2z"/>
<path class="st1" d="M338.5,301.7c0.3,4.6-0.2,3.9-2.9,4.1c-3.4,0.2-3.7,0.6-4.3-3c-0.3-1.9,1.1-3.6,3-3.9S338.4,299.7,338.5,301.7z
	"/>
<path class="st1" d="M248.5,305.8c-0.5,4.5-1,3.8-4.1,3.5c-4-0.4-4.3,0-4.3-3.7c0-1.9,2-3.4,4.3-3.4S248.7,303.9,248.5,305.8z"/>
<path class="st1" d="M257.4,306.1c-0.1,4.6-0.6,3.9-3.7,3.8c-4-0.1-4.3,0.3-4.6-3.3c-0.2-1.9,1.7-3.5,3.9-3.7
	C255.3,302.7,257.5,304.1,257.4,306.1z"/>
<path class="st1" d="M266.5,306.1c0.1,4.6-0.5,3.9-3.6,3.9c-4,0-4.3,0.4-4.7-3.2c-0.2-1.9,1.5-3.5,3.8-3.8
	C264.2,302.8,266.5,304.2,266.5,306.1z"/>
<path class="st1" d="M195.8,305.2c-0.3,4.6-0.8,3.8-3.9,3.7c-4-0.2-4.3,0.2-4.4-3.5c-0.1-1.9,1.8-3.5,4.1-3.6
	C193.8,301.7,195.9,303.2,195.8,305.2z"/>
<path class="st1" d="M204.7,305.6c-0.1,4.6-0.6,3.9-3.7,3.8c-4-0.1-4.3,0.3-4.6-3.3c-0.2-1.9,1.7-3.5,3.9-3.7
	C202.5,302.2,204.8,303.7,204.7,305.6z"/>
<path class="st1" d="M213.8,305.7c0.1,4.6-0.5,3.9-3.6,3.9c-4,0-4.3,0.4-4.7-3.2c-0.2-1.9,1.5-3.5,3.8-3.8
	C211.5,302.4,213.8,303.8,213.8,305.7z"/>
</svg>
