<?xml version="1.0" encoding="utf-8"?>
<!-- Generator: Adobe Illustrator 26.4.1, SVG Export Plug-In . SVG Version: 6.00 Build 0)  -->
<svg version="1.1" id="Layer_1" xmlns="http://www.w3.org/2000/svg" xmlns:xlink="http://www.w3.org/1999/xlink" x="0px" y="0px"
	 viewBox="0 0 566.9 566.9" style="enable-background:new 0 0 566.9 566.9;" xml:space="preserve">
<style type="text/css">
	.st0{fill:none;stroke:#A02990;stroke-miterlimit:10;}
	.st1{fill:none;stroke:#000000;stroke-miterlimit:10;}
</style>
<path class="st0" d="M395.4,213.3c-24.4,0-40.3-6.1-47.7-9.7c-4.5-2.2-7.5-6.5-8-11.5c-0.5-5-1.2-12.9-1.3-22.5
	c-0.1-8.5,1-18.6,1.9-25.6c0.7-5,4.2-9.1,9-10.5c23.6-7.1,41.2-11.4,51-12.4c2.5-0.3,5.7-0.4,9.5-0.4c14.7,0,34.3,1.9,42.1,3.6
	c0.5,0.1,1,0.2,1.5,0.3c3,0.6,6.4,1.3,8.4,4.5c8.2,12.9,11.9,44.9,11.3,52.7l-0.1,0.9c-0.4,5.6-1.2,8-13.4,16.1
	c-5.2,3.4-20.6,11.6-51.8,14.1C403.7,213.1,399.5,213.3,395.4,213.3z"/>
<path class="st0" d="M342.3,144.2c0.6-4.2,3.5-7.7,7.6-8.9c11.9-3.6,37.1-10.9,50.7-12.4c12.5-1.3,41.1,1,51,3.2
	c3.4,0.7,6.8,1,8.7,3.9c7.9,12.4,11.6,44.1,11,51.4c-0.4,5.4,0.2,7-12.6,15.4c-8,5.3-24.3,11.7-50.9,13.8c-30.6,2.4-50.1-4.5-59.2-9
	c-3.9-1.9-6.5-5.7-6.9-10c-0.5-5.1-1.2-12.9-1.3-22.3C340.3,161,341.4,150.8,342.3,144.2z"/>
<path class="st1" d="M246.6,446.7c-21.7,0-22.1-1.7-22.4-3.1c-0.1-0.4-0.2-1-0.2-1.6c-0.4,0-1,0.1-1.5,0.1c-1.5,0.1-4.5,0.3-7.2,0.3
	c-4.9,0-6.8-0.5-7.4-2.2c-1.4-3.8-1.7-11.3-2-18.6c-0.2-4.3-0.4-10.2-1-11.8c-3-0.9-20.2-3.3-25.8-3.3c-0.2,0-0.3,0-0.4,0
	c-0.8,1.7-1.7,6.9-2.6,11.4c-1.4,7.6-3.2,17.1-6,24.8c-0.5,1.3-1.3,3.5-24.8,3.5c-21.3,0-21.6-1.4-21.9-2.9c-2-10.1-4.6-24.2-6.3-34
	c-1.9,9-4.5,22-6.4,34.2c-0.3,2.1-2.1,2.8-12.3,2.8c-6.1,0-13-0.3-16.6-0.5c-9.3-0.5-9.4-0.5-10.1-1.1c-7.6-7.2-15.6-79.4-15.8-91.5
	c-6.5-3.4-8.9-5.3-10.5-9.5c-2.3-5.9-2.4-21.1-1.9-32.2c0.6-11.3,2-25.3,5.6-27.6c3.7-2.4,8.6-3.6,11.1-4.1
	c0.2-3.8,0.9-13.5,4.2-23.2c2.8-8.2,6.8-15,9.3-18.7c-4.6-0.5-11.4-2.3-12.2-8.6c-0.6-5.5,4.2-11.7,10.2-13.1c1.1-0.2,2-0.4,2.9-0.4
	c3.9,0,5.9,2.4,7.3,4.8c1.3,2.2,2.4,4.5,3.1,6.1c1.5-0.8,4-1.8,7.7-3c2.1-0.7,9.3-2.4,17.2-2.4c4.7,0,8.9,0.6,12.3,1.9
	c4.2,1.5,8.1,3.2,10.5,4.2c0.4-1.8,1.1-3.6,1.9-5.3l0-0.1c1.6-3.1,5-6.7,8.9-7.3c0.4-0.1,0.8-0.1,1.2-0.1c3.4,0,7.1,1.9,9.6,5
	c2,2.5,2.9,5.2,2.5,7.5c-0.7,3.4-4,5.4-6.9,7.1c-2.2,1.3-4.1,2.2-5.3,2.7c1.1,3.1,3.5,9.6,5.8,16.9c2.6,8.2,3.5,14.7,3.8,17.8
	c4-0.1,13.9-0.6,21.5-2.7c3.1-0.8,14.2-3.6,27.9-3.6c10.8,0,20.7,1.7,29.3,4.9c18.2,6.9,28.8,18.4,33.4,24.7
	c2.4,3.2,8.1,10.1,11,12.4c1.5,1.2,3,1.4,4.1,1.4c2.3,0,4-1.1,4.4-2.1c1.5-3.3,1.8-5.9,1-8.4c-0.4-1.2-0.2-2.4,0.4-3.4
	c0.7-1,2.1-1.6,3.5-1.6c1.1,0,2.1,0.4,2.9,1c1.4,1.3,1.9,3.3,1.8,7.5c-0.2,6.5-0.4,8.5-2,11.9c-1.4,3-4.2,5.3-7,5.8
	c-0.6,0.1-1.1,0.1-1.7,0.1c-0.2,0-0.5,0-0.7,0c1.3,3.4,2.9,8.3,3.3,12.4c1,12.4,3.1,38.3-11.2,79.6c-3.3,9.5-5.3,16.3-6.8,21.4
	c-1.8,5.9-2.7,9.2-4.1,11.2C264.6,445.3,263.7,446.7,246.6,446.7z"/>
<path class="st1" d="M62.1,281.4c0,0,0-12.2,4.1-24.2c4.1-12.1,11.1-21.2,11.1-21.2s-13,0.5-13.9-7.1c-0.5-4.4,3.5-9.7,8.7-10.9
	c4.2-1,6.1,0.4,8,3.6c2.3,3.9,3.8,7.9,3.8,7.9s2-1.6,9.3-3.9c3.3-1.1,17.9-4.3,28.2-0.6c6.6,2.4,12.7,5.2,12.7,5.2l0,0l0,0
	c0.2-2.1,0.8-4.6,2.2-7.3c0,0,0,0,0-0.1c1.3-2.6,4.3-5.8,7.4-6.2c5.7-0.8,12,5.8,11.1,10.1c-0.5,2.5-3.4,4.2-6,5.8
	c-4.2,2.5-6.9,3.2-6.9,3.2s3.3,8.6,6.4,18.7c3.5,11.2,3.9,19.2,3.9,19.2s13.7,0,23.9-2.8c3.5-1,31-8.1,56,1.3
	c17.2,6.5,27.6,17.4,32.5,24c2.4,3.2,8.2,10.3,11.3,12.8c4.1,3.3,10.1,1.8,11.6-1.4c1.4-3.1,2.2-6.4,1.1-9.8
	c-0.8-2.4,2.5-2.9,3.6-1.9c0.7,0.6,1.2,1.8,1.1,6c-0.2,6.4-0.4,8.1-1.8,11.1c-1.1,2.5-3.5,4.3-5.6,4.6c-2.1,0.4-4-0.2-5-0.8
	c-0.2-0.1-0.4,0.1-0.3,0.3c1.1,2.4,4.1,9.5,4.5,15.2c1.1,13.5,2.8,38.7-11.1,78.8c-7,20.1-8.4,28.8-10.7,32.1
	c-1.4,2.1-37,1.7-37.4-0.2c-0.3-1.1-0.2-3.3-0.2-3.3c0.1,0.1-15.6,1.6-16.2-0.2c-2.6-7-1.2-30-3.6-31.3c-1.9-1.1-27.8-4.6-28.8-3.4
	c-2.5,2.7-4,23.2-9.2,37.3c-1.1,3.1-42.6,2.6-42.9,0.9c-3.4-17.2-8.3-45-8-45c0.3,0-5.3,24-8.6,45.2c-0.3,2.3-35.3,0.3-35.6,0
	c-7.1-6.8-16-86-15.2-91.2c-7.2-3.7-9.2-5.2-10.7-9c-3.9-10.1-1.8-54.4,2.9-57.4C54.9,282.4,62.1,281.4,62.1,281.4z"/>
<path class="st1" d="M515.9,254.3c-0.7,0-1.4-0.2-2-0.5c-1.6-0.9-2.7-2.9-2.5-4.7c0.2-1.5,1.1-2.4,1.7-2.9c0.1-0.1,0.2-0.2,0.3-0.3
	c0-0.2-0.1-0.3-0.3-0.3c-2.5-0.8-4-2.3-4.2-4.3c-0.2-2.2,1.4-4.8,3.7-5.7c0.7-0.3,1.6-0.5,2.4-0.5c3.5,0,8.1,2.8,9.3,7.2
	c1,3.9-1.1,7.1-1.7,8C521.1,252.2,518.4,254.3,515.9,254.3z"/>
<path class="st1" d="M513.7,243.7c-1.3-0.4-2.7-1.2-2.8-2.7c-0.1-1.3,1-3,2.5-3.7c3-1.2,7.9,1.4,9,5.4c0.8,3.2-1.1,5.9-1.4,6.3
	c-1.4,1.9-4.3,4-6.1,3c-0.9-0.5-1.5-1.7-1.4-2.7c0.2-1.6,2-1.9,2-3.2C515.4,245.4,515.3,244.1,513.7,243.7z"/>
<path class="st1" d="M450.7,254.4c-2.5,0-5.2-2.1-6.6-4c-0.7-0.9-2.8-4.1-1.7-8c1.2-4.4,5.7-7.2,9.3-7.2c0.9,0,1.7,0.2,2.4,0.5
	c2.3,1,3.9,3.5,3.7,5.7c-0.2,2-1.7,3.6-4.2,4.3c-0.2,0.1-0.3,0.1-0.3,0.3c0.1,0.1,0.2,0.2,0.3,0.3c0.6,0.5,1.5,1.4,1.7,2.9
	c0.2,1.8-0.8,3.9-2.5,4.7C452.1,254.2,451.4,254.4,450.7,254.4C450.7,254.4,450.7,254.4,450.7,254.4z"/>
<path class="st1" d="M452.9,243.7c1.3-0.4,2.7-1.2,2.8-2.7c0.1-1.3-1-3-2.5-3.7c-3-1.2-7.9,1.4-9,5.4c-0.8,3.2,1.1,5.9,1.4,6.3
	c1.4,1.9,4.3,4,6.1,3c0.9-0.5,1.5-1.7,1.4-2.8c-0.2-1.6-2-1.9-2-3.2C451.1,245.4,451.3,244.2,452.9,243.7z"/>
<path class="st1" d="M487.6,297.7c-3,0-6-1-8-2.6c-2.7-2.2-4.2-4.9-4.6-8.4c-0.4-3.1,1.8-3.9,2.5-4c0.3-0.1,0.6-0.1,0.9-0.1
	c2,0,3.5,1.7,4,2.8c0.2,0.5,0.3,0.9,0.4,1.3c0.2,0.6,0.3,1.3,1,2.5c0.5,0.8,1.7,1.8,2.9,1.8l0.2,0c0.8,0,1.8-0.1,2.1-0.8
	c0.8-1.7,1.4-3.2,1.7-4.3c0.5-2,1.8-3.1,3.6-3.1c0.2,0,0.3,0,0.4,0c2.1,0.1,3.6,1.7,3.6,3.9c0,3.3-1.6,6.5-3.3,8.2
	C493.2,296.7,490.6,297.7,487.6,297.7z"/>
<path class="st1" d="M477,286.4c-0.1-0.6-0.2-1.5,1-1.8c1.2-0.3,2.2,0.8,2.5,1.5c0.4,1,0.3,1.8,1.5,4c0.7,1.4,2.6,2.8,4.6,2.8
	c2.4,0.1,3.6-0.8,4.1-1.9c0.6-1.2,1.4-3.1,1.8-4.7c0.5-1.9,1.7-1.6,1.9-1.6c1,0.1,1.8,0.7,1.8,1.9c0,2.6-1.3,5.4-2.7,6.8
	c-3.1,3.3-9.6,2.5-12.6,0C478.1,291.2,477.3,288.5,477,286.4z"/>
<path class="st1" d="M397.4,264.8c-1.7,0-3-0.5-3.7-1.5c-1-1.3-1.3-9.1,0.3-10.7c0.9-0.9,2.2-1.5,3.6-1.5c1.4,0,2.7,0.6,3.7,1.6
	c0.3,0.4,1.3,1.4,0.9,6.9c-0.2,2.8-0.6,3.6-1.2,4.1C399.7,264.7,398,264.8,397.4,264.8z"/>
<path class="st1" d="M399.7,254.1c0.8,0.9,0.4,7.7-0.1,8.2c-0.9,0.8-3.6,0.9-4.4-0.1c-0.5-0.7-0.6-7.4,0.1-8.1
	C396.4,252.9,398.5,252.8,399.7,254.1z"/>
<path class="st0" d="M364.6,325.9c-0.3,0-0.7,0-1.1-0.1c-0.3,0-0.6,0-1-0.1l-0.9,0c-4-0.1-5.2-0.9-5.4-5.3c-0.1-3,2.5-5.4,6-5.6
	c0.1,0,0.2,0,0.3,0c1.8,0,3.6,0.7,4.7,1.9c0.9,1,1.4,2.2,1.3,3.5C368.3,322.8,368.1,325.9,364.6,325.9z"/>
<path class="st0" d="M366.5,320c-0.3,4.6-0.8,3.8-3.9,3.7c-4-0.2-4.3,0.2-4.4-3.5c-0.1-1.9,1.8-3.5,4.1-3.6
	C364.5,316.6,366.6,318.1,366.5,320z"/>
</svg>
