<?xml version="1.0" encoding="utf-8"?>
<!-- Generator: Adobe Illustrator 26.4.1, SVG Export Plug-In . SVG Version: 6.00 Build 0)  -->
<svg version="1.1" id="Layer_1" xmlns="http://www.w3.org/2000/svg" xmlns:xlink="http://www.w3.org/1999/xlink" x="0px" y="0px"
	 viewBox="0 0 566.9 566.9" style="enable-background:new 0 0 566.9 566.9;" xml:space="preserve">
<style type="text/css">
	.st0{fill:none;stroke:#000000;stroke-miterlimit:10;}
	.st1{fill:none;stroke:#C61F4B;stroke-miterlimit:10;}
	.st2{fill:none;stroke:#335CAA;stroke-miterlimit:10;}
</style>
<path class="st0" d="M443.4,230.9c-2.1,0-4.1,0-6.1-0.1c-18-0.3-27-0.5-35.6-3c-25-7.4-39.4-25.9-48.9-38.2
	c-12.2-15.8-24.9-32.1-26.2-57c-1.3-26.2,10.2-52.4,30.2-68.4c21.3-17.1,46.5-18,57.3-18.5c1.3,0,2.5-0.1,3.8-0.1
	c-0.1-1.3-0.2-2.7-0.2-4.2c0.1-4.5,1.2-15.9,10-24.4c5.8-5.6,13.7-8.5,22.8-8.5c11.7,0,21.9,4.7,24.8,6.2
	c5.3,2.6,17.5,8.8,20.2,21.6c0.9,4.1,0.7,8.3,0.1,12.1c0.7,0.1,1.4,0.1,2.1,0.2c4.7,0.5,11.8,2.2,18.4,7.1c3.2,2.4,4.8,4.3,5.9,5.8
	c0.7,0.9,0.9,1.2,1.7,1.8c1.9,1.5,3.5,1.8,6.9,2.4c1.3,0.2,2.9,0.5,4.5,0.9c15,3.7,24.4,13.8,27.9,17.7c6.9,7.5,9.8,15.6,14.5,29.1
	c5.1,14.7,8,22.8,8.8,34c0.5,6.3,1.8,25.4-8.4,45.6c-3.4,6.6-9.6,19-23.5,27.8c-13.5,8.6-27,9.1-45.5,9.8c-1.6,0.1-3.3,0.1-5.2,0.1
	c-9.3,0-19.6-0.7-22.4-0.9C477.6,230,459.4,230.9,443.4,230.9z"/>
<path class="st0" d="M432,56.7c-1.3-2.1-4.5-7.5-4.3-15c0-1.8,0.4-11,6.9-17.3c10.3-10,27.9-4.8,36.2-0.7c4.5,2.3,13.3,6.7,15,14.7
	c2,9.5-4.1,20.8-4.1,20.8s6-1.7,15-0.7c2.9,0.3,8.5,1.4,13.7,5.2c4,2.9,3.8,4.6,7.4,7.4c5.1,4,9.8,3.9,15.2,5.2
	c12.1,3,20,11.5,23,14.7c5.4,5.8,7.8,12.5,12.4,25.6c5,14.4,7.5,21.5,8.2,31.4c0.5,6.7,1.5,22.9-7.4,40.3c-3.1,6-8.4,16.5-20,23.9
	c-11.3,7.1-22.6,7.6-40.6,8.2c-11,0.4-27.1-0.9-27.1-0.9s-25.6,1.4-44,1.1c-17.1-0.3-25.7-0.5-33-2.6c-21.9-6.5-34.8-23.1-43.8-34.7
	c-11.8-15.2-23-29.6-24.1-51.4c-1.1-22.1,8.4-45.6,26.5-60.1c18.7-15,41-15.9,51.4-16.3C421.7,55.5,427.8,56.1,432,56.7z"/>
<path class="st1" d="M103.3,220.9c-2.1,0-4.1,0-6.1-0.1c-18-0.3-27-0.5-35.6-3c-25-7.4-39.4-25.9-48.9-38.2
	c-12.2-15.8-24.9-32.1-26.2-57c-1.3-26.2,10.2-52.4,30.2-68.4c21.3-17.1,46.5-18,57.3-18.5c1.4-0.1,2.8-0.1,4.2-0.1
	c3.8,0,7.6,0.2,11.4,0.6h2.1c1.9,0,5.4,0.5,8.2,4.2c2.6,3.5,5,5.6,6.2,6.4c0.9,0.5,1.6,1.1,2.3,1.8c0,0,3-6.8,3-6.8l7.2,0.8
	c3.4,0,14.1-1.9,20.8-3.2c1.4-0.4,5.6-1.2,11.4-1.2c2.3,0,4.6,0.1,6.9,0.4c4.7,0.5,11.8,2.2,18.4,7.1c3.2,2.4,4.8,4.3,5.9,5.8
	c0.7,0.9,0.9,1.2,1.7,1.8c1.9,1.5,3.5,1.8,6.9,2.4c1.3,0.2,2.9,0.5,4.5,0.9c15,3.7,24.4,13.8,27.9,17.7c6.9,7.5,9.8,15.6,14.5,29.1
	c5.1,14.7,8,22.8,8.8,34c0.5,6.3,1.8,25.4-8.4,45.6c-3.4,6.6-9.6,19-23.5,27.8c-13.5,8.6-27,9.1-45.5,9.8c-1.6,0.1-3.3,0.1-5.2,0.1
	c-9.3,0-19.6-0.7-22.4-0.9C137.6,220,119.4,220.9,103.3,220.9z"/>
<path class="st1" d="M92,46.7c-1.3-2.1,3.5,5.5,8.9,8.8c1.5,0.9-1.3,18.2,0.2,18.4c14.2,1.9,26.3,3.3,29.6,1
	c5.2-3.5-13.3-22.3-13.2-22.3c4.6,0.5,24-3.4,24-3.4s6-1.7,15-0.7c2.9,0.3,8.5,1.4,13.7,5.2c4,2.9,3.8,4.6,7.4,7.4
	c5.1,4,9.8,3.9,15.2,5.2c12.1,3,20,11.5,23,14.7c5.4,5.8,7.8,12.5,12.4,25.6c5,14.4,7.5,21.5,8.2,31.4c0.5,6.7,1.5,22.9-7.4,40.3
	c-3.1,6-8.4,16.5-20,23.9c-11.3,7.1-22.6,7.6-40.6,8.2c-11,0.4-27.1-0.9-27.1-0.9s-25.6,1.4-44,1.1c-17.1-0.3-25.7-0.5-33-2.6
	c-21.9-6.5-34.8-23.1-43.8-34.7c-11.8-15.2-23-29.6-24.1-51.4C-4.5,100.1,4.9,76.6,23,62.1c18.7-15,41-15.9,51.4-16.3
	C81.7,45.5,87.8,46.1,92,46.7z"/>
<path class="st2" d="M239.9,322.7c-0.8,0-1.6-0.1-2.4-0.2c-4.4-0.8-8-3.8-9.9-8.1c-2.1-4.8-1.9-10.3,0.7-14.4
	c3.2-5.1,9.3-6.9,22.6-9.3l1.7-0.3c4.8-0.9,10.2-1.8,14.1-1.8c9.5,0,12.4,6.4,12.6,10.3c0.1,1.7-0.2,4.9-3,7.9
	C271.9,311.4,248.4,322.7,239.9,322.7z"/>
<path class="st2" d="M236.8,305.3c1.4-2.3,12.4-4.1,16.7-4.9c3.9-0.7,15.7-3,15.8-1c0.1,2-25.3,14.1-30,13.2
	C236.6,312.2,235.4,307.5,236.8,305.3z"/>
<path class="st2" d="M97.7,393.1c-4.5,0-8.5-2-15.2-5.4c-1.8-0.9-3.8-1.9-6-3c-5.6-2.7-9.9-3.5-15.8-3.9c-2.2-0.2-4.3-0.2-6.5-0.2
	c-3,0-5.6,0.1-8.1,0.3c-2.2,0.1-4.3,0.2-6.5,0.2c-1.7,0-3.2-0.1-4.7-0.2c-7.2-0.8-12.5-6-13.3-13.1c-0.3-2.5-1.1-10.3,4.9-14.7
	c4-2.9,9.6-4.5,15.8-4.5c1.2,0,2.3,0.1,3.5,0.2c4.4,0.4,17.6,1.7,30.5,5.8c12.1,3.9,17.3,7.2,23.7,12.6c8.4,7.1,9.5,11.6,9.5,14.8
	c0,3.2-1.3,6.2-3.6,8.2C103.7,392,100.8,393.1,97.7,393.1z"/>
<path class="st2" d="M32.4,361c2.9-2.1,7.7-3,12.5-2.5c3.8,0.4,16.4,1.5,28.4,5.4c10.8,3.5,14.8,6.1,20.2,10.7
	c2.7,2.3,7.1,6.7,5.7,7.9c-2.2,2-7.6-1.6-18.5-6.9c-6.9-3.3-12.3-4.4-19.4-4.9c-11.9-0.9-19,0.8-25.4,0.1c-1.6-0.2-4.1-1-4.4-4.2
	C31.2,363.1,31.6,361.6,32.4,361z"/>
<path class="st2" d="M120.7,558.5c-3.6,0-7.1-1.6-9.9-4.4c-2.9-2.9-4.4-6.8-4.3-10.7c0.1-4.9-0.2-8.7-0.5-11
	c-0.8-8.7-4.3-18.5-6.7-25.6c-0.3-0.9-0.6-1.9-0.9-2.7c-2.2-6.4-2.4-6.8-5.8-13.3c-0.7-1.4-1.6-3.1-2.7-5.2
	c-2.1-4.1-4.5-6.9-8.6-11.5c-3.6-4.1-8.1-9.1-13.8-16.9c-4.4-5.9-2.3-11.2-1.3-13.2c1.3-2.5,4.7-6.6,12.7-6.6
	c4.1,0,8.7,1.1,12.7,2.9c7.9,3.7,12,9.6,18.1,18.9c7.8,11.9,11.4,17.5,14.6,25.1c5.4,12.6,9,25.8,10.6,32.5c1,4,3.6,14.7,1.2,28
	C134.1,556.7,125.6,558.5,120.7,558.5z"/>
<path class="st2" d="M75.5,451.2c-0.5-0.7-1-1.5-0.5-2.5c1.1-2,7.4-1.6,12.3,0.7c5.1,2.4,7.9,6,14,15.3
	c7.8,11.9,10.9,16.8,13.8,23.6c4.9,11.6,8.3,23.8,10.1,31c1,4,3.1,13,1.1,23.9c-0.8,4.1-2.3,5.3-5.6,5.3c-1.8,0-4.3-2.3-4.2-4.8
	c0.1-5.4-0.2-9.6-0.5-12.2c-1.1-11.1-5.5-22.8-8.2-30.6c-3-8.6-3-8-9-19.9C94,471.6,87.8,467.8,75.5,451.2z"/>
<path class="st2" d="M19.8,544.6c-3.7,0-6.6-1.4-7.8-1.9C1.4,537.6-3.8,528.4-10,516c-4.2-8.4-8-21.7-9-27.5
	c-2.7-17.2-0.6-33.2,6.1-46.1c2.3-4.5,5.8-10.2,13.9-18.6c2.3-2.4,5.2-4.8,7.5-6.3c1.5-1,5.5-3.2,9.7-3.2c1.7,0,3.2,0.3,4.7,1
	c5.7,2.5,8.7,7.8,7.9,14c-0.6,4.5-3.5,8.7-9.1,16.3c-2.1,2.8-4.2,5.7-6,8.4c-4,6.1-4.6,12.8-4.2,21.5c0.5,13.3,4.2,22.7,5.3,25.2
	c4,9.1,6.8,14.1,9.6,16.7c0.1,0.1,0.5,0.4,0.8,0.6c2,1.5,6.8,5.1,6.9,12.3c0.1,5.6-2.9,10.3-8.1,12.8
	C24.1,544.1,22,544.6,19.8,544.6z"/>
<path class="st2" d="M8.3,430.7c1.9-2,4.1-3.8,5.7-4.8c1.1-0.7,3.7-2,4.9-1.5c1,0.5,2.3,1.2,2,3.6c-0.4,3.4-8.2,12.3-13.5,20.5
	c-5.8,8.8-6.2,18-5.9,27.4c0.6,14.2,4.3,24.6,6.1,28.8c4.3,9.9,7.8,16.1,11.8,20c2,2,4.6,2.7,4.6,5.9c0,1.7-0.8,2.8-2.5,3.6
	c-2,0.9-4.2-0.1-5.3-0.6c-7.7-3.7-11.9-10.9-17.4-22c-3.7-7.4-7.2-19.6-8-24.6c-0.7-4.2-3.6-23.1,5.1-40
	C-2.2,443.7,0.6,438.7,8.3,430.7z"/>
<path class="st2" d="M163.5,461.8c-4.3,0-10.7-1.7-14.7-5.6c-13.1-12.5-18.6-34.2-20.4-42.9c-2.4-11.6-2.7-17-0.3-32.6
	c1.8-11.4,5.7-20.7,12.4-33.7c2.8-5.5,11.1-18.3,15.6-22.2c2.3-2,7-5.4,12.4-5.4c1.8,0,3.6,0.4,5.2,1.1c7.1,3.3,10.5,9.8,8.8,16.9
	c-1.6,6.8-6.7,15.5-13.1,26c-1.4,2.3-2.7,4.4-3.6,6c-6.5,11.3-5.7,27.7-5.6,29.5c0.5,7.5,2,14.8,4.3,20.5c0.2,0.5,4.8,12,10.6,22.2
	c4,7.1,1.2,12.5-0.8,15.1C172.9,458.7,169.6,461.8,163.5,461.8z"/>
<path class="st2" d="M149.5,351.6c2.8-5.5,10.4-16.7,13.2-19.2c1.4-1.2,4.8-3.7,6.8-2.7c2.9,1.4,3.8,3.3,3.3,5.5
	c-1.8,7.7-11.4,22-15.7,29.4c-7.2,12.5-7.2,29.1-6.9,35.1c0.5,7.9,2.1,16.4,5,23.6c1.3,3.2,5.8,13.9,11.1,23.4c1,1.7,1,2.8,0,4.1
	c-1.6,2.1-8.2,0.5-10.6-1.8c-8.9-8.5-14.8-24.1-17.5-37.7c-2.1-10.1-2.5-14.2-0.2-29.1C139.6,372.4,143,364.2,149.5,351.6z"/>
<path class="st2" d="M44.4,304.2c-1.4,0-2.8-0.3-4.1-0.8c-11-4.5-5.9-19.7-4.1-24.3c1.9-4.7,5.8-11.7,13.6-18.1
	c4.9-4,13.1-10.7,25.5-15.7c5.9-2.4,16.8-6.7,29.2-6.7c4.2,0,8.3,0.5,12.3,1.5c5.5,1.3,14.9,6.2,15.7,15.9
	c0.6,7.1-2.7,13.4-8.5,16.3c-2.5,1.3-5.2,1.9-8.1,1.9c-3.6,0-6.7-1-9.5-1.9c-1.7-0.5-3.2-1.1-4.7-1.3c-0.9-0.1-1.9-0.2-2.9-0.2
	c-6.2,0-14,2.7-23.9,8.2c-9.4,5.2-12.2,8.4-15.6,13.1c-0.7,0.9-1.3,1.8-1.9,2.6C53.5,300,50.4,304.2,44.4,304.2z"/>
<path class="st2" d="M45.5,282.9c1.3-3.3,4.3-8.9,10.7-14.1c4.9-4,12.2-9.9,22.9-14.2c8.9-3.6,21.5-8.2,35.3-4.8
	c2.3,0.6,7.8,3,8.2,7.1c0.2,2.7-0.6,5.3-3.1,6.6c-4.9,2.5-9.7-1.2-16.3-2.2c-10.6-1.6-22.2,3-33.1,9.1c-10.4,5.8-14.4,9.9-18.8,15.8
	c-4.3,5.7-6,8.5-7.2,8C42.8,293.7,43.5,287.8,45.5,282.9z"/>
<path class="st2" d="M185.6,288.6c-5.1,0-10.8-2.4-14.9-6.4c-3.5-3.4-4.5-6.6-5.2-8.7c-0.3-1.1-0.5-1.5-1-2.4
	c-1.3-1.9-2.9-3-4.6-4.1c-7.3-4.8-7.3-10.1-6.1-13.8c0.8-2.3,3.6-7.6,12.5-7.6c2.7,0,5.9,0.5,8.8,1.2c2.7,0.7,16.2,5.1,21.7,18.8
	c3.4,8.4,2.8,14.9-1.8,19.3C193.4,286.6,190.4,288.6,185.6,288.6z"/>
<path class="st2" d="M163.3,256.5c0.4-1.3,5.3-1.1,9.3,0c0.9,0.2,11.2,3.3,15,12.9c0.6,1.5,2.6,6.5,0.6,8.4c-2,1.9-7.4,0.3-10.6-2.7
	c-3-2.9-1.9-5-4.8-9.4C168.8,259.4,162.8,258,163.3,256.5z"/>
<path class="st2" d="M362.3,327.5c-2,0-4.4,0-7.6-0.1c-9.3-0.2-16.9-2.3-17.7-2.6l-2.6-0.8l-1.9-2c-3-3.2-2.9-5.7-2.5-12.4
	c0.1-1.6,0.3-4.8,0.4-7.4c-2.3-2.1-4.2-4.3-7.1-7.9c-6.3-7.8-7-19.9-7.1-21.3c-0.5-13,7.8-22.2,11.4-25.5c3.8-3.5,8.8-5.9,14.9-7.1
	c2.1-0.4,4.3-0.6,6.6-0.6c5.7,0,11.9,1.2,17.6,3.3c11.3,4.2,18.6,8.9,22.9,14.9c6.1,8.3,5.2,16.5,4.8,20c0,0.3-0.1,0.5-0.1,0.7
	c-0.2,3.2-1.4,7.4-2.4,10.2c-1.8,5-4.3,10.2-9.9,11.7c-1.8,0.5-3.9,0.9-6,1.3c4.5,6.8,6.5,12.1,3.2,18.4l-0.1,0.1
	C375.8,327.5,368,327.5,362.3,327.5z"/>
<path class="st2" d="M331.1,288c-4-4.9-4.8-13.8-4.8-15.4c-0.4-10,7.3-17,8.2-17.9c1.2-1.1,4.1-3.4,9.9-4.5c5.1-1,12.3-0.2,18.9,2.2
	c8.4,3.1,15,6.8,18.4,11.4c4.3,5.9,3,11.4,2.8,14.1c-0.3,3.6-3.1,12.5-4.9,13c-7.2,1.9-20.1,3.1-22.8,3.3c-0.2,0-0.2,0.2-0.1,0.4
	c1.2,1,5,4.2,8.4,8.9c7.3,10.2,6.1,10.6,5.1,12.5c-0.7,1.4-4.8,1.4-15.3,1.2c-8.2-0.2-15.1-2.2-15.1-2.2s-0.1,0,0.2-5
	c0.4-6.7,0.7-12.5,0.2-12.9C336.6,294.6,335.2,293.1,331.1,288z"/>
</svg>
