<?xml version="1.0" encoding="utf-8"?>
<!-- Generator: Adobe Illustrator 26.4.1, SVG Export Plug-In . SVG Version: 6.00 Build 0)  -->
<svg version="1.1" id="Layer_1" xmlns="http://www.w3.org/2000/svg" xmlns:xlink="http://www.w3.org/1999/xlink" x="0px" y="0px"
	 viewBox="0 0 566.9 566.9" style="enable-background:new 0 0 566.9 566.9;" xml:space="preserve">
<style type="text/css">
	.st0{fill:none;stroke:#000000;stroke-miterlimit:10;}
	.st1{fill:none;stroke:#C61F4B;stroke-miterlimit:10;}
	.st2{fill:none;stroke:#335CAA;stroke-miterlimit:10;}
</style>
<path class="st0" d="M443.3,223.7c-2,0-4,0-6,0c-17.3-0.3-26-0.5-33.5-2.7c-22.5-6.7-35.9-23.9-44.8-35.4
	c-12-15.5-23.3-30.1-24.5-52.5c-1.2-23.6,9.2-47.3,27.2-61.7c19.2-15.4,41.7-16.3,52.6-16.7c1.3,0,2.6-0.1,3.9-0.1
	c3.4,0,6.8,0.2,10.1,0.5c-1.4-3.1-2.8-7.4-2.7-12.6c0-2.7,0.7-12.2,7.5-18.7c4.3-4.2,10.2-6.3,17.3-6.3c9.9,0,18.7,4.1,21.2,5.3
	c4.6,2.3,14.1,7.1,16,16.1c1.4,6.8-0.9,14.3-2.7,18.6c1.6-0.2,3.5-0.3,5.8-0.3c2,0,4,0.1,6,0.3c3.1,0.4,9.1,1.6,14.6,5.6
	c2.3,1.7,3.4,3.1,4.4,4.3c0.8,1,1.5,1.9,3,3.1c3.5,2.7,6.7,3.3,10.4,4c1.3,0.2,2.6,0.5,4,0.8c12.7,3.1,20.9,12,24,15.3
	c5.8,6.2,8.3,13.4,12.8,26.3c5.1,14.5,7.6,21.8,8.3,32c0.5,6.3,1.7,23.1-7.6,41.4c-3,5.9-8.6,17-20.7,24.6
	c-11.7,7.4-23.6,7.9-41.5,8.5c-1.5,0.1-3.1,0.1-4.9,0.1c-9.7,0-20.9-0.8-22.3-0.9C479.6,222.7,460,223.7,443.3,223.7z"/>
<path class="st0" d="M432,57.5c-1.3-2.1-4.5-7.5-4.3-15c0-1.8,0.4-11,6.9-17.3c10.3-10,27.9-4.8,36.2-0.7c4.5,2.3,13.3,6.7,15,14.7
	c2,9.5-4.1,20.8-4.1,20.8s6-1.7,15-0.7c2.9,0.3,8.5,1.4,13.7,5.2c4,2.9,3.8,4.6,7.4,7.4c5.1,4,9.8,3.9,15.2,5.2
	c12.1,3,20,11.5,23,14.7c5.4,5.8,7.8,12.5,12.4,25.6c5,14.4,7.5,21.5,8.2,31.4c0.5,6.7,1.5,22.9-7.4,40.3c-3.1,6-8.4,16.5-20,23.9
	c-11.3,7.1-22.6,7.6-40.6,8.2c-11,0.4-27.1-0.9-27.1-0.9s-25.6,1.4-44,1.1c-17.1-0.3-25.7-0.5-33-2.6c-21.9-6.5-34.8-23.1-43.8-34.7
	c-11.8-15.2-23-29.6-24.1-51.4c-1.1-22.1,8.4-45.6,26.5-60.1c18.7-15,41-15.9,51.4-16.3C421.7,56.4,427.8,56.9,432,57.5z"/>
<path class="st1" d="M103.3,213.7c-2,0-4,0-6,0c-17.3-0.3-26-0.5-33.5-2.7c-22.5-6.7-35.9-23.9-44.8-35.4
	c-12-15.5-23.3-30.1-24.5-52.5c-1.2-23.6,9.2-47.3,27.2-61.7C41,45.9,63.5,45.1,74.3,44.7c1.3,0,2.6-0.1,3.9-0.1
	c4.1,0,8.2,0.2,12.3,0.7l0.1-0.1h1.2c1,0,1.5,0.7,1.7,1c2.9,3.9,5.9,6.9,8.5,8.5c1.6,1,1.7,3.1,1,11.4c-0.2,2.2-0.4,5.3-0.4,6.9
	c7.8,1,15.8,2,21.2,2c4.1,0,5.4-0.6,5.8-0.8c0.5-0.8-1-5.9-13.1-18.8c-0.6-0.6-1.3-1.4-0.8-2.6l0.6-1.3l1.5,0.2c0.2,0,0.5,0,0.8,0
	c5.4,0,21.5-3.2,22.6-3.4c0.6-0.2,4.2-1,9.7-1c2,0,4,0.1,6,0.3c3.1,0.4,9.1,1.6,14.6,5.6c2.3,1.7,3.4,3.1,4.4,4.3
	c0.8,1,1.5,1.9,3,3.1c3.5,2.7,6.7,3.3,10.4,4c1.3,0.2,2.6,0.5,4,0.8c12.7,3.1,20.9,12,24,15.3c5.8,6.2,8.3,13.4,12.8,26.3
	c5.1,14.5,7.6,21.8,8.3,32c0.5,6.3,1.7,23.1-7.6,41.4c-3,5.9-8.6,17-20.7,24.6c-11.7,7.4-23.6,7.9-41.5,8.5
	c-1.5,0.1-3.1,0.1-4.9,0.1c-9.7,0-20.9-0.8-22.3-0.9C139.6,212.7,120,213.7,103.3,213.7z"/>
<path class="st1" d="M92,47.5c-1.3-2.1,3.5,5.5,8.9,8.8c1.5,0.9-1.3,18.2,0.2,18.4c14.2,1.9,26.3,3.3,29.6,1
	c5.2-3.5-13.3-22.3-13.2-22.3c4.6,0.5,24-3.4,24-3.4s6-1.7,15-0.7c2.9,0.3,8.5,1.4,13.7,5.2c4,2.9,3.8,4.6,7.4,7.4
	c5.1,4,9.8,3.9,15.2,5.2c12.1,3,20,11.5,23,14.7c5.4,5.8,7.8,12.5,12.4,25.6c5,14.4,7.5,21.5,8.2,31.4c0.5,6.7,1.5,22.9-7.4,40.3
	c-3.1,6-8.4,16.5-20,23.9c-11.3,7.1-22.6,7.6-40.6,8.2c-11,0.4-27.1-0.9-27.1-0.9s-25.6,1.4-44,1.1c-17.1-0.3-25.7-0.5-33-2.6
	c-21.9-6.5-34.8-23.1-43.8-34.7C8.8,159.1-2.3,144.8-3.4,123C-4.6,100.9,4.9,77.4,23,62.9c18.7-15,41-15.9,51.4-16.3
	C81.7,46.4,87.7,46.9,92,47.5z"/>
<path class="st2" d="M239.9,315.6c-0.3,0-0.6,0-0.9-0.1c-1.7-0.3-3.2-1.6-4-3.5c-1-2.3-1-5.1,0.1-6.9c1.5-2.4,7.5-3.9,17.2-5.6
	l1.7-0.3c3.2-0.6,9.1-1.7,12.7-1.7c2.9,0,4.5,0.9,4.6,2.7c0,0.7-0.2,1.4-0.8,2C267.5,305.3,245.9,315.6,239.9,315.6z"/>
<path class="st2" d="M236.8,306.2c1.4-2.3,12.4-4.1,16.7-4.9c3.9-0.7,15.7-3,15.8-1c0.1,2-25.3,14.1-30,13.2
	C236.5,313,235.4,308.4,236.8,306.2z"/>
<path class="st2" d="M97.7,385.9c-2.6,0-6-1.7-11.6-4.6c-1.8-0.9-3.9-2-6.1-3.1c-6.8-3.3-12-4.2-18.7-4.7c-2.4-0.2-4.7-0.3-7.1-0.3
	c-3.2,0-6,0.2-8.6,0.3c-2.1,0.1-4.1,0.2-6,0.2c-1.4,0-2.7-0.1-3.8-0.2c-3.5-0.4-5.8-2.6-6.2-6c-0.3-2.8-0.3-5.9,1.7-7.4
	c2.6-1.9,6.6-3,11.1-3c0.9,0,1.8,0,2.7,0.1c4.2,0.4,16.7,1.6,28.9,5.5c10.9,3.5,15.1,6.1,20.9,11.1c3,2.6,6.6,6.2,6.7,8.8
	c0,0.8-0.3,1.6-0.9,2.2C99.8,385.5,98.8,385.9,97.7,385.9z"/>
<path class="st2" d="M32.4,361.9c2.9-2.1,7.7-3,12.5-2.5c3.8,0.4,16.4,1.5,28.4,5.4c10.8,3.5,14.8,6.1,20.2,10.7
	c2.7,2.3,7.1,6.7,5.7,7.9c-2.2,2-7.6-1.6-18.5-6.9c-6.9-3.3-12.3-4.4-19.4-4.9c-11.9-0.9-19,0.8-25.4,0.1c-1.6-0.2-4.1-1-4.4-4.2
	C31.2,364,31.6,362.5,32.4,361.9z"/>
<path class="st2" d="M120.7,551.3c-1.4,0-2.9-0.7-4.1-2c-1.4-1.4-2.1-3.2-2.1-4.9c0.1-5.4-0.3-9.5-0.5-12
	c-0.9-9.6-4.5-19.9-7.1-27.4c-0.3-0.9-0.6-1.8-0.9-2.7c-2.4-7-2.8-7.7-6.2-14.4c-0.7-1.4-1.6-3.1-2.7-5.2c-2.5-5-5.6-8.4-9.8-13.1
	c-3.5-4-7.8-8.9-13.4-16.4c-0.5-0.7-1.8-2.4-0.6-4.6c0.6-1.1,2-2.3,5.6-2.3c2.9,0,6.4,0.8,9.3,2.2c5.7,2.7,8.7,6.7,14.8,16
	c7.7,11.8,11,16.8,14,23.9c5.2,12.1,8.6,24.8,10.2,31.3c0.9,3.6,3.2,13.1,1.1,24.7C127.4,549.2,125.2,551.3,120.7,551.3z"/>
<path class="st2" d="M75.5,452c-0.5-0.7-1-1.5-0.5-2.5c1.1-2,7.4-1.6,12.3,0.7c5.1,2.4,7.9,6,14,15.3c7.8,11.9,10.9,16.8,13.8,23.6
	c4.9,11.6,8.3,23.8,10.1,31c1,4,3.1,13,1.1,23.9c-0.8,4.1-2.3,5.3-5.6,5.3c-1.8,0-4.3-2.3-4.2-4.8c0.1-5.4-0.2-9.6-0.5-12.2
	c-1.1-11.1-5.5-22.8-8.2-30.6c-3-8.6-3-8-9-19.9C94,472.4,87.8,468.6,75.5,452z"/>
<path class="st2" d="M19.8,537.4c-1.9,0-3.5-0.8-4.3-1.2c-8.4-4-12.7-11.7-18.3-23c-3.8-7.6-7.4-20-8.2-25.2
	c-2.4-15.5-0.6-29.8,5.3-41.2c2.2-4.2,5.2-9.1,12.5-16.7c1.9-2,4.3-4,6.1-5.1c0.3-0.2,3.1-2,5.3-2c0.5,0,1,0.1,1.5,0.3
	c0.9,0.4,3.7,1.6,3.2,5.7c-0.3,2.5-3,6.2-7.6,12.6c-2.1,2.9-4.3,5.9-6.2,8.8c-5.1,7.9-5.9,16.2-5.5,26.2c0.6,14.3,4.4,24.4,6,28.1
	c4.5,10.3,7.8,15.9,11.3,19.3c0.5,0.4,1,0.8,1.5,1.2c1.6,1.2,3.7,2.8,3.7,6c0,2.4-1.2,4.3-3.6,5.4C21.7,537.2,20.8,537.4,19.8,537.4
	z"/>
<path class="st2" d="M8.2,431.6c1.9-2,4.1-3.8,5.7-4.8c1.1-0.7,3.7-2,4.9-1.5c1,0.5,2.3,1.2,2,3.6c-0.4,3.4-8.2,12.3-13.5,20.5
	c-5.8,8.8-6.2,18-5.9,27.4c0.6,14.2,4.3,24.6,6.1,28.8c4.3,9.9,7.8,16.1,11.8,20c2,2,4.6,2.7,4.6,5.9c0,1.7-0.8,2.8-2.5,3.6
	c-2,0.9-4.2-0.1-5.3-0.6c-7.7-3.7-11.9-10.9-17.4-22c-3.7-7.4-7.2-19.6-8-24.6c-0.7-4.2-3.6-23.1,5.1-40
	C-2.2,444.5,0.5,439.6,8.2,431.6z"/>
<path class="st2" d="M163.5,454.6c-3.2,0-7.2-1.5-9.1-3.3c-11.4-11-16.5-30.7-18.1-38.7c-2.2-10.6-2.5-15-0.2-29.8
	c1.6-10.3,5.3-19,11.6-31.3c2.7-5.2,10.4-17,13.7-19.8c0.9-0.8,4.2-3.4,7.1-3.4c0.7,0,1.3,0.1,1.8,0.4c4.9,2.3,4.8,5.8,4.3,7.8
	c-1.5,6.2-7.4,15.9-12.2,23.7c-1.4,2.3-2.7,4.5-3.7,6.2c-7.5,13.1-6.8,30.6-6.6,34c0.5,8.3,2.2,16.5,4.9,23
	c1.8,4.6,6.2,14.6,11,23.2c0.9,1.6,1.7,3.8-0.2,6.3C167.3,453.7,166,454.6,163.5,454.6z"/>
<path class="st2" d="M149.5,352.5c2.8-5.5,10.4-16.7,13.2-19.2c1.4-1.2,4.8-3.7,6.8-2.7c2.9,1.4,3.8,3.3,3.3,5.5
	c-1.8,7.7-11.4,22-15.7,29.4c-7.2,12.5-7.2,29.1-6.9,35.1c0.5,7.9,2.1,16.4,5,23.6c1.3,3.2,5.8,13.9,11.1,23.4c1,1.7,1,2.8,0,4.1
	c-1.6,2.1-8.2,0.5-10.6-1.8c-8.9-8.5-14.8-24.1-17.5-37.7c-2.1-10.1-2.5-14.2-0.2-29.1C139.5,373.3,143,365.1,149.5,352.5z"/>
<path class="st2" d="M44.4,297.1c-0.4,0-0.7-0.1-1-0.2c-4.4-1.8,0.3-13.7,0.4-13.9c1.3-3.1,4.4-9.3,11.3-14.9
	c4.5-3.7,12.2-10,23.4-14.5c7.4-3,16.2-6.2,26.2-6.2c3.5,0,7,0.4,10.4,1.2c2.5,0.6,9.2,3.4,9.7,8.8c0.3,3.8-1.2,7-4.2,8.5
	c-1.4,0.7-2.9,1.1-4.5,1.1c-2.3,0-4.6-0.7-7-1.5c-1.9-0.6-3.9-1.3-6-1.6c-1.3-0.2-2.7-0.3-4.1-0.3c-7.7,0-16.5,2.9-27.8,9.2
	c-9.9,5.5-13.7,9.3-18.2,15.3c-0.7,1-1.3,1.8-1.9,2.6C47.7,295.2,46.4,297.1,44.4,297.1z"/>
<path class="st2" d="M45.5,283.7c1.3-3.3,4.3-8.9,10.7-14.1c4.9-4,12.2-9.9,22.9-14.2c8.9-3.6,21.5-8.2,35.3-4.8
	c2.3,0.6,7.8,3,8.2,7.1c0.2,2.7-0.6,5.3-3.1,6.6c-4.9,2.5-9.7-1.2-16.3-2.2c-10.6-1.6-22.2,3-33.1,9.1c-10.4,5.8-14.4,9.9-18.8,15.8
	c-4.3,5.7-6,8.5-7.2,8C42.8,294.5,43.5,288.7,45.5,283.7z"/>
<path class="st2" d="M185.6,281.4c-3,0-6.8-1.7-9.4-4.1c-2-1.9-2.5-3.7-3.1-5.3c-0.4-1.3-0.8-2.6-2-4.4c-2.2-3.3-4.9-5.1-6.8-6.4
	c-1.8-1.2-3.6-2.4-2.9-4.5c0.8-2.2,3.9-2.2,5-2.2c2,0,4.5,0.4,6.7,1c1.2,0.3,12.2,3.6,16.4,14c0.8,2.1,3.1,7.7,0.1,10.6
	C188.6,280.9,187.2,281.4,185.6,281.4z"/>
<path class="st2" d="M163.3,257.4c0.4-1.3,5.3-1.1,9.3,0c0.9,0.2,11.2,3.3,15,12.9c0.6,1.5,2.6,6.5,0.6,8.4c-2,1.9-7.4,0.3-10.6-2.7
	c-3-2.9-1.9-5-4.8-9.4C168.7,260.2,162.8,258.8,163.3,257.4z"/>
<path class="st2" d="M362.3,320.3c-1.9,0-4.3,0-7.4-0.1c-8.4-0.2-15.3-2.2-15.6-2.2l-0.5-0.2l-0.4-0.4c-0.7-0.7-0.7-0.7-0.3-6.5
	c0.2-3.2,0.6-9.6,0.4-11.6c-3.4-2.6-5-4.3-9-9.2c-4.8-5.9-5.3-16.5-5.3-16.6c-0.4-9.7,6-16.7,8.8-19.3c2.7-2.5,6.3-4.2,11-5
	c1.6-0.3,3.3-0.4,5.1-0.4c4.8,0,10,1,14.8,2.8c9.6,3.6,15.9,7.5,19.3,12.1c4.2,5.8,3.6,11.4,3.3,14.4c0,0.4-0.1,0.7-0.1,1
	c-0.1,1.8-2.6,13.8-6.4,14.8c-5.4,1.4-13.8,2.4-19,3c1.7,1.6,3.7,3.8,5.6,6.6c6.8,9.6,6.9,11.5,5.5,14.2c-0.1,0.1-0.1,0.2-0.2,0.3
	C370.9,320,368.3,320.3,362.3,320.3z"/>
<path class="st2" d="M331.1,288.9c-4-4.9-4.8-13.8-4.8-15.4c-0.4-10,7.3-17,8.2-17.9c1.2-1.1,4.1-3.4,9.9-4.5
	c5.1-1,12.3-0.2,18.9,2.2c8.4,3.1,15,6.8,18.4,11.4c4.3,5.9,3,11.4,2.8,14.1c-0.3,3.6-3.1,12.5-4.9,13c-7.2,1.9-20.1,3.1-22.8,3.3
	c-0.2,0-0.2,0.2-0.1,0.4c1.2,1,5,4.2,8.4,8.9c7.3,10.2,6.1,10.6,5.1,12.5c-0.7,1.4-4.8,1.4-15.3,1.2c-8.2-0.2-15.1-2.2-15.1-2.2
	s-0.1,0,0.2-5c0.4-6.7,0.7-12.5,0.2-12.9C336.5,295.5,335.2,294,331.1,288.9z"/>
<path class="st2" d="M355.9,285.3c-0.2,0-0.5,0-0.8,0c-5.2-0.4-9.6-4.6-10.2-9.7c-0.6-4.8,2.2-9.6,6.4-11.3c1.1-0.5,2.3-0.7,3.5-0.7
	c2,0,4,0.6,6,1.8c2.4,1.4,6.4,5.2,6,10.3C366.5,280.9,361.5,285.3,355.9,285.3C355.9,285.3,355.9,285.3,355.9,285.3z"/>
<path class="st2" d="M352.1,266c-3.5,1.4-5.6,5.4-5.2,9.2c0.5,4.3,4.2,7.7,8.3,8c4.8,0.3,9.3-3.4,9.6-7.8c0.4-5.1-4.7-8.2-5-8.4
	C359.2,266.6,355.8,264.6,352.1,266z"/>
</svg>
