<?xml version="1.0" encoding="utf-8"?>
<!-- Generator: Adobe Illustrator 26.3.1, SVG Export Plug-In . SVG Version: 6.00 Build 0)  -->
<svg version="1.1" id="Layer_1" xmlns="http://www.w3.org/2000/svg" xmlns:xlink="http://www.w3.org/1999/xlink" x="0px" y="0px"
	 viewBox="0 0 566.9 566.9" style="enable-background:new 0 0 566.9 566.9;" xml:space="preserve">
<style type="text/css">
	.st0{fill:none;stroke:#000000;stroke-miterlimit:10;}
	.st1{fill:none;stroke:#335CAA;stroke-miterlimit:10;}
	.st2{fill:none;stroke:#C61F4B;stroke-miterlimit:10;}
</style>
<path class="st0" d="M57,259.8c-2.6,0-5.1,0-7.5-0.1c-21.6-0.4-32.5-0.6-41.9-3.3c-28.1-8.3-44.9-29.9-56-44.2
	c-15-19.4-29.2-37.6-30.6-65.6c-1.5-29.5,11.5-59,33.9-77c24-19.2,52.1-20.3,65.6-20.8c1.6-0.1,3.3-0.1,4.9-0.1
	c4.5,0,9.1,0.2,13.6,0.7c-1.9-3.9-3.9-9.5-3.8-16.4c0.1-3.4,0.9-15.1,9.3-23.2C50,4.7,57.2,2.1,66,2.1c12.3,0,23.3,5.1,26.4,6.6
	c5.7,2.9,17.5,8.8,19.8,19.9c1.9,8.9-1.5,18.7-3.7,23.9c2-0.3,4.8-0.5,8.1-0.5c2.5,0,5,0.1,7.4,0.4c3.8,0.4,11.3,1.9,18.1,6.9
	c2.9,2.1,4.2,3.7,5.4,5.3c1,1.3,2,2.5,3.9,4c4.5,3.5,8.5,4.2,13.3,5.1c1.6,0.3,3.3,0.6,5,1c15.8,3.9,26,14.9,29.8,19.1
	c7.2,7.8,10.3,16.6,15.9,32.8c6.3,18.2,9.5,27.3,10.4,40c0.6,7.9,2.1,28.9-9.5,51.6c-3.8,7.4-10.8,21.2-25.7,30.7
	c-14.6,9.2-29.4,9.8-51.9,10.6c-1.9,0.1-3.9,0.1-6.2,0.1c-12.3,0-26.4-1.1-27.9-1.2C102.8,258.5,78,259.8,57,259.8z"/>
<path class="st0" d="M42.8,51.8c-1.7-2.6-5.6-9.4-5.4-18.8c0-2.3,0.5-13.8,8.7-21.8c13-12.5,35.1-6,45.4-0.8
	c5.7,2.9,16.6,8.4,18.8,18.5c2.5,11.9-5.2,26.1-5.2,26.1s7.6-2.1,18.8-0.8c3.7,0.4,10.7,1.8,17.1,6.5c5,3.7,4.8,5.8,9.2,9.2
	c6.4,5,12.3,4.8,19,6.5c15.2,3.8,25.1,14.5,28.8,18.5c6.8,7.3,9.8,15.7,15.5,32.1c6.3,18,9.4,27,10.3,39.4
	c0.6,8.4,1.8,28.8-9.2,50.6c-3.8,7.6-10.5,20.7-25,29.9c-14.1,8.9-28.4,9.5-50.9,10.3c-13.8,0.5-34-1.1-34-1.1s-32.1,1.8-55.2,1.4
	c-21.5-0.4-32.2-0.6-41.3-3.3c-27.5-8.1-43.7-29-54.9-43.5c-14.8-19.1-28.8-37.1-30.2-64.5c-1.4-27.7,10.5-57.1,33.2-75.4
	c23.5-18.8,51.4-19.9,64.5-20.4C29.9,50.4,37.5,51.1,42.8,51.8z"/>
<g>
	<path class="st1" d="M330.7,60.1c-2.4,0-5.4-0.1-9.3-0.1c-10.5-0.2-19.1-2.7-19.5-2.8l-0.5-0.2l-0.4-0.4c-0.7-0.7-0.7-0.7-0.3-7.7
		c0.2-4.2,0.7-12.6,0.5-14.8c-4.4-3.3-6.3-5.4-11.3-11.6c-5.9-7.3-6.5-20.4-6.5-20.5C283-10,291-18.7,294.4-22
		c3.3-3.1,7.8-5.1,13.5-6.2c1.9-0.4,4.1-0.5,6.4-0.5c5.9,0,12.5,1.2,18.5,3.4c12,4.4,19.8,9.3,23.9,15c5.2,7.1,4.4,14,4,17.7
		c-0.1,0.5-0.1,0.9-0.1,1.3c-0.2,2.8-3.4,17-7.6,18.1c-7.1,1.8-18.5,3.2-24.9,3.8c2.2,2.1,5.1,5.1,7.8,8.9
		c8.4,11.8,8.5,14.1,6.8,17.3c-0.1,0.1-0.2,0.3-0.2,0.4C341.3,59.7,338,60.1,330.7,60.1z"/>
	<path class="st1" d="M291.6,21.1c-5-6.1-6-17.3-6.1-19.3c-0.5-12.5,9.2-21.3,10.3-22.4c1.5-1.4,5.1-4.3,12.4-5.6
		c6.5-1.2,15.4-0.3,23.8,2.8c10.6,3.9,18.8,8.5,23,14.3c5.4,7.3,3.8,14.3,3.5,17.7c-0.3,4.5-3.9,15.7-6.2,16.3
		c-9,2.3-25.2,3.8-28.6,4.1c-0.2,0-0.3,0.3-0.1,0.4c1.5,1.2,6.2,5.2,10.5,11.2c9.1,12.8,7.6,13.3,6.4,15.7c-0.9,1.8-6,1.8-19.1,1.5
		c-10.3-0.2-19-2.7-19-2.7s-0.1,0,0.3-6.3c0.5-8.4,0.9-15.7,0.3-16.1C298.5,29.4,296.8,27.5,291.6,21.1z"/>
	<path class="st1" d="M322.8,16.1c-0.3,0-0.6,0-0.9,0c-6.3-0.5-11.6-5.5-12.3-11.8c-0.7-5.8,2.6-11.6,7.7-13.6
		c1.3-0.5,2.8-0.8,4.2-0.8c2.4,0,4.9,0.7,7.3,2.2c0.3,0.2,7.9,4.8,7.2,12.4C335.5,10.7,329.4,16.1,322.8,16.1
		C322.8,16.1,322.8,16.1,322.8,16.1z"/>
	<path class="st1" d="M318.1-7.5c-4.4,1.8-7.1,6.8-6.5,11.6c0.6,5.5,5.3,9.6,10.5,10c6,0.4,11.6-4.2,12.1-9.8
		c0.5-6.4-5.9-10.3-6.3-10.5C326.9-6.8,322.7-9.4,318.1-7.5z"/>
</g>
<path class="st1" d="M343.3,305.7c-0.4,0-0.7,0-1.1-0.1c-2-0.4-3.7-1.9-4.7-4.1c-1.2-2.8-1.2-6.1,0.2-8.2c1.8-2.9,9.2-4.7,21.2-6.8
	l2.1-0.4c4-0.7,11.4-2.1,15.9-2.1c1.3,0,5.1,0,5.2,2.9c0.1,1.1-0.7,1.9-0.9,2.1C377.6,293,350.9,305.7,343.3,305.7z"/>
<path class="st1" d="M339.4,294.4c1.8-2.9,15.6-5.2,21-6.1c4.9-0.9,19.7-3.7,19.8-1.2c0.1,2.5-31.7,17.7-37.6,16.6
	C339.2,303,337.7,297.1,339.4,294.4z"/>
<path class="st1" d="M494.3,374.1c-3.1,0-7.3-2.1-14.3-5.7c-2.3-1.2-4.8-2.5-7.7-3.9c-8.6-4.2-15.2-5.3-23.7-6
	c-3-0.2-5.9-0.3-8.9-0.3c-4,0-7.6,0.2-10.8,0.4c-2.7,0.1-5.2,0.3-7.5,0.3c-1.8,0-3.3-0.1-4.8-0.2c-4.1-0.4-6.9-3.1-7.3-7.1
	c-0.5-4.8,0.1-7.4,1.9-8.8c3.2-2.4,8.1-3.7,13.6-3.7c1.1,0,2.2,0.1,3.4,0.2l0.1,0c5.2,0.5,20.8,2,36,6.8
	c13.6,4.4,18.9,7.6,26.1,13.8c3,2.6,8.2,7.4,8.2,10.6c0,0.9-0.3,1.7-1,2.3C496.7,373.7,495.6,374.1,494.3,374.1z"/>
<path class="st1" d="M412.4,344.5c3.6-2.7,9.6-3.7,15.6-3.1c4.8,0.5,20.6,1.9,35.7,6.8c13.6,4.4,18.6,7.6,25.4,13.4
	c3.4,2.9,8.9,8.4,7.2,9.9c-2.8,2.5-9.5-1.9-23.2-8.6c-8.6-4.2-15.5-5.5-24.4-6.2c-14.9-1.1-23.8,1-31.9,0.1c-2-0.2-5.1-1.3-5.5-5.3
	C410.8,347.1,411.4,345.2,412.4,344.5z"/>
<path class="st1" d="M449,543.2c-1.6,0-3.4-0.8-4.8-2.3c-1.6-1.6-2.5-3.8-2.4-5.8c0.2-6.8-0.3-12-0.6-15.1
	c-1.2-12.1-5.7-25.1-9-34.5c-0.4-1.2-0.8-2.3-1.2-3.4c-3-8.8-3.5-9.7-7.9-18.2c-0.9-1.8-2-3.9-3.4-6.5c-3.2-6.3-7-10.6-12.3-16.6
	c-4.4-5-9.8-11.1-16.8-20.5c-0.6-0.8-2.1-2.8-0.7-5.3c0.9-1.7,3.2-2.7,6.6-2.7c3.6,0,7.9,1,11.4,2.7c7,3.3,10.8,8.3,18.4,19.9
	c9.7,14.7,13.7,21.1,17.5,29.9c6.5,15.2,10.8,31.1,12.8,39.2c1.1,4.5,4,16.3,1.4,30.8C457,540.7,454.4,543.2,449,543.2z"/>
<path class="st1" d="M392.3,419.1c-0.7-0.9-1.3-1.9-0.6-3.1c1.3-2.5,9.3-2,15.5,0.9c6.4,3,9.9,7.5,17.6,19.2
	c9.8,15,13.7,21,17.3,29.6c6.2,14.5,10.5,29.9,12.7,38.9c1.3,5.1,3.9,16.2,1.4,29.9c-0.9,5.2-2.9,6.7-7.1,6.7
	c-2.3,0-5.3-2.9-5.3-6.1c0.2-6.8-0.3-12-0.6-15.3c-1.4-13.9-6.9-28.6-10.2-38.4c-3.7-10.8-3.7-10.1-11.3-24.9
	C415.5,444.7,407.8,439.9,392.3,419.1z"/>
<path class="st1" d="M329.2,520.1c-2.2,0-4.3-1-5.2-1.4c-10.4-4.9-15.7-14.5-22.8-28.6c-4.7-9.5-9.2-24.9-10.2-31.4
	c-3-19.4-0.7-37.1,6.6-51.4c2.7-5.2,6.5-11.3,15.7-20.9c2.3-2.4,5.3-4.9,7.5-6.4c0.1-0.1,3.7-2.4,6.4-2.4c0.6,0,1.1,0.1,1.6,0.3
	c1.1,0.5,4.3,1.9,3.7,6.6c-0.4,3.1-3.8,7.9-9.4,15.5c-2.7,3.6-5.4,7.4-7.8,11.1c-7.2,11.1-7.4,22.9-7,33.2c0.7,18,5.5,30.8,7.5,35.5
	c5.6,12.9,9.8,20,14.3,24.4c0.6,0.6,1.3,1.1,1.9,1.6c2.1,1.5,4.4,3.3,4.5,7.1c0,2.9-1.4,5-4.2,6.4
	C331.4,519.9,330.3,520.1,329.2,520.1z"/>
<path class="st1" d="M314.7,387.9c2.4-2.4,5.2-4.8,7.2-6.1c1.4-0.9,4.7-2.6,6.2-1.9c1.3,0.6,2.9,1.5,2.5,4.5
	c-0.5,4.2-10.2,15.5-17,25.8c-7.2,11-7.8,22.6-7.3,34.4c0.7,17.9,5.4,30.9,7.7,36.2c5.4,12.5,9.7,20.2,14.8,25
	c2.5,2.4,5.7,3.4,5.8,7.3c0,2.2-1,3.5-3.1,4.5c-2.5,1.2-5.2-0.1-6.6-0.7c-9.7-4.6-14.9-13.7-21.9-27.7c-4.6-9.3-9.1-24.6-10.1-30.8
	c-0.8-5.3-4.6-29,6.4-50.1C301.5,404.1,305,397.9,314.7,387.9z"/>
<path class="st1" d="M169.4,595c-3.9,0-8.7-1.8-11.1-4c-14.3-13.7-20.5-38.4-22.6-48.3c-2.7-13.3-3.1-18.7-0.2-37.1
	c2-12.9,6.6-23.7,14.5-39c3.7-7.2,13.3-21.4,17.1-24.7c1.1-1,5.1-4.2,8.6-4.2c0.8,0,1.5,0.1,2.1,0.4c5.8,2.7,5.7,6.9,5.2,9.2
	c-1.8,7.7-9.3,19.8-15.2,29.6c-1.8,2.9-3.4,5.6-4.7,7.8c-9.5,16.5-8.6,38.6-8.4,42.9c0.6,10.5,2.8,20.8,6.1,29
	c2.3,5.8,7.8,18.4,13.9,29.1c1.1,1.9,2,4.5-0.2,7.3C173.8,594,172.4,595,169.4,595z"/>
<path class="st1" d="M151.8,467.4c3.5-6.9,13-21,16.6-24.1c1.7-1.5,6-4.6,8.5-3.4c3.7,1.7,4.7,4.1,4.1,6.9
	c-2.3,9.6-14.3,27.6-19.7,36.9c-9,15.7-9.1,36.5-8.6,44c0.6,9.9,2.6,20.6,6.3,29.7c1.6,4.1,7.3,17.4,14,29.4c1.2,2.1,1.2,3.5,0,5.2
	c-2,2.6-10.3,0.6-13.2-2.3c-11.2-10.7-18.5-30.2-22-47.3c-2.6-12.7-3.1-17.8-0.2-36.4C139.4,493.5,143.7,483.2,151.8,467.4z"/>
<path class="st1" d="M63.3,395.7c-0.4,0-0.8-0.1-1.1-0.2c-4.3-1.7-0.5-13.6,0.7-16.7c1.6-3.9,5.5-11.5,14-18.5
	c5.7-4.7,15.2-12.4,29.3-18.1c9.3-3.7,20.2-7.7,32.7-7.7c4.4,0,8.7,0.5,12.9,1.5c3.1,0.8,11.2,4.1,11.7,10.6c0.4,4.6-1.5,8.4-5,10.2
	c-1.7,0.9-3.4,1.3-5.4,1.3c-2.9,0-5.7-0.9-8.7-1.9c-2.4-0.8-4.9-1.6-7.7-2c-1.7-0.2-3.4-0.4-5.2-0.4c-9.8,0-20.9,3.7-35.1,11.6
	c-12.5,6.9-17.3,11.7-22.9,19.3c-0.9,1.2-1.7,2.3-2.4,3.3C67.2,393.4,65.6,395.7,63.3,395.7z"/>
<path class="st1" d="M64.8,379.4c1.7-4.1,5.4-11.2,13.4-17.7c6.2-5,15.3-12.4,28.7-17.8c11.2-4.5,27-10.3,44.3-6.1
	c2.8,0.7,9.8,3.7,10.2,8.9c0.3,3.4-0.8,6.7-3.9,8.3c-6.2,3.1-12.1-1.6-20.5-2.8c-13.3-2-27.8,3.8-41.5,11.4
	c-13.1,7.3-18,12.4-23.6,19.9c-5.3,7.2-7.5,10.7-9.1,10.1C61.4,393,62.3,385.6,64.8,379.4z"/>
<path class="st1" d="M250.8,351.8c-3.7,0-8.3-2-11.4-5c-2.4-2.3-3.1-4.3-3.7-6.5c-0.5-1.6-1-3.3-2.5-5.6c-2.8-4.2-6.4-6.6-8.7-8.2
	c-2.2-1.4-4.2-2.8-3.5-5c0.8-2.5,4.5-2.5,5.8-2.5c2.5,0,5.5,0.4,8.3,1.2c1.5,0.4,15.1,4.5,20.2,17.3c1.6,4,3.4,9.7,0.3,12.7
	C254.3,351.2,252.7,351.8,250.8,351.8z"/>
<path class="st1" d="M222.8,322.1c0.6-1.6,6.6-1.4,11.6,0c1.1,0.3,14.1,4.1,18.9,16.1c0.8,1.9,3.2,8.1,0.7,10.5
	c-2.5,2.4-9.2,0.4-13.2-3.4c-3.8-3.6-2.4-6.3-6-11.8C229.6,325.7,222.2,323.9,222.8,322.1z"/>
<path class="st2" d="M476.1,276.7c-2.6,0-5.1,0-7.5-0.1c-21.6-0.4-32.5-0.6-41.9-3.3c-28.1-8.3-44.9-29.9-56-44.2
	c-15-19.4-29.2-37.6-30.6-65.6c-1.5-29.5,11.5-59,33.9-77c24-19.2,52.1-20.3,65.6-20.8c1.6-0.1,3.3-0.1,4.9-0.1
	c5.2,0,10.5,0.3,15.7,1l0.1-0.2h1.2c1,0,1.5,0.7,1.8,1c3.7,4.9,7.5,8.8,10.8,10.8c1.8,1.1,1.8,3.8,1.1,13.8c-0.2,3-0.5,7.3-0.4,9.2
	c10,1.3,20.1,2.6,27.1,2.6c5.2,0,7-0.7,7.6-1.1c0.1-0.1,0.2-0.2,0.3-0.6c0.3-2.6-3.9-10.3-16.6-23.8c-0.7-0.8-1.4-1.5-0.9-2.7
	l0.6-1.3l1.5,0.2c0.3,0,0.6,0,1,0c6.9,0,27.2-4,28.4-4.3c0.7-0.2,5.1-1.3,12-1.3c2.5,0,5,0.1,7.4,0.4c3.8,0.4,11.3,1.9,18.1,6.9
	c2.9,2.1,4.2,3.7,5.4,5.3c1,1.3,2,2.5,3.9,4c4.5,3.5,8.5,4.2,13.3,5.1c1.6,0.3,3.3,0.6,5,1c15.8,3.9,26,14.9,29.8,19.1
	c7.2,7.8,10.3,16.6,15.9,32.8c6.3,18.2,9.5,27.3,10.4,40c0.6,7.9,2.1,28.9-9.5,51.6c-3.8,7.4-10.8,21.2-25.7,30.7
	c-14.6,9.2-29.4,9.8-51.9,10.6c-1.9,0.1-3.9,0.1-6.2,0.1c-12.3,0-26.4-1.1-27.9-1.2C521.8,275.4,497.1,276.7,476.1,276.7z"/>
<path class="st2" d="M461.9,68.8c-1.7-2.6,4.4,6.9,11.2,11.1c1.9,1.2-1.7,22.9,0.3,23.1c17.8,2.4,33,4.1,37.2,1.3
	c6.6-4.4-16.6-27.9-16.5-27.9c5.7,0.6,30.1-4.3,30.1-4.3s7.6-2.1,18.8-0.8c3.7,0.4,10.7,1.8,17.1,6.5c5,3.7,4.8,5.8,9.2,9.2
	c6.4,5,12.3,4.8,19,6.5c15.2,3.8,25.1,14.5,28.8,18.5c6.8,7.3,9.8,15.7,15.5,32.1c6.3,18,9.4,27,10.3,39.4
	c0.6,8.4,1.8,28.8-9.2,50.6c-3.8,7.6-10.5,20.7-25,29.9c-14.1,8.9-28.4,9.5-50.9,10.3c-13.8,0.5-34-1.1-34-1.1s-32.1,1.8-55.2,1.4
	c-21.5-0.4-32.2-0.6-41.3-3.3c-27.5-8.1-43.7-29-54.9-43.5c-14.8-19.1-28.8-37.1-30.2-64.5c-1.4-27.7,10.5-57.1,33.2-75.4
	c23.5-18.8,51.4-19.9,64.5-20.4C449,67.3,456.6,68,461.9,68.8z"/>
<path class="st1" d="M526.6,104.3c-0.4,0-0.7,0-1.1-0.1c-2-0.4-3.7-1.8-4.7-4.1c-1.2-2.8-1.2-6.1,0.2-8.2c1.8-2.9,9.2-4.7,21.2-6.8
	l2.1-0.4c4-0.7,11.4-2.1,15.9-2.1c1.3,0,5.1,0,5.2,2.9c0.1,1.1-0.7,1.9-0.9,2.1C560.9,91.6,534.1,104.3,526.6,104.3z"/>
<path class="st1" d="M522.7,93c1.8-2.9,15.6-5.2,21-6.1c4.9-0.9,19.7-3.7,19.8-1.2c0.1,2.5-31.7,17.7-37.6,16.6
	C522.4,101.6,521,95.7,522.7,93z"/>
<path class="st1" d="M622.5,145.7c-3.1,0-7.3-2.1-14.3-5.7c-2.3-1.2-4.8-2.5-7.7-3.9c-8.6-4.2-15.2-5.3-23.7-6
	c-3-0.2-5.9-0.3-8.9-0.3c-4,0-7.6,0.2-10.8,0.4c-2.7,0.1-5.2,0.3-7.5,0.3c-1.8,0-3.3-0.1-4.8-0.2c-4.1-0.4-6.9-3.1-7.3-7.1
	c-0.5-4.8,0.1-7.4,1.9-8.8c3.2-2.4,8.1-3.7,13.6-3.7c1.1,0,2.2,0.1,3.4,0.2l0.1,0c5.2,0.5,20.8,2,36,6.8
	c13.6,4.4,18.9,7.6,26.1,13.8c3,2.6,8.2,7.4,8.2,10.6c0,0.9-0.3,1.7-1,2.3C625,145.3,623.9,145.7,622.5,145.7z"/>
<path class="st1" d="M540.7,116.1c3.6-2.7,9.6-3.7,15.6-3.1c4.8,0.5,20.6,1.9,35.7,6.8c13.6,4.4,18.6,7.6,25.4,13.4
	c3.4,2.9,8.9,8.4,7.2,9.9c-2.8,2.5-9.5-1.9-23.2-8.6c-8.6-4.2-15.5-5.5-24.4-6.2c-14.9-1.1-23.8,1-31.9,0.1c-2-0.2-5.1-1.3-5.5-5.3
	C539.1,118.7,539.6,116.8,540.7,116.1z"/>
<path class="st1" d="M585.6,266.4c-1.6,0-3.4-0.8-4.8-2.3c-1.6-1.6-2.5-3.8-2.4-5.8c0.2-6.8-0.3-12-0.6-15.1
	c-1.2-12.1-5.7-25.1-9-34.5c-0.4-1.2-0.8-2.3-1.2-3.4c-3-8.8-3.5-9.7-7.9-18.2c-0.9-1.8-2-3.9-3.4-6.5c-3.2-6.3-7-10.6-12.3-16.6
	c-4.4-5-9.8-11.1-16.8-20.5c-0.6-0.8-2.1-2.8-0.7-5.2c0.9-1.7,3.2-2.7,6.6-2.7c3.6,0,7.9,1,11.4,2.7c7,3.3,10.8,8.3,18.4,19.9
	c9.7,14.7,13.7,21.1,17.5,29.9c6.5,15.2,10.8,31.1,12.8,39.2c1.1,4.5,4,16.3,1.4,30.8C593.6,264,591,266.4,585.6,266.4z"/>
<path class="st1" d="M528.9,142.4c-0.7-0.9-1.3-1.9-0.6-3.1c1.3-2.5,9.3-2,15.5,0.9c6.4,3,9.9,7.5,17.6,19.2
	c9.8,15,13.7,21,17.3,29.6c6.2,14.5,10.5,29.9,12.7,38.9c1.3,5.1,3.9,16.2,1.4,29.9c-0.9,5.2-2.9,6.7-7.1,6.7
	c-2.3,0-5.3-2.9-5.3-6.1c0.2-6.8-0.3-12-0.6-15.3c-1.4-13.9-6.9-28.6-10.2-38.4c-3.7-10.8-3.7-10.1-11.3-24.9
	C552.1,168,544.4,163.2,528.9,142.4z"/>
<path class="st1" d="M512.5,268.7c-2.2,0-4.3-0.9-5.2-1.4c-10.4-4.9-15.7-14.5-22.8-28.6c-4.7-9.5-9.2-24.9-10.3-31.4
	c-3-19.4-0.7-37.1,6.6-51.4c2.7-5.2,6.5-11.3,15.7-20.9c2.3-2.4,5.3-4.9,7.5-6.4c0.1-0.1,3.7-2.4,6.4-2.4c0.6,0,1.1,0.1,1.6,0.3
	c1.1,0.5,4.3,1.9,3.7,6.6c-0.4,3.1-3.8,7.9-9.4,15.5c-2.7,3.6-5.4,7.4-7.8,11.1c-7.2,11.1-7.4,22.9-7,33.2c0.7,18,5.5,30.8,7.5,35.5
	c5.6,12.9,9.8,20,14.3,24.4c0.6,0.6,1.3,1.1,2,1.6c2.1,1.6,4.4,3.3,4.5,7.1c0,2.9-1.4,5-4.2,6.4
	C514.6,268.5,513.6,268.7,512.5,268.7z"/>
<path class="st1" d="M497.9,136.5c2.4-2.4,5.2-4.8,7.2-6.1c1.4-0.9,4.7-2.6,6.2-1.9c1.3,0.6,2.9,1.5,2.5,4.5
	c-0.5,4.2-10.2,15.5-17,25.8c-7.2,11-7.8,22.6-7.3,34.4c0.7,17.9,5.4,30.9,7.7,36.2c5.4,12.5,9.7,20.2,14.8,25
	c2.5,2.4,5.7,3.4,5.8,7.3c0,2.2-1,3.5-3.1,4.5c-2.5,1.2-5.2-0.1-6.6-0.7c-9.7-4.6-14.9-13.7-21.9-27.7c-4.6-9.3-9.1-24.6-10.1-30.8
	c-0.8-5.3-4.6-29,6.4-50.1C484.8,152.7,488.3,146.5,497.9,136.5z"/>
<path class="st1" d="M443.5,268.3c-3.9,0-8.7-1.8-11.1-4c-14.3-13.7-20.5-38.4-22.6-48.3c-2.7-13.3-3.1-18.7-0.2-37.1
	c2-12.9,6.6-23.7,14.5-39c3.7-7.2,13.3-21.4,17.1-24.7c1.1-1,5.1-4.2,8.6-4.2c0.8,0,1.5,0.1,2.1,0.4c5.8,2.7,5.7,6.9,5.2,9.2
	c-1.8,7.7-9.3,19.8-15.2,29.6c-1.8,2.9-3.4,5.6-4.7,7.8c-9.5,16.5-8.6,38.6-8.4,42.9c0.6,10.5,2.8,20.8,6.1,29
	c2.3,5.8,7.8,18.4,13.9,29.1c1.1,1.9,2,4.5-0.2,7.3C448,267.2,446.5,268.3,443.5,268.3z"/>
<path class="st1" d="M425.9,140.6c3.5-6.9,13-21,16.6-24.1c1.7-1.5,6-4.6,8.5-3.4c3.7,1.7,4.7,4.1,4.1,6.9
	c-2.3,9.6-14.3,27.6-19.7,36.9c-9,15.7-9.1,36.5-8.6,44c0.6,9.9,2.6,20.6,6.3,29.7c1.6,4.1,7.3,17.4,14,29.4c1.2,2.1,1.2,3.5,0,5.2
	c-2,2.6-10.3,0.6-13.2-2.3c-11.2-10.7-18.5-30.2-22-47.3c-2.6-12.7-3.1-17.8-0.2-36.4C413.5,166.7,417.9,156.4,425.9,140.6z"/>
<path class="st1" d="M346.8,150.9c-0.4,0-0.8-0.1-1.1-0.2c-4.3-1.7-0.5-13.6,0.7-16.7c1.6-3.9,5.5-11.5,14-18.5
	c5.7-4.7,15.2-12.4,29.3-18.1c9.3-3.7,20.2-7.7,32.7-7.7c4.4,0,8.7,0.5,12.9,1.5c3.1,0.8,11.2,4.1,11.7,10.6c0.4,4.6-1.5,8.4-5,10.2
	c-1.7,0.9-3.4,1.3-5.4,1.3c-2.9,0-5.7-0.9-8.7-1.9c-2.4-0.8-4.9-1.6-7.7-2c-1.7-0.2-3.4-0.4-5.2-0.4c-9.8,0-20.9,3.7-35.1,11.6
	c-12.5,6.9-17.3,11.7-22.9,19.3c-0.9,1.2-1.7,2.3-2.4,3.3C350.7,148.6,349.1,150.9,346.8,150.9z"/>
<path class="st1" d="M348.2,134.7c1.7-4.1,5.4-11.2,13.4-17.7c6.2-5,15.3-12.4,28.7-17.8c11.2-4.5,27-10.3,44.3-6.1
	c2.8,0.7,9.8,3.7,10.2,8.9c0.3,3.4-0.8,6.7-3.9,8.3c-6.2,3.1-12.1-1.6-20.5-2.8c-13.3-2-27.8,3.8-41.5,11.4
	c-13.1,7.3-18,12.4-23.6,19.9c-5.3,7.2-7.5,10.7-9.1,10.1C344.9,148.2,345.8,140.9,348.2,134.7z"/>
<path class="st1" d="M464.9,100.4c-3.7,0-8.3-2-11.4-5c-2.4-2.3-3.1-4.3-3.7-6.5c-0.5-1.6-1-3.3-2.5-5.6c-2.8-4.2-6.4-6.6-8.7-8.2
	c-2.2-1.4-4.2-2.8-3.5-5c0.8-2.5,4.5-2.5,5.8-2.5c2.5,0,5.5,0.4,8.3,1.2c1.5,0.4,15.1,4.5,20.2,17.3c1.6,4,3.4,9.7,0.3,12.7
	C468.4,99.8,466.8,100.4,464.9,100.4z"/>
<path class="st1" d="M436.9,70.7c0.6-1.6,6.6-1.4,11.6,0c1.1,0.3,14.1,4.1,18.9,16.1c0.8,1.9,3.2,8.1,0.7,10.5
	c-2.5,2.4-9.2,0.4-13.2-3.4c-3.8-3.6-2.4-6.3-6-11.8C443.8,74.3,436.3,72.5,436.9,70.7z"/>
</svg>
