<?xml version="1.0" encoding="utf-8"?>
<!-- Generator: Adobe Illustrator 26.1.0, SVG Export Plug-In . SVG Version: 6.00 Build 0)  -->
<svg version="1.1" id="Layer_1" xmlns="http://www.w3.org/2000/svg" xmlns:xlink="http://www.w3.org/1999/xlink" x="0px" y="0px"
	 viewBox="0 0 566.9 566.9" style="enable-background:new 0 0 566.9 566.9;" xml:space="preserve">
<style type="text/css">
	.st0{fill:none;stroke:#000000;stroke-miterlimit:10;}
	.st1{fill:none;stroke:#E71A55;stroke-miterlimit:10;}
	.st2{fill:none;stroke:#51345F;stroke-miterlimit:10;}
	.st3{fill:none;stroke:#DD4197;stroke-miterlimit:10;}
</style>
<path class="st0" d="M439.5,401.4c-20.9,0-40.8-8.7-57.6-25.3c-12.8-12.7-20.6-26.6-23.1-32.9c-10-24.6-6.6-59.2-6.5-60.6l0.5-4.7
	l4-2.6c3.6-2.3,10-6.5,14.4-9.2c0.8-10.3,3.2-16.9,10.2-18.7c0.9-0.2,1.8-0.3,2.7-0.3c2.1,0,3.9,0.5,5.5,1.4
	c-1.9-1.3-3.6-2.8-5.4-4.7c-2.6-0.2-6.3-1-9-4.5c-2-2.6-3-5.8-2.9-8.9l0,0c-5-3.1-5.3-10.2-0.7-13.8l1.8-1.4
	c0.5-0.4,1.6-1.3,2.8-2.3c-0.9-4.1-1.8-10.1-1.9-17.7l-10.8-0.3c-6.1-0.1-10.7-5.7-9.6-11.8v0c0.2-1,4.6-25.1,12.8-40.2
	c13.4-24.4,32.4-39.2,56.4-43.9c4.6-0.9,9.2-1.4,13.8-1.4c24.3,0,41.8,12.7,47.5,16.9c0.3,0.2,0.6,0.4,0.8,0.6
	c29.5,21,36.9,61.5,37.2,63.2v0c0.9,5.4-2.6,10.6-8.1,11.6l-0.6,0.1c0.3,1.5,0.4,2.9,0.1,4.1c0.1,0.2,0.2,0.4,0.2,0.5
	c2.8,7.7,0.2,22.7-8,32.1c-2.7,3.1-5.6,5.7-8.4,7.8c0.5,0.6,0.9,1.2,1.4,1.9c5.9,9.1,6.9,17.4,2.7,24.5c0,0,0,0.1-0.1,0.1
	c6.1,2.9,13.1,6.8,16.7,9.4c2.1,1.5,6.4,4.6,7.7,31.9c0.6,13,0,31.6-6.1,47l-0.1,0.2c-4.4,11.3-23.1,48.6-76.2,51.4
	C442.2,401.3,440.8,401.4,439.5,401.4z"/>
<path class="st0" d="M363.7,184.9c0,0,4.2-23.3,11.8-37.1c8.9-16.2,24-33.9,49.5-38.9c28.6-5.6,49.3,10.8,54.4,14.5
	c20.9,14.9,29.5,41.7,32.1,52.3c0.6,2.4-1,4.9-3.4,5.3l-11.8,2.2l-0.4,9.2c0,0,7.2-0.3,7.7-0.3c3,0.2-8.5,7.2-8.5,7.2
	s9.3-2.1,9.8-0.9c1.3,3.5,0.3,14.7-6.1,22c-8.7,9.9-20.4,14-20.4,14s8.2,1.2,12.5,7.8c2.6,4,5.2,9.3,2.4,14.1
	c-1.5,2.6-3.6,3.7-3.7,6.5c-0.1,1.9-0.1,4.5,2.6,5.4c5.6,1.9,16.3,7.7,20.5,10.8c1.6,1.2,8.5,41.3-1.9,67.1
	c-1.4,3.5-15.4,42.6-67.6,45.4c-45.7,2.4-71-42-75-51.9c-9.2-22.6-5.8-55.8-5.8-55.8c5.5-3.6,18.6-11.8,18.6-11.8s0.5-14.1,3-14.7
	c2.9-0.7,7.8,11.4,10.2,10.6c1.7-0.6,1.3-7,2.6-7.5c1.3-0.5,4.3,3.4,10.4,5.3c4.5,1.4,16.7-2.2,16.7-2.2l1.2-16.3c0,0-10.6,2-20-1.9
	c-8-3.4-10.8-4.8-15.5-10.4c-0.9-1.1-5.4-0.3-6.2-1.3c-1.1-1.5-1.2-3.3-0.4-4.3c0.8-1.1,2-0.6,2.2-1.2c0.3-1-5.5-4.7-5.5-4.7
	s4.8-3.7,7.9-7.3c0,0-4.5-10.8-2.8-30.4L363.7,184.9z"/>
<path class="st1" d="M131.7,484c-9.6,0-18.9-1.5-27.6-4.4c-36.1-12.1-53.4-50.2-54.2-51.8c-4.6-10.3-11.4-39.4-7.2-63.2
	c0.8-4.4,2.8-6.7,15.6-14.8c13.3-8.4,15.6-8.4,17.9-8.4h0.5l0.5,0c2.5,0.2,5,0.5,26.8,15.8l18.9-12.7c3.2-2.2,7.4-2.3,10.7-0.3l0,0
	c8.6,5.2,19.2,11.1,23.8,13.2c4.8-2.5,15-10.9,17.7-13.6c1.9-2,4.6-3.1,7.4-3.1c2.5,0,4.9,0.4,15.8,6.5c11.4,6.3,11.8,7,13.1,9.1
	c5.7,9.2,6.1,37.9,3.3,60.4c-2.4,18.8-13.2,36.3-31.2,50.6C170.1,477.9,151.2,484,131.7,484z"/>
<path class="st1" d="M52.5,366.4c-3.9,22,2.8,49.2,6.5,57.3c3.9,8.7,20.2,37.1,48.2,46.4c24.4,8.2,53.1,2.8,70-10.6
	c4.8-3.8,24.4-19.6,27.5-44.1c3.1-24.4,1.4-48.5-1.9-53.9c-0.3-0.5-19.6-11.7-20.5-10.8c-2.9,3-20.1,17.8-25.3,17.1
	c-4.5-0.6-28.5-15-28.5-15l-24.7,16.5c0,0-24.8-17.8-27.5-18C74.2,351.2,52.8,364.8,52.5,366.4z"/>
<path class="st2" d="M251.2,175.4c-7.9,0-15.1-5.7-17.2-13.6c-2.3-8.6,2-17.9,9.8-21.2c1.9-0.8,3.9-1.2,5.9-1.2
	c1.6,0,2.9,0.2,3.5,0.4c6.3,1.2,13.4,6.1,15,14.4c0.9,4.7-0.2,9.7-3,13.7c-2.7,3.9-6.6,6.4-11.1,7.2
	C253.2,175.3,252.2,175.4,251.2,175.4C251.2,175.4,251.2,175.4,251.2,175.4z"/>
<path class="st2" d="M247.6,149.9c-3.1,1.3-5,5.6-4,9.3c0.9,3.6,4.6,6.9,8.8,6.1c4.3-0.8,6.7-5.3,6-9.2c-0.7-3.8-4.3-5.9-7-6.4
	C250.6,149.5,249.2,149.2,247.6,149.9z"/>
<path class="st2" d="M255.7,207.1c-2.7,0-5.3-0.8-7.6-2.3c-3.7-2.5-6-6.6-6.3-11.2c-0.4-4.8,2.5-10.9,8.5-12.7
	c1.5-0.5,3-0.7,4.5-0.7c4.1,0,7.7,1.7,10.3,4.7c3.8,4.4,4.6,10.1,2.2,15.2C265.2,204.3,260.6,207.1,255.7,207.1L255.7,207.1z"/>
<path class="st2" d="M251.7,192.8c0.1,1.4,0.6,2.8,2,3.7c1.6,1.1,3.8,0.5,4.5-0.8c0.7-1.5,0.4-3-0.8-4.4c-0.9-1.1-2.4-1.5-4.3-0.9
	C252,190.7,251.7,192.4,251.7,192.8z"/>
<path class="st2" d="M290.9,170.2c-7.9,0-15.1-5.7-17.2-13.6c-2.3-8.6,2-17.9,9.8-21.2c1.9-0.8,3.9-1.2,5.9-1.2
	c1.6,0,2.9,0.2,3.5,0.4c6.3,1.2,13.4,6.1,15,14.4c0.9,4.7-0.2,9.7-3,13.7c-2.7,3.9-6.6,6.4-11.1,7.2
	C292.9,170.1,291.9,170.2,290.9,170.2C290.9,170.2,290.9,170.2,290.9,170.2z"/>
<path class="st2" d="M287.3,144.7c-3.1,1.3-5,5.6-4,9.3c0.9,3.6,4.6,6.9,8.8,6.1c4.3-0.8,6.7-5.3,6-9.2c-0.7-3.8-4.3-5.9-7-6.4
	C290.3,144.3,288.9,144,287.3,144.7z"/>
<path class="st2" d="M303.3,207.1c-2.7,0-5.3-0.8-7.6-2.3c-3.7-2.5-6-6.6-6.3-11.2c-0.4-4.8,2.5-10.9,8.5-12.7
	c1.5-0.5,3-0.7,4.5-0.7c4,0,7.7,1.7,10.3,4.7c3.8,4.4,4.6,10.1,2.2,15.2C312.8,204.3,308.3,207.1,303.3,207.1L303.3,207.1z"/>
<path class="st2" d="M299.4,192.8c0.1,1.4,0.6,2.8,2,3.7c1.6,1.1,3.8,0.5,4.5-0.8c0.7-1.5,0.4-3-0.8-4.4c-0.9-1.1-2.4-1.5-4.3-0.9
	C299.7,190.7,299.4,192.4,299.4,192.8z"/>
<path class="st2" d="M280.6,247.2c-7.6,0-16.7-5.2-19.4-11.2c-1.8-4-1.2-8.5,1.6-11.8c1-1.1,1.7-2.1,2.4-3.1
	c2.2-3.1,5.2-7.3,12.1-8.9c1.5-0.3,2.8-0.5,4-0.5c4.5,0,7.3,2,8.8,3.1c0.9,0.7,1.9,1.4,4.6,2.3c4.3,1.5,7.1,5.4,7.1,10
	c0.1,7.5-8.4,16.4-15.8,19.1C284.3,246.9,282.5,247.2,280.6,247.2z"/>
<path class="st2" d="M270.3,230.8c4.2-4.8,4.6-7.8,9.2-8.8c4.8-1.1,3,1.5,11.9,4.6c1.9,0.7-3.6,8.3-8.8,10.2
	C277.7,238.6,268.7,232.6,270.3,230.8z"/>
<path class="st3" d="M95.8,183.4c-4.8,0-8.6-2.7-18.2-10.5l-1.1,6.5l-8.6-0.1c-23.3-0.3-23.3-0.3-26-2c-2.5-1.5-4.2-4-4.7-6.9
	c-0.3-1.6-1.1-5.8,5.7-25.1c2.6-7.4,7.9-20.9,13.9-29.1c17.1-23,38-34.7,62.3-34.7c4.7,0,9.7,0.5,14.6,1.3
	c47.3,8.5,65.2,54.3,69.6,68.1c3.3,10.4,4,15.8-0.2,20.1c-2.4,2.4-3.5,2.6-12.1,4.1c-2.7,0.5-7.2,1.2-8.3,1.5l-1.3,0.3l-1.3,0
	c-3.3,0-7.5-1.7-9.4-6.5c-6.1,4.9-11,8.4-15.8,9.6c-0.9,0.2-1.7,0.3-2.6,0.3c-3.7,0-6.7-1.7-14.1-5.8c-3.8-2.2-12.3-6.9-16.3-8.2
	c-2.3,1.5-6.5,5.1-9,7.1C105.7,179.7,101.3,183.4,95.8,183.4z"/>
<path class="st3" d="M47.1,168.7c-1.6-1,8.3-33.9,17.7-46.6C86,93.6,110,88.8,131.9,92.7c51.5,9.3,65.2,70.2,64,71.3
	c-0.3,0.3-13.4,2.2-15.9,2.9c-0.8,0.2-0.9-11.6-4.3-12.1c-3-0.4-16.6,13.8-23.4,15.5c-2.2,0.6-23.3-14.1-31.4-14.3
	c-5.7-0.1-21.2,17.3-25.2,17.3c-3.2,0-21.6-17.2-24.4-17.6c-1-0.2-3.3,13.5-3.3,13.5S47.5,169,47.1,168.7z"/>
<path class="st2" d="M94,327.1c-7-5-15.1-10.7-20.3-14c-1-0.6-2.2-0.7-3.3-0.1l-9.4,5.4c-2.2,1.3-4.9-0.4-4.7-2.9l0.9-12.9
	c0.8-11.8,2.2-21.7,11.4-23.1c0.6-0.1,1.2-0.1,1.9-0.1c1.9,0,3.6,0.4,5.1,1.1c-1.2-0.9-2.3-1.8-3.2-2.6c-0.3-0.2-0.5-0.5-0.8-0.7
	c-0.5-0.5-1.1-0.8-1.8-0.9c-3.4-0.4-5.7-2.1-7-3.5c-2.8-3-3.9-6-4.1-8.5c-0.1-1-0.7-1.8-1.5-2.3l-4.5-2.6c-1.9-1.1-2.1-3.7-0.5-5.1
	l7.2-6.3c0.6-0.6,1.3-1.2,2-1.8c0.8-0.7,1.2-1.8,1-2.9c-2.3-12.5-3-30.1,2.9-43.1l1.8-4.1c0.5-1.1,1.6-1.8,2.8-1.8l4.5,0
	c4,0,5.3,1,15.6,9.1c1.8,1.4,4.4,3.5,6.8,5.3c1.2,0.9,2.8,0.9,3.9-0.1c0.8-0.6,1.5-1.3,2.2-1.8c8.5-7.1,14.1-11.5,19.8-12.1
	c0.5-0.1,1-0.1,1.5-0.1c5.6,0,12.4,3.2,26.4,10.9c0.8,0.4,1.7,0.9,2.5,1.4c1.1,0.6,2.3,0.5,3.3-0.2c2.1-1.5,4.5-3.3,6.2-4.6
	c8.8-6.6,11.7-8.8,16.1-8.8c1.7,0,3.3,0.4,4.8,1.2c6.9,3.6,8.6,13,9,18.1c0.1,1.2,0.8,2.2,1.9,2.6c2.2,0.9,3.9,2.5,5,4.7
	c0.9,1.8,1.3,3.9,1,5.8c-0.1,0.5,0,1,0.2,1.5c1.1,2.6,1.1,5.1,1.1,6.2c0.1,7.5-3.2,21.5-12.5,29.1c-0.5,0.4-1,0.9-1.6,1.4
	c-0.5,0.4-0.9,0.8-1.5,1.3c-1.2,1-1.5,2.8-0.6,4.1c0.2,0.3,0.5,0.7,0.7,1.1c0.3,0.4,6.2,9.9,3.5,19.1c0,0,0,0,0,0
	c-0.5,1.7,0.5,3.5,2.2,4l1.4,0.3c2.4,0.6,3.2,3.7,1.3,5.4l-9.7,8.6c-22.1,19.7-28.1,19.7-30.9,19.7c-0.6,0-1.2,0-1.7-0.1
	c-5.9-0.9-17-6.8-25.9-12c-1-0.6-2.3-0.6-3.3,0.1L101.5,330c-1.1,0.7-2.5,0.7-3.6-0.1L94,327.1z"/>
<path class="st2" d="M67.2,303.4c0,0,3.4-2,5.1-2.4c1.8-0.4,27.5,18,27.5,18c2.2-1.5,24.7-16.5,24.7-16.5s22.5,14,29.3,15
	c4.6,0.7,24.6-17.1,24.6-17.1s-2.8-0.7-2.6-4c0.4-6.1,3.4-6.1,4.5-9.7c1.1-3.8-1.2-9-2.4-10.9c-5.3-8.3-13.2-9.4-13.2-9.4
	s0.5-0.1,5.4-2.3c6-2.7,10.2-7.2,12.8-9.3c8-6.5,10.1-22.7,8.2-24.2c-1.9-1.5-9.5,1.7-9.8,0.9c-0.2-0.5,7.1-4.1,9.2-6.9
	c0.6-0.8-8.3,0.1-8.3,0.1c0.2-3.8,0.4-6.3,0.4-9.2c0-5.9-1.9-11.2-3.8-12.2c-1.5-0.8-20.5,15.7-23.8,15.6
	c-2.5-0.1-25.5-14.9-31.3-14.3c-5.5,0.6-21.3,17.1-25,17.3c-2.2,0.1-24-18.5-24.4-17.6c-5.6,12.4-3.9,32.7-0.5,43.9
	c0.1,0.3-7.9,7.3-7.9,7.3s5.7,3.3,5.5,4.7c-0.1,1-1.7,0-2.6,1.9c-0.8,1.7,0.8,3.4,1.3,4c0.8,0.8,2.8,0,4.9,0.6
	c1.3,0.4,2.8,2.8,4.1,4c3.6,3.3,10.4,7.2,16.6,8.3c10.6,1.8,12.9,0.8,15.3,0.5c0,0-0.2,9.3-0.9,16.2c0,0-11,3.3-16.7,2.2
	c-5.5-1.1-9-6.3-10.4-5.2c-1.2,0.9-1.5,7.5-2.6,7.5c-1.7,0.1-3-2.5-3.9-3.8c-2.2-3.2-4-7.2-6.3-6.8
	C68.2,289.7,67.2,303.4,67.2,303.4z"/>
</svg>
