<?xml version="1.0" encoding="utf-8"?>
<!-- Generator: Adobe Illustrator 26.1.0, SVG Export Plug-In . SVG Version: 6.00 Build 0)  -->
<svg version="1.1" id="Layer_1" xmlns="http://www.w3.org/2000/svg" xmlns:xlink="http://www.w3.org/1999/xlink" x="0px" y="0px"
	 viewBox="0 0 566.9 566.9" style="enable-background:new 0 0 566.9 566.9;" xml:space="preserve">
<style type="text/css">
	.st0{fill:none;stroke:#DD4197;stroke-miterlimit:10;}
	.st1{fill:none;stroke:#51345F;stroke-miterlimit:10;}
</style>
<path class="st0" d="M255.9,236.2c-4.8,0-8.6-2.8-18.2-10.6l-1.1,6.5l-8.5-0.1c-23.3-0.3-23.3-0.3-26-2c-2.5-1.5-4.1-3.9-4.7-6.8
	c-0.3-1.6-1.1-5.8,5.7-25.1c2.6-7.4,7.9-20.9,13.9-29.1c17.1-23,38-34.7,62.2-34.7c4.7,0,9.6,0.5,14.6,1.3
	c47.2,8.5,65.2,54.3,69.6,68.1c3.3,10.4,4,15.7-0.2,20c-2.4,2.4-3.5,2.6-12.1,4c-2.7,0.5-7.2,1.2-8.3,1.5l-1.3,0.3c0,0-1.3,0-1.3,0
	c-3.3,0-7.5-1.8-9.4-6.5c-6.1,4.9-11,8.4-15.8,9.6c-0.8,0.2-1.7,0.3-2.6,0.3c-3.7,0-6.7-1.7-14.1-5.8c-3.9-2.2-12.4-7-16.4-8.2
	c-2.3,1.5-6.6,5.1-9,7.2C265.7,232.5,261.4,236.2,255.9,236.2z"/>
<path class="st0" d="M207.3,221.6c-1.6-1,8.3-33.9,17.7-46.6c21.2-28.5,45.1-33.4,67.1-29.5c51.5,9.3,65.2,70.2,64,71.3
	c-0.3,0.3-13.4,2.2-15.9,2.9c-0.8,0.2-0.9-11.6-4.3-12.1c-3-0.4-16.6,13.8-23.4,15.5c-2.2,0.6-23.3-14.1-31.4-14.3
	c-5.7-0.1-21.2,17.3-25.2,17.3c-3.2,0-21.6-17.2-24.4-17.6c-1-0.2-3.3,13.5-3.3,13.5S207.6,221.9,207.3,221.6z"/>
<path class="st1" d="M262,374.5c-7.8-5.6-17.1-12-22-15.1l-8.4,4.8c-3.3,1.9-7.3-0.6-7-4.4l0.7-9.8c0.8-11.8,2.2-21.6,11.3-23.1
	c0.6-0.1,1.2-0.1,1.8-0.1c2.5,0,4.6,0.7,6.3,1.8c-1.7-1.1-3.2-2.3-4.4-3.5c-0.6-0.5-1.1-1.1-1.5-1.6c-4-0.2-6.6-2-8-3.6
	c-3.4-3.6-4.2-7.2-4.2-9.9l-4.2-2.5c-2.7-1.6-3.1-5.3-0.7-7.4l5.6-4.9c1.1-1,2.3-2,3.4-3c-2.6-12.5-3.6-31.2,2.5-44.8l1-2.1
	c1-2.3,3.3-3.7,5.8-3.7l2.4,0c4,0,5.3,1,15.5,9.1c2.4,1.9,6,4.7,8.9,6.8c1.4-1.1,2.9-2.4,4.2-3.4c8.5-7.1,14-11.4,19.7-12.1
	c0.5-0.1,1-0.1,1.5-0.1c5.6,0,12.3,3.2,26.3,10.9c1.3,0.7,2.9,1.6,4.3,2.3c2.4-1.6,5.7-4.1,7.9-5.8c8.7-6.6,11.7-8.8,16-8.8
	c1.6,0,3.3,0.4,4.7,1.2c8,4.2,9,16.2,9.1,20.2c3.2,0.7,5.4,2.5,6.9,5.3c1.1,2.1,1.3,4.4,0.9,6.6c1.4,2.8,1.4,5.7,1.4,6.9
	c0.1,7.2-3.3,21.5-12.5,29c-0.5,0.4-1,0.9-1.6,1.4c-1.1,0.9-2.3,2.1-3.8,3.2c0.8,1,1.7,2.1,2.4,3.3c0.3,0.4,6.2,9.9,3.5,19
	c-0.4,1.2-0.8,2.3-1.3,3.2l2.4,0.6c3.4,0.9,4.5,5.2,1.9,7.6l-7.8,6.9c-22.1,19.6-28.3,19.6-30.9,19.6c-0.6,0-1.2,0-1.7-0.1
	c-6.3-0.9-18.4-7.6-27.6-13l-20.4,13.6c-2.9,1.9-6.6,1.8-9.4-0.2L262,374.5z"/>
<path class="st1" d="M235.1,350.8c0,0,3.4-2,5.1-2.4c1.8-0.4,27.5,18,27.5,18c2.2-1.5,24.7-16.5,24.7-16.5s22.5,14,29.3,15
	c4.6,0.7,24.6-17.1,24.6-17.1s-2.8-0.7-2.6-4c0.4-6.1,3.4-6.1,4.5-9.7c1.1-3.8-1.2-9-2.4-10.9c-5.3-8.3-13.2-9.4-13.2-9.4
	s0.5-0.1,5.4-2.3c6-2.7,10.2-7.2,12.8-9.3c8-6.5,10.1-22.7,8.2-24.2c-1.9-1.5-9.5,1.7-9.8,0.9c-0.2-0.5,7.1-4.1,9.2-6.9
	c0.6-0.8-8.3,0.1-8.3,0.1c0.2-3.8,0.4-6.3,0.4-9.2c0-5.9-1.9-11.2-3.8-12.2c-1.5-0.8-20.5,15.7-23.8,15.6
	c-2.5-0.1-25.5-14.9-31.3-14.3c-5.5,0.6-21.3,17.1-25,17.3c-2.2,0.1-24-18.5-24.4-17.6c-5.6,12.4-3.9,32.7-0.5,43.9
	c0.1,0.3-7.9,7.3-7.9,7.3s5.7,3.3,5.5,4.7c-0.1,1-1.7,0-2.6,1.9c-0.8,1.7,0.8,3.4,1.3,4c0.8,0.8,2.8,0,4.9,0.6
	c1.3,0.4,2.8,2.8,4.1,4c3.6,3.3,10.4,7.2,16.6,8.3c10.6,1.8,12.9,0.8,15.3,0.5c0,0-0.2,9.3-0.9,16.2c0,0-11,3.3-16.7,2.2
	c-5.5-1.1-9-6.3-10.4-5.2c-1.2,0.9-1.5,7.5-2.6,7.5c-1.7,0.1-3-2.5-3.9-3.8c-2.2-3.2-4-7.2-6.3-6.8
	C236.1,337.1,235.1,350.8,235.1,350.8z"/>
<path class="st1" d="M288.3,433.9c-7.6,0-16.6-5.2-19.3-11.1c-1.8-4-1.2-8.5,1.6-11.7c1-1.1,1.7-2.1,2.4-3.1
	c2.2-3.1,5.2-7.3,12.1-8.8c1.5-0.3,2.8-0.5,4-0.5c4.4,0,7.2,2,8.7,3.1c0.9,0.7,1.9,1.4,4.6,2.3c4.2,1.5,7,5.4,7.1,9.9
	c0.1,7.4-8.4,16.3-15.7,19C292,433.6,290.2,433.9,288.3,433.9z"/>
<path class="st1" d="M278,417.6c4.2-4.8,4.6-7.8,9.2-8.8c4.8-1.1,3,1.5,11.9,4.6c1.9,0.7-3.6,8.3-8.8,10.2
	C285.4,425.4,276.5,419.4,278,417.6z"/>
</svg>
