<?xml version="1.0" encoding="utf-8"?>
<!-- Generator: Adobe Illustrator 26.1.0, SVG Export Plug-In . SVG Version: 6.00 Build 0)  -->
<svg version="1.1" id="Layer_1" xmlns="http://www.w3.org/2000/svg" xmlns:xlink="http://www.w3.org/1999/xlink" x="0px" y="0px"
	 viewBox="0 0 566.9 566.9" style="enable-background:new 0 0 566.9 566.9;" xml:space="preserve">
<style type="text/css">
	.st0{fill:none;stroke:#60BD64;stroke-miterlimit:10;}
</style>
<path class="st0" d="M208.1,223.4l-1.7-3.6c6.6-3.2,17.6-9.1,24.1-12.9l2,3.4C226,214.2,214.8,220.2,208.1,223.4z"/>
<path class="st0" d="M355.5,218.8c-6.2-1.8-15.9-6.6-20.5-9.4l2.1-3.4c4.4,2.7,13.7,7.3,19.6,9L355.5,218.8z"/>
<path class="st0" d="M325.5,363.8c-4.6-6.5-10.8-10.3-15.8-13.3c-3.2-1.9-5.7-3.4-7.2-5.2c-6.2-7.4-6.4-7.9-6.1-17.7
	c0.1-5-0.1-6.4-0.3-6.8c0,0-0.1,0-0.2-0.1c-0.7-0.5-2.8-0.6-6.3,0.9c-4.4,1.9-8.1,5.2-8.5,7.5c-2.1,13.3,0,25.6,0.8,27.2
	c0,0,0-0.1-0.1-0.2l-3.1,2.5c-1.5-1.8-3.7-15.8-1.5-30.1c0.7-4.4,5.9-8.5,10.8-10.6c2.5-1.1,7.2-2.6,10.1-0.5
	c1.9,1.4,2.4,2.7,2.2,10.3c-0.2,8.5-0.2,8.5,5.2,15c1.1,1.3,3.5,2.7,6.2,4.4c5.1,3.1,12,7.3,17,14.4L325.5,363.8z"/>
<path class="st0" d="M332,359.6c-4.5-5-4.5-8.5-4.5-11.3l0-0.1c0-0.8,0-1.5,0.1-2.1c-0.9,0.5-2,1.1-3.6,1.6c-6.7,2-12.8-0.9-14-1.5
	c-2.7-1.4-7.1-4.3-6.2-7.8c0.1-0.5,0.3-0.9,0.6-1.2c-0.2-0.1-0.3-0.1-0.5-0.2c-1.7-0.8-4.5-2.6-4.6-5.5c-0.1-3.8,4.5-6,6-6.6
	c2.1-0.9,4.2-1,5.8-1c-0.8-0.7-1.7-1.5-2.6-2.5c-2-2.3-3.2-7.9-0.9-10.4c3.8-4.1,15.8-2.6,24.7,1.2l-1.5,3.7
	c-9.2-3.9-18.5-4-20.2-2.1c-0.5,0.6-0.1,3.8,1,5.1c1.1,1.3,2.3,2.2,3.3,3c1.6,1.3,3.4,2.7,2.5,4.8c-0.8,1.8-2.7,1.6-4.3,1.4
	c-1.7-0.2-3.9-0.4-6.3,0.6c-1.9,0.8-3.5,2.1-3.5,2.8c0,0.4,0.8,1.3,2.4,2c2.2,1,4.6,0.7,5.8,0.5c2.1-0.3,2.8,0.7,2.9,1.6
	c0.4,2-1.7,2.4-2.6,2.6c-2.9,0.5-3.7,1-4,1.3c0.2,0.6,1.7,2.1,4.1,3.4c0.6,0.3,5.7,2.9,11,1.2c1.6-0.5,2.6-1.1,3.4-1.7
	c1.1-0.7,2.7-1.7,4.3-0.4c1.3,1,1.2,2.6,1,3.9c-0.1,0.7-0.2,1.4-0.2,2.4l0,0.1c0,2.6,0,4.8,3.5,8.7L332,359.6z"/>
<path class="st0" d="M285.4,421.1c-3.2,0-6.7-0.6-8.3-1.2l1.5-3.7c1.2,0.5,5.1,1,8,0.9c4.7-0.3,10.5-4,11.6-5l2.6,3
	c-1,0.9-7.7,5.6-14,6C286.4,421.1,285.9,421.1,285.4,421.1z"/>
</svg>
