<?xml version="1.0" encoding="utf-8"?>
<!-- Generator: Adobe Illustrator 26.3.1, SVG Export Plug-In . SVG Version: 6.00 Build 0)  -->
<svg version="1.1" id="Layer_1" xmlns="http://www.w3.org/2000/svg" xmlns:xlink="http://www.w3.org/1999/xlink" x="0px" y="0px"
	 viewBox="0 0 566.9 566.9" style="enable-background:new 0 0 566.9 566.9;" xml:space="preserve">
<style type="text/css">
	.st0{fill:none;stroke:#DC1F26;stroke-miterlimit:10;}
</style>
<path class="st0" d="M203.5,429.9c-6.9,0-18.8-0.4-21.4-3.2c-1.9-2.1-2.2-3.5-2.3-5c-0.1-0.8-0.1-1.2-1.3-2.3
	c-0.3-0.3-1.2-0.6-3.5-0.6c-0.8,0-1.7,0-2.6,0.1c-0.9,0-1.9,0.1-2.8,0.1c-2.7,0-5.6-0.3-7.1-2.6c-1.7-2.5-0.4-6,0.6-8.4
	c6.2-13.8,9.1-97.9,8.6-128.2c-0.2-11.7,0.2-24.8,0.7-38.6c1-31.8,2-64.7-4.5-78.2c-1.9-3.8-1.2-6.3-0.3-7.7c1.2-1.8,3-2.6,4.1-2.8
	c1-0.4,2.2-0.6,3.4-0.6c1.5,0,2.9,0.3,4.2,0.6c0.9,0.2,1.8,0.4,2.5,0.4h0c0.3,0,0.5,0,0.7-0.1c2.2-1.4,2.3-3,2.6-4.9
	c0.2-2.2,0.7-5.8,6-5.8c0.4,0,0.8,0,1.3,0.1c20,1.6,71,3.5,87,4c2.1,0.1,4.4,0.1,6.7,0.1c15.2,0,32.5-1.2,49.3-2.4
	c14.7-1,28.7-2,39.4-2c14.7,0,21.2,1.8,22.3,6.2c0.8,2.9,0.1,4.9-0.5,6c-1.1,1.9-3,3.4-5.1,5c-3.2,2.5-6.6,5.2-7,9.3
	c-0.4,4.6,3.5,7.2,9.6,10.5c5.9,3.3,13.3,7.5,9.4,16c-2,4.5-9.9,9-52.6,9c-20.1,0-43.2-1-63.5-1.9c-16.5-0.7-30.7-1.3-40.7-1.3
	c-8.7,0-11.7,0.5-12.7,0.9c-1,0.4-3.5,3.2-4.2,19.5c-0.5,11.5,0,26.8,0.5,41.6c0.3,9.6,0.6,19.6,0.7,28.5c0.2,25.2,1.5,46,2.9,68
	c1.1,17,2.2,34.6,2.9,55.9l0,0.2c0.2,6.5,0.4,12.1-11.8,13.5C217.7,429.4,210.4,429.9,203.5,429.9z"/>
<path class="st0" d="M192.1,143.8c20.7,1.7,72.3,3.6,87.1,4c43.5,1.2,112.9-10.7,115.9,0.3c0.2,0.6,0.7,2.7-0.3,4.5
	c-2.4,4.2-11.6,7.3-12.3,15.1c-1.1,13.1,25.2,12.7,19.2,25.9c-7.7,16.8-156.3,0.6-168.5,5.7c-9.1,3.9-4.5,54.9-4.3,91.5
	c0.3,44.6,4.1,74.7,5.8,124c0.2,6.7,0.4,10.4-10,11.7c-20,2.3-38.7,1.1-41-1.3c-3.3-3.5-0.1-4.2-3.7-7.4c-4.1-3.7-20.8,4.1-14.9-9.2
	c6.6-14.7,9.2-100.6,8.8-129.1c-0.6-39.1,5.6-97.9-4.1-117.7c-3.3-6.7,2.6-7.8,2.6-7.8c4.2-1.7,8.7,1.6,11.2,0
	C189.9,150,183.4,143.1,192.1,143.8z"/>
</svg>
