<?xml version="1.0" encoding="utf-8"?>
<!-- Generator: Adobe Illustrator 26.3.1, SVG Export Plug-In . SVG Version: 6.00 Build 0)  -->
<svg version="1.1" id="Layer_1" xmlns="http://www.w3.org/2000/svg" xmlns:xlink="http://www.w3.org/1999/xlink" x="0px" y="0px"
	 viewBox="0 0 566.9 566.9" style="enable-background:new 0 0 566.9 566.9;" xml:space="preserve">
<style type="text/css">
	.st0{fill:none;stroke:#C05FA5;stroke-width:1.4173;stroke-miterlimit:11.3386;}
</style>
<path class="st0" d="M386.7,426.4c-6.4,0-12.4-3.1-15.5-6.2c-3.1-3.1-9.2-8.3-11.9-9.9c-1.4-0.8-2.3-1-2.9-1c-0.2,0-0.4-0.1-0.5-0.1
	l-0.2,0c-0.4-0.1-1-0.2-1.6-0.2c-2.8,0-6.5,2-10.9,5.8c-6.3,5.5-10.6,6.7-17.8,7.3c-0.8,0.1-1.5,0.1-2.2,0.1c-2.2,0-4.3-0.3-6.3-0.9
	c-2.2-0.7-4.4-1.9-7.8-4.4c-4.2-3.1-6.5-6.5-7.5-11.1c-0.9-4.3,3.1-22.3,4.4-27.7c2.1-8.9,1.7-21.8,1.5-29.5c0-1.1-0.1-2.1-0.1-3
	c-0.2-9.4-2.4-17.2-4.2-23.5c-0.4-1.6-0.9-3-1.2-4.4c-0.3-1.2-0.8-3.6-1.6-6.9c-1.8-7.9-4.7-21.2-7.9-32.6
	c-4.9-17.4-7.7-20.2-8.4-20.6c-4.2,2.8-13.5,36.4-18.5,59.8c-1.7,8.1-3.5,16.5-4.3,28.1c-0.6,9-1.3,20.3,1,32.6
	c0.5,2.5,0.9,5.1,1.3,7.5c0.3,2.2,0.7,4.5,1.1,6.7l0.4,2.3c1,5.4,1.4,7.7,0.8,11.1c-0.5,2.7-2.1,7.9-6.7,11.8
	c-3.7,3.2-8.4,4.8-14.1,4.8c-0.9,0-1.7,0-2.3-0.1c-8-0.4-14.4-4.2-16.8-5.9c-1.9-1.3-6.8-4.4-9-5.5c-1.3-0.6-3.6-1.5-4.5-1.5
	c-0.1,0-0.1,0-0.2,0c-1.5,0-4.3,0.7-5.4,1.4c-1.5,0.9-3.3,2.8-5.2,4.9c-1.6,1.7-3.2,3.4-4.9,4.9c-3.8,3.2-9.1,5.1-14.7,5.1
	c-1.8,0-3.6-0.2-5.3-0.6c-3.2-0.7-11.1-3.2-14.4-10.3c-2.7-5.7-1.2-10.3,1.6-17.9c3.1-8.5,5.1-12.7,11.5-25.4
	c1.2-2.4,3.1-6.3,6.7-14c3.7-7.8,6.3-13.8,9.1-20.1c1.6-3.7,3.3-7.5,5.3-12c4-8.9,6.8-14.9,9-19.8c4-8.7,6.2-13.5,10.4-23.7
	c5.6-13.6,13.8-38.6,16.6-49.4c2.5-9.7,7.7-37.4,8.3-40.8c0.9-5.2,1.7-13,2.5-21.4c0.6-6.5,1.3-13.3,2.1-19.5c1-7.6,6.1-8.9,8.3-9.2
	c0.5-0.1,1-0.1,1.4-0.1c5.3,0,7.4,3.4,9.3,6.3c0.4,0.7,0.8,1.3,1.3,2c1,1.4,2.7,1.6,3.6,1.6c1.6,0,3-0.6,3.6-1.1
	c1.3-1.3,2.4-2.6,3.4-4c2.2-2.8,4.3-5.5,7.5-5.5c0,0,0,0,0,0c2.6,0,5.5,2.1,8.6,6.4c2.9,3.9,3.6,4.3,5,4.6c0.4,0.1,0.8,0.1,1.2,0.1
	c1,0,3.4-0.3,5.1-3c3.3-5.3,6.3-7.5,9.9-7.6l0.3,0c3.9,0,8.5,1.7,8.8,9.9c0.6,17.9,1.8,24.7,4.3,38.3l0.4,2c0.7,4,4.2,21.6,8.3,40.5
	c5,22.9,9,33.4,12.9,43.5c0.8,2.2,1.7,4.3,2.5,6.6c6.4,17.5,10.9,27,14.9,35.4c1.2,2.6,2.4,5.1,3.6,7.7c1.4,3.1,3.5,7.3,5.6,11.8
	c3.7,7.6,7.8,16.2,10,21.6c1.1,2.7,2.6,5.7,3.9,8.3c0.9,1.8,1.7,3.4,2.4,4.8c0.9,2,2.3,4.8,3.8,7.7c2.9,5.6,6.1,11.9,7.9,17.1
	c0.5,1.3,0.9,2.3,1.3,3.2c1.5,3.4,2.4,5.8,1.5,13.4c-0.2,1.9-1.7,5.2-4.4,7.8c-2.5,2.4-5.5,3.4-8.7,4.5
	C390.9,426.1,388.8,426.4,386.7,426.4z"/>
<path class="st0" d="M247.4,150.9c0.8-6.4,4.9-7.3,6.5-7.4c6.3-0.6,7.5,3.6,10.2,7.4c2.6,3.6,8.3,2.7,10.2,0.7
	c4-4.1,6.1-8.9,9.5-8.9c2.2,0,5,2.9,7,5.6c2.9,4,4,4.9,6.2,5.4c2.6,0.6,6.2-0.2,8.3-3.7c3-4.8,5.5-6.6,8.3-6.7c2.7-0.1,6.8,0.7,7,8
	c0.6,18.9,1.9,25.4,4.7,40.6c0.8,4.2,4.2,21.9,8.3,40.5c6.1,27.9,10.7,37.3,15.5,50.4c8.4,22.8,13.4,31.9,18.5,43.2
	c3.8,8.3,12.2,24.8,15.6,33.3c1.8,4.6,4.7,9.7,6.3,13.2c2.6,5.9,8.9,16.8,11.6,24.6c2,5.7,3.8,5.9,2.8,15.8
	c-0.1,1.2-1.2,4.1-3.8,6.6c-2,2-4.6,2.9-8,4c-8,2.7-16.1-1.2-19.6-4.7c-3.3-3.3-9.5-8.5-12.3-10.2c-2.1-1.3-3.5-1.2-4-1.4
	c-1.6-0.4-5.7-1.7-14.5,6c-5.8,5.1-9.7,6.2-16.7,6.9c-3.9,0.3-6.5-0.4-7.7-0.7c-2.1-0.6-4.1-1.8-7.2-4.1c-3.9-2.9-5.9-6-6.8-10
	c-0.7-3,1.9-16,4.4-26.8c2.5-10.4,1.6-25.5,1.5-33c-0.3-12-3.6-21.1-5.5-28.4c-1.9-7.4-12.4-61.5-19.9-61.6
	c-6.6-0.1-19.1,55.4-20.4,61.4c-1.8,8.5-3.6,16.9-4.3,28.4c-0.6,8.9-1.4,20.5,1,33.1c0.9,4.7,1.5,9.5,2.4,14.2
	c1.3,7,1.9,9.2,1.2,12.6c-0.4,1.9-1.7,6.9-6.1,10.7c-5.5,4.7-12.2,4.4-15,4.2c-8.1-0.4-14.5-4.6-15.7-5.5c-1.8-1.2-6.8-4.4-9.2-5.6
	c-1.3-0.6-3.9-1.6-5.3-1.7c-1.7-0.1-5.3,0.7-6.8,1.7c-3.1,1.9-6.6,6.8-10.3,9.9c-4.9,4.2-12.2,5.4-18.2,4.1c-1.5-0.3-9.7-2.2-13-9.2
	c-2.3-4.9-1.1-8.8,1.7-16.3c3.1-8.3,5-12.6,11.4-25.2c1.2-2.4,3.1-6.3,6.7-14.1c5.9-12.4,8.9-20,14.4-32.1
	c11.1-24.6,12.9-27.5,19.5-43.6c5.7-13.8,13.9-38.9,16.7-49.7c2.5-9.7,7.8-37.7,8.3-41C244.4,182.5,245.7,165,247.4,150.9z"/>
</svg>
