<?xml version="1.0" encoding="utf-8"?>
<!-- Generator: Adobe Illustrator 26.3.1, SVG Export Plug-In . SVG Version: 6.00 Build 0)  -->
<svg version="1.1" id="Layer_1" xmlns="http://www.w3.org/2000/svg" xmlns:xlink="http://www.w3.org/1999/xlink" x="0px" y="0px"
	 viewBox="0 0 566.9 566.9" style="enable-background:new 0 0 566.9 566.9;" xml:space="preserve">
<style type="text/css">
	.st0{fill:none;stroke:#C05FA5;stroke-width:1.4173;stroke-miterlimit:11.3386;}
</style>
<path class="st0" d="M387.1,434.4c-9.3,0-17-4.4-21.2-8.5c-3.1-3.1-8.6-7.6-10.4-8.7c-0.4-0.1-0.8-0.1-1-0.2l-0.1,0
	c-0.6,0.2-2.4,1-5.6,3.8c-7.8,6.8-13.9,8.5-22.4,9.3c-1,0.1-2,0.1-3,0.1c-3,0-5.8-0.4-8.6-1.3c-3.6-1.1-6.7-3-10.2-5.6
	c-5.7-4.2-9.2-9.4-10.6-15.9c-0.4-1.9-1.4-6.4,4.5-31.2c1.9-7.9,1.5-20.1,1.3-27.4c0-1.1-0.1-2.1-0.1-3c-0.2-8.4-2.2-15.4-3.9-21.5
	c-0.5-1.6-0.9-3.1-1.3-4.6c-0.4-1.4-0.9-3.8-1.6-7.2c-3.6-16.1-6.3-27.1-8.5-34.6c-3.8,12.2-8,29-10.6,41.1
	c-1.7,7.8-3.4,15.9-4.1,26.9c-0.6,8.6-1.3,19.2,0.9,30.6c0.5,2.6,0.9,5.3,1.3,7.8c0.3,2.2,0.7,4.4,1.1,6.5l0.4,2.3
	c1.1,5.7,1.7,9.2,0.8,14.1c-0.7,3.7-2.9,10.8-9.4,16.4c-5.2,4.5-11.7,6.7-19.3,6.7c-1.1,0-2.1,0-2.7-0.1c-10.1-0.5-18-5.2-20.9-7.3
	c-1.8-1.2-6.3-4.1-8-4.9c-0.4-0.2-1.1-0.5-1.6-0.6c-0.4,0.1-0.8,0.2-1.1,0.3c-0.7,0.6-2.3,2.2-3.3,3.3c-1.7,1.8-3.5,3.8-5.6,5.5
	c-5.3,4.5-12.3,6.9-19.8,6.9c-2.4,0-4.8-0.3-7-0.8c-9.2-2.1-16.5-7.5-19.9-14.7c-4.2-9-1.5-16.3,1.3-24c3.2-8.7,5.3-13.4,11.8-26.2
	c1.1-2.3,2.9-6,6.5-13.6l0.1-0.3c3.7-7.7,6.2-13.6,9-19.8c1.6-3.7,3.3-7.6,5.3-12.1c4-8.9,6.8-15,9.1-19.9c4-8.6,6.1-13.3,10.3-23.4
	c5.4-13.1,13.6-38,16.3-48.4c2.4-9.3,7.6-36.9,8.2-40.2c0.8-4.9,1.6-12.6,2.4-20.8c0.7-6.6,1.3-13.4,2.1-19.7
	c1.4-10.9,8.8-15.5,15.4-16.1c0.8-0.1,1.5-0.1,2.3-0.1c8,0,12.3,4.6,14.8,8c0-0.1,0.1-0.1,0.1-0.2c2.6-3.4,6.7-8.5,13.6-8.6l0.3,0
	c5.2,0,10,3,14.7,9.3c2.6-3.6,7.4-8.6,14.8-8.7l0.5,0c9.8,0,16.4,6.9,16.8,17.7c0.6,17.3,1.7,23.5,4.2,37.1l0.4,2
	c0.7,3.9,4.1,21.4,8.2,40.2c4.9,22.3,8.6,32.1,12.6,42.4c0.8,2.2,1.7,4.4,2.5,6.7c6.3,17.2,10.6,26.1,14.6,34.8
	c1.2,2.6,2.4,5.1,3.6,7.8c1.4,3,3.4,7.2,5.5,11.6c3.7,7.7,8,16.4,10.2,22.1c0.9,2.4,2.4,5.2,3.6,7.6c0.9,1.8,1.8,3.6,2.5,5.2
	c0.8,1.8,2.2,4.5,3.6,7.3c3,5.8,6.3,12.4,8.3,18.1c0.3,1,0.7,1.7,1.1,2.6c2,4.4,3.2,8.1,2.2,17.5c-0.4,3.4-2.3,8.5-6.8,12.7
	c-3.7,3.6-8.1,5.1-11.7,6.3C393,433.9,390.1,434.4,387.1,434.4z"/>
<path class="st0" d="M247.8,150.9c0.8-6.4,4.9-7.3,6.5-7.4c6.3-0.6,7.5,3.6,10.2,7.4c2.6,3.6,8.3,2.7,10.2,0.7
	c4-4.1,6.1-8.9,9.5-8.9c2.2,0,5,2.9,7,5.6c2.9,4,4,4.9,6.2,5.4c2.6,0.6,6.2-0.2,8.3-3.7c3-4.8,5.5-6.6,8.3-6.7c2.7-0.1,6.8,0.7,7,8
	c0.6,18.9,1.9,25.4,4.7,40.6c0.8,4.2,4.2,21.9,8.3,40.5c6.1,27.9,10.7,37.3,15.5,50.4c8.4,22.8,13.4,31.9,18.5,43.2
	c3.8,8.3,12.2,24.8,15.6,33.3c1.8,4.6,4.7,9.7,6.3,13.2c2.6,5.9,8.9,16.8,11.6,24.6c2,5.7,3.8,5.9,2.8,15.8
	c-0.1,1.2-1.2,4.1-3.8,6.6c-2,2-4.6,2.9-8,4c-8,2.7-16.1-1.2-19.6-4.7c-3.3-3.3-9.5-8.5-12.3-10.2c-2.1-1.3-3.5-1.2-4-1.4
	c-1.6-0.4-5.7-1.7-14.5,6c-5.8,5.1-9.7,6.2-16.7,6.9c-3.9,0.3-6.5-0.4-7.7-0.7c-2.1-0.6-4.1-1.8-7.2-4.1c-3.9-2.9-5.9-6-6.8-10
	c-0.7-3,1.9-16,4.4-26.8c2.5-10.4,1.6-25.5,1.5-33c-0.3-12-3.6-21.1-5.5-28.4c-1.9-7.4-12.4-61.5-19.9-61.6
	c-6.6-0.1-19.1,55.4-20.4,61.4c-1.8,8.5-3.6,16.9-4.3,28.4c-0.6,8.9-1.4,20.5,1,33.1c0.9,4.7,1.5,9.5,2.4,14.2
	c1.3,7,1.9,9.2,1.2,12.6c-0.4,1.9-1.7,6.9-6.1,10.7c-5.5,4.7-12.2,4.4-15,4.2c-8.1-0.4-14.5-4.6-15.7-5.5c-1.8-1.2-6.8-4.4-9.2-5.6
	c-1.3-0.6-3.9-1.6-5.3-1.7c-1.7-0.1-5.3,0.7-6.8,1.7c-3.1,1.9-6.6,6.8-10.3,9.9c-4.9,4.2-12.2,5.4-18.2,4.1c-1.5-0.3-9.7-2.2-13-9.2
	c-2.3-4.9-1.1-8.8,1.7-16.3c3.1-8.3,5-12.6,11.4-25.2c1.2-2.4,3.1-6.3,6.7-14.1c5.9-12.4,8.9-20,14.4-32.1
	c11.1-24.6,12.9-27.5,19.5-43.6c5.7-13.8,13.9-38.9,16.7-49.7c2.5-9.7,7.8-37.7,8.3-41C244.8,182.5,246.1,165,247.8,150.9z"/>
</svg>
