<?xml version="1.0" encoding="utf-8"?>
<!-- Generator: Adobe Illustrator 26.3.1, SVG Export Plug-In . SVG Version: 6.00 Build 0)  -->
<svg version="1.1" id="Layer_1" xmlns="http://www.w3.org/2000/svg" xmlns:xlink="http://www.w3.org/1999/xlink" x="0px" y="0px"
	 viewBox="0 0 566.9 566.9" style="enable-background:new 0 0 566.9 566.9;" xml:space="preserve">
<style type="text/css">
	.st0{fill:none;stroke:#44C3D6;stroke-miterlimit:10;}
</style>
<path class="st0" d="M379.7,434.5c-12,0-25-1.5-30.1-2.2c-17.3-2.2-39.6-3.3-66.4-3.3c-40.6,0-78.2,2.5-85.7,3.5
	c-1.8,0.3-4,0.7-6.2,0.7c-7.7,0-11.4-4.1-12.9-6.5c-0.9-1.4-1.4-2.9-1.8-4.2c-5.4-0.5-14.9-3.1-16.8-19.5c-1-8.6-0.6-14.7-0.4-19.5
	c0.1-1.8,0.2-3.5,0.2-5.2c0-8.9-0.1-14.7,4.5-21.6c24.7-37.1,114.2-117.9,150-149.6c-4.4-0.3-10-0.4-17.3-0.4
	c-14.3,0-31.4,0.7-47.9,1.3c-16,0.6-32.6,1.3-46.3,1.3c-27.7,0-35.7-2.7-40.2-7.3c-2.4-2.5-3.7-5.7-3.7-9.1
	c0.2-7.2,5.5-11.7,9.9-15.3c1.1-0.9,2.8-2.3,3.9-3.4c-0.7-0.4-1.4-0.7-1.9-1c-5.3-2.7-14.1-7.2-16.1-18.4c-0.7-4.1,0.4-8.1,3.1-11.2
	c5.8-6.9,18.4-9.5,46.6-9.5c16.2,0,35.6,0.9,54.3,1.8c18.4,0.9,35.8,1.7,50.1,1.7c2.6,0,5,0,7.3-0.1c25.7-0.6,52.5-2.7,61.3-4.3
	c2-0.3,3.7-0.5,5.1-0.5c5,0,11.1,1.5,14.6,8.1c9.6,0.6,13.5,7.5,13.9,13.4c0.4,5.2,1.3,41.8,1.4,45.9l0.1,1.9l-0.7,1.8
	c-8,21.7-63.7,82.7-145.8,152.2c18.5-1,42.7-2.1,65.6-2.1c59.5,0,80.5,5.9,80.5,22.4c0,13.3-10.7,18.4-16.4,21.2
	c-0.3,0.2-0.7,0.3-1.1,0.5c0.6,0.4,1.2,0.7,1.8,1c5.9,3.4,14.9,8.5,15.1,18.4c0.1,3.7-1.4,7.3-4,10
	C402.4,432.4,394.2,434.5,379.7,434.5z"/>
<path class="st0" d="M235.7,368c0,0,166.2-13.3,166.2,8.4c0,13.7-20.8,10.7-20.1,22.6c0.5,7.5,19.2,10.5,19.4,18.8
	c0.2,11.6-48.7,4.9-50.5,4.6c-54.1-6.9-142.4-1.3-154.5,0.2c-1.5,0.2-7.5,1.9-9.4-1.2c-1.4-2.2-0.5-6.1-2.5-7.5
	c-4.7-3.4-12.9,3.4-14.6-11.9c-1.3-11.2-0.1-17.5-0.1-23.7c0-8.8,0.1-11.8,2.8-16c30-45.2,162.9-160.5,162.9-160.5
	c-15.3-13.9-166.9,7-166.6-8.6c0.1-6,14.8-11,14.7-19.9c-0.1-9.8-17.1-8.1-19.2-20.1c-3-17.1,102.1-4.4,151.7-5.7
	c26.7-0.7,53.7-2.8,62.8-4.4c11.8-2.1,9.2,6.2,11.2,7.6c2.1,1.4,10.3-2.3,10.7,4.3c0.4,5.2,1.4,45.5,1.4,45.5
	C394.4,221.5,331.1,290.2,235.7,368z"/>
</svg>
