<?xml version="1.0" encoding="utf-8"?>
<!-- Generator: Adobe Illustrator 26.3.1, SVG Export Plug-In . SVG Version: 6.00 Build 0)  -->
<svg version="1.1" id="Layer_1" xmlns="http://www.w3.org/2000/svg" xmlns:xlink="http://www.w3.org/1999/xlink" x="0px" y="0px"
	 viewBox="0 0 566.9 566.9" style="enable-background:new 0 0 566.9 566.9;" xml:space="preserve">
<style type="text/css">
	.st0{fill:none;stroke:#010101;stroke-miterlimit:10;}
</style>
<path class="st0" d="M172.8,434.2c-14.1,0-20.4-8.3-20.4-16.5c0-15.7,2.8-32.7,5.8-50.7c3.4-20.6,6.9-41.8,7-64.6
	c0.1-27.4-0.5-96.7-1.5-127.3l-0.1-3.6c-0.4-10-0.6-17.2,1.3-23.3c1.9-5.9,6.7-13,19.3-14c1.1-0.1,2.1-0.1,3.1-0.1
	c14.4,0,18.3,9.3,19.8,14.8c1.2-2,2.4-3.9,4.3-6.6c3.4-5,10-8.1,17-8.1c1.9,0,3.8,0.2,5.7,0.7c3.9,0.9,13.4,4.5,18.5,18.3
	c3.7,9.8,5.5,16.3,6.9,21c0.7,2.4,1.2,4.2,1.8,5.7c3.1,8.7,5,16,6.8,23c1.4,5.4,2.7,10.5,4.6,16.2c4.6,14.3,8.1,17.9,9.5,18.7
	c2.5-2.1,7.5-8.6,10.3-18.4l1.4-5c2.8-10.2,3.3-12,8.9-30.3c1.2-4.1,2.4-8,3.5-11.9c2.5-8.7,4.6-16.2,7.2-22
	c6.6-15.1,17.1-17.4,22.8-17.4c1.8,0,3.2,0.2,4,0.3c13.3,1.8,16.6,11.2,18,15.2c0,0.1,0.1,0.2,0.1,0.3c1.2-4.6,4.6-14.6,19.1-14.6
	c1.3,0,2.6,0.1,4,0.2c12.8,1.3,20.3,9.8,20.5,23.3c0.1,9.6-0.2,17.3-0.6,25.4c-0.4,9.1-0.8,18.6-0.6,31.5c0.1,3.6,0,7.7-0.2,14
	c-0.3,11.3-0.7,30.3-0.5,64c0.2,38.1,3.6,58.7,6.9,73.8c4.3,19.7,7.6,44.4,5.5,55.1c-2.5,12.4-15.8,12.6-21.5,12.7h-1.1
	c-0.3,0-0.6,0-0.8,0c-10.4,0-17-5.1-23.4-12.8c-0.8,0.8-1.9,1.8-3.3,3.1c-6.4,5.9-10.7,7.9-20.3,9.5c-0.8,0.1-1.7,0.2-2.6,0.2
	c-5.2,0-13.1-2.5-18.1-8c-3.3-3.7-4.9-8.3-4.4-13c0.6-5.8,1.2-10.9,1.8-16c2.1-18.5,3.9-34.5,6.5-69.2c0.4-5.8,0.9-11.7,1.2-17.7
	c0.1-2.2-3-2.9-3.8-0.9c-1.2,3-2.6,6.2-4.2,9.8c-3.7,7.8-10.1,12.3-17.7,12.3c-5.6,0-11.3-2.6-15.6-7.1c-0.4-0.4-1.2-1-1.9-1.6
	c-1.2,0.8-2.7,2-3.8,2.9c-4.2,3.7-10.7,6.1-16.6,6.1c-9.1,0-16.3-5.3-19.2-14.1c-0.8-2.4-1.7-5.5-2.6-8.9c-0.4-1.6-2.9-1.3-2.8,0.4
	c1.8,33.5,5.2,71.3,9.6,97.9c0.5,2.9,1.9,11.6-3.5,18.5c-3.5,4.5-8.9,7-16,7.6c-1.4,0.1-2.7,0.2-3.9,0.2c-8.9,0-13.3-2.7-17.3-5.7
	l-0.5-0.4c-3.6-2.7-5.7-4.7-7-6c-0.9,0.7-2.5,2.1-5.1,5C189.1,432.1,179.5,434.2,172.8,434.2L172.8,434.2z"/>
<path class="st0" d="M173.6,174.7c1,30.2,1.6,99.9,1.5,127.7c-0.2,43.9-12.8,83.1-12.8,115.3c0,9.5,19.7,7.5,24.8,2
	c8.2-8.9,10.7-8.9,13.8-8.5c4.8,0.6,3.9,2.6,11.6,8.2c3.3,2.4,5.8,4.8,15.1,4.1c11.3-0.9,11.5-8.3,10.4-14.6
	c-8.7-52.6-13.3-146-9.9-171c0.2-1.8,4-1.7,5.4,2.9c8,26.8,15.1,60.2,19.6,73.9c3.5,10.8,15.6,7.4,19.8,3.6c2-1.8,7.8-6.3,10.3-6.2
	c3,0.1,7.6,3.7,9.2,5.4c4.8,5,12.9,6.6,17.2-2.5c7.9-16.8,8.8-24.1,12.6-37.7c2.2-8.1,5-18,8.2-33.7c1.5-7.2,5.8-6.6,6.4-6.5
	c5.2,0.6-0.9,83.6-1.6,91.6c-3.4,44.4-5.5,58.7-8.3,85.5c-0.7,6.9,9.7,10.6,13.5,10c7.7-1.3,10.3-2.5,15.2-7c5.4-5,5.2-5.9,8.7-6
	c3.1-0.1,5.5-0.3,8.1,2.9c6.4,8,10.6,10.2,17.1,10.1c5.6-0.1,12.2,0.1,13.1-4.8c1.4-7.2-0.3-27.4-5.4-51
	c-3.4-15.9-6.9-37.4-7.1-75.8c-0.3-51.5,0.9-68.1,0.7-77.9c-0.5-24.7,1.4-36.9,1.1-57c-0.1-9.9-5.3-12.9-11.6-13.6
	c-15.2-1.6-10.4,8.5-15.4,14c-4.6,5-11.5,6-15.8-5.5c-1.3-3.5-2.4-8.4-10.2-9.5c-2.9-0.4-10.8-1.7-16.4,11.2
	c-3.3,7.7-6.3,19.9-10.3,32.9c-6.4,20.8-6.1,20.2-10.3,35.1c-4.1,14.7-13.4,25.7-18.8,25.9c-10.3,0.3-16.1-14-19.9-25.9
	c-4.5-13.8-6-24.3-11.3-39c-1.8-5.1-3.2-12-8.6-26.6c-3.1-8.3-8.2-11.4-11.5-12.1c-5.8-1.4-10.6,1-12.3,3.4
	c-2.9,4.2-4.2,6.4-6.3,10.1c-2.3,4.1-10.2,8.7-14.1-0.8c-2.4-6-0.6-14.2-14.2-13.1C171.7,145,172.9,154.2,173.6,174.7z"/>
</svg>
