<?xml version="1.0" encoding="utf-8"?>
<!-- Generator: Adobe Illustrator 26.3.1, SVG Export Plug-In . SVG Version: 6.00 Build 0)  -->
<svg version="1.1" id="Layer_1" xmlns="http://www.w3.org/2000/svg" xmlns:xlink="http://www.w3.org/1999/xlink" x="0px" y="0px"
	 viewBox="0 0 566.9 566.9" style="enable-background:new 0 0 566.9 566.9;" xml:space="preserve">
<style type="text/css">
	.st0{fill:none;stroke:#085B5A;stroke-miterlimit:10;}
</style>
<path class="st0" d="M300.3,437.4c-4.8-0.3-7.5-4.6-9.9-8.4c-2.1-3.4-4.2-6.6-7.1-6.7h0c-2.6,0-4.1,1.7-6.6,4.6
	c-3.5,4.2-8.3,9.9-19.8,10.4c0,0-0.1,0-0.1,0c-3.7,0-5.8-0.8-7.2-2.3c-2.7-3-2.2-8.1-1.5-15.8c0.4-4.7,1-10.5,1-17.2
	c-0.2-37.4,2.2-69.6,3-79.2c-5,1.3-16.1,3.8-29.7,3.8c-13.3,0-25.4-2.4-36-7.2c-22.8-10.3-29.1-32.3-32.5-54.6
	c-1.8-12-1.3-23-0.6-37.1c0.3-7.1,0.7-15,0.8-23.9c0-4.6,4.1-16.3,13.2-16.7c0,0,0,0,0,0c5,0,7.5,4.5,9.7,8.4c1.7,2.9,3.4,6,5.3,6h0
	c5,0,6.3-2.7,7.9-7.1c1.2-3.3,2.8-7.4,7.5-7.8c0.9-0.1,1.8-0.1,2.6-0.1c7.3,0,11.2,3.2,11.7,9.6c0.6,8.4,0.6,14.7,0.6,23.3
	c0,8,0,18,0.5,33.4c0.8,23.7,21.3,27.2,33.5,27.2c1.1,0,2.1,0,2.9-0.1c0.6-12.1,3.6-83.6,0.4-101.4c-2.8-15.4-2.3-25.1,1.6-29.7
	c1.6-1.9,3.8-3,6.5-3c8.1,0,18.7,9.9,23.6,16.2c0,0,0-0.1,0.1-0.1c0.1,0,0.4,0,0.8,0c1.3,0,2.8-0.5,3.3-1.5
	c4.8-11.6,12.4-13.4,16.4-13.4c2.7,0,5.5,0.8,7.8,2.1c9.1,5.4,7.7,35.4,5.6,63L315,216c-2.4,33.8-0.1,57.9,0.6,64.3
	c17.5-2,35.5-6.2,38-20.6c2.7-15.4,2.1-26.2,1.4-37.6c-0.5-8.1-0.9-16.4-0.1-26.5c0.4-5.4,6-8.8,9.9-8.8c5.8,0,8.9,4.6,11.6,8.7
	c2.5,3.8,4.2,6.1,6.7,6.1c3.6,0,5.7-3.4,8.2-8.2c1.8-3.5,3.5-6.8,6.7-6.8c2.7,0,4.9,1,6.7,2.8c3.8,4,4.2,11.1,4.2,15
	c-0.1,4.1,0.1,9.4,0.4,15.4c1.1,26.5,2.7,66.5-18.4,88c-14.6,14.9-36.3,18-51.9,18c-11.6,0-21.2-1.6-25.5-2.5c0,10,0.3,48.4,3.5,83
	c1.2,13.2-0.3,22-4.8,26.9c-2.6,2.8-6,4.2-10.3,4.2C301.3,437.4,300.8,437.4,300.3,437.4z"/>
<path class="st0" d="M156,203.7c0-3.3,3.2-14.4,11.3-14.8c7-0.3,8.6,14.3,14.9,14.4c11.8,0.3,7.9-14.2,15.6-14.8
	c6.4-0.5,11.7,0.6,12.2,7.6c1.2,16.3,0.1,25,1.1,56.7c1.1,33.6,40.2,28.9,40.2,28.9s4-83.8,0.4-103.6c-8.9-49.1,19.1-26.6,28.1-14.9
	c0.9,1.2,6.2,1.1,7.5-2c6.2-14.8,16.9-13,21.3-10.3c9.5,5.7,5.5,49.1,4.3,64.9c-2.9,39.6,0.8,66.7,0.9,66.7
	c16.6-1.8,38.7-5.3,41.7-22.4c4.7-26.9-0.5-40.5,1.3-64.3c0.3-4.2,4.9-6.9,7.9-6.9c9.1-0.1,10.5,14.9,18.3,14.9
	c8.8,0,10.2-15.1,14.8-15.1c8.1,0.1,8.9,10.7,8.8,15.8c-0.5,22.2,7.7,76.3-17.4,102c-26.6,27.2-78,14.4-78,14.4s-0.2,45.2,3.6,85.7
	c2.4,26.3-7.2,29.4-14.4,28.9c-7.7-0.5-9.2-14.8-17.1-15.1c-8.7-0.3-8.3,14.2-26.6,15c-12,0.5-5.7-10.9-5.8-33.4
	c-0.2-44.9,3.2-81.9,3.2-81.9s-35.6,11.7-67.1-2.4c-22.3-10.1-28.1-31.6-31.3-53.1C153.1,246.5,155.8,230,156,203.7z"/>
</svg>
