<?xml version="1.0" encoding="utf-8"?>
<!-- Generator: Adobe Illustrator 26.3.1, SVG Export Plug-In . SVG Version: 6.00 Build 0)  -->
<svg version="1.1" id="Layer_1" xmlns="http://www.w3.org/2000/svg" xmlns:xlink="http://www.w3.org/1999/xlink" x="0px" y="0px"
	 viewBox="0 0 566.9 566.9" style="enable-background:new 0 0 566.9 566.9;" xml:space="preserve">
<style type="text/css">
	.st0{fill:none;stroke:#010101;stroke-miterlimit:10;}
</style>
<path class="st0" d="M201,435.2c-7,0-13.3-2.9-17.2-7.9c-6.6-8.4-5.9-26.8-1.9-64.7c0.4-3.3,0.7-6.4,0.9-9.1
	c1.4-14.8,4.1-68.1-1-135.8c-1.2-15.3-3.8-28.4-6-38.9c-3.7-18.4-6.4-31.6,2.2-41.1c5.5-6,13.7-6,16.3-6c0.8,0,1.7,0,2.5,0.1l0.2,0
	c8.1,0.5,12.2,6.3,14.5,10.5c3-4.3,8.1-9.2,16.8-9.2l0.4,0c6.5,0.1,11.9,2.3,15.8,6.4c2.6,2.7,5.6,7.5,5.3,15.1
	c-1.2,30.2-1.8,49.6-1.9,61.9c5-7.5,10-17.7,12.5-29.3c2-9.4,3.7-22.2,4.4-33.4c0.8-13.1,9.5-17.8,17.5-17.8c0.5,0,1,0,1.4,0
	l0.8,0.1c3.6,0.3,11.7,0.9,16.8,9.8c0.4-0.4,0.9-1,1.2-1.4c1.4-1.7,3.2-3.9,5.8-5.5l0.2-0.2c2.6-1.5,5.5-2.4,8.4-2.4
	c5.5,0,10.9,3,14.3,8l0.1,0.2c1.9,2.9,3.6,7.3,0.9,24.6c-1.6,10.2-4.3,21.6-7.5,31.4c-7.7,24.1-15.6,41-24.9,53
	c-7,9.1-13.4,16.6-18.1,21.8c6.8,4.7,16.1,11.5,24.8,19.5c9.6,8.8,22.9,24.3,54.9,63.8c12.6,15.6,21.8,28.6,27.4,38.8
	c6.5,11.8,8.1,19.7,5.3,25.8c-2.8,6.3-9,10-16.8,10c-1.9,0-3.9-0.2-5.9-0.6c-5.2-1-10-3.8-13.5-6.2c-2.8,4.8-8.2,7.9-14.5,7.9
	c-5.2,0-15-2.2-23.2-16.7c-11.9-21.3-41.9-60.9-65.3-83.2c0.5,5.4,1.2,11.6,2.2,18c1.9,12.2,5.4,24.6,8.2,34.7
	c1.8,6.2,3.3,11.6,4.1,15.8c1.4,6.7-0.3,13.7-4.7,19c-4.2,5.2-10.6,8.2-17.4,8.2c-5.9,0-12-2.2-17.7-6.5c-2.1-1.6-3.7-3.1-5.1-4.7
	c-0.4,1.3-0.9,2.5-1.5,3.7C219.7,430.1,210.6,435.2,201,435.2z"/>
<path class="st0" d="M185.5,144.5c-8.8,9.6,3.3,33.2,6.3,72.5c5.5,73.2,2,127.2,1,137.5c-2,20.4-7.2,59-1.1,66.8
	c5.5,7.1,19.4,3.9,22.5-2.7c2.5-5.3,2.5-12,4.1-16.4c1.1-3,5.4-2.8,7.1,0c4.3,7.1,5.4,9.9,10.3,13.6c14.6,10.9,26.3-0.1,24.1-10.8
	c-2-10.3-9.3-30.6-12.4-50.9c-2.7-17.6-3.2-33-3.6-38c-0.2-2.6,2-2.1,2.9-1.4c26,17.9,68.4,73.4,82.3,98.3
	c9.3,16.5,20.7,12.3,21.1,6.7c0.6-9.9,7.1-5.5,9.7-3.9c2,1.2,8.2,6.3,13.6,7.3c5.6,1.1,10.1,0.2,11.9-3.8
	c2.4-5.2-5.2-21.8-31.4-54.2c-30.6-37.8-44.5-54.1-53.9-62.7c-15.6-14.3-33.4-24.9-33.4-24.9s11.3-11.4,25.5-29.8
	c8.5-11,15.9-26.7,23.3-50c6.4-20,10-44,7.7-47.5c-2.2-3.2-5.9-4.8-9.4-2.7c-2.5,1.6-4.5,5.4-7.3,7.3c-4.5,3.1-10.8,2.1-13-2.6
	c-2.7-5.8-6.7-5.8-10.2-6.1c-4.8-0.3-8,1.9-8.4,8.5c-0.8,12.1-2.6,25.3-4.6,34.8c-6.2,28.9-27.3,51-30.9,49.8
	c-2.7-0.9-0.4-58.2,0.7-84.9c0.3-7.9-5-11.1-11.3-11.2c-10.4-0.2-10.7,13.2-16,13.2c-9.2,0.1-8.2-14-16.1-14.5
	C192.1,141.6,187.9,141.9,185.5,144.5z"/>
</svg>
