<?xml version="1.0" encoding="utf-8"?>
<!-- Generator: Adobe Illustrator 26.3.1, SVG Export Plug-In . SVG Version: 6.00 Build 0)  -->
<svg version="1.1" id="Layer_1" xmlns="http://www.w3.org/2000/svg" xmlns:xlink="http://www.w3.org/1999/xlink" x="0px" y="0px"
	 viewBox="0 0 566.9 566.9" style="enable-background:new 0 0 566.9 566.9;" xml:space="preserve">
<style type="text/css">
	.st0{fill:none;stroke:#EE2561;stroke-miterlimit:10;}
</style>
<path class="st0" d="M302.4,431.5c-6.6,0-10.6-5.4-13.8-9.7c-1.6-2.2-3.4-4.6-4.5-4.7c0,0,0,0-0.1,0c-3.1,0-4.1,1.3-6,4.1
	c-2.5,3.6-5.9,8.6-15.8,9.9c-0.7,0.1-1.5,0.1-2.2,0.1c-4.5,0-8.7-1.6-10.9-4.2c-1.4-1.6-2-3.5-1.7-5.6c3.5-23.6,5.6-129.9,5.2-133.8
	c-8.9-12.7-31.9-36.8-72.3-75.1c-10.3-9.7-20.5-23.9-20.2-33.7c0.1-3.1,1.2-5.6,3.4-7.4c3.5-2.9,7.2-4.3,11.3-4.3
	c3.4,0,6.6,1,9.4,1.9c2.2,0.7,4.3,1.4,6.1,1.4c1.4,0,2.5-0.4,3.5-1.3c2.7-2.5,2.2-6.1,1.6-9.8c-0.3-2.1-0.6-4-0.4-5.8
	c0.9-6.6,8.2-14.6,15.8-14.6c3.5,0,6.6,1.6,9.1,4.7c16,20.1,42.8,63.4,57.4,87.5c1.4,2.3,3.8,3.6,6.4,3.6c2.6,0,5-1.4,6.4-3.6
	c14.2-23.5,40.7-66.2,57.8-88.3c1.9-2.5,4.7-3.8,8.1-3.8c6.2,0,12.9,4.5,14.7,9.7c1.8,5.6,0.6,10.4-0.4,14.3
	c-0.8,3.2-1.3,5.3-0.3,6.6c0.6,0.8,2.4,1.3,4.7,1.3c2.4,0,5.2-0.5,7.3-1.3c4.4-1.6,7.9-2.4,10.9-2.4c6.3,0,9.3,3.6,11.6,7
	c5.6,8.3-2.7,19.1-4.5,21.2c-34.2,41.1-38,44.9-84.8,91.7l-1.6,1.6c0,1.7,0.2,5.9,0.4,12c1.9,52.2,3.8,113.3,1.5,123.2
	C314.7,427,309.2,431.5,302.4,431.5z"/>
<path class="st0" d="M181.7,211.2c32.5,30.9,62,60.2,72.9,76.2c0.4,0.6-1.6,110.1-5.2,134.3c-0.8,5.2,6.6,8.1,12.6,7.3
	c16.3-2.1,12.8-14.6,22.2-14c5,0.3,8.6,14.4,18.2,14.4c6,0,10.6-4,11.1-6c3.2-13.7-2.2-135.3-2-135.6c48.6-48.6,52.2-52.1,86.9-93.8
	c1.7-2.1,9.1-11.8,4.3-18.8c-3.7-5.4-7.4-8.6-20.1-3.9c-4.5,1.6-12.1,2.3-14.3-0.7c-3.4-4.5,3.6-11.9,0.4-21.4
	c-2.1-6.5-14.2-12-19.3-5.3c-17.2,22.3-44.3,66-57.7,88.2c-3.7,6.1-12.5,6.1-16.2,0c-13.6-22.4-41-67-57.2-87.3
	c-7.9-9.9-20.2,0.8-21.3,8.9c-0.7,4.7,3.3,12-1.9,16.8c-7.4,6.8-17.7-8-30.2,2.4C156.6,179.9,168.7,198.9,181.7,211.2z"/>
</svg>
