<?xml version="1.0" encoding="utf-8"?>
<!-- Generator: Adobe Illustrator 26.3.1, SVG Export Plug-In . SVG Version: 6.00 Build 0)  -->
<svg version="1.1" id="Layer_1" xmlns="http://www.w3.org/2000/svg" xmlns:xlink="http://www.w3.org/1999/xlink" x="0px" y="0px"
	 viewBox="0 0 566.9 566.9" style="enable-background:new 0 0 566.9 566.9;" xml:space="preserve">
<style type="text/css">
	.st0{fill:none;stroke:#C01F3B;stroke-miterlimit:10;}
</style>
<path class="st0" d="M394.4,436.1c-4.8,0-9.6-1.1-14.2-3.3c-4.7-2.2-8-6.2-10.6-9.4c-0.8-1-1.9-2.3-2.7-3.2
	c-0.7,0.6-1.5,1.4-2.2,2.1c-1.8,1.8-4.1,4-7,5.9c-5.7,3.9-11.7,5.9-17.7,5.9c-16.7,0-29.1-14.8-38.1-27.8c-14.6-21-38-74.2-56.8-117
	c-1.9-4.3-3.8-8.7-5.7-13c0.6,37.9,3.2,93.9,8,117.8c0.1,0.4,0.2,0.8,0.3,1.4c1.4,6.2,4.4,19.1-2.1,28.4c-2.3,3.2-6.6,7.3-14.4,8.2
	l-0.2,0c-1.6,0.2-3.3,0.4-5.2,0.4c-4.2,0-8.2-1-13.4-3.3c-4.2-1.8-7.4-4.9-10.1-7.3c-0.4-0.3-0.8-0.8-1.3-1.2
	c-1.4,1.3-2.7,2.9-4,4.3c-2.4,2.8-4.6,5.4-7.8,7c-2.7,1.3-5.8,2-9.5,2c-5.8,0-11.6-1.7-16.1-4.6c-19-12.3-13.6-31.4-8.3-49.8
	c2.1-7.4,4.5-15.9,6-25.1c10.7-67.4,3.1-120.7-1.9-155.9c-2.1-14.9-3.8-26.7-3.8-36.3c0-8.2,1.2-19.9,11-26.2
	c5.2-3.3,11.9-5.3,17.9-5.3c5.3,0,10.2,1.5,14.2,4.4c6.7,4.9,8.2,9.7,9.3,13.3c0,0,0,0,0,0c0.5-0.9,1-1.7,1.4-2.5
	c1.4-2.5,3-5.4,6-8.2c5.5-5,14-5.6,17.4-5.6c8.5,0,15,2.8,18.2,8c9.2,14.9,39.8,82.8,73,157.3c-0.2-3.9-0.5-7.9-0.7-11.8
	c-1.9-29.9-4-63.7-4.2-91.6c-0.4-46.2,4.5-56.8,13.8-60.1c3.8-1.4,7.9-2.1,12.2-2.1c6.2,0,12.1,1.5,15.7,3.9c3.2,2.2,5.5,5,7.1,8.1
	c0.4-0.9,0.9-1.9,1.4-2.9c4.8-8.2,14.3-8.2,17.8-8.2c2.3,0,5,0.2,8.2,0.5c7,0.7,12.4,3.4,16,8.1c7.5,9.8,5,24.2,0.8,48
	c-3.8,21.7-8.9,51.5-8.6,90c0.3,38.6,5.8,70.9,9.9,94.5c2.5,14.9,4.5,26.6,4.6,35.7c0.1,13.3-4.5,21.6-13.7,24.5
	C401.2,435.5,397.8,436.1,394.4,436.1z"/>
<path class="st0" d="M230.8,235.9c-3.4,1-0.7,122,6.9,160.2c0.9,4.8,7.1,24.5-7.6,26.3c-4.2,0.5-6.8,0.9-13.5-2.1
	c-6.9-3-12.1-13.2-17.7-9.9c-6.6,3.8-10.6,11.4-13.8,13c-3.4,1.7-10.9,1.2-15.8-2c-18.4-12-3-32.6,2.1-65
	c19.6-123.4-20.5-197.9,0.9-211.6c4.8-3.1,14.3-6,20.9-1.3c6.8,5,4.2,8.4,8.9,15.3c2.9,4.2,7.3,5,11.1,0.3
	c5.4-6.7,5.6-10.2,9.3-13.6c4.3-3.9,17.7-4.1,20.4,0.3c14.5,23.5,91.6,200.2,92,200.2c6.4,0.3-16.8-195.6,1.5-202.2
	c7.8-2.8,16.2-1.1,19,0.8c3.4,2.3,5,6,7,14.1c1.5,6.4,11.2,5.3,12.5-0.6c1.4-6.3,1.4-8.5,3.2-11.5c1.8-3.1,6.3-3.8,16.5-2.8
	c27.3,2.7-1.4,45.7-0.7,136.3c0.7,86,26.4,139.1,7.7,145.1c-5.2,1.7-10.9,1.7-17-1.2c-5.6-2.6-9-11.3-14.6-13.5
	c-7.3-2.9-10.8,5-17.7,9.7c-14.7,10-27.7,1.3-42-19.3C286.4,366.5,234.5,234.8,230.8,235.9z"/>
</svg>
