<?xml version="1.0" encoding="utf-8"?>
<!-- Generator: Adobe Illustrator 26.3.1, SVG Export Plug-In . SVG Version: 6.00 Build 0)  -->
<svg version="1.1" id="Layer_1" xmlns="http://www.w3.org/2000/svg" xmlns:xlink="http://www.w3.org/1999/xlink" x="0px" y="0px"
	 viewBox="0 0 566.9 566.9" style="enable-background:new 0 0 566.9 566.9;" xml:space="preserve">
<style type="text/css">
	.st0{fill:none;stroke:#30B44A;stroke-width:1.4173;stroke-miterlimit:11.3386;}
	.st1{fill:none;stroke:#440936;stroke-width:1.4173;stroke-miterlimit:11.3386;}
</style>
<path class="st0" d="M252.3,422.6c-20,0-37.6-1.2-48.1-1.9c-2.7-0.2-5-0.3-6.8-0.4c-7.2-0.4-8.7-3-9.9-6.4c-0.3-0.9-0.6-1.8-1.2-2.5
	c-0.6-0.9-1.6-1.2-3.6-1.2c-0.6,0-1.2,0-1.9,0.1c-0.7,0-1.5,0.1-2.3,0.1c-2.4,0-5.5-0.3-8.5-2.3c-2.5-1.7-1.6-4.8,0-10.5
	c1.6-5.7,4-14.3,4.8-26.6c4.5-66.6,5.6-171.6,4.7-193.7c-0.5-11.4-2.9-18.3-4.5-22.9c-1.4-4-2.4-7,0.3-8.9c2.2-1.6,4.4-2.4,6.7-2.4
	c1.3,0,2.5,0.3,3.6,0.5c0.9,0.2,1.7,0.4,2.4,0.4h0c0.6,0,1.1-0.1,1.6-0.3c2.5-1.1,3.1-2.4,3.7-3.7c0.5-1,1-2.2,2.3-2.9
	c2.9-1.6,4.8-2.1,8.6-2.1c2.1,0,4.8,0.1,8.6,0.4c9.6,0.5,27.5,1.5,62.1,1.5c44.6,0,75.1,9.9,90.7,29.5c13.1,16.4,16.2,39.2,9.3,69.5
	c-5.1,22.7-17,31.6-24.5,35.1c6.6,2.2,16.8,6.6,23.5,14.2c18.6,21.1,24.8,62.5,13.4,88.6c-8.2,18.7-27,32.3-56,40.4
	C310.4,419.6,283.8,422.6,252.3,422.6C252.3,422.6,252.3,422.6,252.3,422.6z"/>
<path class="st0" d="M196.7,138.5c7.5-4.1,6.2,0,78.3,0c93.8,0,110.2,43,98.1,96.6c-7.4,32.8-29.4,35.7-29.4,35.7
	s18.8,3.9,28.9,15.3c18.7,21.2,23.7,62.1,13,86.5c-26.7,61-161.9,47.2-188.2,45.7c-8.9-0.5-7-4.5-9.5-8.1
	c-3.2-4.5-10.4,0.4-16.8-3.9c-2.8-1.9,4.1-12.4,5.7-35.3c4.6-68.8,5.6-173,4.7-193.9c-0.9-21.2-8.3-27.7-5-30.1
	c6.3-4.6,9.4,0.3,14-1.7C195.6,142.9,194.7,139.6,196.7,138.5z"/>
<path class="st1" d="M242.5,388.3c-4.9,0-8.5-3.6-8.5-8.3v-76.9c0-4.4,3.4-7.7,8-7.7c0.2,0,0.4,0,0.6,0c3.7,0.3,7.3,0.5,10.9,0.7
	c45.3,3,88.1,5.7,88.1,43.6c0,40.1-47.3,44.2-93.1,48.1l-5.3,0.5C243.1,388.3,242.8,388.3,242.5,388.3z"/>
<path class="st1" d="M236,303.1c0-3.7,3.1-6,6.5-5.7c48.6,3.4,97.2,3.4,97.2,42.4c0,39.7-48.7,42.4-96.6,46.6
	c-3.8,0.3-7.2-2.2-7.2-6.3V303.1z"/>
<path class="st1" d="M244.1,248.1c-3.9,0-6.9-2.9-6.9-6.7v-57.6c0-3.6,2.8-6.3,6.5-6.3c0.2,0,0.3,0,0.5,0c2.7,0.2,5.5,0.4,8.2,0.5
	c34.2,2.2,66.5,4.3,66.5,33.2c0,30.5-35.7,33.6-70.3,36.5l-3.9,0.3C244.6,248.1,244.3,248.1,244.1,248.1z"/>
<path class="st1" d="M239.2,183.8c0-2.8,2.3-4.5,4.9-4.3c36.4,2.6,72.9,2.6,72.9,31.8c0,29.8-36.5,31.8-72.4,34.9
	c-2.8,0.2-5.4-1.6-5.4-4.7V183.8z"/>
</svg>
