<?xml version="1.0" encoding="utf-8"?>
<!-- Generator: Adobe Illustrator 26.3.1, SVG Export Plug-In . SVG Version: 6.00 Build 0)  -->
<svg version="1.1" id="Layer_1" xmlns="http://www.w3.org/2000/svg" xmlns:xlink="http://www.w3.org/1999/xlink" x="0px" y="0px"
	 viewBox="0 0 566.9 566.9" style="enable-background:new 0 0 566.9 566.9;" xml:space="preserve">
<style type="text/css">
	.st0{fill:none;stroke:#60CCEF;stroke-miterlimit:10;}
</style>
<g>
	<path class="st0" d="M256.5,428c-4.1,0-7.4-1.2-9.3-3.4c-1.1-1.2-2.2-3.4-1.8-6.8c2.6-19,8.3-191.4,4-218.8
		c-1.3-0.2-4.4-0.4-12.4-0.4c-10.4,0-25.1,0.4-38,0.7c-10.4,0.3-19.3,0.5-24.5,0.5c-3.1,0-4-0.1-4.4-0.2c-6.2-1-8.6-4.7-9.6-7.7
		c-1.7-5.2,0.1-11.9,2.8-14.6c1-1,2.4-1.8,4-2.6c3.3-1.7,5.5-3.1,5.6-5.7c0.1-2.5-1.7-4-4.8-6.1c-2.2-1.5-4.5-3.2-5.8-5.6
		c-4.3-7.7-1.5-15.9-0.1-18.1c1-1.7,3-2.5,6-2.5h0.1c18.8,0,39.6,0.8,61.6,1.6c26.4,1,56.4,2.2,88.9,2.2c26.2,0,50.7-0.7,75.1-2.2
		c0.3,0,0.6,0,0.9,0c4.9,0,10.9,2.6,11.8,6.2l0.1,0.2c1.6,5.5,0.9,10.6-1.8,15.3c-1,1.8-2.8,2.9-4.6,4c-2.8,1.8-4.5,3.1-4.6,5.5
		c-0.1,3.4,1.9,5,5.1,7.3c2.6,1.9,5.6,4.1,6.7,8.1c1,3.7,0.1,11.3-2.4,14.5c-1.2,1.5-2.5,1.9-3.3,1.9h-0.1
		c-11.2-0.4-21.4-1-31.3-1.5c-16-0.9-31.1-1.7-49-1.7c-3.3,0-6.6,0-9.9,0.1c-3.3,55.4,0,140.3,1.8,186.1c0.6,16.3,1,27.1,0.9,30.3
		c-0.3,9.7-7,13.1-13.1,13.1c-6.5,0-12.7-3.5-14.4-8.1c-1.8-4.7-3-6.3-6.3-6.3c-1.6,0-5,4.4-8,8.3C269,425.9,261.9,428,256.5,428z"
		/>
	<path class="st0" d="M251.2,197.6c-0.5-2.4-75.6,1-80.7,0.1c-11.8-1.9-9-15.6-5.7-18.9c2.5-2.5,9.8-3.8,10.2-9.5
		c0.4-6.3-8.1-7.8-10.9-12.8c-3.6-6.6-1.5-13.8-0.2-16.2c0.9-1.6,3.7-1.5,4.4-1.5c57.5,0,131.3,7.4,225.6,1.6
		c5-0.3,10.1,2.3,10.6,4.7c0.2,0.9,2.5,7.1-1.5,14.1c-2.1,3.5-9.3,4.5-9.5,10.5c-0.2,8.4,9.9,8.7,11.9,16c1.1,4-0.6,14-3.9,13.9
		c-32.8-1.1-56.8-3.9-91.8-3.1c-0.1,0-0.3,0.1-0.3,0.2c-4.6,74.6,3,205.8,2.6,218.1c-0.6,16.1-20.7,12.3-23.7,4.4
		c-1.8-4.7-3.4-7.5-8.1-7.6c-2.4,0-5.1,3.2-9.6,9.1c-4.9,6.4-24.7,9-23.1-2.5C250.4,396.9,255.9,220.9,251.2,197.6z"/>
</g>
</svg>
