<?xml version="1.0" encoding="utf-8"?>
<!-- Generator: Adobe Illustrator 26.3.1, SVG Export Plug-In . SVG Version: 6.00 Build 0)  -->
<svg version="1.1" id="Layer_1" xmlns="http://www.w3.org/2000/svg" xmlns:xlink="http://www.w3.org/1999/xlink" x="0px" y="0px"
	 viewBox="0 0 566.9 566.9" style="enable-background:new 0 0 566.9 566.9;" xml:space="preserve">
<style type="text/css">
	.st0{fill:none;stroke:#5CBA47;stroke-miterlimit:10;}
	.st1{fill:none;stroke:#BB529E;stroke-miterlimit:10;}
	.st2{fill:none;stroke:#62C9D8;stroke-miterlimit:10;}
</style>
<path class="st0" d="M394.1,223c-1.4,0-2.8-0.1-4.3-0.2c-1.6-0.2-3.2-0.3-5-0.5c-10.2-1-24.2-2.4-56.7-7.3
	c-12-1.8-25.8-2.7-40.9-2.7c-14.6,0-30.5,0.8-47.4,2.5c-16.6,1.6-24.3,2.9-41,5.6c-7.3,1.2-16.4,2.6-24.3,2.6
	c-6.7,0-11.9-1.1-15.9-3.2c-9.9-5.4-12-20.8-7.3-30.5c2.9-5.9,6.4-9.7,10.2-12.2c-2.8-1.7-5.6-3.9-8.4-7.7
	c-4.3-5.8-5.3-15.3-2.6-23.1c2.1-6,6.2-10,11.6-11.4c4-1.1,8.4-1.6,13.5-1.6c10.6,0,23.2,2.3,39.2,5.1c8.9,1.6,19.1,3.4,30.4,5.1
	c12.4,1.9,25.4,2.8,38.5,2.8c22.5,0,38.1-2.7,41-3.3c4.5-0.9,9.1-1.7,13.6-2.6c19.9-3.9,38.7-7.5,52.1-7.5c7.3,0,17.5,0.9,23,8.6
	c5.4,7.7,4.6,21.9-1.7,29.3c-2.6,3-4.8,5-7,6.5c0.8,0.6,1.7,1.2,2.7,2c7.2,6,12.6,19.3,8.6,30.2C414.5,213.4,409.4,222.9,394.1,223
	C394.1,223,394.1,223,394.1,223z"/>
<path class="st0" d="M176.9,173.6c-8.6-4.7-11.7-4.7-15.8-10.3c-3.7-5.1-2.7-17.4,3.5-19.1c15.8-4.2,39.7,3,79,8.9
	c40.8,6.1,74.9,1,82.9-0.5c35.7-6.7,71.8-15.4,78.7-5.6c2.9,4.2,2.1,13.3-1.1,17.1c-5.3,6.2-7.8,6-15.4,9.8c-2.1,1-5.5,4.7,1,7.3
	c4.2,1.7,6.7,1.7,11.3,5.5c7.7,6.4,12.4,28.5-10.1,26.1c-10.4-1.1-23.2-2.1-61.3-7.8c-26.7-4-58.6-3.4-90.7-0.3
	c-16.6,1.6-24.2,2.8-41.6,5.6c-12,1.9-27,4.3-34,0.5c-4.5-2.5-5.8-11.9-3.1-17.5c4-8.1,9.2-10.2,15.6-12
	C182.9,179.6,180.2,175.4,176.9,173.6z"/>
<path class="st1" d="M368.7,324.4c-1.3,0-2.6-0.1-3.9-0.3c-1.2-0.2-2.5-0.3-3.8-0.5c-7.5-1-18.8-2.5-43.9-7.4
	c-9-1.8-19.3-2.6-30.7-2.6c-11,0-23.1,0.8-36,2.5c-12.6,1.6-18.5,2.8-31.3,5.5c-5.8,1.2-13,2.7-19.6,2.7c-6,0-10.7-1.3-14.3-3.9
	c-8.6-6.1-9-21-5.9-29c2.3-6.2,6.6-10.2,11-13c-3.4-1.7-7.1-4.3-9.7-8.8c-3.4-6.1-3.9-16.3-1.1-23.7c2.4-6.2,6.3-8.7,9.3-9.7
	c3.5-1.2,7.3-1.8,11.6-1.8c8.7,0,18.5,2.3,31,5.2c6.8,1.6,14.6,3.4,23.2,5.1c9.3,1.8,19,2.7,28.9,2.7c16.9,0,28.5-2.6,30.6-3.2
	c3.5-0.8,7-1.7,10.4-2.6c15.6-3.9,30.3-7.6,41.1-7.6c9.9,0,16.7,3.2,20.2,9.6c4,7.3,3.3,20.3-1.3,27.3c-2.4,3.6-5.2,6-7.9,7.6
	c1.5,1,3,2.2,4.3,3.6c6.3,6.8,10.1,20.9,5.7,30.9C383.6,320.3,377,324.4,368.7,324.4C368.7,324.4,368.7,324.4,368.7,324.4z"/>
<path class="st1" d="M205.5,275c-6.6-4.7-13.2-4.7-16.3-10.3c-2.9-5.1-2.1-17.4,2.7-19.1c12.2-4.2,30.6,3,60.8,8.9
	c31.4,6.1,57.7,1,63.8-0.5c27.5-6.7,55.3-15.4,60.6-5.6c2.3,4.2,1.6,13.3-0.8,17.1c-4.1,6.2-9.9,6-15.8,9.8c-1.6,1-4.7,4.4,0.3,7
	c3.2,1.7,9.4,2.8,12.9,6.6c5.9,6.4,9.8,27.7-7.6,25.3c-8-1.1-17.9-2.1-47.2-7.8c-20.6-4-45.1-3.4-69.8-0.3
	c-12.8,1.6-18.6,2.8-32,5.6c-9.2,1.9-20.8,4.3-26.1,0.5c-3.5-2.5-4.5-11.9-2.4-17.5c3-8.1,12-10.6,16.9-12.3
	C211,280.7,208.1,276.8,205.5,275z"/>
<path class="st2" d="M172.4,434.3c-15.2,0-20.3-9.5-21.8-13.6c-4-11,1.4-24.2,8.6-30.2c0.9-0.8,1.8-1.4,2.7-2
	c-2.1-1.5-4.4-3.4-7-6.5c-6.3-7.3-7.1-21.6-1.7-29.3c5.5-7.7,15.7-8.6,23-8.6c13.4,0,32.2,3.7,52.1,7.5c4.5,0.9,9,1.8,13.6,2.6
	c2.9,0.5,18.6,3.3,41,3.3c13.1,0,26.1-0.9,38.5-2.8c11.3-1.7,21.5-3.5,30.4-5.1c15.9-2.9,28.5-5.1,39.2-5.1c5.1,0,9.5,0.5,13.5,1.6
	c5.3,1.4,9.5,5.5,11.6,11.4c2.8,7.8,1.7,17.2-2.6,23.1c-2.8,3.8-5.6,6-8.4,7.7c3.7,2.5,7.3,6.3,10.2,12.2c4.7,9.7,2.6,25.1-7.3,30.5
	c-4,2.2-9.2,3.2-15.9,3.2c0,0,0,0,0,0c-7.9,0-17-1.5-24.3-2.6c-16.8-2.7-24.4-3.9-41-5.6c-16.9-1.7-32.8-2.5-47.4-2.5
	c-15.1,0-28.9,0.9-40.9,2.7c-32.5,4.9-46.5,6.3-56.7,7.3c-1.8,0.2-3.4,0.3-5,0.5C175.2,434.2,173.8,434.3,172.4,434.3z"/>
<path class="st2" d="M389.7,385c8.6-4.7,11.7-4.7,15.8-10.3c3.7-5.1,2.7-17.4-3.5-19.1c-15.8-4.2-39.7,3-79,8.9
	c-40.8,6.1-74.9,1-82.9-0.5c-35.7-6.7-71.8-15.4-78.7-5.6c-2.9,4.2-2.1,13.3,1.1,17.1c5.3,6.2,7.8,6,15.4,9.8c2.1,1,5.5,4.7-1,7.3
	c-4.2,1.7-6.7,1.7-11.3,5.5c-7.7,6.4-12.4,28.5,10.1,26.1c10.4-1.1,23.2-2.1,61.3-7.8c26.7-4,58.6-3.4,90.7-0.3
	c16.6,1.6,24.2,2.8,41.6,5.6c12,1.9,27,4.3,34,0.5c4.5-2.5,5.8-11.9,3.1-17.5c-4-8.1-9.2-10.2-15.6-12
	C383.7,391,386.4,386.8,389.7,385z"/>
</svg>
