<?xml version="1.0" encoding="utf-8"?>
<!-- Generator: Adobe Illustrator 26.3.1, SVG Export Plug-In . SVG Version: 6.00 Build 0)  -->
<svg version="1.1" id="Layer_1" xmlns="http://www.w3.org/2000/svg" xmlns:xlink="http://www.w3.org/1999/xlink" x="0px" y="0px"
	 viewBox="0 0 566.9 566.9" style="enable-background:new 0 0 566.9 566.9;" xml:space="preserve">
<style type="text/css">
	.st0{fill:none;stroke:#5CBA47;stroke-miterlimit:10;}
	.st1{fill:none;stroke:#BB529E;stroke-miterlimit:10;}
	.st2{fill:none;stroke:#62C9D8;stroke-miterlimit:10;}
</style>
<path class="st0" d="M394.1,216.5c-1.1,0-2.2-0.1-3.4-0.2c-1.6-0.2-3.3-0.3-5.1-0.5c-10.1-1-24-2.4-56.3-7.3
	c-12.4-1.9-26.6-2.8-42.1-2.8c-14.8,0-31,0.9-48.2,2.6c-16.8,1.7-24.6,2.9-41.5,5.6c-7,1.1-15.8,2.5-23.1,2.5
	c-5.4,0-9.3-0.7-12.1-2.3c-5.7-3.1-7-13.8-3.9-20.1c4.4-9,10.5-11.3,16.8-13c2.3-0.6,3-1.4,3-1.7c0.1-0.5-0.7-1.7-2.3-2.6
	c-2.5-1.3-4.4-2.3-6.2-3.1c-4.2-2-7.1-3.4-10.2-7.7c-2.7-3.7-3.4-10.5-1.5-15.7c1.2-3.4,3.4-5.7,6.1-6.4c3.3-0.9,7.1-1.3,11.4-1.3
	c9.9,0,22.2,2.2,37.8,5c9,1.6,19.2,3.4,30.6,5.2c12.8,1.9,26.2,2.9,39.7,2.9c23.2,0,39.5-2.8,42.5-3.4c4.6-0.9,9.1-1.7,13.6-2.6
	c19.5-3.8,37.9-7.4,50.6-7.4c8.7,0,14,1.7,16.5,5.3c3.3,4.7,2.7,14.9-1.2,19.5c-4.3,5-7,6.2-11.2,8c-1.4,0.6-3,1.3-4.9,2.2
	c-0.9,0.4-1.7,1.4-1.7,1.9c0,0.3,0.5,1,2.5,1.8c1.1,0.4,2,0.7,3,1.1c2.7,0.9,5.2,1.7,8.9,4.8c5.1,4.2,8.9,14.1,6.2,21.4
	C407.3,211.2,404,216.5,394.1,216.5C394.1,216.5,394.1,216.5,394.1,216.5z"/>
<path class="st0" d="M176.9,175.1c-8.6-4.7-11.7-4.7-15.8-10.3c-3.7-5.1-2.7-17.4,3.5-19.1c15.8-4.2,39.7,3,79,8.9
	c40.8,6.1,74.9,1,82.9-0.5c35.7-6.7,71.8-15.4,78.7-5.6c2.9,4.2,2.1,13.3-1.1,17.1c-5.3,6.2-7.8,6-15.4,9.8c-2.1,1-5.5,4.7,1,7.3
	c4.2,1.7,6.7,1.7,11.3,5.5c7.7,6.4,12.4,28.5-10.1,26.1c-10.4-1.1-23.2-2.1-61.3-7.8c-26.7-4-58.6-3.4-90.7-0.3
	c-16.6,1.6-24.2,2.8-41.6,5.6c-12,1.9-27,4.3-34,0.5c-4.5-2.5-5.8-11.9-3.1-17.5c4-8.1,9.2-10.2,15.6-12
	C182.9,181,180.2,176.9,176.9,175.1z"/>
<path class="st1" d="M368.7,317.9c-0.9,0-1.9-0.1-2.8-0.2c-1.2-0.2-2.5-0.3-3.9-0.5c-7.8-1-18.5-2.4-43.4-7.3
	c-9.5-1.9-20.3-2.8-32.2-2.8c-11.4,0-23.8,0.9-37,2.5c-12.9,1.7-18.9,2.9-31.9,5.6c-5.5,1.1-12.2,2.5-17.9,2.5
	c-4.3,0-7.5-0.8-9.8-2.4c-4.5-3.2-5.4-13.5-3.1-19.8c3.1-8.4,11.8-11.3,17-13.1c0.4-0.1,0.8-0.3,1.2-0.4c1.2-0.4,1.7-0.9,1.8-1.2
	c0.1-0.6-0.8-1.9-2.2-2.9c-2.5-1.8-4.9-2.8-7.3-3.8c-3.8-1.6-7.4-3.1-9.6-7.1c-2.3-4.1-2.6-11.8-0.6-16.9c1-2.6,2.5-4.3,4.4-5
	c2.6-0.9,5.6-1.3,9.1-1.3c7.7,0,17.2,2.2,29.2,5c6.9,1.6,14.7,3.4,23.5,5.2c9.8,1.9,20.1,2.9,30.4,2.9c17.8,0,30.2-2.8,32.5-3.4
	c3.5-0.9,7-1.7,10.5-2.6c15.1-3.8,29.3-7.4,39.2-7.4c6.9,0,11.2,1.8,13.2,5.4c2.5,4.6,2,14.6-0.9,19.1c-3,4.5-6.8,6-10.5,7.5
	c-1.9,0.8-4,1.6-5.9,2.8c-0.8,0.5-1.6,1.4-1.5,2c0,0.4,0.6,1,1.6,1.5c0.9,0.5,2.1,0.9,3.4,1.4c3.2,1.2,7.3,2.7,10,5.7
	c4.4,4.8,7.2,15.6,4.3,22.3C378.2,314.4,375.3,317.9,368.7,317.9z"/>
<path class="st1" d="M205.5,276.5c-6.6-4.7-13.2-4.7-16.3-10.3c-2.9-5.1-2.1-17.4,2.7-19.1c12.2-4.2,30.6,3,60.8,8.9
	c31.4,6.1,57.7,1,63.8-0.5c27.5-6.7,55.3-15.4,60.6-5.6c2.3,4.2,1.6,13.3-0.8,17.1c-4.1,6.2-9.9,6-15.8,9.8c-1.6,1-4.7,4.4,0.3,7
	c3.2,1.7,9.4,2.8,12.9,6.6c5.9,6.4,9.8,27.7-7.6,25.3c-8-1.1-17.9-2.1-47.2-7.8c-20.6-4-45.1-3.4-69.8-0.3
	c-12.8,1.6-18.6,2.8-32,5.6c-9.2,1.9-20.8,4.3-26.1,0.5c-3.5-2.5-4.5-11.9-2.4-17.5c3-8.1,12-10.6,16.9-12.3
	C211,282.1,208.1,278.3,205.5,276.5z"/>
<path class="st2" d="M172.4,427.8c-9.8,0-13.2-5.3-14.3-8.4c-2.7-7.4,1.1-17.2,6.2-21.4c3.7-3,6.2-3.9,8.9-4.8
	c0.9-0.3,1.9-0.6,3-1.1c2-0.8,2.5-1.5,2.5-1.8c0-0.5-0.8-1.4-1.7-1.9c-1.9-0.9-3.5-1.6-4.9-2.2c-4.1-1.8-6.9-3-11.2-8
	c-3.9-4.6-4.6-14.8-1.2-19.5c2.5-3.6,7.8-5.3,16.5-5.3c12.7,0,31.1,3.6,50.6,7.4c4.5,0.9,9.1,1.8,13.6,2.6c3,0.6,19.3,3.4,42.5,3.4
	c13.5,0,26.9-1,39.7-2.9c11.4-1.7,21.6-3.5,30.6-5.2c15.5-2.8,27.8-5,37.8-5c4.4,0,8.1,0.4,11.4,1.3c2.7,0.7,4.9,3,6.1,6.4
	c1.9,5.3,1.2,12-1.5,15.7c-3.2,4.4-6,5.7-10.2,7.7c-1.7,0.8-3.7,1.8-6.2,3.1c-1.6,0.9-2.4,2.1-2.3,2.6c0,0.3,0.7,1.1,3,1.7
	c6.4,1.7,12.4,4,16.8,13c3,6.2,1.8,16.9-3.9,20.1c-2.8,1.5-6.8,2.3-12.1,2.3c0,0,0,0,0,0c-7.3,0-16.1-1.4-23.1-2.5
	c-16.9-2.7-24.6-4-41.5-5.6c-17.1-1.7-33.3-2.6-48.2-2.6c-15.5,0-29.7,0.9-42.1,2.8c-32.3,4.8-46.2,6.2-56.3,7.3
	c-1.8,0.2-3.4,0.3-5,0.5C174.7,427.8,173.5,427.8,172.4,427.8z"/>
<path class="st2" d="M389.7,386.4c8.6-4.7,11.7-4.7,15.8-10.3c3.7-5.1,2.7-17.4-3.5-19.1c-15.8-4.2-39.7,3-79,8.9
	c-40.8,6.1-74.9,1-82.9-0.5c-35.7-6.7-71.8-15.4-78.7-5.6c-2.9,4.2-2.1,13.3,1.1,17.1c5.3,6.2,7.8,6,15.4,9.8c2.1,1,5.5,4.7-1,7.3
	c-4.2,1.7-6.7,1.7-11.3,5.5c-7.7,6.4-12.4,28.5,10.1,26.1c10.4-1.1,23.2-2.1,61.3-7.8c26.7-4,58.6-3.4,90.7-0.3
	c16.6,1.6,24.2,2.8,41.6,5.6c12,1.9,27,4.3,34,0.5c4.5-2.5,5.8-11.9,3.1-17.5c-4-8.1-9.2-10.2-15.6-12
	C383.7,392.4,386.4,388.2,389.7,386.4z"/>
</svg>
