<?xml version="1.0" encoding="utf-8"?>
<!-- Generator: Adobe Illustrator 26.3.1, SVG Export Plug-In . SVG Version: 6.00 Build 0)  -->
<svg version="1.1" id="Layer_1" xmlns="http://www.w3.org/2000/svg" xmlns:xlink="http://www.w3.org/1999/xlink" x="0px" y="0px"
	 viewBox="0 0 566.9 566.9" style="enable-background:new 0 0 566.9 566.9;" xml:space="preserve">
<style type="text/css">
	.st0{fill:none;stroke:#D11F43;stroke-miterlimit:10;}
</style>
<path class="st0" d="M391.4,427.4c-3.6,0-7.3-0.9-10.8-2.5c-3.1-1.5-5.5-4.4-7.8-7.2c-2.2-2.7-4.3-5.3-6.6-6.2
	c-0.8-0.3-1.6-0.5-2.3-0.5c-2.6,0-4.9,2.2-7.7,4.9c-1.7,1.7-3.6,3.5-5.9,5.1c-4.4,3-8.8,4.5-13.2,4.5c-10,0-20-7.7-31.6-24.3
	c-14.1-20.4-38.4-75.4-56-115.7c-8.6-19.4-16.7-38-20.6-45.4c-1.6,21.3,1,120.7,7.8,154.9c0.1,0.4,0.2,1,0.4,1.7
	c1.2,5.1,3.6,15.7-0.8,22.1c-1.9,2.8-4.9,4.4-8.8,4.9l-0.2,0c-1.5,0.2-2.8,0.3-4.3,0.3c-3,0-6-0.8-10.2-2.6c-3-1.3-5.5-3.6-7.9-5.9
	c-2.4-2.2-4.9-4.5-6.8-4.5c-0.4,0-0.8,0.1-1.3,0.4c-3.5,2-6.2,5.2-8.6,8c-2,2.3-3.6,4.2-5.3,5c-1.5,0.8-3.6,1.2-6,1.2
	c-4.2,0-8.6-1.2-11.8-3.3c-14.1-9.1-10.1-23.2-5-40.9c2.2-7.7,4.7-16.3,6.2-26c10.9-68.6,3.2-122.6-1.9-158.3
	c-4.3-29.9-6.8-47.9,3.7-54.6c3.1-2,8.3-4.1,13.6-4.1c3.7,0,6.9,1,9.5,2.9c4.6,3.3,5.5,6.2,6.4,9.2c0.6,1.9,1.2,4,3,6.6
	c1.1,1.7,2.5,2.6,3.9,2.6c1.3,0,2.7-0.9,4-2.5c2.6-3.2,3.9-5.6,5.1-7.7c1.3-2.3,2.4-4.2,4.5-6.2c2.8-2.6,8.1-3.5,12-3.5
	c2.7,0,9.1,0.4,11.4,4.2c11,17.8,57.5,122.7,79.9,173.1c3.9,8.9,7.4,16.6,9.6,21.5c0.2-10.1-1.2-32.2-2.6-53.8
	c-1.9-29.8-4-63.5-4.2-91.2c-0.4-43.5,4.1-51,8.5-52.6c2.9-1.1,6.1-1.6,9.5-1.6c4.5,0,9,1,11.3,2.6c4.2,2.8,5.9,7.4,7.8,15.2
	c0.6,2.6,2.9,2.8,3.8,2.8c2,0,4.3-1.2,4.8-3.4c0.4-1.8,0.7-3.2,1-4.5c0.6-3.2,1-5.1,2.4-7.5c2.2-3.7,6.8-4.2,11-4.2
	c2,0,4.5,0.1,7.4,0.4c4.8,0.5,8.2,2.1,10.4,5c5.4,7,3.1,20.1-0.7,41.8c-3.8,22-9,52.2-8.7,91.4c0.3,39.2,5.9,71.9,10,95.7
	c5.1,29.6,8.1,47.5-3.6,51.3C396.5,427,393.9,427.4,391.4,427.4z"/>
<path class="st0" d="M227.8,235.2c-3.4,1-0.7,122,6.9,160.2c0.9,4.8,7.1,24.5-7.6,26.3c-4.2,0.5-6.8,0.9-13.5-2.1
	c-6.9-3-12.1-13.2-17.7-9.9c-6.6,3.8-10.6,11.4-13.8,13c-3.4,1.7-10.9,1.2-15.8-2c-18.4-12-3-32.6,2.1-65
	c19.6-123.4-20.5-197.9,0.9-211.6c4.8-3.1,14.3-6,20.9-1.3c6.8,5,4.2,8.4,8.9,15.3c2.9,4.2,7.3,5,11.1,0.3
	c5.4-6.7,5.6-10.2,9.3-13.6c4.3-3.9,17.7-4.1,20.4,0.3c14.5,23.5,91.6,200.2,92,200.2c6.4,0.3-16.8-195.6,1.5-202.2
	c7.8-2.8,16.2-1.1,19,0.8c3.4,2.3,5,6,7,14.1c1.5,6.4,11.2,5.3,12.5-0.6c1.4-6.3,1.4-8.5,3.2-11.5c1.8-3.1,6.3-3.8,16.5-2.8
	c27.3,2.7-1.4,45.7-0.7,136.3c0.7,86,26.4,139.1,7.7,145.1c-5.2,1.7-10.9,1.7-17-1.2c-5.6-2.6-9-11.3-14.6-13.5
	c-7.3-2.9-10.8,5-17.7,9.7c-14.7,10-27.7,1.3-42-19.3C283.4,365.8,231.5,234.1,227.8,235.2z"/>
</svg>
