<?xml version="1.0" encoding="utf-8"?>
<!-- Generator: Adobe Illustrator 26.3.1, SVG Export Plug-In . SVG Version: 6.00 Build 0)  -->
<svg version="1.1" id="Layer_1" xmlns="http://www.w3.org/2000/svg" xmlns:xlink="http://www.w3.org/1999/xlink" x="0px" y="0px"
	 viewBox="0 0 566.9 566.9" style="enable-background:new 0 0 566.9 566.9;" xml:space="preserve">
<style type="text/css">
	.st0{fill:none;stroke:#FFFEFF;stroke-miterlimit:10;}
	.st1{fill:none;stroke:#FFFFFF;stroke-miterlimit:10;}
</style>
<path class="st0" d="M314,274.4c0-0.1-0.7-14.5-1.1-28.8c-0.9-29.9,0-30.8,0.8-31.7c0.4-0.4,1-0.7,1.5-0.7h0.1l0.1,0
	c29.6,3.3,44.3,13.7,45,32c1,26.7-33.7,30.6-44.4,31.1l-2,0.1L314,274.4z"/>
<path class="st0" d="M316,274.3c0,0-2.8-59.4-0.7-59.1c25.1,2.8,42.5,11.1,43.3,30.1C359.4,267.1,333.7,273.4,316,274.3z"/>
<path class="st0" d="M254,276.3c-10.3-0.5-44-4.4-43-31.1c0.7-18.3,14.9-28.7,43.5-32l0.1,0l0.1,0c0.6,0,1.1,0.2,1.5,0.7
	c0.8,0.9,1.7,1.8,0.8,31.7c-0.4,14.4-1.1,28.7-1.1,28.9l-0.1,2L254,276.3z"/>
<path class="st0" d="M254.1,274.3c0,0,2.8-59.4,0.7-59.1c-24.2,2.8-41.1,11.1-41.8,30.1C212.2,267.1,237,273.4,254.1,274.3z"/>
<path class="st1" d="M304.5,428.8c-3.5,0-6.7-1.3-9.5-4c-2.1-2-3.1-4-3.9-5.8c-0.8-1.5-1.4-2.9-2.7-4c-0.6-0.5-1.5-1.2-2.6-1.2
	c-1.1,0-2.3,0.7-3.6,2c-1.4,1.4-2.3,2.7-3.2,3.9c-1.9,2.6-3.6,4.8-8,6.8c-2.1,1-6.5,2-10.5,2c-3.7,0-6.5-0.9-8.2-2.6
	c-1.3-1.3-1.9-3-1.9-5c0.3-13.1,3.8-92.4,4.5-106.8c-4,0.3-8.1,0.8-12.3,1.2c-7.9,0.9-16,1.8-24.1,1.8c-15.7,0-27.8-3.5-38.1-11.1
	c-14.8-10.8-21.1-29.2-22.3-32.8c-2.5-8-4.3-37.8,4-56.6c18.6-42.3,55.7-47.5,89.6-48.4c-1-5.6-3-19.2-0.3-24.5
	c1.3-2.6,6-4.5,11-4.5c3.2,0,8,0.8,12.1,4.7c3.4,3.2,3.6,3.4,5.5,5.9c0.4,0.6,1,1.3,1.7,2.2c1,1.3,2,2,3.1,2c1.6,0,3.2-1.5,3.7-2.6
	c3.6-7.8,7.3-10.8,15.2-12.5c0.8-0.2,1.7-0.3,2.5-0.3c6.2,0,10.8,5.1,12.1,13.2c0.8,4.9,0.3,13.2,0,17.3c3.4-0.3,6.7-0.4,10-0.4
	c32.2,0,51.6,14.6,62.2,26.9c11.7,13.5,19.1,31.7,20,48.7c1.2,23.3-4.2,41.3-16,53.7c-15.1,15.9-37.9,19.2-54.3,19.2
	c-11.3,0-20.5-1.5-24.6-2.3c-0.8,19.8,0.8,40,2.1,57.9c2.2,28.7,3.7,49.5-5.2,53.9C309.6,428.1,307,428.8,304.5,428.8z"/>
<path class="st1" d="M253.9,170.3c0,0-3.9-19.6-0.9-25.5c1.5-2.9,12.5-6.3,20,0.7c4.1,3.8,3.2,3.1,6.9,7.9c4.1,5.4,9,1.6,10.2-1
	c3.4-7.2,6.6-9.9,13.8-11.4c6.4-1.4,11,3.5,12.2,11.3c1,6.3-0.2,19.2-0.2,19.2c65.3-7,90.8,42.7,92.4,73
	c4.6,91.7-94.8,68.1-94.8,68.1c-2.4,50.8,10.9,106.1-2.1,112.5c-6.3,3.1-11.3,2-15.1-1.6c-3.6-3.4-3.5-7-6.7-9.9
	c-1.2-1.1-4.5-3.6-8.9,0.9c-4.4,4.6-4.7,7.5-10.7,10.3c-3.6,1.7-17.9,4.5-17.7-3.8c0.3-14.5,4.6-109,4.6-109
	c-24.6,1.6-52.3,9.4-75.5-7.5c-12.9-9.5-19.5-25.2-21.5-31.8c-2.5-7.8-4.1-36.9,3.9-55.2C181.5,177.3,215.7,171,253.9,170.3z"/>
</svg>
