<?xml version="1.0" encoding="utf-8"?>
<!-- Generator: Adobe Illustrator 26.3.1, SVG Export Plug-In . SVG Version: 6.00 Build 0)  -->
<svg version="1.1" id="Layer_1" xmlns="http://www.w3.org/2000/svg" xmlns:xlink="http://www.w3.org/1999/xlink" x="0px" y="0px"
	 viewBox="0 0 566.9 566.9" style="enable-background:new 0 0 566.9 566.9;" xml:space="preserve">
<style type="text/css">
	.st0{fill:none;stroke:#EAE613;stroke-miterlimit:10;}
	.st1{fill:none;stroke:#00ADEF;stroke-miterlimit:10;}
</style>
<path class="st0" d="M285.4,426.8c-30.8,0-61.1-13.4-85.3-37.6c-28.9-28.9-44.8-68.7-44.7-112.1c0.1-85.5,67-136.5,131.7-136.5
	c1.8,0,3.6,0,5.4,0.1c82.3,3.8,119,76.4,118.8,146.8C411.1,345.7,363.1,426.8,285.4,426.8z"/>
<path class="st0" d="M292.4,142.7c-63.5-2.9-135,46.7-135.1,134.4c-0.1,85.4,62.9,147.7,128.1,147.7c74.3,0,123.7-77.1,123.9-137.3
	C409.5,220.1,375,146.5,292.4,142.7z"/>
<path class="st1" d="M212.6,255.4c1.2-7.6,3.2-20.3,16-36.8c11-14.2,31.4-22.7,54.6-22.7c22.1,0,42,7.7,53.1,20.7
	c10.3,12,16.8,30.9,17.4,39.4l0.1,2.1L212,259.4L212.6,255.4z"/>
<path class="st1" d="M230.2,219.9c-13.5,17.4-14.7,30.6-15.8,37.6l137.4-1.2c-0.6-8.1-7-26.7-16.9-38.3
	C311.7,191.1,252.6,190.9,230.2,219.9z"/>
<path class="st1" d="M282,371.6c-23.9,0-44.3-9.9-54.7-26.4c-11-17.4-12.9-26-15-42.8l-0.3-2.2l141.4,1.4l0.3,1.5
	c1.6,7-7.2,32.2-16.8,44.7C325.7,362.5,304.6,371.6,282,371.6z"/>
<path class="st1" d="M228.9,344.2c-11-17.5-12.7-25.9-14.7-42l137.6,1.4c1.3,5.9-6.6,30.3-16.4,43.1
	C312,377,250.5,378.5,228.9,344.2z"/>
</svg>
