<?xml version="1.0" encoding="utf-8"?>
<!-- Generator: Adobe Illustrator 26.3.1, SVG Export Plug-In . SVG Version: 6.00 Build 0)  -->
<svg version="1.1" id="Layer_1" xmlns="http://www.w3.org/2000/svg" xmlns:xlink="http://www.w3.org/1999/xlink" x="0px" y="0px"
	 viewBox="0 0 566.9 566.9" style="enable-background:new 0 0 566.9 566.9;" xml:space="preserve">
<style type="text/css">
	.st0{fill:none;stroke:#4C4DA0;stroke-miterlimit:10;}
</style>
<path class="st0" d="M365.5,435.3c-16.5,0-34.6-0.5-58.3-1.2c-3-0.1-5.7-1.4-7.8-3.6c-2.9-3.1-7.3-7.9-4.5-64.1
	c0.3-6.6,4.8-12.3,11.2-14.1c32.1-9.2,36.8-33.7,41.2-57.5c0.2-1.1,0.4-2.2,0.6-3.3c2.6-15.5,3.1-63.4-28-81.5
	c-1.9-1.1-12-6.5-30.3-6.5c-7.9,0-16.2,1-24.8,3.1c-23.7,5.6-35.7,36.1-36.7,55.9c-1.7,32.9,3.5,58.6,14.9,74.4
	c8.5,11.7,18.2,15,22,15.9c6,1.4,10.4,6.6,10.6,12.8c0.2,6.2,0.4,20.5,0.4,33.5c0,7.2-0.1,13.1-0.2,17.5c-0.3,8-0.5,11.4-3.5,14.6
	l-2.9,3l-4.2,0.1c-1.9,0-5.7,0-11.7,0c-6.7,0-15.4,0-25.1,0c-11.9,0-25.2-0.1-37.7-0.1c-5.3,0-10.4,0-15.2,0c-6.9,0-12.6-2.4-17-7
	c-10-10.6-8.2-24.2-1.6-31.7c1.2-1.3,2.3-2.4,3.4-3.3c-2.4-2-5-5-6.9-9.9c-2.7-7.2-3.3-17.4,3.1-24.3c3.3-3.5,8-5.7,14.1-6.4
	c-6.8-13.3-15.1-33.1-17.6-54.2c-8.5-70.7,23.2-106.4,35.2-119.9c38.6-43.5,90.6-45.7,100.7-45.7c1.1,0,2.6,0,3.8,0.1
	c1.5,0.1,3.1,0.3,4.8,0.4c21.1,1.6,60.3,4.7,96,55.2c2.7,3.8,26.4,39.1,26.4,97c0,28.2-9.3,51.5-17.7,67.8c2.5,0.5,4.9,1.3,7.1,2.3
	c6.4,3,10.5,9.5,11,17.2c0.5,8.2-2.9,16.1-8.9,20.8c1.4,1.2,2.9,2.6,4.3,4.4c5.1,6.3,6.1,15.6,2.6,23.6c-3.7,8.2-11.5,13.4-21,13.9
	C387,435.1,376.9,435.3,365.5,435.3C365.5,435.3,365.5,435.3,365.5,435.3z"/>
<path class="st0" d="M307.5,424.2c39.3,1.2,63,1.8,89.3,0.5c13.4-0.7,16.5-14.8,11.2-21.3c-4.6-5.6-9.4-6.4-9.4-10.2
	c0-3.3,1.6-5,6-7.9c7.4-4.8,8.1-18.1,0.5-21.7c-8.6-4.1-19.9-0.8-19.9-0.8c8.2-14.5,24.9-42.2,24.9-78.3c0-55.5-22.5-88.3-24.6-91.3
	c-35.8-50.7-74.2-49.6-93.6-51.5c-6-0.6-58.6,0-96.1,42.2c-13.3,14.9-40.5,48-32.8,112.1c4.2,35,25.7,66.8,25.7,66.8
	s-18.6-4.9-24.8,1.8c-3.6,3.8-2.4,10.6-1.1,14.1c3.7,10,10.6,5.4,10.7,13c0.1,4.3-4.5,5.1-9.2,10.3c-2.8,3.1-5.6,10.9,1.4,18.3
	c3.3,3.5,7.2,3.9,9.8,3.9c33.2-0.1,80.8,0.2,89.6,0c1.4,0,1-46.2,0.7-58.5c-0.1-1.7-1.2-3-2.8-3.4c-10.6-2.4-48.9-16.7-44.7-100.4
	c1.2-23.2,15.4-58.2,44.4-65.1c37.2-8.8,58.7,2.4,62.3,4.5c35.7,20.9,36.1,72.3,32.7,91.9c-4.8,25.2-9.1,57.2-48.9,68.6
	c-2.3,0.7-3.9,2.7-4,5C304.2,380.5,302.4,424,307.5,424.2z"/>
</svg>
