<?xml version="1.0" encoding="utf-8"?>
<!-- Generator: Adobe Illustrator 26.3.1, SVG Export Plug-In . SVG Version: 6.00 Build 0)  -->
<svg version="1.1" id="Layer_1" xmlns="http://www.w3.org/2000/svg" xmlns:xlink="http://www.w3.org/1999/xlink" x="0px" y="0px"
	 viewBox="0 0 566.9 566.9" style="enable-background:new 0 0 566.9 566.9;" xml:space="preserve">
<style type="text/css">
	.st0{fill:none;stroke:#60BB46;stroke-width:1.0006;stroke-miterlimit:10;}
</style>
<path class="st0" d="M395.6,427.6c-4.7,0-9.6-1.2-11.7-2.8c-3.4-2.7-4.7-9-5.8-14.5c-0.5-2.5-0.9-4.8-1.5-6.2c-0.3-0.7-1-2.2-2-2.2
	c-0.9,0-2.1,1.1-2.6,2.2c-1,2.5-1.1,5.4-1.3,8.3c-0.3,6.4-0.7,14.4-13.4,14.4c-5.5,0-9.6-1.6-12.3-4.7c-2.6-3-3.7-7.3-3-12.1
	c5.9-41.4,3.3-128.5,1.7-180.6c-0.5-15.3-0.8-27.3-0.8-33.8c0-0.8-2.1-1.8-8-1.8c-5.7,0-13.3,0.9-21.3,1.8c-8.5,1-17.3,2-24.4,2
	h-0.2c-8.5,0-19.6-0.9-30.3-1.8c-9.9-0.8-19.3-1.6-25.9-1.6c-5.5,0-7.3,0.6-7.8,0.8c-4.8,53.5-1.1,113.4,1.6,157.1
	c3.1,48.9,4.1,70.7-2.7,73.7c-1.9,0.9-5,1.4-8.3,1.4c-2.3,0-7.8-0.3-10.5-2.7c-2.4-2.2-2.8-5.5-3.3-9.3c-0.4-3.4-0.8-7.3-2.9-11.2
	c-0.4-0.7-0.7-1.1-1.1-1.2c-0.1,0-0.2,0-0.2,0c-0.7,0-1.7,0.7-2.3,1.6c-1.2,1.6-1.7,4.3-2.3,7.1c-1.4,6.6-3.3,15.5-15.4,15.5h-0.2
	c-5.1,0-9-1.7-11.8-4.8c-3.2-3.6-3.8-8.2-3.6-9.9c8.8-105,5.9-162.7-3.9-252.5c-0.4-3.5,0.5-6.5,2.7-9c7.9-9,31.9-9.6,57.4-10.2
	c7.1-0.2,14.4-0.3,21.3-0.7c5-0.3,14.1-0.4,27.8-0.4c21.3,0,52,0.3,90,0.7c27.1,0.3,42.9,3.4,48.2,9.5c1.7,2,2.4,4.3,2.1,6.8
	c-10.1,73.4-2.5,216.9,1,261.4c0.2,2.4-0.5,4.6-2,6.2C403.8,426.9,399.1,427.6,395.6,427.6z"/>
<path class="st0" d="M223.2,194.3c-9.3,102.2,12.4,224,0,229.6c-4,1.8-13.8,1.7-16.7-1c-3.8-3.4-1.3-11.6-5.7-20
	c-0.3-0.6-1-1.9-2.3-2.2c-1.7-0.5-3.6,0.8-4.7,2.3c-4.5,6.3-0.8,21.9-16.3,21.8c-12.4-0.1-13.7-10.7-13.5-12.5
	c8.8-105.2,5.8-164-3.9-252.9c-2.1-19.2,42.2-15.8,79.6-17.7c13.9-0.7,58.3-0.3,117.7,0.3c28.3,0.3,49.8,3.7,48.3,14.1
	c-10,72.9-2.5,217,0.9,261.8c0.8,10.4-17.8,8.2-21.4,5.3c-4.3-3.4-4.8-15.4-6.7-19.9c-2.5-6.2-7.1-2.8-8.2,0
	c-3.6,9,2.9,21.4-12.9,21.4c-11.3,0-14.3-7.5-13.3-14.6c7.7-54,0.9-186.9,0.9-214.6c0-8.5-35.2-0.1-55.7,0
	C266.3,195.5,223.7,188.7,223.2,194.3z"/>
</svg>
