<?xml version="1.0" encoding="utf-8"?>
<!-- Generator: Adobe Illustrator 26.3.1, SVG Export Plug-In . SVG Version: 6.00 Build 0)  -->
<svg version="1.1" id="Layer_1" xmlns="http://www.w3.org/2000/svg" xmlns:xlink="http://www.w3.org/1999/xlink" x="0px" y="0px"
	 viewBox="0 0 566.9 566.9" style="enable-background:new 0 0 566.9 566.9;" xml:space="preserve">
<style type="text/css">
	.st0{fill:none;stroke:#EE2561;stroke-miterlimit:10;}
</style>
<path class="st0" d="M301,437.7c-9.8,0-15.6-6.9-19.3-11.8c-3.1,4.1-8.5,9.8-19.9,11.2c-1.1,0.1-2.2,0.2-3.3,0.2
	c-6.8,0-13.1-2.6-16.9-6.9c-2.9-3.4-4.2-7.6-3.5-11.9c3.1-20.5,5.2-112.2,5.2-129.6c-9.8-13.4-32.8-37.1-69.9-72.3
	c-3.9-3.7-23.2-22.9-22.7-39.7c0.2-5.3,2.4-10,6.2-13.2c4.9-4.1,10.4-6.2,16.3-6.2c4.7,0,8.6,1.3,11.8,2.3c0.3,0.1,0.7,0.2,1.1,0.3
	c-0.1-0.5-0.1-0.9-0.2-1.3c-0.4-2.4-0.8-5.2-0.4-8.1c1.5-10.1,11.5-21.4,23.7-21.4c5.9,0,11.3,2.7,15.3,7.7
	c16.3,20.4,43.3,64.1,58,88.3c13.6-23.6,40.2-66.7,57.5-89.1c3.4-4.4,8.6-6.9,14.4-6.9c9.7,0,19.4,6.7,22.2,15.2
	c2.1,6.3,1.3,11.9,0.4,16.1c0.2-0.1,0.5-0.1,0.7-0.2c5.4-2,9.7-2.9,13.6-2.9c11,0,16,7.4,18.2,10.5c6.8,10,1.9,22.4-4.9,30.7
	c-34.2,41.1-38.2,45.2-84.5,91.4c0.1,2.1,0.2,5,0.3,8.5c3,80.3,3.4,116.6,1.3,125.3C320,431.5,310.5,437.7,301,437.7z"/>
<path class="st0" d="M180.3,209.5c32.5,30.9,62,60.2,72.9,76.2c0.4,0.6-1.6,110.1-5.2,134.3c-0.8,5.2,6.6,8.1,12.6,7.3
	c16.3-2.1,12.8-14.6,22.2-14c5,0.3,8.6,14.4,18.2,14.4c6,0,10.6-4,11.1-6c3.2-13.7-2.2-135.3-2-135.6c48.6-48.6,52.2-52.1,86.9-93.8
	c1.7-2.1,9.1-11.8,4.3-18.8c-3.7-5.4-7.4-8.6-20.1-3.9c-4.5,1.6-12.1,2.3-14.3-0.7c-3.4-4.5,3.6-11.9,0.4-21.4
	c-2.1-6.5-14.2-12-19.3-5.3c-17.2,22.3-44.3,66-57.7,88.2c-3.7,6.1-12.5,6.1-16.2,0c-13.6-22.4-41-67-57.2-87.3
	c-7.9-9.9-20.2,0.8-21.3,8.9c-0.7,4.7,3.3,12-1.9,16.8c-7.4,6.8-17.7-8-30.2,2.4C155.2,178.2,167.3,197.1,180.3,209.5z"/>
</svg>
