<?xml version="1.0" encoding="utf-8"?>
<!-- Generator: Adobe Illustrator 26.3.1, SVG Export Plug-In . SVG Version: 6.00 Build 0)  -->
<svg version="1.1" id="Layer_1" xmlns="http://www.w3.org/2000/svg" xmlns:xlink="http://www.w3.org/1999/xlink" x="0px" y="0px"
	 viewBox="0 0 566.9 566.9" style="enable-background:new 0 0 566.9 566.9;" xml:space="preserve">
<style type="text/css">
	.st0{fill:none;stroke:#3C4CA0;stroke-width:1.0006;stroke-miterlimit:10;}
</style>
<path class="st0" d="M242.2,435.3c-11.3-0.2-18.1-7-22.5-14c-2.7,6.6-8.2,13.9-21,13.9h-0.2c-9.1,0-14.5-3.9-17.5-7.2
	c-5.2-5.7-6.1-12.8-5.8-16.1c8.7-103.9,5.9-161.4-3.8-251c-0.7-6.1,1-11.6,4.8-16c9.6-11,30.3-11.4,56.5-12.1
	c6.4-0.2,13-0.3,19.6-0.6c2.8-0.1,7.6-0.4,13.4-0.4c28.1,0,67.3,5.3,94.4,30.4c0.8,0.8,1.5,1.4,1.6,1.5
	c10.5,10.2,34.2,38.1,27.5,77.2c-3.7,21.5-16,40-35.6,53.7c-18.2,12.7-42.1,20.2-67.2,21.2c-1.3,0-2.7,0.1-4,0.1
	c-12.6,0-22.7-2.3-29.8-4.4c-0.7,22.3,3.5,44.9,7,63.6c4.6,24.8,8,42.7-0.7,53.1c-2.7,3.2-7.6,7-16.2,7l0,0
	C242.6,435.3,242.4,435.3,242.2,435.3z"/>
<path class="st0" d="M243.6,299.1c-7.1,61.8,28.7,126.8-1.2,126.3c-12.7-0.2-16.6-14-20.5-22c-1.9-3.9-5.4-2.2-7,0.1
	c-4.5,6.3-0.8,21.9-16.3,21.8c-12.4-0.1-13.7-10.7-13.5-12.5c8.8-105.2,5.8-164-3.9-252.9c-2.1-19.2,34.2-15.8,71.6-17.7
	c13.9-0.7,67.6-3.3,100.6,27.4c0.8,0.7,1.3,1.3,1.4,1.4c6.8,6.6,30.8,32.2,24.6,68.4c-6.7,38.9-46.2,64.8-93.4,66.6
	C259.3,306.9,243.9,296.3,243.6,299.1z"/>
<g>
	<path class="st0" d="M280.1,268.9c-2,0-5,0-7,0c-11-2-20-5-31-4c-2-24-5-49-4-73c0-6,8-10,14-11c16-1,32-2,47,3c14,5,26,14,32,28
		c4,11,4,23-1,33c-1,1-2,3-3,5C316.1,264.9,298.1,269.9,280.1,268.9L280.1,268.9z"/>
</g>
<g>
	<path class="st0" d="M251.1,254.9c-1-12-2-24-2-36c-1-8-3-15-2-23c0-4,6-4,10-5c14-1,29-1,43,4c8,4,17,10,20,19c0,1,2,1,2,2
		c6,15-2,32-16,39C288.1,262.9,269.1,257.9,251.1,254.9L251.1,254.9z"/>
</g>
</svg>
