<?xml version="1.0" encoding="utf-8"?>
<!-- Generator: Adobe Illustrator 26.3.1, SVG Export Plug-In . SVG Version: 6.00 Build 0)  -->
<svg version="1.1" id="Layer_1" xmlns="http://www.w3.org/2000/svg" xmlns:xlink="http://www.w3.org/1999/xlink" x="0px" y="0px"
	 viewBox="0 0 566.9 566.9" style="enable-background:new 0 0 566.9 566.9;" xml:space="preserve">
<style type="text/css">
	.st0{fill:none;stroke:#DC1F26;stroke-miterlimit:10;}
</style>
<path class="st0" d="M203.5,436c-21.8,0-25.3-3.7-27.2-5.7c-1.8-1.9-2.8-3.7-3.5-5.3c0,0,0,0,0,0c-1.1,0-2.1,0.1-3.1,0.1
	c0,0,0,0,0,0c-2.4,0-9.8,0-13.8-6.3c-2.8-4.3-2.8-9.7,0-16c5.1-11.4,8.4-90.8,7.9-124.9c-0.2-11.9,0.2-25,0.7-39
	c0.9-28,2-62.8-3.7-74.5c-3.1-6.5-2-11.4-0.5-14.4c2.1-4.2,5.9-6.5,9.2-7.4c1.8-0.6,3.7-0.9,5.7-0.9c0.9,0,1.7,0.1,2.5,0.2
	c2.3-9,10-10,13.5-10c0.6,0,1.3,0,1.9,0.1c19.9,1.6,70.6,3.5,86.5,4c2,0.1,4.2,0.1,6.5,0.1c14.9,0,32.1-1.2,48.7-2.4
	c14.9-1.1,29-2.1,40-2.1c10,0,26.8,0,30.1,12.1c1.5,5.5,0.1,9.6-1.3,12.1c-1.8,3.2-4.6,5.4-7.1,7.3c-1,0.8-3,2.3-3.7,3.2
	c1.2,1,3.7,2.4,5.3,3.3c3.5,2,7.5,4.2,10.4,7.6c4.5,5.3,5.4,12.1,2.4,18.7c-3.7,8.2-14.3,10.7-24.2,12c-8.7,1.2-20.4,1.7-35.7,1.7
	c-20.2,0-43.4-1-63.9-1.9c-16.4-0.7-30.5-1.3-40.4-1.3c-3.7,0-6.1,0.1-7.6,0.2c-2.2,8.9-1.4,35.5-0.8,53.6
	c0.3,9.7,0.6,19.7,0.7,28.7c0.2,25,1.5,45.7,2.8,67.5c1.1,17.1,2.2,34.7,2.9,56.2l0,0.2c0.2,6.3,0.7,19.5-18.8,21.8
	C218.3,435.5,210.6,436,203.5,436z"/>
<path class="st0" d="M192,141.9c20.7,1.7,72.3,3.6,87.1,4c43.5,1.2,112.9-10.7,115.9,0.3c0.2,0.6,0.7,2.7-0.3,4.5
	c-2.4,4.2-11.6,7.3-12.3,15.1c-1.1,13.1,25.2,12.7,19.2,25.9c-7.7,16.8-156.3,0.6-168.5,5.7c-9.1,3.9-4.5,54.9-4.3,91.5
	c0.3,44.6,4.1,74.7,5.8,124c0.2,6.7,0.4,10.4-10,11.7c-20,2.3-38.7,1.1-41-1.3c-3.3-3.5-0.1-4.2-3.7-7.4c-4.1-3.7-20.8,4.1-14.9-9.2
	c6.6-14.7,9.2-100.6,8.8-129.1c-0.6-39.1,5.6-97.9-4.1-117.7c-3.3-6.7,2.6-7.8,2.6-7.8c4.2-1.7,8.7,1.6,11.2,0
	C189.9,148.1,183.4,141.2,192,141.9z"/>
</svg>
