<?xml version="1.0" encoding="utf-8"?>
<!-- Generator: Adobe Illustrator 26.3.1, SVG Export Plug-In . SVG Version: 6.00 Build 0)  -->
<svg version="1.1" id="Layer_1" xmlns="http://www.w3.org/2000/svg" xmlns:xlink="http://www.w3.org/1999/xlink" x="0px" y="0px"
	 viewBox="0 0 566.9 566.9" style="enable-background:new 0 0 566.9 566.9;" xml:space="preserve">
<style type="text/css">
	.st0{fill:none;stroke:#474A9F;stroke-width:1.0006;stroke-miterlimit:10;}
</style>
<path class="st0" d="M242.5,427.4c-12.2-0.2-17.1-11.4-20.6-19.5c-0.6-1.3-1.1-2.5-1.6-3.6c-0.4-0.8-0.8-1.2-1.2-1.2
	c-0.7,0-1.7,0.7-2.4,1.7c-1.2,1.6-1.7,4.3-2.3,7.1c-1.4,6.6-3.3,15.6-15.5,15.6h-0.1c-5,0-8.9-1.6-11.7-4.6c-3.5-3.8-3.9-8.6-3.8-10
	c8.8-104.6,5.9-162.4-3.8-252.5c-0.4-3.9,0.5-7.2,2.9-9.9c7.3-8.3,27.4-8.8,50.7-9.4c6.5-0.2,13.1-0.3,19.8-0.6
	c2.8-0.1,7.4-0.4,13.1-0.4c26.7,0,63.8,4.9,89,28.2c0.8,0.7,1.3,1.3,1.5,1.4c9.6,9.3,31.2,34.8,25.2,70.1
	c-3.3,19.3-14.5,36.1-32.3,48.5c-17,11.8-39.4,18.8-62.9,19.7c-1.2,0-2.5,0.1-3.7,0.1c-16,0-27.6-4-33.9-6.1c-1.1-0.4-2.3-0.8-3.2-1
	c-2.7,26.5,2.4,53.8,6.5,75.7c4.2,22.6,7.3,39,1,46.6c-2.3,2.8-5.7,4.1-10.1,4.2L242.5,427.4z"/>
<path class="st0" d="M243.7,299.2c-7.1,61.8,28.7,126.8-1.2,126.3c-12.7-0.2-16.6-14-20.5-22c-1.9-3.9-5.4-2.2-7,0.1
	c-4.5,6.3-0.8,21.9-16.3,21.8c-12.4-0.1-13.7-10.7-13.5-12.5c8.8-105.2,5.8-164-3.9-252.9c-2.1-19.2,34.2-15.8,71.6-17.7
	c13.9-0.7,67.6-3.3,100.6,27.4c0.8,0.7,1.3,1.3,1.4,1.4c6.8,6.6,30.8,32.2,24.6,68.4c-6.7,38.9-46.2,64.8-93.4,66.6
	C259.4,307,244,296.4,243.7,299.2z"/>
<g>
	<path class="st0" d="M280.2,261c-2,0-5,0-7,0c-8-2-15-3-23-4c-4-21-2-41-6-62c3-4,7-6,12-6c11,0,22-1,33,1c15,2,27,10,34,23
		c5,10,4,21-1,30C313.2,257,296.2,263,280.2,261L280.2,261z"/>
</g>
<g>
	<path class="st0" d="M251.2,255c-1-12-2-24-2-36c-1-8-3-15-2-23c0-4,6-4,10-5c14-1,29-1,43,4c8,4,17,10,20,19c0,1,2,1,2,2
		c6,15-2,32-16,39C288.2,263,269.2,258,251.2,255L251.2,255z"/>
</g>
</svg>
