<?xml version="1.0" encoding="utf-8"?>
<!-- Generator: Adobe Illustrator 26.3.1, SVG Export Plug-In . SVG Version: 6.00 Build 0)  -->
<svg version="1.1" id="Layer_1" xmlns="http://www.w3.org/2000/svg" xmlns:xlink="http://www.w3.org/1999/xlink" x="0px" y="0px"
	 viewBox="0 0 566.9 566.9" style="enable-background:new 0 0 566.9 566.9;" xml:space="preserve">
<style type="text/css">
	.st0{fill:none;stroke:#EAE613;stroke-miterlimit:10;}
</style>
<path class="st0" d="M285.4,427c-30.8,0-61.1-13.4-85.3-37.6c-28.9-28.9-44.8-68.7-44.7-112.1c0.1-50.8,23-82.8,42.3-100.7
	c24.4-22.8,57.1-35.8,89.5-35.8c1.8,0,3.6,0,5.4,0.1c82.3,3.8,119,76.4,118.8,146.8c-0.1,31.2-13,65.8-34.6,92.5
	C352.3,410.4,319.8,427,285.4,427z"/>
<path class="st0" d="M292.4,142.9c-63.5-2.9-135,46.7-135.1,134.4C157.2,362.7,220.2,425,285.4,425c74.3,0,123.7-77.1,123.9-137.3
	C409.5,220.4,375,146.7,292.4,142.9z"/>
<path class="st0" d="M283.3,371.8c-24.1,0-42.5-8.3-54.8-24.7c-11.6-15.5-17.5-38-17.5-66.9c0-54,25.7-83.7,72.4-83.7
	c21.8,0,38.9,6.1,51,18.3c14.3,14.3,21.5,36.9,21.4,67.3c-0.1,26.3-5.9,48.3-16.9,63.6C326.3,363,307.7,371.8,283.3,371.8z"/>
<path class="st0" d="M283.3,198.5c-45,0-70.4,28.6-70.4,81.7c0,55.7,22.2,89.7,70.4,89.7c50.1,0,70.3-38.5,70.4-87.9
	C353.9,226.8,329.8,198.5,283.3,198.5z"/>
</svg>
