<?xml version="1.0" encoding="utf-8"?>
<!-- Generator: Adobe Illustrator 26.3.1, SVG Export Plug-In . SVG Version: 6.00 Build 0)  -->
<svg version="1.1" id="Layer_1" xmlns="http://www.w3.org/2000/svg" xmlns:xlink="http://www.w3.org/1999/xlink" x="0px" y="0px"
	 viewBox="0 0 566.9 566.9" style="enable-background:new 0 0 566.9 566.9;" xml:space="preserve">
<style type="text/css">
	.st0{fill:none;stroke:#60BB46;stroke-width:1.0006;stroke-miterlimit:10;}
</style>
<path class="st0" d="M395.6,435.6c-5.3,0-12.4-1.2-16.6-4.5c-1.5-1.2-2.8-2.7-3.8-4.3c-3.6,5.3-9.6,7.9-17.8,7.9
	c-9.8,0-15.4-4.1-18.3-7.5c-4.1-4.8-5.9-11.3-4.9-18.4c5.8-40.7,3.2-127.4,1.6-179.2c-0.3-11.4-0.6-21-0.8-27.9c0,0-0.1,0-0.1,0
	c-5.2,0-12.6,0.8-20.4,1.7c-8.7,1-17.7,2-25.3,2l-0.2,0c-8.8,0-20.1-0.9-30.9-1.8c-9.7-0.8-18.9-1.6-25.3-1.6c-0.1,0-0.3,0-0.4,0
	c-4,51.3-0.4,107.7,2.2,149.5c1.3,20.3,2.4,37.8,2.4,50.7c0,17.1-1.5,27.1-9.8,30.8c-4,1.8-9,2.1-11.6,2.1c-4.8,0-11.5-0.8-15.8-4.7
	c-1.7-1.5-2.8-3.2-3.6-4.9c-3.2,5-8.8,9.3-18.6,9.3l-0.2,0c-9.2-0.1-14.7-4.1-17.7-7.5c-4.4-5-6-11.7-5.6-15.8
	c8.7-104.3,5.9-161.7-3.9-250.9c-0.6-5.7,1-10.9,4.6-15.1c10.2-11.7,33.6-12.2,63.2-12.9c7-0.2,14.3-0.3,21.1-0.7
	c5.1-0.3,14.3-0.4,28.2-0.4c21.3,0,52.1,0.3,90,0.7c30.8,0.3,47,4,54.1,12.3c3.2,3.7,4.6,8.3,3.9,13.1c-9.2,67.3-3.3,204,1,259.7
	c0.4,4.6-1.1,9-4.1,12.2C408.6,433.5,402.8,435.6,395.6,435.6z"/>
<path class="st0" d="M223.2,194.4c-9.3,102.2,12.4,224,0,229.6c-4,1.8-13.8,1.7-16.7-1c-3.8-3.4-1.3-11.6-5.7-20
	c-0.3-0.6-1-1.9-2.3-2.2c-1.7-0.5-3.6,0.8-4.7,2.3c-4.5,6.3-0.8,21.9-16.3,21.8c-12.4-0.1-13.7-10.7-13.5-12.5
	c8.8-105.2,5.8-164-3.9-252.9c-2.1-19.2,42.2-15.8,79.6-17.7c13.9-0.7,58.3-0.3,117.7,0.3c28.3,0.3,49.8,3.7,48.3,14.1
	c-10,72.9-2.5,217,0.9,261.8c0.8,10.4-17.8,8.2-21.4,5.3c-4.3-3.4-4.8-15.4-6.7-19.9c-2.5-6.2-7.1-2.8-8.2,0
	c-3.6,9,2.9,21.4-12.9,21.4c-11.3,0-14.3-7.5-13.3-14.6c7.7-54,0.9-186.9,0.9-214.6c0-8.5-35.2-0.1-55.7,0
	C266.3,195.6,223.7,188.7,223.2,194.4z"/>
</svg>
