<?xml version="1.0" encoding="utf-8"?>
<!-- Generator: Adobe Illustrator 26.3.1, SVG Export Plug-In . SVG Version: 6.00 Build 0)  -->
<svg version="1.1" id="Layer_1" xmlns="http://www.w3.org/2000/svg" xmlns:xlink="http://www.w3.org/1999/xlink" x="0px" y="0px"
	 viewBox="0 0 566.9 566.9" style="enable-background:new 0 0 566.9 566.9;" xml:space="preserve">
<style type="text/css">
	.st0{fill:none;stroke:#273F99;stroke-miterlimit:10;}
</style>
<path class="st0" d="M365.6,427.4c-16.4,0-34.4-0.5-58.1-1.2c-0.6,0-1.4-0.2-2.2-1c-4.2-4.5-3.6-34.2-2.4-58.3
	c0.2-3.2,2.4-6,5.5-6.8c36.8-10.5,42.2-38.7,46.9-63.6c0.2-1.1,0.4-2.3,0.6-3.4c3.1-18,3.4-69.2-31.8-89.8c-2.2-1.3-14-7.6-34.3-7.6
	c-8.5,0-17.4,1.1-26.6,3.3c-27.7,6.6-41.7,40.9-42.8,63.3c-4.1,81.3,32,95.9,43.1,98.4c2.5,0.6,4.3,2.7,4.4,5.3
	c0.2,6,0.4,20.4,0.4,33.2c0,25.1-0.8,25.8-1.5,26.6l-0.6,0.6l-0.9,0c-1.9,0-5.6,0-11.6,0c-6.7,0-15.4,0-25,0
	c-11.9,0-25.2-0.1-37.7-0.1c-5.3,0-10.4,0-15.3,0c0,0,0,0,0,0c-1.8,0-7,0-11.2-4.5c-7.6-8.1-5-17-1.4-21c1.9-2.1,3.8-3.6,5.3-4.8
	c2.5-1.9,3.3-2.7,3.3-4.2c0-2.5-0.7-2.8-2.7-3.8c-2.4-1.1-5.7-2.7-7.8-8.5c-1.8-4.8-2.5-11.9,1.5-16.1c2.5-2.7,6.9-4.1,13-4.1
	c3.3,0,6.5,0.4,9,0.8c-5.9-9.7-20.1-35.4-23.5-63.7c-8.1-67.1,22-100.9,33.3-113.6c37.2-41.8,89-43,94.7-43c1.2,0,2.3,0,3,0.1
	c1.5,0.1,3.2,0.3,4.9,0.4c21.2,1.6,56.6,4.4,90.1,51.9c2.6,3.6,24.9,36.9,24.9,92.4c0,33.7-14.3,60.3-23,75.5
	c1.7-0.2,3.7-0.4,5.8-0.4c4.2,0,8,0.7,11.1,2.2c3.8,1.8,6.1,5.6,6.5,10.6c0.4,5.9-2.3,11.7-6.7,14.6c-4.4,2.8-5.1,4.1-5.1,6.2
	c0,1,0.8,1.7,3,3.4c1.7,1.3,3.9,2.9,6,5.6c3.2,4,3.8,10.1,1.5,15.3c-2.5,5.5-7.6,8.9-14.1,9.2C386.9,427.2,376.9,427.4,365.6,427.4
	C365.6,427.4,365.6,427.4,365.6,427.4z"/>
<path class="st0" d="M307.6,424.2c39.3,1.2,63,1.8,89.3,0.5c13.4-0.7,16.5-14.8,11.2-21.3c-4.6-5.6-9.4-6.4-9.4-10.2
	c0-3.3,1.6-5,6-7.9c7.4-4.8,8.1-18.1,0.5-21.7c-8.6-4.1-19.9-0.8-19.9-0.8c8.2-14.5,24.9-42.2,24.9-78.3c0-55.5-22.5-88.3-24.6-91.3
	c-35.8-50.7-74.2-49.6-93.6-51.5c-6-0.6-58.6,0-96.1,42.2c-13.3,14.9-40.5,48-32.8,112.1c4.2,35,25.7,66.8,25.7,66.8
	s-18.6-4.9-24.8,1.8c-3.6,3.8-2.4,10.6-1.1,14.1c3.7,10,10.6,5.4,10.7,13c0.1,4.3-4.5,5.1-9.2,10.3c-2.8,3.1-5.6,10.9,1.4,18.3
	c3.3,3.5,7.2,3.9,9.8,3.9c33.2-0.1,80.8,0.2,89.6,0c1.4,0,1-46.2,0.7-58.5c-0.1-1.7-1.2-3-2.8-3.4c-10.6-2.4-48.9-16.7-44.7-100.4
	c1.2-23.2,15.4-58.2,44.4-65.1c37.2-8.8,58.7,2.4,62.3,4.5c35.7,20.9,36.1,72.3,32.7,91.9c-4.8,25.2-9.1,57.2-48.9,68.6
	c-2.3,0.7-3.9,2.7-4,5C304.3,380.5,302.5,424,307.6,424.2z"/>
</svg>
