<?xml version="1.0" encoding="utf-8"?>
<!-- Generator: Adobe Illustrator 26.3.1, SVG Export Plug-In . SVG Version: 6.00 Build 0)  -->
<svg version="1.1" id="Layer_1" xmlns="http://www.w3.org/2000/svg" xmlns:xlink="http://www.w3.org/1999/xlink" x="0px" y="0px"
	 viewBox="0 0 566.9 566.9" style="enable-background:new 0 0 566.9 566.9;" xml:space="preserve">
<style type="text/css">
	.st0{fill:none;stroke:#4B1D5B;stroke-width:0.9921;stroke-miterlimit:10;}
</style>
<path class="st0" d="M212,435.9c-4.7,0-11.7-1.8-17.9-10.5c-5.6-7.7-6.9-14.2-6.9-19.1c-2.5,0.6-5.6,1.1-9.3,1.1l-1.7,0
	c-7.2-0.3-16.4-5.2-20.3-14.1c-2-4.7-3.9-14.1,5.5-24.8c15.4-17.5,56.1-58.6,79-81.5c1.1-1.1,1.1-2.7,0.1-3.9
	c-30.7-33.4-51.4-55.3-57-60.1c-23.4-20.3-32.4-36.7-27.4-50c3.8-10.4,14.4-14,22.3-14c1.3,0,2.5,0.1,3.6,0.3c3.3,0.5,6,1.2,8.2,1.9
	c-0.1-1.7-0.2-3.8-0.4-5.9c-0.4-5.7,2-12,6.4-16.8c4.3-4.6,9.9-7.1,15.7-7.1c6.1,0,15,2.7,23.3,15.7c16.8,26.3,38.9,61.4,50.9,80.5
	c12.7-21.1,36.7-59.9,57.9-88.6c3.4-4.6,8.9-7.3,14.9-7.3c7.2,0,14.3,3.6,19.2,9.7c6.3,8,4.7,15.9,3,21c2.2-0.6,4.7-1.4,6.5-2
	c2.2-0.7,4.5-1.1,6.9-1.1c8.9,0,16.8,4.9,20.2,12.4c3.2,7,3.8,18.8-10.9,35.4c-16.2,18.3-51.7,55.6-71.4,76.2c-1.1,1.1-1,2.9,0.1,4
	c11.4,11.3,36.2,36.1,74.5,75.3c12.5,12.7,11,23.5,9,28.8c-3.4,9.2-12.5,14.1-19.5,14.7c-1.8,0.1-3.4,0.2-4.9,0.2
	c-3.3,0-6-0.3-8.2-0.7c0,2.1-0.1,4.5-0.6,7.3c-1.9,11.2-11.2,22.9-23.4,22.9c-5.3,0-13.2-2.2-20.5-12.7
	c-11.7-16.8-38.9-59.4-52.4-80.6c-14.2,21.9-40.5,62.2-54.4,81.1C226.4,431.6,219.4,435.9,212,435.9z"/>
<path class="st0" d="M284.7,243.8c0.8,1.3,2.6,1.2,3.4-0.1c7.4-12.5,38.1-63.8,64-98.8c4-5.4,13.1-3.9,18.3,2.7
	c7.7,9.7-6.5,18.2,2.6,24.6c3.2,2.2,8.3,0.8,17.8-2.2c10.2-3.3,27,6.8,5.8,30.7c-16.7,18.9-54.2,58.2-71.2,76
	c-4.8,5-4.7,13,0.3,17.9c12.1,12,36.6,36.5,74.4,75.2c15.5,15.8,3.5,26-4.2,26.7c-14.3,1.2-17.5-4.3-21.3-0.4
	c-3.3,3.4,0.4,5.3-1.4,15.4c-1.8,10.3-13.8,23.7-26,6.2c-13.8-19.9-50.6-77.7-58.8-90.7c-0.8-1.2-2.6-1.3-3.3,0
	c-8.1,12.6-43.8,67.8-60.8,91.1c-3,4.1-12.5,15.2-22.2,1.8c-10.1-13.9-0.9-20.2-5.3-24.4c-4.8-4.7-6.2,2.8-20.2,2.3
	c-6.5-0.2-19.2-9.3-7.7-22.3c15.9-18,59.9-62.3,78.6-81.1c4.8-4.8,5-12.5,0.4-17.6c-15.8-17.2-49.5-53.7-57.8-60.9
	c-43.2-37.3-20.3-48.1-9.5-46.5c9.4,1.4,13.4,5.2,16.3,2.5c3.8-3.5,3.7-5.2,2.9-17c-0.6-8.6,13.3-23.8,27.2-2.2
	C247.9,185.3,277.3,232,284.7,243.8z"/>
</svg>
