<?xml version="1.0" encoding="utf-8"?>
<!-- Generator: Adobe Illustrator 26.3.1, SVG Export Plug-In . SVG Version: 6.00 Build 0)  -->
<svg version="1.1" id="Layer_1" xmlns="http://www.w3.org/2000/svg" xmlns:xlink="http://www.w3.org/1999/xlink" x="0px" y="0px"
	 viewBox="0 0 566.9 566.9" style="enable-background:new 0 0 566.9 566.9;" xml:space="preserve">
<style type="text/css">
	.st0{fill:none;stroke:#DC1F26;stroke-miterlimit:10;}
</style>
<path class="st0" d="M249.4,426.2c-48.2,0-75.9-1.8-84.9-5.6c-11.6-4.9-8.2-19.8-6.6-27c1.8-7.9,9.3-20.9,13.3-27.8
	c1-1.7,1.7-3,2.1-3.7c25.9-50.7,32.6-68.2,38-82.3c1.9-4.9,3.6-9.5,6-14.8c14.5-33.1,20.5-77.4,23.8-101.2
	c0.9-6.3,1.6-11.3,2.2-14.5c1.3-6.6,4.9-10.3,10.3-10.6c0.1,0,0.2,0,0.3,0c3.8,0,6.8,3.2,9.8,6.2c2.7,2.7,5.4,5.5,8.1,5.5h0.1
	c8.7-0.3,10.4-3.2,12-6c1.4-2.4,3.2-5.5,8.7-5.5h0.2c5,0,7,4,8.4,7c1.5,3.1,2.3,4.4,4.4,4.4c0.2,0,0.3,0,0.5,0
	c3.9-0.4,6.8-2.9,9.9-5.6c3.3-2.8,6.7-5.8,11.2-5.8h0.1c6.5,0,11.1,5.9,12.2,15.8c1.1,9.1,2.1,20.1,3,32.8
	c1.6,22.6,4,35.6,14.3,86.3c3,14.9,18.9,54.8,42.4,99.5c1.1,2.2,2.5,4.5,4,7c4.4,7.4,9.3,15.7,9.2,22.3c0,0.2,0,0.7,0.1,1.2
	c0.2,3,0.7,9.4-3.5,14c-3.1,3.4-8.1,5.1-14.9,5.2c-2.3,0-8.7,0.2-17.4,0.5C348.2,424.5,295.8,426.2,249.4,426.2z"/>
<path class="st0" d="M165.3,418.8c-9.3-3.9-7.6-15.2-5.4-24.7c2.2-9.6,13.4-27.6,15.1-31c35-68.7,35.1-76.7,44-97.2
	c18.4-42.1,23.2-101.2,26.1-116.1c0.9-4.6,3.2-8.7,8.4-9c6.2-0.3,11.3,12,18.3,11.7c17.4-0.6,10.4-11.6,20.8-11.5
	c7.7,0.1,5.6,12.1,13.4,11.3c9-0.9,13.2-11.3,21-11.4c9-0.1,10.2,13.2,10.3,14.2c1.3,11.5,2.3,24,3,32.6
	c1.6,22.6,3.9,35.3,14.3,86.6c3.3,16.4,20.7,58.3,42.6,100c4.5,8.6,13.1,20.2,12.9,28.3c-0.1,3,3.5,18.3-16.4,18.5
	C378.2,421.2,190.6,429.4,165.3,418.8z"/>
<path class="st0" d="M242.6,374.9c-1.8,0-4.1-0.2-5.1-2c-1.1-2,0.1-4.5,1.4-6.9c0.3-0.6,2-4.8,3.4-8.2c1.5-3.5,2.9-6.9,3.2-7.6
	c10.4-23.4,19-54.9,24.1-73.7c1.1-4.2,2.1-7.8,2.9-10.6c0.6-2.1,1.2-4.3,1.9-6.5c4.7-16.5,9.6-33.5,13.1-40.6
	c0.7-1.4,2.1-2.2,3.6-2.2c1.6,0,3,0.9,3.6,2.3c2.6,5.8,6.4,18.4,10.1,30.6c2.1,7.1,4.3,14.4,6.2,20.2c1.6,5,4,12.3,6.4,20.1
	c5.1,16.2,11.5,36.3,14.7,44.3c1,2.6,2.1,5.3,3.2,8.3c2.5,6.7,5.1,13.6,7.5,18.3c0.7,1.3,1.3,2.4,1.8,3.4c2,3.7,3.3,6,2.1,8
	c-1,1.8-3.4,2-5.7,2c0,0-1.8,0-2.8,0c-16.3,0-51.4,0.4-74.6,0.7C252.9,374.8,245.1,374.9,242.6,374.9L242.6,374.9z"/>
<path class="st0" d="M242.7,372.9c-4.5,0-4.4-1.6-1.9-6c0.2-0.4,6-14.4,6.7-15.9c12.7-28.6,22.6-68.8,27.1-84.6
	c5.1-17.6,10.9-38.9,14.9-46.8c0.8-1.5,2.9-1.5,3.6,0.1c4.1,9,11.1,34.9,16.2,50.6c5.1,15.4,16.5,52.6,21.2,64.5
	c3.3,8.4,7.2,19.9,10.8,26.7c4,7.8,6.9,10.5-0.2,10.5C319.8,371.9,250.4,372.9,242.7,372.9z"/>
</svg>
