<?xml version="1.0" encoding="utf-8"?>
<!-- Generator: Adobe Illustrator 26.3.1, SVG Export Plug-In . SVG Version: 6.00 Build 0)  -->
<svg version="1.1" id="Layer_1" xmlns="http://www.w3.org/2000/svg" xmlns:xlink="http://www.w3.org/1999/xlink" x="0px" y="0px"
	 viewBox="0 0 566.9 566.9" style="enable-background:new 0 0 566.9 566.9;" xml:space="preserve">
<style type="text/css">
	.st0{fill:none;stroke:#ED4B9A;stroke-miterlimit:10;}
</style>
<path class="st0" d="M263.1,427.3c-4.4,0-8.5-1.6-11.4-4.3c-6.6-6.2-3.3-31.5,2.4-69.6c2.4-15.9,4.6-30.9,4.9-40.3
	c0.2-7.4,0.5-14.2,0.8-20.8c0.6-15.6,1.1-27.9,0.6-38.6c-0.3-6.3-2.3-23-4.5-40.7c-6.5-52.6-7.6-66-5.6-68.5c2.6-3.3,6.8-4,9.8-4
	c2,0,4,0.3,5.7,0.8c3.4,1.1,6.3,3.1,9.2,5.1c3.7,2.5,7.1,4.9,10.9,4.9l0.4,0c5.5,0,7.8-2.1,10.7-4.7c1.8-1.6,3.8-3.4,6.7-4.7
	c2.7-1.2,5.3-1.9,7.6-1.9c3.1,0,5.7,1.1,7.5,3.3c2.9,3.5,3.6,9.5,2,17.8c-17.5,93.2-6.9,173.3-1.2,216.3c1.5,11.3,2.7,20.3,2.9,26
	c0.2,6.2-0.1,14-4.8,18.8c-2.7,2.8-6.5,4.2-11.2,4.2c-0.2,0-0.5,0-0.7,0c-12.5-0.3-15.6-10.4-17.6-17.1c-1-3.2-1.9-6.3-3.3-6.4
	c-1.1,0.5-3,5-4.2,7.9c-1.8,4.2-3.8,9-6.5,11.8C271.8,425.6,267.6,427.3,263.1,427.3C263.1,427.3,263.1,427.3,263.1,427.3z"/>
<path class="st0" d="M261,313.2c-0.8,27.2-17.6,99.3-7.9,108.4c5.5,5.2,15.3,4.7,19.8,0c5.2-5.5,8.1-20.3,12-20.3
	c7.4,0,2.8,23,21,23.5c14.1,0.4,15-11.9,14.7-20.9c-0.9-27-23.8-124.5-1.6-242.8c3.6-19.2-5.8-21-14.4-17.1
	c-7.1,3.2-8.4,9.7-18.7,9.5c-7.6-0.1-13.4-7.8-20.7-10.1c-3.2-1-10.1-1.6-13.4,2.5c-3.1,3.8,9.8,90.9,10.6,107.8
	C263.1,268.9,261.8,287.9,261,313.2z"/>
</svg>
