<?xml version="1.0" encoding="utf-8"?>
<!-- Generator: Adobe Illustrator 26.3.1, SVG Export Plug-In . SVG Version: 6.00 Build 0)  -->
<svg version="1.1" id="Layer_1" xmlns="http://www.w3.org/2000/svg" xmlns:xlink="http://www.w3.org/1999/xlink" x="0px" y="0px"
	 viewBox="0 0 566.9 566.9" style="enable-background:new 0 0 566.9 566.9;" xml:space="preserve">
<style type="text/css">
	.st0{fill:none;stroke:#010101;stroke-miterlimit:10;}
</style>
<path class="st0" d="M382.4,427.4c-0.3,0-0.7,0-1.1,0c-15.8-0.7-29.7-1.1-45.8-1.5c-14.9-0.4-31.8-0.8-53.8-1.6
	c-13.4-0.5-29.8-0.8-43.7-0.8c-13.5,0-23.8,0.3-29.9,0.8c-0.8,0.1-3.1,0.4-5.7,0.7c-5.9,0.8-14,1.9-17,1.9c-1.6,0-3.9-0.2-5.4-1.7
	c-1.5-1.6-1.4-3.6-1.2-5.8c0-0.3,0-0.6,0-1c0-0.7,0-1-0.1-1.1c0,0,0,0-0.1,0c-2.6-0.3-4.3-0.9-7.3-2.5c-2-1-3.5-2.9-4.1-3.6
	c-1.1-1.5-2.1-3-2.2-7.4c-0.2-6.2,3.7-12.6,6.5-17.3c0.5-0.8,1-1.6,1.4-2.3c2-3.4,3.5-7.1,4.7-11c5.5-19.1,16.9-70,18.6-101.1
	c0.3-5.4,0.8-12,1.4-19.7c2.3-29.7,5.5-70.4-1-86.1c0-0.1-2.7-7.1-2.5-10.5c0.1-2.9,2.6-6.4,9.3-6.4c0.9,0,1.8,0.1,2.8,0.2
	c0.4,0,0.8,0.1,1.2,0.1c3,0,4.6-1.6,5-4.9c0.2-1.8,1.4-4.9,6.9-4.9c0.9,0,1.8,0.1,2.5,0.1c0.2,0,0.4,0,0.6,0.1
	c2.1,0.1,6.8,1,10.9,1.7c2.6,0.5,5.1,0.9,6.2,1c7.2,0.9,17.5,1.4,30.6,1.4c8.9,0,19.2-0.2,30.5-0.7c16.8-0.6,29.3-1.7,39.4-2.6
	c6.4-0.5,11.9-1,16.6-1.2c0.2,0,0.3,0,0.5,0c2.9,0,5.3,1.1,6.8,3c1.4,1.8,1.8,4.1,1.2,6.4c-0.8,3.2-3.9,6.1-7.2,9.3
	c-1.5,1.4-3.1,2.9-4.3,4.4c-1.5,1.7-1.3,4.8,0.4,6.9c1.4,1.7,3,2.6,5,3.6c2.4,1.3,5.4,2.8,8.6,6.3l0.3,0.3c1.6,1.7,5.8,6.1,4,11.1
	c-2,5.8-8.4,8.9-13.5,8.9c-0.4,0-0.7,0-1.1-0.1c-2.1-0.2-5-0.5-8.3-0.9c-11.8-1.4-29.7-3.5-44.9-3.5h-0.7c-15.4,0-34.8,2.3-41.4,3.1
	c3,20.7-0.5,40.7-2.1,47.2c2.8,0.2,5.9,0.3,9.1,0.3c11.6,0,23-1.4,30.5-3.6c6.3-1.9,10.7-2.8,14.4-2.8c2.7,0,5.2,0.4,7.9,1.3
	c3.5,1.2,5.5,4.2,5.4,8.2c-0.2,4.6-3.1,7.8-5.7,10.7c-0.6,0.7-1.2,1.4-1.8,2.1c-1.5,1.7-2.5,6.2-0.8,9.2c1.6,2.8,3.9,5.2,5.9,7.3
	c2.1,2.2,3.7,3.9,4.1,5.5c0.7,2.9-0.2,8.1-2.3,10.6c-1.5,1.6-4.2,2.4-8.8,2.4c-3.1,0-7.1-0.3-12.1-1c-9.1-1.3-27.3-3.1-37.4-3.1
	c-1.1,0-2,0-2.8,0.1c-4.4,0.2-11.6,2.2-11.8,6.5c-0.1,2.1,0.2,4.2,0.6,7c0.7,4.5,1.6,10.7,1,20.5c-0.7,12.4-1.9,23.7-3.1,30.2
	c-0.1,0.5,0.1,0.8,0.3,1c0.2,0.3,0.6,0.4,0.9,0.4c0.1,0,0.1,0,0.2,0c5.4-0.8,14.8-1.8,28.6-1.8c1.7,0,3.5,0,5.4,0
	c2.5,0,5.6,0.1,9.1,0.1c19,0.3,50.9,0.7,83.3,2.4c10.4,0.5,18.8,6.5,18.6,13.2c-0.1,4.5-2.6,7.9-9.4,12.9c-0.9,0.6-2.5,3.3,0.2,7.7
	c2.5,4.2,5.1,7.3,7.2,9.8c3.1,3.7,5.3,6.3,5,9.8C401,419.8,393,427.4,382.4,427.4z"/>
<path class="st0" d="M214.4,145.3c0.5-4.1,5.9-3.1,7.9-3c3.4,0.2,13.9,2.3,17,2.7c10.3,1.3,29.1,2,61.4,0.7
	c27.7-1.1,44.1-3.3,56-3.8c4.7-0.2,7.4,3.1,6.5,7c-1,4-7.3,8.4-11.1,12.9c-2.2,2.6-1.8,6.7,0.4,9.5c3.5,4.4,8.1,3.9,13.8,10.1
	c1.1,1.2,5.3,5.2,3.9,9.4c-1.8,5.4-8.5,7.9-12.5,7.5c-9.6-0.9-33.7-4.4-53.4-4.5c-16.4-0.1-37.8,2.6-43.1,3.2
	c-0.7,0.1-1.2,0.7-1.1,1.4c3.4,21.8-0.9,43.7-2.3,48.5c-0.2,0.5,0.2,1,0.8,1c11.4,1,29.8,0.3,41.7-3.3c9.6-2.9,15-3.5,21.1-1.5
	c2.7,0.9,4.1,3.1,4,6.3c-0.2,4.9-4.2,8-7.1,11.5c-1.9,2.3-3.2,7.6-1,11.4c3.2,5.6,9.2,9.9,9.8,12.4c0.6,2.4-0.2,6.9-1.9,8.8
	c-1.5,1.6-6,2.5-19.2,0.7c-10-1.4-31.4-3.5-40.6-3.1c-4.3,0.2-13.4,2.2-13.7,8.3c-0.3,6,2.5,12,1.6,27.5c-0.8,13.7-2,24.3-3.1,29.9
	c-0.4,2.2,1.4,4.1,3.6,3.8c5.7-0.9,16.8-2,33.7-1.7c15.5,0.3,53.9,0.5,92.3,2.6c8.9,0.5,16.9,5.4,16.7,11.1
	c-0.1,3.2-1.5,6.1-8.6,11.4c-1.5,1.1-3.6,4.8-0.3,10.4c6.1,10.1,12.3,13.7,11.9,18.3c-0.4,5.9-7.8,13.2-18.1,12.7
	c-30.3-1.4-53.8-1.4-99.7-3.1c-22.5-0.8-58.8-1.3-73.8,0c-2.6,0.2-18.3,2.6-22.6,2.6c-5.4,0-4.7-2.6-4.5-6.4c0.1-1.5-0.1-3-1.9-3.2
	c-2.4-0.2-3.9-0.9-6.6-2.3c-1.3-0.7-2.6-1.9-3.4-3.1c-0.9-1.1-1.7-2.3-1.8-6.2c-0.2-6.6,5-13.9,7.7-18.5c2.1-3.6,3.7-7.4,4.8-11.4
	c6-20.9,17-71.3,18.7-101.6c1.5-27,8.6-86.5,0.3-106.6c-0.3-0.7-2.5-7-2.4-9.6c0.1-2.8,3.1-5.1,9.8-4.3
	C210.3,152.4,213.7,150.6,214.4,145.3z"/>
</svg>
