<?xml version="1.0" encoding="utf-8"?>
<!-- Generator: Adobe Illustrator 26.3.1, SVG Export Plug-In . SVG Version: 6.00 Build 0)  -->
<svg version="1.1" id="Layer_1" xmlns="http://www.w3.org/2000/svg" xmlns:xlink="http://www.w3.org/1999/xlink" x="0px" y="0px"
	 viewBox="0 0 566.9 566.9" style="enable-background:new 0 0 566.9 566.9;" xml:space="preserve">
<style type="text/css">
	.st0{fill:none;stroke:#ED4B9A;stroke-miterlimit:10;}
</style>
<path class="st0" d="M262.3,435.2c-6.5,0-12.4-2.3-16.8-6.4c-9.1-8.6-7.2-28.9,0-76.5c2.3-15.7,4.6-30.4,4.8-39.4
	c0.2-7.5,0.5-14.3,0.8-20.8c0.6-15.4,1.1-27.5,0.6-37.9c-0.3-6-2.3-22.5-4.5-40.1c-8.2-66.7-7.7-69.7-3.9-74.4
	c3.6-4.4,9.2-6.9,16-6.9c2.8,0,5.6,0.4,8.1,1.2c4.5,1.4,8.1,3.9,11.3,6.1c2.4,1.7,5.2,3.5,6.5,3.6l0.3,0c2.5,0,3-0.5,5.5-2.7
	c2-1.8,4.7-4.2,8.7-5.9c3.7-1.7,7.4-2.6,10.9-2.6c5.5,0,10.3,2.2,13.6,6.2c4.5,5.5,5.8,13.4,3.7,24.4
	c-17.3,91.9-6.8,171.2-1.2,213.8c1.6,12,2.7,20.7,2.9,26.8c0.3,7.8-0.3,17.6-7,24.6c-2.9,3-8.2,6.6-16.9,6.6c-0.3,0-0.6,0-0.9,0
	c-11.6-0.3-17.6-6.5-21-12.8c-1.3,2.4-2.7,4.6-4.5,6.5C275.1,432.7,268.9,435.2,262.3,435.2C262.3,435.2,262.3,435.2,262.3,435.2z"
	/>
<path class="st0" d="M260.2,313.2c-0.8,27.2-17.6,99.3-7.9,108.4c5.5,5.2,15.3,4.7,19.8,0c5.2-5.5,8.1-20.3,12-20.3
	c7.4,0,2.8,23,21,23.5c14.1,0.4,15-11.9,14.7-20.9c-0.9-27-23.8-124.5-1.6-242.8c3.6-19.2-5.8-21-14.4-17.1
	c-7.1,3.2-8.4,9.7-18.7,9.5c-7.6-0.1-13.4-7.8-20.7-10.1c-3.2-1-10.1-1.6-13.4,2.5c-3.1,3.8,9.8,90.9,10.6,107.8
	C262.3,268.9,261,287.9,260.2,313.2z"/>
</svg>
