<?xml version="1.0" encoding="utf-8"?>
<!-- Generator: Adobe Illustrator 26.3.1, SVG Export Plug-In . SVG Version: 6.00 Build 0)  -->
<svg version="1.1" id="Layer_1" xmlns="http://www.w3.org/2000/svg" xmlns:xlink="http://www.w3.org/1999/xlink" x="0px" y="0px"
	 viewBox="0 0 566.9 566.9" style="enable-background:new 0 0 566.9 566.9;" xml:space="preserve">
<style type="text/css">
	.st0{fill:none;stroke:#010101;stroke-miterlimit:10;}
</style>
<path class="st0" d="M382.3,435.3c-0.5,0-0.9,0-1.4,0c-15.7-0.7-29.6-1.1-45.7-1.5c-14.9-0.4-31.8-0.8-53.9-1.6
	c-13.3-0.5-29.5-0.8-43.3-0.8c-13.2,0-23.4,0.3-29.2,0.8c-0.6,0.1-3.2,0.4-5.3,0.7c-8.2,1.1-14.8,2-18.1,2c-1.8,0-7.2,0-11.2-4.2
	c-2.2-2.3-3-4.9-3.3-7.2c-1.1-0.5-2.1-1-3.1-1.5c-3.3-1.7-5.7-4.4-6.8-5.9c-2.1-2.8-3.6-5.9-3.9-11.9c-0.3-8.6,4.5-16.5,7.7-21.8
	c0.5-0.8,0.9-1.5,1.3-2.1c1.6-2.8,3-5.9,3.9-9.2c5.4-18.8,16.7-68.9,18.3-99.4c0.3-5.5,0.8-12.2,1.4-19.9c2-25.6,5.3-68.5-0.4-82.4
	c0-0.1-3.4-8.4-3.1-13.8c0.3-6.8,5.8-14.1,17.3-14.1c0.5,0,1,0,1.5,0c1.5-4.8,5.9-9.6,14.4-9.6c1.3,0,2.4,0.1,3.2,0.2h0.4
	c2.4,0.2,6.2,0.8,11.7,1.8c2.4,0.4,4.9,0.9,5.8,1c6.9,0.9,16.9,1.3,29.6,1.3c8.8,0,19-0.2,30.2-0.6c16.6-0.6,29-1.7,39-2.6
	c6.5-0.6,12.1-1,17-1.2c0.3,0,0.5,0,0.8,0c5.3,0,10.1,2.2,13.1,6.1c2.9,3.7,3.9,8.6,2.7,13.3c-1.4,5.4-5.5,9.3-9.5,13.1
	c-0.5,0.5-1.1,1-1.6,1.5c0.3,0.1,0.6,0.3,0.9,0.5c2.6,1.4,6.6,3.5,10.8,8l0.2,0.2c6.1,6.4,8,12.8,5.8,19.3
	c-3.2,9.4-13.1,14.3-21.1,14.3c-0.6,0-1.2,0-1.8-0.1c-2.2-0.2-5.1-0.6-8.4-0.9c-11.7-1.4-29.3-3.4-44-3.5h-0.7
	c-10.8,0-23.9,1.2-32.6,2.2c0.9,12.5-0.1,24.2-1.3,32.5c10.7,0,20.9-1.3,27.6-3.3c7.1-2.2,12.2-3.1,16.8-3.1c3.5,0,7,0.6,10.4,1.7
	c6.9,2.3,11.1,8.5,10.8,16.1c-0.3,7.6-4.8,12.5-7.8,15.8c-0.4,0.5-0.9,0.9-1.3,1.4c-0.1,0.2-0.1,0.5-0.1,0.7c1.1,1.8,3,3.8,4.6,5.5
	c2.7,2.8,5.2,5.4,6.1,9.1c1.3,5.1,0.1,13.2-4.2,17.9c-4,4.5-10,5-14.8,5c-3.5,0-7.8-0.4-13.2-1.1c-9.3-1.3-27-3-36.3-3
	c-0.9,0-1.7,0-2.4,0.1c-1.5,0.1-3.1,0.4-4.1,0.8c0.1,1,0.3,2.1,0.5,3.4c0.7,4.9,1.7,11.5,1.1,22.1c-0.5,8.2-1.2,15.9-1.9,22.2
	c5.4-0.5,12.3-0.8,20.8-0.8c1.8,0,3.6,0,5.5,0c2.5,0,5.5,0.1,9,0.1c19.1,0.3,51.1,0.7,83.6,2.4c15,0.8,26.5,10.2,26.2,21.4
	c-0.2,7.2-4,12.2-9.9,17c2.1,3.3,4.2,5.8,6,8c3.4,4.1,7.4,8.8,6.9,15.5C408.6,423.9,397.6,435.3,382.3,435.3z"/>
<path class="st0" d="M214.3,145.1c0.5-4.1,5.9-3.1,7.9-3c3.4,0.2,13.9,2.3,17,2.7c10.3,1.3,29.1,2,61.4,0.7
	c27.7-1.1,44.1-3.3,56-3.8c4.7-0.2,7.4,3.1,6.5,7c-1,4-7.3,8.4-11.1,12.9c-2.2,2.6-1.8,6.7,0.4,9.5c3.5,4.4,8.1,3.9,13.8,10.1
	c1.1,1.2,5.3,5.2,3.9,9.4c-1.8,5.4-8.5,7.9-12.5,7.5c-9.6-0.9-33.7-4.4-53.4-4.5c-16.4-0.1-37.8,2.6-43.1,3.2
	c-0.7,0.1-1.2,0.7-1.1,1.4c3.4,21.8-0.9,43.7-2.3,48.5c-0.2,0.5,0.2,1,0.8,1c11.4,1,29.8,0.3,41.7-3.3c9.6-2.9,15-3.5,21.1-1.5
	c2.7,0.9,4.1,3.1,4,6.3c-0.2,4.9-4.2,8-7.1,11.5c-1.9,2.3-3.2,7.6-1,11.4c3.2,5.6,9.2,9.9,9.8,12.4c0.6,2.4-0.2,6.9-1.9,8.8
	c-1.5,1.6-6,2.5-19.2,0.7c-10-1.4-31.4-3.5-40.6-3.1c-4.3,0.2-13.4,2.2-13.7,8.3c-0.3,6,2.5,12,1.6,27.5c-0.8,13.7-2,24.3-3.1,29.9
	c-0.4,2.2,1.4,4.1,3.6,3.8c5.7-0.9,16.8-2,33.7-1.7c15.5,0.3,53.9,0.5,92.3,2.6c8.9,0.5,16.9,5.4,16.7,11.1
	c-0.1,3.2-1.5,6.1-8.6,11.4c-1.5,1.1-3.6,4.8-0.3,10.4c6.1,10.1,12.3,13.7,11.9,18.3c-0.4,5.9-7.8,13.2-18.1,12.7
	c-30.3-1.4-53.8-1.4-99.7-3.1c-22.5-0.8-58.8-1.3-73.8,0c-2.6,0.2-18.3,2.6-22.6,2.6c-5.4,0-4.7-2.6-4.5-6.4c0.1-1.5-0.1-3-1.9-3.2
	c-2.4-0.2-3.9-0.9-6.6-2.3c-1.3-0.7-2.6-1.9-3.4-3.1c-0.9-1.1-1.7-2.3-1.8-6.2c-0.2-6.6,5-13.9,7.7-18.5c2.1-3.6,3.7-7.4,4.8-11.4
	c6-20.9,17-71.3,18.7-101.6c1.5-27,8.6-86.5,0.3-106.6c-0.3-0.7-2.5-7-2.4-9.6c0.1-2.8,3.1-5.1,9.8-4.3
	C210.2,152.2,213.6,150.4,214.3,145.1z"/>
</svg>
