<?xml version="1.0" encoding="utf-8"?>
<!-- Generator: Adobe Illustrator 26.3.1, SVG Export Plug-In . SVG Version: 6.00 Build 0)  -->
<svg version="1.1" id="Layer_1" xmlns="http://www.w3.org/2000/svg" xmlns:xlink="http://www.w3.org/1999/xlink" x="0px" y="0px"
	 viewBox="0 0 566.9 566.9" style="enable-background:new 0 0 566.9 566.9;" xml:space="preserve">
<style type="text/css">
	.st0{fill:none;stroke:#FFFEFF;stroke-miterlimit:10;}
	.st1{fill:none;stroke:#FFFFFF;stroke-miterlimit:10;}
</style>
<path class="st0" d="M306.7,274.8c-2.9-61.4-1.5-62.9,1.9-66.5c1.9-2,4.6-3.2,7.3-3.2h0.5l0.6,0.1c15.1,1.7,26.5,5.1,35,10.4
	c10.7,6.8,16.7,16.9,17.1,29.2c0.9,22.7-19.1,37.8-52,39.4l-10,0.5L306.7,274.8z"/>
<path class="st0" d="M316.7,274.3c0,0-2.8-59.4-0.7-59.1c25.1,2.8,42.5,11.1,43.3,30.1C360.1,267.1,334.4,273.4,316.7,274.3z"/>
<path class="st0" d="M254.3,284.3c-32-1.7-51.4-16.8-50.6-39.4c0.5-12.2,6.2-22.3,16.6-29.1c8.3-5.4,19.4-8.9,34.1-10.5l0.6-0.1h0.6
	c2.8,0,5.4,1.1,7.3,3.1c3.4,3.6,4.8,5,2,66.5l-0.5,10L254.3,284.3z"/>
<path class="st0" d="M254.8,274.3c0,0,2.8-59.4,0.7-59.1c-24.2,2.8-41.1,11.1-41.8,30.1C212.9,267.1,237.7,273.4,254.8,274.3z"/>
<path class="st1" d="M305.2,436.8c-5.6,0-10.8-2.1-15-6.2c-2.1-2-3.5-4-4.4-5.7c-2.1,2.8-4.8,6.1-10.8,8.9
	c-2.9,1.3-8.4,2.8-13.9,2.8c-6,0-10.7-1.7-13.9-5.1c-2.8-2.8-4.2-6.7-4.1-10.8c0.3-11.6,2.9-72,4.1-97.7c-1,0.1-2,0.2-3,0.3
	c-8.1,0.9-16.5,1.8-25,1.8c-17.4,0-31.1-4-42.9-12.7c-16.3-12-23.4-31.2-25.2-36.8c-3.3-10.4-4.7-41.7,4.3-62.2
	c18-41,52-50.7,87.7-52.8c-0.8-7.5-0.7-15.5,1.8-20.5c3.4-6.5,11.9-8.8,18.1-8.8c6.6,0,12.8,2.4,17.5,6.8c2.2,2.1,3.3,3.1,4.3,4.3
	c4.2-6.2,9.5-9.6,17.6-11.3c1.4-0.3,2.8-0.5,4.2-0.5c10.3,0,18.1,7.8,20,20c0.5,2.9,0.6,6.5,0.5,10.1c0.5,0,1.1,0,1.6,0
	c35.3,0,56.6,16.1,68.3,29.7c12.8,14.8,21,34.8,21.9,53.5c1.3,25.5-4.8,45.6-18.2,59.6c-13.5,14.2-34.3,21.7-60.1,21.7
	c-6.4,0-12.1-0.5-16.8-1c-0.1,16.5,1.2,33.1,2.3,48c2.6,34.2,4.1,54.9-9.6,61.7C312.8,435.9,308.9,436.8,305.2,436.8z"/>
<path class="st1" d="M254.6,170.3c0,0-3.9-19.6-0.9-25.5c1.5-2.9,12.5-6.3,20,0.7c4.1,3.8,3.2,3.1,6.9,7.9c4.1,5.4,9,1.6,10.2-1
	c3.4-7.2,6.6-9.9,13.8-11.4c6.4-1.4,11,3.5,12.2,11.3c1,6.3-0.2,19.2-0.2,19.2c65.3-7,90.8,42.7,92.4,73
	c4.6,91.7-94.8,68.1-94.8,68.1c-2.4,50.8,10.9,106.1-2.1,112.5c-6.3,3.1-11.3,2-15.1-1.6c-3.6-3.4-3.5-7-6.7-9.9
	c-1.2-1.1-4.5-3.6-8.9,0.9c-4.4,4.6-4.7,7.5-10.7,10.3c-3.6,1.7-17.9,4.5-17.7-3.8c0.3-14.5,4.6-109,4.6-109
	c-24.6,1.6-52.3,9.4-75.5-7.5c-12.9-9.5-19.5-25.2-21.5-31.8c-2.5-7.8-4.1-36.9,3.9-55.2C182.2,177.3,216.4,171,254.6,170.3z"/>
</svg>
