<?xml version="1.0" encoding="utf-8"?>
<!-- Generator: Adobe Illustrator 26.3.1, SVG Export Plug-In . SVG Version: 6.00 Build 0)  -->
<svg version="1.1" id="Layer_1" xmlns="http://www.w3.org/2000/svg" xmlns:xlink="http://www.w3.org/1999/xlink" x="0px" y="0px"
	 viewBox="0 0 566.9 566.9" style="enable-background:new 0 0 566.9 566.9;" xml:space="preserve">
<style type="text/css">
	.st0{fill:none;stroke:#010101;stroke-miterlimit:10;}
</style>
<path class="st0" d="M200.3,426.5c-4.6,0-8.5-1.7-10.9-4.8c-5.3-6.8-3.3-30.8-0.3-59c0.4-3.3,0.7-6.4,1-9.2c1.5-15,4.1-68.9-1-137.2
	c-1.2-15.8-3.9-29.1-6.1-39.9c-3.4-16.7-5.6-27.7,0.3-34.1c2.8-3,7.3-3.4,10.5-3.4c0.7,0,1.4,0,2.2,0.1c4.9,0.3,7.1,4.4,9,8
	c2.1,4,3.6,6.5,7,6.5c1.2,0,2.3-1.9,3.5-4c2.2-3.9,5.3-9.2,12.4-9.2l0.3,0c4.3,0.1,7.8,1.4,10.1,3.9c2.2,2.3,3.2,5.5,3.1,9.4
	c-2,48.4-2.5,76.1-1.4,82.5c5.2-3,22.3-22.5,27.7-47.9c2-9.7,3.8-23,4.6-34.5c0.5-8.6,5.5-10.4,9.6-10.4c0.3,0,0.6,0,1,0l0.6,0
	c3.5,0.3,8.2,0.7,11.3,7.2c0.9,2,3,3.2,5.5,3.2c1.6,0,3.2-0.5,4.5-1.4c1.2-0.8,2.3-2.2,3.4-3.4c1.2-1.4,2.5-2.9,4-3.9
	c1.4-0.8,2.9-1.3,4.3-1.3c3,0,5.8,1.6,7.8,4.5c3.1,4.7-1.5,30.8-7.4,49.2c-7.4,23.2-14.9,39.3-23.6,50.6
	c-10.9,14.1-20.2,24.3-23.9,28.2c5.2,3.3,19.2,12.4,31.6,23.8c9.3,8.5,22.4,23.8,54.1,62.9c16.7,20.7,35.8,47.3,31.7,56.3
	c-1.1,2.4-3.7,5.4-9.6,5.4c-1.4,0-2.9-0.2-4.5-0.5c-4.7-0.9-9.6-4.3-12.6-6.4c-0.7-0.5-1.3-0.9-1.7-1.1l-0.3-0.2
	c-1.1-0.7-3-1.9-4.4-1.9c-1.4,0-1.9,2.4-2,4.4c-0.3,3.9-3.9,6.8-8.5,6.8c-3.4,0-10.1-1.6-16.3-12.7c-13.1-23.5-55.5-79.4-81.5-97.5
	c0.1,1,0.1,2.2,0.2,3.7c0.4,6.9,1.2,19.6,3.3,33.6c1.9,12.7,5.5,25.4,8.4,35.6c1.7,6.1,3.2,11.3,4,15.2c0.9,4.4-0.2,8.9-3,12.4
	c-2.8,3.4-6.8,5.3-11.2,5.3c-4.2,0-8.7-1.7-13-4.9c-4.4-3.3-6-6-8.9-10.9c-0.6-1-1.2-2-1.9-3.2c-0.4-0.7-1.3-1.2-2.2-1.2
	c-0.5,0-1.1,0.2-1.4,0.9c-0.6,1.7-1,3.9-1.4,6.2c-0.6,3.3-1.2,7.1-2.8,10.4C213.2,423.2,206.9,426.5,200.3,426.5z"/>
<path class="st0" d="M184.8,143.7c-8.8,9.6,3.3,33.2,6.3,72.5c5.5,73.2,2,127.2,1,137.5c-2,20.4-7.2,59-1.1,66.8
	c5.5,7.1,19.4,3.9,22.5-2.7c2.5-5.3,2.5-12,4.1-16.4c1.1-3,5.4-2.8,7.1,0c4.3,7.1,5.4,9.9,10.3,13.6c14.6,10.9,26.3-0.1,24.1-10.8
	c-2-10.3-9.3-30.6-12.4-50.9c-2.7-17.6-3.2-33-3.6-38c-0.2-2.6,2-2.1,2.9-1.4c26,17.9,68.4,73.4,82.3,98.3
	c9.3,16.5,20.7,12.3,21.1,6.7c0.6-9.9,7.1-5.5,9.7-3.9c2,1.2,8.2,6.3,13.6,7.3c5.6,1.1,10.1,0.2,11.9-3.8
	c2.4-5.2-5.2-21.8-31.4-54.2c-30.6-37.8-44.5-54.1-53.9-62.7c-15.6-14.3-33.4-24.9-33.4-24.9s11.3-11.4,25.5-29.8
	c8.5-11,15.9-26.7,23.3-50c6.4-20,10-44,7.7-47.5c-2.2-3.2-5.9-4.8-9.4-2.7c-2.5,1.6-4.5,5.4-7.3,7.3c-4.5,3.1-10.8,2.1-13-2.6
	c-2.7-5.8-6.7-5.8-10.2-6.1c-4.8-0.3-8,1.9-8.4,8.5c-0.8,12.1-2.6,25.3-4.6,34.8c-6.2,28.9-27.3,51-30.9,49.8
	c-2.7-0.9-0.4-58.2,0.7-84.9c0.3-7.9-5-11.1-11.3-11.2c-10.4-0.2-10.7,13.2-16,13.2c-9.2,0.1-8.2-14-16.1-14.5
	C191.4,140.8,187.2,141.1,184.8,143.7z"/>
</svg>
