<?xml version="1.0" encoding="utf-8"?>
<!-- Generator: Adobe Illustrator 26.3.1, SVG Export Plug-In . SVG Version: 6.00 Build 0)  -->
<svg version="1.1" id="Layer_1" xmlns="http://www.w3.org/2000/svg" xmlns:xlink="http://www.w3.org/1999/xlink" x="0px" y="0px"
	 viewBox="0 0 566.9 566.9" style="enable-background:new 0 0 566.9 566.9;" xml:space="preserve">
<style type="text/css">
	.st0{fill:none;stroke:#440936;stroke-width:1.4173;stroke-miterlimit:11.3386;}
	.st1{fill:none;stroke:#FFFFFF;stroke-width:1.4173;stroke-miterlimit:11.3386;}
</style>
<path class="st0" d="M262.6,315.5c-0.9,0-1.7-0.4-2.2-1c-0.5-0.7-0.8-1.5-0.6-2.4c3.3-16,7.6-32.6,11.8-45.6
	c7.2-22.3,10.3-22.3,11.9-22.3c2.8,0,6.2,2.9,12.5,23.8c3.6,12,7.5,28,10.7,43.9c0.2,0.8,0,1.7-0.6,2.3c-0.5,0.7-1.3,1-2.2,1
	L262.6,315.5z"/>
<path class="st0" d="M262.6,313.5c-0.5,0-1-0.5-0.8-1c6.7-32.6,17.3-66.3,21.8-66.3c5.6,0,15.5,37.7,21.2,66.2c0.1,0.5-0.3,1-0.8,1
	L262.6,313.5z"/>
<path class="st1" d="M182.1,426.2c-1.8,0-3.6-0.2-5.3-0.6c-6.8-1.5-12-5.3-14.4-10.3c-2.7-5.7-1.2-10.3,1.6-17.9
	c3.1-8.5,5.1-12.7,11.5-25.4c1.2-2.4,3-6.3,6.7-14c3.8-7.9,6.3-13.8,9.1-20.1c1.6-3.7,3.3-7.5,5.3-12c4-8.9,6.8-14.9,9-19.8
	c4-8.7,6.2-13.5,10.4-23.7c5.6-13.6,13.8-38.6,16.6-49.4c2.5-9.7,7.7-37.4,8.3-40.8c0.9-5.2,1.7-13,2.5-21.4
	c0.6-6.5,1.3-13.3,2.1-19.5c1-7.6,6.1-8.9,8.3-9.2c0.5-0.1,1-0.1,1.4-0.1c5.3,0,7.4,3.4,9.3,6.3c0.4,0.7,0.8,1.3,1.3,2
	c1,1.4,2.7,1.6,3.6,1.6c1.6,0,3-0.6,3.6-1.1c1.3-1.3,2.4-2.6,3.4-4c2.2-2.8,4.3-5.5,7.5-5.5c0,0,0,0,0,0c2.6,0,5.5,2.1,8.6,6.4
	c2.9,3.9,3.6,4.3,5,4.6c0.4,0.1,0.8,0.1,1.2,0.1c1,0,3.4-0.3,5.1-3c3.3-5.3,6.3-7.5,9.9-7.6l0.3,0c5.5,0,8.6,3.4,8.8,9.9
	c0.6,17.9,1.8,24.7,4.3,38.3l0.4,2c0.7,4,4.2,21.6,8.3,40.5c5,22.9,9,33.4,12.9,43.5c0.8,2.2,1.7,4.3,2.5,6.6
	c6.4,17.5,10.9,27,14.9,35.5c1.2,2.6,2.4,5,3.6,7.7c1.4,3.1,3.5,7.3,5.6,11.8c3.7,7.6,7.8,16.2,10,21.6c1.1,2.7,2.6,5.7,3.9,8.3
	c0.9,1.8,1.7,3.4,2.4,4.8c0.9,2,2.3,4.8,3.8,7.7c2.9,5.6,6.1,11.9,7.9,17.1c0.4,1,0.7,1.9,1,2.7c1.4,3.7,2.2,5.9,2,12.7
	c-0.1,1.7-1.5,6.2-4.5,9c-2.3,2.2-5,2.6-8.1,3.1l-0.8,0.1c-2.2,0.3-4.5,0.5-6.6,0.5c-6.6,0-11.8-1.6-14.7-4.5
	c-3.1-3.1-9.2-8.3-11.9-9.9c-1.4-0.8-2.3-1-2.9-1c-0.2,0-0.4-0.1-0.5-0.1l-0.2,0c-0.4-0.1-1-0.2-1.6-0.2c-2.8,0-6.5,2-10.9,5.8
	c-6.3,5.5-10.6,6.7-17.8,7.3c-0.8,0.1-1.5,0.1-2.2,0.1c-2.2,0-4.3-0.3-6.3-0.9c-2.1-0.6-4.1-1.4-7.6-3.9c-3.6-2.7-7.1-5.9-8.3-11.7
	c-0.9-4.7,3.9-25.3,4.4-27.6c1.4-5.9,1.7-10.2,1.7-12.6c-5.1,1.3-13.6,1.6-20.6,1.6c-10,0-20.3-0.7-26.2-1.7
	c0.3,3.6,0.8,10,1.4,12.6c0.9,4.1,1.8,8.6,2.8,14.3c1.4,7.5,1.3,10.5,0.6,14l0,0.2c-0.4,2.1-1.3,6.9-6.1,11
	c-3.7,3.2-8.4,4.8-14.1,4.8c-0.9,0-1.7,0-2.3-0.1c-8-0.4-14.4-4.2-16.8-5.9c-1.9-1.3-6.8-4.4-9-5.5c-1.3-0.6-3.6-1.5-4.5-1.5
	c-0.1,0-0.1,0-0.2,0c-1.5,0-4.3,0.7-5.4,1.4c-1.5,0.9-3.3,2.8-5.2,4.9c-1.6,1.7-3.2,3.4-4.9,4.9
	C192.9,424.3,187.6,426.2,182.1,426.2z"/>
<path class="st1" d="M247.5,151.6c0.8-6.4,4.9-7.3,6.5-7.4c6.3-0.6,7.5,3.6,10.2,7.4c2.6,3.6,8.3,2.7,10.2,0.7
	c4-4.1,6.1-8.9,9.5-8.9c2.2,0,5,2.9,7,5.6c2.9,4,4,4.9,6.2,5.4c2.6,0.6,6.2-0.2,8.3-3.7c3-4.8,5.5-6.6,8.3-6.7c2.7-0.1,6.8,0.7,7,8
	c0.6,18.9,1.9,25.4,4.7,40.6c0.8,4.2,4.2,21.9,8.3,40.5c6.1,27.9,10.7,37.3,15.5,50.4c8.4,22.8,13.4,31.9,18.5,43.2
	c3.8,8.3,12.2,24.8,15.6,33.3c1.8,4.6,4.7,9.7,6.3,13.2c2.6,5.9,8.9,16.8,11.6,24.6c2,5.7,3.2,6.8,2.9,14.7c0,1.2-1.3,5.2-3.9,7.7
	c-2,2-4.4,2.2-7.9,2.7c-8.3,1.3-16.2,0.1-19.7-3.4c-3.3-3.3-9.5-8.5-12.3-10.2c-2.1-1.3-3.5-1.2-4-1.4c-1.6-0.4-5.7-1.7-14.5,6
	c-5.8,5.1-9.7,6.2-16.7,6.9c-3.9,0.3-6.5-0.4-7.7-0.7c-2.1-0.6-3.9-1.3-7-3.6c-3.9-2.9-6.6-5.7-7.5-10.5c-0.6-3.1,1.9-16,4.4-26.8
	c2.5-10.4,1.7-15.9,1.7-15.9c-6.6,3.7-41.4,2.7-50.8,0.2c0,0,0.7,11.6,1.6,15.5c1,4.7,1.9,9.5,2.8,14.2c1.3,7,1.3,9.8,0.6,13.3
	c-0.4,1.9-1.1,6.3-5.5,10.1c-5.5,4.7-12.2,4.4-15,4.2c-8.1-0.4-14.5-4.6-15.7-5.5c-1.8-1.2-6.8-4.4-9.2-5.6
	c-1.3-0.6-3.9-1.6-5.3-1.7c-1.7-0.1-5.3,0.7-6.8,1.7c-3.1,1.9-6.6,6.8-10.3,9.9c-4.9,4.2-12.2,5.4-18.2,4.1c-1.5-0.3-9.7-2.2-13-9.2
	c-2.3-4.9-1.1-8.8,1.7-16.3c3.1-8.3,5-12.6,11.4-25.2c1.2-2.4,3.1-6.3,6.7-14.1c5.9-12.4,8.9-20,14.4-32.1
	c11.1-24.6,12.9-27.5,19.5-43.6c5.7-13.8,13.9-38.9,16.7-49.7c2.5-9.7,7.8-37.7,8.3-41C244.5,183.3,245.7,165.7,247.5,151.6z"/>
</svg>
