<?xml version="1.0" encoding="utf-8"?>
<!-- Generator: Adobe Illustrator 26.3.1, SVG Export Plug-In . SVG Version: 6.00 Build 0)  -->
<svg version="1.1" id="Layer_1" xmlns="http://www.w3.org/2000/svg" xmlns:xlink="http://www.w3.org/1999/xlink" x="0px" y="0px"
	 viewBox="0 0 566.9 566.9" style="enable-background:new 0 0 566.9 566.9;" xml:space="preserve">
<style type="text/css">
	.st0{fill:none;stroke:#EAE613;stroke-miterlimit:10;}
	.st1{fill:none;stroke:#00ADEF;stroke-miterlimit:10;}
</style>
<path class="st0" d="M285.4,434.6c-32.9,0-65.2-14.2-90.9-39.9c-30.4-30.4-47.1-72.2-47-117.7c0.1-90.4,71.1-144.5,139.7-144.5
	c1.9,0,3.9,0,5.8,0.1c87.6,4,126.6,80.6,126.4,154.7C419,348.8,368,434.6,285.4,434.6z"/>
<path class="st0" d="M292.4,142.5c-63.5-2.9-135,46.7-135.1,134.4c-0.1,85.4,62.9,147.7,128.1,147.7c74.3,0,123.7-77.1,123.9-137.3
	C409.5,220,375,146.3,292.4,142.5z"/>
<path class="st1" d="M204.8,254c1.2-7.8,3.5-22.3,17.5-40.4c12.5-16.1,35.3-25.7,60.9-25.7c24.4,0,46.5,8.8,59.1,23.4
	c11.5,13.4,18.6,34.2,19.3,44.1l0.7,10.5l-159.8,1.4L204.8,254z"/>
<path class="st1" d="M230.2,219.7c-13.5,17.4-14.7,30.6-15.8,37.6l137.4-1.2c-0.6-8.1-7-26.7-16.9-38.3
	C311.7,190.9,252.6,190.8,230.2,219.7z"/>
<path class="st1" d="M282,379.4c-26.6,0-49.6-11.3-61.4-30.1c-11.8-18.7-14-28.4-16.1-46.1L203,292l156.8,1.6l1.7,7.7
	c2.4,10.8-8.4,38.5-18.2,51.3C330.3,369.4,307.4,379.4,282,379.4z"/>
<path class="st1" d="M228.9,344c-11-17.5-12.7-25.9-14.7-42l137.6,1.4c1.3,5.9-6.6,30.3-16.4,43.1C312,376.9,250.5,378.3,228.9,344z
	"/>
</svg>
