<?xml version="1.0" encoding="utf-8"?>
<!-- Generator: Adobe Illustrator 26.3.1, SVG Export Plug-In . SVG Version: 6.00 Build 0)  -->
<svg version="1.1" id="Layer_1" xmlns="http://www.w3.org/2000/svg" xmlns:xlink="http://www.w3.org/1999/xlink" x="0px" y="0px"
	 viewBox="0 0 566.9 566.9" style="enable-background:new 0 0 566.9 566.9;" xml:space="preserve">
<style type="text/css">
	.st0{fill:none;stroke:#EAE613;stroke-miterlimit:10;}
</style>
<path class="st0" d="M285.4,434.8c-32.9,0-65.2-14.2-90.9-39.9c-30.4-30.4-47.1-72.2-47-117.7c0-41.8,16-79.7,44.8-106.5
	c25.9-24.1,60.5-37.9,94.9-37.9c1.9,0,3.9,0,5.8,0.1c87.6,4,126.6,80.6,126.4,154.7c-0.1,33-13.7,69.4-36.3,97.4
	C356.9,417.1,322.3,434.8,285.4,434.8z"/>
<path class="st0" d="M292.4,142.8c-63.5-2.9-135,46.7-135.1,134.4c-0.1,85.4,62.9,147.7,128.1,147.7c74.3,0,123.7-77.1,123.9-137.3
	C409.5,220.2,375,146.5,292.4,142.8z"/>
<path class="st0" d="M283.3,379.6c-26.7,0-47.3-9.4-61.2-27.9c-12.7-16.9-19.1-41-19.1-71.7c0-58.2,29.3-91.7,80.3-91.7
	c24,0,43,6.9,56.6,20.6c15.8,15.9,23.8,40.4,23.7,72.9c-0.1,28.4-6.3,51.3-18.3,68.2C331.4,369.4,310,379.6,283.3,379.6z"/>
<path class="st0" d="M283.3,198.3c-45,0-70.4,28.6-70.4,81.7c0,55.7,22.2,89.7,70.4,89.7c50.1,0,70.3-38.5,70.4-87.9
	C353.9,226.6,329.8,198.3,283.3,198.3z"/>
</svg>
