<?xml version="1.0" encoding="utf-8"?>
<!-- Generator: Adobe Illustrator 26.3.1, SVG Export Plug-In . SVG Version: 6.00 Build 0)  -->
<svg version="1.1" id="Layer_1" xmlns="http://www.w3.org/2000/svg" xmlns:xlink="http://www.w3.org/1999/xlink" x="0px" y="0px"
	 viewBox="0 0 566.9 566.9" style="enable-background:new 0 0 566.9 566.9;" xml:space="preserve">
<style type="text/css">
	.st0{fill:none;stroke:#30B44A;stroke-width:1.4173;stroke-miterlimit:11.3386;}
	.st1{fill:none;stroke:#440936;stroke-width:1.4173;stroke-miterlimit:11.3386;}
</style>
<path class="st0" d="M255.1,434.6c-20.3,0-38.1-1.2-48.7-2c-2.7-0.2-4.9-0.3-6.7-0.4c-10.4-0.6-14.3-5.4-16.3-10.1c-0.7,0-1.3,0-2,0
	c-3.2,0-8.1-0.4-13-3.7c-7.2-4.9-5-12.8-3.2-19.2c1.5-5.4,3.8-13.5,4.5-25c4.7-69.8,5.5-173.9,4.6-192.8c-0.4-10.2-2.6-16.5-4-20.6
	c-1.4-4.1-4.3-12.6,3.1-18c3.6-2.6,7.5-4,11.5-4c1.8,0,3.3,0.3,4.5,0.5c0.8-1.6,2.3-4,5.2-5.6c4.1-2.3,7.4-3.1,12.5-3.1
	c2.3,0,5,0.1,9,0.4c9.5,0.5,27.3,1.5,61.7,1.5c47.8,0,79.5,10.6,97,32.5c14.7,18.4,18.3,43.4,10.9,76.3
	c-3.4,15.2-9.7,25.2-16.2,31.6c4.8,2.7,9.6,6.2,13.5,10.6c10.2,11.5,17.2,28.3,19.9,47.3c2.6,18.2,0.7,36.4-5.2,49.8
	C381.9,416.4,334,434.6,255.1,434.6z"/>
<path class="st0" d="M199.5,142.5c7.5-4.1,6.2,0,78.3,0c93.8,0,110.2,43,98.1,96.6c-7.4,32.8-29.4,35.7-29.4,35.7
	s18.8,3.9,28.9,15.3c18.7,21.2,23.7,62.1,13,86.5c-26.7,61-161.9,47.2-188.2,45.7c-8.9-0.5-7-4.5-9.5-8.1
	c-3.2-4.5-10.4,0.4-16.8-3.9c-2.8-1.9,4.1-12.4,5.7-35.3c4.6-68.8,5.6-173,4.7-193.9c-0.9-21.2-8.3-27.7-5-30.1
	c6.3-4.6,9.4,0.3,14-1.7C198.4,146.9,197.5,143.6,199.5,142.5z"/>
<path class="st1" d="M245.3,400.4c-9.3,0-16.5-7.2-16.5-16.3v-76.9c0-8.8,7-15.7,16-15.7c0.4,0,0.8,0,1.2,0
	c3.6,0.3,7.3,0.5,10.9,0.7c23.3,1.5,45.3,2.9,62.5,8.9c22,7.6,33.1,22,33.1,42.7c0,21.6-11.7,36.8-34.9,45.3
	c-18.3,6.7-42.3,8.8-65.5,10.8l-5.2,0.5C246.3,400.3,245.8,400.4,245.3,400.4z"/>
<path class="st1" d="M238.8,307.1c0-3.7,3.1-6,6.5-5.7c48.6,3.4,97.2,3.4,97.2,42.4c0,39.7-48.7,42.4-96.6,46.6
	c-3.8,0.3-7.2-2.2-7.2-6.3V307.1z"/>
<path class="st1" d="M246.9,260.2c-8.4,0-14.9-6.5-14.9-14.8v-57.6c0-8,6.4-14.3,14.5-14.3c0.4,0,0.7,0,1.1,0
	c2.7,0.2,5.4,0.4,8.2,0.5c17.6,1.1,34.3,2.2,47.5,6.8c21.9,7.6,26.5,22.9,26.5,34.4c0,17.3-9.4,29.6-27.8,36.3
	c-14,5.1-32.2,6.7-49.8,8.2l-3.9,0.3C247.8,260.1,247.4,260.2,246.9,260.2z"/>
<path class="st1" d="M242,187.8c0-2.8,2.3-4.5,4.9-4.3c36.4,2.6,72.9,2.6,72.9,31.8c0,29.8-36.5,31.8-72.4,34.9
	c-2.8,0.2-5.4-1.6-5.4-4.7V187.8z"/>
</svg>
