<?xml version="1.0" encoding="utf-8"?>
<!-- Generator: Adobe Illustrator 26.3.1, SVG Export Plug-In . SVG Version: 6.00 Build 0)  -->
<svg version="1.1" id="Layer_1" xmlns="http://www.w3.org/2000/svg" xmlns:xlink="http://www.w3.org/1999/xlink" x="0px" y="0px"
	 viewBox="0 0 566.9 566.9" style="enable-background:new 0 0 566.9 566.9;" xml:space="preserve">
<style type="text/css">
	.st0{fill:none;stroke:#085B5A;stroke-miterlimit:10;}
</style>
<path class="st0" d="M301.1,441.3c-8.8-0.6-13.2-7.5-16.1-12.1c-0.3-0.4-0.6-0.9-0.9-1.3c0,0,0,0.1-0.1,0.1
	c-4,4.7-10.6,12.6-25.6,13.3l-1.2,0c-5.2,0-9.4-1.7-12.4-4.9c-5.1-5.6-4.4-12.8-3.5-22c0.5-4.7,1-10.1,0.9-16.4
	c-0.1-29,1.2-54.5,2.2-69.3c-5.8,1-13,1.8-21,1.8c-14.5,0-27.7-2.7-39.3-7.9c-26.3-11.8-33.3-36.1-37.1-60.7
	c-1.9-12.7-1.4-24.7-0.7-38.6c0.3-7.1,0.7-14.8,0.8-23.6c0.1-8,6.4-23.9,20.8-24.6c0,0,0,0,0,0c9.2,0,13.7,6.6,16.3,11.3
	c1.6-4,5.1-11,13.8-11.7c1.1-0.1,2.2-0.1,3.2-0.1c17.1,0,19.3,13,19.6,16.9c0.6,8.7,0.6,15.4,0.6,24c0,8,0,17.8,0.5,33.1
	c0.4,11.7,7.4,18.1,20.8,19.3c1.1-27.5,2.6-78.4,0.2-91.9c-3.3-18.3-2.3-29.5,3.3-36.2c3.1-3.8,7.6-5.8,12.6-5.8
	c9.2,0,18.3,7.1,23.9,12.7c6.9-10.2,16-11.4,20.1-11.4c4.2,0,8.4,1.1,11.8,3.2c11.9,7.1,12.5,30.2,9.4,70.5l-0.3,3.6
	c-1.8,24.5-1,44-0.2,54.8c11.7-1.9,21.7-5.4,23-13c2.6-14.6,2-24.9,1.3-35.8c-0.5-8.3-1-17-0.1-27.6c0.8-9.6,9.8-16,17.7-16.1
	c10.2,0,15.2,7.7,18.3,12.3c0.1,0.1,0.2,0.3,0.3,0.4c0.3-0.6,0.7-1.3,0.9-1.8c2.1-4.2,5.7-11.1,13.7-11.1c4.9,0.1,9.2,1.9,12.4,5.2
	c5.5,5.7,6.5,14.4,6.4,20.7c-0.1,4,0.1,9.1,0.4,14.9c1.1,27.8,2.8,69.9-20.6,93.8c-13.1,13.4-33,20.4-57.6,20.4
	c-6.6,0-12.6-0.5-17.5-1.1c0.2,16,0.9,45.7,3.4,72.9c1.4,15.5-0.8,26.3-6.9,33c-2.8,3.1-7.9,6.8-16.1,6.8
	C302.4,441.4,301.8,441.4,301.1,441.3z"/>
<path class="st0" d="M157.3,199.8c0-3.3,3.2-14.4,11.3-14.8c7-0.3,8.6,14.3,14.9,14.4c11.8,0.3,7.9-14.2,15.6-14.8
	c6.4-0.5,11.7,0.6,12.2,7.6c1.2,16.3,0.1,25,1.1,56.7c1.1,33.6,40.2,28.9,40.2,28.9s4-83.8,0.4-103.6c-8.9-49.1,19.1-26.6,28.1-14.9
	c0.9,1.2,6.2,1.1,7.5-2c6.2-14.8,16.9-13,21.3-10.3c9.5,5.7,5.5,49.1,4.3,64.9c-2.9,39.6,0.8,66.7,0.9,66.7
	c16.6-1.8,38.7-5.3,41.7-22.4c4.7-26.9-0.5-40.5,1.3-64.3c0.3-4.2,4.9-6.9,7.9-6.9c9.1-0.1,10.5,14.9,18.3,14.9
	c8.8,0,10.2-15.1,14.8-15.1c8.1,0.1,8.9,10.7,8.8,15.8c-0.5,22.2,7.7,76.3-17.4,102c-26.6,27.2-78,14.4-78,14.4s-0.2,45.2,3.6,85.7
	c2.4,26.3-7.2,29.4-14.4,28.9c-7.7-0.5-9.2-14.8-17.1-15.1c-8.7-0.3-8.3,14.2-26.6,15c-12,0.5-5.7-10.9-5.8-33.4
	c-0.2-44.9,3.2-81.9,3.2-81.9s-35.6,11.7-67.1-2.4c-22.3-10.1-28.1-31.6-31.3-53.1C154.4,242.6,157.1,226,157.3,199.8z"/>
</svg>
