<?xml version="1.0" encoding="utf-8"?>
<!-- Generator: Adobe Illustrator 26.3.1, SVG Export Plug-In . SVG Version: 6.00 Build 0)  -->
<svg version="1.1" id="Layer_1" xmlns="http://www.w3.org/2000/svg" xmlns:xlink="http://www.w3.org/1999/xlink" x="0px" y="0px"
	 viewBox="0 0 566.9 566.9" style="enable-background:new 0 0 566.9 566.9;" xml:space="preserve">
<style type="text/css">
	.st0{fill:none;stroke:#60CCEF;stroke-miterlimit:10;}
</style>
<g>
	<path class="st0" d="M256.4,436.9c-6.4,0-11.8-2.2-15.3-6.1c-3-3.5-4.3-8.1-3.6-13.1c2.9-20.9,7.2-171.4,4.6-210.1
		c-1.4,0-3.1,0-5.2,0c-10.3,0-24.9,0.4-37.8,0.7c-10.4,0.3-19.4,0.5-24.7,0.5c-3.4,0-4.7-0.1-5.7-0.3c-7.8-1.2-13.6-6-15.8-13
		c-2.7-8.4,0.2-18.1,4.7-22.6c1.4-1.4,3-2.4,4.5-3.2c-2.3-1.7-5-3.9-6.9-7.3c-5.4-9.9-3-20.9,0-26c1.4-2.4,5-6.4,12.9-6.4h0.1
		c18.9,0,39.8,0.8,61.9,1.6c26.4,1,56.2,2.2,88.6,2.2c26,0,50.4-0.7,74.6-2.2c0.5,0,0.9,0,1.4,0c8,0,17.5,4.3,19.4,12.2l0,0
		c2.7,9.5,0.1,16.9-2.6,21.5c-1.8,3.1-4.4,4.9-6.5,6.2c0.1,0,0.1,0.1,0.2,0.1c3.2,2.3,7.9,5.8,9.7,12.5c1.6,5.8,0.4,16-3.8,21.4
		c-2.4,3.2-5.9,5-9.6,5h-0.4c-11.3-0.4-21.5-1-31.4-1.5c-15.9-0.9-30.9-1.7-48.5-1.7c-0.8,0-1.6,0-2.4,0
		c-2.6,54.9,0.5,134.3,2.2,178c0.7,18.5,1,27.5,0.9,30.9c-0.4,12.4-8.9,20.8-21.1,20.8c-7.7,0-16.9-3.8-20.9-11.2
		c-0.6,0.8-1.1,1.5-1.6,2C273.4,434.1,263.8,436.9,256.4,436.9z"/>
	<path class="st0" d="M251.1,198.6c-0.5-2.4-75.6,1-80.7,0.1c-11.8-1.9-9-15.6-5.7-18.9c2.5-2.5,9.8-3.8,10.2-9.5
		c0.4-6.3-8.1-7.8-10.9-12.8c-3.6-6.6-1.5-13.8-0.2-16.2c0.9-1.6,3.7-1.5,4.4-1.5c57.5,0,131.3,7.4,225.6,1.6
		c5-0.3,10.1,2.3,10.6,4.7c0.2,0.9,2.5,7.1-1.5,14.1c-2.1,3.5-9.3,4.5-9.5,10.5c-0.2,8.4,9.9,8.7,11.9,16c1.1,4-0.6,14-3.9,13.9
		c-32.8-1.1-56.8-3.9-91.8-3.1c-0.1,0-0.3,0.1-0.3,0.2c-4.6,74.6,3,205.8,2.6,218.1c-0.6,16.1-20.7,12.3-23.7,4.4
		c-1.8-4.7-3.4-7.5-8.1-7.6c-2.4,0-5.1,3.2-9.6,9.1c-4.9,6.4-24.7,9-23.1-2.5C250.3,397.9,255.8,221.9,251.1,198.6z"/>
</g>
</svg>
