<?xml version="1.0" encoding="utf-8"?>
<!-- Generator: Adobe Illustrator 26.3.1, SVG Export Plug-In . SVG Version: 6.00 Build 0)  -->
<svg version="1.1" id="Layer_1" xmlns="http://www.w3.org/2000/svg" xmlns:xlink="http://www.w3.org/1999/xlink" x="0px" y="0px"
	 viewBox="0 0 566.9 566.9" style="enable-background:new 0 0 566.9 566.9;" xml:space="preserve">
<style type="text/css">
	.st0{fill:none;stroke:#DC1F26;stroke-miterlimit:10;}
</style>
<path class="st0" d="M250.2,435.4c-64.9,0-81.1-3.3-87.9-6.2c-17.8-7.4-13-28.2-11.3-36.1c1.9-8.4,8.3-19.9,14.1-30
	c0.8-1.4,1.6-2.8,1.9-3.3c25.7-50.3,32.3-67.6,37.7-81.5c1.9-5,3.7-9.6,6.1-15.2c14-32.1,20-75.7,23.2-99.1
	c0.9-6.5,1.6-11.6,2.2-14.9c2-10.2,8.6-16.5,17.7-17c0.2,0,0.5,0,0.7,0c7.1,0,12,5,15.5,8.6c1,1,2.4,2.4,3.3,3.1
	c2.7-0.2,3.6-0.7,3.6-0.7c0.1-0.1,0.5-0.8,0.8-1.3c1.6-2.8,5.4-9.5,15.6-9.5h0.2c8.9,0.1,12.9,6.4,14.8,10.2c1-0.7,2-1.6,3.1-2.5
	c3.7-3.2,8.9-7.7,16.4-7.8h0.2c10.8,0,18.5,8.8,20.1,22.9c1.1,9.1,2.1,20.3,3,33.1c1.6,22.1,3.9,35,14.1,85.3
	c2.9,14.5,19.3,54.9,41.6,97.3c1,2,2.4,4.2,3.8,6.6c4.9,8.2,10.4,17.5,10.3,26.3c0,0.2,0,0.4,0,0.6c0.3,3.8,1,12.8-5.6,20
	c-4.7,5.1-11.6,7.7-20.6,7.8c-2.2,0-8.5,0.2-17.3,0.5C349.2,433.7,296.8,435.4,250.2,435.4z"/>
<path class="st0" d="M166.1,420.1c-9.3-3.9-7.6-15.2-5.4-24.7c2.2-9.6,13.4-27.6,15.1-31c35-68.7,35.1-76.7,44-97.2
	c18.4-42.1,23.2-101.2,26.1-116.1c0.9-4.6,3.2-8.7,8.4-9c6.2-0.3,11.3,12,18.3,11.7c17.4-0.6,10.4-11.6,20.8-11.5
	c7.7,0.1,5.6,12.1,13.4,11.3c9-0.9,13.2-11.3,21-11.4c9-0.1,10.2,13.2,10.3,14.2c1.3,11.5,2.3,24,3,32.6
	c1.6,22.6,3.9,35.3,14.3,86.6c3.3,16.4,20.7,58.3,42.6,100c4.5,8.6,13.1,20.2,12.9,28.3c-0.1,3,3.5,18.3-16.4,18.5
	C379,422.5,191.4,430.7,166.1,420.1z"/>
<path class="st0" d="M243.4,384.2c-7,0-10.4-3.2-11.9-5.9c-3.4-5.8-0.4-11.6,1.2-14.4c0.5-1.2,2.1-4.9,3.2-7.7
	c1.8-4.3,2.9-7,3.3-7.8c10.1-22.8,18.6-54,23.7-72.6c1.1-4.2,2.1-7.8,3-10.7c0.6-2.1,1.2-4.3,1.9-6.5c5-17.6,9.8-34.2,13.7-42
	c2-4,6.1-6.6,10.7-6.6c4.7,0,8.9,2.7,10.9,7c2.9,6.3,6.6,18.6,10.5,31.6c2.1,7,4.3,14.3,6.2,20c1.7,5,4,12.4,6.5,20.2
	c5.1,16.1,11.4,36.1,14.5,43.8c1,2.6,2.1,5.4,3.2,8.4c2.4,6.5,4.9,13.2,7.1,17.4c0.6,1.2,1.2,2.3,1.7,3.2c2.4,4.4,5.5,9.9,2,15.8
	s-10.3,5.9-12.6,5.9c0,0-1.8,0-2.8,0c-16.2,0-51.3,0.4-74.5,0.7c-10.9,0.1-18.8,0.2-21.1,0.2H243.4z"/>
<path class="st0" d="M243.5,374.2c-4.5,0-4.4-1.6-1.9-6c0.2-0.4,6-14.4,6.7-15.9c12.7-28.6,22.6-68.8,27.1-84.6
	c5.1-17.6,10.9-38.9,14.9-46.8c0.8-1.5,2.9-1.5,3.6,0.1c4.1,9,11.1,34.9,16.2,50.6c5.1,15.4,16.5,52.6,21.2,64.5
	c3.3,8.4,7.2,19.9,10.8,26.7c4,7.8,6.9,10.5-0.2,10.5C320.6,373.2,251.2,374.2,243.5,374.2z"/>
</svg>
