<?xml version="1.0" encoding="utf-8"?>
<!-- Generator: Adobe Illustrator 26.3.1, SVG Export Plug-In . SVG Version: 6.00 Build 0)  -->
<svg version="1.1" id="Layer_1" xmlns="http://www.w3.org/2000/svg" xmlns:xlink="http://www.w3.org/1999/xlink" x="0px" y="0px"
	 viewBox="0 0 566.9 566.9" style="enable-background:new 0 0 566.9 566.9;" xml:space="preserve">
<style type="text/css">
	.st0{fill:none;stroke:#4B1D5B;stroke-width:0.9921;stroke-miterlimit:10;}
</style>
<path class="st0" d="M212.9,428.7c-4.2,0-8.1-2.4-11.5-7.2c-6.6-9.2-5.5-15.5-4.7-19.7c0.5-2.7,0.6-3.6-0.3-4.5c-1-1-1.5-1-1.7-1
	c-0.6,0-1.6,0.4-2.8,0.9c-2.6,1.2-6.4,2.9-13,2.9l-1.4,0c-4.6-0.2-10.8-3.7-13.2-9.2c-1.5-3.6-2.1-9.3,4.2-16.4
	c16-18,60.3-62.8,78.7-81.2c4.1-4.1,4.2-10.6,0.3-14.8c-18.1-19.7-49.8-53.9-57.6-60.7c-25.3-21.9-27.7-34.6-25.2-41.3
	c2.3-6.1,9.1-8.9,14.8-8.9c0.8,0,1.7,0.1,2.4,0.2c4,0.6,7,1.6,9.4,2.4c1.8,0.6,3.2,1.1,4.2,1.1c0.5,0,0.8-0.1,1.1-0.4
	c3-2.8,3.1-3.3,2.2-15.4c-0.2-3.5,1.5-7.7,4.3-10.8c2.8-3,6.3-4.6,9.9-4.6c4.1,0,10.3,2.1,16.6,12c21,32.9,50.4,79.6,57.8,91.4
	c6.1-10.3,37.8-63.4,64.1-99c1.9-2.6,5-4.1,8.6-4.1c4.7,0,9.6,2.6,12.9,6.7c4.5,5.7,2.6,11.1,1.1,15.4c-1.5,4.4-2.1,6.6,1,8.8
	c0.7,0.5,1.6,0.7,2.8,0.7c2.9,0,7.3-1.3,13.2-3.2c1.4-0.4,3-0.7,4.5-0.7c5.8,0,10.8,3,12.9,7.7c2.2,4.9,2.3,13.5-9.6,26.9
	c-16,18-51.5,55.4-71.2,76c-4.1,4.3-4,10.9,0.2,15.1c11.2,11.1,35.6,35.6,74.4,75.2c8.9,9.1,8.9,16.2,7.3,20.5
	c-2.1,5.7-8,9.1-12.7,9.5c-1.5,0.1-2.9,0.2-4.2,0.2c-5,0-8.4-0.8-10.9-1.4c-1.3-0.3-2.4-0.6-3.2-0.6c-0.6,0-1.1,0.1-1.7,0.8
	c-1,1-1,1.5-0.7,3.8c0.3,2.2,0.7,5.4-0.2,10.6c-1.3,7.8-7.7,16.3-15.6,16.3c-5,0-9.7-3.1-14-9.3c-14.2-20.4-51.5-79.2-58.9-90.8
	c-10.1,15.7-44.4,68.6-60.9,91.1C223.8,423.7,218.9,428.7,212.9,428.7z"/>
<path class="st0" d="M285.6,244.5c0.8,1.3,2.6,1.2,3.4-0.1c7.4-12.5,38.1-63.8,64-98.8c4-5.4,13.1-3.9,18.3,2.7
	c7.7,9.7-6.5,18.2,2.6,24.6c3.2,2.2,8.3,0.8,17.8-2.2c10.2-3.3,27,6.8,5.8,30.7c-16.7,18.9-54.2,58.2-71.2,76
	c-4.8,5-4.7,13,0.3,17.9c12.1,12,36.6,36.5,74.4,75.2c15.5,15.8,3.5,26-4.2,26.7c-14.3,1.2-17.5-4.3-21.3-0.4
	c-3.3,3.4,0.4,5.3-1.4,15.4c-1.8,10.3-13.8,23.7-26,6.2c-13.8-19.9-50.6-77.7-58.8-90.7c-0.8-1.2-2.6-1.3-3.3,0
	c-8.1,12.6-43.8,67.8-60.8,91.1c-3,4.1-12.5,15.2-22.2,1.8c-10.1-13.9-0.9-20.2-5.3-24.4c-4.8-4.7-6.2,2.8-20.2,2.3
	c-6.5-0.2-19.2-9.3-7.7-22.3c15.9-18,59.9-62.3,78.6-81.1c4.8-4.8,5-12.5,0.4-17.6C233,260,199.3,223.4,191,216.3
	c-43.2-37.3-20.3-48.1-9.5-46.5c9.4,1.4,13.4,5.2,16.3,2.5c3.8-3.5,3.7-5.2,2.9-17c-0.6-8.6,13.3-23.8,27.2-2.2
	C248.9,186,278.2,232.7,285.6,244.5z"/>
</svg>
