<?xml version="1.0" encoding="utf-8"?>
<!-- Generator: Adobe Illustrator 26.3.1, SVG Export Plug-In . SVG Version: 6.00 Build 0)  -->
<svg version="1.1" id="Layer_1" xmlns="http://www.w3.org/2000/svg" xmlns:xlink="http://www.w3.org/1999/xlink" x="0px" y="0px"
	 viewBox="0 0 566.9 566.9" style="enable-background:new 0 0 566.9 566.9;" xml:space="preserve">
<style type="text/css">
	.st0{fill:none;stroke:#44C3D6;stroke-miterlimit:10;}
</style>
<path class="st0" d="M379.9,427.4c-11.6,0-24.2-1.5-29-2.1c-17.7-2.2-40.4-3.4-67.5-3.4c-40.9,0-79.1,2.6-86.7,3.6
	c-1.9,0.3-3.5,0.7-5.2,0.7c-2.9,0-5-0.9-6.2-2.8c-0.9-1.4-1.1-3-1.3-4.4c-0.1-1-0.3-2.3-0.7-2.6c-1-0.7-2.4-0.8-4.1-0.8
	c-5.3-0.1-10.1-1.2-11.3-12.5c-0.9-8-0.6-13.4-0.3-18.2c0.1-2,0.2-3.9,0.2-5.7c0-9.1,0.1-12.5,3.2-17.1
	c28.1-42.4,143.8-144,161.3-159.2c-5.1-2.2-16.9-3.3-35.3-3.3c-14.5,0-31.6,0.7-48.2,1.3c-16.7,0.6-32.5,1.3-46,1.3
	c-20.8,0-31.1-1.5-34.5-4.9c-0.9-0.9-1.4-2.1-1.4-3.3c0.1-3.6,3.4-6.4,7-9.3c3.8-3.2,7.8-6.5,7.8-10.5c0-3.3-2.8-4.9-7.3-7.2
	c-4.7-2.4-10.6-5.4-11.8-12.6c-0.3-1.7,0.2-3.4,1.3-4.7c3.9-4.6,16.3-6.6,40.5-6.6c16,0,35.3,0.9,53.9,1.8c18.5,0.9,36,1.7,50.4,1.7
	c2.6,0,5.1,0,7.5-0.1c26.1-0.7,53.4-2.8,62.5-4.4c1.4-0.3,2.7-0.4,3.7-0.4c7,0,8.1,4.6,8.7,7.1c0.1,0.5,0.3,1.1,0.4,1.3
	c1-0.2,1.5-0.2,2.1-0.2c0.7,0,1.5-0.1,2.2-0.1c5.6,0,7,3.3,7.2,6c0.4,5.2,1.4,43.9,1.4,45.6c-8.3,23-71,90.2-162.4,165.3
	c14.9-1.1,54-3.6,89.5-3.6c65,0,72.5,8.2,72.5,14.4c0,8.3-6.6,11.4-11.9,13.9c-5.3,2.5-8.5,4.3-8.2,8.5c0.2,2.6,4.3,4.9,8.4,7.2
	c5.4,3.1,10.9,6.2,11,11.6c0,1.6-0.6,3-1.7,4.2C398.7,425.9,391.6,427.4,379.9,427.4z"/>
<path class="st0" d="M236,368.9c0,0,166.2-13.3,166.2,8.4c0,13.7-20.8,10.7-20.1,22.6c0.5,7.5,19.2,10.5,19.4,18.8
	c0.2,11.6-48.7,4.9-50.5,4.6c-54.1-6.9-142.4-1.3-154.5,0.2c-1.5,0.2-7.5,1.9-9.4-1.2c-1.4-2.2-0.5-6.1-2.5-7.5
	c-4.7-3.4-12.9,3.4-14.6-11.9c-1.3-11.2-0.1-17.5-0.1-23.7c0-8.8,0.1-11.8,2.8-16c30-45.2,162.9-160.5,162.9-160.5
	c-15.3-13.9-166.9,7-166.6-8.6c0.1-6,14.8-11,14.7-19.9c-0.1-9.8-17.1-8.1-19.2-20.1c-3-17.1,102.1-4.4,151.7-5.7
	c26.7-0.7,53.7-2.8,62.8-4.4c11.8-2.1,9.2,6.2,11.2,7.6c2.1,1.4,10.3-2.3,10.7,4.3c0.4,5.2,1.4,45.5,1.4,45.5
	C394.7,222.4,331.3,291.2,236,368.9z"/>
</svg>
