<?xml version="1.0" encoding="utf-8"?>
<!-- Generator: Adobe Illustrator 26.3.1, SVG Export Plug-In . SVG Version: 6.00 Build 0)  -->
<svg version="1.1" id="Layer_1" xmlns="http://www.w3.org/2000/svg" xmlns:xlink="http://www.w3.org/1999/xlink" x="0px" y="0px"
	 viewBox="0 0 566.9 566.9" style="enable-background:new 0 0 566.9 566.9;" xml:space="preserve">
<style type="text/css">
	.st0{fill:none;stroke:#673F99;stroke-miterlimit:10;}
</style>
<path class="st0" d="M159.1,135.1c21-7.4,30.1-0.8,83.2,6.7c16.9,2.4,48.1,5,71.5,1.8c44-5.9,57.8-14.3,84.7-11.8
	c12.9,1.2,16.8,8.3,18.9,21.9c1.9,12.2-12.4,22.4-12.4,22.4s12.7,10.8,12.6,21.4c-0.2,18.4-12.7,29.6-16.2,39.3
	c-12.5,34.9-6.6,61.8,0.5,85.5c2.2,7.6,8,19.7,12,29.2c4.8,11.4,5.1,17.2,2.2,23.9c-3.6,8.3-10.6,11.8-10.6,11.8s6.7,4,10.2,12.2
	c3.5,8.4,3.8,11.5,2.4,17.5c-1.5,6.6-3.1,8.5-12,14.1c-13,8.1-64-7.7-107.4-7.7c-70.2,0-95.3,8.8-121.5,9.7
	c-7.2,0.2-19.2-0.2-25.2-11.3c-4.6-8.6-1.2-15.6-0.5-19.8c1.3-7.7,10.9-14.5,10.9-14.5s-11.4-4.9-12.2-20.9c-0.3-7-0.1-8.4,3.6-14.8
	c7.4-13,7.8-16.2,10.8-23.8c12-30.7,13.6-61.3-3.1-93.8c-6-11.7-9.6-18-12-36c-1.5-11.1,12.6-22.2,12.6-22.2s-13.4-7.1-12.5-21.3
	C150,144.1,152.1,137.6,159.1,135.1z"/>
<path class="st0" d="M162.8,139.1c18.7-6.7,36.4,3.5,83.8,10.3c15.1,2.1,42.9,5,63.8,2.2c39.3-5.3,54.6-14.5,78.6-12.2
	c11.5,1.1,20.6,0.5,22.5,12.7c1.7,10.9-14.9,26.3-14.9,26.3s15.1,11.3,15,20.8c-0.1,7.7-10.9,17.7-14.1,22.5
	c-4.9,7.2-6.2,10.6-9.1,16c-5.2,9.6-5.6,18.3-6.3,30c-1.1,17.5,2.6,32.6,6.7,46.4c2,6.8,7.1,17.6,10.7,26.1c0.1,0.4,1.9,7.4,3.2,9.6
	c1.9,3.2,7.9,8.3,8.9,11.8c1.1,3.6-2.2,14-2.6,14.9c-3.2,7.4-12.5,15.5-16,11.9c-1.7-1.7,14.7,4.3,17.8,11.7
	c3.1,7.5,1,18.2-0.2,23.5c-1.3,5.9-11.3-1-19.3,4c-11.6,7.2-56.8-11.6-95.6-11.6c-62.7,0-88.2,9.9-111.6,10.7
	c-6.4,0.2-22.9,2.4-28.2-7.6c-4.1-7.7-1.5-11.4-0.8-15.1c1.1-6.8,14.2-16.7,14.2-16.7s-12-7.7-12.7-22c-0.3-6.3,5-15.1,8.2-20.8
	c6.6-11.6,9.1-18.7,11.8-25.5c10.7-27.4,12.1-54.8-2.8-83.8c-0.4-0.7-7.6-13.6-9.9-19.1c0,0-3.5-6.2-4.3-8.4c-1.1-3-5.1-0.2-5.9-6.4
	c-1.3-9.9,16.5-26.7,16.5-26.7s-13.7-1.8-12.9-14.4C157.8,150.8,156.5,141.3,162.8,139.1z"/>
</svg>
