<?xml version="1.0" encoding="utf-8"?>
<!-- Generator: Adobe Illustrator 26.1.0, SVG Export Plug-In . SVG Version: 6.00 Build 0)  -->
<svg version="1.1" id="Layer_1" xmlns="http://www.w3.org/2000/svg" xmlns:xlink="http://www.w3.org/1999/xlink" x="0px" y="0px"
	 viewBox="0 0 566.9 566.9" style="enable-background:new 0 0 566.9 566.9;" xml:space="preserve">
<style type="text/css">
	.st0{fill:none;stroke:#51B848;stroke-miterlimit:10;}
	.st1{fill:none;stroke:#E4178E;stroke-miterlimit:10;}
	.st2{fill:none;stroke:#31C5F4;stroke-miterlimit:10;}
	.st3{fill:none;stroke:#AB519F;stroke-miterlimit:10;}
	.st4{fill:none;stroke:#4FB848;stroke-miterlimit:10;}
	.st5{fill:none;stroke:#3A489E;stroke-miterlimit:10;}
	.st6{fill:none;stroke:#B24C9D;stroke-miterlimit:10;}
	.st7{fill:none;stroke:#41B649;stroke-miterlimit:10;}
	.st8{fill:none;stroke:#43BCEC;stroke-miterlimit:10;}
	.st9{fill:none;stroke:#2FB44A;stroke-miterlimit:10;}
	.st10{fill:none;stroke:#010101;stroke-miterlimit:10;}
</style>
<path class="st0" d="M84.6,86.6h-0.2c-0.4-0.1-1.2-0.4-1.6-1.5c-0.9-2.4-0.7-16.4,5.2-24.3c3.8-5.1,15.4-13.1,25.8-14.9
	c12-2.6,14.8-3.7,19.3-6c1.6-0.8,6.5-3.4,6.5-3.4l-3.1,6.6c-0.2,0.4-4.8,10-10.6,17.6c-2.1,2.8-4.3,3.3-8.3,4.1
	c-2.9,0.6-6.8,1.5-13,3.5c-7,2.3-9.1,3.4-11.2,5.5c-2.4,2.5-4.2,6.5-5.4,9.1c-1.2,2.6-1.7,3.7-3.2,3.7
	C84.8,86.6,84.6,86.6,84.6,86.6z"/>
<path class="st0" d="M84.8,84.6c-0.9-0.2-1-15,4.7-22.7c3.4-4.6,14.4-11.3,24.5-13.1c14.7-2.6,20.7-6.7,20.7-6.7s-4.6,9.7-10.4,17.3
	c-2.9,3.8-5.6,2-20.3,6.9c-6.9,2.3-9.5,3.5-12,6.1C87.8,76.9,85.4,84.8,84.8,84.6z"/>
<path class="st1" d="M478.1,84.3c0-0.1-2.8-9.2-8.7-15.3c-6-6.2-12.9-9.9-21.6-11.5c-1.4-0.3-2.8-0.5-4.1-0.7
	c-6.2-1.1-11.6-2-15.7-5.1c-1.8-1.3-5.7-10.1-5-12l0.5-1.4h1.5c0.3,0,0.8,0.1,1.3,0.5c3,2.4,5.8,2.6,11,2.9
	c2.8,0.2,6.4,0.4,10.9,1.1C465.6,45.4,473,48,480.6,64c4.4,9.3,1.4,19.9,1.3,20.3l-1.9,6.5L478.1,84.3z"/>
<path class="st1" d="M425,40.2c5.3,4.3,10.2,2.5,22.8,4.4c17.2,2.7,23.9,5.1,31,20.2c4.1,8.7,1.2,18.9,1.2,18.9s-2.8-9.5-9.2-16.1
	c-7.3-7.6-15.1-10.7-22.6-12.1c-7.6-1.5-14.4-2-19-5.5C427.5,48.8,424.1,39.5,425,40.2z"/>
<path class="st2" d="M270.7,93.7c-0.7,0-1.3,0-2-0.1l-0.6-0.1c-4.2-0.4-12.8-1.3-18.1-9.9c-6.7-10.7-1.2-24.1-1.1-24.2
	c2.2-4.8,7.5-12.5,12.2-12.5c0.5,0,1,0.1,1.5,0.3c0.8,0.3,1.3,0.8,1.7,1.4c2-3.5,3.6-4.9,5.3-4.9c0.1,0,0.3,0,0.4,0
	c3.5-7.7,4.2-7.7,5.4-7.7c1.1,0.1,1.7,0.6,2.1,1.1c0.4-0.3,0.9-0.5,1.5-0.5c0.3,0,0.7,0.1,1,0.2c2.6,0.8,4.2,3.5,5.1,5.9
	c0.9,0,2,0.2,3.2,3.8l0,0c1.2,0,2,0.9,2.6,1.5c2.8,3.4,7.3,14.5,5.6,22.5c-2.1,9.6-5,13.4-10.1,17.4C279.9,93,273.8,93.7,270.7,93.7
	z"/>
<path class="st2" d="M261.8,49.1c-2.8-1.2-8.3,5.1-11.1,11.2c-0.4,0.9-4.9,12.9,1,22.3c5.1,8.2,13.7,8.6,17.3,9
	c2.6,0.3,9.1,0.2,16-5.3c4.9-3.8,7.5-7.3,9.4-16.2c1.9-8.8-4.6-21.9-6.2-21.6c-0.9,0.1-0.6,3.3-0.6,3.3s-1.5-7.1-2.7-7.1
	c-0.7,0-0.7,2-0.7,2s-1.4-6.9-4.8-8c-1.3-0.4-1,1.2-2.5,0.7c-0.9-0.3-0.8-1.4-1.6-1.4c-0.7,0-4.7,9.2-4.7,9.2s-0.5-5.2-5.2,3.5
	c-2,3.7-3.1,7.7-3.3,7.7C261.8,58.5,264.6,50.3,261.8,49.1z"/>
<path class="st2" d="M198.4,113.9c-0.4,0-0.9-0.1-1.3-0.2c-1.2-0.4-1.4-1.5-1.7-2.7c-0.4-1.8-1.2-5.6-4.5-9.5
	c-5.6-6.6-13.1-10.1-13.1-10.1l-1.8-0.8l0.8-1.8c0.5-1.2,5.2-11.8,9.3-15.5c2.4-2.2,6.4-4.8,11.6-4.8c2,0,4.1,0.4,6.1,1.2
	c9.8,4,11.2,15.5,10.4,20.2C212.9,97,205,113.9,198.4,113.9z"/>
<path class="st2" d="M178.6,89.5c0,0,4.9-11.3,8.8-14.8c3.2-2.9,8.8-6,15.7-3.2c8.8,3.6,9.9,14.2,9.2,18
	c-1.6,8.4-10.1,23.8-14.5,22.3c-0.6-0.2-0.3-5.6-5.3-11.6C186.5,93.1,178.6,89.5,178.6,89.5z"/>
<path class="st3" d="M138.2,167.4c-0.7,0-1.4-0.3-1.9-0.7c-0.6-0.6-1-1.3-1.6-2.3c-0.9-1.5-2.1-3.5-4.5-5.8c-3.8-3.6-4.5-4-6.4-5.2
	l-0.4-0.3c-0.8-0.5-1.5-1.6-1-3.1c1-3.4,9.4-11.8,14.7-11.8c6.2,0.1,8.5,2.1,10.6,6.2c2.9,5.5,0,11.4-1.2,13.9
	c-0.1,0.2-0.2,0.4-0.3,0.6C146.2,158.9,141.9,167.4,138.2,167.4z"/>
<path class="st3" d="M124.5,151.4c-1.9-1.2,7.8-11.3,12.6-11.3c5.5,0,7,1.7,8.8,5.1c2.7,5.1-0.5,10.6-1.5,12.7
	c-0.7,1.5-5.2,8.8-6.7,7.3c-1.1-1.1-2-4.2-6.1-8.1C127.4,153.1,126.8,152.9,124.5,151.4z"/>
<path class="st4" d="M197.2,220.2h-0.1c-1.6-0.2-2.7-1.7-4.5-4.4c-1-1.5-2.2-3.2-3.3-4.3c-1-1-1.8-1.7-2.4-2.3
	c-1.1-1-2.1-1.8-2.1-3.4c0-1.3,1.1-2.8,2.1-3.8s4.7-4.3,9.9-4.3c4.7,0,6.7,2.3,8.1,4.6c1.9,3.2,1.6,7.2-0.8,11.5
	C202.8,216.2,199.7,220.2,197.2,220.2L197.2,220.2z"/>
<path class="st4" d="M186.8,205.8c0-1.2,4.2-6.1,10-6.1c3.8,0,5.2,1.7,6.4,3.6c3.7,6.2-4.4,15-6,14.8c-1.2-0.1-3.9-5.3-6.5-8.1
	C187.9,207.2,186.9,206.9,186.8,205.8z"/>
<path class="st5" d="M138.2,239.4c-0.8,0-1.6-0.5-2-1.2c-0.8-1.5-3.8-5.6-5.1-7.3c-0.4-0.5-0.7-0.9-0.8-1.1
	c-0.6-0.8-0.7-1.9-0.2-2.8c1.2-2.3,6-3.5,8.3-3.5c0.2,0,0.5,0,0.7,0c3.3,0.3,5.8,2.3,6.6,5.4c0.6,2.2-0.9,4.8-2.3,6.5
	C142.4,236.7,140.1,239.4,138.2,239.4z"/>
<path class="st5" d="M131.8,228.6c-1-1.4,4.3-3.4,7-3.1c2,0.2,4.1,1.3,4.9,4c0.8,2.8-5.2,8.9-5.7,7.9
	C136.9,235.2,132.5,229.6,131.8,228.6z"/>
<path class="st6" d="M374.6,198.7c-1.5,0-2.4-1.1-3.7-2.7c-1.4-1.7-3.2-4-6.3-6.1c-4.7-3.3-9-4.1-12.2-4.7c-2.8-0.5-4.9-0.9-5.9-2.9
	c-2.3-4.7,7-13.7,10.2-15.9c2.3-1.5,8.3-5.6,16.5-5.6c1.2,0,2.3,0.1,3.5,0.2c8.6,1.2,13.6,5.6,14.1,12.5c0.3,4.3-3.4,14.8-14.4,24.5
	C375.8,198.5,375.2,198.7,374.6,198.7z"/>
<path class="st6" d="M348.3,181.5c-1.3-2.7,5.4-10.6,9.6-13.4c2.8-1.9,9.4-6.3,18.6-5c3.9,0.5,11.8,2.5,12.3,10.7
	c0.2,3.7-3.4,13.7-13.7,22.9c-1.2,1.1-3-3.9-9.2-8.3C357,182.1,349.5,184.1,348.3,181.5z"/>
<path class="st7" d="M282.9,205.1c-0.6,0-1.2-0.2-1.6-0.7c-1.1-1.1-2.4-2-4.5-3.6c-0.7-0.5-1.5-1.1-2.3-1.7
	c-3.2-2.4-6.5-2.7-8.2-2.9c-1.2-0.1-2.9-0.3-3.1-2.1c-0.4-3.7,5.7-11.8,13.4-14.1c2.4-0.7,4.6-1.1,6.6-1.1c4.3,0,7.6,1.7,9.7,4.9
	c4.2,6.6-2.4,15.2-2.7,15.5C290.1,199.4,285.5,205.1,282.9,205.1z"/>
<path class="st7" d="M265.1,193.9c-0.3-2.5,5.1-9.9,12-12c3.6-1.1,10.5-2.5,14,3c3.4,5.3-2.3,12.8-2.5,13.2
	c-1.1,1.4-5.1,5.6-5.8,4.9c-1.6-1.6-3.5-2.8-7.1-5.5C270.4,193.6,265.2,194.5,265.1,193.9z"/>
<path class="st5" d="M445.6,150.7c-0.7,0-1.3-0.3-1.8-0.8c-4-4.4-9.6-7.2-13.2-8c-1.7-0.4-2.3-1.7-2.2-2.7c0.2-3.6,9.6-9.1,14.2-9.7
	c0.7-0.1,1.4-0.1,2.2-0.1c3.4,0,6.4,1,8.7,2.9c3,2.5,2.5,6.9,0.8,10.1C454.2,142.5,448.9,150.7,445.6,150.7z"/>
<path class="st5" d="M431.1,140c-3.3-0.7,6.6-7.8,11.8-8.5c2.4-0.3,6.3-0.2,9.3,2.3c2.1,1.8,1.6,5.2,0.3,7.6c-1,1.9-6.2,8.2-7.2,7.1
	C441.2,144.1,435.2,140.9,431.1,140z"/>
<path class="st8" d="M442.2,207.4c-0.7,0-1.3-0.3-1.7-0.8c-1.4-1.7-6.9-5.9-8.8-6.6c-1.1-0.4-1.7-1.4-1.5-2.5
	c0.5-2.7,6.5-4.1,9.6-4.1c2.6,0,4.8,0.7,6.5,2c1.8,1.4,2.4,3.6,1.5,6.1C447,203.9,444.4,207.4,442.2,207.4z"/>
<path class="st8" d="M432.4,198.2c-1.9-0.6,7.8-5,12.7-1.2c3.6,2.8-2.4,9.1-3,8.3C440.5,203.5,434.7,199,432.4,198.2z"/>
<path class="st6" d="M299.2,146c-1,0-1.9-0.2-2.7-0.5c-2.2-0.9-4.5-2.9-5.5-4.8c-0.6-1.1-1-2.9-1.2-5.4c-0.2-2.4,0.2-3.5,0.9-4.2
	c0.5-0.6,1.4-1.2,3-1.2c1.7,0,3.5,0.7,5.2,1.3c2.4,1,6.5,2.6,7.4,6.6c0.4,1.6,0.2,3.3-0.5,4.6C304.6,144.6,302,146,299.2,146z"/>
<path class="st6" d="M291.9,135.1c-0.2-2.2,0.2-2.5,0.4-2.8c1.1-1.3,4.7,0.2,5.9,0.7c2.3,0.9,5.5,2.2,6.2,5.2
	c0.1,0.4,0.4,1.8-0.3,3.2c-1.2,2.2-4.5,3.2-6.8,2.2c-1.9-0.8-3.7-2.5-4.4-3.9C292.5,139.1,292.1,137.8,291.9,135.1z"/>
<path class="st9" d="M376.1,124.3c-2,0-4.8-0.3-8.8-0.9c-7.7-1.2-13-4.2-17.2-9.8c-1.9-2.5-4.9-7.7-4.4-14.4c0-0.1,1.3-10,7.4-12.2
	c0.7-0.3,1.7-0.4,2.8-0.4c2.8,0,6.5,0.7,8.5,1.1c0.6-0.5,1.5-0.9,2.8-0.9c0.1,0,0.3,0,0.5,0c2.2,0.1,8.7,2.3,11,5.6
	c1.5,2.1,1.2,4.6,0.6,6.3c1.1,2.1,3.7,7.8,4.1,13c0.2,2.7,0.1,7.8-3.2,11.4C379.6,123.9,378.3,124.3,376.1,124.3z"/>
<path class="st9" d="M353.9,88.8c-4.6,1.6-6,9.7-6.1,10.5c-0.5,6.5,2.8,11.4,4,13.1c3.9,5.3,8.9,7.9,15.9,9
	c5.1,0.8,10.3,1.3,11.2,0.3c2.4-2.6,3-6.5,2.7-9.9c-0.5-6.1-4.4-13.1-4.4-13.1s1.6-2.9,0-5.2c-1.8-2.6-7.6-4.6-9.5-4.8
	c-2.2-0.1-2.2,1.1-2.2,1.1S356.7,87.8,353.9,88.8z"/>
<path class="st10" d="M272.4,531.5c-3.4,0-9.2-0.8-16.4-1.9c-6.3-0.9-12.6-1.1-20.7-1.3h-1.1c-4.5-0.1-8-0.2-12.5-1.9
	c-2.9-1.1-6.1-2.8-8.8-7.4c-0.8-1.4-2.7-6.1-1.3-10.3c2-5.8,8.1-6.8,10.1-7.1h0.2c1-0.2,2-0.2,3-0.2c3.9,0,7.5,1.2,11.7,2.6
	c0.8,0.3,1.5,0.5,2.2,0.7c-1-1.1-2-2.2-3.1-3.5c-2.4-2.8-5.4-6.3-7.7-11.5c-1.2-2.7-4.9-12.4-1.4-21.9c1.1-3.1,3.2-6.7,6.6-11.6
	c2.4-3.5,2.9-4.6,3.9-7.5c0.8-2.4,1.3-4.3,1.3-7c-1.7-1.4-6.5-4.9-12.5-7.3c-4.6-1.8-7.2-2.9-8.8-2.9c-0.2,0-0.4,0-0.6,0
	c-2.3,0-3.9,0.6-5.5,1.2c-1.3,0.5-2.5,0.9-3.9,0.9c-1.2,0-2.3-0.3-3.3-1c-2-1.3-4.2-5.1-4.4-8.9c-0.1-2.8,0.8-5.2,2.7-7.1
	c-0.1-2.4,0.7-6,4.1-7.7c2.6-1.3,5.7-2,9.1-2c2.3,0,4.3,0.3,5.3,0.6c2.7,0.7,4.6,1.4,6,2c0-0.4,0-0.8,0-1.1c0-1.1,0.1-2.1,0.1-3
	c-1.9,0.8-4.2,1.6-5.7,1.6c-0.9,0-1.6-0.3-2.1-0.8c-0.3-0.3-1-1-0.9-3.5c-0.6-0.3-1.1-0.6-1.4-1.1c-1-1.4-1.2-3.4,4.9-9.1
	c4-3.7,6.2-4.6,8.3-5.5c0.4-0.1,0.7-0.3,1.1-0.4c0.2-0.3,0.4-0.9,0.6-1.4c0.5-1.2,1.1-2.7,1.9-4.1c1.1-1.8,3.4-3.5,5.2-4.9
	c0.2-0.1,0.4-0.3,0.6-0.5c-0.2-0.3-0.5-0.6-0.8-0.9c-0.9-1.1-2.1-2.5-3.4-4.2c-2.4-3.2-2.9-6-3.5-9.9c-0.1-0.8-0.3-1.6-0.4-2.5
	c-0.2-1.3-0.5-2.5-0.7-3.7c-1-4.8-1.6-8.3,0-12.2c1.4-3.3,2.6-4.2,8.3-8.6c1.2-0.9,2.5-2,4.2-3.2c4-3.1,6.3-5.1,8-6.6
	c2.4-2.1,3.8-3.3,6.9-5c5.4-2.9,9.3-4.2,11.2-4.8h0.1c0.3-2.8,0.3-5.3,0.4-7.8c0.2-6.7,0.3-13.1,4.1-20.7
	c4.3-8.5,20.3-14.6,33.8-17.5c12-2.5,18.2-8.5,24-14.9c3.2-3.6,4.4-6.3,5.2-8.2c0.7-1.7,1.5-3.7,3.9-3.7c0.2,0,0.5,0,0.7,0.1
	c6.3,1.1,9.3,16.5,7.6,29l-0.1,0.6c-0.8,6.3-3,22.9-16.4,34.1c-9.3,7.7-19.1,13.4-24,16c2.4,1.6,5.7,4,7.9,6.3
	c4-1.3,16.2-5.1,27.4-5.2c0.9,0,1.9,0,3-0.1c1.4,0,3.1-0.1,4.8-0.1c8,0,18.4,1.1,27.8,9.6c10.8,9.7,11.6,23.6,11.5,39.4
	c-0.1,11.8-4.7,23.5-4.9,24l-2.3,5.9l-1.4-6.1c0-0.1-2-8.1-8.7-15.2c-6-6.3-14.5-10-18.7-10.9c-3.6-0.8-6.1-1.2-8.1-1.5
	c-3.5-0.6-5.9-1-10.4-2.6c-1.7-0.6-3.1-1.4-4.2-2.4c0,2.4,0,4.9-0.2,7.7c-0.4,5.7-6.8,15.6-10.6,21.1c-1.6,2.3-2,4.1-2.1,8.4
	c-0.1,6.4-4.8,9.2-6.9,10.4l-0.2,0.1c-4.1,2.4-9.2,3.1-11.9,3.3c0.1,4.4,0.3,10.4,0.8,12c2.2,6.9,8.8,11.3,13.2,14.2
	c1.3,0.9,2.4,1.6,3.1,2.2c10.1,8.8,14.5,20.9,16.6,26.7c0.4,1.2,0.8,2.2,1,2.7c0.4-0.2,0.8-0.5,1.4-0.5h0.1h0.1c0.8,0,2.7,0,5.7,6.3
	h0.1h0.1c1.1,0,2,0.3,3.1,3.6c0.1,0,0.2,0,0.3,0c4.2,0,7.3,12.7,7.4,12.8c1.9,8.1,0.3,13.7,0,14.8c-0.7,2.3-2.7,8.3-8.6,13.2
	c-0.1,0.1-7.8,6.3-17.2,6.3c-0.6,0-1.1,0-1.7-0.1c-7.1-0.6-10.9-2.5-12.6-3.7c-0.9,0.4-2.2,0.8-3.6,1.2c-2.6,0.6-4.3,0.7-8.9,0.8
	h-0.4c-0.4,0-0.8,0-1.2,0c-5.3,0-10.7-0.9-15.8-2.5c-1.1-0.4-2.1-0.8-2.9-1.2c-0.7-0.3-1.5-0.7-1.9-0.8c-0.2,0.3-0.6,1.3-0.3,3.4
	c0.5,3.3,0.2,4.6-1.1,5.8l-0.1,0.1C275.7,531.2,274.6,531.5,272.4,531.5z"/>
<path class="st10" d="M270.9,315.4c1.2-10.8-0.8-18.7,4.4-29c3.8-7.6,18.8-13.6,32.5-16.5c12.3-2.6,18.8-8.5,25.1-15.5
	c6.6-7.3,5.2-11.6,8-11.1c4.4,0.7,7.7,14.2,6,26.8c-0.8,5.7-2.6,22.4-15.8,33.4c-12.6,10.6-26.7,17.4-26.7,17.4s8.1,4.9,11.2,8.9
	c0,0,14.9-5.5,28.1-5.6c8.1-0.1,22.1-2,34.3,9c10.2,9.2,10.9,22.3,10.8,37.9c-0.1,11.5-4.8,23.3-4.8,23.3s-2-8.5-9.2-16.1
	c-6.6-7-15.6-10.6-19.8-11.5c-9.7-2.1-11.3-1.6-18.3-4c-8-2.8-7.8-12.2-7.8-12.2s1.6,8.6,0.8,19.2c-0.3,4.1-4.5,11.9-10.3,20.1
	c-1.9,2.7-2.4,4.9-2.5,9.5c-0.1,5.5-4.2,7.7-6.1,8.8c-5.4,3.2-12.9,3.1-12.9,3.1s0,11.6,0.9,14.5c3.1,9.7,14,14.8,16.9,17.3
	c11.9,10.3,15.5,25.5,17.1,28.8c0.1,0.3,0.7,1.5,1.5,1.5c0.9,0,1.1-0.9,1.9-0.9c1.8-0.1,5,7.8,5,7.8s0.5-1.5,0.9-1.5
	c0.9-0.1,2.5,6.3,2.5,6.3s0.1-2.5,0.9-2.7c1.2-0.4,4.1,5.2,5.5,11.3c1.5,6.5,0.7,11.7,0,13.7c-0.8,2.4-2.6,7.8-8,12.3
	c-1.3,1.1-9,6.5-17.5,5.8c-9.5-0.8-12.4-4.1-12.4-4.1s-2.1,1-4.4,1.5c-2.4,0.6-4,0.6-8.8,0.7c-4.9,0.1-10.7-0.6-16.3-2.4
	c-2.7-0.9-4.9-2.7-6.3-2c-1.3,0.6-1.9,2.7-1.5,5.5c0.5,3.4,0,3.5-0.7,4.2c-1.2,1.2-8.6,0.2-18.9-1.3c-6.4-0.9-12.8-1.1-20.9-1.3
	c-5-0.1-8.4-0.1-12.9-1.8c-2.5-1-5.4-2.5-7.8-6.5c-0.7-1.2-2.3-5.2-1.1-8.6c1.7-4.9,7.2-5.5,8.7-5.8c4.5-0.7,8.3,0.5,13.8,2.3
	c6.8,2.3,11,4.2,11,4.2s-4.4-3.8-9.7-10.1c-2.3-2.7-5.2-6.1-7.4-11.1c-1.5-3.5-4.4-12.1-1.3-20.4c0.9-2.3,2.5-5.6,6.3-11.1
	c2.5-3.7,3.1-4.9,4.2-8c1-2.8,1.5-5.2,1.4-8.6c0,0-5.8-5.1-13.7-8.2c-5-2-7.5-3-9.5-3.1c-6.4-0.3-8.9,3.6-12.3,1.4
	c-2.2-1.4-6.3-9-0.7-13.5c0,0-0.9-4.8,2.9-6.7c5.3-2.7,11.6-1.6,13-1.2c6.4,1.7,8.5,3.4,8.5,3.4c0-4.3,0.4-7.7,0-10.4
	c0,0-7.2,3.5-8.2,2.5c-0.6-0.6-0.2-3.6-0.2-3.6s-1.6-0.3-2-0.9c-0.7-0.9,2.4-4.3,4.7-6.5c4.6-4.4,6.6-4.5,9.2-5.7
	c0.7-0.3,1.4-3.6,2.9-6.1c1.5-2.6,6.7-5.4,6.6-6.1c-0.1-0.6-2.4-3-5.1-6.6c-2.6-3.4-2.6-6.3-3.5-11.6c-1.2-6.8-2.6-10.6-0.8-14.8
	c1.4-3.4,2.4-3.7,11.8-11c9.6-7.6,9.6-8.7,14.6-11.5C266.3,316.5,270.8,315.8,270.9,315.4z"/>
</svg>
