<?xml version="1.0" encoding="utf-8"?>
<!-- Generator: Adobe Illustrator 26.1.0, SVG Export Plug-In . SVG Version: 6.00 Build 0)  -->
<svg version="1.1" id="Layer_1" xmlns="http://www.w3.org/2000/svg" xmlns:xlink="http://www.w3.org/1999/xlink" x="0px" y="0px"
	 viewBox="0 0 566.9 566.9" style="enable-background:new 0 0 566.9 566.9;" xml:space="preserve">
<style type="text/css">
	.st0{fill:none;stroke:#51B848;stroke-miterlimit:10;}
	.st1{fill:none;stroke:#E4178E;stroke-miterlimit:10;}
	.st2{fill:none;stroke:#31C5F4;stroke-miterlimit:10;}
	.st3{fill:none;stroke:#AB519F;stroke-miterlimit:10;}
	.st4{fill:none;stroke:#4FB848;stroke-miterlimit:10;}
	.st5{fill:none;stroke:#3A489E;stroke-miterlimit:10;}
	.st6{fill:none;stroke:#B24C9D;stroke-miterlimit:10;}
	.st7{fill:none;stroke:#41B649;stroke-miterlimit:10;}
	.st8{fill:none;stroke:#43BCEC;stroke-miterlimit:10;}
	.st9{fill:none;stroke:#2FB44A;stroke-miterlimit:10;}
	.st10{fill:none;stroke:#010101;stroke-miterlimit:10;}
</style>
<path class="st0" d="M85,74.7l-1.1-0.2c-3.4-0.8-6.2-3.2-7.4-6.5c-2-5.5-0.8-22.4,6.3-31.9c5.5-7.3,19.3-14.9,30.8-16.9
	c11.9-2.1,18.2-4.7,23.8-3.7c4.5,0.7,6.6,6.5,7.7,11.2c0.1,0.5-5.1,10.8-11.5,19.1c-3.9,5.1-8.5,6.1-13,7.1
	c-2.7,0.6-6.4,1.4-12.1,3.3c-6.3,2.1-7.2,2.7-7.8,3.4c-1.5,1.6-3,4.9-4,6.9c-1.4,2.9-3.9,8.4-10.5,8.4H85z"/>
<path class="st0" d="M86.1,64.7c-0.9-0.2-1-15,4.7-22.7c3.4-4.6,14.4-11.3,24.5-13.1c14.7-2.6,20.7-6.7,20.7-6.7s-4.6,9.7-10.4,17.3
	c-2.9,3.8-5.6,2-20.3,6.9c-6.9,2.3-9.5,3.5-12,6.1C89.2,57,86.8,64.9,86.1,64.7z"/>
<path class="st1" d="M471.7,66.7c-0.6-2.1-3.1-8.2-6.8-12c-4.9-5-10.2-7.9-17.3-9.2c-1.3-0.3-2.7-0.5-3.9-0.7
	c-6.7-1.2-13.5-2.3-19.2-6.6c-1.7-1.3-3.5-3.3-6-9.2c-2.1-5-2.9-8.2-1.8-11.8l0.5-1.6c1.1-3.1,4-5.2,7.3-5.3l1.7,0
	c2.3,0,4.6,0.8,6.4,2.3c0.8,0.7,1.5,0.8,6.5,1.2c3,0.2,6.7,0.4,11.6,1.2c17.7,2.7,29.1,5.8,38.5,25.8c5.6,11.8,2.2,24.5,1.8,26
	l-2.2,7.4c-2.1,7.4-12.7,7.5-14.8,0L471.7,66.7z"/>
<path class="st1" d="M426.3,20.3c5.3,4.3,10.2,2.5,22.8,4.4c17.2,2.7,23.9,5.1,31,20.2c4.1,8.7,1.2,18.9,1.2,18.9s-2.8-9.5-9.2-16.1
	c-7.3-7.6-15.1-10.7-22.6-12.1c-7.6-1.5-14.4-2-19-5.5C428.9,28.9,425.4,19.6,426.3,20.3z"/>
<path class="st2" d="M272.1,81.8c-1,0-1.9-0.1-2.8-0.2l-0.6-0.1c-4.6-0.5-16.7-1.7-24.1-13.6c-9.2-14.7-1.7-31.7-1.6-31.9
	c1.3-2.9,8.5-17.1,19.4-17.1c0.2,0,0.4,0,0.6,0c0.8-0.7,1.6-1.3,2.5-1.8c2.8-5.8,5.6-9.1,11.1-9.1h0.2l0.2,0c0.7,0,1.8,0.2,3,0.6
	c0.1,0,0.1,0,0.2,0c1.2,0,2.3,0.2,3.5,0.5c4.1,1.3,6.8,4.3,8.6,7.4c1.4,1,2.4,2.3,3.3,3.8c1,0.7,1.9,1.5,2.9,2.7
	c3.6,4.4,9.6,18,7.2,29.2c-2.2,10.3-5.7,16.3-13,22C284.3,80.8,276.2,81.8,272.1,81.8z"/>
<path class="st2" d="M263.1,29.2c-2.8-1.2-8.3,5.1-11.1,11.2c-0.4,0.9-4.9,12.9,1,22.3c5.1,8.2,13.7,8.6,17.3,9
	c2.6,0.3,9.1,0.2,16-5.3c4.9-3.8,7.5-7.3,9.4-16.2c1.9-8.8-4.6-21.9-6.2-21.6c-0.9,0.1-0.6,3.3-0.6,3.3s-1.5-7.1-2.7-7.1
	c-0.7,0-0.7,2-0.7,2s-1.4-6.9-4.8-8c-1.3-0.4-1,1.2-2.5,0.7c-0.9-0.3-0.8-1.4-1.6-1.4c-0.7,0-4.7,9.2-4.7,9.2s-0.5-5.2-5.2,3.5
	c-2,3.7-3.1,7.7-3.3,7.7C263.2,38.6,265.9,30.4,263.1,29.2z"/>
<path class="st2" d="M199.8,102c-1.3,0-2.7-0.2-3.9-0.7c-5.5-1.9-6.5-6.9-6.9-8.6c-0.3-1.5-0.8-3.6-2.8-6c-4.3-5.2-10.3-8-10.4-8
	l-2.8-1.3c-3.4-1.5-5-5.6-3.5-9l1.2-2.8c1.7-4,6.3-13.8,11.3-18.3c4.9-4.4,10.9-6.8,17-6.8c3.1,0,6.2,0.6,9.2,1.8
	c13.2,5.4,16.9,20.3,15.2,29.1c-0.9,5-3.6,11.7-7,17.4C211.2,97.8,205.9,102,199.8,102z"/>
<path class="st2" d="M180,69.6c0,0,4.9-11.3,8.8-14.8c3.2-2.9,8.8-6,15.7-3.2c8.8,3.6,9.9,14.2,9.2,18c-1.6,8.4-10.1,23.8-14.5,22.3
	c-0.6-0.2-0.3-5.6-5.3-11.6C187.8,73.2,180,69.6,180,69.6z"/>
<path class="st3" d="M139.6,155.5c-2.8,0-5.4-1-7.4-2.9c-1.4-1.4-2.3-2.8-3-4c-0.7-1.3-1.5-2.5-3.1-4.1c-3.2-3-3.5-3.2-5-4.2
	l-0.5-0.3c-4.1-2.5-5.9-7.4-4.5-12.1c1.9-6.6,13.1-17.6,22.4-17.6l0.1,0c10.7,0.1,14.9,5.3,17.6,10.4c4.9,9.1,0.4,18.2-1.1,21.2
	l-0.2,0.4c-0.7,1.5-2.2,4-3.6,5.9C148.7,151.6,145.1,155.5,139.6,155.5z"/>
<path class="st3" d="M125.8,131.5c-1.9-1.2,7.8-11.3,12.6-11.3c5.5,0,7,1.7,8.8,5.1c2.7,5.1-0.5,10.6-1.5,12.7
	c-0.7,1.5-5.2,8.8-6.7,7.3c-1.1-1.1-2-4.2-6.1-8.1C128.8,133.2,128.2,132.9,125.8,131.5z"/>
<path class="st4" d="M198.2,208.3l-0.5,0c-5.3-0.5-8-4.4-10.3-7.8c-0.8-1.1-1.8-2.6-2.4-3.2c-0.8-0.9-1.4-1.4-2-1.9
	c-1.5-1.4-4.7-4.2-4.7-9.2c-0.1-3.3,1.4-6.5,4.4-9.5c2-2,7.5-6.7,15.7-6.7c6.6,0,11.6,2.8,15,8.5c3.4,5.7,3.1,12.8-0.7,19.5
	c-1.8,3.1-6.7,10.5-13.8,10.5H198.2z"/>
<path class="st4" d="M188.2,185.9c0-1.2,4.2-6.1,10-6.1c3.8,0,5.2,1.7,6.4,3.6c3.7,6.2-4.4,15-6,14.8c-1.2-0.1-3.9-5.3-6.5-8.1
	C189.2,187.2,188.2,187,188.2,185.9z"/>
<path class="st5" d="M139.5,227.5c-3.9,0-7.4-2.1-9.1-5.6c-0.4-0.7-1.9-2.8-4.4-6.1c-0.4-0.6-0.8-1-0.9-1.3
	c-2.3-3.3-2.7-7.5-0.8-11.1c3.3-6.5,12.3-7.9,15.4-7.9c0.5,0,1,0,1.4,0.1c6.7,0.6,11.9,5,13.6,11.3c0.8,3,0.8,7.7-3.6,13.5
	C145.6,227.5,141,227.5,139.5,227.5z"/>
<path class="st5" d="M133.2,208.7c-1-1.4,4.3-3.4,7-3.1c2,0.2,4.1,1.3,4.9,4c0.8,2.8-5.2,8.9-5.7,7.9
	C138.2,215.3,133.9,209.7,133.2,208.7z"/>
<path class="st6" d="M376,186.9c-5.2,0-8.2-3.5-9.9-5.7c-1.2-1.5-2.6-3.1-4.8-4.7c-3.2-2.3-6.1-2.8-9-3.3c-3.4-0.6-9-1.6-11.7-7.3
	c-6-12.5,12.8-25.9,13-26.1c2.8-1.9,10.3-7,21-7c1.5,0,3,0.1,4.6,0.3c12.5,1.7,20.3,9.2,21,20c0.4,7.2-4.7,20-17.1,31
	C381,185.9,378.5,186.9,376,186.9z"/>
<path class="st6" d="M349.6,161.6c-1.3-2.7,5.4-10.6,9.6-13.4c2.8-1.9,9.4-6.3,18.6-5c3.9,0.5,11.8,2.5,12.3,10.7
	c0.2,3.7-3.4,13.7-13.7,22.9c-1.2,1.1-3-3.9-9.2-8.3C358.4,162.2,350.9,164.2,349.6,161.6z"/>
<path class="st7" d="M284.3,193.2c-2.8,0-5.4-1.1-7.3-3.1c-0.6-0.6-1.8-1.5-3.6-2.8c-0.7-0.5-1.5-1.1-2.4-1.8
	c-1.4-1.1-2.8-1.2-4.2-1.3c-8.7-0.9-10.1-7.2-10.3-9.2c-0.9-8.3,8.5-19.6,19.1-22.7c3.2-0.9,6.1-1.4,8.8-1.4c7,0,12.9,3,16.4,8.6
	c5.4,8.4,1.7,18.6-3.1,24.8C293.2,190.2,288.7,193.2,284.3,193.2z"/>
<path class="st7" d="M266.5,174c-0.3-2.5,5.1-9.9,12-12c3.6-1.1,10.5-2.5,14,3c3.4,5.3-2.3,12.8-2.5,13.2c-1.1,1.4-5.1,5.6-5.8,4.9
	c-1.6-1.6-3.5-2.8-7.1-5.5C271.8,173.7,266.5,174.6,266.5,174z"/>
<path class="st5" d="M446.9,138.8c-2.9,0-5.8-1.2-7.7-3.4c-2.8-3.1-6.9-5.1-9-5.5c-5.3-1.2-8.8-5.7-8.5-10.9
	c0.5-10.3,16.3-16.6,21.3-17.2c1-0.1,2.1-0.2,3.1-0.2c5.3,0,10.1,1.6,13.8,4.8c5.5,4.6,6.6,12.8,2.7,20c-1.4,2.5-4.1,5.6-4.6,6.2
	C455.3,135.6,451.8,138.8,446.9,138.8z"/>
<path class="st5" d="M432.4,120.1c-3.3-0.7,6.6-7.8,11.8-8.5c2.4-0.3,6.3-0.2,9.3,2.3c2.1,1.8,1.6,5.2,0.3,7.6
	c-1,1.9-6.2,8.2-7.2,7.1C442.5,124.1,436.6,121,432.4,120.1z"/>
<path class="st8" d="M443.6,195.5c-3,0-5.8-1.3-7.8-3.6c-1-1.1-4.4-3.6-5.7-4.3c-4.6-1.8-7.3-6.4-6.5-11.3
	c1.4-8.5,12.1-10.8,17.5-10.8c4.4,0,8.3,1.3,11.4,3.7c4.5,3.5,6.1,9.3,4.2,15C455.7,187.4,451.2,195.5,443.6,195.5z"/>
<path class="st8" d="M433.7,178.3c-1.9-0.6,7.8-5,12.7-1.2c3.6,2.8-2.4,9.1-3,8.3C441.9,183.6,436,179.1,433.7,178.3z"/>
<path class="st6" d="M300.6,134.1c-2,0-3.9-0.4-5.7-1.1c-4-1.7-7.6-4.9-9.5-8.5c-1.1-2.1-1.7-4.7-2.1-8.3c-0.2-2.7-0.2-6.8,2.8-10.3
	c2.2-2.5,5.4-4,9-4c3.1,0,6,1,8.2,1.9c3.1,1.2,10.3,4.2,12.2,12.2c0.9,3.6,0.4,7.2-1.3,10.3C311.6,131,306.3,134.1,300.6,134.1z"/>
<path class="st6" d="M293.2,115.2c-0.2-2.2,0.2-2.5,0.4-2.8c1.1-1.3,4.7,0.2,5.9,0.7c2.3,0.9,5.5,2.2,6.2,5.2
	c0.1,0.4,0.4,1.8-0.3,3.2c-1.2,2.2-4.5,3.2-6.8,2.2c-1.9-0.8-3.7-2.5-4.4-3.9C293.8,119.2,293.4,117.9,293.2,115.2z"/>
<path class="st9" d="M377.5,112.4c-2.4,0-5.6-0.3-10-1c-9.8-1.5-17-5.6-22.4-12.9c-2.5-3.4-6.7-10.5-6-19.9
	c0-0.2,1.5-15.2,12.7-19.2c1.6-0.6,3.4-0.8,5.5-0.8c2.4,0,5.2,0.4,7.5,0.8c1.2-0.3,2.4-0.5,3.8-0.5c0.3,0,0.6,0,1,0
	c3,0.2,12.7,2.7,17.1,9.1c2.2,3.2,2.8,6.7,2.4,9.9c1.5,3.3,3.3,8.4,3.7,13.3c0.5,6.9-1.3,13.1-5.3,17.5
	C384.1,112.4,379.3,112.4,377.5,112.4z"/>
<path class="st9" d="M355.2,68.9c-4.6,1.6-6,9.7-6.1,10.5c-0.5,6.5,2.8,11.4,4,13.1c3.9,5.3,8.9,7.9,15.9,9
	c5.1,0.8,10.3,1.3,11.2,0.3c2.4-2.6,3-6.5,2.7-9.9c-0.5-6.1-4.4-13.1-4.4-13.1s1.6-2.9,0-5.2c-1.8-2.6-7.6-4.6-9.5-4.8
	c-2.2-0.1-2.2,1.1-2.2,1.1S358.1,67.9,355.2,68.9z"/>
<path class="st10" d="M273.8,519.6c-3.9,0-9.8-0.8-17.6-1.9c-5.8-0.8-12-1-19.8-1.2l-1.1,0c-4.8-0.1-9.4-0.2-15.2-2.5
	c-3.6-1.4-8.9-4-12.8-10.8c-0.5-0.9-4.8-8.6-1.9-16.9c1.6-4.7,5.8-10.7,16.4-12.4c0,0,0.4-0.1,0.5-0.1c-0.1-0.2-0.2-0.4-0.3-0.7
	c-2-4.4-6-15.9-1.5-27.9c1.4-3.7,3.7-7.8,7.5-13.3c2.1-3,2.2-3.4,3-5.6c0.1-0.3,0.2-0.5,0.2-0.7c-1.8-1.2-4.2-2.5-6.8-3.5
	c-2.7-1.1-5.4-2.2-6.4-2.4l-0.1,0c-0.9,0-1.5,0.2-2.8,0.7c-1.6,0.6-3.8,1.4-6.6,1.4c-2.7,0-5.3-0.8-7.6-2.3
	c-4.4-2.8-7.8-9.2-8.1-15.2c-0.2-3.9,0.8-7.5,2.8-10.5c0.7-4.6,3.2-9.3,8.4-11.8c1.7-0.9,3.5-1.5,5.4-2c0.3-5.9,5.8-11,8-13.1
	c3.6-3.4,6.2-5,8.6-6.1c0.5-1.1,1-2.3,1.7-3.5c0.5-0.8,1-1.6,1.6-2.3c-3.2-4.6-3.8-8.7-4.5-12.8c-0.1-0.7-0.2-1.5-0.4-2.4
	c-0.2-1.3-0.5-2.4-0.7-3.5c-1-5.3-2.1-10.7,0.5-16.9c2.2-5.2,4.7-7.1,10.7-11.8c1.2-0.9,2.5-1.9,4.1-3.2c3.8-3,5.9-4.9,7.7-6.4
	c2.6-2.3,4.5-3.9,8.4-6c2.8-1.5,5.3-2.7,7.4-3.5c0-0.8,0-1.5,0.1-2.3c0.2-7,0.3-14.9,5-24.1c6.8-13.6,29.8-19.7,39.3-21.7
	c9.7-2.1,14.5-6.6,19.8-12.4c2.3-2.6,3.1-4.3,3.7-5.9c2.4-5.7,6.2-8.6,11.3-8.6c0.7,0,1.4,0.1,2.1,0.2c13.7,2.3,16,24.5,14.2,38
	l-0.1,0.5c-0.9,7.1-3.4,26-19.2,39.2c-1.7,1.4-3.4,2.7-5,4c3.6-0.6,7.4-1,11.1-1c0.9,0,1.8,0,2.8-0.1c1.5,0,3.2-0.1,5-0.1
	c8.7,0,21.6,1.2,33.2,11.7c14.3,12.9,14.2,31.7,14.1,45.4c-0.1,13.3-5.3,26.4-5.5,26.9l-2,4.9c-3.1,7.7-14.3,6.7-16-1.4l-1-4.9
	c0,0,0,0,0,0c0,0-1.6-6.1-6.7-11.5c-4.9-5.2-11.9-8-14.6-8.6c-3.4-0.7-5.7-1.1-7.7-1.5c-2.1-0.4-4-0.7-6.1-1.2
	c-1.4,5.5-5.3,12.8-11.4,21.6c-0.4,0.6-0.6,0.9-0.7,3.9c-0.1,7.3-3.7,13.1-10.8,17.2l-0.2,0.1c-2.5,1.5-5.2,2.5-7.7,3.1
	c0.1,1.4,0.2,2.5,0.3,3.1c1.5,4.2,6.6,7.5,9.9,9.8c1.5,1,2.8,1.9,3.9,2.8c10.4,9,15.4,20.7,18,27.7c3.1,1.2,5.4,3.9,7.3,7.1
	c1.4,0.9,2.6,2.2,3.5,3.6c5.3,3.2,8.2,10.8,9.7,17.5c2.3,10,0.4,17.1-0.2,19.1c-0.8,2.6-3.4,10.5-11.1,16.9
	c-0.4,0.3-9.9,8.2-22.4,8.2c-0.8,0-1.6,0-2.4-0.1c-5.6-0.5-9.7-1.7-12.7-3c-0.3,0.1-0.6,0.2-0.9,0.2c-3.4,0.8-5.7,0.9-10.6,1l-0.3,0
	c-0.5,0-0.9,0-1.4,0c-4.5,0-9.2-0.6-13.7-1.6c-0.6,1.5-1.6,2.9-3.1,4.3C280,519.6,275.5,519.6,273.8,519.6z"/>
<path class="st10" d="M272.2,295.5c1.2-10.8-0.8-18.7,4.4-29c3.8-7.6,18.8-13.6,32.5-16.5c12.3-2.6,18.8-8.5,25.1-15.5
	c6.6-7.3,5.2-11.6,8-11.1c4.4,0.7,7.7,14.2,6,26.8c-0.8,5.7-2.6,22.4-15.8,33.4c-12.6,10.6-26.7,17.4-26.7,17.4s8.1,4.9,11.2,8.9
	c0,0,14.9-5.5,28.1-5.6c8.1-0.1,22.1-2,34.3,9c10.2,9.2,10.9,22.3,10.8,37.9c-0.1,11.5-4.8,23.3-4.8,23.3s-2-8.5-9.2-16.1
	c-6.6-7-15.6-10.6-19.8-11.5c-9.7-2.1-11.3-1.6-18.3-4c-8-2.8-7.8-12.2-7.8-12.2s1.6,8.6,0.8,19.2c-0.3,4.1-4.5,11.9-10.3,20.1
	c-1.9,2.7-2.4,4.9-2.5,9.5c-0.1,5.5-4.2,7.7-6.1,8.8c-5.4,3.2-12.9,3.1-12.9,3.1s0,11.6,0.9,14.5c3.1,9.7,14,14.8,16.9,17.3
	c11.9,10.3,15.5,25.5,17.1,28.8c0.1,0.3,0.7,1.5,1.5,1.5c0.9,0,1.1-0.9,1.9-0.9c1.8-0.1,5,7.8,5,7.8s0.5-1.5,0.9-1.5
	c0.9-0.1,2.5,6.3,2.5,6.3s0.1-2.5,0.9-2.7c1.2-0.4,4.1,5.2,5.5,11.3c1.5,6.5,0.7,11.7,0,13.7c-0.8,2.4-2.6,7.8-8,12.3
	c-1.3,1.1-9,6.5-17.5,5.8c-9.5-0.8-12.4-4.1-12.4-4.1s-2.1,1-4.4,1.5c-2.4,0.6-4,0.6-8.8,0.7c-4.9,0.1-10.7-0.6-16.3-2.4
	c-2.7-0.9-4.9-2.7-6.3-2c-1.3,0.6-1.9,2.7-1.5,5.5c0.5,3.4,0,3.5-0.7,4.2c-1.2,1.2-8.6,0.2-18.9-1.3c-6.4-0.9-12.8-1.1-20.9-1.3
	c-5-0.1-8.4-0.1-12.9-1.8c-2.5-1-5.4-2.5-7.8-6.5c-0.7-1.2-2.3-5.2-1.1-8.6c1.7-4.9,7.2-5.5,8.7-5.8c4.5-0.7,8.3,0.5,13.8,2.3
	c6.8,2.3,11,4.2,11,4.2s-4.4-3.8-9.7-10.1c-2.3-2.7-5.2-6.1-7.4-11.1c-1.5-3.5-4.4-12.1-1.3-20.4c0.9-2.3,2.5-5.6,6.3-11.1
	c2.5-3.7,3.1-4.9,4.2-8c1-2.8,1.5-5.2,1.4-8.6c0,0-5.8-5.1-13.7-8.2c-5-2-7.5-3-9.5-3.1c-6.4-0.3-8.9,3.6-12.3,1.4
	c-2.2-1.4-6.3-9-0.7-13.5c0,0-0.9-4.8,2.9-6.7c5.3-2.7,11.6-1.6,13-1.2c6.4,1.7,8.5,3.4,8.5,3.4c0-4.3,0.4-7.7,0-10.4
	c0,0-7.2,3.5-8.2,2.5c-0.6-0.6-0.2-3.6-0.2-3.6s-1.6-0.3-2-0.9c-0.7-0.9,2.4-4.3,4.7-6.5c4.6-4.4,6.6-4.5,9.2-5.7
	c0.7-0.3,1.4-3.6,2.9-6.1c1.5-2.6,6.7-5.4,6.6-6.1c-0.1-0.6-2.4-3-5.1-6.6c-2.6-3.4-2.6-6.3-3.5-11.6c-1.2-6.8-2.6-10.6-0.8-14.8
	c1.4-3.4,2.4-3.7,11.8-11c9.6-7.6,9.6-8.7,14.6-11.5C267.7,296.6,272.2,295.9,272.2,295.5z"/>
</svg>
