<?xml version="1.0" encoding="utf-8"?>
<!-- Generator: Adobe Illustrator 26.1.0, SVG Export Plug-In . SVG Version: 6.00 Build 0)  -->
<svg version="1.1" id="Layer_1" xmlns="http://www.w3.org/2000/svg" xmlns:xlink="http://www.w3.org/1999/xlink" x="0px" y="0px"
	 viewBox="0 0 566.9 566.9" style="enable-background:new 0 0 566.9 566.9;" xml:space="preserve">
<style type="text/css">
	.st0{fill:none;stroke:#33B44A;stroke-miterlimit:10;}
	.st1{fill:none;stroke:#AB519F;stroke-miterlimit:10;}
	.st2{fill:none;stroke:#42B649;stroke-miterlimit:10;}
	.st3{fill:none;stroke:#E0E322;stroke-miterlimit:10;}
</style>
<path class="st0" d="M138.4,242.8c-2.4,0-5.5-0.3-9.9-1c-9.7-1.5-17-5.7-22.4-12.9c-2.5-3.4-6.7-10.5-5.9-19.8
	c0-0.1,1.4-15.1,12.7-19.1c1.6-0.6,3.4-0.8,5.5-0.8c2.4,0,5.2,0.4,7.5,0.8c1.2-0.3,2.4-0.5,3.8-0.5c0.3,0,0.7,0,1,0
	c3,0.2,12.6,2.7,17,9c2.2,3.2,2.8,6.7,2.4,9.8c1.5,3.3,3.3,8.4,3.7,13.3c0.6,6.9-1.3,13.1-5.3,17.4
	C145,242.8,140.2,242.8,138.4,242.8z"/>
<path class="st0" d="M116.1,199.4c-4.6,1.7-6,9.7-6.1,10.5c-0.5,6.5,2.8,11.4,4,13.1c3.9,5.3,8.9,7.9,15.9,9
	c5.1,0.8,10.3,1.3,11.2,0.3c2.4-2.6,3-6.5,2.7-9.9c-0.5-6.1-4.4-13.1-4.4-13.1s1.6-2.9,0-5.2c-1.8-2.6-7.6-4.6-9.5-4.8
	c-2.2-0.2-2.2,1.1-2.2,1.1S119,198.4,116.1,199.4z"/>
<path class="st1" d="M129.7,297.3c-2.7,0-5.3-1-7.3-2.9c-1.4-1.3-2.2-2.7-3-4c-0.7-1.3-1.5-2.6-3.1-4.1c-2.6-2.5-3.3-3.1-4.4-3.8
	l-1.1-0.7c-4-2.5-5.8-7.3-4.5-12c1.8-6.5,13.5-17.6,22.2-17.6c0.3,0,0.6,0,0.8,0c9.4,0.6,13.5,4.7,16.6,10.6
	c4.9,9.2,0.6,18.2-0.8,21.1l-0.1,0.3c-0.7,1.5-2.2,3.9-3.6,5.9C138.8,293.4,135.2,297.3,129.7,297.3z"/>
<path class="st1" d="M115.9,273.3c-1.9-1.2,8.4-11.5,12.7-11.3c5.5,0.4,6.7,1.9,8.5,5.3c2.7,5.1-0.2,10.4-1.2,12.5
	c-0.7,1.5-5.2,8.8-6.7,7.3c-1.1-1.1-2-4.2-6.1-8.1C118.9,275,118.2,274.8,115.9,273.3L115.9,273.3z"/>
<path class="st2" d="M128.6,344.9c-2.7,0-5.3-1.1-7.2-3c-0.7-0.7-1.9-1.6-3.6-2.9c-0.7-0.5-1.5-1.1-2.3-1.7
	c-1.4-1.1-2.9-1.2-4.3-1.4c-8.7-0.9-10-7.2-10.2-9.1c-0.9-8.3,8.5-19.5,19.1-22.6c3.2-0.9,6.1-1.4,8.8-1.4c7,0,12.8,3,16.3,8.6
	c5.4,8.4,1.7,18.6-3.1,24.7C137.4,341.9,132.9,344.9,128.6,344.9z"/>
<path class="st2" d="M110.7,325.7c-0.3-2.5,5.1-10,12-12c3.6-1.1,10.5-2.5,14,3c3.4,5.3-2.2,12.9-2.5,13.2c-1.1,1.4-5.1,5.6-5.8,4.9
	c-1.6-1.6-3.5-2.9-7.1-5.5C116,325.4,110.8,326.4,110.7,325.7z"/>
<path class="st3" d="M340.3,436.5c-3.9,0-9.8-0.8-17.6-1.9c-5.8-0.8-11.9-1-19.7-1.2l-1.1,0c-4.8-0.1-9.4-0.2-15.2-2.5
	c-3.6-1.4-8.8-4-12.8-10.8c-0.5-0.9-4.8-8.6-1.9-16.9c1.6-4.7,5.8-10.7,16.4-12.3c0,0,0.5-0.1,0.6-0.1c-0.1-0.2-0.2-0.5-0.3-0.7
	c-1.9-4.4-6-15.8-1.5-27.9c1.4-3.8,3.7-7.9,7.5-13.3c2-3,2.2-3.4,3-5.6c0.1-0.3,0.2-0.5,0.3-0.8c-1.8-1.2-4.2-2.5-6.9-3.6
	c-2.7-1.1-5.5-2.2-6.4-2.4c0,0,0,0,0,0c-0.9,0-1.6,0.2-2.9,0.7c-1.6,0.6-3.8,1.4-6.6,1.4c-2.7,0-5.3-0.8-7.6-2.3
	c-4.4-2.8-7.8-9.2-8.1-15.1c-0.2-3.9,0.8-7.4,2.8-10.4c0.7-4.6,3.2-9.2,8.3-11.8c1.7-0.9,3.6-1.5,5.5-2c0.1-2.3,1-5.1,3.5-8.3
	c1.5-1.8,3.2-3.6,4.5-4.8c3.6-3.4,6.2-5,8.6-6.1c0.5-1.1,1-2.3,1.8-3.5c0.5-0.8,1.1-1.6,1.7-2.3c-3.2-4.6-3.9-8.7-4.5-12.8
	c-0.1-0.7-0.2-1.5-0.4-2.4c-0.2-1.3-0.5-2.5-0.7-3.5c-1-5.3-2.1-10.7,0.5-16.8c2.2-5.1,4.7-7.1,10.7-11.7c1.2-0.9,2.5-2,4.2-3.2
	c3.8-3,5.9-4.9,7.7-6.4c2.6-2.3,4.5-3.9,8.4-6c2.9-1.5,5.3-2.7,7.4-3.5c0-0.8,0-1.5,0.1-2.3c0.2-7,0.3-14.9,5-24.1
	c6.8-13.5,29.7-19.7,39.3-21.7c9.8-2.1,14.6-6.7,19.8-12.4c2.3-2.6,3.1-4.3,3.7-5.9c2.4-5.6,6.1-8.5,11.2-8.5c0.7,0,1.4,0.1,2,0.2
	c13.7,2.3,16,24.5,14.2,37.9l-0.1,0.5c-0.9,7.1-3.4,26-19.2,39.2c-1.8,1.5-3.5,2.9-5.3,4.2c3.7-0.6,7.6-1,11.4-1
	c0.9,0,1.8,0,2.8-0.1c1.5,0,3.2-0.1,5-0.1c8.7,0,21.5,1.2,33.2,11.7c14.3,12.9,14.2,31.7,14.1,45.3c-0.1,13.3-5.3,26.3-5.5,26.9
	l-3.6,8.9c-2.6,6.4-11.9,5.6-13.3-1.2l-2-9.2c0,0-1.6-6.1-6.7-11.6c-4.9-5.2-12-8-14.6-8.6c-3.4-0.7-5.7-1.1-7.7-1.5
	c-2.1-0.4-4-0.7-6.2-1.2c-1.4,5.5-5.2,12.8-11.4,21.7c-0.4,0.6-0.6,0.9-0.7,3.9c-0.1,7.2-3.7,13-10.8,17.1l-0.2,0.1
	c-2.5,1.5-5.3,2.5-7.8,3.2c0.1,1.4,0.2,2.5,0.3,3.2c1.5,4.2,6.6,7.6,10,9.8c1.5,1,2.8,1.9,3.9,2.8c11.7,10.1,16.4,23.2,18.6,29.4
	c0.3,0.7,0.6,1.6,0.7,2c2.3,4.7,0.5,8-2.7,14c-1.3,2.5-2.7,4.9-2.7,4.9l-9.2,16.7c-1.4,2.6-5.3,1.9-5.8-0.9l0,0l-5.3,0.1
	c-0.4,2.6-0.6,5.6,0.2,7.4c1,2.3,2,3.5,2.4,3.8l5.7,3.2c4.5,2.5,4.3,9-0.4,11.2l-6.5,3c-0.5,0.2-3.1,1.4-6.2,2.2
	c-3.3,0.8-5.7,0.9-10.3,1l-0.5,0c-0.5,0-1,0-1.4,0c-4.5,0-9.2-0.6-13.7-1.6c-0.6,1.4-1.6,2.9-3,4.2
	C346.4,436.5,342,436.5,340.3,436.5z"/>
<path class="st3" d="M338.7,212.5c1.2-10.8-0.8-18.7,4.4-29c3.8-7.6,18.8-13.6,32.5-16.5c12.3-2.6,18.8-8.5,25.1-15.5
	c6.6-7.3,5.2-11.6,8-11.1c4.4,0.7,7.7,14.2,6,26.8c-0.8,5.7-2.6,22.4-15.8,33.4c-12.6,10.6-26.7,17.4-26.7,17.4s8.1,4.9,11.2,8.8
	c0,0,14.9-5.4,28.1-5.6c8.1-0.1,22.1-2,34.3,9c10.2,9.2,10.9,22.3,10.8,37.9c-0.1,11.5-4.8,23.3-4.8,23.3s-2-8.5-9.2-16.1
	c-6.6-7-15.6-10.6-19.8-11.5c-9.7-2.1-11.2-1.6-18.3-4.1c-8-2.8-7.8-12.2-7.8-12.2s1.5,8.6,0.8,19.2c-0.3,4.1-4.5,11.9-10.3,20.1
	c-1.9,2.6-2.4,4.9-2.5,9.5c-0.1,5.5-4.2,7.7-6.1,8.8c-5.4,3.1-12.9,3.1-12.9,3.1s0,11.6,0.9,14.5c3.1,9.7,14,14.8,16.9,17.3
	c12,10.3,15.2,24.9,16.9,28.2c0.1,0.3-5.1,9.9-5.1,9.9s-1.4-7.4-8.4,10.7c-0.1,0.4,2.4-8.5-0.8-8.9c-2.5-0.3-4.9,1.8-10.3,10.5
	c-0.9,1.4-4.3,12.3-1,19.8c2.8,6.4,6.1,8.2,6.1,8.2s-2.1,1-4.4,1.5c-2.4,0.6-4,0.6-8.8,0.8c-4.9,0.1-10.7-0.6-16.3-2.4
	c-2.7-0.9-4.9-2.7-6.3-2c-1.3,0.6-1.9,2.7-1.5,5.5c0.5,3.4,0,3.5-0.7,4.2c-1.2,1.2-8.6,0.2-18.9-1.3c-6.4-0.9-12.8-1.1-20.9-1.3
	c-5-0.1-8.4-0.1-12.9-1.8c-2.5-1-5.4-2.5-7.8-6.5c-0.7-1.2-2.3-5.2-1.1-8.6c1.7-4.9,7.2-5.5,8.7-5.8c4.6-0.7,8.3,0.5,13.8,2.3
	c6.8,2.3,11,4.2,11,4.2s-4.4-3.8-9.7-10.1c-2.3-2.7-5.2-6.1-7.4-11.1c-1.5-3.4-4.4-12-1.3-20.4c0.9-2.3,2.5-5.6,6.3-11.1
	c2.5-3.7,3.1-4.9,4.2-8c1-2.8,1.5-5.2,1.4-8.6c0,0-5.8-5.1-13.7-8.2c-5-2-7.5-3-9.5-3.1c-6.4-0.3-8.9,3.6-12.3,1.4
	c-2.1-1.4-6.3-9-0.7-13.4c0,0-0.9-4.8,2.9-6.7c5.3-2.7,11.6-1.6,13.1-1.2c6.4,1.7,8.5,3.4,8.5,3.4c0-4.3,0.4-7.7,0-10.4
	c0,0-7.2,3.5-8.2,2.5c-0.6-0.6-0.2-3.6-0.2-3.6s-1.6-0.3-2-0.9c-0.7-0.9,2.4-4.3,4.7-6.4c4.6-4.4,6.6-4.5,9.2-5.7
	c0.7-0.3,1.4-3.6,2.9-6.1c1.5-2.6,6.7-5.4,6.6-6.1c-0.1-0.6-2.4-3-5.1-6.6c-2.6-3.4-2.6-6.3-3.5-11.6c-1.2-6.8-2.6-10.6-0.8-14.8
	c1.4-3.4,2.4-3.7,11.8-11c9.6-7.6,9.6-8.7,14.6-11.5C334.2,213.5,338.7,212.8,338.7,212.5L338.7,212.5z"/>
</svg>
