<?xml version="1.0" encoding="utf-8"?>
<!-- Generator: Adobe Illustrator 26.1.0, SVG Export Plug-In . SVG Version: 6.00 Build 0)  -->
<svg version="1.1" id="Layer_1" xmlns="http://www.w3.org/2000/svg" xmlns:xlink="http://www.w3.org/1999/xlink" x="0px" y="0px"
	 viewBox="0 0 566.9 566.9" style="enable-background:new 0 0 566.9 566.9;" xml:space="preserve">
<style type="text/css">
	.st0{fill:none;stroke:#B24C9D;stroke-miterlimit:10;}
	.st1{fill:none;stroke:#010101;stroke-miterlimit:10;}
</style>
<path class="st0" d="M141.6,230.8c-2.7-0.9-10-4.7-12.2-8.6c-1.1-1.9-1.7-4-2-5.4c-2.8-0.4-8.7-1.7-11.8-4.6
	c-1.8-1.6-3.5-5.5-3.4-10.4l4,0.1c-0.1,4.3,1.6,6.9,2.2,7.4c2.6,2.4,8.8,3.6,11,3.8l1.5,0.2l0.2,1.5c0,0,0.5,3.1,1.9,5.5
	c1.4,2.4,7.3,5.9,10,6.8L141.6,230.8z"/>
<path class="st0" d="M135.7,326.7l1.1-2.8c0.5,0.3,4.5,0.5,4.6,0.6c0.5,0.5,0.5,2.3,0,2.8C141.4,327.4,138.6,328.2,135.7,326.7z"/>
<path class="st0" d="M304.9,424.6l-3.6-1.6c0.5-1.2,1.8-6.5,1.2-10.5c-0.4-3.2-2.7-8.1-3.5-9.3l3.3-2.3c1.1,1.6,3.6,7.1,4.1,11
	C307.1,416.8,305.7,422.9,304.9,424.6z"/>
<path class="st0" d="M284.9,419.9l-3.8-1.1c1.8-6.2,6.8-9.5,10.6-9.9c4.4-0.6,12.2,3.7,14.6,7.2l-3.3,2.2c-1.7-2.5-8.2-5.8-10.8-5.4
	C289.5,413.1,286.2,415.6,284.9,419.9z"/>
<path class="st0" d="M282.2,410.4l-2.3-3.2c0.1,0,0.2-0.1,0.3-0.2c1.7-1.4,6.8-5.6,12.7-5.6c0.1,0,0.1,0,0.2,0
	c3.9,0,10.4,3.7,11.3,4.3l-2.4,3.2c-0.9-0.7-6.5-3.5-8.9-3.5c0,0-0.1,0-0.1,0c-3,0-6.4,1.6-10.2,4.7
	C282.4,410.2,282.3,410.3,282.2,410.4z"/>
<path class="st0" d="M317.7,342.3c-0.2,0-0.3,0-0.5,0c-1.5-0.1-7.4-0.8-10.4-3l2.3-3.2c1.9,1.4,6.6,2.1,8.3,2.2
	c6.4,0.2,16.6-6.4,18.8-8c0.3-0.2,0.6-0.2,0.9,0l2.7,2C338.9,333.8,326.9,342.3,317.7,342.3z"/>
<path class="st0" d="M305.6,314.1c-0.1,0-0.2,0-0.3,0c-0.3,0-7.4-0.7-10-2.7l2.5-3.1c0.8,0.6,3.9,1.4,6.6,1.7
	c0.6-1.6,1.8-4.4,5.8-6.9c1.4-0.8,2.4-1.8,3.4-2.8c2.2-2,4.5-4.2,9.5-4.5l0.5,0c2.3-0.2,4.9-0.5,9.3,1.3c3.7,1.4,5.4,2.5,7,3.5
	c1.5,0.9,2.8,1.7,5.7,2.9c5.1,2.1,9.9,3.2,13.8,3.2c0.5,0,1.4,0,2.3,0.1c1.2,0,3.2,0.1,3.6,0.1l0.5,3.9c-0.6,0.1-1.7,0.1-4.3,0
	c-0.9,0-1.8-0.1-2.2-0.1c-4.5,0-9.8-1.2-15.4-3.6c-3.2-1.3-4.7-2.3-6.3-3.2c-1.6-1-3.1-1.9-6.4-3.2c-3.5-1.4-5.4-1.2-7.4-1l-0.6,0.1
	c-3.7,0.3-5.2,1.6-7.2,3.5c-1.1,1-2.4,2.2-4.1,3.2c-3.2,2-3.9,4-4.3,5.2C307.8,312.4,307.3,314.1,305.6,314.1z M305.7,310.1
	C305.7,310.1,305.7,310.1,305.7,310.1C305.7,310.1,305.7,310.1,305.7,310.1z"/>
<path class="st0" d="M337.9,303.8c-1-0.8-3.1-2-5.6-3.4c-5.7-3.2-13.6-7.7-17.3-12.9c-1.3-1.8-2.6-4.4-4-6.9
	c-1.2-2.2-2.4-4.6-3.3-5.8l3.2-2.4c1.1,1.5,2.4,3.9,3.7,6.4c1.2,2.4,2.5,4.9,3.7,6.4c3.2,4.5,10.6,8.7,16,11.7
	c2.8,1.6,4.9,2.8,6.2,3.8L337.9,303.8z"/>
<path class="st0" d="M298.1,300.9l-3-2.5c1.6-2,2.8-6.2,3.7-9.6c0.6-2.2,1.1-4,1.7-5.2c1.8-3.7,6.4-8.9,9.6-12.6l2.5,3.9
	c-2.9,3.4-6.9,7.1-8.5,10.5c-0.4,0.9-0.9,2.6-1.4,4.5C301.6,293.5,300.3,298.2,298.1,300.9z"/>
<path class="st0" d="M370.4,219.3c-2.2-2-9.9-4.9-15.2-5.3c-6.2-0.5-12.1,0.1-15.3,0.9L339,211c3.5-0.8,9.9-1.5,16.5-0.9
	c5.9,0.4,14.6,3.5,17.6,6.3L370.4,219.3z"/>
<path class="st0" d="M394.7,247.8c-0.1-0.9-1.5-4.3-4.3-9.8c-1.8-3.5-6.6-8.1-8.2-9.3l2.4-3.2c1.7,1.2,7.2,6.3,9.4,10.7
	c2.9,5.7,4.5,9.5,4.7,11.2L394.7,247.8z"/>
<path class="st1" d="M327.2,332c-2.1,0-3.6-0.6-3.9-0.7l1.5-3.7c0.1,0,2.9,1.1,5.4-0.4c1.5-0.9,2.2-2.1,2.4-2.4l3.4,2
	c-0.4,0.7-1.6,2.5-3.8,3.8C330.5,331.7,328.7,332,327.2,332z"/>
<path class="st0" d="M137.3,322.1l0.4-3c0.5,0.1,4.5-0.6,4.6-0.5c0.6,0.3,1.1,2.1,0.7,2.7C143,321.5,140.4,322.8,137.3,322.1z"/>
<path class="st0" d="M137.4,317.5l-1-2.8c0.5-0.1,3.7-2.6,3.9-2.6c0.7,0,2,1.4,1.9,2.1C142.1,314.2,140.5,316.6,137.4,317.5z"/>
<path class="st0" d="M120.9,264.6l2.4-1.9c-0.4-0.4-1.7-4.2-1.9-4.3c-0.6-0.3-2.4,0.1-2.7,0.8C118.7,259.4,118.7,262.2,120.9,264.6z
	"/>
<path class="st0" d="M124.9,261.8l2.7-1.3c-0.3-0.5-0.7-4.5-0.8-4.6c-0.5-0.5-2.4-0.4-2.8,0.1C123.9,256.1,123.3,259,124.9,261.8z"
	/>
<path class="st0" d="M129.3,261.3l3,0.2c0-0.6,1.5-4.2,1.4-4.4c-0.2-0.7-1.9-1.5-2.5-1.2C131.1,255.9,129.3,258.1,129.3,261.3z"/>
</svg>
