<?xml version="1.0" encoding="utf-8"?>
<!-- Generator: Adobe Illustrator 26.4.1, SVG Export Plug-In . SVG Version: 6.00 Build 0)  -->
<svg version="1.1" id="Layer_1" xmlns="http://www.w3.org/2000/svg" xmlns:xlink="http://www.w3.org/1999/xlink" x="0px" y="0px"
	 viewBox="0 0 566.9 566.9" style="enable-background:new 0 0 566.9 566.9;" xml:space="preserve">
<style type="text/css">
	.st0{fill:none;stroke:#A2BDE2;stroke-miterlimit:10;}
	.st1{fill:none;stroke:#4458A7;stroke-miterlimit:10;}
	.st2{fill:none;stroke:#3D56A6;stroke-miterlimit:10;}
	.st3{fill:none;stroke:#010101;stroke-miterlimit:10;}
	.st4{fill:none;stroke:#ED2784;stroke-miterlimit:10;}
</style>
<g>
	<path class="st0" d="M154,360.9c-0.2,0-0.4,0-0.7,0c-4.9-0.3-7.3-2.8-8.4-5c-0.1,0-0.3,0-0.4,0c-3.7,0-11.8-1.9-24.4-15
		c-9-9.2-13.8-20-16.3-36.1c-2.5-16.6,2.4-34,7.9-44.8c2.3-4.4,5.5-8.6,9.3-12c3.7-3.3,7.1-4.9,8.8-5.7c0.1-0.8,0.3-1.8,0.4-2.9
		c0.2-1.1,0.4-2.5,0.6-3.9c-0.1,0.1-0.8,0.7-0.8,0.7l-0.8,0c-1.7,0-3.6-2.4-4-3.1c-0.4-0.8-0.2-1.7,0.4-2.4
		c4.3-4.7,11.2-10.8,15.8-14.4c0.4-0.3,0.9-0.5,1.4-0.5c1.8,0,3.5,2.3,3.7,2.6c0.8,1.1,1,2.1,0.7,3c-0.2,0.7-0.9,1.4-2.4,2.8
		c1.7-0.8,3.4-1.4,5.4-2.1c0.8-0.3,1.7-0.6,2.7-1c4.4-1.7,9.9-2.6,15-2.6c1.2,0,2.3,0.1,3.4,0.1c11.9,1.1,20.2,5.5,24.1,8
		c8.7,5.7,14.3,11.9,17.7,19.5c0.1,0.3,0.3,0.7,0.5,1c1,2.2,2.1,4.4,1.4,6.2c-0.3,0.8-1,1.3-1.8,1.6c-0.3,0.1-0.6,0.1-0.9,0.1
		c-1.1,0-1.9-0.5-2.8-1.1c-1.3-0.8-3.1-1.9-6.4-1.9c-0.2,0-0.5,0-0.8,0c-4.8,0.2-8.1,0.7-10.2,1.1c2.9,4.2,8.3,13.5,9.6,25.4
		c0.7,6.5,0.1,8.9-0.8,13.3c-0.2,0.8-0.3,1.6-0.5,2.5c-0.2,1.1-1.6,2.6-3.2,2.6c-0.6,0-2.1-0.2-2.9-2.2c-0.3-0.8-0.8-1.6-1.2-2.4
		c-1.3,22.4-5.3,38.4-11.6,46.6c-6.7,8.7-9,10-16.7,12.9c-0.2,1.1-0.7,2.8-2.2,4.7C160.4,359.4,157.2,360.9,154,360.9z"/>
	<path class="st0" d="M122.4,249.4c4.9-4.3,9.2-5.7,9.2-5.8c0.5-3.4,2-12.5,1.7-12.9c-0.5-0.5-2.3,1.8-4.1,3.5
		c-0.3,0.2-2.5-1.8-2.2-2.1c4.4-4.7,11.3-10.8,15.6-14.2c0.5-0.4,2.9,2,2.6,2.9c-0.4,1.2-6.7,5.8-8.2,7.1c-0.2,0.2,2,2.4,2.1,2.3
		c4.5-3.9,8.2-4.8,14.3-7.2c5.2-2,12-2.9,17.5-2.4c9.9,0.9,17.9,4.3,23.2,7.7c7.8,5.1,13.5,10.9,17,18.6c0.9,1.9,3,5.6,1.2,6.2
		c-1.6,0.5-3.3-3.2-10.4-2.9c-9.5,0.4-13.4,1.9-13.4,1.9s9.4,11.1,11,26.8c0.7,7.2-0.1,9.1-1.3,15.2c-0.1,0.4-1.5,2.1-2.3,0.1
		c-1.4-3.4-4.5-6.9-4.8-6.4c-0.2,0.3-0.6,36-11.5,50.3c-6.8,8.9-8.7,9.6-16.8,12.6c-0.4,0.1-0.1,2.3-2.2,5c-1.6,2-4.4,3.3-7.3,3.1
		c-6.6-0.4-7.1-5.3-7.1-5.3s-8,3.2-24.8-14.1c-7.6-7.9-13.1-17.7-15.8-35c-2.4-15.9,2.2-32.7,7.7-43.6
		C115.7,256.4,118.9,252.5,122.4,249.4z"/>
</g>
<path class="st1" d="M425.9,358.9c-0.1,0-0.3,0-0.4,0c-4.4-0.2-7.3-2-8.8-5.2c-4.5-0.2-8.8-1.8-12.7-4.6
	c-10.1-7.3-16.8-14.3-20.5-21.4c-11.3-22.2-8.6-41-7.5-46.3l0.3-1.4c2-9.8,5.9-28.1,21.9-38.1c3.4-2.1,6.3-2.6,7.8-2.9
	c0.1,0,0.2,0,0.4-0.1c1.2-2.1,4.1-3.9,5.9-3.9c0.4,0,0.7,0.1,1,0.2c1.6,0.6,1.7,2.4,1.8,3.1l0.1,0.7c0.4,3.5,0.7,6.8,2.1,9.8
	c0.3,0.7,0.6,1.5,1,2.4c1.4,3.7,3.4,8.8,9,13.9c6.8,6.1,10.5,7.4,16.5,9.5c1.6,0.5,3.3,1.1,5.3,1.9c4,1.5,8,3.6,10,4.8
	c5.7,3.2,5.7,3.7,5.7,4.8c-0.6,11.4-1.3,19.5-3.3,29.2l-0.2,0.8c-1.7,8.3-3.7,17.7-14.7,28.6c-2.6,2.5-7.8,4.5-10.2,5.4
	C434.9,356.5,429.3,358.9,425.9,358.9L425.9,358.9z"/>
<path class="st1" d="M399.3,243.6c-16.1,10-19.4,29.3-21.3,38.2c-1.6,7.3-2.9,25.1,7.3,45c4.4,8.5,12.8,15.6,19.8,20.7
	c6.8,4.9,12.9,4.1,12.9,4.3c1.3,4,4.5,5,7.6,5.1c3,0.1,8.2-2,9-8.1c0-0.1,7.6-2.4,10.5-5.4c10.9-10.8,12.6-19.9,14.4-28.4
	c2-9.6,2.7-17.6,3.3-28.9c0-0.3-7.6-5.1-14.4-7.6c-9.7-3.6-13.6-3.7-22.5-11.7c-7.3-6.6-8.8-13.5-10.4-17c-1.6-3.5-1.9-7.2-2.3-11.1
	c0-0.3-0.1-1.3-0.6-1.5c-0.9-0.4-4,1.5-4.7,3.3C407.5,241.3,404.2,240.5,399.3,243.6z"/>
<path class="st2" d="M319.1,348.7c-0.6,0-1.2-0.2-1.7-0.5c-0.3-0.2-0.6-0.4-0.9-0.6c-1.1-0.8-2.1-1.5-3.3-1.7
	c-1.2-0.3-2.7-0.4-4.4-0.4c-4.5,0-9.7,0.9-13.2,1.6l-0.2,0c0,0-0.2,0-0.2,0c-0.9,0-1.3-0.4-2-1.2c-1.5-1.6-5.9-6.5-9.1-8.6
	c-5.9-3.9-11.1-5.4-15.5-6.6c-2.6-0.7-6.6-1.6-10.4-1.6c-2.4,0-4.4,0.4-6,1.1l-0.4,0.2h-0.4c-1.1,0-1.4-0.4-3.9-3.7
	c-2.3-3.2-2.4-3.4-2.5-3.7l-0.4-1.4l1.2-0.9c3.3-2.3,5.8-3.8,8.3-4.8l0.5-0.2c5.7-2.2,11.5-4.4,19.7-4.4c2.4,0,5,0.2,7.6,0.6
	c12.9,2,21.1,8.3,23.9,10.4c4.6,3.5,8.7,7.9,11.8,12.8c1.7,2.6,3.2,6.6,4.3,9.5c0.3,1,0.2,2-0.4,2.8
	C321.1,348.2,320.1,348.7,319.1,348.7z"/>
<path class="st2" d="M247.1,322.4c2.7-2,5.3-3.6,7.9-4.5c7.3-2.8,14.7-5.8,26.8-3.9c12.1,1.9,20.1,7.8,23,10
	c2.2,1.7,7.1,5.7,11.3,12.3c1.6,2.5,3.1,6.3,4.1,9.1c0.4,1-0.8,1.9-1.6,1.3c-1.4-0.9-2.9-2.2-4.8-2.6c-4.8-1-12.3-0.1-18.4,1.2
	c-0.1,0-5.8-6.7-10-9.5c-6.3-4.2-11.9-5.8-16.1-6.8c-4.4-1.1-12.2-2.8-17.6-0.4C251.4,328.5,247,322.4,247.1,322.4z"/>
<path class="st2" d="M310.1,293.9l0-2c0-0.9,0-3.5,0.1-5.9c0.1-4.7,0.2-6.3,2.3-6.3c3.1,0,6.5,7,6.5,7c0.2,0.5,0.8,2-0.2,3.1
	l-0.6,0.6l-0.9,0c-0.3,0-0.5-0.1-0.7-0.1c-0.1,0-0.3,0.1-0.5,0.2c-0.8,0.4-1.6,1.5-2,2.1c-0.4,0.5-0.9,1.3-2,1.3H310.1z"/>
<path class="st2" d="M312.4,281.7c-0.3,0-0.4,8.3-0.4,10.2c0,0.4,1.2-2.2,3.1-3.1c1.9-0.9,1.9-0.1,2.2-0.3
	C317.8,287.9,313.8,281.7,312.4,281.7z"/>
<path class="st3" d="M338.1,271.2c-1.2,0-2.4-0.7-2.8-1.9c-0.8-1.8-1.7-3.4-2.6-4.4c-2.7-3.1-12.1-7.4-17.9-9.5
	c-10.6-3.7-12.3-4.9-14-6.1l-0.4-0.3c-5.8-3.9-9.5-8.4-11.6-11.5c-1.2-1.7-4.1-6.6-6.6-15.1c-0.6-2-1-4.9-1.3-7
	c-0.3-2.6,0.7-5.1,2.7-6.6c0.2-0.2,0.4-0.3,0.6-0.4c2.1-1.2,5.4-1.8,9.1-1.8c2.4,0,4.9,0.3,7.2,0.8l1.1,0.3
	c7.5,1.8,15.3,3.6,24.3,11.8c9.6,8.8,13,18.6,14.1,21.9c1.9,5.5,2.8,11.4,2.8,17.2c0,3.1-0.9,7.3-1.7,10.2
	C340.7,270.3,339.5,271.2,338.1,271.2z"/>
<path class="st3" d="M285.1,210.3c3-1.7,9.3-2.1,14.9-0.8c7.6,1.8,15.4,3.3,24.5,11.6c9.1,8.3,12.4,17.6,13.6,21
	c0.9,2.6,2.8,8.7,2.6,16.5c0,2.9-0.9,7-1.6,9.8c-0.3,1-1.7,1.1-2.1,0.2c-0.7-1.6-1.6-3.5-2.9-4.9c-3.2-3.7-13.5-8.2-18.8-10.1
	c-11.2-4-12.2-5-14-6.1c-6.3-4.2-9.8-9.1-11.1-10.9c-1.1-1.6-4-6.4-6.3-14.5c-0.6-1.9-1-4.6-1.2-6.6c-0.2-1.8,0.5-3.7,2-4.8
	C284.9,210.4,285.1,210.3,285.1,210.3z"/>
<g>
	<path class="st4" d="M262.8,293.8l-0.6-0.7c-0.7-0.8-0.7-0.8,0.1-6c0.1-0.9,0.3-2.2,0.5-3.4l-0.7,0.7l-0.9,0
		c-1.7,0-3.7-2.7-3.9-2.9c-0.6-1.1-0.2-1.9,0-2.3c0.5-0.9,14.8-14.4,16.8-15l0.3-0.1l0.4,0c2.1,0,3.9,3.3,4,3.3
		c0.6,1.1,0.6,2,0.1,2.8c-0.2,0.3-0.6,1-7.1,6.2c0.7,0.8,1.5,1.7,2.3,2.7c4,4.8,4.7,5.6,3.3,7.1c-0.6,0.6-0.9,1-1.2,2.1
		c-0.2,1-1.1,1.6-2,1.6c0,0,0,0,0,0c-1.3,0-1.9-0.9-3.4-3.1c-0.2-0.3-0.4-0.6-0.7-1c0.1,4.4,0,6.5-1.8,7.2c-0.6,0.2-1.5,0.4-2.9,0.6
		c-0.5,0.1-0.9,0.1-1.3,0.2l-0.2,0h-0.2H262.8z"/>
	<path class="st4" d="M274.1,287.9c0.4-1.6,1-2.2,1.7-3c0.2-0.2-7-8.6-7-8.6s7.7-6.2,8.3-7c0.3-0.5-1.8-3.2-2.5-3
		c-1.1,0.3-15,13-15.7,14.2c-0.2,0.3,2.1,2.4,2.3,2.2c1.7-1.7,3.4-3.5,3.8-3.3c0.6,0.3-1.6,12.8-1.3,12.7c1.3-0.2,3.2-0.4,3.8-0.7
		c1-0.4,0.1-10.1,0.7-10.3c0.6-0.2,2.1,1.9,3.2,3.6C273,286.8,274,288.5,274.1,287.9z"/>
</g>
</svg>
