<?xml version="1.0" encoding="utf-8"?>
<!-- Generator: Adobe Illustrator 26.4.1, SVG Export Plug-In . SVG Version: 6.00 Build 0)  -->
<svg version="1.1" id="Layer_1" xmlns="http://www.w3.org/2000/svg" xmlns:xlink="http://www.w3.org/1999/xlink" x="0px" y="0px"
	 viewBox="0 0 566.9 566.9" style="enable-background:new 0 0 566.9 566.9;" xml:space="preserve">
<style type="text/css">
	.st0{fill:none;stroke:#B754A0;stroke-miterlimit:10;}
	.st1{fill:none;stroke:#3C54A4;stroke-miterlimit:10;}
	.st2{fill:none;stroke:#EC2E91;stroke-miterlimit:10;}
	.st3{fill:none;stroke:#E52328;stroke-miterlimit:10;}
</style>
<path class="st0" d="M394.9,400.9c-1.6,0-3-0.9-3.6-2.4c-1.4-3.4-3.1-6.2-4.8-8.2c-5.2-6-22.4-13.7-32.1-17.1
	c-18.4-6.5-21.4-8.5-24.2-10.5l-0.7-0.5c-10-6.7-16.4-14.4-20-19.8c-1.5-2.3-6.9-10.9-11.4-26.1c-1-3.5-1.8-8.4-2.2-12
	c-0.5-4,1.1-7.9,4.2-10.2c0.3-0.2,0.6-0.4,0.8-0.6c3.4-1.9,9-3,15.3-3c4.2,0,8.4,0.5,12.3,1.4l1.9,0.4c13,3.1,26.5,6.2,42,20.4
	c16.6,15.2,22.5,32.2,24.4,37.8c3.3,9.4,4.9,19.7,4.8,29.6c-0.1,5.3-1.6,12.5-2.9,17.7C398.2,399.7,396.7,400.9,394.9,400.9z"/>
<path class="st0" d="M301.9,295.4c5.3-3,16.4-3.8,26.2-1.4c13.3,3.2,27.1,5.9,43,20.4c15.9,14.5,21.8,30.9,23.9,37
	c1.6,4.6,4.9,15.3,4.6,28.9c-0.1,5.1-1.6,12.2-2.9,17.2c-0.5,1.8-2.9,2-3.7,0.3c-1.2-2.8-2.9-6.1-5.1-8.7
	c-5.6-6.6-23.7-14.4-33-17.7c-19.7-7-21.5-8.8-24.5-10.8c-11-7.4-17.2-16-19.4-19.2c-2-2.9-6.9-11.3-11.1-25.5
	c-1-3.3-1.7-8.1-2.1-11.7c-0.4-3.2,0.9-6.5,3.4-8.4C301.5,295.6,301.7,295.5,301.9,295.4z"/>
<path class="st1" d="M93.5,422.3c-1.4,0-2.7-0.1-4-0.4c-6.4-1.4-9.1-6-10.2-8.5c-0.1,0-0.2,0-0.3,0c-2.6,0-7.8-0.3-12.9-2.7
	c-5.9-2.7-12-5.8-20.9-14c-1.7-1.5-3.2-2.9-4.7-4.2c-6.2-5.6-11.1-9.9-16.5-18.4c-3.8-5.9-10.2-20.9-12.9-31.4
	c-8.8-34.6-5.2-55.2,5.7-85.7c4.1-11.6,13.5-23.6,20.5-29.9c11.9-10.7,21.2-12,24.5-12.5c1.8-4.8,6.3-5.6,9.3-6.2
	c0.3,0,0.5-0.1,0.8-0.1c0.7-2.8,1.8-11.2,2.2-15.9c-0.1,0.1-0.3,0.3-0.4,0.4c-1,1.1-2.2,2.4-3.4,3.4l-1.2,0.9l-1.2-0.9
	c-4.7-3.6-4.8-5.3-4.3-6.5c0.9-2.1,10.9-11.1,14-13.8c13.3-11.9,14.8-11.9,15.6-11.9h0.3l0.4,0.1c1.8,0.6,4.6,3.8,5.2,5.6
	c0.4,1.2,0.2,2.1-0.2,2.5c-1.9,3-8.4,7.9-13.5,11.6c4.2,4.3,7.1,8.2,9,10.7c0.4,0.6,0.9,1.2,1.3,1.7c2.8-1.4,6.3-2.7,13.5-2.7
	c2.5,0,5.3,0.2,8.6,0.5c12,1.2,36.9,8.2,53.7,26.5c18.8,20.4,27,51.5,23.7,68.7c-0.2,1.2-0.4,2.6-0.6,3.9
	c-0.8,5.5-1.5,10.6-5.3,10.8c-0.1,0-0.2,0-0.3,0c-2.7,0-3.7-2.2-4.6-4.2c-0.9-2-1.9-4.4-4.7-6.8c-6.2-5.6-15.7-10.6-20.5-12.9
	c1.3,7.6,2.7,22.8,1.1,35.8c-0.2,1.5-0.4,3.1-0.6,4.8c-2,17.2-5.3,46-19.1,65c-10.9,14.9-16.3,17.9-29.2,22
	c-0.3,3.2-1.6,6.2-3.9,9.1C104.5,420,98.9,422.3,93.5,422.3z"/>
<path class="st1" d="M73.2,210c0.8-0.2,3.5-20.4,2.5-21.2c-1.2-0.9-4.1,3.7-6.9,5.8c0,0-4.1-3.2-3.7-4.1c1-2.3,26.2-25.1,27.9-24.6
	c1.3,0.4,4.6,4.3,4,5.2c-1.9,3-9.9,8.8-13.2,11.2c-0.8,0.6-1.1,1.8-0.4,2.5c7.4,7.5,10.9,14.1,11.7,13.7c4-1.9,7.9-4.1,22.1-2.6
	c9.7,1,35.1,7,52.5,25.8c17.9,19.4,26.5,49.7,23.2,66.9c-1,5.5-1.3,13-4.1,13.1c-3.1,0.2-2.1-5.2-8-10.6
	c-6.9-6.2-17.5-11.5-22.2-13.7c-1-0.5-2.1,0.4-1.9,1.5c1.2,6.2,3,22.3,1.3,36.4c-2,15.9-4.4,48.4-19.3,68.9
	c-11,15-15.9,17.4-29.5,21.7c-0.1,0,0.5,4.3-3.6,9.3c-2.8,3.4-9.5,6-15.8,4.6c-7.6-1.6-9.2-8.6-9.2-8.6s-6.9,0.7-13.8-2.5
	c-6.2-2.8-11.9-5.8-20.4-13.7c-8.6-7.9-14.3-12-20.8-22.2c-3.8-6-10.1-21-12.6-30.9c-8.5-33.5-5.4-53.6,5.6-84.5
	c4-11.3,13.2-23.1,19.9-29.1c14.3-12.9,24.6-11.6,24.7-12.3C64.6,210.6,70,210.8,73.2,210z"/>
<path class="st2" d="M495.7,359.5c-0.2,0-0.4,0-0.6,0c-7.4-0.4-12.3-3.4-14.6-9c-8-0.2-15.6-2.9-22.5-7.8
	c-17.6-12.6-29.2-24.7-35.5-37c-19.7-38.5-14.9-71.2-13-80.3l0.5-2.4c3.6-17,10.2-48.7,37.8-65.9c5.7-3.6,10.7-4.5,13.7-5.1
	c0.6-0.1,1.4-0.3,1.8-0.4c2.6-6,10.8-6.5,11.2-6.5c0.5,0,1.1-0.1,1.6-0.1c1.6-0.1,3.2-0.2,4.8-0.2c4.3,0,9.8,0.6,14.1,4.9
	c0.4,0.5,0.5,0.7,1.1,3c1.5,5.5,6,22.1,14.9,32.6c13.5,15.9,37,24.3,46.4,27.2c0.7,0.2,1.5,0.4,1.8,1.4c4.5,13.3,1.6,48.4-3.6,73.3
	c-3.3,15.4-7.4,29.7-24.9,48c-4.3,4.5-13.7,7.9-17.8,9.3c-0.1,0-0.3,0.1-0.4,0.1C510.8,355.5,501.4,359.5,495.7,359.5
	C495.7,359.5,495.7,359.5,495.7,359.5z"/>
<path class="st2" d="M449,158.6c-28.3,17.6-34.1,51.5-37.4,67.1c-2.7,12.9-5,44.1,12.8,79c7.7,15,22.5,27.5,34.9,36.3
	c11.9,8.5,22.6,7.3,22.7,7.5c2.2,7,7.9,8.7,13.3,9c5.2,0.3,14.4-3.6,15.7-14.3c0-0.2,13.5-4.1,18.5-9.4
	c17.4-18.2,21.2-32.1,24.4-47.1c5-23.5,8.2-58.8,3.7-72.2c0-0.1-31.3-8.4-47.9-28c-11.2-13.2-15.4-35-15.9-35.5
	c-5.2-5.3-12.8-4.4-19.1-4.1c-0.9,0-7.8,0.7-9.6,5.7C464.5,154.2,457.7,153.2,449,158.6z"/>
<path class="st3" d="M290.7,237.6l-0.6-0.7c-0.7-0.8-0.7-0.8,0.3-8.1c0.4-3.2,1.1-8.2,1.5-11.5c-0.6,0.6-1.3,1.3-1.9,1.9
	c-0.5,0.5-2,2-2,2l-0.9,0c-1.9,0-5-3.5-5.5-4.4c-0.7-1.2-0.3-2-0.1-2.4c1.2-2.1,26.1-24.9,28.7-25.7c0.2-0.1,0.5-0.1,0.7-0.1
	c2.7,0,5.6,4.9,5.6,5c0.3,0.5,1.1,2.1,0.3,3.5c-0.3,0.4-1,1.5-13.3,11.5c1.6,1.9,4.2,4.9,6.5,7.7c1.4,1.7,2.6,3.1,3.3,4.1
	c1.3,1.7,2.4,3.2,1.1,4.5c-1.2,1.2-1.9,2-2.5,4.4c-0.3,1-1.1,1.7-2.1,1.7c0,0,0,0,0,0c-1.5,0-2.2-1.1-4.7-4.8
	c-0.5-0.7-1-1.5-1.6-2.3c-0.5-0.8-1.4-2-2.2-3.2c0,0.8,0.1,1.6,0.1,2.3c0.4,7.6,0.4,11.3-1.2,13c-0.5,0.5-1.2,0.9-1.9,0.9h-0.1
	l-0.2,0c-0.6-0.1-1.2-0.1-1.7-0.1c-1.5,0-2.7,0.3-3.7,0.8l-0.5,0.3l-0.5,0H290.7z"/>
<path class="st3" d="M310,228.6c0.7-2.8,1.7-3.9,3-5.3c0.4-0.4-8.6-10.8-11.5-14.2c-0.5-0.5-0.4-1.4,0.2-1.8
	c3.2-2.6,12.7-10.3,13.5-11.5c0.6-0.9-3.2-5.7-4.4-5.3c-1.9,0.6-26.4,22.9-27.6,24.9c-0.4,0.6,3.6,4.2,4,3.8c3-3,5.9-6.2,6.7-5.9
	c1.1,0.5-2.7,22.5-2.2,22.3c1.8-1,4-1.2,6.6-0.9c3,0.3,0.1-17.9,1.4-18.3c1.1-0.4,3.6,3.4,5.6,6.2C308,226.7,309.7,229.7,310,228.6z
	"/>
</svg>
