<?xml version="1.0" encoding="utf-8"?>
<!-- Generator: Adobe Illustrator 26.4.1, SVG Export Plug-In . SVG Version: 6.00 Build 0)  -->
<svg version="1.1" id="Layer_1" xmlns="http://www.w3.org/2000/svg" xmlns:xlink="http://www.w3.org/1999/xlink" x="0px" y="0px"
	 viewBox="0 0 566.9 566.9" style="enable-background:new 0 0 566.9 566.9;" xml:space="preserve">
<style type="text/css">
	.st0{fill:none;stroke:#ED2784;stroke-miterlimit:10;}
	.st1{fill:none;stroke:#010101;stroke-miterlimit:10;}
	.st2{fill:none;stroke:#3C54A4;stroke-miterlimit:10;}
	.st3{fill:none;stroke:#46BCEC;stroke-miterlimit:10;}
</style>
<path class="st0" d="M406.5,264.2l-0.6-0.7c-0.8-0.9-0.8-0.9,0.5-9.7c0.5-3.3,1.1-8,1.5-11.2c-0.7,0.7-1.5,1.5-2.2,2.2
	c-0.5,0.5-2,2.1-2,2.1l-0.9,0c-2,0-5.2-3.6-5.7-4.6c-0.7-1.2-0.3-2-0.1-2.5c1.3-2.2,27.5-26.2,30.2-27c0.2-0.1,0.5-0.1,0.7-0.1
	c2.8,0,5.8,5.1,5.8,5.2c0.3,0.5,1.2,2.2,0.3,3.5c-1,1.5-9.2,8.2-14.1,12.2c1.3,1.5,3.3,3.9,5.3,6.3c1.9,2.3,3.4,4.2,4.5,5.5
	c2,2.5,3.1,3.9,1.7,5.3c-1.2,1.2-2,2.1-2.7,4.6c-0.3,1-1.1,1.7-2.1,1.7l0,0c-1.5,0-2.3-1.2-4.8-5c-0.5-0.8-1.1-1.6-1.7-2.5
	c-0.7-1-1.7-2.5-2.7-3.8c0,1.5,0,3.4,0,4.9c0,2.6,0.1,5.3,0,7.3c-0.1,2.2-0.2,5.3-2.7,5.3c-2.1,0-4.4,0.4-6.6,0.8l-0.5,0.1h-0.2
	H406.5z"/>
<path class="st0" d="M426.7,254.8c0.8-2.9,1.8-4.1,3.2-5.5c0.5-0.5-13-16-13-16s14.2-11.5,15.2-13c0.6-1-3.4-6-4.6-5.6
	c-2,0.6-27.8,24.1-29,26.2c-0.4,0.6,3.8,4.4,4.2,4c3.2-3.2,6.3-6.5,7-6.2c1.1,0.5-3,23.6-2.4,23.5c2.4-0.4,4.9-0.9,7.3-0.9
	c1.7,0-0.1-19,1.1-19.4c1.1-0.4,3.8,3.6,5.9,6.6C424.6,252.8,426.4,256,426.7,254.8z"/>
<path class="st1" d="M597.3,415.5c-0.2,0-0.4,0-0.6,0c-7.8-0.4-12.9-3.6-15.3-9.5c-8.4-0.2-16.4-3-23.6-8.2
	c-18.5-13.3-30.7-26-37.3-38.9c-20.7-40.5-15.7-74.9-13.6-84.4c0.2-0.8,0.3-1.6,0.5-2.5c3.7-17.9,10.7-51.2,39.7-69.3
	c6-3.8,11.2-4.7,14.3-5.3c0.7-0.1,1.5-0.3,1.9-0.4c2.7-6.3,11.3-6.8,11.7-6.8c0.6,0,1.1-0.1,1.7-0.1c1.6-0.1,3.3-0.2,5.1-0.2
	c4.5,0,10.3,0.6,14.8,5.2c0.4,0.4,0.5,0.7,1,2.6c5.3,21,13.9,35.9,25.6,44.5c10.5,7.7,23.9,14.2,39.6,19.2c1.7,0.5,2.7,0.9,2.7,2.4
	c0,0.9,0,2.2,0,3.8c0.1,12.8,0.4,46.8-4.3,69.1l-0.3,1.5c-3.2,15.1-6.8,32.3-26.8,52.1c-4.6,4.6-14.4,8.2-18.5,9.7
	c-0.2,0.1-0.4,0.1-0.5,0.2C613,411.3,603.2,415.5,597.3,415.5C597.3,415.5,597.3,415.5,597.3,415.5z"/>
<path class="st1" d="M548.1,204.3c-29.7,18.6-35.8,54.1-39.3,70.6c-2.9,13.6-5.3,46.4,13.4,83.1c8,15.8,23.7,28.9,36.7,38.2
	c12.5,9,23.8,7.7,23.9,7.9c2.3,7.3,8.3,9.2,14,9.4c5.5,0.3,15.1-3.8,16.6-15c0-0.2,14-4.5,19.4-9.9c20.2-20,23.2-36.8,26.6-52.6
	c5.2-24.7,4.2-63.7,4.2-72.4c0-0.2-22.7-6.2-41.6-20c-20.9-15.3-26.3-46.8-26.8-47.3c-5.5-5.6-13.5-4.6-20.1-4.3
	c-0.9,0-8.2,0.8-10.1,6C564.4,199.7,557.2,198.6,548.1,204.3z"/>
<path class="st1" d="M384.5,409.8c-1.6,0-3.1-0.9-3.7-2.4c-1.5-3.5-3.3-6.5-5-8.6c-5.4-6.3-23.6-14.4-33.8-18
	c-19.3-6.8-22.4-9-25.5-11.1c-0.2-0.2-0.5-0.3-0.7-0.5c-10.5-7-17.2-15.2-21-20.8c-1.6-2.4-7.3-11.5-12-27.4
	c-1.1-3.7-1.8-8.9-2.3-12.6c-0.5-4.1,1.2-8.2,4.4-10.7c0.3-0.2,0.6-0.4,0.9-0.6c3.6-2,9.5-3.2,16.1-3.2c4.4,0,8.9,0.5,12.9,1.5
	l2,0.5c13.7,3.2,27.8,6.6,44.1,21.5c17.4,16,23.6,33.8,25.6,39.7c3.4,9.9,5.2,20.7,5,31.1c-0.1,5.6-1.7,13.2-3.1,18.6
	C388,408.6,386.4,409.8,384.5,409.8z"/>
<path class="st1" d="M286.7,298.9c5.5-3.1,17.3-4,27.6-1.5c14,3.3,28.5,6.2,45.2,21.5c16.7,15.3,22.9,32.5,25.1,38.9
	c1.7,4.9,5.1,16.1,4.9,30.4c-0.1,5.4-1.7,12.9-3,18.1c-0.5,1.9-3.1,2.1-3.8,0.3c-1.2-2.9-3-6.4-5.4-9.1
	c-5.9-6.9-24.9-15.2-34.7-18.6c-20.8-7.3-22.6-9.2-25.8-11.3c-11.6-7.7-18.1-16.8-20.4-20.2c-2.1-3-7.3-11.9-11.7-26.8
	c-1-3.5-1.8-8.6-2.2-12.3c-0.4-3.4,0.9-6.8,3.6-8.9C286.3,299.1,286.5,299,286.7,298.9z"/>
<path class="st2" d="M27.5,418.7c-5.9,0-11.5-3-13-4.5c-1.9-1.9-2.7-3.7-3.1-5.1c-0.5,0.1-1.1,0.1-1.8,0.1c-2.9,0-7.8-0.7-14.2-4
	c-10.3-5.3-22.9-15.1-31.4-24.4c-12.1-13.3-14.6-19.8-21.3-37.1l-0.1-0.2c-6.2-15.9-7.2-32.4-7.5-38.6l0-0.3
	c-0.8-13.6,1.1-24.7,2.3-30.4c-3.8,1.8-10,5.1-16.3,9.3c-3.8,2.6-5.5,5.6-7.5,9.4c-0.6,1.1-1.2,2.3-1.9,3.5c-0.5,0.8-1.9,2-3.6,2
	c-0.8,0-2.7-0.3-3.6-3c-3.6-10.6-3.5-18-3.5-24c0-1.2,0-2.3,0-3.3c-0.3-16.9,13.2-42.6,18.5-50c12.5-17.1,30.8-27.5,43.7-31.4
	c10.7-3.3,20.1-4.9,27.7-4.9c7.2,0,11.4,1.4,13.8,2.6c0.1-0.6,0.2-1.3,0.3-1.9c0.2-1.8,0.5-3.9,0.7-5.6c-1,1.3-2.3,2.7-4,3.8
	c-0.3,0.2-0.7,0.3-1.1,0.3c-1.9,0-5.1-3.3-5.7-4.5c-0.4-0.9-0.3-1.8,0.3-2.5c7-7.6,16.7-17.5,29-26.5c0.4-0.3,0.9-0.5,1.5-0.5
	c2.3,0,5.4,3.4,6.3,5.5c0.9,2.1-0.1,3.4-0.5,3.8c-4,3.8-10.4,9.2-13.4,11.6c2.7,3.1,8.4,9.6,10.8,12.7c2.7-0.8,9-2.6,14.4-2.6
	c0.5,0,1.1,0,1.6,0.1c12.3,0.9,23.1,3,39.1,10.6c11.3,5.4,24.6,13.3,38.6,38.8c16,29.3,11.3,55.7,8.2,63.5c-0.7,1.6-2.3,3.3-4.2,3.3
	c-1,0-2.8-0.4-3.8-3.3c-1.6-4.4-3.8-7.1-4.7-8.1c-3.3-3.7-5.3-4.6-8.9-6.4c-0.8-0.4-1.6-0.8-2.5-1.3c-3.1-1.6-7.3-3.6-10.4-5
	c1,6.6,1.4,22.1-2.8,57.8c-4.9,41.1-20.8,58.4-32.3,67.8c-4.1,3.4-11.9,6-16,7.2c0,2.7-0.9,8.6-10.2,14.1
	C32.7,418,30.2,418.7,27.5,418.7z"/>
<path class="st2" d="M6.3,187.2c0.7-5.6,2.1-14.5,1.6-14.7c-2.3-0.6-3.6,4-7.3,6.2c-0.6,0.4-4.5-3.1-4-3.7
	c8-8.6,17.2-17.8,28.7-26.3c1.1-0.8,6.2,4.3,4.7,5.8c-5.2,5-14.9,12.8-14.9,12.8s11.3,12.8,12.9,15.2c0.1,0.1,9.7-3.3,16.6-2.8
	c11,0.8,21.9,2.6,38.4,10.4c11.4,5.4,24.2,13.4,37.7,37.9c15.8,28.9,11.1,54.5,8.1,61.8c-0.7,1.7-3.1,3.6-4.3,0.1
	c-1.4-3.9-3.4-6.9-5.1-8.8c-4.3-4.7-6.6-5.3-11.9-8.1c-5.4-2.8-14.2-6.8-14.2-6.8s4.7,6.5-1.8,61.1c-5,41.9-21.4,58.2-31.6,66.5
	c-5.1,4.2-16.6,7.2-16.7,7.2c-0.6,0.2,2.2,7.1-9.3,13.9c-6.9,4.1-16.3-0.6-17.9-2.2c-3.1-3.1-2.8-6.1-2.8-6.1s-5.8,2.3-16.8-3.3
	c-10-5.1-22.5-14.8-30.8-24c-11.9-13.1-14.2-19.1-21-36.7c-6.2-15.9-7.1-32.5-7.4-38.3c-1.2-19.4,3.3-33.8,3.3-33.8
	s-10,4.2-20.3,11.2c-5.4,3.6-6.9,8.2-10.1,13.5c-0.3,0.5-2.6,2.4-3.7-0.7c-4.2-12.4-3.2-20.4-3.3-26.7c-0.2-16.1,12.5-41,18.2-48.8
	c13-17.8,31.7-27.3,42.7-30.7C-0.9,177.6,6.2,188.3,6.3,187.2z"/>
<path class="st3" d="M221.4,278.2c-1.1,0-3.8-0.5-4.9-5.4c-4.9-22.4-6.9-56.3,32.3-92c12.8-11.6,39.2-19.4,55.9-19.4
	c7.6,0,12.9,1.5,15.8,4.5c0.6,0.6,1.4,1.4-0.3,9.5l-0.3,1.5l-1.6,0c-0.1,0-7.4,0.3-8.6,4.8c-0.4,1.7-2,2-4.1,2.4
	c-3.8,0.8-11.7,2.3-22.9,11.5c-19.8,16.1-27.4,54.9-27.5,55.3l-0.2,1l-1,0.4c-0.2,0.1-19.4,8.5-24.6,15.3c-1.9,2.6-3,4.8-3.7,6.3
	c-0.6,1.2-1,2.1-1.6,2.8C223.5,277.8,222.4,278.2,221.4,278.2L221.4,278.2z"/>
<path class="st3" d="M319.1,167.3c-9.5-9.7-52.5,0-69,15c-38.8,35.3-36.4,68.9-31.7,90.1c0.9,4.3,3.3,4.3,4.4,3.2
	c1.1-1.1,1.8-4.4,5.2-9c5.5-7.3,25.4-16,25.4-16s7.6-39.7,28.2-56.5c16.3-13.3,25.9-11.2,26.3-12.9c1.6-6.1,10.4-6.3,10.4-6.3
	S319.8,168,319.1,167.3z"/>
</svg>
