<?xml version="1.0" encoding="utf-8"?>
<!-- Generator: Adobe Illustrator 26.4.1, SVG Export Plug-In . SVG Version: 6.00 Build 0)  -->
<svg version="1.1" id="Layer_1" xmlns="http://www.w3.org/2000/svg" xmlns:xlink="http://www.w3.org/1999/xlink" x="0px" y="0px"
	 viewBox="0 0 566.9 566.9" style="enable-background:new 0 0 566.9 566.9;" xml:space="preserve">
<style type="text/css">
	.st0{fill:none;stroke:#871632;stroke-miterlimit:10;}
</style>
<path class="st0" d="M581,449.4c-1.6,0-3-0.9-3.7-2.4c-1.5-3.5-3.2-6.4-4.9-8.4c-5.3-6.2-23.1-14.1-33.1-17.6
	c-18.9-6.7-22-8.8-25-10.8c-0.2-0.2-0.5-0.3-0.7-0.5c-10.3-6.9-16.8-14.8-20.6-20.3c-1.6-2.4-7.1-11.2-11.7-26.8
	c-1-3.6-1.8-8.7-2.2-12.3c-0.5-4.1,1.1-8.1,4.3-10.5c0.3-0.2,0.6-0.4,0.8-0.6c3.5-2,9.3-3.1,15.8-3.1c4.3,0,8.7,0.5,12.7,1.5
	l1.9,0.5c13.4,3.2,27.2,6.4,43.2,21c17.1,15.6,23.1,33.1,25.1,38.9c3.4,9.7,5,20.3,4.9,30.5c-0.1,5.5-1.7,12.9-3,18.2
	C584.4,448.2,582.8,449.4,581,449.4z"/>
<path class="st0" d="M485.2,340.7c5.4-3,16.9-3.9,27-1.5c13.7,3.3,27.9,6.1,44.3,21c16.4,15,22.4,31.8,24.6,38.1
	c1.7,4.8,5,15.7,4.8,29.8c-0.1,5.3-1.7,12.6-3,17.7c-0.5,1.9-3,2.1-3.8,0.3c-1.2-2.9-3-6.3-5.2-8.9c-5.8-6.8-24.4-14.8-33.9-18.2
	c-20.3-7.2-22.1-9-25.2-11.1c-11.3-7.6-17.7-16.4-20-19.8c-2-3-7.2-11.6-11.4-26.3c-1-3.4-1.7-8.4-2.2-12c-0.4-3.3,0.9-6.7,3.5-8.7
	C484.9,341,485.1,340.8,485.2,340.7z"/>
<path class="st0" d="M549.8,253.4l-0.6-0.7c-0.8-0.9-0.8-0.9,0.5-9.5c0.4-3.2,1.1-7.7,1.4-10.8c-0.7,0.7-1.4,1.4-2,2
	c-0.5,0.5-2,2-2,2l-0.9,0c-1.9,0-5.1-3.6-5.6-4.5c-0.7-1.2-0.3-2-0.1-2.5c1.3-2.1,26.9-25.7,29.5-26.5c0.2-0.1,0.5-0.1,0.7-0.1
	c2.8,0,5.7,5.1,5.7,5.1c0.3,0.5,1.2,2.1,0.3,3.5c-0.9,1.4-8.4,7.6-13.7,11.9c1.3,1.5,3.2,3.8,5.2,6.1c1.9,2.3,3.4,4.1,4.4,5.4
	c2,2.5,3,3.9,1.6,5.3c-1.2,1.2-2,2.1-2.6,4.5c-0.3,1-1.1,1.7-2.1,1.7h0c-1.5,0-2.3-1.1-4.8-4.9c-0.5-0.7-1-1.6-1.6-2.4
	c-0.6-0.9-1.6-2.4-2.6-3.6c0,1.2,0,2.6,0,3.8c0.1,9.5-0.1,12-2.2,12.8c-0.9,0.4-2.5,0.6-4.9,1c-0.9,0.1-1.7,0.3-2.4,0.4l-0.2,0h-0.2
	H549.8z"/>
<path class="st0" d="M569.7,244.2c0.7-2.9,1.8-4,3.1-5.4c0.4-0.4-12.7-15.6-12.7-15.6s13.9-11.2,14.9-12.7c0.6-0.9-3.3-5.9-4.5-5.5
	c-1.9,0.6-27.2,23.5-28.4,25.6c-0.4,0.6,3.7,4.3,4.1,3.9c3.1-3.1,6.1-6.3,6.9-6c1.1,0.5-2.9,23.1-2.4,23c2.3-0.4,5.8-0.8,6.9-1.2
	c1.9-0.7,0.1-18.2,1.3-18.7c1.1-0.4,3.7,3.5,5.7,6.4C567.6,242.2,569.4,245.3,569.7,244.2z"/>
<path class="st0" d="M71.8,432.8c-0.4,0-0.7,0-1.1,0c-8.9-0.6-12.9-5.5-14.2-9.2c-0.5,0.1-1.1,0.1-1.8,0.1c-6.4,0-20.6-3.5-43-26.6
	c-15.9-16.5-24.6-35.7-29-64.4c-4.5-29.6,4.3-60.8,14.2-80.1c4-7.9,9.7-15.2,16.5-21.3c7.2-6.4,13.7-9.3,16.2-10.3
	c0.2-1.7,0.6-3.8,0.9-6.1c0.5-3.5,1.3-8.5,1.8-11.9c-0.2,0.2-0.5,0.5-0.7,0.7c-1,1-2,2.1-3.1,3.1c-0.4,0.4-0.9,0.6-1.4,0.6
	c0,0,0,0,0,0c-1.9,0-5.1-3.4-5.7-4.7c-0.4-0.9-0.3-1.9,0.3-2.5c7.8-8.4,20.2-19.3,28.5-25.9c0.4-0.3,0.9-0.5,1.4-0.5
	c2.5,0,5.3,4,5.4,4c1.1,1.6,1.4,2.9,1,4c-0.6,1.8-4.2,4.9-12,10.9c-0.7,0.6-1.4,1.1-2,1.6c0.3,0.4,0.7,0.8,1.1,1.2
	c6.5-5.3,12.4-7.5,20.3-10.4c1.5-0.6,3.1-1.1,4.8-1.8c7.8-3,17.5-4.7,26.6-4.7c2,0,4,0.1,5.9,0.3c21.2,2,35.9,9.8,42.8,14.3
	c15.5,10.1,25.5,21.1,31.4,34.6c0.2,0.6,0.6,1.2,0.9,1.9c2.1,4.3,3.4,7.5,2.4,9.9c-0.4,1-1.2,1.7-2.3,2c-0.4,0.1-0.8,0.2-1.2,0.2
	c-1.5,0-2.7-0.8-4.2-1.7c-2.5-1.6-5.9-3.7-12.5-3.7c-0.5,0-1,0-1.5,0c-10.8,0.5-17.6,1.8-21,2.6c4.6,6.2,16,23.8,18.4,47.2
	c1.2,11.4,0.3,15.7-1.4,23.6c-0.3,1.4-0.6,2.9-0.9,4.5c-0.2,1.2-2.1,3.5-4.3,3.5c-0.9,0-2.6-0.4-3.7-3c-1.3-3.2-3.4-6.3-5-8.3
	c-2.1,42.5-9.4,72.9-20.9,88.1c-12.5,16.3-16.5,18-30.4,23.1c0,0,0,0.1,0,0.1c-0.3,1.7-1,5-3.9,8.7
	C82.4,430.3,77.1,432.8,71.8,432.8z"/>
<path class="st0" d="M14.6,232.7c8.8-7.8,16.7-10.2,16.7-10.4c0.9-6.2,3.7-22.7,3.1-23.2c-1-1-4.2,3.3-7.3,6.2
	c-0.5,0.4-4.6-3.3-4-3.9c7.9-8.5,20.5-19.6,28.2-25.7c0.8-0.7,5.3,3.7,4.8,5.3c-0.8,2.2-12.2,10.6-14.8,12.8
	c-0.4,0.3,3.6,4.3,3.8,4.2c8.1-7,14.8-8.8,25.8-13c9.4-3.6,21.7-5.2,31.7-4.3c17.9,1.7,32.4,7.8,41.9,14
	c14.1,9.2,24.5,19.7,30.7,33.7c1.5,3.5,5.5,10.1,2.3,11.2c-2.9,0.9-6-5.9-18.8-5.3c-17.1,0.8-24.3,3.4-24.3,3.4s16.9,20.1,19.8,48.5
	c1.4,13.1-0.1,16.4-2.3,27.5c-0.1,0.7-2.7,3.9-4.2,0.1c-2.5-6.1-8.1-12.5-8.6-11.6c-0.3,0.5-1,65.1-20.8,90.9
	c-12.3,16-15.8,17.4-30.3,22.8c-0.7,0.2-0.1,4.2-3.9,9.1c-2.8,3.6-7.9,6-13.2,5.7c-11.9-0.8-12.9-9.5-12.9-9.5s-14.4,5.9-44.8-25.5
	c-13.8-14.2-23.7-32.1-28.5-63.4c-4.4-28.7,3.9-59.2,14-78.9C2.6,245.5,8.3,238.4,14.6,232.7z"/>
<path class="st0" d="M345.1,448.8c-0.2,0-0.4,0-0.6,0c-7.6-0.4-12.7-3.5-15-9.3c-8.2-0.2-16-2.9-23.1-8c-18.1-13-30-25.5-36.5-38.1
	c-20.3-39.7-15.3-73.3-13.3-82.7c0.2-0.8,0.3-1.6,0.5-2.5c3.7-17.5,10.5-50.1,38.9-67.8c6-3.7,10.6-4.5,13.5-5
	c0.5-0.1,1.1-0.2,1.5-0.3c1.6-3.5,6.8-6.8,9.6-6.8c0.4,0,0.9,0.1,1.2,0.2c1.9,0.8,2.1,3.2,2.2,4.2l0.1,1.3
	c0.7,6.4,1.3,12.5,3.9,18.2c0.6,1.2,1.1,2.7,1.8,4.3c2.5,6.5,6.3,16.4,16.7,25.7c12.5,11.3,19.3,13.6,30.5,17.5c2.8,1,6,2,9.6,3.4
	c7.1,2.6,14.2,6.5,17.9,8.5c9.5,5.4,9.5,6.1,9.4,7.2c-1,20.6-2.3,35-6,52.6l-0.3,1.5c-3.1,14.8-6.6,31.6-26.2,51
	c-4.5,4.5-14.1,8-18.1,9.5c-0.2,0.1-0.4,0.1-0.5,0.2C360.6,444.6,351,448.8,345.1,448.8L345.1,448.8z"/>
<path class="st0" d="M297,242c-29.1,18.2-35.1,53-38.5,69.1c-2.8,13.3-5.2,45.4,13.2,81.4c7.9,15.4,23.2,28.3,35.9,37.4
	c12.2,8.8,23.3,7.5,23.4,7.7c2.3,7.2,8.1,9,13.7,9.2c5.3,0.3,14.8-3.7,16.2-14.7c0-0.2,13.7-4.4,19-9.7c19.8-19.6,22.7-36,26-51.4
	c3.7-17.4,4.9-31.9,5.9-52.2c0-0.6-13.8-9.3-26-13.8c-17.6-6.6-24.6-6.7-40.7-21.2c-13.2-11.9-16-24.4-18.9-30.7
	c-2.9-6.4-3.5-13-4.2-20c0-0.5-0.1-2.4-1-2.7c-1.6-0.7-7.3,2.7-8.5,6C312,237.8,306,236.4,297,242z"/>
<path class="st0" d="M481.1,182.5c-0.7,0-1.5-0.2-2.1-0.6c-0.5-0.3-1-0.7-1.5-1c-2-1.4-4.1-2.8-6.5-3.2c-2-0.4-4.5-0.6-7.3-0.6
	c-8.5,0-18.4,1.8-25.1,3.3l-0.2,0c0,0-0.2,0-0.2,0c-0.9,0-1.1-0.3-2.4-1.6c-2.7-2.9-11-11.7-17.1-15.6c-10.9-7-20.5-9.7-28.6-11.7
	c-4.6-1.1-11.6-2.6-18.5-2.6c-4.8,0-8.9,0.8-12.1,2.2l-0.4,0.2l-0.4,0c-1.1,0-1.2,0-5.8-6c-4.1-5.5-4.3-5.9-4.4-6.2l-0.5-1.4
	l1.1-0.9c5.7-4.3,10.2-6.9,14.6-8.7l0.9-0.4c10.3-4.1,21.1-8.4,36.2-8.4c3.9,0,8.1,0.3,12.3,0.9c22.9,3.2,37.8,14.2,42.7,17.8
	c8.3,6.1,15.6,13.8,21.3,22.3c3,4.5,5.9,11.6,7.8,16.7c0.5,1.2,0.3,2.6-0.4,3.6C483.6,181.8,482.4,182.5,481.1,182.5z"/>
<path class="st0" d="M350.2,138.4c4.9-3.7,9.5-6.6,14.1-8.4c13.1-5.2,26.4-10.8,48.4-7.8c22,3.1,36.5,13.5,41.8,17.4
	c4.1,3,13,10.1,20.8,21.8c2.9,4.4,5.8,11.3,7.6,16.3c0.7,1.8-1.3,3.4-2.9,2.4c-2.6-1.7-5.3-3.8-8.7-4.5c-8.7-1.7-22.2,0.2-33.2,2.8
	c-0.1,0-10.8-12-18.4-16.9c-11.5-7.4-21.7-10.1-29.2-11.9c-8.1-1.9-22.2-4.8-31.9-0.2C358.2,149.4,350,138.5,350.2,138.4z"/>
<path class="st0" d="M278.7,193.1l0-2.1c0-1.6,0-6.2,0.2-10.6c0.1-2.4,0.1-4.2,0.2-5.6c0.1-2.3,0.3-4.2,2.3-4.2
	c3.8,0,9.4,9.8,10.3,11.8c0.3,0.8,1.1,2.6-0.1,3.9c-0.4,0.4-1,0.7-1.6,0.7h0c-0.5,0-0.9-0.2-1.1-0.3c-0.2,0-0.7,0.1-1.8,0.6
	c-1.8,0.9-3.4,3.1-4.2,4.2c-0.6,0.9-1.2,1.6-2.3,1.6H278.7z"/>
<path class="st0" d="M281.4,172.6c-0.6,0-0.7,14.9-0.7,18.4c0,0.7,2.2-3.9,5.6-5.6c3.5-1.7,3.5-0.2,3.9-0.6
	C291.2,183.8,283.8,172.6,281.4,172.6z"/>
</svg>
