<?xml version="1.0" encoding="utf-8"?>
<!-- Generator: Adobe Illustrator 26.4.1, SVG Export Plug-In . SVG Version: 6.00 Build 0)  -->
<svg version="1.1" id="Layer_1" xmlns="http://www.w3.org/2000/svg" xmlns:xlink="http://www.w3.org/1999/xlink" x="0px" y="0px"
	 viewBox="0 0 566.9 566.9" style="enable-background:new 0 0 566.9 566.9;" xml:space="preserve">
<style type="text/css">
	.st0{fill:none;stroke:#ED2784;stroke-miterlimit:10;}
	.st1{fill:none;stroke:#010101;stroke-miterlimit:10;}
	.st2{fill:none;stroke:#3C54A4;stroke-miterlimit:10;}
	.st3{fill:none;stroke:#46BCEC;stroke-miterlimit:10;}
</style>
<path class="st0" d="M407.4,272.1c-2.9,0-5.6-1.2-7.5-3.4l0,0c-3-3.5-2.8-5.8-1.5-14.9c-5-2.2-8.2-7.5-8.3-7.6
	c-1.9-3.4-1.9-7.3,0-10.5c0.7-1.2,1.7-2.9,16.1-15.9c15-13.5,16.4-14,18.5-14.6c1-0.3,2-0.5,3.1-0.5c7.4,0,12,7.8,12.8,9.3
	c3.1,5.7,1,10,0,11.6c-0.7,1-1.4,2.2-9.4,8.9c0,0.1,0.1,0.1,0.1,0.2c2,2.4,3.6,4.3,4.7,5.7c0.8,1,1.3,1.7,1.8,2.4
	c5.1,7.3-0.1,12.9-0.7,13.5c-0.2,0.2-0.4,0.4-0.5,0.5c0,0.1-0.1,0.3-0.2,0.5c-1.2,4.5-5.2,7.7-9.8,7.7c0,0,0,0,0,0
	c-0.9,0-1.7-0.1-2.4-0.3c-2.2,5.7-6.9,6.5-9.3,6.5c-1.5,0-3.4,0.4-5.4,0.7l-1.2,0.2H407.4L407.4,272.1z"/>
<path class="st0" d="M426.7,254.8c0.8-2.9,1.8-4.1,3.2-5.5c0.5-0.5-13-16-13-16s14.2-11.5,15.2-13c0.6-1-3.4-6-4.6-5.6
	c-2,0.6-27.8,24.1-29,26.2c-0.4,0.6,3.8,4.4,4.2,4c3.2-3.2,6.3-6.5,7-6.2c1.1,0.5-3,23.6-2.4,23.5c2.4-0.4,4.9-0.9,7.3-0.9
	c1.7,0-0.1-19,1.1-19.4c1.1-0.4,3.8,3.6,5.9,6.6C424.6,252.8,426.4,256,426.7,254.8z"/>
<path class="st1" d="M597.3,423.5c-0.3,0-0.7,0-1,0c-10.6-0.5-16.5-5.1-19.8-9.8c-10.2-1.3-18.2-5.6-23.4-9.3
	c-19.5-14-32.5-27.7-39.7-41.8c-21.9-42.8-16.5-79.5-14.3-89.7c0.2-0.8,0.3-1.6,0.5-2.5c3.7-17.7,11.4-54.5,43.3-74.4
	c6.3-3.9,12-5.4,15.6-6.1c4.2-5.2,10.9-7.4,16.2-7.6c0.5,0,1.1-0.1,1.6-0.1c1.7-0.1,3.6-0.2,5.5-0.2c5.6,0,13.8,0.8,20.4,7.5
	c1.9,2,2.4,3.9,3,6.2c6,23.8,15.6,34.9,22.6,40.1c9.8,7.2,22.4,13.3,37.4,18.1c0.5,0.2,0.9,0.3,1.1,0.4c5.2,1.8,7.1,6.1,7.1,9.5
	c0,0.9,0,2.2,0,3.7c0.1,13,0.4,47.7-4.5,70.8l-0.3,1.5c-3.4,16.2-7.3,34.6-29,56.1c-4.4,4.4-11.3,7.6-18,10.2
	C617.6,417.4,606.8,423.5,597.3,423.5C597.3,423.5,597.3,423.5,597.3,423.5z"/>
<path class="st1" d="M548.1,204.3c-29.7,18.6-35.8,54.1-39.3,70.6c-2.9,13.6-5.3,46.4,13.4,83.1c8,15.8,23.7,28.9,36.7,38.2
	c12.5,9,23.8,7.7,23.9,7.9c2.3,7.3,8.3,9.2,14,9.4c5.5,0.3,15.1-3.8,16.6-15c0-0.2,14-4.5,19.4-9.9c20.2-20,23.2-36.8,26.6-52.6
	c5.2-24.7,4.2-63.7,4.2-72.4c0-0.2-22.7-6.2-41.6-20c-20.9-15.3-26.3-46.8-26.8-47.3c-5.5-5.6-13.5-4.6-20.1-4.3
	c-0.9,0-8.2,0.8-10.1,6C564.4,199.7,557.2,198.6,548.1,204.3z"/>
<path class="st1" d="M384.5,417.8c-4.8,0-9.1-2.9-11-7.3c-1.2-2.8-2.5-5.1-3.8-6.6c-3.2-3.8-17.5-11.1-30.4-15.7
	c-18.8-6.7-23.2-9.2-27.3-12l-0.7-0.5c-11.5-7.7-19-16.7-23.1-22.9c-2.3-3.4-8.2-13.1-13-29.6c-1-3.3-1.8-8-2.6-13.9
	c-0.8-6.9,2-13.8,7.4-17.9c0.6-0.5,1.2-0.9,1.8-1.2c6.5-3.7,15.3-4.2,20-4.2c5,0,10.1,0.6,14.8,1.7l2,0.5c14,3.3,29.8,7,47.7,23.3
	c18.9,17.3,25.6,36.6,27.8,43c3.7,10.8,5.6,22.5,5.4,33.8c-0.1,5.1-1.2,11.9-3.3,20.4C394.8,414,390,417.8,384.5,417.8z"/>
<path class="st1" d="M286.7,298.9c5.5-3.1,17.3-4,27.6-1.5c14,3.3,28.5,6.2,45.2,21.5c16.7,15.3,22.9,32.5,25.1,38.9
	c1.7,4.9,5.1,16.1,4.9,30.4c-0.1,5.4-1.7,12.9-3,18.1c-0.5,1.9-3.1,2.1-3.8,0.3c-1.2-2.9-3-6.4-5.4-9.1
	c-5.9-6.9-24.9-15.2-34.7-18.6c-20.8-7.3-22.6-9.2-25.8-11.3c-11.6-7.7-18.1-16.8-20.4-20.2c-2.1-3-7.3-11.9-11.7-26.8
	c-1-3.5-1.8-8.6-2.2-12.3c-0.4-3.4,0.9-6.8,3.6-8.9C286.3,299.1,286.5,299,286.7,298.9z"/>
<path class="st2" d="M27.5,426.6c-7.7,0-15.3-3.5-18.6-6.8c-0.9-0.9-1.7-1.9-2.4-2.9c-4.6-0.5-9.5-2.1-14.7-4.7
	c-11.1-5.7-24.6-16.2-33.7-26.2c-13.1-14.4-15.9-21.8-22.8-39.6l-0.1-0.2c-6.6-17.1-7.7-34.5-8-41l0-0.3c-0.4-5.9-0.2-11.3,0.1-16.1
	c-0.6,0.4-1.1,0.7-1.7,1.1c-2.1,1.4-3,3-5,6.6c-0.6,1.1-1.3,2.4-2.1,3.7c-1.7,2.9-5.6,5.9-10.4,5.9c-5.1,0-9.4-3.2-11.2-8.4
	c-4.1-11.9-4-20.4-3.9-26.7c0-1.1,0-2.1,0-3.1c-0.3-20.2,14.8-47.6,20.1-54.8c13.6-18.7,33.6-30,47.8-34.3c9.7-3,18.4-4.7,25.9-5.1
	c0.3-2,1.2-3.9,2.6-5.5c7.3-7.8,17.3-18.1,30.1-27.5c1.8-1.3,3.9-2,6.2-2c7.1,0,12.3,7.1,13.7,10.5c1.8,4.5,0.9,9.3-2.4,12.5
	c-2.2,2.1-5,4.6-7.7,6.9c0.8,1,1.6,1.9,2.4,2.8c3.6-0.8,7.6-1.5,11.5-1.5c0.7,0,1.5,0,2.2,0.1c12.8,0.9,24.9,3.2,42,11.4
	c13.4,6.4,27.7,15.9,42.1,42.1c16.9,30.9,13,59.5,8.6,70.3c-2,4.9-6.7,8.2-11.6,8.2c-4,0-9-2.3-11.3-8.6c-0.9-2.5-2.2-4.4-3.1-5.4
	c-2.3-2.5-3.2-3-6.5-4.6c-0.3-0.1-0.5-0.3-0.8-0.4c-0.1,9.9-1,24.4-3.5,45.7c-5.2,43.9-22.6,62.7-35.1,73c-3.7,3-9.1,5.4-14.1,7.2
	c-1.8,5.8-6.2,10.7-13.1,14.8C35.5,425.6,31.7,426.6,27.5,426.6z"/>
<path class="st2" d="M6.3,187.2c0.7-5.6,2.1-14.5,1.6-14.7c-2.3-0.6-3.6,4-7.3,6.2c-0.6,0.4-4.5-3.1-4-3.7
	c8-8.6,17.2-17.8,28.7-26.3c1.1-0.8,6.2,4.3,4.7,5.8c-5.2,5-14.9,12.8-14.9,12.8s11.3,12.8,12.9,15.2c0.1,0.1,9.7-3.3,16.6-2.8
	c11,0.8,21.9,2.6,38.4,10.4c11.4,5.4,24.2,13.4,37.7,37.9c15.8,28.9,11.1,54.5,8.1,61.8c-0.7,1.7-3.1,3.6-4.3,0.1
	c-1.4-3.9-3.4-6.9-5.1-8.8c-4.3-4.7-6.6-5.3-11.9-8.1c-5.4-2.8-14.2-6.8-14.2-6.8s4.7,6.5-1.8,61.1c-5,41.9-21.4,58.2-31.6,66.5
	c-5.1,4.2-16.6,7.2-16.7,7.2c-0.6,0.2,2.2,7.1-9.3,13.9c-6.9,4.1-16.3-0.6-17.9-2.2c-3.1-3.1-2.8-6.1-2.8-6.1s-5.8,2.3-16.8-3.3
	c-10-5.1-22.5-14.8-30.8-24c-11.9-13.1-14.2-19.1-21-36.7c-6.2-15.9-7.1-32.5-7.4-38.3c-1.2-19.4,3.3-33.8,3.3-33.8
	s-10,4.2-20.3,11.2c-5.4,3.6-6.9,8.2-10.1,13.5c-0.3,0.5-2.6,2.4-3.7-0.7c-4.2-12.4-3.2-20.4-3.3-26.7c-0.2-16.1,12.5-41,18.2-48.8
	c13-17.8,31.7-27.3,42.7-30.7C-0.9,177.6,6.2,188.3,6.3,187.2z"/>
<path class="st3" d="M221.4,286.2c-4.7,0-10.8-3-12.6-11.6c-3.1-14-12.5-56.7,34.7-99.6c14.6-13.3,43.2-21.5,61.3-21.5
	c9.8,0,17,2.3,21.5,6.8c4.1,4.2,3.3,9.5,1.8,16.7l-0.1,0.3c-0.9,4.4-4.8,7.5-9.3,7.5l0,0c-0.5,0-1.1,0.2-1.6,0.3
	c-2.1,5.3-7.6,6.4-9.7,6.8c-3.4,0.7-9.7,2-19.5,9.9c-14.5,11.8-22.8,40.6-24.7,50.7l-1,5.1l-4.8,2.1c-8.4,3.7-19.1,9.7-21.4,12.8
	c-1.4,1.9-2.2,3.5-2.8,4.9c-0.7,1.6-1.6,3.3-3.1,5C227.7,284.8,224.6,286.2,221.4,286.2C221.4,286.2,221.4,286.2,221.4,286.2z"/>
<path class="st3" d="M319.1,167.3c-9.5-9.7-52.5,0-69,15c-38.8,35.3-36.4,68.9-31.7,90.1c0.9,4.3,3.3,4.3,4.4,3.2
	c1.1-1.1,1.8-4.4,5.2-9c5.5-7.3,25.4-16,25.4-16s7.6-39.7,28.2-56.5c16.3-13.3,25.9-11.2,26.3-12.9c1.6-6.1,10.4-6.3,10.4-6.3
	S319.8,168,319.1,167.3z"/>
</svg>
