<?xml version="1.0" encoding="utf-8"?>
<!-- Generator: Adobe Illustrator 26.4.1, SVG Export Plug-In . SVG Version: 6.00 Build 0)  -->
<svg version="1.1" id="Layer_1" xmlns="http://www.w3.org/2000/svg" xmlns:xlink="http://www.w3.org/1999/xlink" x="0px" y="0px"
	 viewBox="0 0 566.9 566.9" style="enable-background:new 0 0 566.9 566.9;" xml:space="preserve">
<style type="text/css">
	.st0{fill:none;stroke:#B754A0;stroke-miterlimit:10;}
	.st1{fill:none;stroke:#3C54A4;stroke-miterlimit:10;}
	.st2{fill:none;stroke:#EC2E91;stroke-miterlimit:10;}
	.st3{fill:none;stroke:#E52328;stroke-miterlimit:10;}
</style>
<path class="st0" d="M394.9,408.8c-4.8,0-9-2.8-10.9-7.2c-1.1-2.6-2.3-4.8-3.5-6.1c-3-3.5-16.5-10.5-28.7-14.8
	c-18-6.3-22.1-8.8-26.1-11.5l-0.6-0.4c-11-7.4-18.1-16-22.1-21.9c-2.2-3.2-7.8-12.5-12.4-28.3c-0.9-3.2-1.8-7.7-2.4-13.3
	c-0.8-6.7,1.9-13.4,7.2-17.5c0.6-0.5,1.2-0.9,1.8-1.2c6.3-3.5,14.7-4.1,19.2-4.1c4.8,0,9.7,0.6,14.2,1.6l1.9,0.4
	c13.3,3.1,28.5,6.7,45.5,22.3c18.1,16.5,24.5,35,26.6,41.1c3.6,10.3,5.4,21.5,5.2,32.3c-0.1,4.9-1.1,11.4-3.2,19.5
	C405,405.2,400.3,408.8,394.9,408.8z"/>
<path class="st0" d="M301.9,295.4c5.3-3,16.4-3.8,26.2-1.4c13.3,3.2,27.1,5.9,43,20.4c15.9,14.5,21.8,30.9,23.9,37
	c1.6,4.6,4.9,15.3,4.6,28.9c-0.1,5.1-1.6,12.2-2.9,17.2c-0.5,1.8-2.9,2-3.7,0.3c-1.2-2.8-2.9-6.1-5.1-8.7
	c-5.6-6.6-23.7-14.4-33-17.7c-19.7-7-21.5-8.8-24.5-10.8c-11-7.4-17.2-16-19.4-19.2c-2-2.9-6.9-11.3-11.1-25.5
	c-1-3.3-1.7-8.1-2.1-11.7c-0.4-3.2,0.9-6.5,3.4-8.4C301.5,295.6,301.7,295.5,301.9,295.4z"/>
<path class="st1" d="M93.5,430.3c-1.9,0-3.9-0.2-5.7-0.6c-6.3-1.4-10.5-4.9-13.2-8.6c-3.3-0.4-7.5-1.2-11.8-3.2
	c-6.6-3-13.2-6.4-23-15.4c-1.6-1.5-3.1-2.9-4.6-4.1c-6.4-5.7-11.9-10.7-17.9-20C12.6,371.1,6,355,3.4,344.6
	c-9.2-36.4-5.3-59,5.9-90.3c4.6-13,14.7-26,22.6-33.2c10.4-9.4,19.4-12.5,24.8-13.7c1.8-2.4,4.1-3.9,6.3-4.9l-0.1-0.1
	c-2.5-2-10.3-7.9-6.7-16c0.7-1.6,1.7-3.8,15.9-16.5C87.1,156.5,89.2,156,93,156h1.6l1.6,0.5c4.8,1.6,9,7.1,10.2,10.5
	c1.2,3.3,0.8,6.7-0.9,9.5c-0.7,1-2.2,3.4-8.6,8.5c0.5,0.6,1,1.2,1.4,1.8c2.8-0.7,6.2-1.2,10.7-1.2c2.8,0,5.9,0.2,9.4,0.5
	c3.6,0.4,36,4.3,58.8,29c20.8,22.5,29.4,56.1,25.7,75.5c-0.2,1-0.4,2.3-0.6,3.6c-0.4,2.6-0.7,5.3-1.5,7.7c-2.6,8.6-8.7,9.8-11.2,10
	c-0.2,0-0.5,0-0.7,0c-7.9,0-10.8-6.8-11.8-9c-0.7-1.6-1.2-2.8-2.7-4.1c-1.7-1.5-3.6-3-5.7-4.3c0.4,7.1,0.3,15-0.6,22.3
	c-0.2,1.5-0.4,3.1-0.6,4.8c-2.1,18-5.5,48.1-20.6,68.7c-10.9,14.9-17.5,19.4-28.9,23.5c-1,2.8-2.5,5.4-4.5,7.9
	C109.2,426.9,101.3,430.3,93.5,430.3z"/>
<path class="st1" d="M73.2,210c0.8-0.2,3.5-20.4,2.5-21.2c-1.2-0.9-4.1,3.7-6.9,5.8c0,0-4.1-3.2-3.7-4.1c1-2.3,26.2-25.1,27.9-24.6
	c1.3,0.4,4.6,4.3,4,5.2c-1.9,3-9.9,8.8-13.2,11.2c-0.8,0.6-1.1,1.8-0.4,2.5c7.4,7.5,10.9,14.1,11.7,13.7c4-1.9,7.9-4.1,22.1-2.6
	c9.7,1,35.1,7,52.5,25.8c17.9,19.4,26.5,49.7,23.2,66.9c-1,5.5-1.3,13-4.1,13.1c-3.1,0.2-2.1-5.2-8-10.6
	c-6.9-6.2-17.5-11.5-22.2-13.7c-1-0.5-2.1,0.4-1.9,1.5c1.2,6.2,3,22.3,1.3,36.4c-2,15.9-4.4,48.4-19.3,68.9
	c-11,15-15.9,17.4-29.5,21.7c-0.1,0,0.5,4.3-3.6,9.3c-2.8,3.4-9.5,6-15.8,4.6c-7.6-1.6-9.2-8.6-9.2-8.6s-6.9,0.7-13.8-2.5
	c-6.2-2.8-11.9-5.8-20.4-13.7c-8.6-7.9-14.3-12-20.8-22.2c-3.8-6-10.1-21-12.6-30.9c-8.5-33.5-5.4-53.6,5.6-84.5
	c4-11.3,13.2-23.1,19.9-29.1c14.3-12.9,24.6-11.6,24.7-12.3C64.6,210.6,70,210.8,73.2,210z"/>
<path class="st2" d="M495.7,367.4c-0.3,0-0.7,0-1,0c-10.1-0.5-15.8-4.9-19.1-9.4c-9.7-1.3-17.3-5.4-22.3-8.9
	c-18.6-13.4-31-26.4-37.9-39.9c-20.9-40.9-15.7-75.8-13.6-85.6l0.5-2.4c3.5-16.9,10.9-52,41.3-71c6-3.7,11.3-5.1,14.8-5.8
	c4.1-4.9,10.5-7,15.6-7.3c0.5,0,1-0.1,1.6-0.1c1.6-0.1,3.4-0.2,5.3-0.2c3.1,0,12.6,0,19.8,7.3c1.9,1.9,2.4,3.8,3.1,6.4
	c1.4,5,5.5,20.4,13.3,29.6c12.5,14.7,35.8,22.7,42.7,24.8c3.6,1.1,5.9,3.2,7,6.4c5.9,17.3,1.1,56.7-3.3,77.5
	c-3.5,16.7-8,32.1-26.9,51.9c-4.2,4.4-10.8,7.5-17.3,10C515.2,361.6,504.8,367.4,495.7,367.4L495.7,367.4z"/>
<path class="st2" d="M449,158.6c-28.3,17.6-34.1,51.5-37.4,67.1c-2.7,12.9-5,44.1,12.8,79c7.7,15,22.5,27.5,34.9,36.3
	c11.9,8.5,22.6,7.3,22.7,7.5c2.2,7,7.9,8.7,13.3,9c5.2,0.3,14.4-3.6,15.7-14.3c0-0.2,13.5-4.1,18.5-9.4
	c17.4-18.2,21.2-32.1,24.4-47.1c5-23.5,8.2-58.8,3.7-72.2c0-0.1-31.3-8.4-47.9-28c-11.2-13.2-15.4-35-15.9-35.5
	c-5.2-5.3-12.8-4.4-19.1-4.1c-0.9,0-7.8,0.7-9.6,5.7C464.5,154.2,457.7,153.2,449,158.6z"/>
<path class="st3" d="M287.1,245.5l-3-3.4c-3-3.5-2.7-6-1.6-14.1c-4.7-2.3-7.8-7.3-7.9-7.3c-1.9-3.4-1.9-7.3,0-10.4
	c0.7-1.1,1.7-2.8,15.4-15.2c14.3-12.9,15.7-13.4,17.8-14c1-0.3,2-0.5,3.1-0.5c7.3,0,11.8,7.6,12.6,9.1c3.1,5.7,1,10-0.1,11.6
	c-0.7,1.1-1.4,2.1-8.7,8.2c0.4,0.5,0.9,1.1,1.3,1.6c1.5,1.8,2.7,3.3,3.5,4.4c0.6,0.8,1,1.4,1.4,1.9c3.3,5,1.9,10.2-1,13
	c-0.2,0.2-0.3,0.3-0.4,0.4c0,0.1-0.1,0.2-0.1,0.4c-1.2,4.5-5.2,7.7-9.8,7.7c0,0,0,0,0,0c-0.7,0-1.3-0.1-1.9-0.2
	c-0.5,0.9-1.1,1.8-1.9,2.6c-2,2.1-4.8,3.3-7.7,3.3h-0.6l-0.6-0.1c-0.3,0-0.6-0.1-0.8-0.1c-0.1,0-0.1,0-0.1,0l-1.9,1.1l-2.6,0H287.1z
	"/>
<path class="st3" d="M310,228.6c0.7-2.8,1.7-3.9,3-5.3c0.4-0.4-8.6-10.8-11.5-14.2c-0.5-0.5-0.4-1.4,0.2-1.8
	c3.2-2.6,12.7-10.3,13.5-11.5c0.6-0.9-3.2-5.7-4.4-5.3c-1.9,0.6-26.4,22.9-27.6,24.9c-0.4,0.6,3.6,4.2,4,3.8c3-3,5.9-6.2,6.7-5.9
	c1.1,0.5-2.7,22.5-2.2,22.3c1.8-1,4-1.2,6.6-0.9c3,0.3,0.1-17.9,1.4-18.3c1.1-0.4,3.6,3.4,5.6,6.2C308,226.7,309.7,229.7,310,228.6z
	"/>
</svg>
