<?xml version="1.0" encoding="utf-8"?>
<!-- Generator: Adobe Illustrator 26.4.1, SVG Export Plug-In . SVG Version: 6.00 Build 0)  -->
<svg version="1.1" id="Layer_1" xmlns="http://www.w3.org/2000/svg" xmlns:xlink="http://www.w3.org/1999/xlink" x="0px" y="0px"
	 viewBox="0 0 566.9 566.9" style="enable-background:new 0 0 566.9 566.9;" xml:space="preserve">
<style type="text/css">
	.st0{fill:none;stroke:#871632;stroke-miterlimit:10;}
</style>
<path class="st0" d="M591.9,429.7c-4.8,0-9.1-2.9-11-7.3c-1.1-2.7-2.4-4.9-3.6-6.3c-3.1-3.7-17-10.8-29.7-15.3
	c-18.5-6.5-22.8-9-26.8-11.8l-0.6-0.4c-11.3-7.6-18.6-16.4-22.7-22.5c-2.3-3.3-8-12.8-12.8-29.1c-1-3.3-1.8-7.9-2.5-13.6
	c-0.8-6.9,2-13.7,7.3-17.8c0.6-0.5,1.2-0.9,1.8-1.2c6.4-3.6,15.1-4.2,19.7-4.2c4.9,0,9.9,0.6,14.5,1.7l1.9,0.5
	c13.7,3.2,29.3,6.9,46.8,22.9c18.6,17,25.1,36,27.3,42.2c3.7,10.6,5.5,22.1,5.3,33.2c-0.1,5-1.2,11.7-3.3,20
	C602.2,426,597.4,429.7,591.9,429.7z"/>
<path class="st0" d="M496.1,313.1c5.4-3,16.9-3.9,27-1.5c13.7,3.3,27.9,6.1,44.3,21c16.4,15,22.4,31.8,24.6,38.1
	c1.7,4.8,5,15.7,4.8,29.8c-0.1,5.3-1.7,12.6-3,17.7c-0.5,1.9-3,2.1-3.8,0.3c-1.2-2.9-3-6.3-5.2-8.9c-5.8-6.8-24.4-14.8-33.9-18.2
	c-20.3-7.2-22.1-9-25.2-11.1c-11.3-7.6-17.7-16.4-20-19.8c-2-3-7.2-11.6-11.4-26.3c-1-3.4-1.7-8.4-2.2-12c-0.4-3.3,0.9-6.7,3.5-8.7
	C495.7,313.3,495.9,313.2,496.1,313.1z"/>
<path class="st0" d="M561.6,233.8c-2.9,0-5.7-1.3-7.6-3.4l0,0c-3-3.5-2.8-5.8-1.6-14.6c-4.8-2.3-8-7.4-8-7.5
	c-1.9-3.4-1.9-7.3,0-10.5c0.7-1.1,1.7-2.9,15.8-15.6c14.7-13.3,16.1-13.7,18.2-14.4c1-0.3,2-0.5,3.1-0.5c7.4,0,11.9,7.7,12.8,9.3
	c3.1,5.7,1,10.1-0.1,11.7c-0.7,1-1.4,2.2-9.1,8.6c1.9,2.3,3.4,4.1,4.5,5.5c0.8,1,1.3,1.7,1.7,2.3c5.1,7.4-0.1,12.9-0.7,13.6
	c-0.2,0.2-5.8,8.6-10.4,8.6c0,0,0,0,0,0c-0.9,0-1.7-0.1-2.4-0.3c-1,2.2-2.8,4.3-5.8,5.4C570.4,232.6,561.6,233.8,561.6,233.8
	L561.6,233.8z"/>
<path class="st0" d="M580.5,216.6c0.7-2.9,1.8-4,3.1-5.4c0.4-0.4-12.7-15.6-12.7-15.6s13.9-11.2,14.9-12.7c0.6-0.9-3.3-5.9-4.5-5.5
	c-1.9,0.6-27.2,23.5-28.4,25.6c-0.4,0.6,3.7,4.3,4.1,3.9c3.1-3.1,6.1-6.3,6.9-6c1.1,0.5-2.9,23.1-2.4,23c2.3-0.4,5.8-0.8,6.9-1.2
	c1.9-0.7,0.1-18.2,1.3-18.7c1.1-0.4,3.7,3.5,5.7,6.4C578.5,214.6,580.3,217.7,580.5,216.6z"/>
<path class="st0" d="M82.7,413.2c-0.5,0-1.1,0-1.6-0.1c-9.3-0.6-15-4.7-18.4-9.2c-9.7-1-24.9-7.2-45.9-28.9
	c-17-17.5-26.6-38.7-31.2-68.8c-6.1-39.6,9.9-75.1,14.9-85c4.4-8.7,10.8-16.9,18.3-23.6c5.5-4.8,10.6-7.9,14.3-9.8
	c0.1-0.4,0.1-0.8,0.2-1.2c-4.5-2.1-7.7-6.6-8.5-8.5c-1.7-3.8-1-8.2,1.8-11.2c8-8.7,20.9-20,29.4-26.7c1.8-1.4,4.1-2.2,6.4-2.2
	c6,0,10.3,5.2,11.9,7.4c0.8,1.2,1.4,2.3,1.9,3.4c0.7-0.2,1.3-0.5,2-0.8c8.7-3.3,19.4-5.2,29.5-5.2c2.3,0,4.5,0.1,6.7,0.3
	c22.9,2.1,38.9,10.7,46.5,15.6c16.9,11,27.8,23.1,34.4,38.1c0.2,0.5,0.5,1.1,0.8,1.7c2.3,4.7,5.1,10.6,2.6,16.6
	c-1.3,3.1-3.9,5.5-7.2,6.5c-1.2,0.4-2.4,0.6-3.6,0.6c0,0,0,0,0,0c-3.8,0-6.4-1.7-8.4-2.9c-2-1.3-4-2.5-8.3-2.5c-0.4,0-0.7,0-1.1,0
	c-3,0.1-5.7,0.3-8.1,0.6c5.3,9.6,11.4,23.6,13.1,40.4c1.3,12.7,0.2,18-1.6,26.1c-0.3,1.3-0.6,2.8-0.9,4.4c-1,4.8-5.9,9.9-12.2,9.9
	c-0.7,0-1.4-0.1-2.1-0.2c-2.6,27.3-8.5,57.1-21.2,73.8c-12.1,15.8-17.5,19.4-30.1,24.3c-0.8,2.2-2.1,4.9-4.3,7.7
	C98.1,409.5,90.4,413.2,82.7,413.2z"/>
<path class="st0" d="M25.5,205.1c8.8-7.8,16.7-10.2,16.7-10.4c0.9-6.2,3.7-22.7,3.1-23.2c-1-1-4.2,3.3-7.3,6.2
	c-0.5,0.4-4.6-3.3-4-3.9c7.9-8.5,20.5-19.6,28.2-25.7c0.8-0.7,5.3,3.7,4.8,5.3c-0.8,2.2-12.2,10.6-14.8,12.8
	c-0.4,0.3,3.6,4.3,3.8,4.2c8.1-7,14.8-8.8,25.8-13c9.4-3.6,21.7-5.2,31.7-4.3c17.9,1.7,32.4,7.8,41.9,14
	c14.1,9.2,24.5,19.7,30.7,33.7c1.5,3.5,5.5,10.1,2.3,11.2c-2.9,0.9-6-5.9-18.8-5.3c-17.1,0.8-24.3,3.4-24.3,3.4s16.9,20.1,19.8,48.5
	c1.4,13.1-0.1,16.4-2.3,27.5c-0.1,0.7-2.7,3.9-4.2,0.1c-2.5-6.1-8.1-12.5-8.6-11.6c-0.3,0.5-1,65.1-20.8,90.9
	c-12.3,16-15.8,17.4-30.3,22.8c-0.7,0.2-0.1,4.2-3.9,9.1c-2.8,3.6-7.9,6-13.2,5.7c-11.9-0.8-12.9-9.5-12.9-9.5s-14.4,5.9-44.8-25.5
	C10.2,353.8,0.3,336-4.5,304.7c-4.4-28.7,3.9-59.2,14-78.9C13.5,217.9,19.2,210.7,25.5,205.1z"/>
<path class="st0" d="M356,429.1c-0.3,0-0.7,0-1,0c-10.4-0.5-16.2-5-19.5-9.7c-10-1.3-17.8-5.5-22.9-9.2c-19.2-13.8-31.9-27.2-39-41
	c-21.5-42-16.2-78-14-88c0.2-0.8,0.3-1.6,0.5-2.5c3.6-17.4,11.2-53.5,42.5-73c6-3.8,11.1-5.1,14.5-5.7c3.7-4.3,9.4-7.6,14.3-7.6
	c1.5,0,2.9,0.3,4.2,0.8c2.9,1.2,6.6,4.1,7.2,11l0.1,1.2c0.6,6,1.2,11.2,3.2,15.7c0.7,1.5,1.3,3.1,2,4.8c2.5,6.5,5.6,14.6,14.6,22.6
	c11.3,10.2,16.8,12.1,27.7,15.8c2.9,1,6.1,2.1,9.8,3.5c7.6,2.8,15.2,6.9,19,9.1c8.9,5,13.8,7.8,13.5,14.6c-1,21-2.3,35.8-6.1,53.8
	l-0.3,1.5c-3.3,15.9-7.1,34-28.4,55c-4.3,4.3-11.1,7.5-17.6,10C376,423.1,365.4,429.1,356,429.1C356,429.1,356,429.1,356,429.1z"/>
<path class="st0" d="M307.9,214.3c-29.1,18.2-35.1,53-38.5,69.1c-2.8,13.3-5.2,45.4,13.2,81.4c7.9,15.4,23.2,28.3,35.9,37.4
	c12.2,8.8,23.3,7.5,23.4,7.7c2.3,7.2,8.1,9,13.7,9.2c5.3,0.3,14.8-3.7,16.2-14.7c0-0.2,13.7-4.4,19-9.7c19.8-19.6,22.7-36,26-51.4
	c3.7-17.4,4.9-31.9,5.9-52.2c0-0.6-13.8-9.3-26-13.8c-17.6-6.6-24.6-6.7-40.7-21.2c-13.2-11.9-16-24.4-18.9-30.7
	c-2.9-6.4-3.5-13-4.2-20c0-0.5-0.1-2.4-1-2.7c-1.6-0.7-7.3,2.7-8.5,6C322.8,210.2,316.9,208.7,307.9,214.3z"/>
<path class="st0" d="M491.9,162.8c-2.3,0-4.5-0.6-6.4-1.9c-0.6-0.4-1.1-0.7-1.7-1.1c-1.4-0.9-2.8-1.9-3.6-2
	c-1.5-0.3-3.5-0.5-5.8-0.5c-6.1,0-14.4,1.1-23.4,3.1l-1.1,0.2c0,0-1.1,0-1.2,0c-4.3,0-6.7-2.5-8.2-4.2c-6.8-7.3-12.1-12.1-15.6-14.3
	c-9.9-6.3-18.7-8.8-26.2-10.6c-4.2-1-10.6-2.4-16.6-2.4c-3.7,0-6.6,0.5-8.8,1.5l-2,0.9l-2.2,0c-5.2,0-7.3-2.7-12.2-9.2
	c-4.9-6.5-5.1-7.1-5.6-8.5v0c-1.4-4.1,0-8.6,3.5-11.2l0,0c6.3-4.7,11.4-7.7,16.4-9.7l0.9-0.4c10.5-4.2,22.5-9,39.1-9
	c4.3,0,8.8,0.3,13.4,1c24.9,3.5,41.1,15.4,46.4,19.3c9,6.7,17,15.1,23.2,24.3c2.8,4.2,5.7,10.3,8.7,18.3c1.4,3.7,0.9,7.8-1.4,11
	C499.6,160.9,495.9,162.8,491.9,162.8z"/>
<path class="st0" d="M361.1,110.7c4.9-3.7,9.5-6.6,14.1-8.4c13.1-5.2,26.4-10.8,48.4-7.8c22,3.1,36.5,13.5,41.8,17.4
	c4.1,3,13,10.1,20.8,21.8c2.9,4.4,5.8,11.3,7.6,16.3c0.7,1.8-1.3,3.4-2.9,2.4c-2.6-1.7-5.3-3.8-8.7-4.5c-8.7-1.7-22.2,0.2-33.2,2.8
	c-0.1,0-10.8-12-18.4-16.9c-11.5-7.4-21.7-10.1-29.2-11.9c-8.1-1.9-22.2-4.8-31.9-0.2C369,121.8,360.9,110.9,361.1,110.7z"/>
<path class="st0" d="M291.6,173.4c-5.5,0-10-4.5-10-10l0-0.1c0-2,0-6.8,0.2-10.8c0.1-2.5,0.1-4.4,0.2-5.9c0.1-1,0.1-1.8,0.2-2.5
	c0.9-6.4,5.9-9.3,10.1-9.3c10.5,0,17.6,16.5,17.7,16.6c2.9,6.8-0.2,11-1.7,12.6c-1.8,1.9-4.4,3.1-7,3.1c-0.4,0.4-0.7,0.9-0.9,1.2
	C299.5,169.7,296.8,173.4,291.6,173.4L291.6,173.4z"/>
<path class="st0" d="M292.3,144.9c-0.6,0-0.7,14.9-0.7,18.4c0,0.7,2.2-3.9,5.6-5.6c3.5-1.7,3.5-0.2,3.9-0.6
	C302.1,156.1,294.7,144.9,292.3,144.9z"/>
</svg>
