<?xml version="1.0" encoding="utf-8"?>
<!-- Generator: Adobe Illustrator 26.4.1, SVG Export Plug-In . SVG Version: 6.00 Build 0)  -->
<svg version="1.1" id="Layer_1" xmlns="http://www.w3.org/2000/svg" xmlns:xlink="http://www.w3.org/1999/xlink" x="0px" y="0px"
	 viewBox="0 0 566.9 566.9" style="enable-background:new 0 0 566.9 566.9;" xml:space="preserve">
<style type="text/css">
	.st0{fill:none;stroke:#000000;stroke-miterlimit:10;}
	.st1{fill:none;stroke:#D81C4F;stroke-miterlimit:10;}
	.st2{fill:none;stroke:#71CEE6;stroke-miterlimit:10;}
</style>
<path class="st0" d="M84.6,746c-2.4,0-4.1-1.5-5.2-3c-1.6,1.4-4.2,3-7.5,3c-0.4,0-0.7,0-1.1-0.1c-3.1-0.3-5.1-2.5-6.2-4.9
	c-1.8,1.7-4.6,3.3-8.9,3.3c-1.8,0-3.4-1.2-4.6-2.5c-1.2,1.2-3.1,2.4-6,2.4c-0.1,0-0.3,0-0.4,0c-3.1-0.1-5.2-1.5-6.5-2.8
	c-1.1,0.8-2.8,1.4-5.5,1.4c-0.3,0-0.7,0-1,0c-3-0.2-5-2.9-6-4.8c-3.4,1.4-10.8,4.3-18.1,5.8c-2,0.4-4.1,0.6-6.3,0.6
	c-13.6,0-27.2-8.1-28-16.7c-0.2-2.3,0.3-7.1,3.4-8.6c0.3-0.2,0.7-0.3,1-0.4c-0.9-1.5-1.7-3.2-1.9-5.2c-0.6-4.3,1.9-9,5.4-10.4
	c0.8-0.3,1.8-0.5,2.9-0.5c0.9,0,1.8,0.1,2.5,0.2c0-1.8,0-4,0.4-5.6c0.9-4,4.8-6.2,11-6.2c0.1,0,0.1,0,0.2,0c-0.1-2.6,0-7.5,0.6-14.8
	c0.8-8.7,2.8-11.9,5.8-14.2c2.7-2.1,6.3-3.2,8.3-3.7c0-2.2,0.2-5.8,1.7-7.8c1.2-1.5,4.3-2.7,8.6-4c-3.6-3.3-7.1-8.5-8.9-11.2
	c-2.5,1.6-7.2,4.2-11.3,4.2c-1.2,0-2.2-0.2-3.1-0.6l-0.3-0.1l-0.2-0.2c-11.5-10-11.6-27.1-10.9-35.3c-2.6,1.7-6,3.5-8.4,3.5
	c-2,0-2.9-1.1-3.3-1.8c-7.2-12.6,0.5-31.9,3.7-38.8c-2.7-0.5-5.7-1.6-6.5-3.6l0-0.1l0-0.1c-2.1-9.9,10-17.6,14.8-20.3
	c-1.7-3.1-4.3-8.7-3.4-12c2.4-7.7,11.8-9,17.5-9.1c-2.3-4.2-5-10.2-3.7-13.3c2-4.5,7.6-6.8,16.7-6.8c2.5,0,4.7,0.2,6.3,0.3
	c-0.2-2.6-0.1-6,1.7-7.7c1.2-1.1,3.1-1.6,5.7-1.6c2.1,0,4.3,0.3,5.8,0.6c1.3-2.3,3.9-6.3,7.2-6.6c0.3,0,0.5,0,0.8,0
	c4.4,0,7.3,3.2,8.6,5c1-0.1,2.5-0.3,3.8-0.3c1.2,0,2.1,0.1,2.8,0.4c1.6,0.6,3,1.7,4.1,2.6c1.9-2.2,5.5-5.4,10.5-5.4
	c0.4,0,0.9,0,1.3,0.1c5.8,0.7,12.6,9.5,15,12.8c2.3-0.4,7.3-1.2,12-1.2c3,0,5.3,0.3,7.1,1c5.9,2.3,7.5,11.1,8,15.3
	c0.6,0,1.2-0.1,1.9-0.1c2.6,0,6.5,0.4,10.4,2.3c8,3.8,11.7,8.1,10.6,12.4c-0.6,2.4-2.3,4.2-3.7,5.4c2.9,2.3,8,6.7,11.5,11.5
	c7.6,10.5,7.4,14.1,6.4,16c-0.3,0.7-1.1,1.7-2.8,2.1c3.2,8.2,10.7,29.9,4.8,38.3l-0.3,0.5l-0.5,0.2c-1.1,0.5-2.7,0.7-4.8,0.7
	c-2.6,0-5.5-0.3-7.7-0.6c0.5,3.3,0.9,9.1-1.1,15.8c-2.1,7.4-9.7,18.2-16.8,18.4c-0.1,0-0.2,0-0.3,0c-3.2,0-6.2-1.6-8.2-2.9
	c-0.6,1.6-1.6,3.7-3,5.7c1.2,0.4,2.1,0.8,2.6,1.5c1.8,2.4,1.9,7.4,1.8,10.3c2.6,0.3,6.5,1,8.3,2.3c11.8,8.5,13.3,24.4,13.5,30
	c2.2,0.2,5.3,0.7,6.9,2.4c2.7,2.9,3.4,5.3,3.5,6.9c2.4,1.1,7.1,3.7,9.2,6.7c2,2.9,1.9,6.2,1.6,8.2c1.2,0.7,2.8,1.9,4,3.7
	c1.5,2.2,2.5,5.7-1.1,9.9c-5.9,6.9-17.7,13.9-31,13.9c-2,0-4-0.2-6-0.5c-5.8-1-10.2-1.9-12.6-2.4c-1.3,3.8-4.8,8.9-11.6,9.9
	c-0.3,0-0.5,0.1-0.8,0.1c-2.5,0-5.4-1.8-7.2-3.1c-1.4,1.6-4.1,3.6-8.9,4C84.9,746,84.7,746,84.6,746z"/>
<path class="st0" d="M27.6,647.6c-5.2-2.6-12.7-14.8-12.7-14.8s-9.3,6.8-14.1,4.6c-14.5-12.7-9.6-38-9.6-38s-10.7,8.2-12.6,4.9
	c-8.3-14.4,5-39.3,5-39.3s-6.8-0.7-7.6-2.8c-2.2-10.7,15.6-19,15.6-19s-5.2-8.7-4.2-12.2c2.8-9.3,19.2-7.5,19.2-7.5
	s-6.9-11.1-5.4-14.6c3.6-8.3,23.5-4.9,23.5-4.9s-1.4-6.6,0.7-8.5c2.5-2.3,11.3-0.2,11.3-0.2s3-6.5,6.3-6.8c5.3-0.5,8.2,5.2,8.2,5.2
	s5-1,6.8-0.2c2.7,1,5.1,3.7,5.1,3.7s4.4-7.2,11.3-6.4c6,0.7,14.3,13,14.3,13s13.4-2.9,19.2-0.6c6.4,2.5,6.9,15.7,6.9,15.7
	s6.5-1.4,13.3,1.8c5.3,2.6,10.5,6.3,9.5,10.2c-0.9,3.6-5.1,5.9-5.1,5.9s8.4,6.1,13.2,12.7c13.2,18.3,2.2,14.8,2.2,14.8
	s12.6,30.1,6.2,39.3c-3.3,1.4-14.2-0.5-14.2-0.5s2.4,7.7-0.5,17.7c-2,7-9,16.8-14.9,17c-4.7,0.2-9.4-4.1-9.4-4.1s-1.8,5.9-5.5,10.1
	c-0.1,0.1,3.7,0.6,4.4,1.5c2.1,2.7,1.2,10.8,1.2,10.8s7.2,0.7,9.2,2.2c13.5,9.7,12.7,30.3,12.7,30.3s5.6-0.1,7.5,1.9
	c3.9,4,2.8,6.7,2.8,6.7s7.2,3,9.6,6.6c2.4,3.6,0.9,8.2,0.9,8.2s2.9,1.1,4.6,3.7c1.8,2.7,0.9,5.3-0.9,7.5
	c-6.3,7.5-20.5,15.2-35.1,12.7c-8.6-1.4-14.3-2.8-14.3-2.8s-1.6,9-10.5,10.3c-3.3,0.5-8.1-4-8.1-4s-1.5,4.4-8.6,5
	c-3.3,0.3-5.1-4.4-5.1-4.4s-3.2,4.9-8.8,4.3c-4.9-0.5-5.7-7.5-5.7-7.5s-1.8,5.9-9.7,5.9c-2.2,0-4.8-3.8-4.8-3.8s-1.2,3.9-6.1,3.7
	c-4.8-0.2-6.5-4.2-6.5-4.2s-0.2,3-6.4,2.7c-3.3-0.2-5.1-5.4-5.1-5.4s-10,4.5-19.5,6.5c-14.1,2.9-31.1-5.7-31.9-14.3
	c-0.2-1.8,0.2-5.7,2.3-6.7c1.8-0.9,4.6,0.2,4.6,0.2s-3.8-3.5-4.4-7.8c-0.4-3.3,1.4-7.2,4.1-8.3c2.5-1,6.8,0.5,6.8,0.5
	s-0.3-5.2,0.3-7.7c1.4-5.9,11.3-4.6,11.3-4.6s-0.5-5.6,0.5-16.7c0.7-8.2,2.5-10.8,5-12.7C9.4,661,15,660,15,660s-0.5-5.9,1.2-8.1
	C17.8,649.8,27.8,647.6,27.6,647.6z"/>
<path class="st1" d="M351.7,348.9c-2.7,0-5.3-1.8-6.8-4.5c-2-3.8-1-8.3,2.3-10c0.8-0.4,1.8-0.7,2.7-0.7c2.7,0,5.3,1.8,6.8,4.5
	c2,3.8,1,8.3-2.3,10C353.6,348.7,352.7,348.9,351.7,348.9z"/>
<ellipse transform="matrix(0.8863 -0.4631 0.4631 0.8863 -118.2056 201.3092)" class="st1" cx="350.9" cy="341.4" rx="4.6" ry="5.8"/>
<path class="st1" d="M278.1,391.1c-1,0-1.9-0.2-2.7-0.7c-1.6-0.8-2.8-2.5-3.2-4.4c-0.4-1.8,0-3.8,0.9-5.6c1.4-2.7,4.1-4.5,6.8-4.5
	c1,0,1.9,0.2,2.7,0.7c3.2,1.7,4.3,6.2,2.3,10C283.4,389.3,280.8,391.1,278.1,391.1C278.1,391.1,278.1,391.1,278.1,391.1z"/>
<ellipse transform="matrix(0.4631 -0.8863 0.8863 0.4631 -190.1246 453.1287)" class="st1" cx="279" cy="383.5" rx="5.8" ry="4.6"/>
<path class="st1" d="M208.8,151.8c-3.5,0-6.5-3.2-6.7-7.4c-0.1-2,0.4-3.9,1.5-5.4c1.1-1.6,2.8-2.6,4.7-2.7c0.1,0,0.2,0,0.4,0
	c3.5,0,6.5,3.2,6.7,7.4c0.3,4.3-2.5,8-6.1,8.2C209,151.8,208.9,151.8,208.8,151.8C208.8,151.8,208.8,151.8,208.8,151.8z"/>
<ellipse transform="matrix(0.9981 -6.214879e-02 6.214879e-02 0.9981 -8.5495 13.2481)" class="st1" cx="208.7" cy="144.1" rx="4.6" ry="5.8"/>
<path class="st1" d="M293.6,253c-0.6,0-1.1-0.1-1.6-0.3c-3-1.2-6.7-6.6-8.5-9.6c-3,1.9-8,4.9-10.5,4.9c-0.7,0-1.2-0.2-1.7-0.5
	c-2.8-1.9-0.8-8,5.8-18.2c0.6-1,0.9-1.5,14.4-2.2c7.6-0.4,16-0.7,21.9-0.7c8.9,0,9.7,0.5,10.3,1.6c7.6,12.6,9.4,18.1,6.4,20.5
	c-0.6,0.5-1.4,0.7-2.5,0.7c-4.4,0-14.8-5.4-18.7-7.6C306,245.1,298.3,253,293.6,253C293.7,253,293.7,253,293.6,253z"/>
<path class="st1" d="M278.8,230.5c0.7-1.1,42.3-3,43.3-1.4c4.7,7.7,9.2,16.1,6.9,17.9c-2.8,2.2-20.3-7.8-20.3-7.8
	s-11.6,13.4-15.8,11.7c-3.4-1.4-8.6-10.6-8.6-10.6s-10,6.8-11.7,5.6C271,244.9,273.7,238.4,278.8,230.5z"/>
<path class="st1" d="M242.7,69.1c-1.5,0-4.4,0-25.7-31.2c-1.4-2.1-1.7-4.7-0.8-7.1c0.9-2.3,2.9-4.1,5.4-4.7
	c18.9-4.5,21-4.5,21.6-4.5c0.1,0,0.2,0,0.3,0c3.1,0.3,9.9,1.8,20.2,4.5c2.6,0.7,4.7,2.6,5.6,5.2c0.9,2.6,0.4,5.4-1.2,7.6
	c-22.5,29.7-23.9,29.9-25,30l-0.1,0L242.7,69.1z"/>
<path class="st1" d="M218.6,36.8c-2.2-3.3-0.5-7.8,3.4-8.7c8.1-1.9,19.7-4.6,21.3-4.4c3.8,0.3,12.9,2.6,19.8,4.5
	c4.2,1.1,5.9,6.2,3.3,9.6c-8,10.6-22.2,29.1-23.7,29.3C240,67.5,226,47.6,218.6,36.8z"/>
<ellipse class="st1" cx="227.9" cy="318.9" rx="11.2" ry="9.7"/>
<ellipse class="st1" cx="227.9" cy="318.9" rx="9.2" ry="7.7"/>
<path class="st1" d="M348.4,141.3c-4.2-1.7-13.9-6.3-13.8-11.3c0-1.1,0.1-4.4,14.7-4.4c13.8,0,14,3.4,14,4.5
	c0.2,4.7-9.2,9.4-13.3,11.2l-0.8,0.3L348.4,141.3z"/>
<path class="st1" d="M336.5,130c0.1-3.2,24.5-3.5,24.7,0.1c0.2,3.9-12.1,9.3-12.1,9.3S336.4,134.2,336.5,130z"/>
<path class="st2" d="M44.8-70.5c-2.4,0-4.1-1.5-5.2-3c-1.6,1.4-4.2,3-7.5,3c-0.4,0-0.7,0-1.1-0.1c-3.1-0.3-5.1-2.5-6.2-4.9
	c-1.8,1.7-4.6,3.3-8.9,3.3c-1.8,0-3.4-1.2-4.6-2.5c-1.2,1.2-3.1,2.4-6,2.4c-0.1,0-0.3,0-0.4,0c-3.1-0.1-5.2-1.5-6.5-2.8
	c-1.1,0.8-2.8,1.4-5.5,1.4c-0.3,0-0.7,0-1,0c-3-0.2-5-2.9-6-4.8c-3.4,1.4-10.8,4.3-18.1,5.8c-2,0.4-4.1,0.6-6.3,0.6
	c-13.6,0-27.2-8.1-28-16.7c-0.2-2.3,0.3-7.1,3.4-8.6c0.3-0.2,0.7-0.3,1-0.4c-0.9-1.5-1.7-3.2-1.9-5.2c-0.6-4.3,1.9-9,5.4-10.4
	c0.8-0.3,1.8-0.5,2.9-0.5c0.9,0,1.8,0.1,2.5,0.2c0-1.8,0-4,0.4-5.6c0.9-4,4.8-6.2,11-6.2c0.1,0,0.1,0,0.2,0c-0.1-2.6,0-7.5,0.6-14.8
	c0.8-8.7,2.8-11.9,5.8-14.2c2.7-2.1,6.3-3.2,8.3-3.7c0-2.2,0.2-5.8,1.7-7.8c2.2-2.9,12.3-5.1,13-5.1h0.8l0.3,0.3
	c1.8-0.3,7.2-3.9,11.3-7.3l1.1-0.9l23.8,15.1c1.1,0.7,2,1.1,2.8,1.1c0.9,0,1.9-0.4,3-1.3l19.5-14.8l1.2,1.1
	c0.1,0.1,6.1,5.5,12.4,10.5c0.1,0,0.2,0.1,0.5,0.1c0.5,0,0.8-0.2,0.9-0.2l3-7.8l1.6,0.3c4.5,0.7,5.4,1.9,5.6,2.2
	c1.8,2.4,1.9,7.4,1.8,10.3c2.6,0.3,6.5,1,8.3,2.3c11.8,8.5,13.3,24.4,13.5,30c2.2,0.2,5.3,0.7,6.9,2.4c2.7,2.9,3.4,5.3,3.5,6.9
	c2.4,1.1,7.1,3.7,9.2,6.7c2,2.9,1.9,6.2,1.6,8.2c1.2,0.7,2.8,1.9,4,3.7c1.5,2.2,2.5,5.7-1.1,9.9c-5.9,6.9-17.7,13.9-31,13.9
	c-2,0-4-0.2-6-0.5c-5.8-1-10.2-1.9-12.6-2.4c-1.3,3.8-4.8,8.9-11.6,9.9c-0.3,0-0.5,0.1-0.8,0.1c-2.5,0-5.4-1.8-7.2-3.1
	c-1.4,1.6-4.1,3.6-8.9,4C45.1-70.5,44.9-70.5,44.8-70.5z"/>
<path class="st2" d="M-12.2-169c2.1,2,13.6-7.6,13.6-7.6L24-162.2c2.9,1.9,5.4,1.8,8.2-0.3l18.1-13.8c0,0,6.1,5.5,12.5,10.6
	c0.9,0.7,3.7,0.7,4.4-1.1l2.4-6.3c0,0,3.7,0.6,4.4,1.5c2.1,2.7,1.2,10.8,1.2,10.8s7.2,0.7,9.2,2.2c13.5,9.7,12.7,30.3,12.7,30.3
	s5.6-0.1,7.5,1.9c3.9,4,2.8,6.7,2.8,6.7s7.2,3,9.6,6.6c2.4,3.6,0.9,8.2,0.9,8.2s2.9,1.1,4.6,3.7c1.8,2.7,0.9,5.3-0.9,7.5
	c-6.3,7.5-20.5,15.2-35.1,12.7c-8.6-1.4-14.3-2.8-14.3-2.8s-1.6,9-10.5,10.3c-3.3,0.5-8.1-4-8.1-4s-1.5,4.4-8.6,5
	c-3.3,0.3-5.1-4.4-5.1-4.4s-3.2,4.9-8.8,4.3c-4.9-0.5-5.7-7.5-5.7-7.5s-1.8,5.9-9.7,5.9C13.6-74.2,11-78,11-78s-1.2,3.9-6.1,3.7
	c-4.8-0.2-6.5-4.2-6.5-4.2s-0.2,3-6.4,2.7c-3.3-0.2-5.1-5.4-5.1-5.4s-10,4.5-19.5,6.5c-14.1,2.9-31.1-5.7-31.9-14.3
	c-0.2-1.8,0.2-5.7,2.3-6.7c1.8-0.9,4.6,0.2,4.6,0.2s-3.8-3.5-4.4-7.8c-0.4-3.3,1.4-7.2,4.1-8.3c2.5-1,6.8,0.5,6.8,0.5
	s-0.3-5.2,0.3-7.7c1.4-5.9,11.3-4.6,11.3-4.6S-40-128.9-39-140c0.7-8.2,2.5-10.8,5-12.7c3.7-2.8,9.2-3.7,9.2-3.7s-0.5-5.9,1.2-8.1
	C-22-166.7-12.3-169.1-12.2-169z"/>
<path class="st1" d="M538.5,48.6c-1.1,0-2.1-0.3-3.1-0.9l-23.3-14.6l-9.7,6.5c-0.8,0.6-1.7,0.9-2.7,0.9c-1.2,0-2.4-0.4-3.7-1.3
	c-3.2-2.2-8.2-9.4-10.4-12.8c-2.5,1.6-7.2,4.2-11.3,4.2c-1.2,0-2.2-0.2-3.1-0.6l-0.3-0.1l-0.2-0.2c-11.5-10-11.6-27.1-10.9-35.3
	c-2.6,1.7-6,3.5-8.4,3.5c-2,0-2.9-1.1-3.3-1.8c-7.2-12.6,0.5-31.9,3.7-38.8c-2.7-0.5-5.7-1.6-6.5-3.6l0-0.1l0-0.1
	c-2.1-9.9,10-17.6,14.8-20.2c-1.7-3.1-4.3-8.7-3.4-12c2.4-7.7,11.8-9,17.5-9.1c-2.3-4.2-5-10.2-3.7-13.3c2-4.5,7.6-6.8,16.7-6.8
	c2.5,0,4.7,0.2,6.3,0.3c-0.2-2.6-0.1-6,1.7-7.7c1.2-1.1,3.1-1.6,5.7-1.6c2.1,0,4.3,0.3,5.8,0.6c1.3-2.3,3.9-6.3,7.2-6.6
	c0.3,0,0.5,0,0.8,0c4.4,0,7.3,3.2,8.6,5c1-0.1,2.5-0.3,3.8-0.3c1.2,0,2.1,0.1,2.8,0.4c1.6,0.6,3,1.7,4.1,2.6
	c1.9-2.2,5.5-5.4,10.5-5.4c0.4,0,0.9,0,1.3,0.1c5.8,0.7,12.6,9.5,15,12.8c2.3-0.4,7.3-1.2,12-1.2c3,0,5.3,0.3,7.1,1
	c5.9,2.3,7.5,11.1,8,15.3c0.6,0,1.2-0.1,1.9-0.1c2.6,0,6.5,0.4,10.4,2.3c8,3.8,11.7,8.1,10.6,12.4c-0.6,2.4-2.3,4.2-3.7,5.4
	c2.9,2.3,8,6.7,11.5,11.5c7.6,10.5,7.4,14.1,6.4,16c-0.3,0.7-1.1,1.7-2.8,2.1c3.2,8.2,10.7,29.9,4.8,38.3l-0.3,0.5L626-4
	c-1.1,0.5-2.7,0.7-4.8,0.7c-2.6,0-5.5-0.3-7.7-0.6c0.5,3.3,0.9,9.1-1.1,15.8c-2.1,7.4-9.7,18.2-16.8,18.4c-0.1,0-0.2,0-0.3,0
	c-3.3,0-6.6-1.8-8.6-3.1l-7.4,14.5l-0.2,0.2c-1,1.2-2.5,1.8-4.1,1.8c-1.5,0-2.9-0.6-3.9-1.7l-10.1-9l-19,14.3
	C541,48.2,539.7,48.6,538.5,48.6z"/>
<path class="st1" d="M497.2,37.6c-3.8-2.7-11-13.9-11-13.9s-9.3,6.8-14.1,4.6c-14.5-12.7-9.6-38-9.6-38s-10.7,8.2-12.6,4.9
	c-8.3-14.4,5-39.3,5-39.3s-6.8-0.7-7.6-2.8c-2.2-10.7,15.6-19,15.6-19s-5.2-8.7-4.2-12.2c2.8-9.3,19.2-7.5,19.2-7.5
	s-6.9-11.1-5.4-14.6c3.6-8.3,23.5-4.9,23.5-4.9s-1.4-6.6,0.7-8.5c2.5-2.3,11.3-0.2,11.3-0.2s3-6.5,6.3-6.8c5.3-0.5,8.2,5.2,8.2,5.2
	s5-1,6.8-0.2c2.7,1,5.1,3.7,5.1,3.7s4.4-7.2,11.3-6.4c6,0.7,14.3,13,14.3,13s13.4-2.9,19.2-0.6c6.4,2.5,6.9,15.7,6.9,15.7
	s6.5-1.4,13.3,1.8c5.3,2.6,10.5,6.3,9.5,10.2c-0.9,3.6-5.1,5.9-5.1,5.9s8.4,6.1,13.2,12.7C630-41.7,619-45.1,619-45.1
	s12.6,30.1,6.2,39.3C621.9-4.5,611-6.3,611-6.3s2.4,7.7-0.5,17.7c-2,7-9,16.8-14.9,17c-4.7,0.2-9.6-4.1-9.6-4.1l-8.4,16.4
	c-1.4,1.5-3.8,1.6-5.1,0l-11.4-10.1l-20.3,15.3c-1.3,0.9-3,1-4.3,0.2L512,30.8L501.2,38C500,39,498.5,38.5,497.2,37.6z"/>
<path class="st1" d="M535.7,17.2c-17,0-47.3-4.7-53.1-22.1c-2.4-7.4-0.8-18.3,1.9-36.3c0.5-3.1,0.3-10.5,0.2-13.1
	c-1.9-1.6-6.8-5.8-8.6-9.5c-2.8-5.9-2.5-15,3-19.3c2.1-1.7,4.9-2.6,8.2-2.6c1.9,0,3.5,0.3,4.3,0.4c5.4,1,10.4,3.5,12.8,4.9
	c1.2-1.6,3.3-3.9,6-4.9c4.8-1.9,14.4-3.1,24.5-3.1c6.1,0,11.5,0.4,15.7,1.3c1.7,0.3,3.7,1.6,5.1,2.6c1.5-2.1,4.1-5.4,7.2-7.4
	c2-1.3,4.6-2,7.4-2c3.7,0,7.5,1.2,10.5,3.2c7.3,4.9,9,14.9,7,22.3c-1.3,4.6-5.1,9.2-6.9,11.1c1,3.1,4.1,12.1,6.4,17.9
	c4.6,11.5,5,25.8,1.1,34.8c-5.6,12.9-23.1,20.6-49.3,21.6C538.1,17.2,536.9,17.2,535.7,17.2z"/>
<path class="st1" d="M505-77.6c0,0,2.6-4.3,6.2-5.7c7.6-3,27.7-4,39-1.7c2.4,0.5,6,3.6,6,3.6s3.5-5.8,7.8-8.6
	c4.4-2.9,11.3-1.9,15.7,1.1c6.9,4.7,7.8,14.1,6.2,20.1c-1.5,5.4-7.2,11.1-7.2,11.1s3.9,12,6.8,19.2c4.2,10.7,4.9,24.7,1.1,33.3
	c-8.2,18.9-41.1,20.2-47.5,20.4c-18.5,0.7-49.3-4.3-54.6-20.7c-2.3-7-0.7-17.9,2-35.4c0.6-4,0.2-14.4,0.2-14.4s-6.8-5.3-8.7-9.4
	c-2.5-5.2-2.2-13.2,2.4-16.9c3.8-3.1,9.3-2,10.9-1.7C498.5-81.9,505-77.6,505-77.6z"/>
<path class="st1" d="M-1.7,265.6c-17,0-47.3-4.7-53.1-22.1c-2.4-7.4-0.8-18.3,1.9-36.3c0.5-3.1,0.3-10.5,0.2-13.1
	c-1.9-1.6-6.8-5.8-8.6-9.5c-2.8-5.9-2.5-15,3-19.3c2.1-1.7,4.9-2.6,8.2-2.6c1.9,0,3.5,0.3,4.3,0.4c5.4,1,10.4,3.5,12.8,4.9
	c1.2-1.6,3.3-3.9,6-4.9c4.8-1.9,14.4-3.1,24.5-3.1c6.1,0,11.5,0.4,15.7,1.3c1.7,0.3,3.7,1.6,5.1,2.6c1.5-2.1,4.1-5.4,7.2-7.4
	c2-1.3,4.6-2,7.4-2c3.7,0,7.5,1.2,10.5,3.2c7.3,4.9,9,14.9,7,22.3c-1.3,4.6-5.1,9.2-6.9,11.1c1,3.1,4.1,12.1,6.4,17.9
	c4.6,11.5,5,25.8,1.1,34.8c-5.6,12.9-23.1,20.6-49.3,21.6C0.7,265.6-0.5,265.6-1.7,265.6z"/>
<path class="st1" d="M-32.3,170.8c0,0,2.6-4.3,6.2-5.7c7.6-3,27.7-4,39-1.7c2.4,0.5,6,3.6,6,3.6s3.5-5.8,7.8-8.6
	c4.4-2.9,11.3-1.9,15.7,1.1c6.9,4.7,7.8,14.1,6.2,20.1c-1.5,5.4-7.2,11.1-7.2,11.1s3.9,12,6.8,19.2c4.2,10.7,4.9,24.7,1.1,33.3
	c-8.2,18.9-41.1,20.2-47.5,20.4c-18.5,0.7-49.3-4.3-54.6-20.7c-2.3-7-0.7-17.9,2-35.4c0.6-4,0.2-14.4,0.2-14.4s-6.8-5.3-8.7-9.4
	c-2.5-5.2-2.2-13.2,2.4-16.9c3.8-3.1,9.3-2,10.9-1.7C-38.9,166.6-32.3,170.8-32.3,170.8z"/>
</svg>
