<?xml version="1.0" encoding="utf-8"?>
<!-- Generator: Adobe Illustrator 26.4.1, SVG Export Plug-In . SVG Version: 6.00 Build 0)  -->
<svg version="1.1" id="Layer_1" xmlns="http://www.w3.org/2000/svg" xmlns:xlink="http://www.w3.org/1999/xlink" x="0px" y="0px"
	 viewBox="0 0 566.9 566.9" style="enable-background:new 0 0 566.9 566.9;" xml:space="preserve">
<style type="text/css">
	.st0{fill:none;stroke:#33479D;stroke-miterlimit:10;}
	.st1{fill:none;stroke:#D81C4F;stroke-miterlimit:10;}
	.st2{fill:none;stroke:#5452A3;stroke-miterlimit:10;}
	.st3{fill:none;stroke:#7DC242;stroke-miterlimit:10;}
</style>
<path class="st0" d="M288.7,262.3l1.8,1.3c0.7,0.5,1.8,0.4,2.3-0.4c3.7-5.2,16-23,6.8-18c-0.9,0.5-3.3,3.7-3.3,3.7s-0.6-1.3-1.3-0.8
	c-3.1,2.2-5.1,8-6.9,12C287.7,260.9,288,261.8,288.7,262.3z"/>
<path class="st0" d="M320.8,254.4c0,0,0.3,0.1,0.8,1.6c0,0,5.7-1.4,5.7-1.4s4.8,5.1-15.3,15.4c-1.3,0.6-4.7,1-5.6-1.1
	C305.3,266,320.8,254.4,320.8,254.4z"/>
<path class="st0" d="M267.9,247c0,0,2.1-0.2,2.1-0.2s1.6-2.9,1.6-2.9c2.7,0.3,5.6,5.4,6.7,7.9c0.5,1.1-1,5.6-3,2.3
	C273.5,251.2,267.9,247,267.9,247z"/>
<path class="st0" d="M253.1,255.5c0,0,3.4,0,5,0.6c0,0-0.5-3-0.5-3c6.7,2.7,15.9,8.9,12.4,11.5C267,266.8,253.1,255.5,253.1,255.5z"
	/>
<path class="st0" d="M380.3,313.8c0.9,2,6.2,18.5,6.2,18.5s-7.1-17.8-22.1-17.7c-5.1,0.1-4.9-2.9-4.5-4
	C361.1,307.2,377.7,307.9,380.3,313.8z"/>
<path class="st0" d="M360.2,348.1l3.7-6c0,0,19,13.1,15.4,13.3c-2.9,0.2-6.5-0.7-6.5-0.7s1,4.3,0.9,4.3
	C370.2,358.7,362.8,350.6,360.2,348.1z"/>
<path class="st0" d="M346.1,389.5c-2.8-5-4.8-16.9-4.2-17.5c1.8-1.6,5.4-0.6,5.4-0.6s6.1,14.4,4.6,16.2c-0.7,0.9-3.8-2.2-3.8-2.2
	S346.2,389.7,346.1,389.5z"/>
<path class="st0" d="M320.9,393.6c0,0-3.5-11.8-0.6-14.3c0.8-0.7,1.7-0.8,2.5-0.8c1,0.1,1.8,0.9,1.9,2l0.6,13.5c0,0-2.2-2.1-2.2-2.1
	S320.9,393.6,320.9,393.6z"/>
<path class="st0" d="M276.7,393.3c1.2-0.7-3.4-15.3-3.4-15.3s-2.1-1.5-3.4,0.3c-1,1.5,1.6,15.6,1.6,15.6c0,0,2.5-1.9,2.5-1.9
	S275.9,393.7,276.7,393.3z"/>
<path class="st0" d="M231.8,386.8c0,0,11.6-6.2,14.6-8.1c3.9-2.4,2.7-5.8,5.4-7.5c0.5-0.3,1.1-0.2,1.7,0.1c2.6,1.2,3.4,4.6,1.8,7
	l-5.8,8.9c0,0-1.5-2.2-1.5-2.2S235,394.4,231.8,386.8z"/>
<path class="st0" d="M209.8,351.6c-0.1-0.3,0-0.6,0.3-0.7c2.8-0.5,10.1,0.2,18.8-9.7c3.5-4,4.6-1.6,5.3,0.7c0.1,0.5,0.5,0.8,0.1,1.2
	c-1.7,1.3-5.5,4.4-7.1,5.9c-3.2,2.7-10.9,9.5-14.6,8.1C211.2,356.5,210.1,353,209.8,351.6z"/>
<path class="st0" d="M224.1,310c1.1-0.4,6.8-0.6,8.2-0.6c0.2,0,0.3,0.1,0.3,0.3l-0.4,3.1c0,0.2-0.2,0.4-0.4,0.4
	c-1.4,0.1-6.3,0.5-8.6,3.3c-11.5,14.3-10.9,11.2-10.9,11.2s3.2-8.1,4.6-10.6C218.1,314.8,220.8,311.3,224.1,310z"/>
<path class="st0" d="M234.4,291l0,4.8c0,0-2.7,0.5-10.6,5.2c-7.3,4.4-8.7,7-14.1,9.8c-0.1,0.1-3-1.7,6.2-9.7
	c4.3-3.8,7.1-5.1,9.4-6.2C227.3,293.8,234.4,291,234.4,291z"/>
<path class="st0" d="M237.3,270.9c0,0,7.5,3.2,7.9,5.5c0.5,2.6-6,4.1-6,4.1l-6.1-4.9c0,0,6.5-0.2,6.5-0.2S237.3,271.6,237.3,270.9z"
	/>
<path class="st0" d="M347.2,267.4c0,0-3.2,3.3-4.4,5.1c-0.4,0.6,2.6,3.3,2.6,3.3l7.3-4.8c-3.6-0.7-5.1-0.1-5.2-0.1
	C347.4,270.8,348.1,268.7,347.2,267.4z"/>
<path class="st0" d="M358.1,285.1l-0.5,4.8c0,0,2.6,0.8,10,6.3c6.8,5.2,7.8,7.9,12.9,11.3c0.1,0.1,3.2-1.3-5-10.4
	c-3.9-4.3-6.5-5.8-8.6-7.2C364.8,288.7,358.1,285.1,358.1,285.1z"/>
<ellipse class="st1" cx="373.6" cy="-14.2" rx="9.2" ry="7.7"/>
<ellipse class="st1" cx="244.2" cy="-14.2" rx="9.2" ry="7.7"/>
<path class="st1" d="M253.4-74.9c0,0,3.2,12.9,5.2,27.8c1.4,9.9,6.7,22.4,6.7,22.4s-2-1.2-9.2-8.7c-4.7-4.9-11.5-9.3-14.7-9.8
	c-0.9-0.1-1.9,1.3-1.4,2c3.3,4.8,14.3,15,20.4,20.3c2.8,2.5,4.1,6.2,3.5,9.9C263.4-8,261.5,2,261.5,2l6-2.4c0,0,0.8-8.4,2.9-11.1
	c3.2-4.1,9.5-6.9,16.2-6.8c2,0,1.8-4.6-0.1-5c-3.6-0.8-10.2,1.6-12.7-0.6c-11.5-9.9-13.5-61.7-13.5-61.7c0,0-5.7-0.2-4.4,10
	C255.8-75.4,253.4-74.9,253.4-74.9z"/>
<path class="st2" d="M350.3-92c-0.9-0.2-1.7,28.1-4.4,38.7c-4.5,17.6-12,28.3-12,28.3s-4.9-5.3-7.6-3.3c-1.9,1.4-3,5.1-2,7.2
	c1.6,3.3,4.5-0.1,13,10c7.5,9,2.1,15.6,6.6,17.5c1.8,0.7,4.1-0.8,6.7-4.4c4.2-6-0.5-8.6,1.1-14.6c3-10.8,16.2-25.8,28.2-33.8
	c1.1-0.7-2.4-0.8-2.4-0.8s0.1-2.7-0.2-3c-1.5-1.5-12.3,5.6-21.8,15c-10.4,10.3-12.3,21.2-12.3,21.2l-4.2-5.2c0,0,2.6-3.5,5.8-9
	c5.9-10.1,7.3-16.5,8.6-23.5c0.5-3,1.3-11.9,2.2-18.5c0.3-2.4,0.5-13.4-0.3-19.3C355.2-90.2,354.8-91.1,350.3-92z"/>
<path class="st1" d="M293.8-7c1,1.3,0.9,13.3,0.8,13.3c-1-0.4-3.1-3.6-3.3-3.6c0,0-0.9,3-2.9,3.6c-0.2,0.1,0.2-4.6,0.1-7.1
	c-0.1-3.1-0.2-5.9,0.6-6.4C290.7-8,292.8-8.2,293.8-7z"/>
<path class="st1" d="M281-7.6c1,1.3,0.9,13.3,0.8,13.3c-1-0.4-3.1-2.9-3.1-2.9c0,0-1,2.3-3.1,2.8c-0.2,0.1,0.2-4.6,0.1-7.1
	c-0.1-3.1-0.2-5.9,0.6-6.4C277.9-8.7,280.1-8.8,281-7.6z"/>
<path class="st1" d="M322.4-5.7c1,1.3,0.9,13.3,0.8,13.3c-1-0.4-3-3.3-3-3.2c-0.2,0-1.1,2.7-3.1,3.2c-0.2,0.1,0.2-4.6,0.1-7.1
	c-0.1-3.1-0.2-5.9,0.6-6.4C319.3-6.8,321.5-6.9,322.4-5.7z"/>
<path class="st1" d="M337-6.8c1,1.3,0.9,13.3,0.8,13.3c-1-0.4-3.6-3.3-3.6-3.3s-0.5,2.7-2.5,3.3c-0.2,0.1,0.2-4.6,0.1-7.1
	c-0.1-3.1-0.2-5.9,0.6-6.4C333.9-7.9,336.1-8.1,337-6.8z"/>
<path class="st1" d="M308.2-29.9c1,3.4,0.2,36.8,0.2,36.8c-1-1.1-2.7-5.4-2.7-5.4s-0.8,1.9-2.8,3.2c-0.2,0.2,0.2-12.1,0.1-18.5
	c-0.1-8.1-0.2-15.6,0.6-16.7C305.1-32.6,307.3-33.1,308.2-29.9z"/>
<ellipse transform="matrix(0.8863 -0.4631 0.4631 0.8863 -247.8748 147.857)" class="st1" cx="177.2" cy="578.7" rx="4.6" ry="5.8"/>
<ellipse transform="matrix(0.4631 -0.8863 0.8863 0.4631 -372.4821 536.1043)" class="st1" cx="256.3" cy="575.5" rx="5.8" ry="4.6"/>
<ellipse transform="matrix(0.9981 -6.214879e-02 6.214879e-02 0.9981 -37.8775 16.3777)" class="st1" cx="244.3" cy="617.1" rx="4.6" ry="5.8"/>
<path class="st1" d="M189.4,621c0.2,3.2,2.4,5.7,5,5.5c2.6-0.2,4.5-2.9,4.3-6.1c-0.2-3.2-2.4-5.7-5-5.5
	C191.1,615.1,189.2,617.8,189.4,621z"/>
<path class="st1" d="M194.8,575.8c0.7-1.1,42.3-3,43.3-1.4c4.7,7.7,9.2,16.1,6.9,17.9c-2.8,2.2-20.3-7.8-20.3-7.8
	s-11.6,13.4-15.8,11.7c-3.4-1.4-8.6-10.6-8.6-10.6s-10,6.8-11.7,5.6C187,590.2,189.6,583.7,194.8,575.8z"/>
<path class="st1" d="M211.2,631.4c0.1-3.2,24.5-3.5,24.7,0.1c0.2,3.9-12.1,9.3-12.1,9.3S211.1,635.5,211.2,631.4z"/>
<path class="st3" d="M221.5,650l4,0.1c3.4,0.1,6.7-1.6,8.5-4.5l0,0c0.1-0.1-0.1-0.2-0.1-0.2c-4.2,1.2-5.7,1.9-8.3,1.2
	c-0.1,0,0-6.4,0-6.4l-3.9,0c0,0,0.3,6.4,0.3,6.4c-3.2,0.4-5.5-0.8-8.2-1.2c-0.1,0-0.3,0.2-0.2,0.4l0,0
	C215.4,648.4,218.3,649.9,221.5,650z"/>
</svg>
