<?xml version="1.0" encoding="utf-8"?>
<!-- Generator: Adobe Illustrator 26.4.1, SVG Export Plug-In . SVG Version: 6.00 Build 0)  -->
<svg version="1.1" id="Layer_1" xmlns="http://www.w3.org/2000/svg" xmlns:xlink="http://www.w3.org/1999/xlink" x="0px" y="0px"
	 viewBox="0 0 566.9 566.9" style="enable-background:new 0 0 566.9 566.9;" xml:space="preserve">
<style type="text/css">
	.st0{fill:none;stroke:#000000;stroke-miterlimit:10;}
	.st1{fill:none;stroke:#D81C4F;stroke-miterlimit:10;}
	.st2{fill:none;stroke:#71CEE6;stroke-miterlimit:10;}
</style>
<path class="st0" d="M84.6,753.9c-2.2,0-4.2-0.5-5.9-1.4c-2.1,0.8-4.4,1.3-6.8,1.3c-0.7,0-1.3,0-2-0.1c-2.8-0.3-5.1-1.3-7.1-2.7
	c-2.1,0.7-4.5,1.1-7.2,1.1c-1.8,0-3.4-0.4-4.9-1c-1.7,0.6-3.6,0.9-5.7,0.9c-0.2,0-0.4,0-0.7,0c-2.7-0.1-5.2-0.8-7.3-1.9
	c-1.3,0.3-2.8,0.4-4.4,0.4c-0.5,0-0.9,0-1.4,0c-0.6,0-1.3-0.1-1.9-0.2c-5.5-1.1-11.1-1.2-16.6,0.2c-1.2,0.3-2.4,0.6-3.7,0.9
	c-2.5,0.5-5.2,0.8-7.9,0.8c-16.3,0-34.7-9.6-35.9-24c-0.3-3.8,0.4-8.5,2.9-12.1c-0.1-0.5-0.2-1.1-0.3-1.7c-1-8,3.4-16.1,10.4-18.8
	c0.3-0.1,0.7-0.2,1-0.4c1.3-5.5,5.3-9.4,11-11.1c0.1-2.4,0.3-5.3,0.6-8.6c0.9-9.9,3.5-15.7,8.9-19.8c1.8-1.4,3.8-2.4,5.7-3.2
	c0.4-1.9,1-3.8,2-5.4c-1.4,0.3-2.9,0.5-4.4,0.5c-2.3,0-4.5-0.5-6.4-1.4l-1.3-0.6l-1.1-0.9c-9.5-8.3-12.7-20.1-13.5-29.8
	c-0.2,0-0.4,0-0.6,0c-4.3,0-8.1-2.2-10.2-5.8c-7-12.2-3.4-28.2,0.3-38.6c-1.7-1.4-2.9-3-3.6-5l-0.2-0.7l-0.1-0.7
	c-2.4-11.2,5.6-19.8,12.5-24.8c-1.5-4.3-1.8-8-0.9-11.2l0.1-0.2c1.9-6.3,6.8-10.8,13.8-13c-1.6-5.8-0.3-8.8,0.3-10.2
	c2.3-5.2,8.1-11.4,23.2-11.5c0.7-1.9,1.7-3.7,3.4-5.2c2.7-2.5,6.3-3.7,11.1-3.7c0.6,0,1.3,0,1.9,0.1c2.4-2.9,5.9-5.6,10.3-6
	c0.5,0,1-0.1,1.5-0.1c4.8,0,8.8,2,11.8,4.7c0.2,0,0.4,0,0.5,0c2.2,0,4,0.3,5.6,0.9c0.1,0.1,0.3,0.1,0.4,0.2c2.9-2,6.7-3.6,11.3-3.6
	c0.7,0,1.5,0,2.2,0.1c6.9,0.8,13.1,6.7,17.5,12.1c2.5-0.3,5.5-0.6,8.5-0.6c4,0,7.3,0.5,10,1.6c6.9,2.7,10.2,9.2,11.8,15
	c3.2,0.5,6.3,1.4,9.1,2.7c15.7,7.6,16.1,16.7,14.9,21.5c-0.2,0.8-0.5,1.6-0.8,2.3c2.5,2.4,5.1,5.1,7.3,8.1c5.9,8.2,10.9,16.8,7,24.3
	c-0.2,0.3-0.3,0.6-0.5,0.9c4.3,12.4,8.8,30.6,2,40.4l-1.6,2.4l-2.6,1.1c-2,0.8-4.3,1.2-7.3,1.3c-0.2,2.9-0.7,6.1-1.7,9.5
	c-2.7,9.4-12.1,23.6-23.9,24.2c0,0.1,0,0,0,0.1c3.1,0.9,4.5,1.9,5.1,2.4c11.3,8.1,15,21.3,16.2,30c1.9,0.8,3.8,1.9,5.3,3.4
	c2.2,2.3,3.7,4.7,4.6,7c3.1,1.8,6.7,4.4,8.9,7.7c2,3,2.8,6.1,3,8.8c0.9,0.9,1.8,1.9,2.6,3c4.1,6.1,3.5,13.4-1.6,19.5
	c-7,8.3-21.2,16.7-37,16.7c-2.5,0-4.9-0.2-7.3-0.6c-0.2,0-0.3-0.1-0.5-0.1c-3.8-0.6-7.5,0.5-10.5,2.9c-2.8,2.3-6.3,4-10.8,4.7
	c-0.6,0.1-1.3,0.1-1.9,0.1c-2.4,0-4.6-0.6-6.7-1.5c-2.4,1.2-5.3,2.1-8.7,2.4C85.3,753.9,85,753.9,84.6,753.9z"/>
<path class="st0" d="M27.6,647.6c-5.2-2.6-12.7-14.8-12.7-14.8s-9.3,6.8-14.1,4.6c-14.5-12.7-9.6-38-9.6-38s-10.7,8.2-12.6,4.9
	c-8.3-14.4,5-39.3,5-39.3s-6.8-0.7-7.6-2.8c-2.2-10.7,15.6-19,15.6-19s-5.2-8.7-4.2-12.2c2.8-9.3,19.2-7.5,19.2-7.5
	s-6.9-11.1-5.4-14.6c3.6-8.3,23.5-4.9,23.5-4.9s-1.4-6.6,0.7-8.5c2.5-2.3,11.3-0.2,11.3-0.2s3-6.5,6.3-6.8c5.3-0.5,8.2,5.2,8.2,5.2
	s5-1,6.8-0.2c2.7,1,5.1,3.7,5.1,3.7s4.4-7.2,11.3-6.4c6,0.7,14.3,13,14.3,13s13.4-2.9,19.2-0.6c6.4,2.5,6.9,15.7,6.9,15.7
	s6.5-1.4,13.3,1.8c5.3,2.6,10.5,6.3,9.5,10.2c-0.9,3.6-5.1,5.9-5.1,5.9s8.4,6.1,13.2,12.7c13.2,18.3,2.2,14.8,2.2,14.8
	s12.6,30.1,6.2,39.3c-3.3,1.4-14.2-0.5-14.2-0.5s2.4,7.7-0.5,17.7c-2,7-9,16.8-14.9,17c-4.7,0.2-9.4-4.1-9.4-4.1s-1.8,5.9-5.5,10.1
	c-0.1,0.1,3.7,0.6,4.4,1.5c2.1,2.7,1.2,10.8,1.2,10.8s7.2,0.7,9.2,2.2c13.5,9.7,12.7,30.3,12.7,30.3s5.6-0.1,7.5,1.9
	c3.9,4,2.8,6.7,2.8,6.7s7.2,3,9.6,6.6c2.4,3.6,0.9,8.2,0.9,8.2s2.9,1.1,4.6,3.7c1.8,2.7,0.9,5.3-0.9,7.5
	c-6.3,7.5-20.5,15.2-35.1,12.7c-8.6-1.4-14.3-2.8-14.3-2.8s-1.6,9-10.5,10.3c-3.3,0.5-8.1-4-8.1-4s-1.5,4.4-8.6,5
	c-3.3,0.3-5.1-4.4-5.1-4.4s-3.2,4.9-8.8,4.3c-4.9-0.5-5.7-7.5-5.7-7.5s-1.8,5.9-9.7,5.9c-2.2,0-4.8-3.8-4.8-3.8s-1.2,3.9-6.1,3.7
	c-4.8-0.2-6.5-4.2-6.5-4.2s-0.2,3-6.4,2.7c-3.3-0.2-5.1-5.4-5.1-5.4s-10,4.5-19.5,6.5c-14.1,2.9-31.1-5.7-31.9-14.3
	c-0.2-1.8,0.2-5.7,2.3-6.7c1.8-0.9,4.6,0.2,4.6,0.2s-3.8-3.5-4.4-7.8c-0.4-3.3,1.4-7.2,4.1-8.3c2.5-1,6.8,0.5,6.8,0.5
	s-0.3-5.2,0.3-7.7c1.4-5.9,11.3-4.6,11.3-4.6s-0.5-5.6,0.5-16.7c0.7-8.2,2.5-10.8,5-12.7C9.4,661,15,660,15,660s-0.5-5.9,1.2-8.1
	C17.8,649.8,27.8,647.6,27.6,647.6z"/>
<path class="st1" d="M351.7,356.9c-5.7,0-11-3.4-13.8-8.7c-4-7.7-1.5-17,5.6-20.7c2-1,4.2-1.6,6.4-1.6c5.7,0,11,3.4,13.8,8.7
	c4,7.7,1.5,17-5.6,20.7C356.2,356.3,354,356.9,351.7,356.9z"/>
<ellipse transform="matrix(0.8863 -0.4631 0.4631 0.8863 -118.2056 201.3092)" class="st1" cx="350.9" cy="341.4" rx="4.6" ry="5.8"/>
<path class="st1" d="M278.1,399c-2.2,0-4.4-0.5-6.4-1.6c-3.8-2-6.4-5.6-7.3-9.9c-0.7-3.6-0.1-7.4,1.6-10.8c2.8-5.4,8.1-8.7,13.8-8.7
	c2.2,0,4.4,0.5,6.4,1.6c7.1,3.7,9.6,13,5.6,20.7C289.1,395.6,283.8,399,278.1,399C278.1,399,278.1,399,278.1,399z"/>
<ellipse transform="matrix(0.4631 -0.8863 0.8863 0.4631 -190.1246 453.1287)" class="st1" cx="279" cy="383.5" rx="5.8" ry="4.6"/>
<path class="st1" d="M208.8,159.8c-7.7,0-14.2-6.5-14.7-14.8c-0.2-3.8,0.8-7.5,2.9-10.5c2.5-3.6,6.4-5.8,10.7-6.1c0.3,0,0.6,0,0.9,0
	c7.7,0,14.1,6.5,14.7,14.8c0.5,8.7-5.5,16.1-13.6,16.6C209.4,159.8,209.1,159.8,208.8,159.8L208.8,159.8z"/>
<ellipse transform="matrix(0.9981 -6.214879e-02 6.214879e-02 0.9981 -8.5495 13.2481)" class="st1" cx="208.7" cy="144.1" rx="4.6" ry="5.8"/>
<path class="st1" d="M293.6,261c-1.6,0-3.1-0.3-4.5-0.9c-2.6-1-5.2-3.2-7.9-6.5c-4.8,2.3-7,2.3-8.1,2.3c-2.3,0-4.4-0.7-6.2-1.9
	c-10.5-7.3-0.6-22.5,3.6-29c3.1-4.8,7.2-5.1,20.6-5.8c7.7-0.4,16.3-0.7,22.4-0.7c8.3,0,13.8,0,17.1,5.4c6,9.8,14.1,23.2,4.6,30.8
	c-1.4,1.1-3.9,2.5-7.4,2.5c-4.4,0-11-2.6-17.1-5.7C300.9,261,295.6,261,293.6,261C293.7,261,293.7,261,293.6,261z"/>
<path class="st1" d="M278.8,230.5c0.7-1.1,42.3-3,43.3-1.4c4.7,7.7,9.2,16.1,6.9,17.9c-2.8,2.2-20.3-7.8-20.3-7.8
	s-11.6,13.4-15.8,11.7c-3.4-1.4-8.6-10.6-8.6-10.6s-10,6.8-11.7,5.6C271,244.9,273.7,238.4,278.8,230.5z"/>
<path class="st1" d="M242.7,77.1c-5.8,0-9.8-3.9-18.3-15.1c-4.9-6.4-10.3-14.2-14-19.6c-2.9-4.2-3.5-9.6-1.7-14.4
	c1.9-4.8,5.9-8.3,10.9-9.5c19.8-4.7,22-4.7,23.5-4.7c0.4,0,0.7,0,1,0c1.3,0.1,5.4,0.5,21.5,4.8c5.2,1.4,9.3,5.2,11.1,10.3
	c1.7,5.1,0.8,10.6-2.4,14.9c-3.9,5.2-9.6,12.6-14.5,18.7c-9.2,11.5-11.4,13.9-16,14.4l-0.6,0.1L242.7,77.1z"/>
<path class="st1" d="M218.6,36.8c-2.2-3.3-0.5-7.8,3.4-8.7c8.1-1.9,19.7-4.6,21.3-4.4c3.8,0.3,12.9,2.6,19.8,4.5
	c4.2,1.1,5.9,6.2,3.3,9.6c-8,10.6-22.2,29.1-23.7,29.3C240,67.5,226,47.6,218.6,36.8z"/>
<ellipse class="st1" cx="227.9" cy="318.9" rx="19.2" ry="17.7"/>
<ellipse class="st1" cx="227.9" cy="318.9" rx="9.2" ry="7.7"/>
<path class="st1" d="M345.3,148.6c-19-7.8-18.8-16.1-18.7-18.8c0.3-12.2,16.5-12.2,22.6-12.2c2.7,0,6.6,0.1,10.1,0.8
	c10.3,2,11.7,8.5,11.8,11.2c0.1,2.6,0.5,10.7-18.1,18.9l-3.9,1.7L345.3,148.6z"/>
<path class="st1" d="M336.5,130c0.1-3.2,24.5-3.5,24.7,0.1c0.2,3.9-12.1,9.3-12.1,9.3S336.4,134.2,336.5,130z"/>
<path class="st2" d="M44.8-62.6c-1.2,0-2.4-0.2-3.5-0.5c-1.6-0.4-3.2-0.5-4.8-0.1c-1.4,0.3-2.9,0.5-4.4,0.5c-0.7,0-1.3,0-2-0.1
	c-1.7-0.2-3.2-0.6-4.6-1.2c-1.8-0.8-3.8-1-5.7-0.7c-1.3,0.2-2.6,0.3-4,0.3c-1,0-1.9-0.1-2.7-0.3c-1.5-0.3-3-0.4-4.4-0.1
	c-1.1,0.2-2.3,0.3-3.5,0.3c-0.2,0-0.4,0-0.7,0c-1.8-0.1-3.4-0.4-4.9-0.9c-1.6-0.5-3.2-0.8-4.9-0.6c-0.6,0.1-1.2,0.1-1.9,0.1
	c-0.5,0-0.9,0-1.4,0c-1.7-0.1-3.2-0.5-4.6-1.1c-2.6-1.2-5.6-1.4-8.4-0.5c-2.9,0.9-6,1.8-9.1,2.4c-2.5,0.5-5.2,0.8-7.9,0.8
	c-16.3,0-34.7-9.6-35.9-24c-0.3-3.8,0.4-8.5,2.9-12.1c-0.1-0.5-0.2-1.1-0.3-1.7c-1-8,3.4-16.1,10.4-18.8c0.3-0.1,0.7-0.2,1-0.4
	c1.3-5.5,5.3-9.4,11-11.1c0.1-2.4,0.3-5.3,0.6-8.6c0.9-9.9,3.5-15.7,8.9-19.8c0.7-0.6,1.5-1.1,2.3-1.5c2-1.2,3.5-3.1,4.4-5.2
	c0.5-1.1,1.1-2.2,1.8-3.2c4.7-6,18.2-8.2,19.3-8.2c1.8-1.1,4.9-3.2,7.3-5.3h0c3.3-2.7,8-3,11.6-0.7l0,0l21,13.3l16.6-12.6
	c3.8-2.9,9.1-2.7,12.7,0.5h0c0,0,1.9,1.7,4.5,4l0,0c1-2.6,3.7-4.2,6.5-3.7l3.2,0.5c6.8,1.1,9.3,3.4,10.7,5.2
	c0.9,1.2,1.6,2.5,2.1,3.9c1,2.7,2.9,5,5.3,6.5c0.4,0.2,0.7,0.5,0.9,0.6c11.3,8.1,15,21.3,16.2,30c1.9,0.8,3.8,1.9,5.3,3.4
	c2.2,2.3,3.7,4.7,4.6,7c3.1,1.8,6.7,4.4,8.9,7.7c2,3,2.8,6.1,3,8.8c0.9,0.9,1.8,1.9,2.6,3c4.1,6.1,3.5,13.4-1.6,19.5
	c-7,8.3-21.2,16.7-37,16.7c-2.5,0-4.9-0.2-7.3-0.6c-0.4-0.1-0.8-0.1-1.2-0.2C80.4-72,77-71,74.6-68.8c-2.8,2.5-6.5,4.5-11.3,5.2
	c-0.6,0.1-1.3,0.1-1.9,0.1c-1.2,0-2.3-0.2-3.5-0.4c-2.2-0.5-4.5-0.4-6.7,0.3c-1.6,0.5-3.3,0.8-5.2,1C45.5-62.6,45.2-62.6,44.8-62.6z
	"/>
<path class="st2" d="M-12.2-169c2.1,2,13.6-7.6,13.6-7.6L24-162.2c2.9,1.9,5.4,1.8,8.2-0.3l18.1-13.8c0,0,6.1,5.5,12.5,10.6
	c0.9,0.7,3.7,0.7,4.4-1.1l2.4-6.3c0,0,3.7,0.6,4.4,1.5c2.1,2.7,1.2,10.8,1.2,10.8s7.2,0.7,9.2,2.2c13.5,9.7,12.7,30.3,12.7,30.3
	s5.6-0.1,7.5,1.9c3.9,4,2.8,6.7,2.8,6.7s7.2,3,9.6,6.6c2.4,3.6,0.9,8.2,0.9,8.2s2.9,1.1,4.6,3.7c1.8,2.7,0.9,5.3-0.9,7.5
	c-6.3,7.5-20.5,15.2-35.1,12.7c-8.6-1.4-14.3-2.8-14.3-2.8s-1.6,9-10.5,10.3c-3.3,0.5-8.1-4-8.1-4s-1.5,4.4-8.6,5
	c-3.3,0.3-5.1-4.4-5.1-4.4s-3.2,4.9-8.8,4.3c-4.9-0.5-5.7-7.5-5.7-7.5s-1.8,5.9-9.7,5.9C13.6-74.2,11-78,11-78s-1.2,3.9-6.1,3.7
	c-4.8-0.2-6.5-4.2-6.5-4.2s-0.2,3-6.4,2.7c-3.3-0.2-5.1-5.4-5.1-5.4s-10,4.5-19.5,6.5c-14.1,2.9-31.1-5.7-31.9-14.3
	c-0.2-1.8,0.2-5.7,2.3-6.7c1.8-0.9,4.6,0.2,4.6,0.2s-3.8-3.5-4.4-7.8c-0.4-3.3,1.4-7.2,4.1-8.3c2.5-1,6.8,0.5,6.8,0.5
	s-0.3-5.2,0.3-7.7c1.4-5.9,11.3-4.6,11.3-4.6S-40-128.9-39-140c0.7-8.2,2.5-10.8,5-12.7c3.7-2.8,9.2-3.7,9.2-3.7s-0.5-5.9,1.2-8.1
	C-22-166.7-12.3-169.1-12.2-169z"/>
<path class="st1" d="M538.5,56.5c-2.6,0-5.1-0.7-7.3-2.1l-19-11.9l-5.3,3.5c-2.1,1.6-4.6,2.4-7.3,2.4c-2.8,0-5.6-0.9-8.2-2.8
	c-2.7-1.9-5.7-5.4-8.4-9.1c-2.7,1.1-5.7,1.9-8.7,1.9c-2.3,0-4.5-0.5-6.4-1.4l-1.3-0.6l-1.1-0.9c-9.5-8.3-12.7-20.1-13.5-29.8
	c-0.2,0-0.4,0-0.6,0c-4.3,0-8.1-2.1-10.2-5.8c-7-12.2-3.4-28.2,0.3-38.6c-1.7-1.4-2.9-3-3.6-5l-0.2-0.7l-0.1-0.7
	c-2.4-11.2,5.6-19.8,12.5-24.8c-1.5-4.3-1.8-8-0.9-11.2l0.1-0.2c1.9-6.3,6.8-10.8,13.8-13c-1.6-5.8-0.3-8.7,0.3-10.2
	c2.3-5.2,8.1-11.4,23.2-11.5c0.7-1.9,1.7-3.7,3.4-5.2c2.7-2.5,6.3-3.7,11.1-3.7c0.6,0,1.3,0,1.9,0.1c2.4-2.9,5.9-5.6,10.3-6
	c0.5,0,1-0.1,1.5-0.1c4.8,0,8.8,2,11.8,4.7c0.2,0,0.4,0,0.5,0c2.2,0,4,0.3,5.6,0.9c0.1,0.1,0.3,0.1,0.4,0.2c2.9-2,6.7-3.6,11.3-3.6
	c0.7,0,1.5,0,2.2,0.1c6.9,0.8,13.1,6.7,17.5,12.1c2.5-0.3,5.5-0.6,8.5-0.6c4,0,7.3,0.5,10,1.6c6.9,2.7,10.2,9.2,11.8,15
	c3.2,0.5,6.3,1.4,9.1,2.7c15.7,7.6,16.1,16.7,14.9,21.5c-0.2,0.8-0.5,1.6-0.8,2.3c2.5,2.4,5.1,5.1,7.3,8.1c5.9,8.2,10.9,16.8,7,24.3
	c-0.2,0.3-0.3,0.6-0.5,0.9c4.3,12.4,8.8,30.6,2,40.4l-1.6,2.3L629,3.3c-2,0.8-4.3,1.2-7.3,1.3c-0.2,2.9-0.7,6.1-1.7,9.5
	c-2.7,9.5-12.3,23.8-24.1,24.2c-0.2,0-0.4,0-0.6,0c-1.7,0-3.4-0.3-5-0.7l-4.4,8.7l-0.8,0.9c-2.5,2.9-6.2,4.5-10,4.5
	c-3.5,0-6.9-1.4-9.4-3.9l-5.1-4.5l-13.8,10.4C544.4,55.6,541.4,56.5,538.5,56.5z"/>
<path class="st1" d="M497.2,37.6c-3.8-2.7-11-13.9-11-13.9s-9.3,6.8-14.1,4.6c-14.5-12.7-9.6-38-9.6-38s-10.7,8.2-12.6,4.9
	c-8.3-14.4,5-39.3,5-39.3s-6.8-0.7-7.6-2.8c-2.2-10.7,15.6-19,15.6-19s-5.2-8.7-4.2-12.2c2.8-9.3,19.2-7.5,19.2-7.5
	s-6.9-11.1-5.4-14.6c3.6-8.3,23.5-4.9,23.5-4.9s-1.4-6.6,0.7-8.5c2.5-2.3,11.3-0.2,11.3-0.2s3-6.5,6.3-6.8c5.3-0.5,8.2,5.2,8.2,5.2
	s5-1,6.8-0.2c2.7,1,5.1,3.7,5.1,3.7s4.4-7.2,11.3-6.4c6,0.7,14.3,13,14.3,13s13.4-2.9,19.2-0.6c6.4,2.5,6.9,15.7,6.9,15.7
	s6.5-1.4,13.3,1.8c5.3,2.6,10.5,6.3,9.5,10.2c-0.9,3.6-5.1,5.9-5.1,5.9s8.4,6.1,13.2,12.7C630-41.7,619-45.1,619-45.1
	s12.6,30.1,6.2,39.3C621.9-4.5,611-6.3,611-6.3s2.4,7.7-0.5,17.7c-2,7-9,16.8-14.9,17c-4.7,0.2-9.6-4.1-9.6-4.1l-8.4,16.4
	c-1.4,1.5-3.8,1.6-5.1,0l-11.4-10.1l-20.3,15.3c-1.3,0.9-3,1-4.3,0.2L512,30.8L501.2,38C500,39,498.5,38.5,497.2,37.6z"/>
<path class="st1" d="M505-77.6c0,0,2.6-4.3,6.2-5.7c7.6-3,27.7-4,39-1.7c2.4,0.5,6,3.6,6,3.6s3.5-5.8,7.8-8.6
	c4.4-2.9,11.3-1.9,15.7,1.1c6.9,4.7,7.8,14.1,6.2,20.1c-1.5,5.4-7.2,11.1-7.2,11.1s3.9,12,6.8,19.2c4.2,10.7,4.9,24.7,1.1,33.3
	c-8.2,18.9-41.1,20.2-47.5,20.4c-18.5,0.7-49.3-4.3-54.6-20.7c-2.3-7-0.7-17.9,2-35.4c0.6-4,0.2-14.4,0.2-14.4s-6.8-5.3-8.7-9.4
	c-2.5-5.2-2.2-13.2,2.4-16.9c3.8-3.1,9.3-2,10.9-1.7C498.5-81.9,505-77.6,505-77.6z"/>
<path class="st1" d="M535.7,5.3c-20.5,0-39.2-6.2-41.8-13.9c-1.6-4.7,0.2-16.2,2.3-30.8c0.7-4.6,0.4-14.3,0.3-16.2l-0.2-4.6
	l-3.6-2.8c-2.4-1.9-5.3-4.8-5.9-5.9c-0.8-1.6-0.7-3.8-0.3-4.7c0.2,0,0.4-0.1,0.7-0.1c0.8,0,1.6,0.1,2.1,0.2
	c4.2,0.8,8.8,3.3,10.2,4.2l8.9,5.7l5-8.9c0.4-0.6,1.1-1.4,1.5-1.7c2.9-1.1,10.8-2.2,20-2.2c4.9,0,9.4,0.3,12.8,0.9
	c0.6,0.3,1.6,1.1,2,1.4l8.9,7.7l6.1-10.1c0.9-1.5,3.1-4.4,4.7-5.4l0,0c0,0,0.3-0.1,0.9-0.1c1.3,0,2.8,0.5,3.8,1.2
	c2.6,1.8,3,6.5,2.2,9.2c-0.5,1.6-2.8,4.9-4.7,6.8l-4.2,4.3l1.9,5.8c0.2,0.5,4,12.3,7,19.7c3.3,8.4,3.9,19.7,1.3,25.7
	C574-1,559.5,4.5,538.8,5.2C537.8,5.3,536.7,5.3,535.7,5.3z M486.7-73.9L486.7-73.9z"/>
<path class="st1" d="M-1.7,273.6c-23.8,0-53.9-7.2-60.6-27.5c-3-9.2-1.3-20.8,1.6-39.9c0.2-1.3,0.3-4.7,0.2-8.2
	c-2.8-2.5-6.1-6.1-7.9-9.8c-4.1-8.7-3.7-21.8,5.2-28.9c3.5-2.8,8.1-4.3,13.1-4.3c2.7,0,4.8,0.4,5.8,0.6c3.6,0.7,7,1.9,9.8,3.1
	c1.4-1,2.9-2,4.7-2.7c8.6-3.4,23.1-3.7,27.4-3.7c4.6,0,11.3,0.3,17.3,1.4c0.5,0.1,1,0.2,1.5,0.4c1.4-1.4,3-2.9,4.8-4
	c3.3-2.2,7.4-3.3,11.8-3.3c5.2,0,10.7,1.7,15,4.6c10.8,7.4,12.9,21.2,10.2,30.9c-1.1,4-3.5,7.8-5.6,10.7c1.4,4,3.3,9.5,4.8,13.4
	c5.4,13.5,5.8,30,1,40.9c-7,16.1-26.5,25.3-56.2,26.4C0.9,273.6-0.4,273.6-1.7,273.6z"/>
<path class="st1" d="M-32.3,170.8c0,0,2.6-4.3,6.2-5.7c7.6-3,27.7-4,39-1.7c2.4,0.5,6,3.6,6,3.6s3.5-5.8,7.8-8.6
	c4.4-2.9,11.3-1.9,15.7,1.1c6.9,4.7,7.8,14.1,6.2,20.1c-1.5,5.4-7.2,11.1-7.2,11.1s3.9,12,6.8,19.2c4.2,10.7,4.9,24.7,1.1,33.3
	c-8.2,18.9-41.1,20.2-47.5,20.4c-18.5,0.7-49.3-4.3-54.6-20.7c-2.3-7-0.7-17.9,2-35.4c0.6-4,0.2-14.4,0.2-14.4s-6.8-5.3-8.7-9.4
	c-2.5-5.2-2.2-13.2,2.4-16.9c3.8-3.1,9.3-2,10.9-1.7C-38.9,166.6-32.3,170.8-32.3,170.8z"/>
</svg>
