<?xml version="1.0" encoding="utf-8"?>
<!-- Generator: Adobe Illustrator 26.4.1, SVG Export Plug-In . SVG Version: 6.00 Build 0)  -->
<svg version="1.1" id="Layer_1" xmlns="http://www.w3.org/2000/svg" xmlns:xlink="http://www.w3.org/1999/xlink" x="0px" y="0px"
	 viewBox="0 0 566.9 566.9" style="enable-background:new 0 0 566.9 566.9;" xml:space="preserve">
<style type="text/css">
	.st0{fill:none;stroke:#D81C4F;stroke-miterlimit:10;}
	.st1{fill:none;stroke:#71CEE6;stroke-miterlimit:10;}
</style>
<path class="st0" d="M300.5,417.9c-2.6,0-5.1-0.7-7.3-2.1l-19-11.9l-5.3,3.5c-2.1,1.6-4.6,2.4-7.3,2.4c-2.8,0-5.6-0.9-8.2-2.8
	c-2.7-1.9-5.7-5.4-8.4-9.1c-2.7,1.1-5.7,1.9-8.7,1.9c-2.3,0-4.5-0.5-6.4-1.4l-1.3-0.6l-1.1-0.9c-9.5-8.3-12.7-20.1-13.5-29.8
	c-0.2,0-0.4,0-0.6,0c-4.3,0-8.1-2.2-10.2-5.8c-7-12.2-3.4-28.2,0.3-38.6c-1.7-1.4-2.9-3-3.6-5l-0.2-0.7l-0.1-0.7
	c-2.4-11.2,5.6-19.8,12.5-24.8c-1.5-4.3-1.8-8-0.9-11.2l0.1-0.2c1.9-6.3,6.8-10.8,13.8-13c-1.6-5.8-0.3-8.7,0.3-10.2
	c2.3-5.2,8.1-11.4,23.2-11.5c0.7-1.9,1.7-3.7,3.4-5.2c2.7-2.5,6.3-3.7,11.1-3.7c0.6,0,1.3,0,1.9,0.1c2.4-2.9,5.9-5.6,10.3-6
	c0.5,0,1-0.1,1.5-0.1c4.8,0,8.8,2,11.8,4.7c0.2,0,0.4,0,0.5,0c2.2,0,4,0.3,5.6,0.9c0.1,0.1,0.3,0.1,0.4,0.2c2.9-2,6.7-3.6,11.3-3.6
	c0.7,0,1.5,0,2.2,0.1c6.9,0.8,13.1,6.7,17.5,12.1c2.5-0.3,5.5-0.6,8.5-0.6c4,0,7.3,0.5,10,1.6c6.9,2.7,10.2,9.2,11.8,15
	c3.2,0.5,6.3,1.4,9.1,2.7c15.7,7.6,16.1,16.7,14.9,21.5c-0.2,0.8-0.5,1.6-0.8,2.3c2.5,2.4,5.1,5.1,7.3,8.1c5.9,8.2,10.9,16.8,7,24.3
	c-0.2,0.3-0.3,0.6-0.5,0.9c4.3,12.4,8.8,30.6,2,40.4l-1.6,2.3l-2.6,1.1c-2,0.8-4.3,1.2-7.3,1.3c-0.2,2.9-0.7,6.1-1.7,9.5
	c-2.7,9.5-12.3,23.8-24.1,24.2c-0.2,0-0.4,0-0.6,0c-1.7,0-3.4-0.3-5-0.7l-4.4,8.7l-0.8,0.9c-2.5,2.9-6.2,4.5-10,4.5
	c-3.5,0-6.9-1.4-9.4-3.9l-5.1-4.5l-13.8,10.4C306.3,416.9,303.4,417.9,300.5,417.9z"/>
<path class="st0" d="M259.1,398.9c-3.8-2.7-11-13.9-11-13.9s-9.3,6.8-14.1,4.6c-14.5-12.7-9.6-38-9.6-38s-10.7,8.2-12.6,4.9
	c-8.3-14.4,5-39.3,5-39.3s-6.8-0.7-7.6-2.8c-2.2-10.7,15.6-19,15.6-19s-5.2-8.7-4.2-12.2c2.8-9.3,19.2-7.5,19.2-7.5
	s-6.9-11.1-5.4-14.6c3.6-8.3,23.5-4.9,23.5-4.9s-1.4-6.6,0.7-8.5c2.5-2.3,11.3-0.2,11.3-0.2s3-6.5,6.3-6.8c5.3-0.5,8.2,5.2,8.2,5.2
	s5-1,6.8-0.2c2.7,1,5.1,3.7,5.1,3.7s4.4-7.2,11.3-6.4c6,0.7,14.3,13,14.3,13s13.4-2.9,19.2-0.6c6.4,2.5,6.9,15.7,6.9,15.7
	s6.5-1.4,13.3,1.8c5.3,2.6,10.5,6.3,9.5,10.2c-0.9,3.6-5.1,5.9-5.1,5.9s8.4,6.1,13.2,12.7c13.2,18.3,2.2,14.8,2.2,14.8
	s12.6,30.1,6.2,39.3c-3.3,1.4-14.2-0.5-14.2-0.5s2.4,7.7-0.5,17.7c-2,7-9,16.8-14.9,17c-4.7,0.2-9.6-4.1-9.6-4.1l-8.4,16.4
	c-1.4,1.5-3.8,1.6-5.1,0L323,391.9l-20.3,15.3c-1.3,0.9-3,1-4.3,0.2L274,392.1l-10.8,7.2C261.9,400.3,260.4,399.8,259.1,398.9z"/>
<path class="st0" d="M267,283.7c0,0,2.6-4.3,6.2-5.7c7.6-3,27.7-4,39-1.7c2.4,0.5,6,3.6,6,3.6s3.5-5.8,7.8-8.6
	c4.4-2.9,11.3-1.9,15.7,1.1c6.9,4.7,7.8,14.1,6.2,20.1c-1.5,5.4-7.2,11.1-7.2,11.1s3.9,12,6.8,19.2c4.2,10.7,4.9,24.7,1.1,33.3
	c-8.2,18.9-41.1,20.2-47.5,20.4c-18.5,0.7-49.3-4.3-54.6-20.7c-2.3-7-0.7-17.9,2-35.4c0.6-4,0.2-14.4,0.2-14.4s-6.8-5.3-8.7-9.4
	c-2.5-5.2-2.2-13.2,2.4-16.9c3.8-3.1,9.3-2,10.9-1.7C260.5,279.5,267,283.7,267,283.7z"/>
<path class="st0" d="M297.6,368c-18.8,0-40-5.6-43.1-14.9c-1.7-5,0-16.1,2.3-31.4c0.7-4.5,0.4-14,0.3-15.9l-0.1-4l-3.1-2.4
	c-2.6-2.1-5.7-5.2-6.3-6.4c-1.2-2.5-0.7-6,0-6.6c0.1-0.1,0.6-0.3,1.7-0.3c1,0,1.8,0.2,2.4,0.3c4.5,0.9,9.4,3.5,10.7,4.4l7.4,4.8
	l4.5-7.6c0.5-0.8,1.5-1.9,2-2.2c3-1.2,11-2.4,20.6-2.4c5.1,0,9.8,0.4,13.2,1c0.6,0.3,1.7,1.1,2.5,1.7l7.6,6.5l5.2-8.6
	c1-1.7,3.4-4.7,5.2-5.9c0.2-0.1,0.8-0.3,1.7-0.3c1.5,0,3.4,0.5,4.6,1.4c3.3,2.2,3.6,7.8,2.8,10.8c-0.6,2.1-3.4,5.7-5.1,7.4l-3.6,3.7
	l1.6,4.9c0.2,0.5,4,12.3,6.9,19.6c3.4,8.7,4,20.5,1.3,26.8c-3.8,8.8-18.8,14.5-40.1,15.3C299.8,368,298.7,368,297.6,368z"/>
<path class="st1" d="M325.1,18.3c-0.6,0-1.2,0-1.8-0.1c-2.8-0.4-5.6-0.5-8.4-0.1c-0.8,0.1-1.7,0.2-2.6,0.2c-0.7,0-1.3,0-2-0.1
	c-2.4-0.3-4.5-1-6.4-2.2c-0.5-0.3-1.1-0.4-1.7-0.2c-1.9,0.5-3.9,0.8-6.3,0.8c-0.5,0-1.1,0-1.6-0.1c-2.3-0.3-4.7-0.4-7-0.1
	c-0.7,0.1-1.3,0.1-2,0.1c-0.2,0-0.4,0-0.7,0c-2.5-0.1-4.7-0.7-6.7-1.6c-0.4-0.2-0.9-0.2-1.3-0.2c-1.1,0.2-2.4,0.3-3.7,0.3
	c-0.5,0-0.9,0-1.4,0c-0.6,0-1.3-0.1-1.9-0.2c-5.5-1.1-11.1-1.2-16.6,0.2c-1.2,0.3-2.4,0.6-3.7,0.9c-2.5,0.5-5.2,0.8-7.9,0.8
	c-16.3,0-34.7-9.6-35.9-24c-0.3-3.8,0.4-8.5,2.9-12.1c-0.1-0.5-0.2-1.1-0.3-1.7c-1-8,3.4-16.1,10.4-18.8c0.3-0.1,0.7-0.2,1-0.4
	c1.2-5,4.7-8.8,9.7-10.7c0.8-0.3,1.3-1,1.3-1.9c0.1-2.1,0.3-4.5,0.5-7.2c0.9-9.9,3.5-15.7,8.9-19.8c1.5-1.1,3.1-2.1,4.7-2.8
	c0.6-0.3,1-0.8,1.2-1.4c0.5-2.1,1.3-4.1,2.7-5.8c4.3-5.6,16.3-7.9,18.9-8.2c0.3,0,0.6-0.1,0.8-0.3c1.8-1.1,4.6-3.1,6.9-5v0
	c3.3-2.7,8-3,11.6-0.7l0,0l19.7,12.5c0.8,0.5,1.7,0.4,2.5-0.1l15.4-11.7c3.8-2.9,9.1-2.7,12.7,0.5v0c0,0,0.8,0.8,2.2,1.9
	c1.1,1,2.9,0.5,3.4-0.9v0c0.4-1,1.4-1.5,2.4-1.4l6.3,1c6.8,1.1,9.2,3.4,10.7,5.2c1.6,2.1,2.5,4.6,3,7.4c0.1,0.8,0.7,1.4,1.4,1.6
	c2.3,0.8,3.4,1.6,3.9,2c10.8,7.8,14.7,20.1,16,28.8c0.1,0.7,0.6,1.3,1.2,1.6c1.6,0.7,3,1.7,4.3,3c2,2.1,3.4,4.2,4.3,6.3
	c0.2,0.4,0.5,0.8,0.9,1c3,1.8,6.3,4.3,8.4,7.3c1.8,2.7,2.7,5.5,3,8.1c0.1,0.5,0.3,0.9,0.6,1.3c0.7,0.7,1.4,1.6,2,2.5
	c4.1,6.1,3.5,13.4-1.6,19.5c-7,8.3-21.2,16.7-37,16.7c-2.5,0-4.9-0.2-7.3-0.6c-0.2,0-0.3-0.1-0.5-0.1c-3.8-0.6-7.5,0.5-10.5,2.9
	c-2.8,2.3-6.3,4-10.8,4.7c-0.6,0.1-1.3,0.1-1.9,0.1c-0.6,0-1.2,0-1.8-0.1c-3.6-0.5-7.2-0.1-10.8,0.6c-0.9,0.2-1.9,0.3-2.8,0.4
	C325.9,18.3,325.5,18.3,325.1,18.3z"/>
<path class="st1" d="M268.1-88c2.1,2,13.6-7.6,13.6-7.6l22.6,14.4c2.9,1.9,5.4,1.8,8.2-0.3l18.1-13.8c0,0,6.1,5.5,12.5,10.6
	c0.9,0.7,3.7,0.7,4.4-1.1l2.4-6.3c0,0,3.7,0.6,4.4,1.5c2.1,2.7,1.2,10.8,1.2,10.8s7.2,0.7,9.2,2.2c13.5,9.7,12.7,30.3,12.7,30.3
	s5.6-0.1,7.5,1.9c3.9,4,2.8,6.7,2.8,6.7s7.2,3,9.6,6.6c2.4,3.6,0.9,8.2,0.9,8.2s2.9,1.1,4.6,3.7c1.8,2.7,0.9,5.3-0.9,7.5
	C395.7-5.3,381.6,2.4,366.9,0c-8.6-1.4-14.3-2.8-14.3-2.8s-1.6,9-10.5,10.3c-3.3,0.5-8.1-4-8.1-4s-1.5,4.4-8.6,5
	c-3.3,0.3-5.1-4.4-5.1-4.4s-3.2,4.9-8.8,4.3c-4.9-0.5-5.7-7.5-5.7-7.5s-1.8,5.9-9.7,5.9c-2.2,0-4.8-3.8-4.8-3.8s-1.2,3.9-6.1,3.7
	c-4.8-0.2-6.5-4.2-6.5-4.2s-0.2,3-6.4,2.7c-3.3-0.2-5.1-5.4-5.1-5.4s-10,4.5-19.5,6.5c-14.1,2.9-31.1-5.7-31.9-14.3
	c-0.2-1.8,0.2-5.7,2.3-6.7c1.8-0.9,4.6,0.2,4.6,0.2s-3.8-3.5-4.4-7.8c-0.4-3.3,1.4-7.2,4.1-8.3c2.5-1,6.8,0.5,6.8,0.5
	s-0.3-5.2,0.3-7.7c1.4-5.9,11.3-4.6,11.3-4.6s-0.5-5.6,0.5-16.7c0.7-8.2,2.5-10.8,5-12.7c3.7-2.8,9.2-3.7,9.2-3.7s-0.5-5.9,1.2-8.1
	C258.3-85.8,268-88.2,268.1-88z"/>
<path class="st0" d="M222,673c-23.8,0-53.9-7.2-60.6-27.5c-3-9.2-1.3-20.8,1.6-39.9c0.2-1.3,0.3-4.7,0.2-8.2
	c-2.8-2.5-6.1-6.1-7.9-9.8c-4.1-8.7-3.7-21.8,5.2-28.9c3.5-2.8,8.1-4.3,13.1-4.3c2.7,0,4.9,0.4,5.8,0.6c3.6,0.7,7,1.9,9.8,3.1
	c1.4-1,2.9-2,4.7-2.7c8.6-3.4,23.1-3.7,27.4-3.7c4.6,0,11.3,0.3,17.3,1.4c0.5,0.1,1,0.2,1.5,0.4c1.4-1.4,3-2.9,4.8-4
	c3.3-2.2,7.4-3.3,11.8-3.3c5.2,0,10.7,1.7,15,4.6c10.8,7.4,12.9,21.2,10.2,30.9c-1.1,4-3.5,7.8-5.6,10.7c1.4,4,3.3,9.5,4.8,13.4
	c5.4,13.5,5.8,30,1,40.9c-6.9,15.9-26.9,25.3-56.3,26.4C224.6,673,223.3,673,222,673z"/>
<path class="st0" d="M191.3,570.3c0,0,2.6-4.3,6.2-5.7c7.6-3,27.7-4,39-1.7c2.4,0.5,6,3.6,6,3.6s3.5-5.8,7.8-8.6
	c4.4-2.9,11.3-1.9,15.7,1.1c6.9,4.7,7.8,14.1,6.2,20.1c-1.5,5.4-7.2,11.1-7.2,11.1s3.9,12,6.8,19.2c4.2,10.7,4.9,24.7,1.1,33.3
	c-8.2,18.9-41.1,20.2-47.5,20.4c-18.5,0.7-49.3-4.3-54.6-20.7c-2.3-7-0.7-17.9,2-35.4c0.6-4,0.2-14.4,0.2-14.4s-6.8-5.3-8.7-9.4
	c-2.5-5.2-2.2-13.2,2.4-16.9c3.8-3.1,9.3-2,10.9-1.7C184.8,566,191.3,570.3,191.3,570.3z"/>
</svg>
