<?xml version="1.0" encoding="utf-8"?>
<!-- Generator: Adobe Illustrator 26.0.1, SVG Export Plug-In . SVG Version: 6.00 Build 0)  -->
<svg version="1.1" id="Layer_1" xmlns="http://www.w3.org/2000/svg" xmlns:xlink="http://www.w3.org/1999/xlink" x="0px" y="0px"
	 viewBox="0 0 566.9 566.9" style="enable-background:new 0 0 566.9 566.9;" xml:space="preserve">
<style type="text/css">
	.st0{fill:none;stroke:#F15722;stroke-miterlimit:10;}
	.st1{fill:none;stroke:#2D308E;stroke-miterlimit:10;}
</style>
<path class="st0" d="M94.3,227.3l-0.9-2.3l0.7-0.3c3.9-1.5,7-2.7,7-8.2h2.5c0,7.1-4.5,8.9-8.6,10.4L94.3,227.3z"/>
<path class="st0" d="M93.9,226.8"/>
<path class="st0" d="M102.4,217.2"/>
<circle class="st0" cx="93.9" cy="215" r="1.9"/>
<circle class="st0" cx="85.8" cy="215" r="1.2"/>
<ellipse transform="matrix(0.1602 -0.9871 0.9871 0.1602 -89.763 255.4419)" class="st0" cx="105.2" cy="180.5" rx="2.9" ry="2.9"/>
<path class="st0" d="M455.9,389.6l0-0.2c-0.4-8.4-1.1-23.9,0.4-39.2c1.3-13.6,3.1-21,4.5-26.9c1.3-5.4,2.4-9.6,2.7-16.7
	c0.5-10.9,0-48-27-69c-9.4-7.3-20.8-11.7-34-13.1l0.3-2.4c13.6,1.5,25.5,6,35.3,13.6c27.9,21.7,28.4,59.8,27.9,71
	c-0.3,7.3-1.5,11.9-2.8,17.2c-1.5,6.1-3.2,13.1-4.5,26.5c-1.4,15.1-0.7,30.5-0.4,38.8l0,0.2L455.9,389.6z"/>
<path class="st0" d="M446.7,389.8c-4.3-18.1-6.7-30.7-4.7-53.3c0.4-4.2,6.3-27.1,7.3-30.6c5.9-21.5-0.3-43.2-17-59.3
	c-7.9-7.7-17.7-13.4-28.9-17l0.7-2.3c11.6,3.7,21.7,9.7,29.9,17.6c17.3,16.8,23.8,39.3,17.7,61.7c-1.3,4.7-6.8,26.4-7.2,30.2
	c-2,22.2,0.4,34.6,4.7,52.5L446.7,389.8z"/>
<path class="st0" d="M436.4,388.5c-7.7-23.5-8.9-47.1-6.7-59.1c1.2-6.4,2.8-11.5,4.3-16.5c2.6-8.3,4.8-15.5,4-25.6
	c-0.9-11.2-5.4-22.3-13.3-32.7l2-1.5c8.2,10.9,12.8,22.3,13.8,34c0.9,10.6-1.5,18.3-4.1,26.5c-1.5,4.9-3.1,10-4.2,16.2
	c-2.1,11.6-0.9,34.7,6.6,57.9L436.4,388.5z"/>
<path class="st0" d="M382.2,417.6l-2-1.4c13.4-16.8,18.2-24.6,19.3-31.8c0.7-4.4,2.8-17.9,0-24.1c-2.2-5.1-4.7-6.7-7.3-8.4
	c-2.2-1.5-4.6-3-6.5-6.7c-1.9-3.6-1.8-5.1-1.6-7.5c0-0.4,0.1-0.9,0.1-1.4c0.5-8.1-6-13.5-15.9-21.6c-7.1-5.8-15.9-13.1-25-23.8
	l1.9-1.6c9,10.5,17.7,17.7,24.7,23.5c10.1,8.3,17.3,14.3,16.7,23.6c0,0.6-0.1,1.1-0.1,1.6c-0.2,1.9-0.3,2.9,1.3,6.1
	c1.6,3.2,3.5,4.4,5.7,5.8c2.6,1.7,5.6,3.7,8.2,9.5c2.7,6.1,1.4,17.4,0.2,25.4C400.8,392.5,395.8,400.5,382.2,417.6z"/>
<path class="st1" d="M204.4,408.2l-0.8-2.3c3.5-1.3,7.8-7.9,7.9-9.1c0.3-26.8-1.6-49.4-2.6-57.7c-0.1-0.5-1.1-2.2-1.9-3.7
	c-1.9-3.3-4.5-7.9-6.1-12.9c-0.4-1.4-1.2-3.6-2.1-6.2c-3.3-9.4-5.8-16.9-5.1-19.6l2.4,0.6c-0.6,2.2,3,12.2,5.1,18.1
	c0.9,2.6,1.7,4.8,2.1,6.3c1.4,4.8,4,9.2,5.8,12.4c1.4,2.5,2.1,3.7,2.2,4.6c1.4,11.5,2.9,34.6,2.6,58
	C213.8,399.1,208.7,406.6,204.4,408.2z"/>
<path class="st0" d="M104.2,214.5c-0.4-0.5-4.4-4.5-9.6-5.4c-4.9-0.8-10.2,2-11.1,2.6l-1.4-2c1.2-0.8,7.2-3.9,12.9-3
	c6.2,1,10.7,5.6,11.3,6.4L104.2,214.5z"/>
<path class="st0" d="M105.2,213.8"/>
<path class="st1" d="M129.6,164.6h-2.8c0-6.3-3.4-9.7-11-11.3l0.6-2.6C125.2,152.5,129.6,157,129.6,164.6z"/>
<path class="st1" d="M143.9,176.1"/>
<path class="st1" d="M133.4,164.6"/>
<path class="st1" d="M139.3,162.7h-2.8c0-6.3-3.4-9.7-11-11.3l0.6-2.6C135,150.6,139.3,155.1,139.3,162.7z"/>
<path class="st1" d="M149.2,165.1l-2.4-0.7c0.2-0.6,0.3-1.1,0.3-1.7c0.6-6.6-6.1-12.2-9.1-14.3l1.4-2c3.3,2.4,10.8,8.7,10.1,16.5
	C149.5,163.6,149.4,164.4,149.2,165.1z"/>
<path class="st1" d="M154.3,165.3l-1.7-1.8c0.7-0.7,3.1-3.1,3.1-6.7c0.1-3.4-1.9-6.7-5.1-8.5l1.2-2.1c4,2.2,6.4,6.3,6.3,10.7
	C158.2,161.3,155.5,164.2,154.3,165.3z"/>
<path class="st1" d="M160.9,168.3l-1.5-2c0.9-0.7,3.9-3.2,4.6-7.6c0.7-4.6-1.7-8-2.4-8.9l1.9-1.5c0.9,1.1,3.8,5.2,3,10.8
	C165.7,164.5,162,167.5,160.9,168.3z"/>
<path class="st1" d="M168.9,170.8l-1.3-2.1c1.7-1.1,4.9-3.6,6.3-8.1c1.1-3.2,0.8-6.1,0.3-8l2.4-0.5c0.5,2.2,0.8,5.5-0.4,9.3
	C174.5,166.6,170.9,169.6,168.9,170.8z"/>
<path class="st1" d="M176.5,174.4l-1-2.3c1.2-0.5,5.4-2.6,6.9-7.5c1.1-3.3,0.3-6.2-0.2-7.7l2.3-0.8c0.6,1.7,1.5,5.3,0.2,9.3
	C182.9,171.2,177.9,173.8,176.5,174.4z"/>
<path class="st1" d="M184.9,177l-1.3-2.1c1.6-1,3.8-2.9,5.5-5.9c1.7-3.1,2.1-6.1,2.1-8.1l2.5,0c0,2.3-0.4,5.7-2.4,9.3
	C189.3,173.7,186.7,175.8,184.9,177z"/>
<path class="st1" d="M190.6,181.9l-1.2-2.1c1.7-1,4.8-3.3,6.5-7.4c1.2-3,1.3-5.7,1.1-7.5l2.4-0.3c0.3,3-0.1,6-1.3,8.7
	C196.1,178.1,192.6,180.7,190.6,181.9z"/>
<path class="st1" d="M198.3,190.2l-1.2-2.1c3.7-2.1,6.9-5,9.1-8.4c1.4-2.2,2.5-4.5,3.3-7.1l2.4,0.7c-0.8,2.8-2,5.4-3.6,7.7
	C205.8,184.7,202.3,187.9,198.3,190.2z"/>
<path class="st1" d="M194.7,184.9l-0.8-2.3c1.6-0.5,5.4-2.2,7.5-6.5c1.5-3,1.4-5.9,1.1-7.4l2.4-0.3c0.3,2.1,0.3,5.4-1.4,8.8
	C201.1,182.3,196.5,184.3,194.7,184.9z"/>
<path class="st1" d="M202.8,194l-0.6-2.4c2.7-0.7,6.7-2.2,10.1-5.9c2-2.1,3.5-4.7,4.4-7.5l2.3,0.8c-1,3.1-2.7,6-5,8.4
	C210.4,191.5,205.9,193.2,202.8,194z"/>
<path class="st1" d="M207.5,197.2l-0.1-2.5c2.1-0.1,6.1-0.8,9.9-3.8c3.2-2.5,4.7-5.6,5.5-7.8l2.3,0.8c-0.9,2.4-2.6,5.9-6.3,8.8
	C214.5,196.3,209.9,197,207.5,197.2z"/>
<path class="st1" d="M212.1,201.4l-0.2-2.4c3.2-0.3,6.4-1.4,9.2-3.1c2.9-1.7,5.4-4.2,7.2-7l2.1,1.3c-2,3.2-4.8,5.9-8,7.8
	C219.3,199.8,215.7,201,212.1,201.4z"/>
</svg>
