<?xml version="1.0" encoding="utf-8"?>
<!-- Generator: Adobe Illustrator 26.0.0, SVG Export Plug-In . SVG Version: 6.00 Build 0)  -->
<svg version="1.1" id="Layer_1" xmlns="http://www.w3.org/2000/svg" xmlns:xlink="http://www.w3.org/1999/xlink" x="0px" y="0px"
	 viewBox="0 0 566.9 566.9" style="enable-background:new 0 0 566.9 566.9;" xml:space="preserve">
<style type="text/css">
	.st0{fill:none;stroke:#9456A2;stroke-miterlimit:10;}
</style>
<path class="st0" d="M357.9,397.3c-0.9,0-1.7,0-2.6-0.1c-4.1-0.3-7.5-2.2-9.6-5.3c-0.3,0-0.7,0-1,0c-8.6,0-12.2-4-13.7-7.3
	c-1.2-2.6-2.3-8,3.1-14c1-1.1,2-2.2,3.1-3.4c4.4-4.7,9.8-10.5,10.8-14.9c0.2-1.1,0.5-2.1,0.7-3.1c0.9-3.9,1.8-7.9,1.5-9.2l-0.1-0.5
	c-0.1-0.5-0.4-1.9-0.7-2.9c-8.6-6.4-10-12.3-9.3-21.1c-1.1-2.8-7.6-8.8-11.2-12.2c-1.4-1.3-2.8-2.6-4.1-3.9c-1,0.3-2.1,0.6-3.1,0.8
	c-8.3,2.2-20.9,5.6-33.4,5.6c-0.3,0-0.6,0-1,0c-6.2-0.1-14.1-1.7-22.4-3.5c-4.5-1-9.4-2-13.4-2.6c0.2,9.7-0.1,19.8-0.3,28.2
	c-0.2,7.1-0.5,15.9-0.1,18.4c0.4,1.3,0.9,2.4,1.3,3.6c4.5,12.6,7.5,21,2.9,30.4c-4.3,8.7-14.5,13.9-27.3,13.9
	c-4.7,0-15.1-0.8-19.4-7.3c-1.5-0.3-2.9-0.7-4.2-1.2c-0.3-0.1-0.6-0.2-0.8-0.3c-2.5-1-9.9-4.2-8.7-14.3c0.8-6.7,5.7-9.7,8.3-11.4
	c1.1-0.7,2-1.3,2.9-2.1c0.8-0.7,3.2-4.1,2.6-16.3c-0.5-9.8-2.7-21.7-4.8-33.2l-0.3-1.9c-0.1,0-0.1-0.1-0.2-0.1
	c-2.9-1.1-9.9-3.6-11.9-12.2c-1-4.4-0.8-7-0.5-9.5c0.2-1.3,0.3-2.5-0.5-6.4c-0.4-1.9-1.2-3.8-2-5.8c-1.2-3-2.6-6.5-3.1-10.6
	c-0.5-4.9,0.7-8.4,1.5-10.7c0.3-1,0.5-1.4,0.5-1.6c-0.2-10-3.2-17.4-9-22c-0.6-0.5-1.2-0.9-1.7-1.2c-1,1.2-2.2,2.4-3.6,3.4
	c-2.6,2-6,3.1-8.7,3.8c0.4,1.5,0.7,3.2,0.4,5.3c-0.9,6.7-6.8,11.5-15.9,12.9c-0.5,0.1-2.2,0.3-4.4,0.3c-7.6,0-13.7-2.7-17.1-7.7
	c-4.5-6.6-2-13-0.6-16.9c1.1-3,2.3-6,2.4-10.9c0-1.5,0-2.7-0.1-4c-0.2-3.8-0.4-8,2.1-13.5c0.7-1.6,1.5-3,2.3-4.1
	c-0.2-2.5,0.3-4.7,0.6-6.1c-0.1-0.2-0.2-0.7-0.5-1.3c-1.6-3.2-1.4-6.9,0.5-9.9c1.7-2.7,4.4-4.4,7.5-4.8c2-2.1,4.7-3.3,7.7-3.3
	c2.4,0,4.8,0.9,6.7,2.4c0.6,0.5,2,1.4,3.3,2.3c0.8,0.5,1.7,1.1,2.6,1.7c0.3-0.1,0.6-0.2,0.9-0.2c4.6-1.1,11.5-2.9,18.8-3.1
	c0.5,0,1.1,0,1.6,0c24.6,0,54.8,20.6,66.8,33.5c1.2,0.4,2.7,0.9,4.7,1.6c6.5,2.6,9.6,4.5,12.8,6.9c3.3,2.5,6.6,3.3,15.7,5
	c3.6,0.7,7.1,1,10.6,1c6,0,11.5-1,17.2-2c6.3-1.1,12.8-2.3,20.4-2.3c2.1,0,4.2,0.1,6.2,0.3c13.5,1.2,21.6,3.8,29.7,8
	c1.4-0.5,3.1-1,5.2-1.2c0.9-0.1,1.8-0.1,2.7-0.1c21.1,0,37.8,18.6,44,26.5c21.9,28.2,14.8,71.3,10.2,99.8c-0.9,5.2-1.6,9.7-2,13.3
	c-0.6,5.1-4.3,13.8-22.2,13.8c-3,0-6.4-0.2-10-0.7c-0.2,0-0.4,0-0.5-0.1C390.2,389.2,372.9,397.3,357.9,397.3z"/>
<path class="st0" d="M159.1,185.9c1.3,1,11.7-3.4,22.8-3.8c22.1-0.8,52.5,20.4,62.2,31.8c0.6,0.8,2.7,0.9,6.9,2.6
	c5.5,2.2,7.9,3.6,10.5,5.7c5.4,4,10.6,5,19.8,6.8c22.6,4.4,35.2-4.6,55.5-2.9c13.1,1.1,20.1,3.6,28.6,8.3c2.4,1.3,4.6-1.2,7.9-1.4
	c18.4-1.4,34.5,18,38.1,22.6c23,29.7,8.9,82.5,6.1,105.9c-0.7,6-13.9,5.3-21.2,4.4c-8.2-1-14.8-23.5-15.3-26.2
	c-4.6-28,9.6-42,3-70.1c-2.2-9.6-8.1-17.5-10.8-20.7c-0.4-0.5-1.1-0.1-1,0.5c0.8,5.8,3.8,16.2-2.1,30.2c-2.7,6.5-6.5,8.1-6.5,13.6
	c0,6.7,2.7,11.6,10.2,17.4c7,5.4-0.1,16.8,4.9,32.7c4.8,15.1,8.4,20.3,6.8,28.1c-2,9.8-16.9,16.7-29.5,15.9c-5-0.3,0.6-6.9,0.6-6.9
	s-22.5,5.2-15-3.2c5.7-6.4,14.3-14.3,16.2-22.8c1.7-7.6,3.2-12.6,2.2-16.7c-0.4-1.9-1.4-6.9-3.4-8.2c-6.6-4.6-7.1-7-6.5-13.8
	c0.7-7.9-14.1-18.5-21.6-26.6c-1.6-1.8-22.2,7.2-41,6.9c-14.2-0.2-46.7-11.9-46.2-3.4c1.5,22.6-1.5,51.6,0.4,56.9
	c5.1,14.3,7.8,20.4,4.8,26.6c-5.6,11.3-28.6,9.2-29.7,4.9c-0.6-2.3,8.4-7,8.4-7s-10.8,5.3-16.7,2.7c-3-1.3-4-1.3-3.7-4.4
	c0.4-3.3,4.1-3.6,8.2-7.5c10.2-9.8,4.6-37.1,0.1-61.3c-1.6-8.7-10.3-4.6-12-11.7c-1.5-6.6,1.2-5.4-1-15.6c-1.2-6-4.3-10.3-4.9-15.5
	c-0.5-5,2.1-7,2.1-11.4c-0.5-31.6-25.1-35.6-25.1-35.6s-1.1,5-5,7.9c-2.5,1.9-7.8,2.7-7.8,2.7s-6.2,5.9-6.2,7.6
	c0.1,2.7,2,3.3,1.8,5.6c-0.3,2.5-4.9,3.9-7.5,4.3c-0.5,0.1-8.8,1.2-11.9-3.2c-3.1-4.5,3.3-8.7,3.6-21.9c0.1-6-1.1-8.9,1.1-13.7
	c1.8-4,5-6.8,4.3-7.5c-0.8-1-1.8-0.7-0.7-4.7c0.8-2.9-0.4-5.9-1.3-7.8c-0.2-0.3,0.2-0.6,0.5-0.4c2,1.7,5.7,4.5,6.9,3.8
	c1-0.6-0.2-4.1-1.1-6.4c-0.2-0.5,0.4-1,0.8-0.6C151.7,181,155.9,183.4,159.1,185.9z"/>
</svg>
