<?xml version="1.0" encoding="utf-8"?>
<!-- Generator: Adobe Illustrator 26.0.1, SVG Export Plug-In . SVG Version: 6.00 Build 0)  -->
<svg version="1.1" id="Layer_1" xmlns="http://www.w3.org/2000/svg" xmlns:xlink="http://www.w3.org/1999/xlink" x="0px" y="0px"
	 viewBox="0 0 566.9 566.9" style="enable-background:new 0 0 566.9 566.9;" xml:space="preserve">
<style type="text/css">
	.st0{fill:none;stroke:#F15722;stroke-miterlimit:10;}
	.st1{fill:none;stroke:#2D308E;stroke-miterlimit:10;}
	.st2{fill:none;stroke:#4CC3CA;stroke-miterlimit:10;}
</style>
<path class="st0" d="M93.9,226.8"/>
<path class="st0" d="M102.4,217.2"/>
<path class="st0" d="M105.2,213.8"/>
<path class="st1" d="M143.9,176.1"/>
<path class="st2" d="M385.3,426.8c-0.9,0-1.9,0-2.8-0.1c-2.8-0.2-3.9-1.5-4.4-2.6c-0.6-1.5-0.2-3.3,0.5-5c0.2-0.3-0.1-0.7-0.5-0.7
	c-3.2,0.5-7.3,1.1-10.8,1.1c-2.9,0-6.9-0.3-8.2-3.1c-1.3-2.8,1.4-5.8,2.3-6.7c1.3-1.4,2.7-2.9,4.1-4.4c7.3-7.8,15.5-16.6,17.5-25.7
	c0.3-1.5,0.6-2.9,1-4.2c1.8-7.7,3.1-13.3,2-17.8L386,357c-0.5-2-1.8-8.2-3.6-9.4c-9.9-6.8-10.6-11.1-9.8-20.6
	c0.6-6.9-9.8-16.6-19-25.1c-3.5-3.3-6.9-6.4-9.6-9.4c0,0,0,0,0,0c-1.7,0-6.1,1.2-11.1,2.5c-10.8,2.9-27,7.3-42.5,7.3
	c-0.4,0-0.8,0-1.1,0c-7.3-0.1-18-2.4-28.4-4.5c-10.1-2.1-20.5-4.3-27-4.3c-3.9,0-5,0.8-5.3,1.1c-0.1,0.2-0.3,0.4-0.3,0.9
	c1,15.7,0.5,33.7,0,48.2c-0.4,13.7-0.8,25.6,0.4,28.8c0.7,1.9,1.3,3.7,1.9,5.4c5.7,16,8.6,24,4.5,32.4c-5.7,11.6-22,12.5-26.8,12.5
	c-7.9,0-16.3-1.9-17.5-6.2c-0.3-1.3,0.2-2.6,1.3-4c-1.8,0.3-3.5,0.5-5.3,0.5c-2.4,0-4.4-0.4-6.2-1.1c-0.5-0.2-0.9-0.4-1.3-0.5
	c-3.4-1.4-5.5-2.6-4.9-7.5c0.4-3.7,3.1-5.3,5.9-7.1c1.8-1.1,3.8-2.4,5.8-4.4c12.6-12.1,6.1-47.1,0.3-77.9l-0.7-3.9
	c-1-5.1-3.8-6.2-7.4-7.5c-3.4-1.2-7.6-2.7-8.9-8.4c-1-4.4-0.8-6.6-0.5-8.8c0.3-2.5,0.7-5.2-0.9-12.6c-0.8-3.6-2.1-6.8-3.3-10
	c-1.5-3.8-3-7.3-3.4-11.3c-0.4-4.1,0.6-6.9,1.5-9.5c0.7-2,1.4-3.9,1.3-6.3c-0.6-35.9-24.3-44.5-30.9-46.2c-0.9,2.5-2.9,7-7,10
	c-3.2,2.4-8.9,3.5-10.9,3.9c-3.4,3.2-7,7.3-7.4,8.6c0.1,1.2,0.5,2,1.1,2.9c0.7,1.2,1.6,2.7,1.3,4.9c-0.7,5.7-10.8,7.4-12,7.6
	c-0.3,0-2,0.3-4.2,0.3c-4.6,0-10.7-1-13.9-5.5c-2.7-4-1.3-7.7,0.5-12.4c1.7-4.5,3.8-10,4-18.7c0.1-2.4-0.1-4.6-0.2-6.4
	c-0.2-4.3-0.4-8.1,1.8-13c1.3-2.9,3-5.2,4.3-7c0.4-0.6,0.9-1.3,1.2-1.8c-1.7-1.6-1.9-3.4-0.8-7.6c0.9-3.4-0.6-7.2-1.6-9.2
	c-0.4-0.8-0.3-1.6,0.1-2.3c0.4-0.7,1.2-1.2,2.1-1.2c0.6,0,1.1,0.2,1.6,0.6c3.3,2.8,5.4,4.1,6.6,4.6c-0.2-1.1-0.6-2.9-1.8-5.9
	c-0.3-0.8-0.2-1.8,0.3-2.5c0.5-0.8,1.4-1.2,2.3-1.2c0.6,0,1.2,0.2,1.7,0.6c1.3,1.1,3.4,2.5,5.6,3.9c2.3,1.5,4.9,3.2,7.2,4.9
	c1.1,0,3.7-0.7,6.7-1.4c6.1-1.5,14.5-3.6,23.3-3.9c0.6,0,1.2,0,1.8,0c31.2,0,71.6,28.8,84.6,44.2c0.2,0.1,1.3,0.5,2.3,0.7
	c1.5,0.5,3.6,1.1,6.4,2.2c7.7,3.1,11,5.1,14.8,8c6.9,5.2,13.7,6.6,26.1,8.9c5.6,1.1,11.1,1.6,16.7,1.6c9.2,0,17.5-1.5,25.5-2.9
	c8.1-1.4,16.4-2.9,25.7-2.9c2.5,0,5,0.1,7.5,0.3c18.6,1.6,28.3,5.3,39.8,11.5c0.3,0.2,0.6,0.3,1,0.3c0.8,0,1.9-0.4,3.1-0.9
	c1.6-0.6,3.4-1.4,5.6-1.5c0.9-0.1,1.8-0.1,2.7-0.1c24.4,0,45.1,24.3,50.9,31.7c26.7,34.5,17.6,90.2,11.6,127.1
	c-1.2,7.2-2.2,13.5-2.8,18.7c-1,8.5-14.4,8.5-18.8,8.5c-4.5,0-8.9-0.4-12.3-0.7c-13.4-1.3-19.7-29.3-21.3-37.9
	c-3.7-19.4-0.9-33.7,1.9-47.5c2.9-14.5,5.6-28.2,1.1-47.4c-2.3-9.9-7.7-18.5-11.5-23.7c1.4,8.3,3.1,21.4-3.7,37.7
	c-1.6,3.8-3.4,6.4-5.1,8.7c-2.1,3.1-3.7,5.3-3.7,9c0,8.7,3.7,14.9,13.1,22.1c5.8,4.5,5.5,11.6,5.1,19.8c-0.4,7.1-0.8,15.8,2.3,25.8
	c1.8,5.8,3.5,10.5,5,14.6c3.7,10.3,6,16.5,4.3,24.7C422,417.4,402.1,426.8,385.3,426.8z M108.1,212.7L108.1,212.7z"/>
<path class="st2" d="M114.4,150.1c1.7,1.4,15.9-4.6,31.1-5.1c30.1-1.1,71.6,27.8,84.8,43.4c0.9,1,3.7,1.2,9.4,3.5
	c7.5,3,10.7,5,14.4,7.7c7.3,5.5,14.4,6.9,26.9,9.3c30.9,6,48-6.3,75.6-3.9c17.9,1.6,27.4,5,39,11.3c3.2,1.7,6.2-1.6,10.8-2
	c25.1-1.9,47.1,24.6,51.9,30.9c31.4,40.5,12.1,112.5,8.4,144.4c-1,8.2-19,7-28.9,6c-12.7-1.2-18.9-32.5-19.6-36.2
	c-7.4-38.9,11.9-56.7,2.9-95c-3.1-13.1-11.1-23.8-14.8-28.2c-0.5-0.6-1.5-0.2-1.4,0.6c1.1,7.9,5.2,22.1-2.8,41.2
	c-3.7,8.9-8.9,11.1-8.9,18.5c0,9.1,3.7,15.9,13.9,23.7c9.5,7.3-0.1,23,6.7,44.6c6.5,20.6,11.5,27.6,9.3,38.3
	c-2.8,13.3-23.1,22.8-40.3,21.7c-4.5-0.3-2.8-4.2-1-6.8c0.6-0.9-0.2-2.1-1.3-1.9c-7.6,1.4-25.5,4.1-17.3-5
	c7.8-8.7,19.5-19.6,22.1-31.1c2.3-10.3,4.3-17.1,3-22.8c-0.6-2.6-1.9-9.4-4.6-11.2c-9-6.2-9.7-9.5-8.9-18.8
	c0.9-10.8-19.2-25.2-29.4-36.3c-2.2-2.4-30.3,9.8-55.9,9.5c-19.4-0.3-63.7-16.2-63-4.7c2,30.9-2,70.3,0.5,77.6
	c6.9,19.5,10.7,27.7,6.5,36.3c-7.6,15.4-39,12.5-40.6,6.7c-0.8-3.2,13.6-8.5,11.5-9.6c-2.6-1.3-12.5,7.7-22.8,3.7
	c-4.1-1.6-5.5-1.8-5-6c0.5-4.5,5.7-5,11.2-10.3c13.9-13.4,6.3-50.5,0.2-83.6c-2.2-11.9-14.1-6.2-16.4-16c-2.1-9,1.6-7.3-1.3-21.3
	c-1.7-8.2-5.9-14.1-6.7-21.1c-0.7-6.8,2.9-9.5,2.8-15.6c-0.7-43.1-34.3-48.5-34.3-48.5s-1.5,6.8-6.9,10.8
	c-3.4,2.5-10.6,3.6-10.6,3.6s-8.5,8.1-8.4,10.3c0.1,3.7,2.8,4.6,2.4,7.6c-0.4,3.4-6.7,5.3-10.3,5.9c-0.7,0.1-12,1.7-16.2-4.4
	c-4.2-6.2,4.5-11.8,4.9-29.9c0.2-8.2-1.5-12.2,1.5-18.6c2.5-5.5,6.8-9.2,5.9-10.3c-1.1-1.3-2.4-0.9-1-6.4c1-3.9-0.5-8.1-1.7-10.6
	c-0.2-0.4,0.3-0.8,0.7-0.5c2.8,2.3,7.8,6.2,9.4,5.2c1.4-0.9-0.2-5.6-1.5-8.8c-0.3-0.7,0.6-1.3,1.1-0.8
	C104.2,143.5,110,146.7,114.4,150.1z"/>
</svg>
