<?xml version="1.0" encoding="utf-8"?>
<!-- Generator: Adobe Illustrator 26.0.1, SVG Export Plug-In . SVG Version: 6.00 Build 0)  -->
<svg version="1.1" id="Layer_1" xmlns="http://www.w3.org/2000/svg" xmlns:xlink="http://www.w3.org/1999/xlink" x="0px" y="0px"
	 viewBox="0 0 566.9 566.9" style="enable-background:new 0 0 566.9 566.9;" xml:space="preserve">
<style type="text/css">
	.st0{fill:none;stroke:#4CC3CA;stroke-miterlimit:10;}
</style>
<path class="st0" d="M385,435c-1.1,0-2.2,0-3.3-0.1c-7-0.4-9.9-4.8-10.9-6.7c-0.1-0.2-0.2-0.4-0.3-0.6c-1.2,0.1-2.3,0.1-3.5,0.1
	c-7.9,0-13.1-2.6-15.4-7.8c-1.3-2.8-2.4-8.5,3.6-15.3c1.3-1.5,2.7-3,4.2-4.6c6.2-6.7,14-15,15.6-22c0.3-1.5,0.7-2.9,1-4.3
	c1.5-6.4,2.7-11.5,2-14.2l-0.1-0.6c-0.6-2.6-1.1-4.4-1.5-5.4c-11.5-8.2-13.1-15.1-12.1-26.9c-0.5-3.9-11.3-14-16.5-18.8
	c-2.4-2.3-4.8-4.5-7-6.6c-1.9,0.5-4.2,1.1-6.3,1.6c-11.2,3-28,7.5-44.6,7.5c-0.4,0-0.8,0-1.3,0c-8.1-0.1-18.7-2.3-29.9-4.7
	c-8.3-1.7-16.9-3.5-22.7-4c0.6,14.3,0.1,29.7-0.3,42.5c-0.3,10.2-0.7,23,0,26.1c0.6,1.8,1.3,3.5,1.9,5.2c6.1,16.9,9.8,27.2,4.1,38.6
	c-5.2,10.6-17.9,16.9-33.9,16.9c-6.1,0-19.9-1-24.2-9.7c-2.1-0.2-4.2-0.8-6.2-1.5l-0.8-0.3c-3.5-1.4-11.9-4.6-10.5-16.2
	c0.9-7.4,6.3-10.8,9.6-12.9c1.6-1,3.1-1.9,4.6-3.4c9.5-9.1,2.9-44.7-2-70.7l-0.7-3.9c-0.1-0.3-0.1-0.5-0.1-0.6
	c-0.5-0.3-1.5-0.6-2.2-0.9c-3.8-1.4-11.6-4.2-13.9-14c-1.3-5.4-1-8.4-0.6-11.6c0.3-2,0.5-3.9-0.8-10c-0.6-2.9-1.7-5.7-2.9-8.6
	c-1.6-3.9-3.4-8.3-3.9-13.5c-0.6-5.9,0.8-10,1.9-12.9c0.6-1.7,0.9-2.5,0.9-3.5c-0.4-23.1-11.5-32.6-19.1-36.5
	c-1.5,2.3-3.5,4.6-6.2,6.5c-3.5,2.6-8.3,4.1-11.7,4.8c-0.8,0.8-1.5,1.6-2.2,2.3c0.8,1.8,1.6,4.4,1.2,7.7
	c-1.4,11-14.6,13.8-18.6,14.4c-0.6,0.1-2.7,0.4-5.4,0.4c-9.3,0-16.4-3.1-20.4-9c-5.1-7.4-2.4-14.5-0.4-19.7c1.6-4.1,3.3-8.8,3.5-16
	c0.1-2.1,0-4-0.1-5.8c-0.3-4.7-0.5-10,2.5-16.7c1.1-2.4,2.4-4.6,3.6-6.3c-0.7-3.5,0.2-6.8,0.7-8.8c0.1-0.3-0.1-1.7-1.1-3.7
	c-1.6-3.2-1.4-7,0.5-10c1.9-3.1,5.2-4.9,8.8-4.9c0.1,0,0.1,0,0.2,0c2-2.8,5.2-4.4,8.7-4.4c2.5,0,4.9,0.9,6.8,2.5
	c1,0.8,3,2.1,4.9,3.3c1.5,1,3.1,2.1,4.8,3.2c0.9-0.2,1.9-0.5,2.9-0.7c6.1-1.5,15.3-3.8,25-4.2c0.7,0,1.4,0,2.1,0
	c32.9,0,73.7,28.1,89.1,45.3c1.6,0.5,3.9,1.2,7,2.4c8.5,3.4,12.4,5.8,16.6,9c5.5,4.1,10.9,5.2,22.8,7.5c5.1,1,10.1,1.5,15.1,1.5
	c8.5,0,16.1-1.4,24.1-2.8c8.4-1.5,17.1-3.1,27.1-3.1c2.7,0,5.5,0.1,8.2,0.4c18.6,1.6,29.4,5.4,40.6,11.2c1.8-0.7,4.4-1.7,7.5-1.9
	c1.1-0.1,2.2-0.1,3.4-0.1c28,0,50.8,26.6,57.2,34.8c28.9,37.2,19.4,95,13.1,133.3c-1.2,7.1-2.2,13.3-2.8,18.3
	c-0.8,7.1-6.1,15.5-26.7,15.5c-4.9,0-9.8-0.4-13.1-0.8c-1.4-0.1-2.7-0.4-4-0.8c0,0.2-0.1,0.3-0.1,0.5C428.4,423.9,405.2,435,385,435
	z M412.7,276.9c-0.6,1.7-1.2,3.4-1.9,5.1c-1.9,4.6-4.2,7.8-5.9,10.2c-2.1,3-2.2,3.4-2.2,4.4c0,4.7,1.3,8.4,7.3,13.7
	C412.1,299.2,414.1,289.2,412.7,276.9z"/>
<path class="st0" d="M114,150.4c1.7,1.4,15.9-4.6,31.1-5.1c30.1-1.1,71.6,27.8,84.8,43.4c0.9,1,3.7,1.2,9.4,3.5
	c7.5,3,10.7,5,14.4,7.7c7.3,5.5,14.4,6.9,26.9,9.3c30.9,6,48-6.3,75.6-3.9c17.9,1.6,27.4,5,39,11.3c3.2,1.7,6.2-1.6,10.8-2
	c25.1-1.9,47.1,24.6,51.9,30.9c31.4,40.5,12.1,112.5,8.4,144.4c-1,8.2-19,7-28.9,6c-12.7-1.2-18.9-32.5-19.6-36.2
	c-7.4-38.9,11.9-56.7,2.9-95c-3.1-13.1-11.1-23.8-14.8-28.2c-0.5-0.6-1.5-0.2-1.4,0.6c1.1,7.9,5.2,22.1-2.8,41.2
	c-3.7,8.9-8.9,11.1-8.9,18.5c0,9.1,3.7,15.9,13.9,23.7c9.5,7.3-0.1,23,6.7,44.6c6.5,20.6,11.5,27.6,9.3,38.3
	c-2.8,13.3-23.1,22.8-40.3,21.7c-4.5-0.3-2.8-4.2-1-6.8c0.6-0.9-0.2-2.1-1.3-1.9c-7.6,1.4-25.5,4.1-17.3-5
	c7.8-8.7,19.5-19.6,22.1-31.1c2.3-10.3,4.3-17.1,3-22.8c-0.6-2.6-1.9-9.4-4.6-11.2c-9-6.2-9.7-9.5-8.9-18.8
	c0.9-10.8-19.2-25.2-29.4-36.3c-2.2-2.4-30.3,9.8-55.9,9.5c-19.4-0.3-63.7-16.2-63-4.7c2,30.9-2,70.3,0.5,77.6
	c6.9,19.5,10.7,27.7,6.5,36.3c-7.6,15.4-39,12.5-40.6,6.7c-0.8-3.2,13.6-8.5,11.5-9.6c-2.6-1.3-12.5,7.7-22.8,3.7
	c-4.1-1.6-5.5-1.8-5-6c0.5-4.5,5.7-5,11.2-10.3c13.9-13.4,6.3-50.5,0.2-83.6c-2.2-11.9-14.1-6.2-16.4-16c-2.1-9,1.6-7.3-1.3-21.3
	c-1.7-8.2-5.9-14.1-6.7-21.1c-0.7-6.8,2.9-9.5,2.8-15.6c-0.7-43.1-34.3-48.5-34.3-48.5s-1.5,6.8-6.9,10.8
	c-3.4,2.5-10.6,3.6-10.6,3.6s-8.5,8.1-8.4,10.3c0.1,3.7,2.8,4.6,2.4,7.6c-0.4,3.4-6.7,5.3-10.3,5.9c-0.7,0.1-12,1.7-16.2-4.4
	c-4.2-6.2,4.5-11.8,4.9-29.9c0.2-8.2-1.5-12.2,1.5-18.6c2.5-5.5,6.8-9.2,5.9-10.3c-1.1-1.3-2.4-0.9-1-6.4c1-3.9-0.5-8.1-1.7-10.6
	c-0.2-0.4,0.3-0.8,0.7-0.5c2.8,2.3,7.8,6.2,9.4,5.2c1.4-0.9-0.2-5.6-1.5-8.8c-0.3-0.7,0.6-1.3,1.1-0.8
	C103.8,143.7,109.6,146.9,114,150.4z"/>
</svg>
