<?xml version="1.0" encoding="utf-8"?>
<!-- Generator: Adobe Illustrator 26.0.0, SVG Export Plug-In . SVG Version: 6.00 Build 0)  -->
<svg version="1.1" id="Layer_1" xmlns="http://www.w3.org/2000/svg" xmlns:xlink="http://www.w3.org/1999/xlink" x="0px" y="0px"
	 viewBox="0 0 566.9 566.9" style="enable-background:new 0 0 566.9 566.9;" xml:space="preserve">
<style type="text/css">
	.st0{fill:none;stroke:#F15722;stroke-miterlimit:10;}
	.st1{fill:none;stroke:#2D308E;stroke-miterlimit:10;}
</style>
<path class="st0" d="M144.7,242.1l-0.7-1.7l0.5-0.2c2.9-1.1,5.1-2,5.1-6h1.8c0,5.2-3.3,6.5-6.3,7.7L144.7,242.1z"/>
<path class="st0" d="M144.4,241.8"/>
<path class="st0" d="M150.6,234.7"/>
<circle class="st0" cx="144.4" cy="233.1" r="1.4"/>
<circle class="st0" cx="138.4" cy="233.1" r="0.9"/>
<ellipse transform="matrix(0.1602 -0.9871 0.9871 0.1602 -76.876 325.2065)" class="st0" cx="152.7" cy="207.8" rx="2.2" ry="2.2"/>
<path class="st0" d="M409.8,361.2l0-0.1c-0.3-6.1-0.8-17.6,0.3-28.7c0.9-10,2.3-15.4,3.3-19.7c1-4,1.7-7.1,2-12.3
	c0.4-8,0-35.2-19.8-50.6c-6.9-5.3-15.3-8.6-25-9.6l0.2-1.8c10,1.1,18.7,4.4,25.9,10c20.5,15.9,20.8,43.9,20.5,52.1
	c-0.2,5.4-1.1,8.7-2,12.6c-1.1,4.5-2.3,9.6-3.3,19.5c-1,11-0.5,22.4-0.3,28.5l0,0.1L409.8,361.2z"/>
<path class="st0" d="M403.1,361.3c-3.1-13.3-4.9-22.5-3.5-39.1c0.3-3.1,4.6-19.9,5.3-22.5c4.3-15.8-0.2-31.7-12.5-43.5
	c-5.8-5.6-13-9.8-21.2-12.5l0.5-1.7c8.5,2.7,15.9,7.1,21.9,12.9c12.7,12.3,17.4,28.8,12.9,45.3c-0.9,3.4-5,19.3-5.3,22.1
	c-1.4,16.3,0.3,25.4,3.4,38.5L403.1,361.3z"/>
<path class="st0" d="M395.6,360.3c-5.6-17.3-6.5-34.6-4.9-43.3c0.8-4.7,2-8.4,3.2-12.1c1.9-6.1,3.5-11.4,2.9-18.8
	c-0.7-8.2-4-16.3-9.7-24l1.4-1.1c6,8,9.4,16.4,10.1,24.9c0.6,7.8-1.1,13.4-3,19.4c-1.1,3.6-2.3,7.3-3.1,11.9
	c-1.5,8.5-0.7,25.5,4.9,42.4L395.6,360.3z"/>
<path class="st0" d="M355.7,381.2l-2.1-0.1c7.3-10.9,14.1-18.4,15-23.7c0.5-3.2,2-13.1,0-17.7c-1.6-3.7-3.4-4.9-5.3-6.2
	c-1.6-1.1-3.4-2.2-4.8-4.9c-1.4-2.7-1.3-3.8-1.2-5.5c0-0.3,0.1-0.7,0.1-1.1c0.4-6-4.4-9.9-11.6-15.8c-5.2-4.3-11.7-9.6-18.3-17.4
	l1.4-1.2c6.6,7.7,13,13,18.1,17.2c7.4,6.1,12.7,10.5,12.3,17.3c0,0.4-0.1,0.8-0.1,1.1c-0.1,1.4-0.2,2.2,1,4.5
	c1.2,2.3,2.6,3.2,4.1,4.3c1.9,1.3,4.1,2.7,6,6.9c2,4.5,1,12.8,0.1,18.7C369.4,363.3,363.1,370.1,355.7,381.2z"/>
<path class="st1" d="M220.5,376.6l-1.1-0.9c2.6-0.9,11.1-8.3,11.1-9.3c0.2-19.6-1.2-36.2-1.9-42.3c0-0.4-0.8-1.6-1.4-2.7
	c-1.4-2.4-3.3-5.8-4.4-9.5c-0.3-1.1-0.9-2.7-1.5-4.5c-2.4-6.9-4.3-12.4-3.8-14.4l1.7,0.4c-0.4,1.6,2.2,8.9,3.7,13.3
	c0.7,1.9,1.2,3.5,1.6,4.6c1.1,3.5,2.9,6.7,4.3,9.1c1,1.8,1.6,2.7,1.6,3.4c1.1,8.5,2.1,25.4,1.9,42.5
	C232.3,368.1,223.7,375.4,220.5,376.6z"/>
<path class="st0" d="M151.9,232.7c-0.3-0.4-3.2-3.3-7.1-4c-3.6-0.6-7.5,1.5-8.1,1.9l-1-1.5c0.9-0.6,5.3-2.9,9.4-2.2
	c4.6,0.7,7.8,4.1,8.3,4.7L151.9,232.7z"/>
<path class="st0" d="M152.7,232.2"/>
<path class="st1" d="M170.5,196.1h-2.1c0-4.6-2.5-7.1-8.1-8.3l0.4-1.9C167.3,187.2,170.5,190.6,170.5,196.1z"/>
<path class="st1" d="M181,204.6"/>
<path class="st1" d="M173.3,196.1"/>
<path class="st1" d="M177.7,194.7h-2.1c0-4.6-2.5-7.1-8.1-8.3l0.4-1.9C174.5,185.9,177.7,189.2,177.7,194.7z"/>
<path class="st1" d="M184.9,196.5l-1.7-0.5c0.1-0.4,0.2-0.8,0.2-1.2c0.5-4.8-4.5-8.9-6.6-10.5l1.1-1.5c2.4,1.7,7.9,6.4,7.4,12.1
	C185.2,195.4,185.1,196,184.9,196.5z"/>
<path class="st1" d="M188.7,196.6l-1.2-1.3c0.5-0.5,2.2-2.3,2.3-4.9c0-2.5-1.4-4.9-3.7-6.2l0.9-1.6c2.9,1.6,4.7,4.6,4.6,7.8
	C191.5,193.7,189.5,195.9,188.7,196.6z"/>
<path class="st1" d="M193.5,198.9l-1.1-1.4c0.7-0.5,2.9-2.3,3.3-5.6c0.5-3.4-1.2-5.8-1.8-6.5l1.4-1.1c0.7,0.8,2.8,3.8,2.2,7.9
	C197,196,194.3,198.3,193.5,198.9z"/>
<path class="st1" d="M199.3,200.7l-1-1.5c1.3-0.8,3.6-2.7,4.7-5.9c0.8-2.4,0.6-4.5,0.2-5.9l1.8-0.4c0.4,1.6,0.6,4.1-0.3,6.8
	C203.5,197.6,200.8,199.8,199.3,200.7z"/>
<path class="st1" d="M204.9,203.3l-0.7-1.7c0.9-0.4,3.9-1.9,5.1-5.5c0.8-2.4,0.3-4.6-0.1-5.6l1.7-0.6c0.5,1.3,1.1,3.9,0.1,6.8
	C209.6,201,206,202.9,204.9,203.3z"/>
<path class="st1" d="M211.1,205.3l-1-1.5c1.2-0.8,2.8-2.1,4-4.3c1.3-2.3,1.5-4.5,1.5-5.9l1.8,0c0,1.7-0.3,4.2-1.8,6.8
	C214.3,202.8,212.4,204.4,211.1,205.3z"/>
<path class="st1" d="M215.3,208.8l-0.9-1.6c1.2-0.7,3.5-2.4,4.8-5.5c0.9-2.2,0.9-4.2,0.8-5.5l1.8-0.2c0.2,2.2-0.1,4.4-0.9,6.4
	C219.3,206,216.7,208,215.3,208.8z"/>
<path class="st1" d="M220.9,214.9l-0.9-1.6c2.7-1.5,5-3.7,6.7-6.2c1.1-1.6,1.9-3.3,2.4-5.2l1.7,0.5c-0.6,2-1.5,3.9-2.6,5.7
	C226.4,210.9,223.9,213.2,220.9,214.9z"/>
<path class="st1" d="M218.3,211l-0.6-1.7c1.1-0.4,4-1.6,5.5-4.8c1.1-2.2,1-4.4,0.8-5.4l1.8-0.3c0.2,1.6,0.2,4-1,6.5
	C223,209.1,219.6,210.6,218.3,211z"/>
<path class="st1" d="M224.3,217.7l-0.4-1.7c2-0.5,4.9-1.6,7.4-4.3c1.4-1.5,2.6-3.4,3.2-5.5l1.7,0.6c-0.8,2.3-2,4.4-3.6,6.2
	C229.8,215.9,226.5,217.1,224.3,217.7z"/>
<path class="st1" d="M227.7,220l-0.1-1.8c1.5-0.1,4.5-0.6,7.2-2.8c2.3-1.9,3.5-4.1,4-5.7l1.7,0.6c-0.6,1.8-1.9,4.4-4.6,6.5
	C232.8,219.4,229.4,219.9,227.7,220z"/>
<path class="st1" d="M231.1,223.1l-0.2-1.8c2.4-0.2,4.7-1,6.8-2.3c2.1-1.3,3.9-3.1,5.3-5.1l1.5,1c-1.5,2.3-3.5,4.3-5.9,5.7
	C236.3,222,233.7,222.9,231.1,223.1z"/>
</svg>
