<?xml version="1.0" encoding="utf-8"?>
<!-- Generator: Adobe Illustrator 26.3.1, SVG Export Plug-In . SVG Version: 6.00 Build 0)  -->
<svg version="1.1" id="Layer_1" xmlns="http://www.w3.org/2000/svg" xmlns:xlink="http://www.w3.org/1999/xlink" x="0px" y="0px"
	 viewBox="0 0 566.9 566.9" style="enable-background:new 0 0 566.9 566.9;" xml:space="preserve">
<style type="text/css">
	.st0{fill:none;stroke:#F15722;stroke-miterlimit:10;}
	.st1{fill:none;stroke:#EE3542;stroke-miterlimit:10;}
	.st2{fill:none;stroke:#3D57A7;stroke-miterlimit:10;}
	.st3{fill:none;stroke:#EC2024;stroke-miterlimit:10;}
</style>
<path class="st0" d="M248.6,423.2"/>
<path class="st0" d="M248.6,423.2"/>
<path class="st0" d="M255.4,415.6"/>
<path class="st0" d="M255.4,415.6"/>
<path class="st0" d="M269.2,397.5c-6.3,0-11.5-5.2-11.5-11.5s5.2-11.5,11.5-11.5s11.5,5.2,11.5,11.5S275.5,397.5,269.2,397.5z"/>
<circle class="st0" cx="269.2" cy="386" r="1.5"/>
<circle class="st0" cx="244.1" cy="408.7" r="11"/>
<circle class="st0" cx="244.1" cy="408.7" r="1"/>
<path class="st0" d="M303.7,398.6c-6.8,0-12.3-5.5-12.3-12.3c0-6.8,5.5-12.3,12.3-12.3s12.3,5.5,12.3,12.3
	C316,393,310.5,398.6,303.7,398.6z"/>
<ellipse transform="matrix(0.1602 -0.9871 0.9871 0.1602 -126.2103 624.1041)" class="st0" cx="303.7" cy="386.2" rx="2.3" ry="2.3"/>
<path class="st1" d="M186.5,388.5l-3-4.1c-3-4.2-1.6-8.4-1.1-9.9c0.5-1.4,1.5-4.7,1.6-7.6c0-1.9,0-3.6-0.1-5.2
	c-0.1-4.4-0.3-8.5,1.3-12.9c1.2-3.5,3.2-6.4,4.6-8.5c0.5-0.7,1-1.4,1.2-1.9c1-1.9,4.2-6.2,11.3-6.2c0.3,0,0.5,0,0.7,0l0.1,0
	c1.1,0,2-0.1,2.8-0.1c1.7,0,7,0,10.4,4.6c4.7,6.4,1,12.8-5.1,23.3c-1,1.7-2,3.4-2.7,4.7c-0.2,1.4,0.5,4.8,0.8,6.3
	c0.7,3.4,1.6,7.6-1.5,11.6c-1.8,2.4-4.6,3.8-7.6,4c-0.2,0-0.4,0-0.7,0l-0.3,0c-1.1,0-2.5,0.5-3.5,1l-2,0.9l-2.2,0H186.5z"/>
<path class="st1" d="M203.1,342.1c3.4-0.1,4.6-0.2,5.1,0.4c1.1,1.6-5.7,12-8.7,17.7c-3,5.6,1.6,16.3,0.3,16.3
	c-0.6,0-3.5-0.3-8.2,1.9c-0.3,0.1,2.3-5.6,2.3-11.6c0.1-7-0.7-11.1,0.7-14.9c1.2-3.4,3.8-6.3,5.2-8.7
	C200.5,341.9,202.6,342.2,203.1,342.1z"/>
<path class="st2" d="M349.3,389.7c-6.9,0-12.6-2.3-16.4-6.5c-6.8-7.6-2.9-16.8-1.3-20.8c3.5-8.3,14.6-8.9,17.9-8.9
	c1.7,0,3.2,0.2,4.5,0.5c8.4,2.4,13.8,7.1,15,12.9c0.7,1.4,1.8,3.5,2,6.2c0.7,6.3-3.1,13.8-15.9,16.1
	C354,389.4,351.9,389.7,349.3,389.7z"/>
<path class="st2" d="M340.8,366.3c1-2.4,8.4-3.2,10.4-2.6c5.1,1.4,7.9,3.9,7.9,5.5c0,1.2,1.7,3,1.9,5c0.3,2.9-4.2,4.5-7.7,5.2
	c-2.3,0.4-9.3,1.2-12.9-2.8C338.5,374.5,338.4,372,340.8,366.3z"/>
<path class="st2" d="M250.1,365.3c-1.6,0-3.1-0.4-4.6-1c-5.3-2.6-6.3-8.6-6.4-11.9c-0.2-6,3.6-8.8,5.2-9.7l2.3-1.3l2.7,0
	c4,0,13.4,4.2,13.4,12.4c0,2.3-0.8,6.6-6,9.6C254.5,364.7,252.2,365.3,250.1,365.3L250.1,365.3z"/>
<path class="st2" d="M249.3,351.3c-0.4,0.2,0.2,3.8,0.6,4c0.5,0.2,2.8-1,2.8-1.6C252.7,352.9,249.5,351.2,249.3,351.3z"/>
<path class="st2" d="M307.6,343.5c-1.6,0-3.1-0.4-4.6-1c-5-2.5-6.2-7.9-6.4-11.9c-0.2-6,3.6-8.8,5.2-9.7l2.3-1.3l2.7,0
	c4,0,13.4,4.2,13.4,12.4c0,2.3-0.8,6.6-6,9.6C312,342.9,309.8,343.5,307.6,343.5L307.6,343.5z"/>
<path class="st2" d="M306.8,329.5c-0.4,0.2,0.2,3.8,0.6,4c0.5,0.2,2.8-1,2.8-1.6C310.3,331.1,307,329.4,306.8,329.5z"/>
<path class="st3" d="M346.5,315.3c-1,0-2,0-3-0.1c-4.2-0.3-7.7-2.2-9.8-5.4c-2,0.2-4,0.3-5.9,0.3c0,0,0,0,0,0
	c-2.6,0-10.2,0-14.4-5.9c-2.3-3.3-2.8-7.4-1.4-11.3c2.2-6.1,6.7-10.9,10.7-15.1c2.7-2.8,6.1-6.4,6.6-8.5c0.3-1.2,0.5-2.3,0.8-3.4
	c1-4.5,2-8.8,1.6-10.4l-0.1-0.5c-0.1-0.6-0.5-2.3-0.9-3.4c-9.3-6.8-10.8-13.1-10-22.6c-1-3.1-8.4-10-12.5-13.7
	c-1.7-1.6-3.3-3.1-4.8-4.6c-0.5,0.1-1,0.3-1.5,0.4c-6.7,1.8-18,4.8-31.2,4.8c-0.4,0-0.8,0-1.3,0c-7.1-0.1-15.5-2.1-23.7-4.1
	c-3.4-0.8-7-1.7-10.1-2.3c0.3,10.7,0,21.9-0.3,31.3c-0.2,7.9-0.5,17.6-0.1,20.2c0.5,1.4,1,2.7,1.4,4c4.9,13.6,8.1,22.5,3.2,32.5
	c-6.5,13.2-24.8,14.7-32.4,14.7c-8.6,0-19-1.5-23.2-7.9c-1.7-0.3-3.3-0.7-4.8-1.4c-0.3-0.1-0.6-0.3-0.9-0.4
	c-2.5-1.1-10.3-4.3-9-14.8c0.8-6.9,5.9-10.1,8.6-11.8c1.2-0.8,2.3-1.4,3.3-2.4c1.1-1.1,3.7-5.1,3.1-18.4
	c-0.5-10.8-2.9-23.7-5.3-36.2l-0.5-2.5c-0.2-0.1-0.5-0.2-0.7-0.2c-3.1-1.1-10.3-3.7-12.4-12.7c-1.1-4.6-0.9-7.4-0.5-10
	c0.2-1.5,0.4-2.8-0.6-7.3c-0.4-2.2-1.3-4.3-2.2-6.5c-1.3-3.2-2.8-6.9-3.3-11.3c-0.5-5.2,0.8-8.8,1.6-11.3c0.5-1.3,0.6-1.7,0.6-2.1
	c-0.3-15.8-7.2-23.1-12.6-26.4c-1.2,1.5-2.6,2.9-4.3,4.2c-2.9,2.1-6.6,3.4-9.5,4.1c-0.1,0.1-0.3,0.3-0.4,0.4c0.5,1.6,0.9,3.6,0.6,6
	c-0.9,6.9-7.1,11.9-16.6,13.3c-0.5,0.1-2.3,0.3-4.7,0.3c-8,0-14.4-2.9-18-8.1c-4.7-6.8-2.2-13.3-0.5-17.7c1.3-3.3,2.5-6.7,2.7-12.1
	c0-1.6,0-3-0.1-4.5c-0.2-4-0.5-8.5,2.2-14.3c0.8-1.8,1.7-3.3,2.6-4.6c-0.3-2.7,0.3-5.2,0.7-6.8c0-0.3-0.2-0.9-0.6-1.8
	c-1.6-3.2-1.4-7,0.5-10c1.7-2.8,4.6-4.6,7.9-4.8c2-2.3,4.9-3.6,7.9-3.6c2.5,0,4.9,0.9,6.8,2.5c0.7,0.6,2.3,1.6,3.7,2.5
	c1,0.6,2,1.3,3.1,2.1c0.5-0.1,0.9-0.2,1.4-0.3c4.9-1.2,12.4-3.1,20.4-3.4c0.6,0,1.2,0,1.8,0c26.6,0,59.4,22.4,72.3,36.4
	c1.3,0.4,3,0.9,5.2,1.8c7,2.8,10.3,4.8,13.8,7.5c3.8,2.9,7.4,3.7,17.4,5.6c4,0.8,7.8,1.1,11.7,1.1c6.6,0,12.6-1.1,18.9-2.2
	c6.8-1.2,13.9-2.5,22-2.5c2.2,0,4.5,0.1,6.7,0.3c14.8,1.3,23.5,4.2,32.4,8.7c1.5-0.6,3.4-1.2,5.8-1.3c0.9-0.1,1.9-0.1,2.8-0.1
	c22.6,0,40.6,20,47.3,28.6c23.6,30.4,16,77.1,10.9,108.1c-0.9,5.7-1.7,10.6-2.2,14.5c-0.8,6.5-5.4,14.2-23.3,14.2
	c-4,0-8-0.3-10.7-0.6c-0.3,0-0.6-0.1-0.8-0.1c-0.5,3.7-2.1,7.2-4.7,10.2C373.9,311.2,358.4,315.3,346.5,315.3z M362.6,202.6
	c0,0,0,0.1,0,0.2c0,2.1,0.2,4.1,2.4,6.7c0.8-4.4,1.5-8.7,1.7-13.3c-1,1.7-2,3.1-2.8,4.2C363.4,201.2,362.7,202.2,362.6,202.6z"/>
<path class="st3" d="M129.9,85.9c1.4,1.1,12.7-3.7,24.8-4.1c24-0.9,57.2,22.2,67.7,34.7c0.7,0.8,2.9,1,7.5,2.8c6,2.4,8.6,4,11.5,6.2
	c5.8,4.4,11.5,5.5,21.5,7.4c24.7,4.8,38.4-5,60.4-3.1c14.3,1.2,21.9,4,31.2,9c2.6,1.4,5-1.3,8.6-1.6c20-1.5,37.6,19.6,41.5,24.6
	c25.1,32.3,9.7,89.8,6.7,115.3c-0.8,6.6-15.1,5.6-23.1,4.8c-10.1-1-15.1-26-15.6-28.9c-5.9-31.1,9.5-45.3,2.3-75.9
	c-2.4-10.4-8.9-19-11.8-22.5c-0.4-0.5-1.2-0.1-1.1,0.5c0.9,6.3,4.1,17.7-2.3,32.9c-3,7.1-7.1,8.9-7.1,14.8c0,7.3,3,12.7,11.1,18.9
	c7.6,5.8-0.1,18.3,5.4,35.6c5.2,16.5,6,22,7.4,30.5c1.9,11.3-18.4,18.2-32.2,17.3c-5.5-0.3,0.7-7.5,0.7-7.5s-26.1,6.3-23.4-1.5
	c3.1-8.8,15.6-15.6,17.6-24.8c1.8-8.2,3.4-13.7,2.4-18.2c-0.5-2.1-1.6-7.5-3.7-8.9c-7.2-5-7.7-7.6-7.1-15c0.7-8.6-15.3-20.2-23.5-29
	c-1.8-1.9-17.2,5.9-37.7,5.6c-15.5-0.2-44.9-12.9-44.3-3.7c1.6,24.6-1.6,56.2,0.4,62c5.5,15.6,8.5,22.2,5.2,29
	c-6,12.3-37.1,10-38.4,5.3c-0.7-2.5,9.2-7.6,9.2-7.6s-11.7,5.8-18.2,2.9c-3.2-1.4-4.4-1.4-4-4.8c0.4-3.6,4.5-4,8.9-8.2
	c11.1-10.7,5-40.3,0.2-66.8c-1.8-9.5-11.2-5-13.1-12.8c-1.7-7.2,1.3-5.9-1.1-17c-1.4-6.5-4.7-11.2-5.3-16.8
	c-0.6-5.4,2.3-7.6,2.2-12.4c-0.6-34.4-27.4-38.7-27.4-38.7s-1.2,5.4-5.5,8.6c-2.7,2-8.5,2.9-8.5,2.9s-6.8,6.4-6.7,8.3
	c0.1,2.9,2.2,3.6,1.9,6.1c-0.3,2.7-5.4,4.3-8.2,4.7c-0.6,0.1-9.6,1.3-12.9-3.5c-3.4-4.9,3.6-9.5,3.9-23.9c0.2-6.6-1.2-9.7,1.2-14.9
	c2-4.4,5.4-7.4,4.7-8.2c-0.9-1.1-1.9-0.7-0.8-5.1c0.8-3.1-0.4-6.5-1.4-8.4c-0.2-0.3,0.3-0.7,0.5-0.4c2.2,1.9,6.2,4.9,7.5,4.2
	c1.1-0.7-0.2-4.5-1.2-7c-0.2-0.6,0.4-1,0.9-0.7C121.8,80.6,126.4,83.2,129.9,85.9z"/>
<path class="st2" d="M443.2,497.7c-2.2,0-9.6-0.1-14.1-2c-11.9-4.9-16.1-19.1-20.3-37.2c-1.3-5.7-1.5-16.1-0.4-27.6
	c0.6-6.9,1.7-11.3,2.6-15.2c0.9-4,1.7-7.4,2.1-13.4c0.4-7.5-0.5-12.4-1.2-16.3c-0.1-0.7-0.3-1.4-0.4-2c-0.8-4.8-1.6-6.1-4.3-10.2
	c-0.9-1.4-1.8-2.9-3-4.8c-0.1-0.1-0.2-0.3-0.2-0.4c-5.1-2.2-6.3-8.3-6.9-11.3c-0.1-0.7-0.4-1.9-0.5-2.4c-0.2-0.4-0.7-1.2-1.1-1.9
	c-0.8-1.4-1.9-3.1-2.7-5.1l-4.7-11.9l12.2-1.6c0.2-0.1,0.4-0.2,0.6-0.2c2.1-0.8,5.6-2.2,10.4-2.2c1,0,2,0.1,3,0.2
	c17.3,2,32.4,11.6,44.9,28.7c12,16.5,16.8,35.1,16,62.1c-0.6,19.3-2.9,32.7-5,44.6c-1,5.6-1.9,10.9-2.5,16.1
	C466.8,488.9,462.9,497.7,443.2,497.7z M403.1,367.3L403.1,367.3z"/>
<path class="st2" d="M401.9,344.2c2.4-0.3,5.4-2.8,11.1-2.2c19,2.1,31.3,15.5,37.9,24.7c8.7,12,14.9,27,14.1,56
	c-0.8,27.7-5.6,43.2-7.5,59.9c-0.8,6.6-20.3,5.6-24.6,3.9c-6.8-2.8-10.2-12.5-14.4-30.3c-1-4.2-1.3-13.2-0.2-24.4
	c1.2-13.1,3.9-16,4.7-28.9c0.6-10.1-1-16.4-1.7-20.6c-1.5-8.7-3.8-10.6-8.5-18.5c-1.7-2.9-3.5-4.8-4.5-4.4c-0.9,0.3-1.5-5.7-2.4-8
	C404.8,348.8,402.9,346.6,401.9,344.2z"/>
</svg>
