<?xml version="1.0" encoding="utf-8"?>
<!-- Generator: Adobe Illustrator 26.3.1, SVG Export Plug-In . SVG Version: 6.00 Build 0)  -->
<svg version="1.1" id="Layer_1" xmlns="http://www.w3.org/2000/svg" xmlns:xlink="http://www.w3.org/1999/xlink" x="0px" y="0px"
	 viewBox="0 0 566.9 566.9" style="enable-background:new 0 0 566.9 566.9;" xml:space="preserve">
<style type="text/css">
	.st0{fill:none;stroke:#F15722;stroke-miterlimit:10;}
	.st1{fill:none;stroke:#2D308E;stroke-miterlimit:10;}
</style>
<path class="st0" d="M104.3,319.1l0-0.1c-0.3-6.7-0.9-19.1,0.3-31.3c1-10.9,2.5-16.8,3.6-21.5c1.1-4.3,1.9-7.7,2.1-13.4
	c0.4-8.7,0-38.4-21.5-55.1c-7.5-5.8-16.6-9.3-27.2-10.5l0.2-1.9c10.9,1.2,20.4,4.8,28.2,10.9c22.3,17.3,22.7,47.8,22.3,56.7
	c-0.3,5.9-1.2,9.5-2.2,13.7c-1.2,4.9-2.6,10.4-3.6,21.2c-1.1,12-0.6,24.4-0.3,31l0,0.1L104.3,319.1z"/>
<path class="st0" d="M97,319.3c-3.4-14.5-5.4-24.5-3.8-42.5c0.3-3.4,5-21.6,5.8-24.5c4.7-17.2-0.3-34.5-13.6-47.4
	c-6.3-6.1-14.1-10.7-23.1-13.6l0.6-1.9c9.3,3,17.3,7.7,23.9,14.1c13.8,13.4,19,31.4,14.1,49.3c-1,3.7-5.5,21-5.7,24.1
	c-1.6,17.7,0.4,27.6,3.7,41.9L97,319.3z"/>
<path class="st0" d="M88.8,318.3c-6.1-18.8-7.1-37.6-5.4-47.2c0.9-5.1,2.2-9.2,3.4-13.2c2.1-6.6,3.9-12.4,3.2-20.4
	c-0.8-9-4.3-17.8-10.6-26.2l1.6-1.2c6.5,8.7,10.2,17.8,11,27.2c0.7,8.4-1.2,14.6-3.3,21.2c-1.2,3.9-2.5,8-3.4,12.9
	c-1.7,9.3-0.7,27.7,5.3,46.2L88.8,318.3z"/>
<path class="st0" d="M425.8,361l-1.6-1.1c8-11.9,11.8-18.1,12.7-23.9c0.5-3.5,2.2-14.3,0-19.2c-1.8-4.1-3.7-5.3-5.8-6.7
	c-1.8-1.2-3.7-2.4-5.2-5.4c-1.5-2.9-1.5-4.1-1.3-6c0-0.3,0.1-0.7,0.1-1.2c0.4-6.5-4.8-10.8-12.7-17.3c-5.7-4.7-12.7-10.4-20-19
	l1.5-1.3c7.2,8.4,14.1,14.1,19.7,18.7c8,6.6,13.8,11.4,13.4,18.9c0,0.5-0.1,0.9-0.1,1.2c-0.2,1.5-0.2,2.3,1.1,4.9
	c1.3,2.5,2.8,3.5,4.5,4.7c2.1,1.4,4.5,3,6.5,7.6c2.2,4.9,1.1,13.9,0.1,20.3C437.8,342.5,433.9,348.9,425.8,361z"/>
<path class="st1" d="M283,354l-0.7-1.8c2.8-1,6.2-6.3,6.3-7.3c0.2-21.4-1.3-39.5-2.1-46c0-0.4-0.8-1.8-1.5-3
	c-1.5-2.6-3.6-6.3-4.8-10.3c-0.3-1.1-1-2.9-1.7-4.9c-2.7-7.5-4.6-13.5-4.1-15.6l1.9,0.5c-0.5,1.7,2.4,9.7,4,14.5
	c0.7,2.1,1.4,3.8,1.7,5c1.2,3.8,3.2,7.3,4.7,9.9c1.1,2,1.7,3,1.8,3.7c1.2,9.2,2.3,27.6,2.1,46.3C290.5,346.8,286.5,352.8,283,354z"
	/>
<path class="st1" d="M223.2,159.4H221c0-5-2.7-7.8-8.8-9l0.5-2.1C219.8,149.8,223.2,153.4,223.2,159.4z"/>
<path class="st1" d="M234.6,168.7"/>
<path class="st1" d="M226.3,159.4"/>
<path class="st1" d="M231,157.9h-2.3c0-5-2.7-7.8-8.8-9l0.5-2.1C227.6,148.3,231,151.9,231,157.9z"/>
<path class="st1" d="M238.9,159.8l-1.9-0.5c0.1-0.4,0.2-0.9,0.3-1.3c0.5-5.2-4.9-9.7-7.2-11.4l1.1-1.6c2.6,1.9,8.6,7,8,13.2
	C239.2,158.7,239.1,159.3,238.9,159.8z"/>
<path class="st1" d="M243,160l-1.3-1.4c0.6-0.5,2.4-2.5,2.5-5.3c0.1-2.7-1.5-5.3-4-6.8l1-1.7c3.2,1.8,5.1,5.1,5,8.5
	C246.1,156.8,243.9,159.2,243,160z"/>
<path class="st1" d="M248.3,162.5l-1.2-1.6c0.7-0.5,3.1-2.5,3.6-6.1c0.5-3.7-1.4-6.4-2-7.1l1.5-1.2c0.7,0.9,3,4.1,2.4,8.6
	C252.1,159.4,249.1,161.8,248.3,162.5z"/>
<path class="st1" d="M254.6,164.5l-1-1.7c1.4-0.9,3.9-2.9,5.1-6.5c0.8-2.6,0.6-4.9,0.3-6.4l1.9-0.4c0.4,1.7,0.7,4.4-0.3,7.4
	C259.1,161.1,256.2,163.4,254.6,164.5z"/>
<path class="st1" d="M260.7,167.3l-0.8-1.8c1-0.4,4.3-2.1,5.5-6c0.8-2.6,0.3-5-0.1-6.1l1.8-0.7c0.5,1.4,1.2,4.2,0.2,7.4
	C265.8,164.8,261.9,166.8,260.7,167.3z"/>
<path class="st1" d="M267.4,169.4l-1.1-1.6c1.3-0.8,3-2.3,4.4-4.7c1.4-2.5,1.7-4.9,1.7-6.4l2,0c0,1.8-0.3,4.5-1.9,7.4
	C270.9,166.8,268.9,168.5,267.4,169.4z"/>
<path class="st1" d="M272,173.3l-1-1.7c1.4-0.8,3.8-2.6,5.2-5.9c1-2.4,1-4.6,0.9-6l2-0.2c0.2,2.4-0.1,4.8-1,7
	C276.4,170.2,273.5,172.4,272,173.3z"/>
<path class="st1" d="M278.1,179.9l-1-1.7c3-1.7,5.5-4,7.3-6.7c1.1-1.7,2-3.6,2.6-5.6l1.9,0.6c-0.6,2.2-1.6,4.3-2.9,6.2
	C284.1,175.5,281.3,178.1,278.1,179.9z"/>
<path class="st1" d="M275.2,175.7l-0.6-1.9c1.2-0.4,4.3-1.8,6-5.2c1.2-2.4,1.1-4.7,0.9-5.9l1.9-0.3c0.2,1.7,0.2,4.3-1.1,7.1
	C280.3,173.6,276.7,175.2,275.2,175.7z"/>
<path class="st1" d="M281.7,182.9l-0.5-1.9c2.2-0.5,5.4-1.8,8.1-4.7c1.6-1.7,2.8-3.8,3.5-6l1.9,0.6c-0.8,2.5-2.2,4.8-4,6.7
	C287.7,181,284.2,182.3,281.7,182.9z"/>
<path class="st1" d="M285.4,185.5l-0.1-2c1.7-0.1,4.9-0.6,7.9-3c2.5-2,3.8-4.5,4.4-6.2l1.8,0.7c-0.7,1.9-2.1,4.7-5,7.1
	C291,184.8,287.3,185.4,285.4,185.5z"/>
<path class="st1" d="M289.1,188.9l-0.2-2c2.6-0.3,5.1-1.1,7.4-2.5c2.3-1.4,4.3-3.3,5.7-5.6l1.7,1.1c-1.6,2.5-3.8,4.7-6.4,6.2
	C294.8,187.6,292,188.6,289.1,188.9z"/>
<path class="st0" d="M273.6,415.5c-0.3-0.4-5.4-4.8-9.6-5.5c-3.9-0.6-9.3,2-9.9,2.4c0,0,0.7-2.4,1.5-2.8c2-0.9,5.4-2.1,8.8-1.6
	c3.9,0.6,7.7,3.3,8.3,4.4C273,413.2,273.6,415.5,273.6,415.5z"/>
<path class="st0" d="M313.2,424.2l0.6-0.2c3.1-1.2,5.6-2.2,5.6-6.5h2c0,5.7-4.6,8.5-7,8.2C313.1,425.5,313.2,424.2,313.2,424.2z"/>
</svg>
