<?xml version="1.0" encoding="utf-8"?>
<!-- Generator: Adobe Illustrator 26.3.1, SVG Export Plug-In . SVG Version: 6.00 Build 0)  -->
<svg version="1.1" id="Layer_1" xmlns="http://www.w3.org/2000/svg" xmlns:xlink="http://www.w3.org/1999/xlink" x="0px" y="0px"
	 viewBox="0 0 566.9 566.9" style="enable-background:new 0 0 566.9 566.9;" xml:space="preserve">
<style type="text/css">
	.st0{fill:none;stroke:#F15722;stroke-miterlimit:10;}
	.st1{fill:none;stroke:#EE3542;stroke-miterlimit:10;}
	.st2{fill:none;stroke:#3D57A7;stroke-miterlimit:10;}
	.st3{fill:none;stroke:#EC2024;stroke-miterlimit:10;}
	.st4{fill:none;stroke:#3B53A4;stroke-miterlimit:10;}
</style>
<path class="st0" d="M248.4,423.7"/>
<path class="st0" d="M248.4,423.7"/>
<path class="st0" d="M248.4,423.7"/>
<path class="st0" d="M248.4,423.7"/>
<path class="st0" d="M255.2,416"/>
<path class="st0" d="M255.2,416"/>
<path class="st0" d="M255.2,416"/>
<path class="st0" d="M255.2,416"/>
<path class="st0" d="M269,389.9c-1.9,0-3.5-1.6-3.5-3.5s1.6-3.5,3.5-3.5c1.9,0,3.5,1.6,3.5,3.5S270.9,389.9,269,389.9z"/>
<circle class="st0" cx="269" cy="386.4" r="1.5"/>
<circle class="st0" cx="243.9" cy="409.1" r="3"/>
<circle class="st0" cx="243.9" cy="409.1" r="1"/>
<path class="st0" d="M303.5,391c-2.4,0-4.3-1.9-4.3-4.3c0-2.4,1.9-4.3,4.3-4.3s4.3,1.9,4.3,4.3C307.8,389.1,305.9,391,303.5,391z"/>
<ellipse transform="matrix(0.1602 -0.9871 0.9871 0.1602 -126.8204 624.2775)" class="st0" cx="303.5" cy="386.7" rx="2.3" ry="2.3"/>
<path class="st1" d="M190.4,380.9l-0.6-0.8c-0.6-0.9-0.4-1.6,0-2.7c0.6-1.8,1.9-5.9,2-10c0-2.1,0-3.9-0.1-5.5c-0.1-3.9-0.2-7,0.9-10
	c0.9-2.5,2.4-4.7,3.7-6.6c0.6-0.9,1.2-1.7,1.6-2.5c0.5-1,1.7-2.1,4.3-2.1c0.2,0,0.4,0,0.5,0l0.2,0l0.4,0c1,0,1.8-0.1,2.5-0.1
	c1.2,0,2.9,0,3.9,1.3c1.4,1.9,0.1,4.8-5.6,14.5c-1.1,1.9-2.2,3.8-3,5.3c-1.6,2.9-0.4,8.3,0.2,11.4c0.6,2.8,0.8,4,0,5.1
	c-0.4,0.5-1,0.8-1.6,0.9c-0.1,0-0.6,0-0.6,0c-2.1,0-4.4,0.6-6.8,1.7l-0.4,0.2l-0.4,0H190.4z"/>
<path class="st1" d="M202.9,342.6c3.4-0.1,4.6-0.2,5.1,0.4c1.1,1.6-5.7,12-8.7,17.7c-3,5.6,1.6,16.3,0.3,16.3
	c-0.6,0-3.5-0.3-8.2,1.9c-0.3,0.1,2.3-5.6,2.3-11.6c0.1-7-0.7-11.1,0.7-14.9c1.2-3.4,3.8-6.3,5.2-8.7
	C200.3,342.3,202.4,342.6,202.9,342.6z"/>
<path class="st2" d="M349.1,382.1c-4.6,0-8.2-1.3-10.4-3.8c-2.9-3.2-2.1-7.1,0.1-12.3c1.7-4,10.4-4,10.5-4c0.9,0,1.7,0.1,2.3,0.2
	c5.7,1.6,9.4,4.5,9.3,7.5c0,0.1,0.3,0.7,0.6,1.1c0.5,1,1.2,2.2,1.3,3.6c0.4,3.5-3,6.2-9.4,7.3C352.6,381.9,351,382.1,349.1,382.1z"
	/>
<path class="st2" d="M340.6,366.8c1-2.4,8.4-3.2,10.4-2.6c5.1,1.4,7.9,3.9,7.9,5.5c0,1.2,1.7,3,1.9,5c0.3,2.9-4.2,4.5-7.7,5.2
	c-2.3,0.4-9.3,1.2-12.9-2.8C338.3,374.9,338.2,372.4,340.6,366.8z"/>
<path class="st2" d="M249.9,357.8c-0.4,0-0.7-0.1-1-0.2c-1.7-0.8-1.9-4.3-1.9-5c0-0.5-0.1-1.9,1.1-2.5l0.5-0.3l0.6,0
	c0.7,0,1.7,0.4,2.9,1.2c1.7,1.1,2.5,2,2.5,3.2c0,1.4-1.2,2.2-2.1,2.7C251.9,357.2,250.8,357.8,249.9,357.8L249.9,357.8z"/>
<path class="st2" d="M249.1,351.8c-0.4,0.2,0.2,3.8,0.6,4c0.5,0.2,2.8-1,2.8-1.6C252.5,353.3,249.3,351.6,249.1,351.8z"/>
<path class="st2" d="M307.4,336c-0.4,0-0.7-0.1-1-0.2c-1.7-0.8-1.9-4.3-1.9-5c0-0.5-0.1-1.9,1.1-2.5l0.5-0.3l0.6,0
	c1,0,5.4,2,5.4,4.4c0,1.4-1.2,2.2-2.1,2.7C309.4,335.4,308.3,336,307.4,336L307.4,336z"/>
<path class="st2" d="M306.6,329.9c-0.4,0.2,0.2,3.8,0.6,4c0.5,0.2,2.8-1,2.8-1.6C310.1,331.5,306.8,329.8,306.6,329.9z"/>
<path class="st3" d="M346.3,307.7c-0.8,0-1.7,0-2.5-0.1c-2.4-0.1-3.4-1.3-3.8-2.3c-0.5-1.3-0.3-2.8,0.4-4.2
	c-3.6,0.7-8.6,1.5-12.7,1.5c-4.2,0-6.7-0.8-7.9-2.5c-0.6-0.8-1.1-2.1-0.4-4c1.6-4.5,5.4-8.5,9-12.3c3.9-4.1,7.6-8,8.6-12.3
	c0.3-1.2,0.5-2.3,0.8-3.4c1.4-6.1,2.4-10.5,1.6-14l-0.1-0.5c-0.9-4.2-1.9-6.7-2.7-7.3c-7.7-5.3-8.7-8.5-8-16.8
	c0.4-5.3-7.8-13-15-19.8c-2.8-2.6-5.4-5.1-7.6-7.4c-1.1,0-3.5,0.7-6.2,1.4c-6.8,1.8-17,4.5-29.2,4.5c-0.4,0-0.8,0-1.1,0
	c-6.2-0.1-14.2-2-22-3.9c-6.8-1.6-13.2-3.2-17.3-3.2c-2.2,0-2.8,0.5-2.9,0.6c0,0-0.1,0.2-0.1,0.6c0.8,12.5,0.4,27,0,38.6
	c-0.3,10.5-0.6,20.3,0.3,22.9c0.5,1.5,1.1,2.9,1.5,4.3c4.6,12.9,7,19.3,3.6,26.2c-4.6,9.5-20.5,10.2-25.2,10.2
	c-1.6,0-15.6-0.1-16.9-5.2c-0.2-0.8,0-1.7,0.5-2.7c-1.1,0.2-2.2,0.3-3.3,0.3c-1.9,0-3.6-0.3-5.1-0.9c-0.4-0.2-0.7-0.3-1-0.4
	c-2.5-1.1-4.7-2-4.2-6.4c0.4-3.1,2.6-4.5,4.9-6c1.4-0.9,3-1.9,4.6-3.4c9.9-9.5,4.7-37.3,0.2-61.9l-0.6-3.1c-0.7-3.9-2.8-4.6-5.7-5.7
	c-2.8-1-6.2-2.3-7.4-7c-0.8-3.6-0.6-5.3-0.4-7.2c0.2-1.9,0.5-4.1-0.7-9.9c-0.6-2.9-1.6-5.4-2.6-7.9c-1.2-3-2.4-5.9-2.7-9.1
	c-0.4-3.4,0.5-5.7,1.2-7.7c0.6-1.6,1.1-3,1-4.9c-0.5-27.5-18.4-34.8-24.1-36.4c-0.8,2.1-2.5,5.5-5.6,7.8c-2.6,1.9-7,2.8-8.7,3.2
	c-2.8,2.7-5.3,5.5-5.7,6.5c0.1,0.8,0.4,1.3,0.8,2c0.6,0.9,1.3,2.2,1.1,4.1c-0.6,4.9-8.9,6.3-9.9,6.4c-0.3,0-1.6,0.2-3.4,0.2
	c-3.8,0-8.8-0.8-11.4-4.6c-2.3-3.3-1.1-6.5,0.4-10.3c1.4-3.5,3-8,3.2-14.8c0-1.9,0-3.6-0.1-5.1c-0.2-3.5-0.4-6.6,1.5-10.6
	c1.1-2.3,2.5-4.2,3.5-5.6c0.3-0.4,0.6-0.8,0.8-1.1c-1.3-1.3-1.4-2.9-0.5-6.2c0.7-2.5-0.5-5.5-1.2-7.1c-0.4-0.7-0.3-1.6,0.1-2.3
	c0.4-0.7,1.2-1.1,2-1.1c0.5,0,1.1,0.2,1.5,0.5c2,1.7,3.5,2.7,4.5,3.3c-0.2-0.9-0.6-2.1-1.3-3.8c-0.3-0.8-0.2-1.7,0.2-2.4
	c0.5-0.7,1.3-1.1,2.1-1.1c0.6,0,1.2,0.2,1.6,0.6c1,0.9,2.7,2,4.4,3.1c1.8,1.2,3.8,2.5,5.6,3.9c1-0.1,3-0.6,5.1-1.1
	c4.9-1.2,11.6-2.9,18.7-3.2c0.5,0,1,0,1.5,0c25,0,57.3,22.9,67.8,35.3c0.3,0.1,1,0.4,1.7,0.6c1.2,0.4,2.9,0.9,5.1,1.7
	c6.2,2.5,8.9,4.2,11.9,6.4c5.5,4.1,10.9,5.2,20.7,7.1c4.5,0.9,8.8,1.3,13.2,1.3c7.3,0,13.9-1.2,20.3-2.3c6.5-1.2,13.2-2.4,20.6-2.4
	c2,0,4,0.1,6,0.3c14.9,1.3,22.7,4.2,31.9,9.2c0.2,0.1,0.4,0.2,0.6,0.2c0.6,0,1.4-0.3,2.3-0.7c1.2-0.5,2.8-1.1,4.6-1.3
	c0.7-0.1,1.5-0.1,2.2-0.1c19.6,0,36.3,19.5,41,25.5c21.5,27.7,14.2,72.3,9.3,101.8c-0.9,5.8-1.8,10.7-2.2,14.9
	c-0.8,7.1-11.8,7.1-15.4,7.1c-3.6,0-7.7-0.4-10.5-0.6c-4.6-0.3-8.7-6.8-10.7-11c-0.2-0.4-0.9-0.2-0.8,0.3c0.6,3.2,1.4,8.1,2.2,12.8
	l0.3,1.6c0.5,3.3-0.4,6.5-2.8,9.3C369.5,304.1,356.3,307.7,346.3,307.7z"/>
<path class="st3" d="M129.7,86.4c1.4,1.1,12.7-3.7,24.8-4.1c24-0.9,57.2,22.2,67.7,34.7c0.7,0.8,2.9,1,7.5,2.8c6,2.4,8.6,4,11.5,6.2
	c5.8,4.4,11.5,5.5,21.5,7.4c24.7,4.8,38.4-5,60.4-3.1c14.3,1.2,21.9,4,31.2,9c2.6,1.4,5-1.3,8.6-1.6c20-1.5,37.6,19.6,41.5,24.6
	c25.1,32.3,9.7,89.8,6.7,115.3c-0.8,6.6-15.1,5.6-23.1,4.8c-10.1-1-15.1-26-15.6-28.9c-5.9-31.1,9.5-45.3,2.3-75.9
	c-2.4-10.4-8.9-19-11.8-22.5c-0.4-0.5-1.2-0.1-1.1,0.5c0.9,6.3,4.1,17.7-2.3,32.9c-3,7.1-7.1,8.9-7.1,14.8c0,7.3,3,12.7,11.1,18.9
	c7.6,5.8-0.1,18.3,5.4,35.6c5.2,16.5,6,22,7.4,30.5c1.9,11.3-18.4,18.2-32.2,17.3c-5.5-0.3,0.7-7.5,0.7-7.5s-26.1,6.3-23.4-1.5
	c3.1-8.8,15.6-15.6,17.6-24.8c1.8-8.2,3.4-13.7,2.4-18.2c-0.5-2.1-1.6-7.5-3.7-8.9c-7.2-5-7.7-7.6-7.1-15c0.7-8.6-15.3-20.2-23.5-29
	c-1.8-1.9-17.2,5.9-37.7,5.6c-15.5-0.2-44.9-12.9-44.3-3.7c1.6,24.6-1.6,56.2,0.4,62c5.5,15.6,8.5,22.2,5.2,29
	c-6,12.3-37.1,10-38.4,5.3c-0.7-2.5,9.2-7.6,9.2-7.6s-11.7,5.8-18.2,2.9c-3.2-1.4-4.4-1.4-4-4.8c0.4-3.6,4.5-4,8.9-8.2
	c11.1-10.7,5-40.3,0.2-66.8c-1.8-9.5-11.2-5-13.1-12.8c-1.7-7.2,1.3-5.9-1.1-17c-1.4-6.5-4.7-11.2-5.3-16.8
	c-0.6-5.4,2.3-7.6,2.2-12.4c-0.6-34.4-27.4-38.7-27.4-38.7s-1.2,5.4-5.5,8.6c-2.7,2-8.5,2.9-8.5,2.9s-6.8,6.4-6.7,8.3
	c0.1,2.9,2.2,3.6,1.9,6.1c-0.3,2.7-5.4,4.3-8.2,4.7c-0.6,0.1-9.6,1.3-12.9-3.5c-3.4-4.9,3.6-9.5,3.9-23.9c0.2-6.6-1.2-9.7,1.2-14.9
	c2-4.4,5.4-7.4,4.7-8.2c-0.9-1.1-1.9-0.7-0.8-5.1c0.8-3.1-0.4-6.5-1.4-8.4c-0.2-0.3,0.3-0.7,0.5-0.4c2.2,1.9,6.2,4.9,7.5,4.2
	c1.1-0.7-0.2-4.5-1.2-7c-0.2-0.6,0.4-1,0.9-0.7C121.6,81.1,126.2,83.6,129.7,86.4z"/>
<path class="st2" d="M443,490.1c-4.6,0-9-0.6-11.1-1.4c-7.6-3.1-11.2-13.1-15.6-31.6c-1.1-4.8-1.2-14.6-0.3-25
	c0.6-6.3,1.5-10.3,2.4-14.1c1-4.2,1.9-8.1,2.3-14.7c0.5-8.4-0.6-14.1-1.3-18.2c-0.1-0.7-0.2-1.3-0.3-1.9c-1.1-6.4-2.6-8.8-5.4-13.2
	c-0.8-1.3-1.8-2.8-2.8-4.6c-1.3-2.2-2.3-3.2-2.7-3.5l-0.2,0c-2.1,0-2.6-2.1-3.3-5.7c-0.3-1.3-0.6-2.8-0.9-3.6
	c-0.4-1.1-1.1-2.1-1.8-3.3c-0.8-1.2-1.5-2.5-2.1-3.9l-0.9-2.4l2.5-0.3c0.5-0.1,1.2-0.4,2.1-0.7c1.8-0.7,4.1-1.6,7.4-1.6
	c0.7,0,1.4,0,2.1,0.1c15,1.7,28.2,10.3,39.3,25.5c7.7,10.5,15.4,25.6,14.5,57.2c-0.5,18.7-2.9,31.8-4.9,43.5c-1,5.7-2,11.1-2.6,16.6
	C458.6,489.2,448.8,490.1,443,490.1z"/>
<path class="st2" d="M401.7,344.6c2.4-0.3,5.4-2.8,11.1-2.2c19,2.1,31.3,15.5,37.9,24.7c8.7,12,14.9,27,14.1,56
	c-0.8,27.7-5.6,43.2-7.5,59.9c-0.8,6.6-20.3,5.6-24.6,3.9c-6.8-2.8-10.2-12.5-14.4-30.3c-1-4.2-1.3-13.2-0.2-24.4
	c1.2-13.1,3.9-16,4.7-28.9c0.6-10.1-1-16.4-1.7-20.6c-1.5-8.7-3.8-10.6-8.5-18.5c-1.7-2.9-3.5-4.8-4.5-4.4c-0.9,0.3-1.5-5.7-2.4-8
	C404.6,349.3,402.7,347.1,401.7,344.6z"/>
<path class="st4" d="M364.7,160.7c0.5,8.9,1.8,7.6-0.6,19.9c-1.9,9.6-5.4,12.7-8.7,18.4c-2.5,4.4-0.3,12.7,4,16.9
	c2.2,2.1,5,4.2,7.7,7.4c1,1.3,1.6,2.8,1.8,4.1c0.1,0.5,0.8,0.4,0.8,0c0.8-4.5,2.4-12.8,2.7-15.4c0.8-5.4,3.4-12.7,1.6-25.9
	C371.9,169.5,364.7,160.7,364.7,160.7z"/>
</svg>
