<?xml version="1.0" encoding="utf-8"?>
<!-- Generator: Adobe Illustrator 26.3.1, SVG Export Plug-In . SVG Version: 6.00 Build 0)  -->
<svg version="1.1" id="Layer_1" xmlns="http://www.w3.org/2000/svg" xmlns:xlink="http://www.w3.org/1999/xlink" x="0px" y="0px"
	 viewBox="0 0 566.9 566.9" style="enable-background:new 0 0 566.9 566.9;" xml:space="preserve">
<style type="text/css">
	.st0{fill:none;stroke:#3D57A7;stroke-miterlimit:10;}
	.st1{fill:none;stroke:#2D308E;stroke-miterlimit:10;}
	.st2{fill:none;stroke:#EC2024;stroke-miterlimit:10;}
</style>
<path class="st0" d="M98.3,335.1c-2.2,0-9.6-0.1-14.1-2c-11.8-4.9-16-19.1-20.3-37.2c-1.3-5.7-1.5-16-0.4-27.6
	c0.6-6.9,1.7-11.3,2.6-15.2c0.9-4,1.7-7.4,2.1-13.4c0.4-7.5-0.5-12.4-1.2-16.3c-0.1-0.7-0.3-1.4-0.4-2c-0.8-4.8-1.6-6.1-4.3-10.3
	c-0.9-1.4-2.2-3.6-3-4.8c-1.9-2.8-6.5-8.7-7.1-11.6c0-0.1-0.1-0.2-0.1-0.4c-0.3-1.4-0.8-2.7-1.5-3.9c0,0,0,0,0,0
	c-0.8-1.4-1.9-3.1-2.7-5.1l-0.2-0.4c-2.3-5.8,1.5-12.2,7.6-13h0c0.2-0.1,0.4-0.2,0.6-0.3c2.1-0.8,5.6-2.2,10.4-2.2
	c1,0,2,0.1,2.9,0.2c17.3,2,32.4,11.6,44.8,28.7c12,16.5,16.8,35,16,62.1c-0.6,19.3-2.9,32.7-5,44.6c-1,5.6-1.9,10.9-2.5,16.1
	C121.8,326.4,117.8,335.1,98.3,335.1z"/>
<path class="st0" d="M57,181.7c2.4-0.3,5.4-2.8,11.1-2.2c19,2.1,31.3,15.5,37.9,24.7c8.7,12,14.9,27,14.1,56
	c-0.8,27.7-5.6,43.2-7.5,59.9c-0.8,6.6-20.3,5.6-24.6,3.9c-6.8-2.8-10.2-12.5-14.4-30.3c-1-4.2-1.3-13.2-0.2-24.4
	c1.2-13.1,3.9-16,4.7-28.9c0.6-10.1-1-16.4-1.7-20.6c-1.5-8.7-3.8-10.6-8.5-18.5c-1.7-2.9-3.5-4.8-4.5-4.4c-0.9,0.3-1.5-5.7-2.4-8
	C59.8,186.4,57.9,184.2,57,181.7z"/>
<path class="st1" d="M234.6,168.7"/>
<path class="st1" d="M234.6,168.7"/>
<path class="st2" d="M427.2,377.7c-1,0-2,0-3-0.1c-4.1-0.3-7.5-2.1-9.6-5.2c-0.1-0.1-0.3-0.2-0.4-0.2c-1.9,0.2-3.9,0.3-5.7,0.3
	c0,0,0,0,0,0c-2.6,0-10.2,0-14.3-5.9c-2.3-3.2-2.8-7.3-1.4-11.3c2.2-6.1,6.7-10.9,10.7-15.1c2.9-3,6.1-6.4,6.6-8.6
	c0.3-1.2,0.5-2.3,0.8-3.4c1-4.5,2-8.8,1.6-10.4l-0.1-0.5c-0.1-0.6-0.5-2.2-0.9-3.3c0-0.1-0.1-0.2-0.2-0.2c-9.1-6.8-10.6-13-9.9-22.3
	c0-0.1,0-0.1,0-0.2c-1.1-3.1-8.5-9.9-12.4-13.7c-1.6-1.5-3.2-3-4.7-4.4c-0.1-0.1-0.3-0.2-0.4-0.1c-0.5,0.1-0.9,0.2-1.3,0.4
	c-6.7,1.8-18,4.8-31.2,4.8c-0.4,0-0.8,0-1.3,0c-7.1-0.1-15.5-2.1-23.7-4.1c-3.2-0.8-6.7-1.6-9.6-2.2c-0.3-0.1-0.5,0.2-0.5,0.5
	c0.3,10.6-0.1,21.6-0.3,30.8c-0.2,7.8-0.5,17.5-0.1,20.2c0,0,0,0.1,0,0.1c0.5,1.4,1,2.7,1.4,3.9c4.9,13.5,8.1,22.5,3.2,32.4
	c-6.5,13.2-24.8,14.6-32.3,14.6c-8.5,0-18.8-1.4-23.1-7.8c-0.1-0.1-0.2-0.2-0.3-0.2c-1.6-0.3-3.2-0.7-4.6-1.3
	c-0.3-0.1-0.6-0.3-0.9-0.4c-2.8-1.2-10.2-4.3-9-14.7c0.8-6.9,5.9-10,8.6-11.7c1.2-0.8,2.3-1.4,3.3-2.4c1.2-1.1,3.8-5.1,3.1-18.4
	c-0.5-10.8-2.9-23.7-5.3-36.3l-0.5-2.5c-0.2-0.1-0.5-0.2-0.7-0.3c-3.1-1.1-10.3-3.7-12.4-12.6c-1.1-4.6-0.9-7.4-0.5-10
	c0.2-1.5,0.4-2.8-0.6-7.3c-0.4-2.2-1.3-4.3-2.2-6.5c-1.3-3.2-2.8-6.9-3.3-11.3c-0.5-5.2,0.8-8.8,1.6-11.2c0.5-1.3,0.6-1.7,0.6-2.1
	c-0.2-11.2-3.6-19.5-10.2-24.7c-0.8-0.6-1.5-1.1-2.3-1.6c-0.2-0.1-0.4-0.1-0.6,0.1c-1.1,1.3-2.4,2.7-4,3.8c-2.7,2-6.3,3.2-9.1,3.9
	c-0.3,0.5-0.4,0.8-0.7,1.2c0.4,1.5,0.7,3.3,0.4,5.3c-0.9,6.8-7.1,11.8-16.6,13.2c-0.5,0.1-2.3,0.3-4.6,0.3c-8,0-14.4-2.8-17.9-8
	c-4.7-6.8-2.2-13.3-0.5-17.6c1.2-3.1,2.6-6.7,2.7-12.1c0-1.6,0-3-0.1-4.5c-0.2-4-0.5-8.5,2.2-14.3c0.8-1.7,1.7-3.2,2.5-4.5
	c0.1-0.1,0.1-0.2,0.1-0.3c-0.3-2.6,0.3-5,0.7-6.6c0-0.1,0-0.1,0-0.2c-0.1-0.3-0.2-0.9-0.6-1.7c-1.6-3.2-1.4-6.9,0.5-10
	c1.7-2.7,4.5-4.5,7.7-4.8c0.1,0,0.2-0.1,0.3-0.1c2.5-2.8,6.4-4.1,10.3-3.2c1.6,0.4,3.1,1.2,4.4,2.2c0.7,0.6,2.2,1.6,3.6,2.4
	c0.9,0.6,1.9,1.3,3,2c0.1,0.1,0.2,0.1,0.4,0.1c0.4-0.1,0.8-0.2,1.2-0.3c4.9-1.2,12.4-3.1,20.3-3.4c0.6,0,1.2,0,1.8,0
	c26.6,0,59.3,22.3,72.2,36.3c0.1,0.1,0.1,0.1,0.2,0.1c1.3,0.4,3,0.9,5.1,1.8c6.9,2.8,10.3,4.8,13.7,7.4c3.8,2.9,7.4,3.7,17.4,5.6
	c4,0.8,7.8,1.1,11.7,1.1c6.6,0,12.6-1.1,18.9-2.2c6.8-1.2,13.9-2.5,22-2.5c2.2,0,4.5,0.1,6.7,0.3c14.7,1.3,23.4,4.2,32.2,8.7
	c0.1,0.1,0.2,0.1,0.4,0c1.5-0.5,3.3-1.1,5.6-1.3c0.9-0.1,1.9-0.1,2.8-0.1c22.6,0,40.6,20,47.2,28.6c23.6,30.4,15.9,77.1,10.9,108
	c-0.9,5.7-1.7,10.6-2.2,14.5c-0.8,6.4-5.4,14.1-23.3,14.1c-4,0-8-0.3-10.7-0.6c-0.3,0-0.6-0.1-0.9-0.1c-0.5,3.7-2.1,7.2-4.7,10.3
	C454.5,373.6,439.1,377.7,427.2,377.7z M443.1,265.1c0,0,0,0.1,0,0.2c0,1.9,0.2,3.8,1.9,6.1c0.2,0.3,0.8,0.2,0.8-0.2
	c0.7-3.6,1.2-7.2,1.5-10.9c0-0.5-0.6-0.7-0.9-0.3c-0.7,1.1-1.4,2.1-2,2.9C444,263.6,443.3,264.7,443.1,265.1L443.1,265.1z"/>
<path class="st2" d="M210.6,148.4c1.4,1.1,12.7-3.7,24.8-4.1c24-0.9,57.2,22.2,67.7,34.7c0.7,0.8,2.9,1,7.5,2.8
	c6,2.4,8.6,4,11.5,6.2c5.8,4.4,11.5,5.5,21.5,7.4c24.7,4.8,38.4-5,60.4-3.1c14.3,1.2,21.9,4,31.2,9c2.6,1.4,5-1.3,8.6-1.6
	c20-1.5,37.6,19.6,41.5,24.6c25.1,32.3,9.7,89.8,6.7,115.3c-0.8,6.6-15.1,5.6-23.1,4.8c-10.1-1-15.1-26-15.6-28.9
	c-5.9-31.1,9.5-45.3,2.3-75.9c-2.4-10.4-8.9-19-11.8-22.5c-0.4-0.5-1.2-0.1-1.1,0.5c0.9,6.3,4.1,17.7-2.3,32.9
	c-3,7.1-7.1,8.9-7.1,14.8c0,7.3,3,12.7,11.1,18.9c7.6,5.8-0.1,18.3,5.4,35.6c5.2,16.5,6,22,7.4,30.5c1.9,11.3-18.4,18.2-32.2,17.3
	c-5.5-0.3,0.7-7.5,0.7-7.5s-26.1,6.3-23.4-1.5c3.1-8.8,15.6-15.6,17.6-24.8c1.8-8.2,3.4-13.7,2.4-18.2c-0.5-2.1-1.6-7.5-3.7-8.9
	c-7.2-5-7.7-7.6-7.1-15c0.7-8.6-15.3-20.2-23.5-29c-1.8-1.9-17.2,5.9-37.7,5.6c-15.5-0.2-44.9-12.9-44.3-3.7
	c1.6,24.6-1.6,56.2,0.4,62c5.5,15.6,8.5,22.2,5.2,29c-6,12.3-37.1,10-38.4,5.3c-0.7-2.5,9.2-7.6,9.2-7.6s-11.7,5.8-18.2,2.9
	c-3.2-1.4-4.4-1.4-4-4.8c0.4-3.6,4.5-4,8.9-8.2c11.1-10.7,5-40.3,0.2-66.8c-1.8-9.5-11.2-5-13.1-12.8c-1.7-7.2,1.3-5.9-1.1-17
	c-1.4-6.5-4.7-11.2-5.3-16.8c-0.6-5.4,2.3-7.6,2.2-12.4c-0.6-34.4-27.4-38.7-27.4-38.7s-1.2,5.4-5.5,8.6c-2.7,2-8.5,2.9-8.5,2.9
	s-6.8,6.4-6.7,8.3c0.1,2.9,2.2,3.6,1.9,6.1c-0.3,2.7-5.4,4.3-8.2,4.7c-0.6,0.1-9.6,1.3-12.9-3.5c-3.4-4.9,3.6-9.5,3.9-23.9
	c0.2-6.6-1.2-9.7,1.2-14.9c2-4.4,5.4-7.4,4.7-8.2c-0.9-1.1-1.9-0.7-0.8-5.1c0.8-3.1-0.4-6.5-1.4-8.4c-0.2-0.3,0.3-0.7,0.5-0.4
	c2.2,1.9,6.2,4.9,7.5,4.2c1.1-0.7-0.2-4.5-1.2-7c-0.2-0.6,0.4-1,0.9-0.7C202.5,143.1,207.1,145.7,210.6,148.4z"/>
<path class="st0" d="M263.2,434.2c-6.9,0-12.6-2.2-16.4-6.5c-6.8-7.6-2.9-16.8-1.3-20.7c3.5-8.2,14.5-8.9,17.8-8.9
	c1.7,0,3.2,0.2,4.4,0.5c8.4,2.4,13.8,7,14.9,12.7c0,0,0,0.1,0,0.1c0.7,1.4,1.7,3.4,2,6.1c0.7,6.2-3.1,13.7-15.8,16
	C267.9,433.9,265.7,434.2,263.2,434.2z"/>
<path class="st0" d="M254.7,410.9c1-2.4,8.4-3.2,10.4-2.6c5.1,1.4,7.9,3.9,7.9,5.5c0,1.2,1.7,3,1.9,5c0.3,2.9-4.2,4.5-7.7,5.2
	c-2.3,0.4-9.3,1.2-12.9-2.8C252.4,419.1,252.3,416.6,254.7,410.9z"/>
<path class="st0" d="M313.3,435.6c-6.9,0-12.6-2.2-16.4-6.5c-6.8-7.6-2.9-16.8-1.3-20.7c3.5-8.2,14.5-8.9,17.8-8.9
	c1.7,0,3.2,0.2,4.4,0.5c8.4,2.4,13.8,7,14.9,12.7c0,0,0,0.1,0,0.1c0.7,1.4,1.7,3.4,2,6.1c0.7,6.2-3.1,13.7-15.8,16
	C318,435.3,315.8,435.6,313.3,435.6z"/>
<path class="st0" d="M304.8,412.3c1-2.4,8.4-3.2,10.4-2.6c5.1,1.4,7.9,3.9,7.9,5.5c0,1.2,1.7,3,1.9,5c0.3,2.9-4.2,4.5-7.7,5.2
	c-2.3,0.4-9.3,1.2-12.9-2.8C302.5,420.5,302.4,418,304.8,412.3z"/>
</svg>
