<?xml version="1.0" encoding="utf-8"?>
<!-- Generator: Adobe Illustrator 26.1.0, SVG Export Plug-In . SVG Version: 6.00 Build 0)  -->
<svg version="1.1" id="Layer_1" xmlns="http://www.w3.org/2000/svg" xmlns:xlink="http://www.w3.org/1999/xlink" x="0px" y="0px"
	 viewBox="0 0 566.9 566.9" style="enable-background:new 0 0 566.9 566.9;" xml:space="preserve">
<style type="text/css">
	.st0{fill:none;stroke:#000000;stroke-miterlimit:10;}
	.st1{fill:none;stroke:#AE4C9C;stroke-miterlimit:10;}
	.st2{fill:none;stroke:#47489E;stroke-miterlimit:10;}
	.st3{fill:none;stroke:#62BB46;stroke-miterlimit:10;}
	.st4{fill:none;stroke:#D31E3E;stroke-miterlimit:10;}
	.st5{fill:none;stroke:#454EA1;stroke-miterlimit:10;}
	.st6{fill:none;stroke:#E97F24;stroke-miterlimit:10;}
	.st7{fill:none;stroke:#1D1752;stroke-miterlimit:10;}
</style>
<path class="st0" d="M219.7,175.1c-6,0-11.1-1.4-15.6-4.2c-7.4-4.7-10.4-10.5-11.6-13.9c-3.2,1.9-9.8,5-20.1,7.3
	c-5.7,1.2-11,1.9-16,1.9c0,0,0,0,0,0c-11.3,0-20.9-3.3-28.6-9.7l-0.3-0.2c-2.4-2-8-6.6-8.4-16.6c-0.3-7.2,3.2-16.2,6.7-21
	c4.8-6.7,9.5-10.9,12.2-13.1c-2-1.5-4.6-4-6.5-7.7c-2.6-5-3.2-12.9,1-19.2l0.1-0.2l0.2-0.1c3.9-3.8,8.5-5.5,8.7-5.6l3.2-1.2
	l-0.6,3.4c-0.2,1.1-0.3,4,0.7,5c0.3-0.7,0.6-1.8,0.8-2.6c1.1-4,2.7-9.9,8.1-10.6c0.2-2.4,0.5-6.7,0.6-10l0-0.2
	c0.3-11.1,0.7-15,3.7-15c0.3,0,0.6,0.1,0.9,0.2c7.2,2.9,12.5,14.6,14.3,19c2.3-0.6,6.3-1.4,8.5-1.4c0.2,0,0.3,0,0.5,0
	c5.5,0.4,6.5,0.9,8.7,2.3l0.4,0.2c0.9,0.6,1.7,1.3,2.3,2c1.1-1,2.5-1.9,3.7-1.9c0.1,0,0.3,0,0.4,0c0.6,0.1,2.1,0.3,3.4,4.1
	c1.1-0.2,2.5-0.3,4.3-0.3c2.9,0,6,0.4,9.3,1.2c18.2,4.3,24.8,27.4,26.3,34.4c3.6,16,8.4,26.1,12.7,28c1.3,0.6,3.8,0.9,5,0.8
	c1.4-0.2,4.8-2.2,4.8-2.2l-1.5,4.9c-0.1,0.4-2,9.6-5.3,14.3c-2.8,4.1-9,9.2-10.7,10.6c-0.8,2.2-2.5,7.2-3.6,8.7
	c-1,1.4-4.9,6.2-10.9,7.4C227.2,174.6,223.3,175.1,219.7,175.1z"/>
<path class="st0" d="M141.7,105.6c0,0-6.8,4.2-14.1,14.3c-3.3,4.6-6.6,13-6.3,19.7c0.4,9.5,5.7,13.5,7.9,15.4
	c12.2,10.2,27.8,10.7,42.9,7.4c15.1-3.3,21.8-8.5,21.8-8.5s1.1,8.8,11.4,15.3c7.1,4.5,15.5,4.7,26.1,2.5c4.3-0.9,7.8-4,9.7-6.7
	c1.1-1.5,3.5-8.7,3.5-8.7s7.7-6.1,10.8-10.6c3.1-4.4,5-13.6,5-13.6s-3,1.1-7.1-0.7c-7.1-3.1-12-21.9-13.8-29.9
	c-2.9-12.8-10.6-29.5-24.9-32.9c-9.7-2.3-14.6-0.4-14.6-0.4s-1.1-4.3-2.3-4.5c-1.3-0.2-4,2.9-4,2.9s-1.4-2.1-3.3-3.3
	c-2.2-1.4-2.6-1.9-8.2-2.2c-2.5-0.2-10.1,1.8-10.1,1.8s-5.8-16.3-13.8-19.5c-1.6-0.6-1.8,7.4-1.9,13.3c-0.1,4.9-0.8,11.9-0.8,11.9
	c-8.7-0.9-7.3,14.1-10.5,13.6c-4-0.7-2.9-7.6-2.9-7.6s-4.4,1.7-8.1,5.2c-3.5,5.3-3.4,12.3-0.9,17.2
	C136.5,103.1,141.7,105.6,141.7,105.6z"/>
<path class="st1" d="M312,521.8c-7.3,0-13.7-1.8-17.6-4.8c-6.9-5.5-7.6-7.3-9.5-11.8c-0.4-1-0.9-2.2-1.5-3.6
	c-2.4-5.2-3.9-19.6,1.3-30.1c6.3-12.5,7-16,7.2-22.1c0.2-5-0.7-5.9-2.5-7.4c-0.4-0.3-0.8-0.7-1.2-1.1l-0.9-0.9l0.5-1.3
	c0.1-0.2,0.2-0.5,2.4-3.4c2.4-3.3,2.6-3.5,3.7-3.5h0.2l0.2,0c1.8,0.3,6,3.7,7.3,5.3c0.7,0.9,1.3,1.6,1.9,2.4
	c2.7,3.3,4.8,5.9,5.6,10.3c1.7,9.3,1.4,16.2,0.9,22.5c-0.3,4-0.5,6.7-0.8,9.3c-0.3,3.6-0.3,7-0.7,13.7c-0.5,7.3,1.8,10.1,5.7,12.2
	c3,1.6,4.9,2,7.2,1.7c2.9-0.4,4.3-1.1,5.5-1.7c5-2.5,9.4-6.5,10.7-7.8c0.5-0.5,1.3-0.6,1.9-0.3l-1.9,5.3c-0.2,0.6-2.3,6.3-3.5,8.1
	c0,0-0.1,0.1-0.1,0.2c-0.5,1-1.5,3-5.9,5.5c-2.8,1.6-7.8,2.8-13.3,3.1C314,521.8,313,521.8,312,521.8z"/>
<path class="st1" d="M293.9,433.8c-0.1,0-4.3,5.6-4.2,5.7c2.4,2.4,4.5,2.9,4.2,10c-0.3,6.3-1,10-7.4,22.9c-5.1,10.3-3.3,24-1.3,28.4
	c3.4,7.4,2.5,8.3,10.5,14.7c3.2,2.5,9.7,4.9,19.1,4.3c5-0.3,9.7-1.3,12.4-2.9c4.4-2.5,4.8-4.3,5.2-5c1.1-1.8,3.3-7.8,3.3-7.8
	s-3.2,4.1-10.7,7.1c-4.5,1.8-8.9,0.6-13.3-1.7c-5.1-2.7-6.1-7.2-5.6-14.4c0.8-11.5,1.1-13.4,1.9-22.9c0.5-6.5,0.7-13.1-0.9-22
	c-0.9-4.8-3.4-7.1-7.2-11.8C298.9,436.9,295,434,293.9,433.8z"/>
<path class="st2" d="M200.1,525.7c-1.1,0-2.2-0.1-3.2-0.3c-5.2-1.1-8.4-2.8-10.1-5.4c-3.2-4.8-3.4-7-2.8-14.4
	c0.3-3.8,0.6-7.2,0.8-10.3c0.5-6.5,1-11.6,1.2-16.6c0.8-15.4-1.3-19.3-4.7-23.4c-0.5-0.7-1-1.3-1.5-1.9c-1.9-2.5-3.1-4.1-7.4-6.1
	l-1.6-0.7l0.5-1.7c1.1-3.7-0.1-7.4-0.1-7.4l-0.8-2.6c0,0,2.7,0,2.7,0c3.1,0,10.3,0,19.3,8.7c6.8,6.6,9.8,17.4,9.2,24.8
	c-0.3,4.6-1,8.1-1.6,11.9c-0.7,4.2-1.4,8.5-1.9,14.5c-0.4,6.4,2.5,11.2,5.5,15.1c2.2,2.8,5.9,3.4,8.6,3.4c1.7,0,2.9-0.2,2.9-0.2
	l5.6-1.1l-3.7,4.4C210.4,524,204.2,525.7,200.1,525.7C200.1,525.7,200.1,525.7,200.1,525.7z"/>
<path class="st2" d="M173.2,445.4c5.9,2.7,6.8,5,9.6,8.5c4,4.9,6,9.4,5.1,24.8c-0.4,7.5-1.2,15.5-2.1,26.9c-0.6,7-0.4,8.8,2.5,13.1
	c1.5,2.3,4.5,3.6,8.9,4.6c3.2,0.7,10.3,1,18.4-8.5c0,0-9.1,1.9-13.5-3.9c-3-3.9-6.4-9.2-5.9-16.4c0.8-11.5,2.7-16.9,3.5-26.4
	c0.5-6.5-2.1-16.9-8.6-23.2c-8-7.8-14.2-8.1-18-8.1C173.1,436.8,174.5,441,173.2,445.4z"/>
<path class="st3" d="M174.9,384.1c-7.7,0-11.7-4.8-13.4-7.6c-2.5-4.2-4.8-9.5-3.9-19.5c0.6-6.3,1.4-10.3,2.1-13.6
	c0.8-3.9,1.3-6.4,1-10.5l-0.1-1.1c-0.3-4.3-0.7-8.7-6-16c-8.3-9.6-16-9.7-18.6-9.8l-1.7,0l-0.2-1.7c-0.5-3.5-1.3-7.8-1.7-8.6
	c-0.4-0.7-0.3-1.6,0.1-2.3c0.3-0.5,1.2-2,7.1-2c5.8,0,14.4,1.5,19.3,5.8c10.9,9.6,13.6,18,15.7,26.6c2.7,11,5.2,15.1,7.9,21.7
	c2.8,6.9,5.5,9.7,9.3,9.7c1.2,0,5.8-1.7,5.8-1.7s-0.5,3.3-0.8,4.5c-0.1,0.4-1.8,9.7-7.4,16.7c-4.1,5.1-9.1,8.7-10.5,8.9
	C177.6,383.9,176.2,384.1,174.9,384.1z"/>
<path class="st3" d="M281.3,335c-5,0-5.9-2.4-6.3-4.8c-0.9-5.6,0.1-11.2,2.8-15.2c2.1-3.2,7.2-8,7.4-8.2l1.2-1.1l1.3,0.9
	c0.2,0.1,4.7,3.4,3.9,11.8c-0.4,3.9-0.8,6.9-2.1,9.9l-0.1,0.3C288.6,330.3,286.6,335,281.3,335z"/>
<path class="st3" d="M281.3,333c-3.8,0-4-1.4-4.3-3.2c-1-5.6,0.4-10.7,2.5-13.7c2.1-3.1,7.1-7.9,7.1-7.9s3.8,2.7,3,10
	c-0.4,3.7-0.7,6.5-2,9.3C286.9,329.1,285.5,333,281.3,333z"/>
<path class="st4" d="M343.9,426.7l-0.4-0.8c-0.6-0.6-2.7-2.3-4.9-2.3c-0.8,0-1.6,0.2-2.3,0.7l-2.6,1.8l-0.5-3.1
	c-0.4-2.2-1.5-8.3-2.3-10.2c-0.2-0.6-0.2-1.3,0.1-1.9c0.7-1.2,2.3-2,6.6-3c1.4-0.3,3.4-0.5,5.4-0.5c2.2,0,5.2,0.2,7.1,1.3
	c0.1,0,5.8,3.6,6,5.9c0.1,0.7-0.2,1.4-0.8,1.8c-3.1,2.6-6.1,6.3-7.7,8.3c-1.3,1.6-1.7,2.1-2.7,2.1H343.9z"/>
<path class="st4" d="M345.1,424.7c0.1,0.2,4.5-6,9.2-9.9c0.5-0.4-3.3-3.5-5-4.4c-2.5-1.4-8.5-1.2-11.2-0.6c-1.8,0.4-5.7,1.4-5.3,2.3
	c1,2.5,2.4,10.6,2.4,10.6C339.9,419.4,345,424.6,345.1,424.7z"/>
<path class="st5" d="M266.7,397.5c-3,0-6.7-0.8-11.3-2.3c-2.6-0.9-7.8-4-10.1-6.2c-4.9-4.4-6.8-7.2-7.8-11.6
	c-2.2-9.3,1.4-15.5,5.1-17.9c1.8-1.2,5.9-3.3,6-3.4l3.7-1.9l-0.8,4c-0.3,1.5-0.4,4,0.4,5c0.1,0.1,0.2,0.2,0.4,0.3
	c0.2-0.5,0.5-1.6,0.6-2.4c0.6-2.9,1.4-6.8,4.7-9.6c1-0.9,3.7-1.5,5-1.5c0.4,0,0.7,0,1,0.1c2.4,0.8,2,3.5,1.6,6.3
	c-0.3,1.9-0.6,4.3-0.4,6.5l0,0.4c0.2,2.3,0.4,4.7,6.8,5.3c0.4,0,0.7,0,1.1,0c4.3,0,7.6-2.3,7.6-5.3c0-0.4,0-0.8,0-1.3
	c-0.1-2.6-0.1-4.4,0.6-5.5c0.7-1.1,2.2-1.7,4-1.7c2.3,0,5.8,1,8.3,3.8l1.1,1.2l-1,1.3c0,0-2.1,2.9-2.4,7.5c-0.2,3.1,0.2,6,1.1,7.7
	l0.4,0.8l-0.3,0.8c0,0.1-0.9,2.6-1.3,3.5c-2.5,6.2-5.6,11.6-19.1,15.5C270.5,397.1,268.9,397.5,266.7,397.5z"/>
<path class="st5" d="M246.6,387.5c-4.7-4.3-6.3-6.7-7.2-10.6c-1.9-7.9,0.8-13.5,4.3-15.8c1.7-1.1,5.9-3.3,5.9-3.3s-1.5,7.4,2.9,7.6
	c3.4,0.1,1.2-8,6.5-12.5c0.6-0.5,3.4-1.3,4-1c1.5,0.5-0.7,5.9-0.2,11.1c0.2,2.5,0.1,6.8,8.6,7.5c5.8,0.5,10.8-2.5,10.8-7.2
	c0-1.5-0.4-4.8,0.3-5.8c1-1.6,6.2-1,9.2,2.3c0,0-2.4,3.2-2.8,8.5c-0.2,3,0.1,6.4,1.3,8.7c0,0-0.9,2.6-1.2,3.4
	c-2.1,5.3-4.7,10.5-17.8,14.3c-2.6,0.8-6.1,1.7-15.2-1.5C253.7,392.5,248.8,389.5,246.6,387.5z"/>
<path class="st6" d="M256.1,258c-3.5,0-8.3-1-10.4-4c-2-2.8-1.7-7.6-1.3-12.7c0.1-1,0.2-2.1,0.2-3.1c0.3-6.1,0.4-11.1,0.5-15.1
	c0.1-8.9,0.2-11.9,2.9-12.5c0.2,0,0.4-0.1,0.6-0.1c3.5,0,10.2,6.8,14.2,16.7c3.5,8.6,5,16.8,4.4,23.6c-0.3,2.6-2,4.5-6,6.3
	C259.4,257.8,257.5,258,256.1,258C256.1,258,256.1,258,256.1,258z"/>
<path class="st6" d="M248.3,212.5c-1.9,0.4-0.9,9.4-1.8,25.8c-0.3,5.7-1.3,11.9,0.7,14.5c2.2,3,9.6,4,13,2.4
	c4.3-1.9,4.8-3.4,4.9-4.7c0.7-6.7-0.9-14.6-4.2-22.7C256.7,217.6,250.2,212.1,248.3,212.5z"/>
<path class="st6" d="M398.7,360.5c-0.5,0-1,0-1.5,0c-16.6-0.4-23.7-6.7-27.4-10c-0.5-0.4-0.9-0.8-1.3-1.1c-2.6-2.1-7-8.1-7-17
	c0-3.9,1.5-11.8,5.5-17.7c6.3-9.3,15.4-16.2,15.7-16.4l1.3-1l1.2,1.1c0.1,0.1,6.5,5.9,15.8,5.9c0.5,0,1.1,0,1.6-0.1
	c10.5-0.8,19.7-8.5,20.9-17.7l0.5-3.5l2.7,2.2c0,0,0.6,0.4,1.7,0.4c0.5,0,1-0.1,1.5-0.3c1.4-0.5,4.3-4.4,4.7-9.9
	c0-0.6,0.1-1.2,0.2-1.9c0.2-2,0.5-4.1-0.2-6.1c-0.5-1.6-1.2-2.3-1.7-2.8c-0.5-0.4-1.2-1.2-1-2.4c0.2-1.1,1.1-1.7,1.6-1.9
	c0.1-0.1,0.4-0.4,0.7-0.6c1.1-1,2.8-2.7,5-3.7c0.3-0.2,0.7-0.2,1-0.2c1.9,0,2.9,1.7,4.3,6.9c0.8,3,1.5,6.3,1.7,8.1l0.1,0.8
	c0.6,4.1,1,7.3-0.6,11.5c-0.3,0.9-1.3,2.2-2.2,3.3c2,2.1,4.4,6.8,2.7,17l0,0.1l0,0.1c-0.7,2.2-1.7,4.5-2.9,7.2
	c-2.8,6.2-5,13.5-6,24.1c-0.7,8.1-0.1,9.8,0.6,10.9c0.9,1.3,1.2,2.7,1.2,2.7l-1.9,1.2C436.3,350.2,418.8,360.5,398.7,360.5z"/>
<path class="st6" d="M383.9,299.7c0,0-9.1,6.9-15.3,16c-3.7,5.4-5.1,12.8-5.1,16.6c0,8.6,4.3,13.9,6.3,15.5
	c3.4,2.7,9.4,10.2,27.5,10.7C417.7,359,436,348,436,348s-3-3.6-2.2-12.8c1.4-15.6,8.1-25.2,10.3-32.1c2.4-14-3.6-16.3-3.6-16.3
	s2.8-3,3.3-4.3c1.5-4,1-6.9,0.4-11.3c-0.5-3.4-2.7-14-4.2-13.3c-2.7,1.3-4.8,3.9-5.5,4.2c-1.7,0.9,0.7,0.7,2.1,4.7
	c1,3,0.3,6.2,0.1,8.7c-0.4,6.1-3.6,10.7-6,11.6c-3.1,1.2-5.1-0.4-5.1-0.4c-1.4,10.7-11.9,18.6-22.7,19.4
	C391.6,306.9,383.9,299.7,383.9,299.7z"/>
<path class="st5" d="M325.6,268c-6.3,0-9.5-5-10.3-6.6c-2-3.8-3.1-9.7,0.8-13.9c1.6-1.7,4.6-3.3,6.1-3.5c0.5-0.1,1-0.1,1.5-0.1
	c4.3,0,6.7,1.9,7.5,2.5l0.1,0.1c5.1,3.5,6.6,10,3.8,15.9c-1.7,3.4-4.8,5.4-8.9,5.6C326,268,325.8,268,325.6,268
	C325.6,268,325.6,268,325.6,268z"/>
<path class="st5" d="M317.5,248.8c-3,3.3-2.3,8.3-0.5,11.6c0.6,1.1,3.4,5.8,9,5.5c3.6-0.2,6-1.8,7.2-4.4c2.5-5.1,1.1-10.5-3.1-13.4
	c-0.5-0.3-2.9-2.6-7.8-2.1C321.5,246.1,318.9,247.4,317.5,248.8z"/>
<path class="st6" d="M382.5,160.5c-0.7,0-1.5-0.1-2.2-0.2c-4.2-0.7-6.9-3.2-8.1-4.7l3-2.6c0.9,1,2.8,2.8,5.7,3.3
	c4.3,0.8,7.6-1.8,8.2-2.4l2.6,3C391,157.7,387.4,160.5,382.5,160.5z"/>
<path class="st6" d="M374.2,135.2c-1.1,0.1-2.2,1-2.2,2.1c-0.1,1.3,1.2,2.4,2.6,2.4c1.2,0,2.5-1.1,2.4-2.4
	C376.9,136,375.5,135.1,374.2,135.2z"/>
<path class="st6" d="M421.1,135.9l-1.4-1.2c-1.2-1-2.2-2-3-2.8c-2.7-2.6-4.2-4-7.9-4.1c0,0,0,0,0,0c-1.3,0-4.7,0.5-8.5,4.7l-3-2.6
	c4.8-5.4,9.6-6,11.4-6c0,0,0,0,0,0c5.3,0,7.8,2.4,10.6,5.2c0.4,0.4,0.9,0.9,1.4,1.3c0.5-0.6,5.2-6.4,5.6-6.5
	c0.9-0.2,2.6,2.7,2.6,2.7c-0.5,1.8-5.9,7.3-6.5,8L421.1,135.9z"/>
<polygon class="st6" points="410.6,124.6 412.9,115.7 417.2,117.7 413.9,125.9 "/>
<polygon class="st6" points="416.5,127.1 420.9,119.5 423.7,122 418.5,129 "/>
<path class="st7" d="M134.2,294.8c0.8,1.6,1.8,9.3,1.8,9.3c4.2,0.1,11.9,1,20.1,10.5c6.2,8.5,6.1,13.5,6.5,18.2
	c0.7,8-1.9,10.9-3.1,24.4c-0.9,10,1.4,14.7,3.6,18.3c2.2,3.7,6.9,8,15.4,6.3c0.6-0.1,5.2-3.2,9.3-8.2c5-6.2,6.3-14.3,6.4-15.5
	c0-0.1-0.1-0.2-0.1-0.2c-3.8,2.2-11-0.9-14.9-11.4c-2.5-6.9-4.1-11.2-6.7-22.3c-2.1-8.7-4.8-16.5-15.1-25.6
	C150.2,292.3,133.1,292.7,134.2,294.8z"/>
</svg>
