<?xml version="1.0" encoding="utf-8"?>
<!-- Generator: Adobe Illustrator 26.1.0, SVG Export Plug-In . SVG Version: 6.00 Build 0)  -->
<svg version="1.1" id="Layer_1" xmlns="http://www.w3.org/2000/svg" xmlns:xlink="http://www.w3.org/1999/xlink" x="0px" y="0px"
	 viewBox="0 0 566.9 566.9" style="enable-background:new 0 0 566.9 566.9;" xml:space="preserve">
<style type="text/css">
	.st0{fill:none;stroke:#E97F24;stroke-miterlimit:10;}
</style>
<path class="st0" d="M265.3,306.1c-0.7,0-1.5-0.1-2.2-0.2c-4.2-0.7-6.9-3.2-8.1-4.7l3-2.6c0.9,1,2.8,2.8,5.7,3.3
	c4.3,0.8,7.6-1.8,8.2-2.4l2.6,3C273.8,303.2,270.3,306.1,265.3,306.1z"/>
<path class="st0" d="M257.1,280.8c-1.1,0.1-2.2,1-2.2,2.1c-0.1,1.3,1.2,2.4,2.6,2.4c1.2,0,2.5-1.1,2.4-2.4
	C259.7,281.6,258.3,280.7,257.1,280.8z"/>
<path class="st0" d="M303.9,281.4l-1.4-1.2c-1.2-1-2.2-2-3-2.8c-2.7-2.6-4.2-4-7.9-4.1c0,0,0,0,0,0c-1.3,0-4.7,0.5-8.5,4.7l-3-2.6
	c4.8-5.4,9.6-6,11.4-6c0,0,0,0,0,0c5.3,0,7.8,2.4,10.6,5.2c0.4,0.4,0.9,0.9,1.4,1.3c0.5-0.6,5.2-6.4,5.6-6.5
	c0.9-0.2,2.6,2.7,2.6,2.7c-0.5,1.8-5.9,7.3-6.5,8L303.9,281.4z"/>
<polygon class="st0" points="293.5,270.2 295.7,261.2 300,263.2 296.7,271.5 "/>
<polygon class="st0" points="299.4,272.7 303.8,265.1 306.5,267.6 301.4,274.6 "/>
</svg>
