<?xml version="1.0" encoding="utf-8"?>
<!-- Generator: Adobe Illustrator 26.1.0, SVG Export Plug-In . SVG Version: 6.00 Build 0)  -->
<svg version="1.1" id="Layer_1" xmlns="http://www.w3.org/2000/svg" xmlns:xlink="http://www.w3.org/1999/xlink" x="0px" y="0px"
	 viewBox="0 0 566.9 566.9" style="enable-background:new 0 0 566.9 566.9;" xml:space="preserve">
<style type="text/css">
	.st0{fill:none;stroke:#000000;stroke-miterlimit:10;}
	.st1{fill:none;stroke:#AE4C9C;stroke-miterlimit:10;}
	.st2{fill:none;stroke:#47489E;stroke-miterlimit:10;}
	.st3{fill:none;stroke:#62BB46;stroke-miterlimit:10;}
	.st4{fill:none;stroke:#D31E3E;stroke-miterlimit:10;}
	.st5{fill:none;stroke:#454EA1;stroke-miterlimit:10;}
	.st6{fill:none;stroke:#E97F24;stroke-miterlimit:10;}
</style>
<path class="st0" d="M219.4,183.1c-7.6,0-14.1-1.8-19.9-5.4c-5-3.1-8.4-6.7-10.8-10.1c-3.9,1.6-8.8,3.2-14.9,4.6
	c-6.2,1.4-12.2,2.1-17.7,2.1c0,0,0,0,0,0c-13.2,0-24.6-3.9-33.7-11.6l-0.2-0.2c-2.9-2.4-10.7-8.9-11.2-22.5c-0.4-9.5,4-20.1,8.2-26
	c2.5-3.5,5-6.4,7.3-8.8c-0.8-1.1-1.5-2.4-2.2-3.7c-4.4-8.7-3.8-19.4,1.5-27.3l0.6-0.9l0.8-0.7c4.9-4.7,10.4-6.9,11.4-7.3l5-1.9
	c0.7-0.8,1.6-1.5,2.5-2.2c0.1-1.6,0.2-3.3,0.2-4.8l0-0.2c0.1-3,0.2-6.5,0.4-9.4c1.1-11.8,7.7-13.5,11.4-13.5c1.4,0,2.8,0.3,4,0.9
	c7.2,3,12.5,10.8,15.7,17.2c1.4-0.2,2.7-0.3,3.8-0.3c0.4,0,0.7,0,1,0c5.7,0.4,8.3,1,11.6,3c1.4-0.4,2.4-0.4,3-0.4c0.5,0,1,0,1.5,0.1
	c2.7,0.4,4.9,1.6,6.7,3.7c3.5,0,7.2,0.5,11.1,1.4c22.7,5.4,30.5,32.3,32.3,40.4c3.5,15.4,7.1,21.7,8.5,23.1c0,0,0.1,0,0.1,0l6.1-2.2
	c4.4-1.6,8.8,2.2,7.8,6.8l-1.5,7.2c-0.4,1.9-2.5,11.4-6.5,17.2c-2.7,4-7.5,8.3-10.5,10.8c-2.3,6.4-3.5,8-4,8.7
	c-3.9,5.4-9.8,9.3-15.8,10.5C227.9,182.6,223.5,183.1,219.4,183.1z"/>
<path class="st0" d="M141.3,105.6c0,0-6.8,4.2-14.1,14.3c-3.3,4.6-6.6,13-6.3,19.7c0.4,9.5,5.7,13.5,7.9,15.4
	c12.2,10.2,27.8,10.7,42.9,7.4c15.1-3.3,21.8-8.5,21.8-8.5s1.1,8.8,11.4,15.3c7.1,4.5,15.5,4.7,26.1,2.5c4.3-0.9,7.8-4,9.7-6.7
	c1.1-1.5,3.5-8.7,3.5-8.7s7.7-6.1,10.8-10.6c3.1-4.4,5-13.6,5-13.6s-3,1.1-7.1-0.7c-7.1-3.1-12-21.9-13.8-29.9
	c-2.9-12.8-10.6-29.5-24.9-32.9c-9.7-2.3-14.6-0.4-14.6-0.4s-1.1-4.3-2.3-4.5c-1.3-0.2-4,2.9-4,2.9s-1.4-2.1-3.3-3.3
	c-2.2-1.4-2.6-1.9-8.2-2.2c-2.5-0.2-10.1,1.8-10.1,1.8s-5.8-16.3-13.8-19.5c-1.6-0.6-1.8,7.4-1.9,13.3c-0.1,4.9-0.8,11.9-0.8,11.9
	c-8.7-0.9-7.3,14.1-10.5,13.6c-4-0.7-2.9-7.6-2.9-7.6s-4.4,1.7-8.1,5.2c-3.5,5.3-3.4,12.3-0.9,17.2
	C136.1,103.1,141.3,105.6,141.3,105.6z"/>
<path class="st1" d="M311.7,529.8c-9.2,0-17.3-2.3-22.6-6.6c-7.7-6.1-9.5-9.2-11.9-15c-0.4-1-0.9-2.1-1.4-3.3
	c-3.3-7.2-5.1-24,1.4-37c6.1-12.2,6.2-14.6,6.4-18.9c0-0.5,0-0.9,0-1.2c-0.4-0.4-0.8-0.8-1.3-1.2l-4.8-4.7l2.5-6.2
	c0.5-1.1,0.9-1.9,3.3-5.1c2.7-3.6,5-6.8,10.1-6.8h1l0.9,0.2c5,1,10.9,6.7,12.1,8.2c0.6,0.8,1.3,1.6,1.8,2.2c3,3.7,6.2,7.5,7.3,13.9
	c1.9,10.3,1.5,18,1,24.5c-0.3,4.1-0.6,6.8-0.8,9.4c-0.3,3.5-0.6,6.9-1.1,13.4c-0.2,3.1,0,4.4,0.1,4.8c0,0,0.1,0.1,0.2,0.1
	c2.2,1.2,3.4,1.4,4.1,1.4c0.3,0,0.5,0,0.8-0.2c4.7-1.9,16.6-7.6,19.8-5.9c2.6,1.5,2.5,7.4,2.4,10.3c-0.1,3.5-1,8-2.3,10.4
	c-1.2,2.5-3.4,5.6-9,8.8c-5.4,3.1-12.8,3.9-16.8,4.2C313.9,529.8,312.8,529.8,311.7,529.8z"/>
<path class="st1" d="M293.6,433.8c-0.1,0-4.3,5.6-4.2,5.7c2.4,2.4,4.5,2.9,4.2,10c-0.3,6.3-1,10-7.4,22.9c-5.1,10.3-3.3,24-1.3,28.4
	c3.4,7.4,2.5,8.3,10.5,14.7c3.2,2.5,9.7,4.9,19.1,4.3c5-0.3,9.7-1.3,12.4-2.9c4.4-2.5,4.8-4.3,5.2-5c1.1-1.8,3.3-7.8,3.3-7.8
	s-3.2,4.1-10.7,7.1c-4.5,1.8-8.9,0.6-13.3-1.7c-5.1-2.7-6.1-7.2-5.6-14.4c0.8-11.5,1.1-13.4,1.9-22.9c0.5-6.5,0.7-13.1-0.9-22
	c-0.9-4.8-3.4-7.1-7.2-11.8C298.5,436.9,294.6,434,293.6,433.8z"/>
<path class="st2" d="M199.7,533.7c-1.7,0-3.3-0.2-4.9-0.5c-4.6-1-11.2-3-15.1-8.8c-4.6-6.9-4.8-11.2-4.1-19.5
	c0.3-3.8,0.6-7.1,0.8-10.3c0.5-6.5,1-11.5,1.2-16.5c0.7-13.4-0.9-15.4-2.9-17.9c-0.6-0.8-1.1-1.5-1.7-2.1c-1.5-2-1.9-2.5-4.3-3.6
	l-1-0.4c-4-1.8-6.1-6.3-4.8-10.5l0.3-1c0.3-0.9,0.1-2.2,0-2.7l-1-2.6c-2-5.2,2-10.7,7.5-10.6l3,0.1c5.9,0,14.8,1.1,24.9,10.9
	c9,8.7,12.3,22.2,11.7,31.1c-0.4,4.9-1,8.8-1.7,12.6c-0.7,4.2-1.4,8.1-1.8,13.7c-0.2,3.5,1.4,6.3,3.8,9.6c0.2,0.1,1,0.4,2.3,0.4
	c0.7,0,1.2-0.1,1.4-0.1l6.2-1.5c7.4-1.7,12.6,7,7.7,12.7l-4.4,5.1C214.2,531.6,205.5,533.7,199.7,533.7L199.7,533.7z"/>
<path class="st2" d="M172.8,445.4c5.9,2.7,6.8,5,9.6,8.5c4,4.9,6,9.4,5.1,24.8c-0.4,7.5-1.2,15.5-2.1,26.9c-0.6,7-0.4,8.8,2.5,13.1
	c1.5,2.3,4.5,3.6,8.9,4.6c3.2,0.7,10.3,1,18.4-8.5c0,0-9.1,1.9-13.5-3.9c-3-3.9-6.4-9.2-5.9-16.4c0.8-11.5,2.7-16.9,3.5-26.4
	c0.5-6.5-2.1-16.9-8.6-23.2c-8-7.8-14.2-8.1-18-8.1C172.7,436.8,174.1,441,172.8,445.4z"/>
<path class="st3" d="M174.6,392.1c-8.5,0-15.9-4.2-20.3-11.5c-3.1-5.1-6.1-12-5-24.4c0.6-6.8,1.5-11.3,2.2-14.5
	c0.7-3.5,1.1-5.3,0.9-8.2c0-0.4-0.1-0.8-0.1-1.2c-0.3-3.6-0.5-6.2-4.1-11.3c-0.1-0.2-0.3-0.4-0.5-0.6c-5.8-6.4-10.3-6.4-12.2-6.5
	l-3.8-0.1c-2.7-0.1-5-2.1-5.4-4.8l-0.5-3.7c-0.3-2.4-0.8-5.1-1.1-6.4c-0.1-0.2-0.1-0.5-0.2-0.7c-1.2-3-0.8-6.4,0.9-9.2
	c3.2-5.1,9.1-5.7,13.9-5.7c3.7,0,16.3,0.6,24.6,7.8c12.6,11.1,15.9,21.3,18.2,30.7c2.6,10.7,3.7,14.6,6.3,20.8c0,0,0,0.1,0,0.1
	c1.2,3,4.8,4.2,7.6,2.7l0.9-0.5c4-2.1,8.7,1.1,8.1,5.6l-1,8.4c-0.1,1.2-1.6,12-8.6,20.7c-2.3,2.9-9.6,10.7-15.1,11.8
	C178.3,391.9,176.4,392.1,174.6,392.1z"/>
<path class="st3" d="M133.9,294.7c0.8,1.6,1.8,9.3,1.8,9.3c4.2,0.1,11.9,1,20.1,10.5c6.2,8.5,6.1,13.5,6.5,18.2
	c0.7,8-1.9,10.9-3.1,24.4c-0.9,10,1.4,14.7,3.6,18.3c2.2,3.7,6.9,8,15.4,6.3c0.6-0.1,5.2-3.2,9.3-8.2c5.4-6.7,6.4-15.6,6.4-15.6
	s-8.5,4.5-15-11.4c-2.8-6.8-4.1-11.2-6.7-22.3c-2.1-8.7-4.8-16.5-15.1-25.6C149.8,292.2,132.8,292.6,133.9,294.7z"/>
<path class="st3" d="M280.9,343c-4.6,0-12.5-1.5-14.2-11.5c-1.3-7.5,0.2-15.4,4-21c2.5-3.8,7.5-8.6,8.5-9.5l0,0
	c3.5-3.3,8.8-3.7,12.7-1l0,0c1.4,1,8.5,6.7,7.2,19.2c-0.4,4.3-1,8.3-2.8,12.4l-0.1,0.2C292.3,341,285.7,343,280.9,343z"/>
<path class="st3" d="M280.9,333c-3.8,0-4-1.4-4.3-3.2c-1-5.6,0.4-10.7,2.5-13.7c2.1-3.1,7.1-7.9,7.1-7.9s3.8,2.7,3,10
	c-0.4,3.7-0.7,6.5-2,9.3C286.6,329.1,285.1,333,280.9,333z"/>
<path class="st4" d="M324.9,424.4c-0.6-3.6-1.5-7.6-1.8-8.7c-1.1-2.7-0.9-5.9,0.5-8.5c2.6-4.9,8-6.2,11.9-7.1c2-0.5,4.7-0.7,7.3-0.7
	c4.6,0,8.3,0.8,11.1,2.4c1.9,1,3.8,2.6,4.6,3.3c1.7,1.5,5,4.2,5.4,8.7c0.4,3.4-1.1,6.8-3.7,9c-2.5,2.1-5.2,5.4-6.5,7
	c-1.6,2-4.1,5-8.9,5h-6l-1-1.8h0c-4.7,3.3-11.2,0.6-12.2-5L324.9,424.4z"/>
<path class="st4" d="M344.7,424.7c0.1,0.2,4.5-6,9.2-9.9c0.5-0.4-3.3-3.5-5-4.4c-2.5-1.4-8.5-1.2-11.2-0.6c-1.8,0.4-5.7,1.4-5.3,2.3
	c1,2.5,2.4,10.6,2.4,10.6C339.5,419.4,344.6,424.6,344.7,424.7z"/>
<path class="st5" d="M266.3,405.5c-4,0-8.4-0.9-13.9-2.8c-3.6-1.2-9.8-5-12.9-7.8c-5.2-4.7-8.6-8.8-10.2-15.7
	c-2.6-11,0.8-21.4,8.6-26.4c2-1.3,5.9-3.4,6.7-3.8l8.4-4.3l0,0c0.7-0.4,1.4-0.7,2.2-0.7c9.4-0.2,10.1-1.8,17.9,9.2
	c0.2-0.4,0.4-0.8,0.7-1.2c2.2-3.4,6.1-5.3,10.7-5.3c5.2,0,10.7,2.4,14.3,6.4l0.6,0.7c3.1,3.4,3.1,8.5,0.1,11.9l0,0
	c-0.2,0.4-0.8,1.6-0.9,3.4c-0.1,1.8,0.1,3,0.2,3.4l2,3.7l-1.4,4.1c-0.2,0.7-1,2.9-1.4,3.9c-2.9,7.2-7.4,15.3-24.3,20.2
	C271.7,404.9,269.4,405.5,266.3,405.5z"/>
<path class="st5" d="M246.2,387.5c-4.7-4.3-6.3-6.7-7.2-10.6c-1.9-7.9,0.8-13.5,4.3-15.8c1.7-1.1,5.9-3.3,5.9-3.3s-1.5,7.4,2.9,7.6
	c3.4,0.1,1.2-8,6.5-12.5c0.6-0.5,3.4-1.3,4-1c1.5,0.5-0.7,5.9-0.2,11.1c0.2,2.5,0.1,6.8,8.6,7.5c5.8,0.5,10.8-2.5,10.8-7.2
	c0-1.5-0.4-4.8,0.3-5.8c1-1.6,6.2-1,9.2,2.3c0,0-2.4,3.2-2.8,8.5c-0.2,3,0.1,6.4,1.3,8.7c0,0-0.9,2.6-1.2,3.4
	c-2.1,5.3-4.7,10.5-17.8,14.3c-2.6,0.8-6.1,1.7-15.2-1.5C253.3,392.5,248.4,389.5,246.2,387.5z"/>
<path class="st6" d="M255.7,266c-2.7,0-12-0.5-16.9-7.2c-3.8-5.2-3.3-11.7-2.8-18c0.1-1,0.1-2,0.2-3c0.3-5.9,0.4-10.9,0.4-14.8
	c0.1-3.7,0.1-6.3,0.3-8.5c0.8-8.7,6-11.1,9-11.7c0.7-0.1,1.5-0.2,2.2-0.2c8.8,0,17.4,11.2,21.6,21.6c4,9.8,5.7,19.3,4.9,27.5
	c-0.8,8.3-8.3,11.7-10.7,12.8C261.6,265.4,258.8,266,255.7,266C255.7,266,255.7,266,255.7,266z"/>
<path class="st6" d="M248,212.5c-1.9,0.4-0.9,9.4-1.8,25.8c-0.3,5.7-1.3,11.9,0.7,14.5c2.2,3,9.6,4,13,2.4c4.3-1.9,4.8-3.4,4.9-4.7
	c0.7-6.7-0.9-14.6-4.2-22.7C256.3,217.6,249.8,212.1,248,212.5z"/>
<path class="st6" d="M383.5,299.7c0,0-9.1,6.9-15.3,16c-3.7,5.4-5.1,12.8-5.1,16.6c0,8.6,4.3,13.9,6.3,15.5
	c3.4,2.7,9.4,10.2,27.5,10.7c20.4,0.5,38.7-10.4,38.7-10.4s-3-3.6-2.2-12.8c1.4-15.6,8.1-25.2,10.3-32.1c2.4-14-3.6-16.3-3.6-16.3
	s2.8-3,3.3-4.3c1.5-4,1-6.9,0.4-11.3c-0.5-3.4-2.7-14-4.2-13.3c-2.7,1.3-4.8,3.9-5.5,4.2c-1.7,0.9,0.7,0.7,2.1,4.7
	c1,3,0.3,6.2,0.1,8.7c-0.4,6.1-3.6,10.7-6,11.6c-3.1,1.2-5.1-0.4-5.1-0.4c-1.4,10.7-11.9,18.6-22.7,19.4
	C391.2,306.9,383.5,299.7,383.5,299.7z"/>
<path class="st5" d="M325.2,276c-7.2,0-13.7-4-17.4-10.8c-4.3-8-3.6-17.1,1.9-23.1c2.8-3.1,7.7-5.7,11.3-6.1
	c0.8-0.1,1.6-0.1,2.3-0.1c4.6,0,8.8,1.4,12.4,4.1c8.3,5.8,10.9,16.4,6.3,25.9c-2.9,6.1-8.7,9.7-15.7,10.1
	C325.9,276,325.6,276,325.2,276z"/>
<path class="st5" d="M317.2,248.8c-3,3.3-2.3,8.3-0.5,11.6c0.6,1.1,3.4,5.8,9,5.5c3.6-0.2,6-1.8,7.2-4.4c2.5-5.1,1.1-10.5-3.1-13.4
	c-0.5-0.3-2.9-2.6-7.8-2.1C321.1,246.1,318.5,247.4,317.2,248.8z"/>
<path class="st6" d="M398.3,181c-0.6,0-1.1,0-1.7,0c-19.6-0.5-28.3-8.3-32.6-12.1c-0.4-0.3-0.7-0.6-1-0.9c-4.6-3.7-10-12.1-10-23.3
	c0-4.5,1.5-14.2,6.9-22.2c7-10.3,17.1-18,17.5-18.3l3.9-2.7c1.9-1.3,4.4-1.1,6,0.5l2.9,2.9c0,0,0,0,0,0c0.5,0.5,4.8,3.8,10.3,3.8
	c0.3,0,0.7,0,1,0c6.8-0.5,12.8-5.3,13.5-10.7l1.9-11.9c0.4-2.4,3.2-3.4,5-1.9l3.7,3c0.2,0.2,0.5,0,0.5-0.2c0-0.5,0.1-1.1,0.2-1.7
	c0.1-0.7,0.2-1.8,0.2-2.4c0-0.1,0-0.1-0.1-0.2c-3.1-3.2-3.4-6.6-3-8.9c0.3-1.8,1.2-4.9,4.6-7.2c0,0,0,0,0,0c1.2-1.1,3.2-3.1,6-4.6
	c1.9-1,4-1.6,6.2-1.5c8.1,0.5,10.4,9.1,11.4,12.8c0.9,3.4,1.6,7.1,1.9,9.1l0.1,0.8c0.6,4.6,1.3,9.3-1,15.4c-0.1,0.2-0.1,0.4-0.3,0.7
	c1.7,4.1,2.5,9.9,1.1,18.1l-0.1,0.6l-0.2,0.6c-0.8,2.6-2,5.3-3.3,8.1c-2.7,5.9-5.7,12.7-6.6,22c-0.3,3.5,0.2,5.4,0.4,6
	c0,0,0,0.1,0.1,0.1l4.1,4.9c1.5,1.8,1,4.5-1,5.7l-6.2,3.7C440,169.6,420.7,181,398.3,181z"/>
<path class="st6" d="M383.5,112.2c0,0-9.1,6.9-15.3,16c-3.7,5.4-5.1,12.8-5.1,16.6c0,8.6,4.3,13.9,6.3,15.5
	c3.4,2.7,9.4,10.2,27.5,10.7c20.4,0.5,38.7-10.4,38.7-10.4s-3-3.6-2.2-12.8c1.4-15.6,8.1-25.2,10.3-32.1c2.4-14-3.6-16.3-3.6-16.3
	s2.8-3,3.3-4.3c1.5-4,1-6.9,0.4-11.3c-0.5-3.4-2.7-14-4.2-13.3c-2.7,1.3-4.8,3.9-5.5,4.2c-1.7,0.9,0.7,0.7,2.1,4.7
	c1,3,0.3,6.2,0.1,8.7c-0.4,6.1-3.6,10.7-6,11.6c-3.1,1.2-5.1-0.4-5.1-0.4c-1.4,10.7-11.9,18.6-22.7,19.4
	C391.2,119.4,383.5,112.2,383.5,112.2z"/>
<path class="st6" d="M399.5,368.5c-0.6,0-1.1,0-1.7,0c-19.6-0.5-28.3-8.3-32.6-12.1c-0.4-0.3-0.7-0.6-1-0.9
	c-4.6-3.7-10-12.1-10-23.3c0-4.5,1.5-14.2,6.9-22.2c7-10.3,17.1-18,17.5-18.3l3.9-2.7c1.9-1.3,4.4-1.1,6,0.5l2.9,2.9c0,0,0,0,0,0
	c0.5,0.5,4.8,3.8,10.3,3.8c0.3,0,0.7,0,1,0c6.8-0.5,12.8-5.3,13.5-10.7l1.9-11.9c0.4-2.4,3.2-3.4,5-1.9l3.7,3c0.2,0.2,0.5,0,0.5-0.2
	c0-0.5,0.1-1.1,0.2-1.7c0.1-0.7,0.2-1.8,0.2-2.4c0-0.1,0-0.1-0.1-0.2c-3.1-3.2-3.4-6.6-3-8.9c0.3-1.8,1.2-4.9,4.6-7.2c0,0,0,0,0,0
	c1.2-1.1,3.2-3.1,6-4.6c1.9-1,4-1.6,6.2-1.5c8.1,0.5,10.4,9.1,11.4,12.8c0.9,3.4,1.6,7.1,1.9,9.1l0.1,0.8c0.6,4.6,1.3,9.3-1,15.4
	c-0.1,0.2-0.1,0.4-0.3,0.7c1.7,4.1,2.5,9.9,1.1,18.1l-0.1,0.6l-0.2,0.6c-0.8,2.6-2,5.3-3.3,8.1c-2.7,5.9-5.7,12.7-6.6,22
	c-0.3,3.5,0.2,5.4,0.4,6c0,0,0,0.1,0.1,0.1l4.1,4.9c1.5,1.8,1,4.5-1,5.7l-6.2,3.7C441.1,357.1,421.8,368.5,399.5,368.5z"/>
</svg>
