<?xml version="1.0" encoding="utf-8"?>
<!-- Generator: Adobe Illustrator 26.5.0, SVG Export Plug-In . SVG Version: 6.00 Build 0)  -->
<svg version="1.1" id="Layer_1" xmlns="http://www.w3.org/2000/svg" xmlns:xlink="http://www.w3.org/1999/xlink" x="0px" y="0px"
	 viewBox="0 0 566.93 566.93" style="enable-background:new 0 0 566.93 566.93;" xml:space="preserve">
<style type="text/css">
	.st0{fill:none;stroke:#ED1B53;stroke-miterlimit:10;}
	.st1{fill:none;stroke:#ED174D;stroke-miterlimit:10;}
	.st2{fill:none;stroke:#3BC4E2;stroke-miterlimit:10;}
	.st3{fill:none;stroke:#E97F24;stroke-miterlimit:10;}
	.st4{fill:none;stroke:#63BC48;stroke-miterlimit:10;}
	.st5{fill:none;stroke:#000000;stroke-miterlimit:10;}
</style>
<path class="st0" d="M195.32,135.74l1.28-2.8c1.58-3.47,4.75-8.61,8.27-13.43c6.27-8.57,7.97-8.57,8.89-8.57
	c4.66,0,15.32,15.7,18.22,22.11l1.27,2.81L195.32,135.74z"/>
<path class="st0" d="M198.4,133.77l31.77,0.11c-3.49-7.71-13.58-20.95-16.41-20.95C211.57,112.93,201.64,126.67,198.4,133.77z"/>
<path class="st1" d="M220.58,281.56c-2.84-0.24-6.56-0.36-11.36-0.36c-4.09,0-8.21,0.09-11.52,0.16c-1.88,0.04-3.51,0.07-4.74,0.08
	c-1.91,0-2.12-1.02-3.43-7.68c-0.6-3.06-1.15-6.12-1.15-6.12l-0.42-2.32l38.65-0.24l-0.57,2.45c0,0-0.73,3.14-1.51,6.29
	c-1.68,6.72-1.93,7.76-3.77,7.76h-0.08L220.58,281.56z"/>
<path class="st1" d="M190.32,267.29l33.78-0.21c0,0-2.9,12.54-3.35,12.51c-8.38-0.72-22.23-0.17-27.82-0.13
	C192.51,279.46,190.32,267.29,190.32,267.29z"/>
<path class="st2" d="M282.13,244.7c-2.44,0-2.99-2.68-3.99-7.55c-0.87-4.24-2.06-10.04-4.37-12.76c-3.95-4.67-8.03-5.17-9.6-5.17
	c-0.41,0-0.65,0.04-0.66,0.04l-3.19,0.48l0.99-3.06c0.02-0.06,1.95-5.94,4.39-16.18c1.86-7.81,3-14.5,3.01-14.57l0.5-2.95l2.52,1.61
	c0.2,0.12,0.46,0.28,0.77,0.46c12.53,7.33,18.67,19.03,18.25,34.77C290.36,234.47,285.89,244.7,282.13,244.7z"/>
<path class="st2" d="M270.67,186.25c0,0-1.14,6.73-3.04,14.7c-2.49,10.46-4.44,16.34-4.44,16.34l0,0c0,0,6.25-1.07,12.09,5.81
	c4.61,5.44,4.91,19.61,6.85,19.61c1.43,0,6.22-7.24,6.64-22.97C289.41,195.43,273.59,188.11,270.67,186.25z"/>
<path class="st2" d="M194.31,243.34c-3.77,0-8.23-10.23-8.62-24.9c-0.42-15.74,5.72-27.44,18.25-34.77
	c0.31-0.18,0.57-0.33,0.77-0.46l2.52-1.61l0.5,2.95c0.01,0.07,1.15,6.76,3.01,14.57c2.44,10.24,4.37,16.12,4.39,16.18l1.04,3.14
	l-3.26-0.56c0,0,0,0,0,0c0,0-0.24-0.03-0.64-0.03c-1.57,0-5.65,0.5-9.6,5.17c-2.31,2.73-3.5,8.53-4.37,12.77
	C197.3,240.66,196.75,243.34,194.31,243.34z"/>
<path class="st2" d="M205.77,184.89c0,0,1.14,6.73,3.04,14.7c2.49,10.46,4.44,16.34,4.44,16.34l0,0c0,0-6.25-1.07-12.09,5.81
	c-4.61,5.44-4.91,19.61-6.85,19.61c-1.43,0-6.22-7.24-6.64-22.97C187.03,194.07,202.85,186.75,205.77,184.89z"/>
<path class="st3" d="M253.61,320.38c-1.57-0.12-2.84-1.43-5.08-8.01c-0.29-0.86-0.57-1.69-0.82-2.45l-1.28,1.66l-1.56-1.12
	c-0.35-0.25-3.44-2.67-2.75-9.32c0-0.05,0.01-0.09,0.01-0.14l-0.04,0.04l-1.27-1.8c-0.21-0.29-1.96-3,0.65-6.93
	c1.13-1.71,3.61-3.91,3.88-4.15l0.56-0.5l16.23,0.05l0.58,0.56c0.36,0.35,3.55,3.53,4.61,6.44c0.88,2.41-0.49,4.25-0.65,4.45
	l-1.3,1.64l-0.14-0.13c0.06,0.92,0.07,1.9,0.01,2.89c-0.36,5.41-2.59,6.78-3.26,7.07l-1.37,0.59l-1-1.22
	c-0.29,0.89-0.64,1.91-1.06,3.03l-0.33,0.89c-1.56,4.16-2.42,6.46-4.45,6.46L253.61,320.38z"/>
<path class="st3" d="M246.68,289.65c0,0-2.52,2.22-3.54,3.76c-1.93,2.92-0.68,4.69-0.68,4.69l2.85-2.49c0,0-0.71,0.99-1.2,5.73
	c-0.59,5.69,1.93,7.5,1.93,7.5l2.41-3.13c0,0,0.87,2.81,1.96,6.01c1,2.94,2.45,6.61,3.35,6.67c0.74,0.06,1.98-3.51,2.95-6.06
	c1.47-3.88,2.03-6.51,2.03-6.51l2.47,2.99c0,0,1.76-0.76,2.07-5.38c0.27-4.03-0.9-7.94-0.9-7.94l2.76,2.43c0,0,0.87-1.1,0.34-2.54
	c-0.94-2.57-4.14-5.71-4.14-5.71L246.68,289.65z"/>
<path class="st4" d="M331.82,267.77c-0.32-0.85-7.84-21.04-7.92-42.89c-0.09-23.18,9.04-38.26,9.43-38.89l0.58-0.95l33.81,0.11
	l0.59,0.72c0.45,0.55,10.95,13.79,9.17,47.29c-0.63,11.94-7.4,33.54-7.69,34.45l-0.44,1.39l-37.06,0.04L331.82,267.77z"/>
<path class="st4" d="M335.01,187.03l31.77,0.11c0,0,10.48,12.81,8.73,45.93c-0.63,11.82-7.6,33.96-7.6,33.96l-34.23,0.04
	c0,0-7.71-20.46-7.79-42.2C325.79,201.99,335.01,187.03,335.01,187.03z"/>
<path class="st5" d="M117.89,286.06c-1.21,0-2.68,0-6.04-10.34l-1.26,1.7l-1.61-1.31c-2.7-2.2-3.05-6.11-2.71-9.47l-1.26-1.67
	c-1.86-2.45-0.65-5.3,1-7.52l-3.83,0.11l-2.4-12.47c-0.01,0-0.03,0-0.04,0c-2.76,0-7.87,1.06-11.09,8.19
	c-1.41,3.11-2.19,7.04-2.82,10.19c-0.88,4.4-1.37,6.82-3.6,7l-0.08,0.01l-0.12,0c-4.41,0-7.88-12.13-8.33-20.48
	c-0.47-8.68,0.41-20.94,7.26-30.09c3.71-4.95,8.33-7.87,10.52-9.06c-0.25-4.65-0.86-20.31,1.6-29.37
	c3.38-12.44,9.35-23.02,12.61-28.23c2.46-3.92,8.55-13.05,12.02-13.05c5.62,0,21.09,22.01,25.48,41.56
	c2.25,10.02,1.77,24.82,1.57,29.15c1.88,1.18,5.88,3.94,9.43,7.88c9.72,10.78,8.74,25.56,8.42,30.42
	c-0.57,8.66-4.11,21.24-8.37,21.24h-0.13l-0.2-0.02c-2.24-0.3-2.66-2.6-3.31-6.08c-0.53-2.89-1.26-6.85-3.06-11.16
	c-2.7-6.47-8.21-7.83-10.8-8.1l-3.36,12.54l-3.4-0.2c1.57,2.3,2.71,5.19,0.84,7.46l-1.3,1.59l-0.09-0.08
	c0.25,3.45-0.14,7.56-2.84,9.68l-1.55,1.22l-1.3-1.63C120.52,286.05,119.13,286.06,117.89,286.06L117.89,286.06z"/>
<path class="st5" d="M117.68,142.18c3.61,0,18.96,19.59,23.54,40.01c2.57,11.45,1.46,29.8,1.46,29.8s5.43,3.05,10,8.13
	c9.16,10.16,8.22,24.43,7.92,28.96c-0.68,10.32-4.6,19.62-6.46,19.38c-1.7-0.22-1.21-7.44-4.79-16.04
	c-4.17-10-14.14-9.38-14.14-9.38l-3.35,12.51l-6.49-0.37c0,0,6.19,5.67,3.9,8.46l-2.76-2.43c0,0,2.84,10.17-1.17,13.32l-2.45-3.07
	c0,0-3.57,12.65-5,12.65c-1.53,0-5.31-12.69-5.31-12.69l-2.35,3.18c-4.19-3.41-0.76-13.41-0.76-13.41l-2.89,2.61
	c-2.4-3.16,4.22-8.45,4.22-8.45l-7.01,0.2l-2.37-12.29c0,0-9.54-1.99-14.61,9.22c-2.93,6.48-3.26,15.91-4.77,16.03
	c-1.82,0.14-5.85-8.38-6.4-18.6c-0.39-7.27,0.05-19.68,6.87-28.79c4.68-6.25,10.99-9.08,10.99-9.08s-1.34-19.73,1.46-30.03
	C100.6,161.22,114.76,142.18,117.68,142.18z"/>
<path class="st5" d="M282.41,141.41c-7.64,0-13.85-6.21-13.85-13.85s6.21-13.85,13.85-13.85s13.85,6.21,13.85,13.85
	S290.05,141.41,282.41,141.41z"/>
<circle class="st5" cx="282.41" cy="127.56" r="11.87"/>
</svg>
