<?xml version="1.0" encoding="utf-8"?>
<!-- Generator: Adobe Illustrator 26.5.0, SVG Export Plug-In . SVG Version: 6.00 Build 0)  -->
<svg version="1.1" id="Layer_1" xmlns="http://www.w3.org/2000/svg" xmlns:xlink="http://www.w3.org/1999/xlink" x="0px" y="0px"
	 viewBox="0 0 566.93 566.93" style="enable-background:new 0 0 566.93 566.93;" xml:space="preserve">
<style type="text/css">
	.st0{fill:none;stroke:#ED1B53;stroke-miterlimit:10;}
	.st1{fill:none;stroke:#ED174D;stroke-miterlimit:10;}
	.st2{fill:none;stroke:#3BC4E2;stroke-miterlimit:10;}
	.st3{fill:none;stroke:#E97F24;stroke-miterlimit:10;}
	.st4{fill:none;stroke:#63BC48;stroke-miterlimit:10;}
	.st5{fill:none;stroke:#000000;stroke-miterlimit:10;}
</style>
<path class="st0" d="M279.23,196.7c-4.85-0.02-8.06-5.04-6.05-9.45l2.09-4.58c2.14-4.69,6.1-10.73,9.09-14.81
	c6.54-8.95,10.26-11.83,15.3-11.83c5.06,0,9.34,3.1,15.8,11.42c4.07,5.24,7.67,10.99,9.65,15.36l1.6,3.54
	c2.22,4.92-1.39,10.49-6.79,10.48L279.23,196.7z"/>
<path class="st0" d="M284.3,186.8l31.77,0.11c-3.49-7.71-13.58-20.95-16.41-20.95C297.46,165.96,287.54,179.7,284.3,186.8z"/>
<path class="st1" d="M305.81,342.5c-2.59-0.22-6.18-0.33-10.7-0.33c-4,0-8.07,0.09-11.35,0.15c-1.93,0.04-3.59,0.08-4.85,0.09h0
	c-3.74,0-8.49-1.66-10.33-9.57c-0.26-1.12-0.58-2.63-0.95-4.51c-0.62-3.12-1.18-6.25-1.18-6.25l-0.05-0.3
	c-1.06-5.9,3.45-11.34,9.45-11.38l39.72-0.25c3.53-0.02,6.16,3.26,5.36,6.7l-1.27,5.49c0,0-0.74,3.21-1.54,6.42
	c-0.48,1.92-0.89,3.48-1.22,4.62c-1.74,6.07-5.18,9.15-10.25,9.15l-0.42,0L305.81,342.5z"/>
<path class="st1" d="M276.21,320.32l33.78-0.21c0,0-2.9,12.54-3.35,12.51c-8.38-0.72-22.23-0.17-27.82-0.13
	C278.4,332.49,276.21,320.32,276.21,320.32z"/>
<path class="st2" d="M368.02,305.66c-8.92,0-10.7-8.7-11.77-13.89c-0.48-2.34-1.6-7.81-2.68-9.26c-1.61-1.9-2.92-2.25-3.37-2.31
	l-5.03,0.86c-4.85,0.83-8.83-3.8-7.29-8.47l1.78-5.39c0.02-0.05,1.86-5.69,4.2-15.53c1.79-7.52,2.9-13.99,2.91-14.06l0,0
	c1.19-7,9.13-10.52,15.11-6.71l0,0c0.13,0.08,0.3,0.18,0.51,0.3c15.21,8.9,22.67,22.98,22.17,41.83
	C384.17,288.09,379.6,305.66,368.02,305.66z"/>
<path class="st2" d="M356.56,239.28c0,0-1.14,6.73-3.04,14.7c-2.49,10.46-4.44,16.34-4.44,16.34l0,0c0,0,6.25-1.07,12.09,5.81
	c4.61,5.44,4.91,19.61,6.85,19.61c1.43,0,6.22-7.24,6.64-22.97C375.3,248.46,359.48,241.14,356.56,239.28z"/>
<path class="st2" d="M280.2,304.31c-11.58,0-16.16-17.57-16.56-32.62c-0.5-18.85,6.96-32.93,22.17-41.83
	c0.21-0.12,0.38-0.22,0.52-0.31l3.35-2.09c4.4-2.75,10.19-0.17,11.08,4.94l0.67,3.86c0.01,0.06,1.12,6.53,2.91,14.06
	c2.34,9.84,4.19,15.48,4.21,15.53l1.47,4.46c1.67,5.08-2.67,10.12-7.94,9.21l-4.07-0.7c-0.44,0.06-1.75,0.41-3.4,2.35
	c-1.05,1.42-2.17,6.89-2.65,9.23C290.9,295.61,289.12,304.31,280.2,304.31z"/>
<path class="st2" d="M291.66,237.92c0,0,1.14,6.73,3.04,14.7c2.49,10.46,4.44,16.34,4.44,16.34l0,0c0,0-6.25-1.07-12.09,5.81
	c-4.61,5.44-4.91,19.61-6.85,19.61c-1.43,0-6.22-7.24-6.64-22.97C272.92,247.1,288.74,239.78,291.66,237.92z"/>
<path class="st3" d="M339.29,381.36l-0.39-0.03c-6.06-0.45-8.96-5.39-10.76-9.96l-1.99-1.43c-1.51-1.09-6.02-5.03-6.16-13.46
	c-2.21-3.44-3.27-9.41,0.77-15.51c1.57-2.38,4.2-4.8,5.26-5.73l0,0c1.82-1.6,4.16-2.48,6.59-2.47l14.67,0.05
	c2.58,0.01,5.06,1.02,6.91,2.83l0,0c1.45,1.41,4.97,5.16,6.52,9.39c1.71,4.68,0.34,9.05-1.6,11.73c-0.01,0.12-0.01,0.25-0.02,0.37
	c-0.63,9.53-5.72,12.81-7.96,13.8c-1.81,4.73-4.49,10.42-11.44,10.42H339.29z"/>
<path class="st3" d="M332.57,342.68c0,0-2.52,2.22-3.54,3.76c-1.93,2.92-0.68,4.69-0.68,4.69l2.85-2.49c0,0-0.71,0.99-1.2,5.73
	c-0.59,5.69,1.93,7.5,1.93,7.5l2.41-3.13c0,0,0.87,2.81,1.96,6.01c1,2.94,2.45,6.61,3.35,6.67c0.74,0.06,1.98-3.51,2.95-6.06
	c1.47-3.88,2.03-6.51,2.03-6.51l2.47,2.99c0,0,1.76-0.76,2.07-5.38c0.27-4.03-0.9-7.94-0.9-7.94l2.76,2.43c0,0,0.87-1.1,0.34-2.54
	c-0.94-2.57-4.14-5.71-4.14-5.71L332.57,342.68z"/>
<path class="st4" d="M410.28,323.6c-0.34-0.9-8.34-22.4-8.43-45.66c-0.1-25.42,10.17-42.38,10.61-43.09l0,0
	c1.81-2.94,5.02-4.73,8.48-4.71l31.77,0.11c2.96,0.01,5.77,1.34,7.64,3.64l0,0c1.32,1.61,12.86,16.81,10.96,52.74
	c-0.67,12.71-7.3,34.03-8.05,36.42l0,0c-1.3,4.13-5.13,6.93-9.45,6.94l-34.23,0.04C415.44,330.03,411.74,327.47,410.28,323.6
	L410.28,323.6z"/>
<path class="st4" d="M420.91,240.06l31.77,0.11c0,0,10.48,12.81,8.73,45.93c-0.63,11.82-7.6,33.96-7.6,33.96l-34.23,0.04
	c0,0-7.71-20.46-7.79-42.2C411.68,255.02,420.91,240.06,420.91,240.06z"/>
<path class="st5" d="M203.77,347.02c-5.63-0.01-8.8-3.61-11.37-9.67l-2.54-2.07c-4.36-3.55-5.69-8.54-5.76-13.17
	c-0.73-1.09-1.26-2.25-1.6-3.44l-0.95,0.03c0-0.02-0.38-2.82-0.7-3.84c-0.06-0.17-0.72-0.04-0.73-0.04c-0.42,0-0.29,1.5-0.63,3.22
	c-0.95,4.75-2.54,12.71-10.76,13.35l-0.39,0.03l-0.43,0c-14.58,0-16.2-26.85-16.26-27.99c-0.54-9.99,0.56-24.22,8.84-35.27
	c2.81-3.75,6.02-6.56,8.75-8.53c-0.21-7.23-0.13-19.16,2.06-27.23c3.65-13.42,10.05-24.79,13.55-30.36
	c9.7-15.48,14.76-16.77,18.75-16.77c2.61,0,8.72,0,19.72,16.84c3.74,5.73,10.47,17.37,13.51,30.91c1.92,8.56,2.04,20.04,1.89,26.84
	c2.2,1.67,4.81,3.9,7.26,6.61c7.94,8.81,11.45,21.01,10.45,36.26c-0.19,2.93-2.29,28.64-16.28,28.65l-0.65,0l-0.72-0.09
	c-7.96-1.05-9.39-8.79-10.07-12.52c-0.06-0.33-0.12-0.67-0.19-1.03c-0.29-1.55-2.48-1.63-2.89-0.11l-0.34,1.27l-0.21-0.01
	c-0.38,1.21-0.97,2.37-1.77,3.45c-0.22,4.62-1.63,9.6-5.91,12.96l-2.15,1.69c-2.33,5.9-5.47,10.01-11.43,10.01H203.77z"/>
<path class="st5" d="M203.57,195.21c3.61,0,18.96,19.59,23.54,40.01c2.57,11.45,1.46,29.8,1.46,29.8s5.43,3.05,10,8.13
	c9.16,10.16,8.22,24.43,7.92,28.96c-0.68,10.32-4.6,19.62-6.46,19.38c-1.7-0.22-1.21-7.44-4.79-16.04
	c-4.17-10-14.14-9.38-14.14-9.38l-3.35,12.51l-6.49-0.37c0,0,6.19,5.67,3.9,8.46l-2.76-2.43c0,0,2.84,10.17-1.17,13.32l-2.45-3.07
	c0,0-3.57,12.65-5,12.65c-1.53,0-5.31-12.69-5.31-12.69l-2.35,3.18c-4.19-3.41-0.76-13.41-0.76-13.41l-2.89,2.61
	c-2.4-3.16,4.22-8.45,4.22-8.45l-7.01,0.2l-2.37-12.29c0,0-9.54-1.99-14.61,9.22c-2.93,6.48-3.26,15.91-4.77,16.03
	c-1.82,0.14-5.85-8.38-6.4-18.6c-0.39-7.27,0.05-19.68,6.87-28.79c4.68-6.25,10.99-9.08,10.99-9.08s-1.34-19.73,1.46-30.03
	C186.5,214.25,200.66,195.21,203.57,195.21z"/>
<circle class="st5" cx="368.31" cy="180.59" r="21.79"/>
<circle class="st5" cx="368.31" cy="180.59" r="11.87"/>
</svg>
