<?xml version="1.0" encoding="utf-8"?>
<!-- Generator: Adobe Illustrator 26.5.0, SVG Export Plug-In . SVG Version: 6.00 Build 0)  -->
<svg version="1.1" id="Layer_1" xmlns="http://www.w3.org/2000/svg" xmlns:xlink="http://www.w3.org/1999/xlink" x="0px" y="0px"
	 viewBox="0 0 566.93 566.93" style="enable-background:new 0 0 566.93 566.93;" xml:space="preserve">
<style type="text/css">
	.st0{fill:none;stroke:#ED1B53;stroke-miterlimit:10;}
	.st1{fill:none;stroke:#ED174D;stroke-miterlimit:10;}
	.st2{fill:none;stroke:#3BC4E2;stroke-miterlimit:10;}
	.st3{fill:none;stroke:#E97F24;stroke-miterlimit:10;}
	.st4{fill:none;stroke:#63BC48;stroke-miterlimit:10;}
	.st5{fill:none;stroke:#000000;stroke-miterlimit:10;}
</style>
<path class="st0" d="M308.7,77.34l1.28-2.8c3.75-8.21,11.6-20.94,20-32.43c9.62-13.17,16.18-19.85,19.48-19.85
	c8.61,0,33.8,34.28,42.05,52.55l1.27,2.81L308.7,77.34z"/>
<path class="st0" d="M311.78,75.36l77.92,0.26c-8.55-18.92-33.3-51.38-40.24-51.38C344.06,24.25,319.73,57.96,311.78,75.36z"/>
<path class="st1" d="M375.48,427.11c-7.05-0.6-16.25-0.9-28.12-0.9c-10.07,0-20.19,0.21-28.33,0.38c-4.6,0.1-8.58,0.18-11.6,0.21
	c0,0-0.01,0-0.01,0c-2.03,0-2.72-0.05-8.38-31.47l-0.42-2.32l87.73-0.55l-0.57,2.45c-7.45,32.21-8.24,32.21-10.14,32.21h-0.08
	L375.48,427.11z"/>
<path class="st1" d="M301,394.98l82.86-0.52c0,0-7.11,30.77-8.21,30.68c-20.56-1.76-54.52-0.43-68.23-0.31
	C306.38,424.83,301,394.98,301,394.98z"/>
<path class="st2" d="M550.78,264.97c-3.64,0-4.75-5.42-6.97-16.21c-2.19-10.69-5.19-25.34-11.34-32.6
	c-10.48-12.37-21.5-13.7-25.75-13.7c-1.29,0-2.05,0.12-2.06,0.12l-2.3,0.38l-0.01-2.65l0.1-0.31c0.2-0.59,4.86-14.83,10.83-39.92
	c4.59-19.25,7.4-35.76,7.43-35.93l0.5-2.95l2.52,1.61c0.5,0.32,1.17,0.71,1.97,1.18c11.09,6.49,44.83,26.23,43.33,82.71
	C568.04,244.4,556.45,264.97,550.78,264.97z"/>
<path class="st2" d="M522.67,124.48c0,0-2.8,16.51-7.45,36.06c-6.11,25.67-10.88,40.08-10.88,40.08l0,0c0,0,15.34-2.64,29.65,14.25
	c11.3,13.33,12.05,48.11,16.79,48.11c3.51,0,15.26-17.75,16.28-56.33C568.64,147,529.83,129.04,522.67,124.48z"/>
<path class="st2" d="M480.42,425.36c-5.67,0-17.26-20.57-18.26-58.26c-1.5-56.48,32.24-76.23,43.33-82.72
	c0.8-0.47,1.47-0.86,1.97-1.18l2.52-1.61l0.5,2.95c0.03,0.16,2.84,16.67,7.43,35.93c6.02,25.27,10.79,39.78,10.83,39.92l1.04,3.14
	l-3.26-0.56c0,0-0.75-0.12-2.05-0.12c-4.25,0-15.27,1.33-25.75,13.7c-6.15,7.26-9.15,21.9-11.34,32.59
	C485.18,419.94,484.07,425.36,480.42,425.36z"/>
<path class="st2" d="M508.53,284.88c0,0,2.8,16.51,7.45,36.06c6.11,25.67,10.88,40.08,10.88,40.08l0,0c0,0-15.34-2.64-29.65,14.25
	c-11.3,13.33-12.05,48.11-16.79,48.11c-3.51,0-15.26-17.75-16.28-56.33C462.56,307.4,501.37,289.44,508.53,284.88z"/>
<path class="st3" d="M235.34,530.28c-1.41-0.11-4.03-0.31-9.94-17.71c-1.47-4.34-2.79-8.41-3.68-11.17l-4.77,6.19l-1.56-1.12
	c-0.29-0.21-7.1-5.28-5.56-20.22c0.34-3.28,0.72-5.87,1.11-7.9l-3.54,3.09l-1.27-1.8c-0.16-0.22-3.78-5.55,1.63-13.74
	c2.61-3.95,8.77-9.39,9.03-9.62l0.56-0.5l37.53,0.12l0.58,0.56c0.33,0.33,8.2,8.07,10.63,14.73c1.65,4.52-1.03,7.99-1.15,8.14
	l-1.3,1.64l-3.74-3.3c0.66,3.76,1.25,8.85,0.9,14.06c-0.81,12.19-5.71,14.65-6.27,14.89l-1.37,0.59l-4.52-5.47
	c-0.79,2.86-2.11,7.16-4.09,12.4l-0.82,2.19c-3.79,10.13-5.48,13.96-8.22,13.96L235.34,530.28z"/>
<path class="st3" d="M218.11,457.77c0,0-6.19,5.45-8.69,9.22c-4.73,7.15-1.67,11.5-1.67,11.5l6.98-6.1c0,0-1.73,2.43-2.93,14.06
	c-1.44,13.96,4.74,18.4,4.74,18.4l5.92-7.67c0,0,2.15,6.88,4.82,14.75c2.44,7.2,6,16.2,8.21,16.37c1.82,0.14,4.86-8.62,7.23-14.87
	c3.61-9.53,4.99-15.97,4.99-15.97l6.06,7.34c0,0,4.32-1.87,5.07-13.2c0.65-9.87-2.2-19.47-2.2-19.47l6.76,5.97
	c0,0,2.13-2.69,0.84-6.23c-2.31-6.31-10.15-13.99-10.15-13.99L218.11,457.77z"/>
<path class="st4" d="M310.29,333.9c-0.19-0.5-19.05-51.12-19.25-104.2c-0.21-56.04,22.48-93.5,22.71-93.87l0.58-0.95l79.96,0.27
	l0.59,0.72c1.07,1.31,26.14,32.94,21.85,114.03c-1.53,28.92-18.04,81.57-18.74,83.8l-0.44,1.39l-86.79,0.1L310.29,333.9z"/>
<path class="st4" d="M315.44,136.88l77.92,0.26c0,0,25.71,31.41,21.4,112.67c-1.54,29-18.65,83.3-18.65,83.3l-83.96,0.09
	c0,0-18.92-50.18-19.12-103.51C292.82,173.57,315.44,136.88,315.44,136.88z"/>
<path class="st5" d="M104.13,434.02c-1.37,0-4.93-0.01-13.77-28.75l-4.65,6.29l-1.61-1.31c-7.75-6.3-6.15-20.11-4.31-28.42
	l-3.66,3.31l-1.31-1.72c-4.9-6.46,1.75-14.94,6.6-19.78l-13.48,0.39l-5.86-30.4c-0.64-0.06-1.49-0.12-2.51-0.12
	c-7.46,0-21.26,2.83-29.84,21.78c-3.59,7.92-5.55,17.74-7.13,25.62c-1.94,9.72-2.92,14.6-6.23,14.86c-0.09,0.01-0.18,0.01-0.27,0.01
	c-7.15,0-16.34-24.86-17.56-47.5c-1.12-20.81,0.96-50.18,17.24-71.92c9.89-13.2,22.48-20.26,26.47-22.28
	c-0.49-8.15-2.59-49.72,3.72-72.96c8.19-30.14,22.69-55.83,30.6-68.47C85.45,98.51,97.84,82,103.62,82
	c6.42,0,19.51,15.66,29.64,31.18c8.35,12.79,23.36,38.7,30.04,68.5c5.79,25.8,4.09,64.89,3.69,72.42
	c3.44,2.07,14.37,9.06,23.96,19.7c23.02,25.55,20.69,60.89,19.93,72.5c-1.58,24-10.65,49.39-17.64,49.4c-0.15,0-0.3-0.01-0.44-0.03
	c-3.42-0.45-4.21-4.76-5.65-12.59c-1.33-7.22-3.15-17.11-7.67-27.97c-8.22-19.73-26.27-21.66-31.33-21.8l-8.24,30.77l-12.42-0.72
	c4.52,5.05,10.87,13.9,6.09,19.73l-1.3,1.59l-3.75-3.31c1.48,8.27,2.73,22.72-4.89,28.72l-1.55,1.22l-4.84-6.06
	C108.86,434.01,105.57,434.02,104.13,434.02L104.13,434.02z"/>
<path class="st5" d="M103.62,83.98c8.86,0,46.51,48.04,57.75,98.13c6.31,28.09,3.58,73.08,3.58,73.08s13.31,7.48,24.53,19.93
	c22.46,24.92,20.15,59.92,19.42,71.04c-1.67,25.32-11.27,48.13-15.84,47.53c-4.17-0.55-2.96-18.24-11.75-39.35
	c-10.22-24.53-34.69-23.01-34.69-23.01l-8.21,30.68l-15.93-0.92c0,0,15.18,13.91,9.57,20.74l-6.76-5.97c0,0,6.95,24.94-2.87,32.67
	l-6.01-7.52c0,0-8.77,31.03-12.27,31.02c-3.75-0.01-13.02-31.12-13.02-31.12l-5.76,7.8c-10.28-8.37-1.86-32.9-1.86-32.9l-7.09,6.41
	c-5.88-7.76,10.35-20.72,10.35-20.72L69.57,362l-5.81-30.14c0,0-23.39-4.87-35.83,22.62c-7.19,15.89-7.99,39.03-11.71,39.32
	c-4.46,0.35-14.34-20.55-15.69-45.62c-0.96-17.82,0.11-48.28,16.85-70.62c11.49-15.34,26.95-22.26,26.95-22.26
	s-3.29-48.39,3.57-73.65C61.73,130.7,96.47,83.98,103.62,83.98z"/>
<circle class="st5" cx="459.78" cy="511.78" r="31.09"/>
<circle class="st5" cx="459.78" cy="511.78" r="29.11"/>
</svg>
