<?xml version="1.0" encoding="utf-8"?>
<!-- Generator: Adobe Illustrator 26.5.0, SVG Export Plug-In . SVG Version: 6.00 Build 0)  -->
<svg version="1.1" id="Layer_1" xmlns="http://www.w3.org/2000/svg" xmlns:xlink="http://www.w3.org/1999/xlink" x="0px" y="0px"
	 viewBox="0 0 566.93 566.93" style="enable-background:new 0 0 566.93 566.93;" xml:space="preserve">
<style type="text/css">
	.st0{fill:none;stroke:#ED1B53;stroke-miterlimit:10;}
	.st1{fill:none;stroke:#ED174D;stroke-miterlimit:10;}
	.st2{fill:none;stroke:#3BC4E2;stroke-miterlimit:10;}
	.st3{fill:none;stroke:#E97F24;stroke-miterlimit:10;}
	.st4{fill:none;stroke:#63BC48;stroke-miterlimit:10;}
	.st5{fill:none;stroke:#000000;stroke-miterlimit:10;}
</style>
<path class="st0" d="M344,39.06c-5.99-0.02-9.96-6.22-7.47-11.67l1.08-2.37c4.8-10.51,13.9-24.36,20.81-33.82
	c15.59-21.33,21.14-23.1,25.89-23.1c3.48,0,9.97,0,27.36,22.44c9.18,11.84,17.58,25.17,21.92,34.78l0.99,2.19
	c2.51,5.56-1.56,11.85-7.66,11.83L344,39.06z"/>
<path class="st0" d="M346.63,29.14l77.92,0.26c-8.55-18.92-33.3-51.38-40.24-51.38C378.91-21.97,354.58,11.74,346.63,29.14z"/>
<path class="st1" d="M409.65,388.8c-6.83-0.58-15.81-0.87-27.45-0.87c-9.98,0-20.06,0.21-28.16,0.38c-4.63,0.1-8.63,0.18-11.69,0.21
	c-8.32,0-10.12-7.72-11.19-12.34c-0.6-2.58-1.35-6.14-2.23-10.58c-1.47-7.46-2.83-15.01-2.85-15.09l-0.58-3.23
	c-0.79-4.37,2.56-8.4,7-8.43l89.21-0.56c4.84-0.03,8.44,4.47,7.35,9.19l-0.69,2.99c-0.02,0.08-1.81,7.84-3.73,15.5
	c-1.14,4.56-2.1,8.22-2.86,10.87c-1.36,4.77-3.43,11.99-11.29,11.99h-0.42L409.65,388.8z"/>
<path class="st1" d="M335.85,348.76l82.86-0.52c0,0-7.11,30.77-8.21,30.68c-20.56-1.76-54.52-0.43-68.23-0.31
	C341.22,378.61,335.85,348.76,335.85,348.76z"/>
<path class="st2" d="M585.63,226.68c-5.8,0-9.88-3.79-12.13-11.26c-0.92-3.05-1.7-6.87-2.61-11.3c-1.91-9.3-4.79-23.35-9.62-29.06
	c-8.33-9.83-16.55-10.9-19.69-10.9c-0.39,0-0.67,0.02-0.81,0.03l0,0c-6.05,1.33-11.73-3.4-11.5-9.59l0.01-0.21v-1.59l0.5-1.51
	c0.19-0.58,4.75-14.51,10.65-39.28c4.53-19.01,7.29-35.25,7.32-35.41l0.03-0.18c1.17-6.92,9.02-10.4,14.93-6.63l0.15,0.1
	c0.44,0.28,1.02,0.62,1.72,1.02c5.83,3.41,17.95,10.5,28.6,24.65c13.07,17.35,19.34,39.27,18.66,65.13
	c-0.59,22.35-4.6,37.29-7.85,45.88C598.93,219.92,592.75,226.68,585.63,226.68z"/>
<path class="st2" d="M557.52,78.26c0,0-2.8,16.51-7.45,36.06c-6.11,25.67-10.88,40.08-10.88,40.08l0,0c0,0,15.34-2.64,29.65,14.25
	c11.3,13.33,12.05,48.11,16.79,48.11c3.51,0,15.26-17.75,16.28-56.33C603.49,100.78,564.68,82.82,557.52,78.26z"/>
<path class="st2" d="M515.27,387.08c-7.13,0-13.3-6.76-18.35-20.11c-3.25-8.6-7.25-23.54-7.85-45.88
	c-0.69-25.86,5.59-47.78,18.66-65.13c10.65-14.14,22.77-21.24,28.6-24.65c0.7-0.41,1.28-0.74,1.72-1.02l4.91-3.13
	c3.65-2.33,8.5-0.18,9.23,4.09l0.97,5.75c0.03,0.16,2.8,16.44,7.32,35.41c5.92,24.86,10.6,39.13,10.65,39.27l1.59,4.83
	c1.7,5.17-2.87,10.23-8.18,9.05l-4.41-0.97c-0.14-0.01-0.42-0.03-0.81-0.03c-3.15,0-11.36,1.06-19.69,10.9
	c-4.84,5.71-7.72,19.76-9.62,29.06c-0.91,4.42-1.69,8.25-2.61,11.3C525.15,383.29,521.07,387.08,515.27,387.08z"/>
<path class="st2" d="M543.38,238.66c0,0,2.8,16.51,7.45,36.06c6.11,25.67,10.88,40.08,10.88,40.08l0,0c0,0-15.34-2.64-29.65,14.25
	c-11.3,13.33-12.05,48.11-16.79,48.11c-3.51,0-15.26-17.75-16.28-56.33C497.41,261.18,536.22,243.22,543.38,238.66z"/>
<path class="st3" d="M270,492l-0.42-0.03c-7.35-0.56-11.18-6.97-15.84-20.15l-0.35,0.46l-7.79-5.59
	c-1.75-1.26-10.18-8.26-8.98-25.68l-2.13-3.03c-3.22-4.56-4.75-13.24,1.5-22.69c3.07-4.64,9.21-10.14,10.4-11.19l2.82-2.49
	l43.77,0.14l2.88,2.82c1.58,1.54,9.6,9.66,12.53,17.68c2.36,6.46,0.19,12.54-2.38,15.79l-2.34,2.96c0.04,1.64,0.01,3.33-0.11,5.04
	c-1.04,15.69-8.07,20.37-11.04,21.65l-5.44,2.35c-0.08,0.23-1.07,2.85-1.07,2.85c-1.13,3.01-2.41,6.43-3.66,9.18
	c-1.36,2.97-4.54,9.93-11.99,9.93H270z"/>
<path class="st3" d="M252.96,411.55c0,0-6.19,5.45-8.69,9.22c-4.73,7.15-1.67,11.5-1.67,11.5l6.98-6.1c0,0-1.73,2.43-2.93,14.06
	c-1.44,13.96,4.74,18.4,4.74,18.4l5.92-7.67c0,0,2.15,6.88,4.82,14.75c2.44,7.2,6,16.2,8.21,16.37c1.82,0.14,4.86-8.62,7.23-14.87
	c3.61-9.53,4.99-15.97,4.99-15.97l6.06,7.34c0,0,4.32-1.87,5.07-13.2c0.65-9.87-2.2-19.47-2.2-19.47l6.76,5.97
	c0,0,2.13-2.69,0.84-6.23c-2.31-6.31-10.15-13.99-10.15-13.99L252.96,411.55z"/>
<path class="st4" d="M337.71,290.48c-0.8-2.12-19.55-52.48-19.76-106.97c-0.22-58.29,22.9-96.47,23.89-98.06l0.12-0.2
	c1.74-2.82,4.81-4.53,8.12-4.52L428.24,81c2.96,0.01,5.77,1.34,7.64,3.64l0,0c1.15,1.4,28.09,35.35,23.63,119.47
	c-1.58,29.91-18.38,83.49-19.09,85.76l0,0c-1.3,4.13-5.12,6.93-9.45,6.94l-83.96,0.09C342.88,296.91,339.17,294.35,337.71,290.48
	L337.71,290.48z"/>
<path class="st4" d="M350.29,90.66l77.92,0.26c0,0,25.71,31.41,21.4,112.67c-1.54,29-18.65,83.3-18.65,83.3L347,286.98
	c0,0-18.92-50.18-19.12-103.51C327.66,127.35,350.29,90.66,350.29,90.66z"/>
<path class="st5" d="M138.97,395.73c-8.15-0.01-11.98-7.75-16.39-19.77l-0.58,0.79l-8.06-6.56c-7.78-6.33-9.27-16.58-8.68-25.67
	l-1.91-2.51c-3.85-5.08-4.06-10.73-2.14-16.2l-4.94,0.14l-4.53-23.52c-0.77-4.02-5.36-6.09-8.82-3.9
	c-3.98,2.52-7.92,6.79-11.1,13.83c-3.21,7.1-5.08,16.42-6.58,23.9c-2.29,11.44-4.1,20.48-13.39,21.21
	c-0.29,0.02-0.59,0.04-0.89,0.04c-16.85,0-24.56-37.78-25.48-55.01c-1.19-22.12,1.11-53.46,18.82-77.1
	c8.26-11.02,18.31-18.21,24.64-22.03C68.28,189,67.42,154,73.17,132.82c8.45-31.13,23.39-57.6,31.53-70.6
	c21.54-34.38,30.42-34.38,33.76-34.38c5.41,0,10.92,3.42,18.42,11.43c5.67,6.05,11.85,14.13,17.87,23.35
	c8.64,13.24,24.18,40.09,31.14,71.09c5.22,23.25,4.6,56.5,4.08,69.94c5.38,3.61,13.97,10.01,21.72,18.6
	c25.27,28.04,22.77,65.89,21.95,78.33c-0.81,12.25-3.39,24.97-7.27,35.83c-5.18,14.51-10.82,20.98-18.29,20.99c0,0,0,0,0,0
	c-0.49,0-0.99-0.03-1.48-0.1c-9.14-1.21-10.81-10.26-12.42-19.02c-1.27-6.87-3-16.28-7.19-26.35c-2.97-7.13-7.48-11.27-11.9-13.67
	c-3.07-1.66-6.88,0-7.78,3.36l-6.57,24.53l-3.73-0.21c1.82,5.59,1.48,11.18-2.45,15.96l-2.15,2.62c0.3,9.18-1.39,19.58-9.03,25.59
	l-7.74,6.08l-0.53-0.66c-4.35,12.61-7.9,20.19-16.13,20.19H138.97z"/>
<path class="st5" d="M138.47,37.76c8.86,0,46.51,48.04,57.75,98.13c6.31,28.09,3.58,73.08,3.58,73.08s13.31,7.48,24.53,19.93
	c22.46,24.92,20.15,59.92,19.42,71.04c-1.67,25.32-11.27,48.13-15.84,47.53c-4.17-0.55-2.96-18.24-11.75-39.35
	c-10.22-24.53-34.69-23.01-34.69-23.01l-8.21,30.68l-15.93-0.92c0,0,15.18,13.91,9.57,20.74l-6.76-5.97c0,0,6.95,24.94-2.87,32.67
	l-6.01-7.52c0,0-8.77,31.03-12.27,31.02c-3.75-0.01-13.02-31.12-13.02-31.12l-5.76,7.8c-10.28-8.37-1.86-32.9-1.86-32.9l-7.09,6.41
	c-5.88-7.76,10.35-20.72,10.35-20.72l-17.19,0.5l-5.81-30.14c0,0-23.39-4.87-35.83,22.62c-7.19,15.89-7.99,39.03-11.71,39.32
	c-4.46,0.35-14.34-20.55-15.69-45.62c-0.96-17.82,0.11-48.28,16.85-70.62c11.49-15.34,26.95-22.26,26.95-22.26
	s-3.29-48.39,3.57-73.65C96.58,84.48,131.32,37.76,138.47,37.76z"/>
<ellipse transform="matrix(0.7071 -0.7071 0.7071 0.7071 -184.3299 486.1151)" class="st5" cx="494.63" cy="465.56" rx="38.97" ry="39.07"/>
<circle class="st5" cx="494.63" cy="465.56" r="29.11"/>
</svg>
