<?xml version="1.0" encoding="utf-8"?>
<!-- Generator: Adobe Illustrator 26.3.1, SVG Export Plug-In . SVG Version: 6.00 Build 0)  -->
<svg version="1.1" id="Layer_1" xmlns="http://www.w3.org/2000/svg" xmlns:xlink="http://www.w3.org/1999/xlink" x="0px" y="0px"
	 viewBox="0 0 566.9 566.9" style="enable-background:new 0 0 566.9 566.9;" xml:space="preserve">
<style type="text/css">
	.st0{fill:none;stroke:#EA0707;stroke-width:0.2835;stroke-miterlimit:10;}
</style>
<g>
	<g>
		<path class="st0" d="M321.6,244.7c1.3,1.3,4-1.4,8.5-1.1c4.5,0.2,8.6,3.2,10.8,6.7c3.1,4.9,2.6,11.5,1.1,12
			c-0.9,0.3-1.8-2-5.2-5.1c-0.6-0.5-4-3.7-7.5-4.9c-7.8-2.8-15.2,3.7-16.9,1.5c-1.2-1.5,2.6-4.2,2.9-10.1c0.3-5.6-2.8-10.1-3.7-11.5
			c-3.3-4.9-6.9-6-6.5-7.3c0.6-1.7,7.7-2.1,12.5,1.5c3.1,2.4,5,6.3,5.2,10C322.9,240.8,320.4,243.4,321.6,244.7z"/>
		<path class="st0" d="M337,226.3c-0.5-4.3-0.5-5.1-1.2-7.4c-1.2-4-5.2-7-7.5-6.3c-0.1,0-1,0.4-1.4,1.2c-0.5,1.2,0.7,2.6,1.2,3.3
			c2.9,4.3,2,10.3,0.5,17.5c-0.7,3.4-0.5,4.2,3.5,2.8c1.7-0.6,5-1.5,11.9-0.3c1.8,0.3,3.6,1.3,5.3,1.4c1.1,0.1,2.4-0.5,2.8-1.6
			c0.8-2.1-3.3-5.2-5.1-6.2c-1.6-0.9-4.4-1.8-7-1.7C336.6,229.2,337.2,228,337,226.3z"/>
	</g>
	<g>
		<path class="st0" d="M284,180.8c-0.4-0.4-1.3-0.5-1.9-0.2c-0.9,0.4-0.3,1.4-1.3,2.4c-1.2,1.2-3,0.7-3.1,1.2
			c-0.1,0.4,1.4,1.3,2.6,1c1.4-0.4,1.5-2.3,2.5-2.4c0.5,0,1,0.8,1.8,1.7c0.7,0.8,2.7,0.6,2.8,0.1c0-0.4-1.5-0.9-2.1-1.7
			C284.9,182.2,284.5,181.3,284,180.8z"/>
		<path class="st0" d="M282.7,184.7c-0.7,0-1.1,1.6-1.2,2.2c0,0.7,0.2,2.6,1.1,2.6c0.7,0,1.5-1.7,1.5-2.5
			C284.1,186.3,283.5,184.7,282.7,184.7z"/>
		<path class="st0" d="M274.3,193.4c-0.4,1.5,0.5,2.8,1.8,3c2.1,0.4,2.9-0.3,2.9-0.3s-0.2,1.3,0.7,2.4c1.1,1.4,4.9,1.2,6,0
			c1.2-1.2,0.9-2.4,0.9-2.4s0.9,0.9,2.4,0.8c1.2-0.1,2.6-1.5,2.5-2.8c-0.4-3.7-5.2-7.5-5.8-7.2c-0.5,0.3,0,1.1-0.6,2.8
			c-0.4,1.2-1.2,2.4-2.3,2.5c-1.1,0-1.8-1.7-2-2.4c-0.5-1.8-0.3-2.5-0.8-2.8C279.2,186.5,275,190.2,274.3,193.4z"/>
		<path class="st0" d="M272.9,189c-0.7-0.8-3.1-1-4,0c-0.1,0.2-0.4,0.6-0.5,1.3c-0.1,1,0.6,1.7,0.8,2.9c0.1,0.6,0.4,1.2,0.1,2.3
			c-0.2,0.8,0.3,1.4,0.6,1.6c0.9,0.8,2,0.5,2.6,1.2c0.4,0.4,0.5,1.5,0.6,2.4c0,0.6,0.6,1.4,1.2,1.6c0.9,0.3,2,0.3,2.9-0.6
			c0.4-0.4,0.6-0.9,0.6-1.3c0.1-0.6,0.1-1.6-0.8-2.2c-0.9-0.6-1.4-0.4-2.2-0.5c-0.4-0.1-0.9-0.4-1.6-1.4c-0.3-0.4-0.4-1.1-0.6-1.7
			c-0.3-0.9-0.1-1.4,0-1.8c0.2-1,0.8-1.2,0.8-2.5C273.3,189.7,273,189.3,272.9,189z"/>
		<path class="st0" d="M278.7,201.2c-0.1,1.5-0.5,1.5-2.2,2.2c-0.6,0.3,0.6,1.8,1.3,1.9c0.8,0.1,1.6-0.2,2.1,0
			c0.7,0.3,0.2,1.2,1,1.9c0.8,0.6,2.7,0.6,3.5,0.1c0.9-0.5,0.4-2,1.4-2c0.6,0,1.4,0.2,2,0.1c0.7-0.2,1.3-0.8,1.5-1.6
			c0.1-0.5-1.1-0.4-1.8-1c-0.6-0.5-0.5-1.2-0.7-1.8c-0.1-0.3-1,0-1.5,0.4c-0.5,0.5-1.2,0.9-1.8,1.1c-0.3,0.1-0.4,0.1-1,0
			c-0.7-0.1-1.8-1-2.7-1.5c-0.1-0.1-0.7-0.2-0.9-0.1C278.7,200.9,278.7,201.1,278.7,201.2z"/>
		<path class="st0" d="M292.9,189.1c0.7-0.8,3.1-1,4,0c0.1,0.2,0.4,0.6,0.5,1.3c0.1,1-0.6,1.7-0.8,2.9c-0.1,0.6-0.4,1.2-0.1,2.3
			c0.2,0.8-0.3,1.4-0.6,1.6c-0.9,0.8-2,0.5-2.6,1.2c-0.4,0.4-0.5,1.5-0.6,2.4c0,0.6-0.6,1.4-1.2,1.6c-0.9,0.3-2,0.3-2.9-0.6
			c-0.4-0.4-0.6-0.9-0.6-1.3c-0.1-0.6-0.1-1.6,0.8-2.2c0.9-0.6,1.4-0.4,2.2-0.5c0.4-0.1,0.9-0.4,1.6-1.4c0.3-0.4,0.4-1.1,0.6-1.7
			c0.3-0.9,0.1-1.4,0-1.8c-0.2-1-0.8-1.2-0.8-2.5C292.4,189.7,292.7,189.3,292.9,189.1z"/>
		<path class="st0" d="M275.1,184.2c-0.5-0.6-0.4-1-0.3-1.2c0.2-0.2,0.6-0.2,1.6-0.1c0.9,0.1,1.5,0.1,2-0.1c0.7-0.3,0.9-1,1.8-3.1
			c0.3-0.7,0.7-1.3,1.3-1.6c0.4-0.2,2.3-0.3,3.1,0.3c0.2,0.2,0.9,1.4,1.2,2.2c0.4,1,0.7,2.1,1.6,2.3c0.1,0,0.6,0.2,1.4,0.1
			c1.4-0.1,1.8-0.1,2,0.1c0.2,0.3,0,1-0.1,1.1c-0.8,1.1-1.8,1.3-2,1.9c-0.1,0.5,0.5,1,1.5,1.5c0.7,0.3,1.3,0.6,1.8,0.4
			c0.4-0.2,1.2-0.5,1.6-0.6c1.3-0.1,1.7-0.3,3.7,0.4c1,0.3,1.9,2.2,1.6,3.5c-0.3,1.2-1,1.3-1,2.5c0,0.9,0.1,0.9,0.2,1.9
			c0.1,1.2-0.6,2.4-1.7,2.8c-0.6,0.2-0.8,0.2-2,0.6c-0.5,0.2-0.6,0.4-0.8,0.7c-0.2,0.7,0.1,0.4-0.1,1.7c-0.1,0.6,0,1.7-2.3,1.9
			c-1.7,0.1-1.3,2.4-2.5,2.9c-0.9,0.4-1.6-0.1-2.6,0.3c-1.4,0.6-0.7,0.9-1.5,1.5c-1.5,1.2-3.1,0.6-4.1,0c-0.6-0.4-0.6-1-1-1.3
			c-0.9-0.8-2.5,0-3.4-0.6c-0.7-0.5-0.7-2.2-1.7-2.7c-0.9-0.4-1.3,0-2.3-0.6c-0.8-0.5-0.5-0.9-0.7-2.1c-0.1-0.3,0.1-0.8-0.1-1.3
			c-0.2-0.4-1.4-0.7-2.8-1.2c-0.6-0.3-1.4-1.3-1.5-2.1c-0.1-1.3,0.5-2.1,0.2-3.1c-0.3-0.8-0.5-0.8-0.9-1.7c-0.3-0.8,0.1-2.3,0.8-3.2
			c0.5-0.6,2.1-1.1,3.4-1c1.6,0.1,2.6,0.7,3.1,0.8c0.6,0.1,2.9-1,2.9-1.8C277,185.5,275.8,185.2,275.1,184.2z"/>
	</g>
	<g>
		<path class="st0" d="M242.7,324.2c-1.3-1.3-4,1.4-8.5,1.1c-4.5-0.2-8.6-3.2-10.8-6.7c-3.1-4.9-2.6-11.5-1.1-12
			c0.9-0.3,1.8,2,5.2,5.1c0.6,0.5,4,3.7,7.5,4.9c7.8,2.8,15.2-3.7,16.9-1.5c1.2,1.5-2.6,4.2-2.9,10.1c-0.3,5.6,2.8,10.1,3.7,11.5
			c3.3,4.9,6.9,6,6.5,7.3c-0.6,1.7-7.7,2.1-12.5-1.5c-3.1-2.4-5-6.3-5.2-10C241.4,328.1,243.9,325.4,242.7,324.2z"/>
		<path class="st0" d="M227.3,342.6c0.5,4.3,0.5,5.1,1.2,7.4c1.2,4,5.2,7,7.5,6.3c0.1,0,1-0.4,1.4-1.2c0.5-1.2-0.7-2.6-1.2-3.3
			c-2.9-4.3-2-10.3-0.5-17.5c0.7-3.4,0.5-4.2-3.5-2.8c-1.7,0.6-5,1.5-11.9,0.3c-1.8-0.3-3.6-1.3-5.3-1.4c-1.1-0.1-2.4,0.5-2.8,1.6
			c-0.8,2.1,3.3,5.2,5.1,6.2c1.6,0.9,4.4,1.8,7,1.7C227.8,339.7,227.1,340.9,227.3,342.6z"/>
	</g>
	<g>
		<path class="st0" d="M282.2,386.3c0.4,0.4,1.3,0.5,1.9,0.2c0.9-0.4,0.3-1.4,1.3-2.4c1.2-1.2,3-0.7,3.1-1.2c0.1-0.4-1.4-1.3-2.6-1
			c-1.4,0.4-1.5,2.3-2.5,2.4c-0.5,0-1-0.8-1.8-1.7c-0.7-0.8-2.7-0.6-2.8-0.1c0,0.4,1.5,0.9,2.1,1.7
			C281.4,384.9,281.8,385.8,282.2,386.3z"/>
		<path class="st0" d="M283.6,382.4c0.7,0,1.1-1.6,1.2-2.2c0-0.7-0.2-2.6-1.1-2.6c-0.7,0-1.5,1.7-1.5,2.5
			C282.1,380.8,282.7,382.4,283.6,382.4z"/>
		<path class="st0" d="M292,373.7c0.4-1.5-0.5-2.8-1.8-3c-2.1-0.4-2.9,0.3-2.9,0.3s0.2-1.3-0.7-2.4c-1.1-1.4-4.9-1.2-6,0
			c-1.2,1.2-0.9,2.4-0.9,2.4s-0.9-0.9-2.4-0.8c-1.2,0.1-2.6,1.5-2.5,2.8c0.4,3.7,5.2,7.5,5.8,7.2c0.5-0.3,0-1.1,0.6-2.8
			c0.4-1.2,1.2-2.4,2.3-2.5c1.1,0,1.8,1.7,2,2.4c0.5,1.8,0.3,2.5,0.8,2.8C287,380.6,291.2,376.9,292,373.7z"/>
		<path class="st0" d="M293.4,378.1c0.7,0.8,3.1,1,4,0c0.1-0.2,0.4-0.6,0.5-1.3c0.1-1-0.6-1.7-0.8-2.9c-0.1-0.6-0.4-1.2-0.1-2.3
			c0.2-0.8-0.3-1.4-0.6-1.6c-0.9-0.8-2-0.5-2.6-1.2c-0.4-0.4-0.5-1.5-0.6-2.4c0-0.6-0.6-1.4-1.2-1.6c-0.9-0.3-2-0.3-2.9,0.6
			c-0.4,0.4-0.6,0.9-0.6,1.3c-0.1,0.6-0.1,1.6,0.8,2.2c0.9,0.6,1.4,0.4,2.2,0.5c0.4,0.1,0.9,0.4,1.6,1.4c0.3,0.4,0.4,1.1,0.6,1.7
			c0.3,0.9,0.1,1.4,0,1.8c-0.2,1-0.8,1.2-0.8,2.5C292.9,377.4,293.2,377.8,293.4,378.1z"/>
		<path class="st0" d="M287.6,365.9c0.1-1.5,0.5-1.5,2.2-2.2c0.6-0.3-0.6-1.8-1.3-1.9c-0.8-0.1-1.6,0.2-2.1,0
			c-0.7-0.3-0.2-1.2-1-1.9c-0.8-0.6-2.7-0.6-3.5-0.1c-0.9,0.5-0.4,2-1.4,2c-0.6,0-1.4-0.2-2-0.1c-0.7,0.2-1.3,0.8-1.5,1.6
			c-0.1,0.5,1.1,0.4,1.8,1c0.6,0.5,0.5,1.2,0.7,1.8c0.1,0.3,1,0,1.5-0.4c0.5-0.5,1.2-0.9,1.8-1.1c0.3-0.1,0.4-0.1,1,0
			c0.7,0.1,1.8,1,2.7,1.5c0.1,0.1,0.7,0.2,0.9,0.1C287.5,366.2,287.6,366,287.6,365.9z"/>
		<path class="st0" d="M273.4,378c-0.7,0.8-3.1,1-4,0c-0.1-0.2-0.4-0.6-0.5-1.3c-0.1-1,0.6-1.7,0.8-2.9c0.1-0.6,0.4-1.2,0.1-2.3
			c-0.2-0.8,0.3-1.4,0.6-1.6c0.9-0.8,2-0.5,2.6-1.2c0.4-0.4,0.5-1.5,0.6-2.4c0-0.6,0.6-1.4,1.2-1.6c0.9-0.3,2-0.3,2.9,0.6
			c0.4,0.4,0.6,0.9,0.6,1.3c0.1,0.6,0.1,1.6-0.8,2.2c-0.9,0.6-1.4,0.4-2.2,0.5c-0.4,0.1-0.9,0.4-1.6,1.4c-0.3,0.4-0.4,1.1-0.6,1.7
			c-0.3,0.9-0.1,1.4,0,1.8c0.2,1,0.8,1.2,0.8,2.5C273.8,377.4,273.6,377.8,273.4,378z"/>
		<path class="st0" d="M291.2,382.9c0.5,0.6,0.4,1,0.3,1.2c-0.2,0.2-0.6,0.2-1.6,0.1c-0.9-0.1-1.5-0.1-2,0.1c-0.7,0.3-0.9,1-1.8,3.1
			c-0.3,0.7-0.7,1.3-1.3,1.6c-0.4,0.2-2.3,0.3-3.1-0.3c-0.2-0.2-0.9-1.4-1.2-2.2c-0.4-1-0.7-2.1-1.6-2.3c-0.1,0-0.6-0.2-1.4-0.1
			c-1.4,0.1-1.8,0.1-2-0.1c-0.2-0.3,0-1,0.1-1.1c0.8-1.1,1.8-1.3,2-1.9c0.1-0.5-0.5-1-1.5-1.5c-0.7-0.3-1.3-0.6-1.8-0.4
			c-0.4,0.2-1.2,0.5-1.6,0.6c-1.3,0.1-1.7,0.3-3.7-0.4c-1-0.3-1.9-2.2-1.6-3.5c0.3-1.2,1-1.3,1-2.5c0-0.9-0.1-0.9-0.2-1.9
			c-0.1-1.2,0.6-2.4,1.7-2.8c0.6-0.2,0.8-0.2,2-0.6c0.5-0.2,0.6-0.4,0.8-0.7c0.2-0.7-0.1-0.4,0.1-1.7c0.1-0.6,0-1.7,2.3-1.9
			c1.7-0.1,1.3-2.4,2.5-2.9c0.9-0.4,1.6,0.1,2.6-0.3c1.4-0.6,0.7-0.9,1.5-1.5c1.5-1.2,3.1-0.6,4.1,0c0.6,0.4,0.6,1,1,1.3
			c0.9,0.8,2.5,0,3.4,0.6c0.7,0.5,0.7,2.2,1.7,2.7c0.9,0.4,1.3,0,2.3,0.6c0.8,0.5,0.5,0.9,0.7,2.1c0.1,0.3-0.1,0.8,0.1,1.3
			c0.2,0.4,1.4,0.7,2.8,1.2c0.6,0.3,1.4,1.3,1.5,2.1c0.1,1.3-0.5,2.1-0.2,3.1c0.3,0.8,0.5,0.8,0.9,1.7c0.3,0.8-0.1,2.3-0.8,3.2
			c-0.5,0.6-2.1,1.1-3.4,1c-1.6-0.1-2.6-0.7-3.1-0.8c-0.6-0.1-2.9,1-2.9,1.8C289.2,381.6,290.5,381.9,291.2,382.9z"/>
	</g>
	<g>
		<path class="st0" d="M242,245.1c1.3-1.3-1.4-4-1.1-8.5c0.2-4.5,3.2-8.6,6.7-10.8c5-3.1,11.5-2.6,12-1.1c0.3,0.9-2,1.8-5.2,5.2
			c-0.5,0.6-3.7,4-5,7.5c-2.9,7.8,3.7,15.2,1.5,16.9c-1.5,1.2-4.2-2.6-10.1-2.9c-5.6-0.3-10.1,2.8-11.5,3.7c-4.9,3.3-6,6.9-7.3,6.5
			c-1.7-0.6-2.1-7.7,1.5-12.5c2.4-3.1,6.3-5,10.1-5.1C238.2,243.8,240.8,246.3,242,245.1z"/>
		<path class="st0" d="M223.6,229.7c-4.3,0.5-5.1,0.5-7.4,1.2c-4,1.2-7.1,5.2-6.3,7.5c0,0.1,0.4,1,1.2,1.4c1.2,0.5,2.6-0.7,3.3-1.2
			c4.3-2.9,10.3-2,17.5-0.4c3.4,0.7,4.2,0.5,2.8-3.5c-0.6-1.7-1.4-5-0.3-11.9c0.3-1.8,1.3-3.6,1.5-5.2c0.1-1.1-0.5-2.4-1.6-2.8
			c-2.1-0.8-5.2,3.3-6.2,5.1c-0.9,1.6-1.8,4.4-1.7,7C226.6,230.1,225.4,229.5,223.6,229.7z"/>
	</g>
	<g>
		<path class="st0" d="M180.6,283.2c-0.4,0.4-0.5,1.3-0.2,1.9c0.4,0.9,1.4,0.3,2.4,1.3c1.2,1.2,0.7,3,1.1,3.1c0.4,0.1,1.3-1.4,1-2.6
			c-0.4-1.4-2.3-1.5-2.4-2.5c0-0.5,0.8-1,1.7-1.8c0.8-0.7,0.6-2.7,0.1-2.8c-0.4,0-0.9,1.5-1.7,2.1
			C182.1,282.4,181.1,282.8,180.6,283.2z"/>
		<path class="st0" d="M184.5,284.6c0,0.7,1.6,1.1,2.2,1.2c0.7,0,2.6-0.2,2.6-1.1c0-0.7-1.7-1.5-2.5-1.5
			C186.1,283.1,184.5,283.7,184.5,284.6z"/>
		<path class="st0" d="M193.2,293c1.5,0.4,2.8-0.5,3-1.8c0.4-2.1-0.3-2.9-0.3-2.9s1.3,0.2,2.4-0.7c1.4-1.1,1.2-4.9,0.1-6
			c-1.2-1.2-2.4-0.9-2.4-0.9s0.9-0.9,0.8-2.4c-0.1-1.2-1.5-2.6-2.8-2.5c-3.7,0.4-7.5,5.2-7.2,5.8c0.3,0.5,1.1,0,2.8,0.7
			c1.2,0.4,2.4,1.2,2.5,2.3c0,1.1-1.7,1.8-2.4,2c-1.8,0.5-2.5,0.3-2.8,0.8C186.3,288,190,292.2,193.2,293z"/>
		<path class="st0" d="M188.9,294.4c-0.8,0.7-1,3.1,0,4c0.2,0.1,0.6,0.4,1.3,0.5c1,0.1,1.7-0.6,2.9-0.8c0.6-0.1,1.2-0.4,2.3-0.1
			c0.8,0.2,1.4-0.3,1.6-0.6c0.8-0.9,0.5-2,1.2-2.6c0.4-0.4,1.5-0.5,2.4-0.6c0.6,0,1.4-0.6,1.6-1.2c0.3-0.9,0.3-2-0.6-2.9
			c-0.4-0.4-0.9-0.6-1.3-0.6c-0.6-0.1-1.6-0.1-2.2,0.8c-0.6,0.9-0.4,1.4-0.5,2.2c-0.1,0.4-0.4,0.9-1.4,1.6c-0.4,0.3-1.1,0.4-1.7,0.6
			c-0.9,0.3-1.4,0.1-1.8,0c-1-0.2-1.2-0.8-2.5-0.9C189.5,294,189.1,294.2,188.9,294.4z"/>
		<path class="st0" d="M201,288.6c1.5,0.1,1.5,0.5,2.2,2.2c0.3,0.6,1.8-0.6,1.9-1.3c0.1-0.8-0.2-1.6,0-2.1c0.3-0.7,1.2-0.2,1.9-1
			c0.6-0.8,0.6-2.7,0.1-3.5c-0.5-0.9-2-0.4-2-1.4c0-0.6,0.2-1.4,0.1-2c-0.2-0.7-0.8-1.3-1.6-1.5c-0.5-0.1-0.4,1.1-1,1.8
			c-0.5,0.6-1.2,0.5-1.8,0.7c-0.3,0.1,0,1,0.4,1.5c0.5,0.5,0.9,1.3,1.1,1.8c0.1,0.3,0.1,0.4,0,1c-0.1,0.7-1,1.8-1.5,2.7
			c-0.1,0.1-0.2,0.7-0.1,0.9C200.7,288.5,200.9,288.6,201,288.6z"/>
		<path class="st0" d="M188.9,274.4c-0.8-0.7-1-3.1,0-4c0.2-0.1,0.6-0.4,1.3-0.5c1-0.1,1.7,0.6,2.9,0.8c0.6,0.1,1.2,0.4,2.3,0.1
			c0.8-0.2,1.4,0.3,1.6,0.6c0.8,0.9,0.5,2,1.2,2.6c0.4,0.4,1.5,0.5,2.4,0.6c0.6,0,1.4,0.6,1.6,1.2c0.3,0.9,0.3,2-0.6,2.9
			c-0.4,0.4-0.9,0.6-1.3,0.6c-0.6,0.1-1.6,0.1-2.2-0.8c-0.6-0.9-0.4-1.4-0.5-2.2c-0.1-0.4-0.4-0.9-1.4-1.6c-0.4-0.3-1.1-0.4-1.7-0.6
			c-0.9-0.3-1.4-0.1-1.8,0c-1,0.2-1.2,0.8-2.5,0.8C189.6,274.8,189.1,274.6,188.9,274.4z"/>
		<path class="st0" d="M184.1,292.2c-0.6,0.5-1,0.4-1.2,0.3c-0.2-0.2-0.2-0.6-0.1-1.6c0.1-0.9,0.1-1.5-0.1-2c-0.3-0.7-1-0.9-3.1-1.8
			c-0.7-0.3-1.3-0.7-1.6-1.3c-0.2-0.4-0.3-2.3,0.4-3.1c0.2-0.2,1.4-0.9,2.2-1.2c1-0.4,2.1-0.7,2.3-1.6c0-0.1,0.2-0.6,0.1-1.4
			c-0.1-1.4-0.1-1.8,0.1-2c0.3-0.2,1,0,1.1,0.1c1.1,0.8,1.3,1.9,1.9,2c0.5,0.1,1-0.5,1.5-1.5c0.3-0.7,0.6-1.3,0.4-1.8
			c-0.2-0.4-0.5-1.2-0.6-1.6c-0.1-1.3-0.3-1.7,0.4-3.7c0.3-1,2.2-1.9,3.6-1.6c1.2,0.3,1.3,1,2.5,1c0.9,0,0.9-0.1,1.9-0.2
			c1.2-0.1,2.4,0.6,2.8,1.7c0.2,0.6,0.2,0.8,0.6,2c0.2,0.5,0.4,0.7,0.7,0.8c0.7,0.2,0.4-0.1,1.7,0.1c0.6,0.1,1.7,0,1.9,2.3
			c0.1,1.7,2.4,1.3,2.9,2.5c0.4,0.9-0.1,1.6,0.3,2.6c0.6,1.4,0.9,0.7,1.5,1.5c1.2,1.5,0.6,3.1,0,4.1c-0.4,0.6-1,0.6-1.3,1
			c-0.8,0.9,0,2.5-0.7,3.4c-0.5,0.7-2.2,0.7-2.7,1.7c-0.4,0.9,0,1.3-0.6,2.3c-0.5,0.8-0.9,0.5-2.1,0.7c-0.3,0.1-0.8-0.1-1.3,0.1
			c-0.4,0.2-0.7,1.4-1.2,2.8c-0.3,0.6-1.3,1.4-2.1,1.4c-1.3,0.1-2.1-0.5-3.1-0.2c-0.8,0.3-0.8,0.5-1.7,0.9c-0.8,0.3-2.3-0.1-3.2-0.8
			c-0.6-0.5-1.1-2.1-1-3.4c0.1-1.6,0.7-2.6,0.8-3.1c0.1-0.6-1-2.9-1.8-2.9C185.4,290.3,185,291.5,184.1,292.2z"/>
	</g>
	<g>
		<path class="st0" d="M323.2,323.9c-1.3,1.3,1.4,4,1.1,8.5c-0.2,4.5-3.2,8.6-6.7,10.8c-5,3.1-11.5,2.6-12,1.1
			c-0.3-0.9,2-1.8,5.2-5.2c0.5-0.6,3.7-4,5-7.5c2.9-7.8-3.7-15.2-1.5-16.9c1.5-1.2,4.2,2.6,10.1,2.9c5.6,0.3,10.1-2.8,11.5-3.7
			c4.9-3.3,6-6.9,7.3-6.5c1.7,0.6,2.1,7.7-1.5,12.5c-2.4,3.1-6.3,5-10.1,5.1C327,325.2,324.4,322.7,323.2,323.9z"/>
		<path class="st0" d="M341.5,339.3c4.3-0.5,5.1-0.5,7.4-1.2c4-1.2,7.1-5.2,6.3-7.5c0-0.1-0.4-1-1.2-1.4c-1.2-0.5-2.6,0.7-3.3,1.2
			c-4.3,2.9-10.3,2-17.5,0.4c-3.4-0.7-4.2-0.5-2.8,3.5c0.6,1.7,1.4,5,0.3,11.9c-0.3,1.8-1.3,3.6-1.5,5.2c-0.1,1.1,0.5,2.4,1.6,2.8
			c2.1,0.8,5.2-3.3,6.2-5.1c0.9-1.6,1.8-4.4,1.7-7C338.6,338.9,339.8,339.5,341.5,339.3z"/>
	</g>
	<g>
		<path class="st0" d="M386.6,285.2c0.4-0.4,0.5-1.3,0.2-1.9c-0.4-0.9-1.4-0.3-2.4-1.3c-1.2-1.2-0.7-3-1.1-3.1
			c-0.4-0.1-1.3,1.4-1,2.6c0.4,1.4,2.3,1.5,2.4,2.5c0,0.5-0.8,1-1.7,1.8c-0.8,0.7-0.6,2.7-0.1,2.8c0.4,0,0.9-1.5,1.7-2.1
			C385.1,286.1,386.1,285.7,386.6,285.2z"/>
		<path class="st0" d="M382.7,283.9c0-0.7-1.6-1.1-2.2-1.2c-0.7,0-2.6,0.2-2.6,1.1c0,0.7,1.7,1.5,2.5,1.5
			C381.1,285.3,382.7,284.7,382.7,283.9z"/>
		<path class="st0" d="M374,275.5c-1.5-0.4-2.8,0.5-3,1.8c-0.4,2.1,0.3,2.9,0.3,2.9s-1.3-0.2-2.4,0.7c-1.4,1.1-1.2,4.9-0.1,6
			c1.2,1.2,2.4,0.9,2.4,0.9s-0.9,0.9-0.8,2.4c0.1,1.2,1.5,2.6,2.8,2.5c3.7-0.4,7.5-5.2,7.2-5.8c-0.3-0.5-1.1,0-2.8-0.7
			c-1.2-0.4-2.4-1.2-2.5-2.3c0-1.1,1.7-1.8,2.4-2c1.8-0.5,2.5-0.3,2.8-0.8C380.9,280.5,377.2,276.2,374,275.5z"/>
		<path class="st0" d="M378.4,274.1c0.8-0.7,1-3.1,0-4c-0.2-0.1-0.6-0.4-1.3-0.5c-1-0.1-1.7,0.6-2.9,0.8c-0.6,0.1-1.2,0.4-2.3,0.1
			c-0.8-0.2-1.4,0.3-1.6,0.6c-0.8,0.9-0.5,2-1.2,2.6c-0.4,0.4-1.5,0.5-2.4,0.6c-0.6,0-1.4,0.6-1.6,1.2c-0.3,0.9-0.3,2,0.6,2.9
			c0.4,0.4,0.9,0.6,1.3,0.6c0.6,0.1,1.6,0.1,2.2-0.8c0.6-0.9,0.4-1.4,0.5-2.2c0.1-0.4,0.4-0.9,1.4-1.6c0.4-0.3,1.1-0.4,1.7-0.6
			c0.9-0.3,1.4-0.1,1.8,0c1,0.2,1.2,0.8,2.5,0.9C377.7,274.5,378.1,274.2,378.4,274.1z"/>
		<path class="st0" d="M366.2,279.9c-1.5-0.1-1.5-0.5-2.2-2.2c-0.3-0.6-1.8,0.6-1.9,1.3c-0.1,0.8,0.2,1.6,0,2.1
			c-0.3,0.7-1.2,0.2-1.9,1c-0.6,0.8-0.6,2.7-0.1,3.5c0.5,0.9,2,0.4,2,1.4c0,0.6-0.2,1.4-0.1,2c0.2,0.7,0.8,1.3,1.6,1.5
			c0.5,0.1,0.4-1.1,1-1.8c0.5-0.6,1.2-0.5,1.8-0.7c0.3-0.1,0-1-0.4-1.5c-0.5-0.5-0.9-1.3-1.1-1.8c-0.1-0.3-0.1-0.4,0-1
			c0.1-0.7,1-1.8,1.5-2.7c0.1-0.1,0.2-0.7,0.1-0.9C366.5,279.9,366.3,279.9,366.2,279.9z"/>
		<path class="st0" d="M378.3,294.1c0.8,0.7,1,3.1,0,4c-0.2,0.1-0.6,0.4-1.3,0.5c-1,0.1-1.7-0.6-2.9-0.8c-0.6-0.1-1.2-0.4-2.3-0.1
			c-0.8,0.2-1.4-0.3-1.6-0.6c-0.8-0.9-0.5-2-1.2-2.6c-0.4-0.4-1.5-0.5-2.4-0.6c-0.6,0-1.4-0.6-1.6-1.2c-0.3-0.9-0.3-2,0.6-2.9
			c0.4-0.4,0.9-0.6,1.3-0.6c0.6-0.1,1.6-0.1,2.2,0.8c0.6,0.9,0.4,1.4,0.5,2.2c0.1,0.4,0.4,0.9,1.4,1.6c0.4,0.3,1.1,0.4,1.7,0.6
			c0.9,0.3,1.4,0.1,1.8,0c1-0.2,1.2-0.8,2.5-0.8C377.6,293.6,378.1,293.9,378.3,294.1z"/>
		<path class="st0" d="M383.2,276.3c0.6-0.5,1-0.4,1.2-0.3c0.2,0.2,0.2,0.6,0.1,1.6c-0.1,0.9-0.1,1.5,0.1,2c0.3,0.7,1,0.9,3.1,1.8
			c0.7,0.3,1.3,0.7,1.6,1.3c0.2,0.4,0.3,2.3-0.4,3.1c-0.2,0.2-1.4,0.9-2.2,1.2c-1,0.4-2.1,0.7-2.3,1.6c0,0.1-0.2,0.6-0.1,1.4
			c0.1,1.4,0.1,1.8-0.1,2c-0.3,0.2-1,0-1.1-0.1c-1.1-0.8-1.3-1.9-1.9-2c-0.5-0.1-1,0.5-1.5,1.5c-0.3,0.7-0.6,1.3-0.4,1.8
			c0.2,0.4,0.5,1.2,0.6,1.6c0.1,1.3,0.3,1.7-0.4,3.7c-0.3,1-2.2,1.9-3.6,1.6c-1.2-0.3-1.3-1-2.5-1c-0.9,0-0.9,0.1-1.9,0.2
			c-1.2,0.1-2.4-0.6-2.8-1.7c-0.2-0.6-0.2-0.8-0.6-2c-0.2-0.5-0.4-0.7-0.7-0.8c-0.7-0.2-0.4,0.1-1.7-0.1c-0.6-0.1-1.7,0-1.9-2.3
			c-0.1-1.7-2.4-1.3-2.9-2.5c-0.4-0.9,0.1-1.6-0.3-2.6c-0.6-1.4-0.9-0.7-1.5-1.5c-1.2-1.5-0.6-3.1,0-4.1c0.4-0.6,1-0.6,1.3-1
			c0.8-0.9,0-2.5,0.7-3.4c0.5-0.7,2.2-0.7,2.7-1.7c0.4-0.9,0-1.3,0.6-2.3c0.5-0.8,0.9-0.5,2.1-0.7c0.3-0.1,0.8,0.1,1.3-0.1
			c0.4-0.2,0.7-1.4,1.2-2.8c0.3-0.6,1.3-1.4,2.1-1.4c1.3-0.1,2.1,0.5,3.1,0.2c0.8-0.3,0.8-0.5,1.7-0.9c0.8-0.3,2.3,0.1,3.2,0.8
			c0.6,0.5,1.1,2.1,1,3.4c-0.1,1.6-0.7,2.6-0.8,3.1c-0.1,0.6,1,2.9,1.8,2.9C381.8,278.2,382.2,277,383.2,276.3z"/>
	</g>
	<path class="st0" d="M279.4,238.8c0,0,3.2-2,3.4-4.2c0-0.1,0.2-0.1,0.2,0c1.3,2.8,3.7,4.2,3.7,4.2c0.2,0.2,0.2,0.5,0.1,0.7
		c0,0-2.1,1.8-3.8,6.3c0,0.1-0.2,0.1-0.2,0c-0.9-3.4-3.5-6.2-3.5-6.2C279.2,239.3,279.2,239,279.4,238.8z"/>
	<path class="st0" d="M279.5,329.1c0,0,3.2,2,3.4,4.2c0,0.1,0.2,0.1,0.2,0c1.3-2.8,3.7-4.2,3.7-4.2c0.2-0.2,0.2-0.5,0.1-0.7
		c0,0-2.1-1.8-3.8-6.3c0-0.1-0.2-0.1-0.2,0c-0.9,3.4-3.5,6.2-3.5,6.2C279.3,328.5,279.3,328.8,279.5,329.1z"/>
	<path class="st0" d="M328.6,280.7c0,0,2,3.2,4.2,3.4c0.1,0,0.1,0.2,0,0.2c-2.8,1.3-4.2,3.7-4.2,3.7c-0.2,0.2-0.5,0.2-0.7,0.1
		c0,0-1.8-2.1-6.2-3.8c-0.1,0-0.1-0.2,0-0.2c3.4-0.9,6.2-3.4,6.2-3.4C328,280.5,328.3,280.6,328.6,280.7z"/>
	<path class="st0" d="M237.8,280.9c0,0-2,3.2-4.2,3.4c-0.1,0-0.1,0.2,0,0.2c2.8,1.3,4.2,3.7,4.2,3.7c0.2,0.2,0.5,0.2,0.7,0.1
		c0,0,1.8-2.1,6.2-3.8c0.1,0,0.1-0.2,0-0.2c-3.4-0.9-6.2-3.4-6.2-3.4C238.3,280.7,238,280.7,237.8,280.9z"/>
	<g>
		<path class="st0" d="M285.8,228c-0.8,0-1.6-0.8-1.9-1.3c-0.5-1-0.4-2,0.5-3c2.9-3.3,6.5-5.7,9.3-8.7c2.7-2.9,4.7-6,6.5-12
			c1.6-5.4,2-9.2,2-14.1c0-1.6-0.5-5,0.1-5.6c0.4-0.4,1.2,0,2.4,1.2c3.8,3.6,5.8,7.2,6,11.8c0.2,5.6-0.5,10.7-0.5,10.7
			s0.9-1.5,5.4-4.8c4.6-3.4,11.8-5,18.5-3.1c4.2,1.2,6.9,5.1,3.8,6c-0.3,0.1-2.1,0.7-3.8,1.3c-2.9,1.1-5.8,3.2-6.9,4.1
			c-2.1,1.6-4.1,4.2-6.1,6c-5.3,4.7-9.3,4.9-9.3,4.9s1.9-1.2,3.3-3.3c1.3-2,3.9-4.4,7.4-7.3c1.5-1.3,3.5-3.1,5.1-4.2
			c1.3-0.9,3.9-2.1,4.2-2.8c0.3-0.8-1.9-0.9-2.4-0.9c-2.4,0-4.2-0.1-8.1,0.8c-4.6,1.1-6.8,2.5-8.2,3.4c-4,2.5-6.1,5.6-6.1,5.6
			s0.5-1.7,1.1-6.3c0.8-5.6-0.6-9-1.1-9.2c-0.6-0.2-0.8,3.4-1.7,5.9c-1.5,3.9-1.9,5.4-3.2,7.6c-0.8,1.4-2.4,3.7-5.1,6.6
			c-3.7,4.1-7.1,5.8-10,9.4C286.3,227,285.8,228,285.8,228z"/>
		<path class="st0" d="M299.4,223.7c-5.2,5.2-8.6,5.2-8.6,5.2s5.1,0.3,9.6-2.6c2.2-1.4,6.1-6,6.1-6c-1.9-1.9-1-5.4-1-5.4
			S301.5,221.7,299.4,223.7z"/>
		<path class="st0" d="M279.7,227.9c0.8,0,1.6-0.8,1.9-1.3c0.5-1,0.4-2-0.5-3c-2.9-3.3-6.5-5.7-9.3-8.7c-2.7-2.9-4.7-6-6.5-12
			c-1.6-5.4-2-9.2-2-14.1c0-1.6,0.5-5-0.1-5.6c-0.4-0.4-1.2,0-2.4,1.2c-3.8,3.6-5.8,7.2-6,11.8c-0.2,5.6,0.5,10.7,0.5,10.7
			s-0.9-1.5-5.4-4.8c-4.6-3.4-11.8-5-18.5-3.1c-4.2,1.2-6.9,5.1-3.8,6c0.3,0.1,2.1,0.7,3.8,1.3c2.9,1.1,5.8,3.2,6.9,4.1
			c2.1,1.6,4.1,4.2,6.1,6c5.3,4.7,9.3,4.9,9.3,4.9s-1.9-1.2-3.3-3.3c-1.3-2-3.9-4.4-7.4-7.3c-1.5-1.3-3.5-3.1-5.1-4.2
			c-1.3-0.9-3.9-2.1-4.2-2.8c-0.3-0.8,1.9-0.9,2.4-0.9c2.4,0,4.2-0.1,8.1,0.8c4.6,1.1,6.8,2.5,8.2,3.4c4,2.5,6.1,5.6,6.1,5.6
			s-0.5-1.7-1.1-6.3c-0.8-5.6,0.6-9,1.1-9.2c0.6-0.2,0.8,3.4,1.7,5.9c1.5,3.9,1.9,5.4,3.2,7.6c0.8,1.4,2.4,3.7,5.1,6.6
			c3.7,4.1,7.1,5.8,10,9.4C279.2,227,279.7,227.9,279.7,227.9z"/>
		<path class="st0" d="M266.1,223.7c5.2,5.2,8.6,5.2,8.6,5.2s-5.1,0.3-9.6-2.6c-2.2-1.4-6.1-6-6.1-6c1.9-1.9,1-5.4,1-5.4
			S264,221.6,266.1,223.7z"/>
	</g>
	<path class="st0" d="M285.3,276.7c0,0-1.9-4.6,2.6-12.3c1.4-2.4,5-6.1,7-6.7c2.3-0.7,3.8,1,3.3,4.6c-0.4,2.4-3.4,6.9-8.3,11.5
		c-2.3,2.1-3.7,3.3-3.7,3.3c0,0,0.7-0.1,2.5,1.8c1.4,1.6,1.7,2.7,1.7,2.7s0.4-1,0.6-1.4c0.3-0.8,0.7-1.6,2.2-3.5
		c3.9-4.8,8.3-7.6,11-8.2c1.2-0.3,5.9-1.2,4.5,3.6c-1.1,3.7-8.6,8.1-9.9,8.6c-5.4,2.2-8,2.1-8,2.1c0,0,0.3,0.5,0.3,1.2
		c0,0.8-0.1,1.2-0.1,1.2s4.5,0,9.5,2.3c2.2,1,5.2,3.5,7.3,6.2c4.1,5.4-0.2,7.7-3.8,6c-3.1-1.5-5.9-4-7.8-6.4c-3.7-4.8-5.4-7-5.4-7
		c0,0,0.1,1.1-1.7,3.2c-1.4,1.6-2.7,1.7-2.7,1.7c3.2,1.8,5,2.6,7.6,5.9c3.7,4.8,5.3,10.8,2.9,12c-2,1-4.1,0.5-7.2-4
		c-1.6-2.4-3.2-4.9-4.3-8.7c-0.6-2,0-4.9,0-4.9s-2,3.2-1.5,4.9c1,4,1.1,4.2,2.8,8.7c0.6,1.6,2.3,5.5,6.7,7.5
		c3.4,1.5,6.1,1.2,7.5-1.6c2.9-5.8-0.6-9.1,0.2-10c0.7-0.8,4.1,2.5,8.3,1.9c3.4-0.5,4.8-2.1,4.8-3.8c0.3-6.1-7.3-12.5-18-14.7
		c-0.5-0.1-1-0.9,0-1.2c2.7-0.9,7.6-2.4,9.6-3.7c2.8-1.9,8.9-7.4,7.2-11.2c-1-2.3-3-2.9-4.4-3.1c-3.8-0.6-6.9,1.8-7.6,1.2
		c-1-0.9,2.1-3.4,1.1-8.7c-0.7-3.8-2.5-4.4-3.4-4.5c-4.1-0.6-9.1,4-10.8,6.9c-4.4,7.8-3.9,10.8-4.9,10.9c-1.4,0.1-2.4-7.2-5.1-10.6
		c-1.9-2.4-4.2-5.2-7.8-6.1c-4.3-1-5.9,2.9-5.9,6.5c0,2.5,2,4.5,1.3,5.3c-0.9,1.1-5.8-2.4-9.2-1c-3.5,1.5-4.2,5-2,8.6
		c2.5,4.1,5,5.4,7.8,6.9c5,2.7,8.1,2.4,8.1,3.4c0,0.9-9.3,2.5-13.7,7.7c-1.3,1.5-3.4,5.5-3.2,7.5c0.3,2.4,1,3,3.5,3.6
		c3.5,0.8,7.6-2.3,9.3-1.7c1.4,0.5-0.9,3.1-1.2,6.9c-0.1,1.7-0.5,5.1,1.4,6.1c1.8,0.9,5.4,0.1,8.7-2.7c3.4-3,4.5-4.9,5.7-7.6
		c3.6-8,0.9-12.2,0.9-12.2c0.1,3.3-0.3,5.5-3.1,10.7c-1.4,2.6-3.8,6.5-6.7,7c-2.8,0.5-3.4-1.7-3.4-2.9c0-1.9,2-6.7,4.5-9.7
		c3.4-4.2,6.7-5.3,6.7-5.3c-1-0.6-2-1.3-3.2-2.8c-0.8-1-1.3-3.2-1.3-3.1c-1,2.5-1.7,3.8-3.7,6.4c-2.4,3-6.8,7.2-9.6,7.9
		c-5.7,1.2-5-3.3-3.4-5.6c2.6-3.6,4.3-5.1,7.8-6.9c4.2-2.2,8.8-2.8,8.8-2.8c0,0,0-0.4,0-0.8c0-0.3,0.1-0.8,0.1-0.8
		c-5.5-0.4-7.6-1.3-9.7-2.6c-3.9-2.3-7-6-7.8-8c-2.1-5.1,3.2-4.7,5-3.8c1.1,0.6,4.8,3.1,6.5,5c3.5,3.8,6.4,8.2,6.4,8.2
		c0.5-1,1.3-2.5,2-3.1c1.5-1.4,2.5-1.7,2.5-1.7s-3.7-1.4-7-5.8c-4-5.2-4-6.7-4.4-8.6c-1-4.9,3-4.6,5.5-2.9c2,1.4,2.8,2.5,4.9,7
		c1.5,3.3,2.4,5.4,2.6,7.4c0.1,1.3-0.1,2.4-0.1,2.4s0.4-0.1,2-0.1C284.5,276.3,285.3,276.7,285.3,276.7z"/>
	<g>
		<path class="st0" d="M286,340.2c-0.8,0-1.6,0.8-1.9,1.3c-0.5,1-0.4,2,0.5,3c2.9,3.3,6.5,5.7,9.3,8.7c2.7,2.9,4.7,6,6.5,12
			c1.6,5.4,2,9.2,2,14.1c0,1.6-0.5,5,0.1,5.6c0.4,0.4,1.2,0,2.4-1.2c3.8-3.6,5.8-7.2,6-11.8c0.2-5.6-0.5-10.7-0.5-10.7
			s0.9,1.5,5.4,4.8c4.6,3.4,11.8,5,18.5,3.1c4.2-1.2,6.9-5.1,3.8-6c-0.3-0.1-2.1-0.7-3.8-1.3c-2.9-1.1-5.8-3.2-6.9-4.1
			c-2.1-1.6-4.1-4.2-6.1-6c-5.3-4.7-9.3-4.9-9.3-4.9s1.9,1.2,3.3,3.3c1.3,2,3.9,4.4,7.4,7.3c1.5,1.3,3.5,3.1,5.1,4.2
			c1.3,0.9,3.9,2.1,4.2,2.8c0.3,0.8-1.9,0.9-2.4,0.9c-2.4,0-4.2,0.1-8.1-0.8c-4.6-1.1-6.8-2.5-8.2-3.4c-4-2.5-6.1-5.6-6.1-5.6
			s0.5,1.7,1.1,6.3c0.8,5.6-0.6,9-1.1,9.2c-0.6,0.2-0.8-3.4-1.7-5.9c-1.5-3.9-1.9-5.4-3.2-7.6c-0.8-1.4-2.4-3.7-5.1-6.6
			c-3.7-4.1-7.1-5.8-10-9.4C286.5,341.1,286,340.2,286,340.2z"/>
		<path class="st0" d="M299.6,344.4c-5.2-5.2-8.6-5.2-8.6-5.2s5.1-0.3,9.6,2.6c2.2,1.4,6.1,6,6.1,6c-1.9,1.9-1,5.4-1,5.4
			S301.7,346.4,299.6,344.4z"/>
		<path class="st0" d="M279.9,340.2c0.8,0,1.6,0.8,1.9,1.3c0.5,1,0.4,2-0.5,3c-2.9,3.3-6.5,5.7-9.3,8.7c-2.7,2.9-4.7,6-6.5,12
			c-1.6,5.4-2,9.2-2,14.1c0,1.6,0.5,5-0.1,5.6c-0.4,0.4-1.2,0-2.4-1.2c-3.8-3.6-5.8-7.2-6-11.8c-0.2-5.6,0.5-10.7,0.5-10.7
			s-0.9,1.5-5.4,4.8c-4.6,3.4-11.8,5-18.5,3.1c-4.2-1.2-6.9-5.1-3.8-6c0.3-0.1,2.1-0.7,3.8-1.3c2.9-1.1,5.8-3.2,6.9-4.1
			c2.1-1.6,4.1-4.2,6.1-6c5.3-4.7,9.3-4.9,9.3-4.9s-1.9,1.2-3.3,3.3c-1.3,2-3.9,4.4-7.4,7.3c-1.5,1.3-3.5,3.1-5.1,4.2
			c-1.3,0.9-3.9,2.1-4.2,2.8c-0.3,0.8,1.9,0.9,2.4,0.9c2.4,0,4.2,0.1,8.1-0.8c4.6-1.1,6.8-2.5,8.2-3.4c4-2.5,6.1-5.6,6.1-5.6
			s-0.5,1.7-1.1,6.3c-0.8,5.6,0.6,9,1.1,9.2c0.6,0.2,0.8-3.4,1.7-5.9c1.5-3.9,1.9-5.4,3.2-7.6c0.8-1.4,2.4-3.7,5.1-6.6
			c3.7-4.1,7.1-5.8,10-9.4C279.4,341.1,279.9,340.2,279.9,340.2z"/>
		<path class="st0" d="M266.3,344.4c5.2-5.2,8.6-5.2,8.6-5.2s-5.1-0.3-9.6,2.6c-2.2,1.4-6.1,6-6.1,6c1.9,1.9,1,5.4,1,5.4
			S264.2,346.5,266.3,344.4z"/>
	</g>
	<g>
		<path class="st0" d="M339.2,287.7c0-0.8,0.8-1.6,1.3-1.9c1-0.5,2-0.4,3,0.5c3.3,2.9,5.7,6.5,8.7,9.3c2.9,2.7,6,4.7,12,6.5
			c5.4,1.6,9.2,2,14.1,2c1.6,0,5-0.5,5.6,0.1c0.4,0.4,0,1.2-1.2,2.4c-3.6,3.8-7.2,5.8-11.8,6c-5.6,0.2-10.7-0.5-10.7-0.5
			s1.5,0.9,4.8,5.4c3.4,4.6,5,11.8,3.1,18.5c-1.2,4.2-5.1,6.9-6,3.8c-0.1-0.3-0.7-2.1-1.3-3.8c-1.1-2.9-3.2-5.8-4.1-6.9
			c-1.6-2.1-4.2-4.1-6-6.1c-4.7-5.3-4.9-9.3-4.9-9.3s1.2,1.9,3.3,3.3c2,1.3,4.4,3.9,7.3,7.4c1.3,1.5,3.1,3.5,4.2,5.1
			c0.9,1.3,2.1,3.9,2.8,4.2c0.8,0.3,0.9-1.9,0.9-2.4c0-2.4,0.1-4.2-0.8-8.1c-1.1-4.6-2.5-6.8-3.4-8.2c-2.5-4-5.6-6.1-5.6-6.1
			s1.7,0.5,6.3,1.1c5.6,0.8,9-0.6,9.2-1.1c0.2-0.6-3.4-0.8-5.9-1.7c-3.9-1.5-5.4-1.9-7.6-3.2c-1.4-0.8-3.7-2.4-6.6-5.1
			c-4.1-3.7-5.8-7.1-9.4-10C340.1,288.1,339.2,287.7,339.2,287.7z"/>
		<path class="st0" d="M343.4,301.3c-5.2-5.2-5.2-8.6-5.2-8.6s-0.3,5.1,2.6,9.6c1.4,2.2,6,6.1,6,6.1c1.9-1.9,5.4-1,5.4-1
			S345.5,303.3,343.4,301.3z"/>
		<path class="st0" d="M339.2,281.6c0,0.8,0.8,1.6,1.3,1.9c1,0.5,2,0.4,3-0.5c3.3-2.9,5.7-6.5,8.7-9.3c2.9-2.7,6-4.7,12-6.5
			c5.4-1.6,9.2-2,14.1-2c1.6,0,5,0.5,5.6-0.1c0.4-0.4,0-1.2-1.2-2.4c-3.6-3.8-7.2-5.8-11.8-6c-5.6-0.2-10.7,0.5-10.7,0.5
			s1.5-0.9,4.8-5.4c3.4-4.6,5-11.8,3.1-18.5c-1.2-4.2-5.1-6.9-6-3.8c-0.1,0.3-0.7,2.1-1.3,3.8c-1.1,2.9-3.2,5.8-4.1,6.9
			c-1.6,2.1-4.2,4.1-6,6.1c-4.7,5.3-4.9,9.3-4.9,9.3s1.2-1.9,3.3-3.3c2-1.3,4.4-3.9,7.3-7.4c1.3-1.5,3.1-3.5,4.2-5.1
			c0.9-1.3,2.1-3.9,2.8-4.2c0.8-0.3,0.9,1.9,0.9,2.4c0,2.4,0.1,4.2-0.8,8.1c-1.1,4.6-2.5,6.8-3.4,8.2c-2.5,4-5.6,6.1-5.6,6.1
			s1.7-0.5,6.3-1.1c5.6-0.8,9,0.6,9.2,1.1c0.2,0.6-3.4,0.8-5.9,1.7c-3.9,1.5-5.4,1.9-7.6,3.2c-1.4,0.8-3.7,2.4-6.6,5.1
			c-4.1,3.7-5.8,7.1-9.4,10C340.2,281.1,339.2,281.5,339.2,281.6z"/>
		<path class="st0" d="M343.5,267.9c-5.2,5.2-5.2,8.6-5.2,8.6s-0.3-5.1,2.6-9.6c1.4-2.2,6-6.1,6-6.1c1.9,1.9,5.4,1,5.4,1
			S345.5,265.9,343.5,267.9z"/>
	</g>
	<g>
		<path class="st0" d="M225,287.2c0-0.8-0.8-1.6-1.3-1.9c-1-0.5-2-0.4-3,0.5c-3.3,2.9-5.7,6.5-8.7,9.3c-2.9,2.7-6,4.7-12,6.5
			c-5.4,1.6-9.2,2-14.1,2c-1.6,0-5-0.5-5.6,0.1c-0.4,0.4,0,1.2,1.2,2.4c3.6,3.8,7.2,5.8,11.8,6c5.6,0.2,10.7-0.5,10.7-0.5
			s-1.5,0.9-4.8,5.4c-3.4,4.6-5,11.8-3.1,18.5c1.2,4.2,5.1,6.9,6,3.8c0.1-0.3,0.7-2.1,1.3-3.8c1.1-2.9,3.2-5.8,4.1-6.9
			c1.6-2.1,4.2-4.1,6-6.1c4.7-5.3,4.9-9.3,4.9-9.3s-1.2,1.9-3.3,3.3c-2,1.3-4.4,3.9-7.3,7.4c-1.3,1.5-3.1,3.5-4.2,5.1
			c-0.9,1.3-2.1,3.9-2.8,4.2c-0.8,0.3-0.9-1.9-0.9-2.4c0-2.4-0.1-4.2,0.8-8.1c1.1-4.6,2.5-6.8,3.4-8.2c2.5-4,5.6-6.1,5.6-6.1
			s-1.7,0.5-6.3,1.1c-5.6,0.8-9-0.6-9.2-1.1c-0.2-0.6,3.4-0.8,5.9-1.7c3.9-1.5,5.4-1.9,7.6-3.2c1.4-0.8,3.7-2.4,6.6-5.1
			c4.1-3.7,5.8-7.1,9.4-10C224.1,287.6,225,287.2,225,287.2z"/>
		<path class="st0" d="M220.8,300.8c5.2-5.2,5.2-8.6,5.2-8.6s0.3,5.1-2.6,9.6c-1.4,2.2-6,6.1-6,6.1c-1.9-1.9-5.4-1-5.4-1
			S218.7,302.8,220.8,300.8z"/>
		<path class="st0" d="M224.9,281.1c0,0.8-0.8,1.6-1.3,1.9c-1,0.5-2,0.4-3-0.5c-3.3-2.9-5.7-6.5-8.7-9.3c-2.9-2.7-6-4.7-12-6.5
			c-5.4-1.6-9.2-2-14.1-2c-1.6,0-5,0.5-5.6-0.1c-0.4-0.4,0-1.2,1.2-2.4c3.6-3.8,7.2-5.8,11.8-6c5.6-0.2,10.7,0.5,10.7,0.5
			s-1.5-0.9-4.8-5.4c-3.4-4.6-5-11.8-3.1-18.5c1.2-4.2,5.1-6.9,6-3.8c0.1,0.3,0.7,2.1,1.3,3.8c1.1,2.9,3.2,5.8,4.1,6.9
			c1.6,2.1,4.2,4.1,6,6.1c4.7,5.3,4.9,9.3,4.9,9.3s-1.2-1.9-3.3-3.3c-2-1.3-4.4-3.9-7.3-7.4c-1.3-1.5-3.1-3.5-4.2-5.1
			c-0.9-1.3-2.1-3.9-2.8-4.2c-0.8-0.3-0.9,1.9-0.9,2.4c0,2.4-0.1,4.2,0.8,8.1c1.1,4.6,2.5,6.8,3.4,8.2c2.5,4,5.6,6.1,5.6,6.1
			s-1.7-0.5-6.3-1.1c-5.6-0.8-9,0.6-9.2,1.1c-0.2,0.6,3.4,0.8,5.9,1.7c3.9,1.5,5.4,1.9,7.6,3.2c1.4,0.8,3.7,2.4,6.6,5.1
			c4.1,3.7,5.8,7.1,9.4,10C224,280.6,224.9,281,224.9,281.1z"/>
		<path class="st0" d="M220.7,267.5c5.2,5.2,5.2,8.6,5.2,8.6s0.3-5.1-2.6-9.6c-1.4-2.2-6-6.1-6-6.1c-1.9,1.9-5.4,1-5.4,1
			S218.7,265.4,220.7,267.5z"/>
	</g>
</g>
</svg>
