<?xml version="1.0" encoding="utf-8"?>
<!-- Generator: Adobe Illustrator 26.4.1, SVG Export Plug-In . SVG Version: 6.00 Build 0)  -->
<svg version="1.1" id="Layer_1" xmlns="http://www.w3.org/2000/svg" xmlns:xlink="http://www.w3.org/1999/xlink" x="0px" y="0px"
	 viewBox="0 0 566.9 566.9" style="enable-background:new 0 0 566.9 566.9;" xml:space="preserve">
<style type="text/css">
	.st0{fill:none;stroke:#1599A2;stroke-miterlimit:10;}
	.st1{fill:none;stroke:#3A50A3;stroke-miterlimit:10;}
</style>
<path class="st0" d="M297.2,368.7c-10,0-27.1-4.9-32.2-6.4c-4.1-0.2-14.3-1.6-24.3-8.9c-0.7-0.5-17.7-13.1-17.6-34
	c0-4.5,0.1-16.3,9.2-22.3c4.3-2.9,9.2-4.3,14.6-4.3c0.2,0,0.4,0,0.6,0c0.1-0.6,0.2-1.1,0.4-1.7c1.4-6,3.1-9.1,4.4-11.7
	c1-1.9,1.6-3.1,2.4-6.1c0.5-2,0.4-2.3-0.2-5.4c-0.5-2.8-1.3-6.7-1.7-13c-0.6-8.6-0.8-15.6-0.8-19.4c-2.2-3.3-5.7-9-8.1-15.6
	c-2.2-6.1-3.4-11.6-4-15.5c-4.9-2.4-12.2-6.4-18.7-11.7c-4-3.3-17-15.4-16.7-33.5c0.2-12.2,6.4-24.1,16.2-31.1
	c3.5-2.5,7.6-5.2,13-5.2c1.2,0,2.5,0.1,3.7,0.4c6.1,1.4,11.1,6.7,16.6,17.5c9.3-8.8,27.2-14.1,39.4-14.1c1.2,0,2.3,0,3.4,0.1
	c1.1,0.1,2.3,0.2,3.3,0.4c-0.1-1.6-0.1-3.2,0-4.9c0.8-13.2,10.1-28.3,23.9-29.6c0.6-0.1,1.3-0.1,1.9-0.1c14.2,0,22.9,14.3,26,20.5
	c6.2,12.3,6.2,27.9,0.1,40.7c-2.7,5.6-5.9,10.6-8.5,14.2c2,4.2,4.8,10.2,7,16.6c4.2,12.1,2.7,24.3,1.4,34c-0.6,4.9-1.2,9.5-0.9,12.9
	c0.1,1.3,0.3,2.2,0.6,3.3c0.5,2.1,1.1,4.7,0.9,8.9l0,0.1c-0.3,12.4-4.8,22.5-12.7,28.4c-3.8,2.8-7.5,4.7-10.8,5.9
	c0.3,1.3,0.7,2.8,1.3,4.3c0.9,2.8,1.6,4.6,2.3,6.2c1,2.6,1.9,4.7,2.4,8.2c0.9-0.1,1.9-0.2,2.9-0.2c5.5,0,9.7,1.9,10.9,2.5
	c10.2,5.2,13.6,17,13.5,25.6c-0.3,19.3-18.4,29.7-19.2,30.1c-10,5.6-16.8,6.8-20.8,6.8c-4.3,1.6-13.8,5.2-19.3,6.6
	C301.2,368.5,299.4,368.7,297.2,368.7z"/>
<path class="st0" d="M249,197.7c0,0-11.9-4.7-21.6-12.7c-2.2-1.8-13.3-11.4-13.1-25.7c0.1-9.4,5.1-18.2,12-23.2
	c3.4-2.4,5.8-3.8,8.7-3.1c7.5,1.7,16.8,28.2,16.8,28.2s2.3-6.7,8.5-12.9c7.3-7.2,24.8-12.5,35.5-11.6c9.3,0.8,16.8,3.3,16.8,3.3
	s-3.2-8.2-2.7-17.2c0.5-8.8,6.7-19.5,14.9-20.3c9.8-0.9,17,12.9,18,14.9c5,10,4.6,22.4,0,31.9c-4.6,9.7-11.2,17.4-11.2,17.4
	s5.5,9.8,9.3,20.9c5.5,15.7-1,32.4,0,44.4c0.4,4.7,1.6,6,1.5,11.1c0,1.8-0.1,14.4-8.7,20.8c-8.1,6.1-16.1,6.4-16.1,6.4s0.2,6.6,3,15
	c2.8,8.3,3.9,9,4.6,14.3c0.9,7,0.8,12.2,0.8,12.2s3-3.4,7.7-5c5.1-1.8,10,0.6,10.4,0.8c8.1,4.1,8.1,15.8,8.1,16.6
	c-0.2,13.1-13,21-14.1,21.6c-12.2,6.8-17.4,5.4-17.4,5.4s-13.9,5.4-20.3,7.1c-7.8,2-33.8-6-33.8-6s-10.2,0.2-20.1-7.1
	c-1.1-0.8-13.6-10.8-13.5-25.9c0-3.5,0.1-11,4.8-14.1c8.5-5.6,18-0.6,18-0.6s0.7-7.5,1.6-11.3c2.2-9.3,4.6-9.2,6.7-17.6
	c1.8-7.1-0.7-8-1.6-21.5c-0.8-12.8-0.9-22-0.9-22s-5.5-7.1-8.6-15.8C249.3,206,249,197.7,249,197.7z"/>
<path class="st1" d="M240.1,451.5c-1.6,0-9.8-0.3-13.5-5.8c-7.6-11.4-11.6-28.5-11.9-34.6c-0.5-8.5-1.4-24.3,10.4-34.1
	c2.3-1.9,8.5-6.3,16.4-6.3c1.7,0,3.4,0.2,5,0.6c11.4,2.8,15.9,14.2,17.8,19.1c7.4,18.6-0.3,35.5-3.9,43.6
	c-2.6,5.8-8.3,15.8-16.9,17.3C242.4,451.4,241.3,451.5,240.1,451.5z"/>
<path class="st1" d="M234.9,440.3c-6.6-9.8-10-25.1-10.3-29.7c-0.4-7.5-1.1-19.3,6.8-25.9c0.9-0.8,6.5-5.3,12.7-3.7
	c6.5,1.6,9.3,8.9,11,13.1c5.8,14.7-0.4,28.5-3.7,35.9c-3.2,7.2-7.1,11.2-9.5,11.6C238.5,442.1,235.2,440.7,234.9,440.3z"/>
<path class="st0" d="M286.9,461.5c-2,0-4-0.4-5.9-1.3c-3.1-1.4-5.6-3.8-7.1-6.8c-1.7-3.5-1.8-7.6-0.3-11.1c2.1-4.7,6.9-7.8,12.3-7.8
	c2,0,4,0.4,5.9,1.3c3.1,1.4,5.6,3.8,7.1,6.8c1.7,3.5,1.8,7.5,0.3,11.1C297.1,458.4,292.2,461.5,286.9,461.5
	C286.9,461.5,286.9,461.5,286.9,461.5z"/>
<path class="st0" d="M285,451.2c2,0.9,4.3,0.2,5.1-1.5c0.8-1.7-0.3-3.8-2.3-4.7c-2-0.9-4.3-0.2-5.1,1.5
	C281.9,448.1,283,450.3,285,451.2z"/>
<path class="st0" d="M300,418.7c-1.9,0-3.9-0.3-5.9-0.9c-4.2-1.3-6.4-2.9-8.5-4.5c-2.2-1.7-7.9-6.1-6.9-13.5
	c0.8-5.9,6.3-10.5,12.3-10.5c1,0,1.9,0.1,2.8,0.4c3.6,0.9,5.6,3.1,6.7,4.7c0.9-0.3,2.1-0.5,3.4-0.5c1.8,0,3.5,0.4,5.1,1.2
	c5.2,2.6,8,8.5,6.6,13.9c-0.7,2.6-2.5,6-7.6,8.1C305.7,417.8,303.2,418.7,300,418.7z"/>
<path class="st0" d="M288.5,401.1c-0.2,1.1,0.4,2.2,3.1,4.3c1.8,1.4,2.9,2.2,5.3,2.9c3.3,1,5.2,0.4,7.4-0.5c1.2-0.5,1.6-0.9,1.7-1.4
	c0.2-0.9-0.5-2-1.5-2.5c-1.1-0.5-2,0.7-3.7,0.9c-0.8,0.1-4.2-0.3-6.4-2.3c-1.6-1.5-1.6-3-3-3.3C290.2,398.9,288.6,399.9,288.5,401.1
	z"/>
<path class="st0" d="M359.8,404.3c-3.4,0-7-1.2-10-3.3c-7.2-5.2-9.2-14.2-4.6-20.6c2.5-3.5,6.5-5.4,11-5.4c3.4,0,7,1.2,10,3.3
	c7.2,5.2,9.2,14.2,4.6,20.6C368.3,402.3,364.3,404.3,359.8,404.3L359.8,404.3z"/>
<path class="st0" d="M355.6,392.9c2.6,1.9,5.8,2,7.1,0.2c1.3-1.8,0.2-4.8-2.4-6.7c-2.6-1.9-5.8-2-7.1-0.2
	C351.9,388,353,391,355.6,392.9z"/>
<path class="st0" d="M333.6,442.1c-2.1,0-4.2-0.5-6.1-1.5c-3.9-2.1-6.4-5.9-6.9-10.5c-0.4-3.3,0.4-6.9,2-10
	c2.9-5.5,8.2-8.8,13.7-8.8c2.1,0,4.2,0.5,6.1,1.5c3.9,2.1,6.4,5.9,6.9,10.5c0.4,3.3-0.4,6.9-2,10
	C344.3,438.7,339.1,442.1,333.6,442.1z"/>
<path class="st0" d="M338.5,428.6c-1.5,2.9-4.4,4.3-6.3,3.3c-2-1.1-2.3-4.2-0.8-7.1c1.5-2.9,4.4-4.3,6.3-3.3S340,425.7,338.5,428.6z
	"/>
</svg>
