<?xml version="1.0" encoding="utf-8"?>
<!-- Generator: Adobe Illustrator 26.4.1, SVG Export Plug-In . SVG Version: 6.00 Build 0)  -->
<svg version="1.1" id="Layer_1" xmlns="http://www.w3.org/2000/svg" xmlns:xlink="http://www.w3.org/1999/xlink" x="0px" y="0px"
	 viewBox="0 0 566.9 566.9" style="enable-background:new 0 0 566.9 566.9;" xml:space="preserve">
<style type="text/css">
	.st0{fill:none;stroke:#1599A2;stroke-miterlimit:10;}
	.st1{fill:none;stroke:#3A50A3;stroke-miterlimit:10;}
</style>
<path class="st0" d="M291.5,367.5c-9.7,0-28.2-5.5-30.9-6.3c-1.9,0-11.5-0.5-21-7.4c-0.1-0.1-14.4-10.7-14.3-27.5
	c0-4,0.1-12.1,5.7-15.7c3-2,6.4-3,10.2-3c2.9,0,5.5,0.6,7.3,1.2c0.3-2.6,0.8-6.5,1.4-9c1.2-5.1,2.5-7.5,3.7-9.8c1.1-2,2.1-4,3-7.8
	c0.9-3.7,0.6-5.4-0.1-8.8c-0.5-2.6-1.2-6.2-1.6-12c-0.7-10.8-0.8-19.1-0.9-21.5c-1.4-1.9-5.8-8.2-8.5-15.8c-3-8.4-3.9-15.4-4.2-18.2
	c-3.3-1.4-12.8-5.8-20.9-12.5c-3.3-2.7-14-12.7-13.8-27.3c0.1-9.7,5.1-19.2,12.9-24.8c2.8-2,5.3-3.7,8.4-3.7c0.6,0,1.3,0.1,1.9,0.2
	c6.6,1.5,13.4,16.8,16.6,25c1.4-2.6,3.7-5.9,6.9-9.2c7.4-7.4,23.7-12.3,34.4-12.3c0.9,0,1.8,0,2.7,0.1c5.6,0.5,10.5,1.5,13.6,2.4
	c-0.9-3.4-2-8.7-1.7-14.4c0.6-9.8,7.6-21.3,16.7-22.2c0.4,0,0.8-0.1,1.1-0.1c10,0,17,12.3,18.9,16.1c5.1,10.2,5.1,23.1,0,33.7
	c-3.7,7.8-8.6,14.3-10.6,16.8c1.6,3,5.7,11,8.8,20c3.6,10.4,2.3,21,1.1,30.4c-0.7,5.3-1.3,10.3-1,14.5c0.2,1.9,0.5,3.2,0.7,4.4
	c0.4,1.8,0.8,3.7,0.8,6.9l0,0.2c-0.1,5.7-1.5,16.3-9.5,22.2c-6.1,4.6-12.1,6.1-15.1,6.5c0.2,2.4,0.9,7.1,2.8,12.6c1,3,1.8,5,2.4,6.6
	c1.1,2.8,1.8,4.5,2.2,8.1c0.4,3.2,0.6,6.1,0.7,8.3c1.4-1,3.1-2,5.2-2.7c1.4-0.5,3-0.8,4.6-0.8c3.8,0,6.8,1.4,7.3,1.7
	c9.1,4.6,9.2,17,9.2,18.4c-0.2,14.8-15,23.2-15.1,23.3c-9,5-14.5,5.8-17,5.8c-0.5,0-0.9,0-1.2-0.1c-2.6,1-14.2,5.4-20,6.9
	C294.3,367.4,293,367.5,291.5,367.5z"/>
<path class="st0" d="M243.3,204.4c0,0-11.9-4.7-21.6-12.7c-2.2-1.8-13.3-11.4-13.1-25.7c0.1-9.4,5.1-18.2,12-23.2
	c3.4-2.4,5.8-3.8,8.7-3.1c7.5,1.7,16.8,28.2,16.8,28.2s2.3-6.7,8.5-12.9c7.3-7.2,24.8-12.5,35.5-11.6c9.3,0.8,16.8,3.3,16.8,3.3
	s-3.2-8.2-2.7-17.2c0.5-8.8,6.7-19.5,14.9-20.3c9.8-0.9,17,12.9,18,14.9c5,10,4.6,22.4,0,31.9c-4.6,9.7-11.2,17.4-11.2,17.4
	s5.5,9.8,9.3,20.9c5.5,15.7-1,32.4,0,44.4c0.4,4.7,1.6,6,1.5,11.1c0,1.8-0.1,14.4-8.7,20.8c-8.1,6.1-16.1,6.4-16.1,6.4s0.2,6.6,3,15
	c2.8,8.3,3.9,9,4.6,14.3c0.9,7,0.8,12.2,0.8,12.2s3-3.4,7.7-5c5.1-1.8,10,0.6,10.4,0.8c8.1,4.1,8.1,15.8,8.1,16.6
	c-0.2,13.1-13,21-14.1,21.6c-12.2,6.8-17.4,5.4-17.4,5.4s-13.9,5.4-20.3,7.1c-7.8,2-33.8-6-33.8-6s-10.2,0.2-20.1-7.1
	c-1.1-0.8-13.6-10.8-13.5-25.9c0-3.5,0.1-11,4.8-14.1c8.5-5.6,18-0.6,18-0.6s0.7-7.5,1.6-11.3c2.2-9.3,4.6-9.2,6.7-17.6
	c1.8-7.1-0.7-8-1.6-21.5c-0.8-12.8-0.9-22-0.9-22s-5.5-7.1-8.6-15.8C243.7,212.7,243.3,204.4,243.3,204.4z"/>
<path class="st1" d="M234.5,450.4c-2.6,0-6-0.9-6.9-2.2c-6.9-10.3-10.3-25.9-10.6-30.7c-0.4-7.6-1.1-20.3,7.6-27.6
	c1.3-1.1,5.8-4.5,11.3-4.5c1,0,2.1,0.1,3.1,0.4c7.5,1.9,10.6,9.9,12.4,14.3c6.1,15.5-0.3,29.8-3.8,37.4c-3.3,7.2-7.5,12.1-11,12.7
	C235.9,450.3,235.2,450.4,234.5,450.4z"/>
<path class="st1" d="M229.3,447c-6.6-9.8-10-25.1-10.3-29.7c-0.4-7.5-1.1-19.3,6.8-25.9c0.9-0.8,6.5-5.3,12.7-3.7
	c6.5,1.6,9.3,8.9,11,13.1c5.8,14.7-0.4,28.5-3.7,35.9c-3.2,7.2-7.1,11.2-9.5,11.6C232.9,448.8,229.6,447.5,229.3,447z"/>
<path class="st0" d="M281.2,460.3c-0.9,0-1.8-0.2-2.7-0.6c-3-1.3-4.5-4.6-3.3-7.4c0.8-1.9,2.8-3.1,5-3.1c0.9,0,1.8,0.2,2.7,0.6
	c1.4,0.6,2.5,1.7,3.2,3c0.7,1.4,0.7,3,0.1,4.4C285.4,459.1,283.5,460.3,281.2,460.3C281.2,460.3,281.2,460.3,281.2,460.3z"/>
<path class="st0" d="M279.4,457.9c2,0.9,4.3,0.2,5.1-1.5c0.8-1.7-0.3-3.8-2.3-4.7c-2-0.9-4.3-0.2-5.1,1.5
	C276.3,454.9,277.3,457,279.4,457.9z"/>
<path class="st0" d="M294.3,417.5c-1.2,0-2.4-0.2-3.7-0.6c-2.8-0.8-4.1-1.8-5.9-3.2c-2.6-2-4.2-3.8-3.9-6.1c0.3-2,2.4-3.7,4.5-3.7
	c0.3,0,0.6,0,0.9,0.1c1.5,0.4,2.2,1.5,2.7,2.3c0.3,0.5,0.6,1,1.1,1.4c1.5,1.4,4.1,1.8,4.8,1.8c0.4-0.1,0.8-0.3,1.3-0.5
	c0.6-0.3,1.3-0.6,2.2-0.6c0.5,0,1,0.1,1.5,0.4c1.6,0.8,3,2.8,2.5,4.8c-0.4,1.6-1.8,2.3-2.9,2.7C297.8,416.9,296.3,417.5,294.3,417.5
	z"/>
<path class="st0" d="M282.8,407.8c-0.2,1.1,0.4,2.2,3.1,4.3c1.8,1.4,2.9,2.2,5.3,2.9c3.3,1,5.2,0.4,7.4-0.5c1.2-0.5,1.6-0.9,1.7-1.4
	c0.2-0.9-0.5-2-1.5-2.5c-1.1-0.5-2,0.7-3.7,0.9c-0.8,0.1-4.2-0.3-6.4-2.3c-1.6-1.5-1.6-3-3-3.3C284.6,405.6,283,406.7,282.8,407.8z"
	/>
<path class="st0" d="M354.1,403.1c-1.8,0-3.7-0.7-5.3-1.8c-3.6-2.6-4.8-6.7-2.8-9.5c1-1.4,2.6-2.1,4.6-2.1c1.8,0,3.7,0.7,5.3,1.8
	c1.6,1.2,2.8,2.7,3.4,4.3c0.7,1.9,0.5,3.8-0.5,5.2C357.7,402.4,356.1,403.1,354.1,403.1C354.1,403.1,354.1,403.1,354.1,403.1z"/>
<path class="st0" d="M350,399.7c2.6,1.9,5.8,2,7.1,0.2c1.3-1.8,0.2-4.8-2.4-6.7c-2.6-1.9-5.8-2-7.1-0.2
	C346.3,394.8,347.3,397.8,350,399.7z"/>
<path class="st0" d="M328,440.9c-0.8,0-1.6-0.2-2.3-0.6c-1.5-0.8-2.5-2.4-2.7-4.4c-0.2-1.7,0.2-3.6,1.1-5.4c1.5-2.8,4.1-4.7,6.7-4.7
	c0.8,0,1.6,0.2,2.3,0.6c1.5,0.8,2.5,2.4,2.7,4.4c0.2,1.7-0.2,3.6-1.1,5.4C333.1,439.1,330.5,440.9,328,440.9z"/>
<path class="st0" d="M332.9,435.3c-1.5,2.9-4.4,4.3-6.3,3.3c-2-1.1-2.3-4.2-0.8-7.1c1.5-2.9,4.4-4.3,6.3-3.3
	C334.1,429.3,334.4,432.4,332.9,435.3z"/>
</svg>
