<?xml version="1.0" encoding="utf-8"?>
<!-- Generator: Adobe Illustrator 26.4.1, SVG Export Plug-In . SVG Version: 6.00 Build 0)  -->
<svg version="1.1" id="Layer_1" xmlns="http://www.w3.org/2000/svg" xmlns:xlink="http://www.w3.org/1999/xlink" x="0px" y="0px"
	 viewBox="0 0 566.9 566.9" style="enable-background:new 0 0 566.9 566.9;" xml:space="preserve">
<style type="text/css">
	.st0{fill:none;stroke:#B7479A;stroke-miterlimit:10;}
</style>
<path class="st0" d="M238,187.1c-11.7,0-26.8-7.7-31.7-21.9c-2.7-8-1.6-17,3-23.7c2.6-3.7,5.2-5.4,6.9-6.5c0.9-0.6,1.1-0.7,1.5-1.2
	c2-2.5,3-7,3.7-10.3c0.9-4.3,1.8-8.7,6-11.4c2.7-1.8,5.5-2.7,8.5-2.7c3.2,0,6.4,1.1,9.2,3.3c2.5,2,3.8,4.6,5.5,8.2
	c1.3,2.7,2.9,6.1,5.2,9.6c1.5,2.3,2.8,3,4.9,4.3c3.1,1.8,7.8,4.6,10.2,11.4c3.8,10.8-1.3,22-6.9,28.3c-8.7,9.8-21.1,12.5-24.8,12.6
	C238.8,187.1,238.4,187.1,238,187.1z"/>
<path class="st0" d="M215.7,162c-1.6-4.6-1.2-10.5,1.8-14.8c2.7-4,5-3.5,8-7.1c5.8-7.2,5.4-18.4,7.4-19.8c2.4-1.6,4.3-1.2,6.2,0.2
	c1.5,1.1,3.6,7.8,8.5,15.3c5.6,8.6,11.6,6.8,14,13.6c2.3,6.5-1.1,14-5,18.4c-6.1,6.9-15.5,9.2-17.8,9.3
	C230.2,177.6,219,171.7,215.7,162z"/>
<path class="st0" d="M239.8,458.2c-6.2,0-15.6,0-17.9-8.7c-0.8-2.9-0.3-5.6,1.3-12.8c0-0.2,0.1-0.4,0.1-0.6c-0.3-2.2-0.6-5.3-1-9.8
	c-0.7-7.4-1.7-18.7-3.3-24c-6.7-21-9.8-33.8-10.3-42.3c-12.9-0.3-24.1-10-29.8-18.2c-3.8-5.5-4.5-10.8-4.6-23c0-4.6,0-10.3-0.8-14.3
	c-0.9-5-2.1-6.9-3.9-9.8c-1.8-2.8-4-6.3-5.7-12c-4.2-13.7-3-28.6-2.1-35.8c-1.7-2.7-4.2-6.6-6.2-10.6c-4.2-8.4-3.1-19.6-1.4-27.5
	c1.2-5.6,6.3-9.7,12-9.7c1.1,0,2.2,0.2,3.3,0.5c15.3,4.3,19.1,9.2,20.3,10.9c0.7,0.9,1.3,1.8,1.9,2.7c3-0.6,6.7-1,11.2-1
	c1.4,0,2.9,0,4.4,0.1c5,0.3,9.8,1,13.9,1.8c0.4-1.5,1-3,1.8-4.5c3.5-7.1,11-11.8,21.3-13.3c0.6-0.1,1.3-0.1,1.9-0.1
	c4.6,0,8.9,2.4,11.3,6.4c2.7,4.5,7,13.7,5.5,24.9c-0.6,4.1-1.9,7.6-3.5,10.4c4.4,4.9,10,12.3,15.1,22.7c5.7,11.7,9.7,19.8,12.1,24.5
	c6.5,0.5,18.7,1.4,34.7,2.2c19.4,1,34.1,4.8,43.6,11.1c2.7,1.9,4.8,3.8,6.3,5.6c0.6,0,1.3,0,2,0c5.1,0,9.7,0.8,13.4,2.3
	c0.1,0.1,0.3,0.1,0.5,0.2c3.9,1.4,15.7,5.8,21.2,19c2.6,6.3,3.8,28.5,2.5,38.2c-0.1,1.1-0.6,4-0.9,6.5c0.9,1.6,1.7,3.4,2.1,5.4
	c0.7,3.9-0.2,7-1,9.1c4.2,4.8,3.7,9.2,2.5,12.1c-0.9,2.2-4,7.4-12.9,7.4c-3.4,0-7-0.8-10-2.2c-3-1.4-5.6-3.4-7.7-5.8
	c-0.2,2.6-0.2,4.9-0.1,5.9c1.7,12.2,1.6,20.3,1.5,26.8c0,1.3,0,2.6,0,3.9c0.1,8.6-0.5,13.3-4.3,16.6c-3.1,2.7-7.2,3.6-16.2,3.6
	c-10,0-14.3-0.7-16.7-1.9c-1.9,0.4-3.9,0.5-5.7,0.7c-3.1,0.2-7,0.3-10.3,0.3c0,0,0,0-0.1,0c-5.9,0-11.4,0-14.6-5.4
	c-2.4-4.2-1.9-8.8,2.2-18.5c0.2-2.5,0.6-9.3-1.1-18.6c-0.8-4.7-1.7-9-2.4-12.5c-3.8,1.1-8.4,2.3-13.5,3.2c-0.6,3.8-1.2,8.7-1,13
	c0.6,10.4,1.1,18.7,1.2,21.4c1.6,6.5,4,18.6-5.7,22.1c-1.1,0.4-3.9,1.4-13.3,1.4c-4.1,0-8.4-0.2-11.7-0.6c-0.7-0.1-2.7-0.4-4.7-1.7
	c-2.6-1.7-6-1.8-8.6-0.1c-0.9,0.6-1.9,1.1-3.1,1.5c-0.9,0.3-1.9,0.5-2.9,0.5c-2.2,0.1-5.7,0.3-10.5,0.4
	C240.9,458.2,239.8,458.2,239.8,458.2z"/>
<path class="st0" d="M172.3,244.7c0,0-4.5-6.5-7.7-12.7c-3.2-6.3-1.5-16.4-0.6-20.9c0.3-1.3,1.6-2.1,2.9-1.8
	c4.1,1.1,12.4,3.8,15.1,7.3c4.1,5.4,4.9,9.1,4.9,9.1s4.8-4.1,20-3.3c12.3,0.7,23.2,4.4,23.2,4.4s-1.3-6.1,1.9-12.6
	c2.7-5.6,10.1-7.3,13.8-7.9c1.3-0.2,2.6,0.4,3.2,1.5c1.9,3.1,5.3,10.1,4.1,18.4c-1.2,8.4-7.1,12.6-7.1,12.6s10.8,8.1,19.6,26.3
	c7.8,15.9,12.5,25.3,14.1,28.4c0.4,0.8,1.1,1.2,2,1.3c4.3,0.4,18.5,1.5,39.2,2.5c42.5,2.2,45.2,17.3,45.2,17.3s10-1.8,17,1
	c2.4,0.9,12,3.7,16.3,13.8c1.4,3.4,3.1,23.2,1.8,33.1c-0.2,1.9-1.5,10.3-1.5,10.3s2.3,2.5,2.7,4.6c0.7,3.9-2.2,5.2-1.8,8.8
	c0.5,4,4.6,5.4,3.9,6.9c-0.7,1.6-5.7,1.8-9.7,0c-4.8-2.2-7.8-7.3-7.3-12.4c0.4-4.2,5.8-9.2,5.8-9.2s1.6-12.2,0-23.1
	c-1.5-10.3-2.3-15.4-6.6-19c-4.4-3.6-13.9-2.4-13.9-2.4s2.5,8.9,4.6,20.6c1.5,8.4,1.1,25.5-2.5,36.7c-1.5,4.6-2.3,15.6-1.8,19.2
	c2,14,1.4,22.1,1.4,29.3c0,0.2,0.1,8.2-0.9,9.1c-2.3,2-21.7,0.9-21.6,0.3c0.6-3.4,1.7-7.7,2.1-9.2c0.1-0.4,0.1-0.7,0.1-1.1
	c-0.4-4.3-3.3-31.6-4.6-31.3c-1.4,0.3-2.4,14.1-2.4,31.1c0,1.6-0.1,6.7-1.1,9.4c-0.4,1-20.3,1.6-20.9,0.6
	c-0.8-1.4,3.3-10.9,3.3-10.9s1.5-9.1-1-22.9c-2.5-14-4.9-23.7-4.9-23.7s-12.5,5.3-29.1,7.4c-0.1,0-3.1,12.4-2.6,22.3
	c0.7,12.8,1.3,22.3,1.3,22.3s2.6,10.6,0.8,11.2c-2.8,1-13.8,1.1-20.6,0.3c-1.1-0.1-0.9-2.9-0.8-3.8c0.1-1.7,0.5-6.7,0.5-6.7
	s-1.5-25.9-7.9-42.4c-0.1-0.2-5,0.8-9.9-1.7c-0.1-0.1-0.1,24.2-2.4,43.6c0,0.1,0.9,5.6,1.5,8.8c0.2,1.2-0.7,2.4-1.9,2.5
	c-2,0.1-5.4,0.3-9.9,0.4c-5.8,0.1-9.6-0.2-9.9-1.3c-0.3-1.2,2-10.6,1.9-10.9c-1.2-4.7-1.8-26.9-5-36.8c-7.8-24.5-10.6-37.2-9.8-43.7
	c0.2-1.3-1.5-7.2-1.5-7.2s-2.3,1.7-7.5,1.7c-9,0.1-17.8-7.1-22.6-14c-2-2.9-2.7-5.9-2.8-17.3c0-5,0-11.1-0.9-16
	c-2.1-12.3-6.8-12.7-9.9-23C168.5,263.5,172.3,244.7,172.3,244.7z"/>
</svg>
