<?xml version="1.0" encoding="utf-8"?>
<!-- Generator: Adobe Illustrator 26.4.1, SVG Export Plug-In . SVG Version: 6.00 Build 0)  -->
<svg version="1.1" id="Layer_1" xmlns="http://www.w3.org/2000/svg" xmlns:xlink="http://www.w3.org/1999/xlink" x="0px" y="0px"
	 viewBox="0 0 566.9 566.9" style="enable-background:new 0 0 566.9 566.9;" xml:space="preserve">
<style type="text/css">
	.st0{fill:none;stroke:#3E4FA2;stroke-miterlimit:10;}
	.st1{fill:none;stroke:#1599A2;stroke-miterlimit:10;}
	.st2{fill:none;stroke:#3B4B9F;stroke-miterlimit:10;}
	.st3{fill:none;stroke:#67BD45;stroke-miterlimit:10;}
	.st4{fill:none;stroke:#39489E;stroke-miterlimit:10;}
	.st5{fill:none;stroke:#464A9F;stroke-miterlimit:10;}
	.st6{fill:none;stroke:#E91D6F;stroke-miterlimit:10;}
	.st7{fill:none;stroke:#3B489E;stroke-miterlimit:10;}
</style>
<path class="st0" d="M255.5,326.6c0,0-0.4,5.7,1.3,14.8c2.1,11.2,10.5,33.3,10.5,33.3l-2.3-0.4c0,0-7.5-17.7-10.6-31.3
	c-2.8-12.6-0.8-16.6-0.8-16.6L255.5,326.6z"/>
<path class="st1" d="M272.2,331.8c-2.3-0.2-6.5-0.1-9.1-0.8c-2-0.6-6.3-2.4-7.7-2.1c-0.1,0,0.1,2,0.4,2.1c2.2,1,5,1.4,7,1.9
	c2.8,0.8,9.9,1.4,11,1.6c2.3,0.5,3.2,0,2.5-1.2C276,332.8,273,331.9,272.2,331.8z"/>
<path class="st1" d="M263.2,362.7c0,0,0.9,0.2,3.3,0.5c5.9,0.8,10.6-6.1,10.6-6.1s1,3.2,1.1,3.8c-0.8,1.1-2.5,2-3.5,2.6
	c-5.4,3.3-10.9,1.3-10.9,1.3L263.2,362.7z"/>
<path class="st1" d="M308.2,352.3c0,0,4.6,3.2,6.7,2.4c7.2-2.6,9.2-4.5,9.2-4.5l-0.2,2.7c0,0-4.6,4-7.9,4.5c-3,0.4-8.2-2.7-8.2-2.7
	L308.2,352.3z"/>
<path class="st1" d="M265.1,292.9c0,0,19.2,5.2,30,4.8c8.5-0.3,22.6-3.7,22.6-3.7l0.4,3.5c-2.5,0.3-17.8,2.6-29.9,3.3
	c-0.4,0-0.8,0-1.2,0c-13.6,0.1-23.4-0.5-23.4-0.5s0.2-1.1,0.5-2c0-0.1,2.9,0.1,3.1,0.1c7.2,0.1,12.3-0.3,12.3-0.3s-7.7-0.9-12.9-1.7
	c-0.4-0.1-1.9-0.2-2-0.3L265.1,292.9z"/>
<path class="st1" d="M260.1,307.8c2.5-0.9,26.6-1.1,28.7-2.4c1.2-0.8,0.9-1.5,2.4-1.8c0.8-0.2,2.3,0,3.9,0.2c4.3,0.6,4,1.5,6.7,2.4
	c6,1.8,14.6,1,17.6,2.6c1.6,0.9,1.7,1.5,1.5,1.5c-2.7,0.4-7.9-0.4-14.7,0.3c-9.9,1.1-43.6,4.5-49.1,5.9c-0.1,0,0.7-2.3,0.8-3
	c0.2-1.3,30.2-2.3,35.6-3.2c5.8-1,10.1-1.4,10.1-1.4s-6.9-1.4-11.1-1.3c-6.3,0.2-30.8,2.6-33.3,1.9
	C259.1,309.5,260.1,307.8,260.1,307.8z"/>
<path class="st1" d="M325.8,327.4c-0.7-1.1-7.9-1.6-15-1.1c-1.4,0.1-3.4,0.5-4,1.1c-0.6,0.6,0,1.4,1,1.9c1.3,0.7,5.9,0.1,9.8,0.3
	c3.8,0.2,6.6,0.2,8-0.2C325.6,329.3,325.9,327.5,325.8,327.4z"/>
<path class="st2" d="M235.2,352.4c0.7-0.7,5.6-0.3,8.7-0.4c3.1-0.1,5.6-0.8,7.5-1.1c1.2-0.2,4.7-0.6,4.8-0.1c0.1,0.2-0.6,0.9-7.6,3
	c-6.1,1.8-10,1.7-12.4,0.4C235.7,354,235.1,352.4,235.2,352.4z"/>
<path class="st1" d="M280.5,325.3c0,0-14.4-2.6-14.5-3.4c-0.1-0.4,1.5-1.3,3.1-1.5c4.1-0.4,15.7,1.5,15.7,1.5l4.7-2.4
	c0,0-15.6-1.6-17.6-1.8c-0.7-0.1-2-0.3-2.9-0.4c-2.4-0.3-2.3,2.2-5.4,2.7c-2.4,0.4-6.8-0.1-6.8-0.1l-0.3,2.8c0,0,6.3,2.1,9.1,2.5
	c7.8,1.1,13.2,2.4,13.2,2.4L280.5,325.3z"/>
<path class="st1" d="M324.5,361.4c0,0,10.9-3.7,15-4.4c4-0.7,9.8-0.7,9.8-0.7s1.6-2.8,1.5-2.9c-2.4-1.8-8,0.1-12.1-0.6
	c-4.7-0.8-12.8-2.1-12.8-2.1l-0.1,2.1c0,0,9.8,1.3,10,1.9c0.1,0.6-10.7,3.3-10.7,3.3L324.5,361.4z"/>
<path class="st1" d="M320.3,367l-0.7,2.9c0,0-1.1,1.2-3.8,1.3c-2.6,0.1-9,0.7-11.3-1.1c-1.6-1.3-1.1-2.8-0.7-4.6
	c0.8-3.4,3.2-2.2,6.2-3.2c5.3-1.8,9-1.4,12,0c0.1,0-0.5,2-0.6,2.1c-2.7,0.5-6.8-0.5-12.1,0.5c-3.8,0.7-2.6,2.6-1.4,2.7
	C314.2,368.2,320.3,367,320.3,367z"/>
<path class="st1" d="M233.9,346.6c1.2,1.4,7.7,0.9,9.8,0.6c4.2-0.6,7.8-1.8,10.9-2.7c0.2-0.1-0.2-1.8-0.4-2
	c-0.7-0.8-4.6,1.6-8.7,1.5c-4-0.1-10.7-1.4-12.4-1.4C233,342.6,233.1,345.5,233.9,346.6z"/>
<path class="st3" d="M233.5,336.7c0.4,1.3,6,1.5,7,1.2c2.3-0.7,2.8-3.1,4.4-3c0.9,0,0.8,1,2.6,1.8c0.8,0.4,6.1,0.6,6.1,0.6l-0.3-1.8
	c0,0-2.9,0-5-1.1c-1.4-0.7-2-1.7-3.3-2c-1.1-0.3-2.4,0.7-4.4,1.1c-2.7,0.6-6.2-0.9-6.8,0.2C233.6,334,233.4,336.5,233.5,336.7z"/>
<path class="st1" d="M351.9,346.7c-4.2,1.3-11,1.2-20.4,1c-2.3-0.1-4.9-0.3-4.9-1c0-1.7,20.5-3.2,25.4-2.3
	C352.2,344.4,352.6,346.4,351.9,346.7z"/>
<path class="st1" d="M264.3,289.1c0.5,0.8,3.2,1.1,3.9,1.2c1,0.1,2.7-0.6,3.6-0.6c1.3-0.1,4,0.4,5.6,0.8c3,0.6,4.6-0.2,8.8-0.6
	c5.5-0.5,12.8-0.2,12.8-0.2l-2-1.2c0,0-4.4-1.8-7-3c-2-0.9-2.9-2.1-4-2.7c-0.8-0.4-10.3-3.2-14.2-3.9c-1.7-0.3-1.8,0.9-3.7,0.6
	c-1.8-0.3-4.3-1.1-5.3-1.3c0,0,0.1,3.4,0.4,4.8c0.3,1.4,4.4-0.5,6.8-0.8c6.4-0.8,15,3,15.1,4.3c0,0.8-3.8,2-6.5,1.8
	c-2.2-0.2-5.3-1.5-9.2-2.4c-1.4-0.3-4.8,0.3-5.5,0.1C263.8,285.6,263.8,288.3,264.3,289.1z"/>
<path class="st1" d="M327.2,341.4c0,0,4.2-1,6.7-2.7c1.8-1.2,3.4-2.8,6.8-3.3c1-0.2,3.8,0.8,8.6,4.3c1,0.7,1.8,1.3,2.1,1
	c0.4-0.3-0.2-1.5-0.8-2.5c-0.3-0.4-2.1-2-4.8-3.2c-0.9-0.4-2.1-1.5-5.4-1.5c-1.4,0-4.5,0.7-7.7,2.6c-1,0.6-5.3,2.4-5.4,3.5
	C327.2,340.2,327.2,341.4,327.2,341.4z"/>
<path class="st1" d="M260.1,170.7l4.4-3.6c0,0,6.5,8.4,6.2,10.5c-0.1,0.9-1.6,4-3.4,3.9C264.3,181.1,260.1,170.7,260.1,170.7z"/>
<path class="st1" d="M319.5,191.5c0.3-5.4,2.3-18.1,1.5-21.5c-1.1-4.5,0.3-14.4,1.7-18.7c0.6-1.9,2.5-5.7,4.9-5.5
	c2.8,0.1,6.3,4.5,5.6,10.1c-0.6,4.7-1.5,7.7-2.6,10.4c-0.7,1.6-0.2,4,1,4.5c1.7,0.6,3.7-2.5,4.8-6.2c1.8-5.9,1.2-13.2,0.3-16.4
	c-1.3-4.4-3.4-7.6-6.5-8.8c-4.6-1.8-7.2,1.7-9,4.2c-3.4,4.8-3.2,22-4.1,28.4c-0.7,5.8-0.9,11.5-0.8,17.7c0.1,5.6-0.3,9.5,1.4,9.3
	C319.6,199,319.4,193.5,319.5,191.5z"/>
<path class="st1" d="M306.2,160.2l-7.8-1.4c0,0-2.6,5.8-1.8,7.8c1.9,4.6,4.6,2.7,5.4,1.6C303.4,166.5,306.2,160.2,306.2,160.2z"/>
<path class="st1" d="M276.8,184.3c-2.7,10.6-2.8,17.2-1,21.6c2.4,5.7,15.2,23.4,20.6,36.7c1.1,2.8,3.4,0.7,3.8-0.1
	c0.6-1.2-1.9-4.5-1.9-4.5s0.6-1,1.2-1.7c0.4-0.5-6.3-11.5-12.3-20.6c-3.6-5.5-4.7-6.4-5.5-11.7c-1.5-9.8,1.4-19.6-1.3-21.3
	C279.2,181.9,276.9,183.9,276.8,184.3z"/>
<path class="st1" d="M288.9,193.3c-0.2,1.3,2.6,10.1,5.8,20.8c2.4,7.9,4.5,14.1,5.5,18c0.3,1.1,1.7,1.3,2.5,0.5
	c2.1-2.1-1.8-8.9-4.9-22c-2.2-9.5-4-16.8-4.8-17.7C292.1,191.8,289.1,191.9,288.9,193.3z"/>
<path class="st1" d="M305.2,203.9c-5-15.1-14.1-22.2-13.3-25.2c0.4-1.3,1.5-3.7,3-2.3c4.9,4.4,13.5,16.3,16.2,27.8
	c2.2,9.2,1.3,12.7,1.3,16.1c-0.1,9.8,1.6,15,1.8,18.7c0,1-2.6,1-3,0.1c-2.5-5.7-0.1-13.6-5-32.1C305.9,206,305.6,205.1,305.2,203.9z
	"/>
<path class="st1" d="M261.2,220.5c-3.7-5-16.2-17.9-14.3-20.3c1.8-2.4-4.5-11.6-8.4-15c-1.7-1.4-5.8-4-7.9-2.5
	c-2.4,1.8-3,8.1,1.2,13.2c3.4,4.2,6.1,6.6,8.9,8.5c1.7,1.1,2.7,3.8,1.9,4.9c-1.2,1.6-4.9-0.3-8.2-3.2c-5.3-4.6-9.4-12.1-10.5-15.7
	c-1.6-5.1-1.6-9.4,0.5-12.4c3.1-4.4,7.7-2.5,10.8-1.2c7.8,3.2,15.2,18.4,20,24.8c2.4,3.2,5.9,6.7,9.7,12.8c3.4,5.4,1.5,5.2-0.1,6.1
	C262.8,221.5,262.5,222.3,261.2,220.5z"/>
<path class="st1" d="M282.5,256.4c2.6,1.9,5.8,2,7.1,0.2c1.3-1.8,0.2-4.8-2.4-6.7s-5.8-2-7.1-0.2
	C278.8,251.5,279.8,254.5,282.5,256.4z"/>
<path class="st1" d="M281.7,248.4c-3-0.6-4.1-1-7.4-1.5c-1-0.1-1.4,2.3-0.4,2.4c2.6,0.2,3.7,0,6,0.4c0,0,0.2-0.2,0.7-0.6
	C281.4,248.4,281.7,248.4,281.7,248.4C281.7,248.4,281.7,248.4,281.7,248.4z"/>
<path class="st1" d="M273.3,251.5c2.2-0.3,3.6-0.4,6-0.4c0.1,0,0.3,1.2,0.3,1.2c-2.3,0.6-3.2,0.8-5.9,1.2
	C272.7,253.8,272.2,251.7,273.3,251.5z"/>
<path class="st1" d="M330.7,242.3c-1.5,2.9-4.4,4.3-6.3,3.3c-2-1.1-2.3-4.2-0.8-7.1c1.5-2.9,4.4-4.3,6.3-3.3
	C331.9,236.2,332.3,239.4,330.7,242.3z"/>
<path class="st1" d="M327.9,234.8c2.4-1.9,3.2-2.7,6-4.6c0.8-0.5,2.2,1.5,1.4,2c-2.2,1.3-3.3,1.7-5.2,3c0,0-0.3-0.1-0.9-0.2
	C328.2,234.7,327.9,234.8,327.9,234.8C327.9,234.8,327.9,234.8,327.9,234.8z"/>
<path class="st1" d="M336.9,233.9c-2.1,0.7-3.4,1.2-5.6,2.3c-0.1,0,0.2,1.2,0.3,1.2c2.3-0.5,3.2-0.7,5.8-1.5
	C338.4,235.6,337.9,233.6,336.9,233.9z"/>
<path class="st4" d="M262.8,253.2c1.7,1.1,4.4,8,11.7,12.7c6.3,4,8.8,5.6,12.7,7.9c2.1,1.2,5,2.7,4.1,3.7c-0.8,0.8-2.7-0.2-6.9-2.3
	c-3.1-1.6-6.9-4.2-11.3-7.8c-5.2-4.2-10.2-7.8-11-11.2C262,255,261.9,252.6,262.8,253.2z"/>
<path class="st5" d="M325.2,334.3c0.9-0.1,1.7-0.4,1.8-0.1c0.3,1.6,0.8,2-1,17.6c-1.5,13.3-3.8,18.5-5.2,21.3
	c-0.3,0.6-0.5,1-1.6,0.3c-2-1.4,3.7-9.4,4.7-20.4C324.7,343.9,324.3,334.3,325.2,334.3z"/>
<path class="st1" d="M256.7,340.2c0.5-0.8,6.8-1.4,12.8-1.4c1.2,0,2.9,0.2,3.4,0.6c0.5,0.4,0,0.9-0.7,1.3c-1,0.5-5,0.3-8.3,0.6
	c-3.2,0.3-5.6,0.4-6.8,0.2C257.2,341.6,256.7,340.3,256.7,340.2z"/>
<path class="st1" d="M341.8,365.2c-3,1.3-7.3,1.2-14.1,0.9c-1.7-0.1-4-0.5-4-1.1c0-1.7,17-2.8,20.5-1.9
	C344.3,363.2,342.3,365,341.8,365.2z"/>
<path class="st1" d="M308.4,340.2c0,0,9-1.4,9.4-0.8c0.2,0.3-0.3,1.7-1.2,2.4c-2.1,1.9-8,2.2-8,2.2l-0.2,3.9c0,0,6.4-2.1,7.7-2.6
	c0.4-0.2,1.2-0.5,1.8-0.7c1.5-0.7,0.4-2.8,2-4.4c1.2-1.2,4.4-1.9,4.4-1.9l0.1-3.2c0,0-6.1,0.5-7.8,1.2c-4.9,1.9-8.6,1.4-8.6,1.4
	L308.4,340.2z"/>
<path class="st6" d="M239.9,359.9c0,0,3.1,0.1,5.4,0.6c5.5,1.3,11.5-8.6,12.1-7.1c0.4,1,1.4,3.8,1.4,4.4c-0.9,1.2-4.7,3.1-5.7,3.6
	c-5.6,3.3-11.2,1-11.2,1L239.9,359.9z"/>
<path class="st1" d="M302,324.2c0,0,3.3-0.8,5.9-2.5c1.8-1.2,3.4-2.8,6.8-3.3c1-0.2,3.8,0.8,8.6,4.3c1,0.7,1.8,1.3,2.1,1
	c0.4-0.3-0.1-2.1-0.2-2.8c-0.1-0.5-2.7-1.7-5.3-3c-0.9-0.4-2.1-1.5-5.4-1.5c-1.4,0-4.5,0.7-7.7,2.6c-1,0.6-6.1,3.7-6.1,3.7
	L302,324.2z"/>
<path class="st7" d="M275.1,343.3c0,0-6,7.6-8.7,8.6c-2.2,0.8-6.3,0.9-6.3,0.9l1.1,3.5c0.7-0.1,5.8-0.2,9-1.2c0.1,0,0.2-0.1,0.3-0.1
	c3.3-1.6,5.3-3.4,5.3-3.4s0.3-1.2-0.2-2c-0.1-0.1-4.6,2-4.6,2s4.7-4.9,4.7-5.1L275.1,343.3z"/>
<path class="st7" d="M246.3,367.1c0,0,0-0.1,0-0.1c1.1-0.1,7.8-0.8,9.5-2.3c1.4-1.3,3.8-4.5,3.8-4.5l1.2,3c-0.3,0.5-1.9,4.3-3.8,6.2
	c-0.1,0.1-0.1,0.1-0.2,0.2c-2.5,1.6-2.9,1.9-2.9,1.9s-1.9-0.5-2.3-1.3c0-0.1,2.4-2.1,2.4-2.1s-5.3,0.7-5.4,0.6
	C248.6,368.8,247.1,367.9,246.3,367.1z"/>
<path class="st1" d="M282.6,373.3c-3.9,0.6-5.2,0.4-11-0.2c-2.1-0.2-5.1-0.7-5.1-1.1c0.1-1.1,10.5-1.3,14.9-0.4
	C281.7,371.6,283.3,373.2,282.6,373.3z"/>
<path class="st1" d="M295.6,378.8c3.4,0.2,6.7,0.1,11.5-1.1c1.8-0.4,6.2-1.6,6.2-2c-0.2-0.9-11.9,0.1-15.5,1.4
	C297.6,377.2,295.3,378.8,295.6,378.8z"/>
<ellipse transform="matrix(0.5715 -0.8206 0.8206 0.5715 -225.1353 406.0558)" class="st1" cx="276.2" cy="418.6" rx="4" ry="3.4"/>
<path class="st1" d="M254.1,427.7c2,0.9,4.3,0.2,5.1-1.5c0.8-1.7-0.3-3.8-2.3-4.7c-2-0.9-4.3-0.2-5.1,1.5
	C251,424.7,252.1,426.8,254.1,427.7z"/>
<path class="st1" d="M247.3,429.6c-0.2,1.1,0.4,2.2,3.1,4.3c1.8,1.4,2.9,2.2,5.3,2.9c3.3,1,5.2,0.4,7.4-0.5c1.2-0.5,1.6-0.9,1.7-1.4
	c0.2-0.9-0.5-2-1.5-2.5c-1.1-0.5-2,0.7-3.7,0.9c-0.8,0.1-4.2-0.3-6.4-2.3c-1.6-1.5-1.6-3-3-3.3C249.1,427.4,247.5,428.5,247.3,429.6
	z"/>
</svg>
