<?xml version="1.0" encoding="utf-8"?>
<!-- Generator: Adobe Illustrator 26.4.1, SVG Export Plug-In . SVG Version: 6.00 Build 0)  -->
<svg version="1.1" id="Layer_1" xmlns="http://www.w3.org/2000/svg" xmlns:xlink="http://www.w3.org/1999/xlink" x="0px" y="0px"
	 viewBox="0 0 566.9 566.9" style="enable-background:new 0 0 566.9 566.9;" xml:space="preserve">
<style type="text/css">
	.st0{fill:none;stroke:#2B358E;stroke-miterlimit:10;}
</style>
<path class="st0" d="M264.2,355.3c-6.6,0-9.6-0.4-10.2-2.8c-0.3-1,0-2.8,1.3-9.1c0.2-0.8,0.4-1.7,0.4-2.2c-0.4-2-0.8-5.8-1.2-10.6
	c-0.7-8.3-1.7-19.6-3.7-25.7c-7.8-24.6-10.7-37.5-9.9-44.5c0-0.5-0.4-2.3-0.9-4.3c-1.4,0.5-3.5,0.9-6.2,1l-0.3,0
	c-10.1,0-19.2-8-23.9-14.8c-2.5-3.6-3.1-7.2-3.1-18.5c0-4.9,0-10.9-0.9-15.7c-1.1-6.5-3-9.5-5-12.6c-1.7-2.6-3.4-5.4-4.8-10.1
	c-4.5-14.9-2-31.4-1.3-35.3c-1.3-1.9-4.8-7.1-7.4-12.3c-3.4-6.7-1.9-16.8-0.7-22.2c0.4-2,2.2-3.4,4.2-3.4c0.4,0,0.8,0.1,1.2,0.2
	c5.8,1.6,13.3,4.3,16.1,8c2.3,3.1,3.7,5.6,4.4,7.4c2.5-1.1,7.2-2.5,15-2.5c1.3,0,2.6,0,4,0.1c8.8,0.5,16.8,2.4,20.9,3.6
	c0-2.6,0.3-6.6,2.4-10.7c3.1-6.3,10.9-8.3,15.3-8.9c0.3,0,0.5-0.1,0.8-0.1c1.8,0,3.5,0.9,4.5,2.5c2.2,3.6,5.6,10.9,4.4,19.7
	c-0.9,6.1-4,10.2-6,12.3c3.5,3.2,11.5,11.3,18.4,25.4c7.7,15.9,12.4,25.2,14.1,28.4c0.1,0.1,0.2,0.2,0.4,0.2
	c3.9,0.3,18.4,1.5,39.1,2.5c35.3,1.8,44.2,12.7,46.4,17.1c1.4-0.2,3.5-0.4,6-0.4c4.1,0,7.7,0.6,10.5,1.7c0.2,0.1,0.4,0.2,0.7,0.3
	c3.4,1.3,12.5,4.6,16.7,14.6c1.6,3.8,3.3,24,2,34.1c-0.2,1.6-1,7.2-1.4,9.5c0.9,1,2.2,3,2.6,4.9c0.5,2.6-0.4,4.4-1,5.9
	c-0.5,1.1-0.9,1.9-0.7,3c0.2,1.5,1.2,2.6,2.2,3.6c1,1,2.4,2.5,1.6,4.4c-0.7,1.6-2.6,2.5-5.6,2.5c-2.2,0-4.7-0.5-6.7-1.5
	c-5.5-2.5-9-8.4-8.5-14.4c0.4-4.1,4.4-8.4,5.9-10c0.3-2.7,1.3-12.8-0.1-21.9c-1.5-10.1-2.2-14.7-5.9-17.8c-1.7-1.4-4.9-2.1-9.1-2.1
	c-0.3,0-0.7,0-1,0c0.9,3.4,2.5,10.3,4,18.4c1.7,9.2,1,26.5-2.6,37.7c-1.4,4.2-2.2,14.9-1.7,18.4c1.6,11.6,1.5,19.3,1.4,25.6
	c0,1.4,0,2.7,0,4c0.1,9.2-1,10.1-1.6,10.6c-0.6,0.5-1.9,1.6-11,1.6c-12.1,0-13.1-1.1-13.4-1.5l-0.6-0.7l0.2-0.9
	c0.6-3.5,1.7-7.7,2.2-9.4c0-0.1,0-0.3,0-0.4c-0.9-8.4-1.7-15.8-2.5-21.2c-0.3,4.8-0.6,11.7-0.6,20.8c0,2.5-0.2,7.2-1.3,10.1
	c-0.4,1-0.9,2.4-16.7,2.4c-6.4,0-7.1-0.4-7.8-1.5c-0.4-0.7-1.3-2.3,3.1-12.4c0.2-1.5,1.1-10-1-22c-1.8-10-3.5-17.7-4.3-21.4
	c-4.2,1.5-13.9,4.8-26.2,6.5c-0.7,3.2-2.6,12.5-2.1,20.4c0.6,11.7,1.2,20.8,1.3,22.1c2.9,12.2,0.6,13-0.5,13.4
	c-2.3,0.8-7.7,0.9-10.7,0.9c-3.8,0-7.8-0.2-10.8-0.5c-3-0.3-2.7-4.4-2.6-5.9c0.1-1.6,0.4-5.8,0.5-6.6c-0.1-1.9-1.7-25-7.3-40.4
	c-0.3,0-0.6,0-0.9,0c-2,0-3.9-0.3-5.7-0.8c-0.1,6.9-0.5,25.3-2.3,40.6c0.1,0.9,0.7,4.1,1.4,8.5c0.2,1.1-0.1,2.3-0.8,3.2
	c-0.7,0.9-1.8,1.5-2.9,1.5c-2,0.1-5.4,0.3-10.1,0.4C265.2,355.3,264.7,355.3,264.2,355.3z"/>
<path class="st0" d="M196.7,149.7c0,0-4.5-6.5-7.7-12.7c-3.2-6.3-1.5-16.4-0.6-20.9c0.3-1.3,1.6-2.1,2.9-1.8
	c4.1,1.1,12.4,3.8,15.1,7.3c4.1,5.4,4.9,9.1,4.9,9.1s4.8-4.1,20-3.3c12.3,0.7,23.2,4.4,23.2,4.4s-1.3-6.1,1.9-12.6
	c2.7-5.6,10.1-7.3,13.8-7.9c1.3-0.2,2.6,0.4,3.2,1.5c1.9,3.1,5.3,10.1,4.1,18.4c-1.2,8.4-7.1,12.6-7.1,12.6s10.8,8.1,19.6,26.3
	c7.8,15.9,12.5,25.3,14.1,28.4c0.4,0.8,1.1,1.2,2,1.3c4.3,0.4,18.5,1.5,39.2,2.5c42.5,2.2,45.2,17.3,45.2,17.3s10-1.8,17,1
	c2.4,0.9,12,3.7,16.3,13.8c1.4,3.4,3.1,23.2,1.8,33.1c-0.2,1.9-1.5,10.3-1.5,10.3s2.3,2.5,2.7,4.6c0.7,3.9-2.2,5.2-1.8,8.8
	c0.5,4,4.6,5.4,3.9,6.9c-0.7,1.6-5.7,1.8-9.7,0c-4.8-2.2-7.8-7.3-7.3-12.4c0.4-4.2,5.8-9.2,5.8-9.2s1.6-12.2,0-23.1
	c-1.5-10.3-2.3-15.4-6.6-19c-4.4-3.6-13.9-2.4-13.9-2.4s2.5,8.9,4.6,20.6c1.5,8.4,1.1,25.5-2.5,36.7c-1.5,4.6-2.3,15.6-1.8,19.2
	c2,14,1.4,22.1,1.4,29.3c0,0.2,0.1,8.2-0.9,9.1c-2.3,2-21.7,0.9-21.6,0.3c0.6-3.4,1.7-7.7,2.1-9.2c0.1-0.4,0.1-0.7,0.1-1.1
	c-0.4-4.3-3.3-31.6-4.6-31.3c-1.4,0.3-2.4,14.1-2.4,31.1c0,1.6-0.1,6.7-1.1,9.4c-0.4,1-20.3,1.6-20.9,0.6
	c-0.8-1.4,3.3-10.9,3.3-10.9s1.5-9.1-1-22.9c-2.5-14-4.9-23.7-4.9-23.7s-12.5,5.3-29.1,7.4c-0.1,0-3.1,12.4-2.6,22.3
	c0.7,12.8,1.3,22.3,1.3,22.3s2.6,10.6,0.8,11.2c-2.8,1-13.8,1.1-20.6,0.3c-1.1-0.1-0.9-2.9-0.8-3.8c0.1-1.7,0.5-6.7,0.5-6.7
	s-1.5-25.9-7.9-42.4c-0.1-0.2-5,0.8-9.9-1.7c-0.1-0.1-0.1,24.2-2.4,43.6c0,0.1,0.9,5.6,1.5,8.8c0.2,1.2-0.7,2.4-1.9,2.5
	c-2,0.1-5.4,0.3-9.9,0.4c-5.8,0.1-9.6-0.2-9.9-1.3c-0.3-1.2,2-10.6,1.9-10.9c-1.2-4.7-1.8-26.9-5-36.8c-7.8-24.5-10.6-37.2-9.8-43.7
	c0.2-1.3-1.5-7.2-1.5-7.2s-2.3,1.7-7.5,1.7c-9,0.1-17.8-7.1-22.6-14c-2-2.9-2.7-5.9-2.8-17.3c0-5,0-11.1-0.9-16
	c-2.1-12.3-6.8-12.7-9.9-23C192.8,168.5,196.7,149.7,196.7,149.7z"/>
<path class="st0" d="M147.3,150.3c-1.1,0-2.3-0.1-3.8-0.3c-1.6-0.2-6.3-1.7-9.1-5.9c-1.2-1.9-3.2-5.6-2.6-9.8
	c0.6-3.7,3.4-6.9,5.1-8.8c0.3-0.3,0.5-0.6,0.7-0.8l0.6-0.7l0.9,0c0.6,0,1,0.3,1.6,0.7c1.6,1.1,2.3,1.3,2.5,1.3
	c0.1,0,0.4-0.1,0.6-0.2c0.4-0.2,1.1-0.5,1.8-0.5c0.2,0,0.4,0,0.6,0.1c2.7,0.6,4.7,5.1,4.4,8.1c-0.2,1.5-0.6,2.4-1,3.3
	c-0.3,0.7-0.6,1.3-0.8,2.4c0,0.2-0.3,1.9,0.6,2.8c2.8,2.8,3.8,3.9,3.2,5.8C151.8,150.3,148.4,150.3,147.3,150.3z"/>
<path class="st0" d="M139.2,125.9c-1.2,1.5-4.8,4.9-5.4,8.7c-0.6,3.9,1.6,7.4,2.3,8.4c2.3,3.5,6.4,4.8,7.7,5c5.7,0.8,6.8-0.2,7-1
	c0.2-0.7-0.1-1.2-2.7-3.8c-1.4-1.4-1.3-3.6-1.1-4.6c0.5-2.7,1.6-3.2,1.8-5.5c0.2-2.4-1.5-5.7-2.8-6c-0.7-0.2-1.5,0.8-2.6,0.7
	C141.8,127.9,139.3,125.8,139.2,125.9z"/>
<path class="st0" d="M422.8,417.4c-5.2,0-10.8-0.5-12.3-0.7c-0.7-0.1-1.3-0.4-1.7-1c-0.4-0.6-0.5-1.3-0.4-1.9l2.6-10.5l1.9,0.4
	c0.1,0,5.3,1.1,10.1,1.2c0.3,0,0.5,0,0.8,0c3.9,0,8.7-0.8,8.8-0.8l2.3-0.4l0,2.4c0,8.1-0.7,8.7-1.3,9.3
	C432.4,416.3,430.3,417.4,422.8,417.4z"/>
<path class="st0" d="M412.4,405.7l-2.1,8.6c-0.1,0.2,0.1,0.5,0.3,0.5c2.9,0.3,18.6,1.8,21.5-0.8c0.7-0.6,0.7-7.8,0.7-7.8
	s-5.7,1-10,0.8C417.8,406.8,412.4,405.7,412.4,405.7z"/>
<path class="st0" d="M358.4,407.1c-5.9,0-7.6-0.5-8.1-2.2c-0.6-2.2,1.4-7.1,2.7-9.8l0.6-1.4l1.5,0.2c0,0,3.9,0.6,8.6,0.6l0.6,0
	c4.9,0,9.9-0.5,9.9-0.5l2.4-0.3l-0.2,2.4c-0.6,9.1-1.2,9.3-2.4,9.7C372.2,406.6,363.3,407.1,358.4,407.1z"/>
<path class="st0" d="M354.8,395.9c0,0-3,6.6-2.5,8.4c0.4,1.5,19.1,0.4,21-0.3c0.5-0.2,1.1-8,1.1-8s-5.4,0.6-10.7,0.5
	C358.8,396.5,354.8,395.9,354.8,395.9z"/>
<path class="st0" d="M313.2,413.1c-3.7,0-7-0.2-9.3-0.5c-1.4-0.2-3.4-1.5-3.2-3.4l0.8-12.2l2.6,1.3c0,0,3.6,1.7,7.7,1.9
	c0.2,0,0.3,0,0.5,0c4.4,0,10.5-2,10.5-2l2.2-0.7l1.6,10.1c0.3,1.6-0.2,2.7-0.6,3.4c-0.7,1-1.8,1.6-3.3,1.8
	C320.4,413,316.9,413.1,313.2,413.1z"/>
<path class="st0" d="M303.2,400.1c0,0,3.9,1.9,8.5,2.1c4.8,0.2,11.8-2.1,11.8-2.1l1.2,7.8c0.2,1.1,0.1,2.5-2.2,2.9
	c-4.5,0.6-13.4,0.7-18.3,0c-0.6-0.1-1.6-0.7-1.6-1.3L303.2,400.1z"/>
<path class="st0" d="M270.4,413.3c-4.5,0-9.1-0.4-11.9-1c-2.4-0.5-1.9-3.1-1-8.2c0.5-2.9,1.2-5.8,1.2-5.8l0.5-2.4l2.2,1
	c0.1,0,6.1,2.7,10.5,2.7c0.1,0,0.2,0,0.3,0c2.9-0.1,6.3-0.9,6.3-0.9l1.9-0.5l0.5,1.8c3.2,11.1,0.2,12-0.8,12.3
	C277.5,413.1,273.4,413.3,270.4,413.3z"/>
<path class="st0" d="M260.6,398.7c0,0,6.8,3,11.6,2.8c3.2-0.1,6.7-1,6.7-1s2.6,9.2,0.5,9.9c-4.5,1.4-15.8,1-20.5,0
	C258.2,410.2,260.6,398.7,260.6,398.7z"/>
<path class="st0" d="M295,458.3c-1.5,0-2.5-0.7-3.3-1.4c-1.8-1.4-2.5-5.2-1.4-7.1c1-1.7,3.3-1.9,4-1.9c0.7,0,1.7,0.1,2.6,0.7
	c1.4,0.9,2.8,3.1,2.8,4.9c0,2.3-1.1,3.8-3.2,4.5C296,458.2,295.5,458.3,295,458.3z"/>
<path class="st0" d="M297.7,453.6c0-1.1-1-2.7-1.9-3.2c-0.9-0.6-3.2-0.4-3.8,0.6c-0.6,1.1-0.1,3.7,0.9,4.5c0.7,0.6,1.6,1.2,3,0.8
	C297.8,455.6,297.7,454.3,297.7,453.6z"/>
<path class="st0" d="M336.9,456.5c-0.5,0-1-0.1-1.5-0.3c-2.1-0.7-3.2-2.2-3.2-4.4c0-1.9,1.5-4.1,2.8-5c0.8-0.5,1.9-0.7,2.5-0.7
	c0.7,0,3,0.1,4,1.9c1.1,1.9,0.4,5.7-1.4,7.1C339.4,455.8,338.4,456.5,336.9,456.5z"/>
<path class="st0" d="M334.2,451.8c0-1.1,1-2.7,1.9-3.2c0.9-0.6,3.2-0.4,3.8,0.6c0.6,1.1,0.1,3.7-0.9,4.5c-0.7,0.6-1.6,1.2-3,0.8
	C334.2,453.7,334.2,452.5,334.2,451.8z"/>
</svg>
