<?xml version="1.0" encoding="utf-8"?>
<!-- Generator: Adobe Illustrator 26.4.1, SVG Export Plug-In . SVG Version: 6.00 Build 0)  -->
<svg version="1.1" id="Layer_1" xmlns="http://www.w3.org/2000/svg" xmlns:xlink="http://www.w3.org/1999/xlink" x="0px" y="0px"
	 viewBox="0 0 566.9 566.9" style="enable-background:new 0 0 566.9 566.9;" xml:space="preserve">
<style type="text/css">
	.st0{fill:none;stroke:#3B51A3;stroke-miterlimit:10;}
	.st1{fill:none;stroke:#3F51A3;stroke-miterlimit:10;}
	.st2{fill:none;stroke:#5CBA47;stroke-miterlimit:10;}
	.st3{fill:none;stroke:#FFFFFF;stroke-miterlimit:10;}
</style>
<path class="st0" d="M264.1,363.3c-6.2,0-15.7,0-17.9-8.7c-0.8-2.9-0.3-5.6,1.3-12.8c0-0.2,0.1-0.4,0.1-0.6c-0.3-2.2-0.6-5.3-1-9.8
	c-0.7-7.4-1.7-18.7-3.3-24c-6.7-20.9-9.8-33.7-10.3-42.2c-12.9-0.4-24.1-10-29.8-18.3c-3.8-5.5-4.5-10.8-4.6-23
	c0-4.6,0-10.2-0.8-14.3c-0.9-5-2.1-6.9-3.9-9.8c-1.8-2.8-4-6.3-5.7-12.1c-4.2-13.7-3-28.6-2.1-35.8c-1.7-2.7-4.2-6.6-6.1-10.6
	c-4.2-8.5-3.1-19.6-1.4-27.5c1.2-5.6,6.3-9.7,12.1-9.7c1.1,0,2.2,0.2,3.3,0.5c15.3,4.3,19.1,9.3,20.4,10.9c0.7,0.9,1.3,1.8,1.9,2.7
	c3-0.6,6.7-1,11.1-1c1.4,0,2.9,0,4.4,0.1c5,0.3,9.8,1,13.8,1.8c0.4-1.4,1-2.9,1.8-4.4c3.5-7.1,11.1-11.9,21.3-13.4
	c0.6-0.1,1.3-0.1,1.9-0.1c4.6,0,9,2.5,11.3,6.4c2.7,4.5,7,13.8,5.5,25c-0.6,4.1-1.9,7.6-3.5,10.4c4.4,4.9,10,12.3,15.1,22.7
	c5.7,11.7,9.7,19.8,12.1,24.5c6.5,0.5,18.7,1.4,34.6,2.2c19.5,1,34.1,4.8,43.6,11.2c2.7,1.8,4.8,3.8,6.3,5.6c0.6,0,1.3,0,2,0
	c5.2,0,9.7,0.8,13.5,2.3c0.1,0.1,0.3,0.1,0.5,0.2c3.9,1.4,15.7,5.8,21.3,19c2.6,6.3,3.8,28.5,2.5,38.3c-0.1,1.1-0.6,4-0.9,6.5
	c0.9,1.6,1.7,3.4,2.1,5.4c0.7,3.9-0.2,7-1,9.1c4.2,4.8,3.7,9.2,2.5,12.1c-0.9,2.3-4,7.5-13,7.5c-3.4,0-7-0.8-10.1-2.2
	c-2.9-1.3-5.5-3.3-7.6-5.7c-0.2,2.5-0.2,4.7-0.1,5.7c1.7,12.2,1.6,20.3,1.5,26.8c0,1.3,0,2.6,0,3.9c0.1,8.7-0.6,13.4-4.4,16.7
	c-3.1,2.7-7.2,3.6-16.3,3.6c-10,0-14.3-0.7-16.7-1.9c-1.9,0.4-3.9,0.5-5.7,0.7c-3.1,0.2-7,0.3-10.3,0.3c0,0,0,0,0,0
	c-5.9,0-11.5,0-14.7-5.5c-2.4-4.2-1.9-8.8,2.2-18.5c0.2-2.5,0.6-9.3-1.1-18.6c-0.8-4.7-1.7-8.9-2.4-12.4c-3.8,1.1-8.3,2.2-13.4,3.2
	c-0.6,3.7-1.2,8.7-0.9,12.9c0.6,10.4,1.1,18.7,1.2,21.4c1.6,6.5,4.1,18.6-5.8,22.2c-1.1,0.4-3.9,1.4-13.4,1.4
	c-4.1,0-8.4-0.2-11.7-0.6c-0.6-0.1-2-0.3-3.5-1c-3.5-1.7-7.6-1.7-11.1,0c-0.3,0.2-0.6,0.3-0.9,0.4c-1.3,0.5-2.6,0.8-4,0.9
	c-2.2,0.1-5.6,0.3-10.2,0.4C265.3,363.3,264.1,363.3,264.1,363.3z"/>
<path class="st0" d="M196.7,149.7c0,0-4.5-6.5-7.7-12.7c-3.2-6.3-1.5-16.4-0.6-20.9c0.3-1.3,1.6-2.1,2.9-1.8
	c4.1,1.1,12.4,3.8,15.1,7.3c4.1,5.4,4.9,9.1,4.9,9.1s4.8-4.1,20-3.3c12.3,0.7,23.2,4.4,23.2,4.4s-1.3-6.1,1.9-12.6
	c2.7-5.6,10.1-7.3,13.8-7.9c1.3-0.2,2.6,0.4,3.2,1.5c1.9,3.1,5.3,10.1,4.1,18.4c-1.2,8.4-7.1,12.6-7.1,12.6s10.8,8.1,19.6,26.3
	c7.8,15.9,12.5,25.3,14.1,28.4c0.4,0.8,1.1,1.2,2,1.3c4.3,0.4,18.5,1.5,39.2,2.5c42.5,2.2,45.2,17.3,45.2,17.3s10-1.8,17,1
	c2.4,0.9,12,3.7,16.3,13.8c1.4,3.4,3.1,23.2,1.8,33.1c-0.2,1.9-1.5,10.3-1.5,10.3s2.3,2.5,2.7,4.6c0.7,3.9-2.2,5.2-1.8,8.8
	c0.5,4,4.6,5.4,3.9,6.9c-0.7,1.6-5.7,1.8-9.7,0c-4.8-2.2-7.8-7.3-7.3-12.4c0.4-4.2,5.8-9.2,5.8-9.2s1.6-12.2,0-23.1
	c-1.5-10.3-2.3-15.4-6.6-19c-4.4-3.6-13.9-2.4-13.9-2.4s2.5,8.9,4.6,20.6c1.5,8.4,1.1,25.5-2.5,36.7c-1.5,4.6-2.3,15.6-1.8,19.2
	c2,14,1.4,22.1,1.4,29.3c0,0.2,0.1,8.2-0.9,9.1c-2.3,2-21.7,0.9-21.6,0.3c0.6-3.4,1.7-7.7,2.1-9.2c0.1-0.4,0.1-0.7,0.1-1.1
	c-0.4-4.3-3.3-31.6-4.6-31.3c-1.4,0.3-2.4,14.1-2.4,31.1c0,1.6-0.1,6.7-1.1,9.4c-0.4,1-20.3,1.6-20.9,0.6
	c-0.8-1.4,3.3-10.9,3.3-10.9s1.5-9.1-1-22.9c-2.5-14-4.9-23.7-4.9-23.7s-12.5,5.3-29.1,7.4c-0.1,0-3.1,12.4-2.6,22.3
	c0.7,12.8,1.3,22.3,1.3,22.3s2.6,10.6,0.8,11.2c-2.8,1-13.8,1.1-20.6,0.3c-1.1-0.1-0.9-2.9-0.8-3.8c0.1-1.7,0.5-6.7,0.5-6.7
	s-1.5-25.9-7.9-42.4c-0.1-0.2-5,0.8-9.9-1.7c-0.1-0.1-0.1,24.2-2.4,43.6c0,0.1,0.9,5.6,1.5,8.8c0.2,1.2-0.7,2.4-1.9,2.5
	c-2,0.1-5.4,0.3-9.9,0.4c-5.8,0.1-9.6-0.2-9.9-1.3c-0.3-1.2,2-10.6,1.9-10.9c-1.2-4.7-1.8-26.9-5-36.8c-7.8-24.5-10.6-37.2-9.8-43.7
	c0.2-1.3-1.5-7.2-1.5-7.2s-2.3,1.7-7.5,1.7c-9,0.1-17.8-7.1-22.6-14c-2-2.9-2.7-5.9-2.8-17.3c0-5,0-11.1-0.9-16
	c-2.1-12.3-6.8-12.7-9.9-23C192.8,168.5,196.7,149.7,196.7,149.7z"/>
<path class="st1" d="M147.3,158.3c-1.4,0-3-0.1-4.8-0.4c-3.5-0.5-10.5-3-14.7-9.4c-1.9-2.8-4.8-8.5-3.8-15.4
	c0.9-6.1,4.9-10.6,7.1-13c0.2-0.2,0.4-0.4,0.5-0.6l0,0c1.9-2.3,4.7-3.6,7.7-3.6l0,0c2.2,0,3.9,0.7,5,1.3c0.5-0.1,1-0.1,1.5-0.1
	c0.8,0,1.6,0.1,2.4,0.3c7.1,1.6,11.3,10.1,10.6,16.8c-0.2,1.9-0.7,3.4-1.2,4.6c2.4,2.8,4.4,6.5,2.7,11.4
	C159.5,152.6,156.6,158.3,147.3,158.3z"/>
<path class="st1" d="M139.2,125.9c-1.2,1.5-4.8,4.9-5.4,8.7c-0.6,3.9,1.6,7.4,2.3,8.4c2.3,3.5,6.4,4.8,7.7,5c5.7,0.8,6.8-0.2,7-1
	c0.2-0.7-0.1-1.2-2.7-3.8c-1.4-1.4-1.3-3.6-1.1-4.6c0.5-2.7,1.6-3.2,1.8-5.5c0.2-2.4-1.5-5.7-2.8-6c-0.7-0.2-1.5,0.8-2.6,0.7
	C141.8,127.9,139.3,125.8,139.2,125.9z"/>
<path class="st2" d="M422.8,425.4c-5.6,0-11.5-0.6-13.2-0.7c-3-0.3-5.7-1.9-7.4-4.3c-1.7-2.5-2.3-5.5-1.6-8.5l2.1-8.6
	c1.3-5.2,6.5-8.5,11.8-7.4l0,0c0,0,4.6,1,8.7,1.1c0.2,0,0.4,0,0.5,0c2.7,0,6.3-0.5,7.4-0.7l0.5-0.1c5.8-1,11.2,3.5,11.2,9.4l0,0.5
	c0,8.2-0.6,12.2-4,15.2C435.6,424.2,431,425.4,422.8,425.4z"/>
<path class="st2" d="M412.4,405.7l-2.1,8.6c-0.1,0.2,0.1,0.5,0.3,0.5c2.9,0.3,18.6,1.8,21.5-0.8c0.7-0.6,0.7-7.8,0.7-7.8
	s-5.7,1-10,0.8C417.8,406.8,412.4,405.7,412.4,405.7z"/>
<path class="st2" d="M358.4,415.1c-5.1,0-13.6,0-15.8-8.2c-0.5-1.7-1.4-5.4,3.1-15.2l0.3-0.6c1.7-3.7,5.7-5.8,9.7-5.2l0.6,0.1
	c0,0,3.4,0.5,7.4,0.5l0.5,0c4.5,0,9-0.5,9.1-0.5l0.4,0c6-0.6,11,4.3,10.6,10.2l0,0.4c-0.6,8.2-1,14.2-7.5,16.6
	C372.5,415.1,358.6,415.1,358.4,415.1z"/>
<path class="st2" d="M354.8,395.9c0,0-3,6.6-2.5,8.4c0.4,1.5,19.1,0.4,21-0.3c0.5-0.2,1.1-8,1.1-8s-5.4,0.6-10.7,0.5
	C358.8,396.5,354.8,395.9,354.8,395.9z"/>
<path class="st2" d="M313.2,421.2c-2.3,0-6.8-0.1-10.5-0.6c-5.3-0.8-10.5-5.4-10.1-11.9l0.6-9.5c0.5-7.1,8-11.3,14.3-8.1l0,0
	c0.5,0.2,2.6,1,4.5,1.1l0.2,0c2.1,0,6-1,8-1.6l0,0c5.8-1.9,12,1.8,13,7.9l0,0l1.2,7.6c0.6,3.4-0.1,6.7-2,9.4c-2,2.8-5.1,4.6-8.7,5.1
	C321.1,420.9,317.3,421.2,313.2,421.2z"/>
<path class="st2" d="M303.2,400.1c0,0,3.9,1.9,8.5,2.1c4.8,0.2,11.8-2.1,11.8-2.1l1.2,7.8c0.2,1.1,0.1,2.5-2.2,2.9
	c-4.5,0.6-13.4,0.7-18.3,0c-0.6-0.1-1.6-0.7-1.6-1.3L303.2,400.1z"/>
<path class="st2" d="M270.4,421.3c-5.1,0-10.3-0.5-13.6-1.2c-1.5-0.3-9-2.5-7.9-12.8c0.1-1.2,0.4-2.7,0.7-4.7c0.5-3,1.2-6,1.2-6.1
	l0,0c1.3-6.2,8-9.6,13.8-7l0,0c2.2,1,5.7,2,7.2,2c1.7-0.1,4-0.5,4.6-0.7l0,0c5.2-1.3,10.6,1.8,12.1,6.9l0,0c0.1,0.3,0.8,2.9,1.3,5.8
	c1.9,11.6-3.8,15.2-7.4,16.4C279.6,420.9,275.5,421.3,270.4,421.3z"/>
<path class="st2" d="M260.6,398.7c0,0,6.8,3,11.6,2.8c3.2-0.1,6.7-1,6.7-1s2.6,9.2,0.5,9.9c-4.5,1.4-15.8,1-20.5,0
	C258.2,410.2,260.6,398.7,260.6,398.7z"/>
<path class="st3" d="M295,466.3c-4.5,0-7.4-2.3-8.4-3.1c-4.9-4-6.4-12.1-3.2-17.5c2.2-3.6,6.2-5.7,10.9-5.7c2.5,0,4.9,0.7,6.9,1.9
	c3.1,2,6.5,6.6,6.5,11.7c0,5.8-3.3,10.2-8.6,12C297.8,466.1,296.4,466.3,295,466.3L295,466.3z"/>
<path class="st3" d="M297.7,453.6c0-1.1-1-2.7-1.9-3.2c-0.9-0.6-3.2-0.4-3.8,0.6c-0.6,1.1-0.1,3.7,0.9,4.5c0.7,0.6,1.6,1.2,3,0.8
	C297.8,455.6,297.7,454.3,297.7,453.6z"/>
<path class="st3" d="M336.9,464.5c-1.4,0-2.7-0.2-4-0.7c-5.4-1.8-8.6-6.3-8.6-12c0-5.2,3.3-9.7,6.5-11.7c2-1.3,4.4-1.9,6.9-1.9
	c4.6,0,8.7,2.1,10.9,5.7c3.2,5.3,1.7,13.5-3.2,17.5C344.3,462.1,341.4,464.5,336.9,464.5z"/>
<path class="st3" d="M334.2,451.8c0-1.1,1-2.7,1.9-3.2c0.9-0.6,3.2-0.4,3.8,0.6c0.6,1.1,0.1,3.7-0.9,4.5c-0.7,0.6-1.6,1.2-3,0.8
	C334.2,453.7,334.2,452.5,334.2,451.8z"/>
</svg>
