<?xml version="1.0" encoding="utf-8"?>
<!-- Generator: Adobe Illustrator 26.4.1, SVG Export Plug-In . SVG Version: 6.00 Build 0)  -->
<svg version="1.1" id="Layer_1" xmlns="http://www.w3.org/2000/svg" xmlns:xlink="http://www.w3.org/1999/xlink" x="0px" y="0px"
	 viewBox="0 0 566.9 566.9" style="enable-background:new 0 0 566.9 566.9;" xml:space="preserve">
<style type="text/css">
	.st0{fill:none;stroke:#4754A5;stroke-miterlimit:10;}
</style>
<path class="st0" d="M226.6,160.3c2.2-0.4,4,1.8,4.4,2.2c0.7,0.8,1.9,2.3,1.4,3.9c-0.3,1.1-1.2,2-2.2,2.2c-2.2,0.6-4.5-1.6-5.3-3.5
	c-0.2-0.5-1.1-2.4-0.2-3.8C225.3,160.6,226.3,160.4,226.6,160.3z"/>
<path class="st0" d="M249.3,160.3c-2.2-0.4-4,1.8-4.4,2.2c-0.7,0.8-1.9,2.3-1.4,3.9c0.3,1.1,1.2,2,2.2,2.2c2.2,0.6,4.5-1.6,5.3-3.5
	c0.2-0.5,1.1-2.4,0.2-3.8C250.6,160.6,249.6,160.4,249.3,160.3z"/>
<path class="st0" d="M320.6,322c0,0,2.2-7.4,7.6-13.1c6.5-6.9,21.1-6.9,21.1-6.9s8.4,2.6,8.2,3.7c-0.2,1.2-7.3,0.9-15.7,3.4
	c-4.3,1.3-8.2,2.4-11.6,5.7c-6.5,6.4-5.9,15.8-5.7,17.6c0.4,5.5,3.6,10.4,3.6,10.4s0.1-5.7,2.7-12.5c3.2-8.4,9.9-12.6,13.5-14.4
	c3.2-1.6,20.2-4.6,20.2-4.6s2.3,2,1.6,4.1c-1.4,4.2-6,2.7-16.1,6.6c-3.5,1.4-11.6,6.6-12.5,8c-2.5,4-5.3,18.3-6.1,24.2
	c-0.1,0.7,0.3,3.7,0.2,10.3c-0.1,9.8-2,15.7-2.4,16.9c-0.4,1.2-3.3,1.6-5.8,1.4c-0.8-0.1-0.3,0.1-0.8-0.4c-1.7-1.7,1.6-8.4,2.6-11.9
	c1.2-4.7,1.5-12.9-1.3-26.6c-2.2-10.6-3.9-19.2-10.1-28.5c-6.1-9.3-12.4-19.6-12.4-19.6l5.7,0.3c0,0,2.6,8,2.9,8
	c0.3,0,1.4-7.8,1.4-7.8l3.5,0.2c0,0-0.6,7.9,0.4,8.4c0.9,0.4,7.2-7.9,7.2-7.9l9.5,0.7c0,0-15.7,11.8-16.4,14.7
	C315.3,313.7,320.6,322,320.6,322z"/>
<path class="st0" d="M372.1,324c-5.5-3.9-24.6,2.2-31,12.7c-9,14.7-9.2,33.5-7.4,41.9c0.3,1.4,2.9,1.6,2.9,1.6
	c0.5,1.8,1.3,1.8,2.5,1.8c1.3,0,2.9-8.9,6.1-14.4c4-6.8,10.5-14.7,20-19c6.6-3,11.7-4.2,11.7-4.2l-1-4.1c0,0-13.6,3.3-22.3,6.6
	c-7,2.6-15.2,29.3-15.2,29.3s-14-40.4,35.2-45C373.7,331,372.7,324.4,372.1,324z"/>
<path class="st0" d="M378.2,355.4c-2.2-1.5-7,3.3-11,4.7c-4.3,1.5-9,0.6-13.8,5.9c-6.9,7.5-6.5,10.2-6.5,10.2s-4.4,4.5-4.6,8.1
	c0,0.6,0.3,1,0.3,1c0.2,0.2,0.4,0.5,0.9,0.6c2,0.6,8.9-7.7,8.9-7.7s3.4,0.6,10.7-0.2c5.9-0.7,11.4-2.9,14-5.5c1-1.1,1.1-8.1,1.1-8.1
	s-3.8,3.7-12.3,7.5c-0.8,0.4-13.5,2.8-13.5,2.8s0.1-3.8,3.1-6c3.3-2.4,7.9-2.8,16-5.7c3.8-1.3,6.8-4.6,6.8-4.6
	S378.2,355.5,378.2,355.4z"/>
<path class="st0" d="M375.6,381.9c0-1.6-4.7,1.2-9.8,2c-4.3,0.7-6.9-0.2-10.5,0.5c-5.5,1.1-4.5,4-9.8,4.6c-3.1,0.3-4.6-0.3-5.4,1
	c-0.5,0.8,0,1.3,0.7,2.1c1.4,1.5,5.5,0.3,6.6,0.1c2.6-0.6,7-4.8,11.7-5.1c3.2-0.2,6,0.5,8.8,1.7c1.9,0.8,6.6-2.8,6.6-2.8
	S375.6,381.9,375.6,381.9z"/>
<path class="st0" d="M360.1,391c-1.6,0.9-4.4,3.8-6.4,3.8c-1.5,0.1-2.4-1.5-3.5-0.6c-1,0.9-1.3,2.9-0.4,3.9c0.7,0.8,2.7,0.1,4.2,0.1
	c2.1-0.1,4.6,0,5.4-0.2c1.7-0.4,4.6-5.4,3.4-7.1C362.3,390.2,360.6,390.6,360.1,391z"/>
<path class="st0" d="M350.4,402.3c0,0,0.7,0.2,4.7,0.4c9.7,0.3,12.6-9.5,14.8-8.3c1.5,0.8,3.3,0.7,3.3,0.7s-0.2,3-0.1,3.7
	c-1.2,1.5-3.4,2.4-4.7,3.3c-7.2,5.2-17.5,2.8-17.5,2.8L350.4,402.3z"/>
<path class="st0" d="M351.2,407.1c0,0,8.5,3.5,10.8,2.6c7.7-2.8,11.2-5.6,11.2-5.6l0.3,2.6c0,0-6.8,5.3-10.2,5.8
	c-3.2,0.5-11.7-2.8-11.7-2.8L351.2,407.1z"/>
<path class="st0" d="M352,412.4c0,0,8.2,5.5,12.7,5.1c3.6-0.3,9.4-3.9,9.4-3.9l0.3,3.7c-1,0.3-7.5,2.8-12.7,3.5c-0.2,0-0.3,0-0.5,0
	c-5.8,0.1-8.4-0.8-8.4-0.8s0-0.8-0.2-1.6c0-0.1,0.1-0.2,0.2-0.2c3.1,0.1,5.2-0.3,5.2-0.3s-3.3-1-5.5-1.9c-0.2-0.1-0.3-0.2-0.3-0.4
	L352,412.4z"/>
<path class="st0" d="M374.6,424.3c0,0-6.8,1.9-11.3,1c-2.1-0.4-3.6-1.5-6-1.1c-1.2,0.2-3.7,0.4-3.7,0.4l0.2,2.5c0,0,1.5-0.3,2.7-0.5
	c3.5-0.6,4.4,2.2,8.5,2.4c4,0.2,9.6-2.8,9.6-2.8L374.6,424.3z"/>
<path class="st0" d="M354.2,431.3c0,0,6,0.7,12.2,0.8c3.8,0.1,8.1-1.4,8.1-1.4v3.1c0,0-8,1-9.8,0.9c-6.7-0.4-10.7-1.3-10.7-1.3
	L354.2,431.3z"/>
<path class="st0" d="M325.3,396.5c1.2-1.2,5.1-1.4,6.1-3c0.6-1,0.4-1.9,1.2-2.4c0.4-0.2,1.2,0,1.9,0.3c2.2,0.8,2,2,3.4,3.1
	c3,2.4,7.3,1.4,8.8,3.5c0.8,1.2,0.9,1.9,0.8,2c-1.4,0.5-4-0.6-7.4,0.5c-5,1.5-9.7,5.8-12.4,7.7c-0.1,0-0.8-2.8-0.8-3.8
	c0.1-1.7,4.1-3,6.8-4.3c2.9-1.4,5-1.9,5-1.9s-3.4-1.9-5.6-1.7c-3.1,0.3-6.3,3.5-7.5,2.5C325.6,398.8,325.2,396.5,325.3,396.5z"/>
<path class="st0" d="M348,404.9c-0.4-1.2-4.6-1.8-8.8-1.2c-0.8,0.1-2,0.5-2.4,1.2c-0.3,0.6,0,1.5,0.6,2c0.7,0.7,3.5,0.1,5.8,0.3
	c2.2,0.2,3.9,0.2,4.7-0.2C347.9,407,348,405,348,404.9z"/>
<path class="st0" d="M328.2,412.2c0.6-1.3,3.2-2.1,5.1-2.5c1.3-0.2,4-0.5,6.1,0.5c0.6,0.3,1.6,1.7,1.2,2.2c-0.8,1-4.5-1-7.1-0.1
	c-2.2,0.8-3.7,2.8-4.8,3C328.5,415.4,328,412.6,328.2,412.2z"/>
<path class="st0" d="M347.6,415.1c-3.1-0.7-5.1-0.2-8.2-0.1c-1,0.1-0.8,0.9-0.4,1.7c0.5,0.9,6.2,0.4,8.3-0.1
	C347.5,416.7,347.7,415.1,347.6,415.1z"/>
<path class="st0" d="M329,420.9c0.6-0.7,3.2-0.1,5.7-0.2c2.5-0.1,2.9-0.9,5.9-1.1c0.6,0,3.2-0.2,3.3,0.3c0.1,0.2,0,0.6-5.5,2.8
	c-4.9,1.9-9.5,0.9-9.5-0.1C328.9,422.5,328.9,421,329,420.9z"/>
<path class="st0" d="M347.3,423.3c-0.3-0.7-4,0.5-5.7,1.7c-2.6,1.8-4.2,0.1-6.5,0.8c-0.8,0.2-2.4,0.5-2.2,1.2
	c0.4,1.2,4.3,1.4,6.2,0.9c5.7-1.4,5.8-1.2,8.2-2.2C347.3,425.7,347.3,423.4,347.3,423.3z"/>
<path class="st0" d="M327,432.8c0,0,4.3,0.6,8,0.8c5.3,0.3,12.2-0.5,12.2-0.5l0-2.8c0,0-5.2,1-9.1,0.9c-4.1-0.1-9.6-0.8-9.6-0.8
	L327,432.8z"/>
<path class="st0" d="M292.1,295.6c0,0,3.2-0.2,3.6,0.4c6.3,6.9,20.7,31.5,23.9,54.5c1.8,12.8-6,36.8-6,36.8l-6.1,1.7
	c0,0,4.6-20.1,4.2-39.6c-0.1-5.7-0.5-19.8-8.6-33.6C298.5,308.1,292.1,295.6,292.1,295.6z"/>
<path class="st0" d="M286.9,295c0,0,9.4,12.7,16,41.4c4.4,19.3,1.8,42.4-4.9,54.3c-0.4,0.8-2.4,0.5-2.4,0.5s4.4-11.9,3.4-36.9
	c-0.5-10.8-3-22.3-6.9-38c-3.1-12.6-7.7-21.2-7.7-21.2L286.9,295z"/>
<path class="st0" d="M278.2,291.5c0.9-0.6,0.6,1.3,2.4,2.8c1.1,0.9,1.9,0.4,2,0.9c6.2,35,13.6,68.2,13.6,68.2c0,1.2-2.5,1.7-2.7,0.8
	c-2.8-10.6-10.9-43.5-12.8-59.2c-0.1-0.8-1.6-0.7-2.1-2.2C277,298.2,276.5,292.7,278.2,291.5z"/>
<path class="st0" d="M271.9,436c0,0,5.4,0.6,9.4,0.5c4.5-0.1,10.7-0.6,10.7-0.6l0.4,1.1c0,0-4.9,2.1-11.1,2.2
	c-4.4,0.1-9.4-2.1-9.4-2.1V436z"/>
<path class="st0" d="M291.7,428.3c0,0-11.7-0.2-12-1c-0.1-0.4,1.1-1.7,2.4-2.1c3.5-1.2,9.4-0.9,9.4-0.9l-0.1-3.4
	c0,0-5.4,0.7-7.2,0.9c-0.6,0.1-1.8,0.1-2.6,0.2c-2.1,0.2-1.6,2.8-4.2,3.9c-2,0.9-5.9,1.2-5.9,1.2l0.2,3c0,0,5.9,0.9,8.4,0.8
	c7-0.4,11.9-0.1,11.9-0.1L291.7,428.3z"/>
<path class="st0" d="M270.6,422.9c0,0,5.8-4,10.2-4.8c4.3-0.8,10.4-1.4,10.4-1.4l-0.2-2.6c0,0-6.6,0.2-11-0.6
	c-5-0.9-10.9-2.3-10.9-2.3l0.4,2.1c0,0,7.2,1.6,7.3,2.2c0.2,0.6-6.5,3.9-6.5,3.9L270.6,422.9z"/>
<path class="st0" d="M268,408.3c0,0,2.6,0.9,7.9,2.6c5,1.6,7,0.9,7.9,0.8c2.5-0.2,6.9-1.7,6.9-1.7v-3.4c0,0-6.1,2.6-10.4,2.4
	c-2.3-0.1-5.4-2-7.9-2.9c-2-0.7-5-1-5-1L268,408.3z"/>
<path class="st0" d="M291.7,399.2l-0.5,2.8c0,0-2.3,1.4-5.1,1.6c-2.8,0.1-6.4,0.2-9,0.1c-5.1-0.4-5.6,1-8.1-1
	c-1.7-1.4-2.2-3.2-1.8-5.1c0.9-3.6,3.4-2.4,6.6-3.5c5.7-1.9,15.7-1.5,18.8,0c0.1,0-0.6,2.2-0.7,2.2c-2.9,0.6-7.3-0.5-12.9,0.5
	c-4.1,0.7-8.8,2.8-7.5,2.9c6.9,0.7,8,0.4,10.6,0.2C284.4,399.8,291.7,399.2,291.7,399.2z"/>
<path class="st0" d="M293.7,385.3c1.3,0.5-0.4,3.3-1.6,3.7c-2.7,1-8.8-6.5-10.1-6.6c-4-0.5-9.4,8.7-15.2,10.3
	c-1.5,0.4-4.2-0.2-3.2-1.1c5.8-5.3,17.3-13.6,18.8-13.4C285.2,378.6,283.1,381.5,293.7,385.3z"/>
<path class="st0" d="M282.3,365.1c1,0.1,4.8,3.8,5.9,6.4c1.4,3.4,0.2,5.9,2.1,7.2c1,0.7,4.3,0.7,3.7-0.5c-3.6-6.6-4.9-20.1-6.6-20.7
	c-0.4-0.1-1.3-0.3-2.3-1c-1.7-1.3-1.8-3.1-2.5-3.1c-0.9-0.1-1.6,2.3-2.3,4.2c-1.9,5.1-2.8,7.7-4.7,10.1c-2.6,3.2-5,3.4-5.8,6.2
	c-0.3,0.9-0.4,2.1-1.4,3.2c-0.8,0.9-1.6,2.3-1.7,3.1c0,0.6,1.3,0.9,1.7,1.1C270.8,382.2,281.2,365,282.3,365.1z"/>
<path class="st0" d="M252.2,383.1c2.2,1.6,10-3.1,15-9.6c5.6-7.3,8.6-17.7,14.3-24.8c0.7-0.9,1.5,1.2,2.7-2.8
	c1-3.4-0.4-4.7-2.4-11.1c-0.6-2-2-7.2-4.6-17.7c-5.1-20.1-4.4-22.8-4.4-25.8c0-3.9,3.4-4.2,3.4-4.2l-2.7-5.7c0,0-3.1,4.4-3.5,7.1
	c-1.8,10.9,1.7,19.5,3.5,26.9c1,3.9,4.4,18.2,0.1,33.6c-2.4,8.7-10,19.3-14.5,24.9c-1.5,1.9-4.4,5.1-7.2,6.5
	C251.3,380.7,251.1,382.3,252.2,383.1z"/>
<path class="st0" d="M248.8,366.5c1.1,1.1,8.8-1.6,14.5-10.1c5.6-8.4,4.4-11.1,6.3-31c0.1-1.2-0.9-2.7-1.6-3.7
	c-0.7-1-1.2-30.9-2.5-36.7c-0.6-2.7,6.2-7.6,6.2-7.6l-1.4-3.1c0,0-8,6.1-8.1,11.4c-0.1,4.2,1.1,8.2,1.4,10.9
	c0.8,6.8,0.3,17.7,0.9,27.5c0.8,13-5.9,25-8.7,30.2C251.6,362,247.9,365.6,248.8,366.5z"/>
<path class="st0" d="M242.9,349.6c5.5-5,14.1-14.7,12-16.9c-0.3-0.3-1-0.6-1-0.6s1.7-4.7,3-7.1c1.1-2,1.6-3.9,1.6-12.7
	c0.1-12.6-0.8-21.1,0.6-29.5c0.6-3.9,1.4-5.5,2.2-6.7c2.3-3.5,5.9-7.7,5.9-7.7l-2.4-4.3c0,0-5.4,1.8-7.9,17
	c-1.8,11.1-0.6,12.6-2,23.1c-1.7,12.7-4.2,22.2-6.4,28.2c-3,8.2-3.5,8.3-7.4,16C240.5,349.5,242.3,350.2,242.9,349.6z"/>
<path class="st0" d="M258.1,252.1l3.1,4.8c0,0-4.5,10.2-7.9,12.8c-2.1,1.6-0.5,5.1-2.1,12.6c-0.7,3.2-1.4,5.9-1.3,8.6
	c0,1,0.3,3.3,0.3,4.2c-0.3,5.6-1.1,5.6-2.3,9.7c-0.2,0.8,0,0.3,0.2,1.1c0.7,3-8.3,13.5-11.8,12.6c-0.2,0-2-0.3,0-1.9
	c7.8-6.1,10.3-22.3,11.7-36.4c0.6-6.3,1.5-12.1,4.6-20C254,256.1,258.1,252.1,258.1,252.1z"/>
<path class="st0" d="M251.9,435.7c-0.2,0.5,0,1.1,0.1,1.4c0,0.1,0,0.3-0.2,0.3c-1.1,0.3-5.6,1.4-8.7,1c-3.6-0.5-9.4-2.5-9.5-2.5
	c-0.1-0.5-0.3-1.1-0.4-1.6c0,0,6.3,1.9,9.2,2.3c3.3,0.5,8.6-0.8,9.4-1C251.8,435.6,251.9,435.7,251.9,435.7z"/>
<path class="st0" d="M232.5,428.7c0,0,9.3,3,13.5,2.8c2.6-0.1,6.2-1.2,6.2-1.2l-0.2,2c0,0-6.2,1.8-9.6,1.6c-5.1-0.3-9.6-2.6-9.6-2.6
	L232.5,428.7z"/>
<path class="st0" d="M236.3,427.2c1.1,1.5,4.2,1,6.2,0.7c4-0.7,7.4-2,10.2-2.9c0.2-0.1,0.3-2,0.1-2.2c-0.6-0.8-4.9,1.8-8.7,1.7
	c-3.8-0.1-6-2.2-7.6-1.4C235.8,423.4,235.4,426.1,236.3,427.2z"/>
<path class="st0" d="M253.1,418.8c0.2,0.4,0.2,1.9,0,1.9c-2.5,1.3-10.2,0.8-10.2-0.6C243,418.7,251.8,416.3,253.1,418.8z"/>
<path class="st0" d="M231.5,418.3c0.6,1.3,6.6,0.8,7.6,0.3c2.3-1.1,2.6-3.6,4.2-3.8c1-0.1,1,0.9,3,1.5c0.9,0.3,7-0.3,7-0.3l0-1.6
	c0,0-4.2,0.3-6.5-0.5c-1.6-0.6-2.4-1.5-3.7-1.7c-1.2-0.1-2.5,1.1-4.5,1.8c-2.8,1-6.7-0.1-7.2,1.1
	C231.2,415.4,231.4,418.1,231.5,418.3z"/>
<path class="st0" d="M253.7,408.9c-1.6,1.4-4.3,1.3-8,1.1c-0.9-0.1-0.9-0.3-0.9-1.1c0-1.8,7-3.5,8.9-2.5
	C253.8,406.4,254,408.6,253.7,408.9z"/>
<path class="st0" d="M233.4,409.8c0.3,0.3,1.4,0.7,1.9,0.5c0.7-0.2,1.7-1.4,2.3-1.7c0.9-0.5,2.7-0.7,3.9-0.9c2.1-0.3,3-1.6,5.8-3.2
	c3.6-2.2,6.8-3.1,6.8-3.1l0.1-1.6c0,0-3.3-0.5-5.2-1c-1.5-0.3-2.3-1.3-3.2-1.6c-0.6-0.2-7.5-0.2-10.2,0.2c-1.2,0.2-1,1.5-2.3,1.7
	c-1.2,0.2-2.5-0.5-3-0.1c-0.9,0.7-0.1,4.3,1.5,4.7c1,0.3,1.7-0.9,3.2-1.9c4.1-2.7,10.3-1.6,10.6-0.3c0.2,0.9-2,2.3-3.8,2.9
	c-1.5,0.5-3.7,0.7-6.5,0.9c-1,0.1-2,0.6-2.4,1.1C232.1,407.1,232.2,408.8,233.4,409.8z"/>
<path class="st0" d="M227.9,398.3c0,0,2.1-0.9,4.8-2.8c1.9-1.2,3.7-3,7.3-3.6c1-0.2,4.1,0.9,9.2,4.6c1.1,0.8,1.9,1.4,2.2,1.1
	c0.4-0.3-0.2-1.6-0.9-2.7c-0.3-0.5-2.3-2.1-5.1-3.5c-1-0.5-2.3-1.6-5.8-1.7c-1.5,0-4.9,0.8-8.2,2.7c-1.1,0.6-4.2,2.7-4.1,3.8
	C227.4,397.4,227.9,398.3,227.9,398.3z"/>
<path class="st0" d="M227.4,386.4c0,1.2,0.7,2.5,1.9,3.1c2,1.1,4.9-0.1,5.2-1.5c0.1-0.6-0.2-1.2-0.7-1.6c-0.8-0.6-1.5,0-2.8-0.4
	c-1.7-0.4-2.2-1.8-2.9-1.5C227.4,384.8,227.4,386.2,227.4,386.4z"/>
<path class="st0" d="M221,373.3c0,0,4.1,1,5.9,2.5c1.9,1.6,3.5,3.4,4.6,4.5c0.8,0.8,2.1,2.5,1.8,2.9c-0.7,1-3.2,0-3.9-0.3
	c-2.3-1-6.4-2.9-7.3-5C221.5,376.4,221,373.3,221,373.3z"/>
<path class="st0" d="M219,363.4c0.2,1,1.6,0.9,4.2,3.4c2.3,2.1,2.6,2.5,2.8,2.4c0.5-0.3-0.8-3-1.8-4.9c-0.7-1.2-4.1-4.2-5.2-3.9
	C218.4,360.5,218.8,362.3,219,363.4z"/>
<path class="st0" d="M371.5,313.9c0.2,2.2,0.5,4.1,0.6,6c0.2,2.3,0.6,5.8,0.6,7c1,0,1.5-0.1,2.4-0.1c0-2.4,0.4-4.8,0.3-7.1
	c-0.1-2-0.5-3.8-0.8-5.8C373.6,313.9,372.5,313.9,371.5,313.9z"/>
<path class="st0" d="M378.6,314.3c0,0-0.4,3.6-0.1,6.7c0.2,2.3-1.1,5.9-0.9,5.9c1.8-0.1,4,0.4,4,0.4s1.9-2.1,2.1-5.6
	c0.1-2.5,0.4-5,0.4-5.7c0-0.1-0.1-0.2-0.1-0.2C381.9,315,378.6,314.3,378.6,314.3z"/>
<path class="st0" d="M384,328c0,0,2.2-2.2,3.3-3.9c1.9-3.1,4.1-4.4,4.1-4.4l2.9,2.2c0,0-2.1,2.1-3.6,4.5c-1,1.7-3.3,3.8-3.9,3.2
	C386,328.6,384,328,384,328z"/>
<path class="st0" d="M389.3,332.4c-0.4-0.5,1.8-1.1,4.3-2.4c2.5-1.3,4.4-2.1,5-2.3c0.1,0,0.1,0,0.2,0.1c1,1.8,1.3,4,1.3,4
	s-1.7,1.2-5.4,2.8c-1.5,0.7-3.8,1-3.8,1S390.2,333.6,389.3,332.4z"/>
<path class="st0" d="M391.8,339.1c0,0,0.7-0.3,3.7-0.9c2.7-0.6,5.4-0.3,5.4-0.3l0.2,3.4c0,0-2.3-0.4-4.7,0.1c-2,0.4-4.1,0.8-4.1,0.8
	L391.8,339.1z"/>
<path class="st0" d="M393,346.4c0,0,0.7,0.2,3-0.1c2.9-0.4,5.4,0.2,5.4,0.2l0.1,2.8c0,0-1.8-0.4-4.1-0.2c-1.7,0.1-3.9,0.5-3.9,0.5
	L393,346.4z"/>
<path class="st0" d="M393.8,353.3c-0.1-0.8,1.8-0.4,3.8-0.5c2.1-0.1,3.9,0,3.9,0.4c0,0.5,0.1,2.8,0.1,3.2c0,0,0,0.1-0.1,0.1
	c-0.3,0-1.7-0.5-3.9-0.3c-2.1,0.1-3.1,0.1-3.5,0.1c-0.1,0-0.1,0-0.1-0.1C394,355.7,393.9,354.1,393.8,353.3z"/>
<path class="st0" d="M394,359.6c0,0,0-0.1,0.1-0.1c0.3-0.1,1.3-0.2,3.5-0.3c1.9-0.1,3.4,0.2,3.8,0.4c0.1,0,0,0.6,0,0.6
	c-0.1,0.6-0.2,2.2-0.2,2.2c0,0.1-0.2,0.2-0.3,0.2c-0.6-0.1-2-0.4-3.2-0.5c-1.6-0.1-3.3,0.2-3.6,0.2c0,0-0.1,0-0.1-0.1L394,359.6z"/>
<path class="st0" d="M393.9,364.3c0-0.2,0.1-0.3,0.3-0.3c0.6,0,2.1,0.4,3.3,0.3c1.4-0.1,2.7,0.3,3.2,0.3c0.1,0,0.1,0.1,0.1,0.2
	l-0.3,2.1c0,0-1.7,0.1-3.5,0.2c-0.9,0-2.7-0.3-3.1-0.4c-0.1,0-0.1-0.1-0.1-0.2L393.9,364.3z"/>
<path class="st0" d="M393.6,368.9c0,0,1.2,0.8,3.5,0.7c1.2-0.1,2.9-0.3,2.9-0.3s0.3,1.6-0.3,2.2c-0.8,1-4.3,0.2-6.3-1.1
	C393.4,370.5,393.6,368.9,393.6,368.9z"/>
<path class="st0" d="M189.1,224.3l4.7-1.2c0,0,2,8.9,1,10.4c-0.4,0.7-2.7,2.6-4,1.8C188.6,233.9,189.1,224.3,189.1,224.3z"/>
<path class="st0" d="M179.9,261c1.6-1.3-0.7-5.1-2.8-9.3c-1-1.9-3.6-5.1-4.4-4.9c-1.5,0.3-1.4,4.8-0.3,6.9c1.3,2.4,2.1,4.2,3.4,5.3
	C177.2,260.1,179.1,261.7,179.9,261z"/>
<path class="st0" d="M179.6,292c0.3-0.8,2.3-0.5,4.2-0.6c4.1-0.3,5.5-3.6,7.6-3.1c1.6,0.4,1.6,1.5,1.1,3.1c-0.6,1.7-3,2-5.8,4.5
	c-2.1,1.9-3.6,5.1-3.9,4C182.1,296.6,179.6,292.1,179.6,292z"/>
<path class="st0" d="M187.9,305.2c1.1-1.4,4.1-3.4,5.6-3.9c2.4-0.8,4.7-0.8,5.7,0.1c1.2,1,1.9,2.2,1.2,3.9
	c-1.1,3.1-6.7-1.9-12.2,10.5c-2.8,6.3-2.6,6-3.9,6.7c-0.1,0.1-0.3-10.6-0.3-10.7C185.3,310.5,186.7,306.7,187.9,305.2z"/>
<path class="st0" d="M191.7,277.9c0-1.1-1-2.7-1.9-3.2c-0.9-0.6-3.2-0.4-3.8,0.6c-0.6,1.1-0.1,3.7,0.9,4.5c0.7,0.6,1.6,1.2,3,0.8
	C191.7,279.9,191.7,278.6,191.7,277.9z"/>
<path class="st0" d="M198,238.3c-4.8,8-6.4,13.5-6,17.5c0.6,5.2,6.8,22.9,8,35.1c0.2,2.5,2.6,1.4,3.2,0.8c0.7-0.8-0.5-4.2-0.5-4.2
	s0.7-0.7,1.4-1.1c0.5-0.3-2.4-10.9-5.2-19.9c-1.7-5.4-2.3-6.4-1.7-10.9c1.1-8.4,5.9-15.8,4.1-17.8C200.5,236.9,198.2,238,198,238.3z
	"/>
<path class="st0" d="M205.8,248.5c-0.5,1.1-0.3,8.9-0.2,18.5c0,7.1,0.3,12.6,0.2,16.1c0,1,1,1.5,1.9,1c2.2-1.2,0.7-7.7,1.3-19.3
	c0.4-8.4,0.8-14.8,0.3-15.7C208.7,248.1,206.3,247.4,205.8,248.5z"/>
<path class="st0" d="M230.5,247.8c0.4-3.5,2.4-11.9,1.8-14.1c-0.8-3,0.6-9.4,1.9-12.2c0.6-1.2,2.3-3.7,4.3-3.5
	c2.4,0.1,5.3,3.1,4.5,6.8c-0.6,3.1-1.4,5-2.5,6.8c-0.6,1-0.2,2.7,0.8,3c1.5,0.4,3.2-1.6,4.2-4c1.7-3.8,1.4-8.6,0.7-10.7
	c-1-2.9-2.7-5.1-5.4-5.9c-3.8-1.3-6.2,1-7.8,2.6c-3,3.1-3.3,14.4-4.2,18.6c-0.8,3.8-1,7.5-1.1,11.6c-0.1,3.7-0.5,6.2,1,6.2
	C230.4,252.7,230.4,249.1,230.5,247.8z"/>
<path class="st0" d="M240,251.6c-1.4,5.2-2.1,5.5-3.1,5.6c-1.3,0.1-1.1-4.3-0.9-5.8c0.3-3.2,2.4-10.9,3.8-12.1
	c1.1-0.9,5.5-1.4,9.2-10.6c1.3-3.3,2.6-7.6,1.7-11.7c-0.5-2.4-1.7-4.9-4-7.5c-0.4-0.4-2-3.2,0.3-3.1c3.3,0.1,6.4,8.4,6.4,16.3
	c0,4.6-1.3,11-7,15.4C240.2,243.2,241.8,244.8,240,251.6z"/>
<path class="st0" d="M251.9,244.1c0,0-3.8,26-7.4,44.6c-1.7,8.8-4.1,8.8-5.5,15c-3.2,13.4-1.5,14.4-4,27.2
	c-2.4,12-17.3,18.4-17.3,18.4L217,348c0,0,6.5-2.8,11.8-10.1c4.6-6.3,5.4-18.7,7.7-33.6c2.3-14.8,5.2-9.5,7.6-33.6
	c1.3-13.2-1.2-20.2-0.6-22c0.7-2,2.8,1.6,2.8,1.6s1.1-9.1,2.6-9.1C248.9,241.3,249.2,241.3,251.9,244.1z"/>
<path class="st0" d="M217.3,348.7c3.9-0.2,5.5,13.9,14.4,25.7c2.3,3.1,8,11.7,19.8,16.1c9.7,3.6,12.5,1.4,14.3,3.1
	c2.1,1.9-5.2,1.1-5.9,1c-3.4-0.5-6.8-1.6-10.4-2.8c-4.4-1.5-9.5-3.5-14.6-9.5c-5.8-6.8-5-5.7-13.3-20.2
	C220.2,359.8,216.9,348.7,217.3,348.7z"/>
<path class="st0" d="M182.4,249c-0.8-3.7-5.1-14.1-2.8-15c2.3-0.9,1.2-7.6-0.5-10.5c-0.7-1.2-2.8-3.7-5-3.4
	c-2.5,0.4-5.4,3.8-4.3,7.7c0.9,3.2,2,5.2,3.4,7c0.8,1.1,0.5,2.8-0.5,3.2c-1.6,0.6-3.6-1.4-5-3.8c-2.2-3.9-2.3-9.1-1.8-11.5
	c0.8-3.2,2.5-5.7,5.3-6.9c4.1-1.7,6.8,0.5,8.7,2.1c4.6,3.8,4.2,14.1,5.3,18.9c0.6,2.4,1.9,5.2,2.3,9.6c0.4,3.9-1,3.3-2.5,3.4
	C183.3,250,182.7,250.4,182.4,249z"/>
<path class="st0" d="M227.7,226.1l-6.5-1.9c0,0-2.7,4.7-2.2,6.5c1.2,4,3.7,2.7,4.5,1.8C224.8,231.1,227.7,226.1,227.7,226.1z"/>
<path class="st0" d="M216.6,261.2c-0.5-13.6-6.2-21.6-4.9-23.8c0.6-1,2.1-2.7,3-1.2c3,4.8,7.1,16.6,6.6,26.7c-0.4,8-2,10.8-2.8,13.5
	c-2.4,8-2.3,12.7-3,15.8c-0.2,0.8-2.3,0.2-2.5-0.7c-0.7-5.3,3.2-11.2,3.6-27.5C216.6,263,216.6,262.3,216.6,261.2z"/>
<path class="st0" d="M240.6,290c-0.3-0.8-2.3-0.5-4.2-0.6c-4.1-0.3-5.5-3.6-7.6-3.1c-1.6,0.4-1.6,1.5-1.1,3.1c0.6,1.7,3,2,5.8,4.5
	c2.1,1.9,3.6,5.1,3.9,4C238.1,294.6,240.7,290.1,240.6,290z"/>
<path class="st0" d="M231.3,303.2c-1.1-1.4-4.1-3.4-5.6-3.9c-2.4-0.8-4.7-0.8-5.7,0.1c-1.2,1-1.9,2.2-1.2,3.9
	c1.1,3.1,6.7-1.9,12.2,10.5c2.8,6.3,2.6,6,3.9,6.7c0.1,0.1,0.3-10.6,0.3-10.7C234,308.5,232.5,304.7,231.3,303.2z"/>
<path class="st0" d="M228.2,276.1c0-1.1,1-2.7,1.9-3.2c0.9-0.6,3.2-0.4,3.8,0.6c0.6,1.1,0.1,3.7-0.9,4.5c-0.7,0.6-1.6,1.2-3,0.8
	C228.1,278.1,228.2,276.8,228.2,276.1z"/>
<path class="st0" d="M323.8,387.9c1.3-1.7,4-2.1,7.6-2.5c0.9-0.1,0.9,0.1,1.1,0.9c0.4,1.8-6.2,4.7-8.2,4.1
	C324.2,390.3,323.6,388.2,323.8,387.9z"/>
<path class="st0" d="M322.7,385.6c6.6-0.3,15,0.1,18,0.3c0.8,0,1.4,0.8,1.8,1.6c0.7,1.7,1.2,2.8,2.4,5.8c1.7,4.2,2.6,8.1,4.3,7
	c1.1-0.7-4-12.6-5.6-15.1c-0.2-0.4-0.6-0.7-1.1-0.8c-3.5-0.6-17-1.3-20.1-0.5C322.3,384,322.6,385.6,322.7,385.6z"/>
</svg>
