<?xml version="1.0" encoding="utf-8"?>
<!-- Generator: Adobe Illustrator 26.0.3, SVG Export Plug-In . SVG Version: 6.00 Build 0)  -->
<svg version="1.1" id="Layer_1" xmlns="http://www.w3.org/2000/svg" xmlns:xlink="http://www.w3.org/1999/xlink" x="0px" y="0px"
	 viewBox="0 0 566.9 566.9" style="enable-background:new 0 0 566.9 566.9;" xml:space="preserve">
<style type="text/css">
	.st0{fill:none;stroke:#57B947;stroke-miterlimit:10;}
	.st1{fill:none;stroke:#00C2F3;stroke-miterlimit:10;}
</style>
<path class="st0" d="M277.7,355.8c0-0.1-4.6-5.7-10.4-13.7c-7.3-10-15.9-16.3-21-20.1l-2.5-1.8c-8.5-6.2-9.8-7.2-14.2-12.2
	c-6.2-7.1-6.1-16.2-5.9-18.8c0.3-3.6,1.1-5.7,1.8-7.6c0.7-1.8,1.3-3.6,1.5-6.8c0.2-4.1-0.4-6.7-1-9.5c-0.6-2.6-1.2-5.2-1.1-8.9
	c0.1-6.5,6-18,9-21.9c1-1.3,2.6-3.8,4-6c1.7-2.7,2.8-4.4,3.5-5.1l3.9-4.3l-0.5,5.8c0,0.1-0.4,4.5-0.6,8.9c0.7-0.6,1.6-1.4,2.8-2.4
	c0.3-0.3,0.5-0.5,0.6-0.5c0.4-0.3,2.4-2.1,4.1-3.7c-2.4-2.7-4.7-4.3-4.7-4.4l-1.6-1.2l1.1-1.6c4.4-6.2,20.1-8.9,21.9-9.2
	c1.3-0.3,4-0.3,5.1-0.3c1.5,0,6.8,0.1,10,1c2.9,0.8,5.7,2.7,7.2,3.9c1.8-1,5.1-2.8,7.1-3c0.5-0.1,1-0.2,1.6-0.3
	c1.3-0.3,2.9-0.6,5.2-0.6c3.3,0,7.4,0.7,12.6,2.1c6.5,1.8,17.7,6.5,20.2,11.6c2.4,4.9,2,7.2,0.6,14.8l-0.6,3
	c-0.8,4.1-1.2,6.1-0.5,8.8c0.9,3.5,2,6.4,3.3,9.8c0.5,1.3,1,2.7,1.6,4.2c1.9,5.2,0.8,10.1-0.7,16.3c-0.7,2.9-1.3,4.6-2.2,7.1
	c-0.3,0.9-0.7,1.9-1.1,3.2c-2.1,6.1-2.9,9.1-3.5,11.5c-0.5,2-0.9,3.7-1.9,6.1c-3.3,8-8.1,12.7-16.7,21.2c-3.6,3.5-8,6.9-16.6,13.5
	c-13.5,10.3-18.8,11.7-19.4,11.8l-1.2,0.3L277.7,355.8z"/>
<path class="st0" d="M235.4,235.6c2.2-2.8,6.2-9.7,7.4-11c0,0-0.6,7.3-0.7,12.6c0,1.1,6.4-4.7,6.7-4.9c0.8-0.7,5.6-5.1,5.6-5.1
	c-2.9-3.7-6.3-6.1-6.3-6.1c3.1-4.3,14-7.3,20.6-8.4c0,0,0,0,0,0c2-0.4,10.3-0.5,14.2,0.6c3.8,1,7.5,4.4,7.5,4.4s5.2-3.2,7.6-3.5
	c3.4-0.5,6.1-2.2,18.6,1.2c7.3,2,17,6.6,18.9,10.5c2.3,4.6,1.8,6.2,0.2,14.9c-1,5.4-1.7,7.9-0.8,11.4c1.3,5.1,3,8.9,4.9,14.2
	c1.7,4.6,0.7,9-0.7,15.2c-0.9,3.7-1.6,5.3-3.3,10.1c-4,11.2-3.2,12.4-5.3,17.6c-3.1,7.7-7.7,12.1-16.3,20.5
	c-3.5,3.4-7.8,6.7-16.5,13.4c-13.5,10.3-18.6,11.4-18.6,11.4s-4.5-5.6-10.3-13.6c-7.5-10.3-16.2-16.7-21.4-20.5
	c-10.6-7.8-11.7-8.4-16.4-13.7c-6.1-6.9-5.5-16.2-5.4-17.4c0.5-6.8,2.9-7.5,3.3-14.5c0.4-8.3-2.3-11.1-2.1-18.5
	C227,250.6,232.3,239.6,235.4,235.6z"/>
<path class="st1" d="M307.9,291.4c-1.6,0-3.4-0.3-4.3-0.5l-0.3-0.1c-2.3-0.4-4-0.6-5.2-0.8c-1.1-0.2-2-0.3-2.8-0.4
	c-0.2,0-0.6-0.1-1.3-0.1c-1.8-0.2-4.8-0.4-7-0.8c-0.1,0-3.8-0.6-7.1-2.3c-2.3-1.2-3.6-2.3-4.6-3.2c-0.3-0.2-0.6-0.5-0.8-0.7
	c-0.8-0.7-1.4-1-3.4-2.2l-1.7-1c-0.6-0.3-2.8-1.9-4.2-2.8c-5.7,2.7-16.5,3.8-19.4,3.8c-0.8,0-1.9,0-2.6-1c-1.3-1.8-1.6-2.4-2-3.3
	c-0.1-0.3-0.3-0.6-0.6-1.1c-0.8-1.5-4.6-9.6-1.5-23.6c0.5-2.1,2.5-2.8,4.8-3.7c1.5-0.5,3.3-1.2,5.3-2.4c3.8-2.2,7-5.9,8.8-9.9
	c0.4-0.8,0.6-1.6,0.8-2.4c0.5-1.6,1.1-3.5,2.9-6.3c1.6-2.4,5.2-4.1,6.5-4.5c0.8-0.3,1.6-0.4,2.4-0.4c1.6,0,2.7,0.7,3.5,1.1
	c0.1,0.1,0.2,0.1,0.3,0.2c7.3,4.1,21.5,8.3,23.8,8.5c0,0,0,0,0,0c0.8,0,1.9-0.7,3.1-1.6c2.3-1.5,5.5-3.7,10.2-3.9c0.4,0,0.7,0,1.1,0
	c5.9,0,11.6,2.7,13.9,6.5c0.6,1,0.6,1-1.1,7.4l-0.7,2.7c-0.4,1.4-0.5,1.9-0.6,2.2c0.6,1.1,3,4.6,4.3,6.3c3.3,4.3,4.8,20.7-1.3,29
	l-3.6,4.9v-4.9c-0.2-0.3-0.7-0.7-2.5-1.4c-1.2-0.4-2.2-0.5-3.1-0.5c-0.3,0-0.5,0-0.7,0c-0.2,1.8-0.6,4.9-2,7.3
	c-0.2,0.3-0.3,0.6-0.5,0.9c-0.8,1.5-1.6,3-4,4.3C310.1,291.2,309.1,291.4,307.9,291.4z"/>
<path class="st1" d="M263.4,227.8c1.1-1.7,4.1-3.2,5.5-3.7c2.5-0.8,3.6,0.2,4.6,0.7c7.4,4.1,21.9,8.6,24.6,8.8
	c3.3,0.3,6.2-5.1,13.6-5.5c5.8-0.3,11.3,2.3,13.2,5.5c0.2,0.3,0.1,0.7-1.6,6.9c-1,3.8-1.2,4.2-1.1,4.9c0.1,0.6,3.3,5.3,4.7,7.1
	c2.7,3.5,4.3,19-1.3,26.6c0,0,0,0,0,0c0,0-0.2,0.3-0.2,0.3c-0.6-0.9-1.3-1.4-3.6-2.4c-4.6-1.4-6.4-0.1-6.4-0.1s-0.1,4.7-1.8,7.8
	c-1.1,2-1.4,3.3-3.6,4.4c-1.5,0.7-5.2,0-6.4-0.2c-4.3-0.7-6.3-0.9-8-1.2c-0.6-0.1-5.2-0.4-8.2-0.9c0,0-3.5-0.5-6.5-2.1
	c-2.8-1.5-3.8-2.7-5.1-3.7c-1.2-0.9-1.9-1.3-5.4-3.4c-0.7-0.4-5-3.4-5-3.4c-5.5,3.2-20.1,4.6-20.5,4c-1.7-2.5-1.5-2.5-2.5-4.2
	c-0.4-0.7-4.4-8.4-1.3-22.2c0.4-1.8,4.3-1.9,9.2-4.8c3.6-2.1,7.5-5.9,9.6-10.8C261,233.4,260.8,231.7,263.4,227.8z"/>
</svg>
