<?xml version="1.0" encoding="utf-8"?>
<!-- Generator: Adobe Illustrator 26.0.3, SVG Export Plug-In . SVG Version: 6.00 Build 0)  -->
<svg version="1.1" id="Layer_1" xmlns="http://www.w3.org/2000/svg" xmlns:xlink="http://www.w3.org/1999/xlink" x="0px" y="0px"
	 viewBox="0 0 566.9 566.9" style="enable-background:new 0 0 566.9 566.9;" xml:space="preserve">
<style type="text/css">
	.st0{fill:none;stroke:#57B947;stroke-miterlimit:10;}
	.st1{fill:none;stroke:#00C2F3;stroke-miterlimit:10;}
</style>
<path class="st0" d="M271.5,360.8c-0.2-0.2-4.7-5.8-10.6-14c-6.6-9-14.2-14.6-19.3-18.3l-2.5-1.8c-8.5-6.2-10.5-7.7-15.5-13.3
	c-8.3-9.4-8.1-21.3-7.8-24.7c0.3-4.8,1.5-7.7,2.3-9.8c0.6-1.6,0.9-2.4,1-4.4c0.2-3-0.3-4.8-0.8-7.4c-0.6-2.7-1.4-6.2-1.3-10.8
	c0.2-8.8,6.9-21.8,10.7-26.6c0.8-1.1,2.4-3.5,3.6-5.4c2.1-3.3,3.2-4.9,4.3-6.2l15.3-16.8c1.4-1.6,4-0.4,3.8,1.7v0
	c-0.1,1.5,1.3,2.8,2.8,2.3c3.8-1.1,7.3-1.8,9.6-2.2c1.5-0.3,3.7-0.4,6.5-0.4c2.8,0,8.2,0.2,12.1,1.3c1.6,0.5,3.2,1.1,4.7,1.9
	c0.6,0.3,1.3,0.3,1.9,0.1c1.6-0.6,3.2-1.1,4.6-1.3c0.3,0,0.7-0.1,1-0.2c1.5-0.3,3.7-0.8,6.8-0.8c4.1,0,8.7,0.8,14.7,2.4
	c2.1,0.6,20.3,5.8,25.2,15.7c3.6,7.3,2.8,11.8,1.3,19.8l-0.6,3.1c-0.7,3.8-0.8,4.5-0.6,5.3c0.8,3.1,1.8,5.7,3,8.9
	c0.5,1.4,1.1,2.8,1.6,4.3c2.7,7.4,1.2,13.9-0.4,20.8c-0.8,3.4-1.5,5.5-2.5,8.1c-0.3,0.9-0.7,1.9-1.1,3.1c-2,5.7-2.7,8.5-3.2,10.8
	c-0.5,2.2-1,4.2-2.2,7.3c-3.9,9.6-9.7,15.3-18.6,23.9c-4,3.9-8.4,7.3-17.4,14.1c-13.8,10.5-20.3,12.8-22.5,13.3l-4.7,1
	c-0.8,0.2-1.7-0.1-2.2-0.8L271.5,360.8z"/>
<path class="st0" d="M235.4,235.6c2.2-2.8,6.2-9.7,7.4-11c0,0-0.6,7.3-0.7,12.6c0,1.1,6.4-4.7,6.7-4.9c0.8-0.7,5.6-5.1,5.6-5.1
	c-2.9-3.7-6.3-6.1-6.3-6.1c3.1-4.3,14-7.3,20.6-8.4c0,0,0,0,0,0c2-0.4,10.3-0.5,14.2,0.6c3.8,1,7.5,4.4,7.5,4.4s5.2-3.2,7.6-3.5
	c3.4-0.5,6.1-2.2,18.6,1.2c7.3,2,17,6.6,18.9,10.5c2.3,4.6,1.8,6.2,0.2,14.9c-1,5.4-1.7,7.9-0.8,11.4c1.3,5.1,3,8.9,4.9,14.2
	c1.7,4.6,0.7,9-0.7,15.2c-0.9,3.7-1.6,5.3-3.3,10.1c-4,11.2-3.2,12.4-5.3,17.6c-3.1,7.7-7.7,12.1-16.3,20.5
	c-3.5,3.4-7.8,6.7-16.5,13.4c-13.5,10.3-18.6,11.4-18.6,11.4s-4.5-5.6-10.3-13.6c-7.5-10.3-16.2-16.7-21.4-20.5
	c-10.6-7.8-11.7-8.4-16.4-13.7c-6.1-6.9-5.5-16.2-5.4-17.4c0.5-6.8,2.9-7.5,3.3-14.5c0.4-8.3-2.3-11.1-2.1-18.5
	C227,250.6,232.3,239.6,235.4,235.6z"/>
<path class="st1" d="M315.6,297.3c-0.4,0.2-0.8,0.5-1.3,0.7c-1.8,0.9-3.9,1.4-6.4,1.4c-2.3,0-4.5-0.4-5.7-0.6l-0.3,0
	c-2.2-0.4-3.8-0.6-5-0.7c-1.1-0.1-2-0.3-2.8-0.4c-0.2,0-0.5,0-0.8-0.1c-1.9-0.2-5-0.4-7.6-0.9c-1.3-0.2-5.6-1-9.6-3.2
	c-3.1-1.7-4.9-3.2-6-4.2c-0.2-0.2-0.4-0.3-0.6-0.5c-0.4-0.3-0.5-0.4-2.5-1.6l-1.7-1c-0.1,0-0.2-0.1-0.4-0.2
	c-0.5-0.3-1.2-0.4-1.8-0.3c-7.3,2.1-15.6,2.6-17.3,2.6c-4,0-7-1.5-9.1-4.3c-1.4-2-2-3-2.7-4.4c-0.1-0.2-0.2-0.5-0.4-0.8
	c-1.5-2.7-5.9-12.8-2.2-29.1c1.4-6.3,6.8-8.3,9.8-9.4c1.3-0.5,2.7-1,4.1-1.8c1.7-1,4.3-4.4,5.9-5.7c1.1-0.9,4.3-2.5,4.8-3
	c3.4-3.7,0.4-5.8,2.8-9.5c3.2-5,5.8-5.1,7-5.5c1.7-0.6,3.3-0.9,5-0.9c3.9,0,6.5,1.6,7.6,2.3l0.1,0.1c4.7,2.6,13.2,5.5,17.9,6.8
	c0.6,0.2,1.3,0.1,1.8-0.3c2.8-1.8,7-4.2,13.1-4.5c0.5,0,1,0,1.6,0c8.7,0,17,4.2,20.7,10.3c2.3,3.9,1.6,6.5-0.2,13.6l-0.2,0.6
	c-0.2,0.6-0.1,1.3,0.3,1.8c0.5,0.8-0.6,5.1-0.5,5.7c1.2,10.7,8.9,23.8,0.8,34.8l-13.9,18.9c-1.3,1.7-4,0.8-4-1.3V297.3z"/>
<path class="st1" d="M263.4,227.8c1.1-1.7,4.1-3.2,5.5-3.7c2.5-0.8,3.6,0.2,4.6,0.7c7.4,4.1,21.9,8.6,24.6,8.8
	c3.3,0.3,6.2-5.1,13.6-5.5c5.8-0.3,11.3,2.3,13.2,5.5c0.2,0.3,0.1,0.7-1.6,6.9c-1,3.8-1.2,4.2-1.1,4.9c0.1,0.6,3.3,5.3,4.7,7.1
	c2.7,3.5,4.3,19-1.3,26.6c0,0,0,0,0,0c0,0-0.2,0.3-0.2,0.3c-0.6-0.9-1.3-1.4-3.6-2.4c-4.6-1.4-6.4-0.1-6.4-0.1s-0.1,4.7-1.8,7.8
	c-1.1,2-1.4,3.3-3.6,4.4c-1.5,0.7-5.2,0-6.4-0.2c-4.3-0.7-6.3-0.9-8-1.2c-0.6-0.1-5.2-0.4-8.2-0.9c0,0-3.5-0.5-6.5-2.1
	c-2.8-1.5-3.8-2.7-5.1-3.7c-1.2-0.9-1.9-1.3-5.4-3.4c-0.7-0.4-5-3.4-5-3.4c-5.5,3.2-20.1,4.6-20.5,4c-1.7-2.5-1.5-2.5-2.5-4.2
	c-0.4-0.7-4.4-8.4-1.3-22.2c0.4-1.8,4.3-1.9,9.2-4.8c3.6-2.1,7.5-5.9,9.6-10.8C261,233.4,260.8,231.7,263.4,227.8z"/>
</svg>
