<?xml version="1.0" encoding="utf-8"?>
<!-- Generator: Adobe Illustrator 26.0.3, SVG Export Plug-In . SVG Version: 6.00 Build 0)  -->
<svg version="1.1" id="Layer_1" xmlns="http://www.w3.org/2000/svg" xmlns:xlink="http://www.w3.org/1999/xlink" x="0px" y="0px"
	 viewBox="0 0 566.9 566.9" style="enable-background:new 0 0 566.9 566.9;" xml:space="preserve">
<style type="text/css">
	.st0{fill:none;stroke:#D87227;stroke-miterlimit:10;}
	.st1{fill:none;stroke:#DB088C;stroke-miterlimit:10;}
	.st2{fill:none;stroke:#059447;stroke-miterlimit:10;}
	.st3{fill:none;stroke:#57B947;stroke-miterlimit:10;}
	.st4{fill:none;stroke:#2A2774;stroke-miterlimit:10;}
	.st5{fill:none;stroke:#00C2F3;stroke-miterlimit:10;}
	.st6{fill:none;stroke:#732B90;stroke-miterlimit:10;}
	.st7{fill:none;stroke:#450023;stroke-miterlimit:10;}
	.st8{fill:none;stroke:#3B54A5;stroke-miterlimit:10;}
</style>
<path class="st0" d="M296.6,329.6c0-0.1-4.6-6.4-9.8-10.9c-3.6-3.2-5.7-4.4-10.4-7.1c-1.4-0.8-3.1-1.8-5-3l-1.8-1.1
	c-4-2.4-7.7-4.6-11.4-7.9c-8.3-7.3-12.8-14.8-12.9-15.1l-1.7-2.9l3.4-0.1c9.4-0.3,16.6-2.2,19.4-3.9l1.3-0.8l1.1,1
	c0,0,2,1.7,8.6,5.5c0.7,0.4,1.5,1.1,2.4,1.8c1.9,1.5,4.2,3.4,7,4.2c3,0.8,5.2,1,8.8,1.4c0.9,0.1,1.8,0.2,2.8,0.3
	c1.7,0.2,3.6,0.5,5.4,0.8c2.4,0.4,4.9,0.8,6.4,0.8c0.5,0,0.8-0.1,0.9-0.1c0.7-0.2,1.5-0.4,3.3-4.3c1.1-2.4,1.2-6.1,1.2-6.1l0-1
	l0.8-0.6c0.8-0.6,2-0.9,3.6-0.9c2.9,0,9.4,1.3,9.5,5.1c0,1.4-1.6,4.5-4.5,7.3c-3.6,3.6-5.3,4.9-8.6,7.5c-0.7,0.5-1.4,1.1-2.2,1.7
	c-2.1,1.7-3.8,3.4-5.7,6c-1.3,1.8-2.5,4.1-4.2,7.8c-1.7,3.8-1.9,4.3-2.2,6.2c-0.6,3.1-1.7,7.5-1.7,7.7l-1,4.2L296.6,329.6z"/>
<path class="st0" d="M246.9,283.4c9.6-0.3,17.3-2.3,20.4-4.2c0,0,1.9,1.8,8.9,5.7c2,1.1,5.3,5,9.9,6.2c3.9,1.1,6.5,1.1,11.9,1.7
	c4.8,0.5,11.1,2.1,13.4,1.5c1.3-0.3,2.5-0.8,4.6-5.4c1.2-2.7,1.4-6.9,1.4-6.9c1.9-1.4,9.9,0.2,10,2.7c0,0.5-1,3-3.9,5.9
	c-4.3,4.2-5.7,5.1-10.7,9.1c-2.6,2-4.3,4-6,6.4c-1.2,1.7-2.5,3.9-4.4,8.2c-1.7,3.8-2,4.5-2.4,6.7c-0.6,3.1-1.7,7.6-1.7,7.6
	s-4.7-6.5-10.1-11.3c-4.9-4.3-7.3-5.3-15.7-10.3c-4.7-2.8-8.8-5.1-13-8.8C251.3,290.8,246.9,283.4,246.9,283.4z"/>
<path class="st1" d="M290.9,314.9c-0.9-2.1-2.2-3.9-3.7-5.4c-1.4-1.4-2.3-1.8-3.8-2.7c-1-0.5-2.2-1.2-3.8-2.2
	c-1.7-1.1-6.2-4.2-10.3-9.1c-2-2.4-3.8-4.9-5.3-7.7l3.5-1.9c1.4,2.5,3,4.8,4.8,7c3.8,4.4,7.9,7.3,9.5,8.3c1.4,0.9,2.5,1.5,3.5,2
	c1.6,0.9,3,1.6,4.8,3.4c1.9,1.9,3.4,4.1,4.5,6.6L290.9,314.9z"/>
<path class="st2" d="M297.5,238.8c-0.2-1.5-0.7-5.4-1.9-7.7c-0.9-1.8-2.1-3.4-3.5-4.7l2.8-2.9c1.7,1.7,3.2,3.6,4.3,5.8
	c1.5,3,2,7.2,2.3,9L297.5,238.8z"/>
<path class="st2" d="M297.1,343.7l-1.9-3.5c8.1-4.6,13.7-10.1,16.5-16.5c0.6-1.3,1-2.6,1.5-4.1c0.8-2.4,1.7-5,3.5-8.8
	c2.2-4.6,4.9-8.9,8-12.9l3.1,2.4c-3,3.8-5.5,7.9-7.6,12.2c-1.7,3.5-2.6,6-3.3,8.3c-0.5,1.5-1,2.9-1.7,4.5
	C312.1,332.6,306,338.7,297.1,343.7z"/>
<path class="st2" d="M282.3,341.3c-1.8-5.6-4.7-10.4-8.4-14.2c-3.6-3.7-7-5.4-10.9-7.3c-2.8-1.4-6-3-9.5-5.5
	c-6.3-4.6-11.7-10.8-16.1-18.5l3.5-1.9c4,7.2,9.1,13,14.9,17.2c3.3,2.3,6.2,3.8,9,5.2c4,2,7.8,3.9,11.9,8.1
	c4.2,4.3,7.4,9.6,9.4,15.8L282.3,341.3z"/>
<path class="st3" d="M98.7,245c2.2-2.8,6.2-9.6,7.4-11c0,0-0.6,7.2-0.7,12.6c0,1.1,6.4-4.7,6.7-4.9c0.8-0.7,5.6-5.1,5.6-5.1
	c-2.9-3.7-6.3-6.1-6.3-6.1c3.1-4.3,14-7.3,20.6-8.4c0,0,0,0,0,0c2-0.4,10.3-0.5,14.2,0.6c3.8,1,7.5,4.4,7.5,4.4s5.2-3.1,7.6-3.5
	c3.4-0.5,6.1-2.2,18.5,1.2c7.3,2,17,6.6,18.9,10.5c2.3,4.6,1.8,6.2,0.2,14.8c-1,5.4-1.7,7.9-0.8,11.4c1.3,5.1,3,8.9,4.9,14.2
	c1.7,4.6,0.7,9-0.7,15.2c-0.9,3.7-1.6,5.3-3.3,10c-4,11.2-3.2,12.4-5.3,17.5c-3.1,7.7-7.7,12.1-16.3,20.5
	c-3.5,3.4-7.8,6.7-16.4,13.3c-13.5,10.3-18.5,11.4-18.5,11.4s-4.5-5.6-10.3-13.6c-7.5-10.2-16.2-16.7-21.4-20.5
	c-10.6-7.8-11.7-8.4-16.3-13.7c-6.1-6.9-5.5-16.1-5.4-17.4c0.5-6.8,2.9-7.5,3.3-14.4c0.4-8.3-2.3-11.1-2.1-18.4
	C90.3,259.9,95.6,249,98.7,245z"/>
<path class="st4" d="M98.7,245c2.2-2.8,6.2-9.6,7.4-11c0,0,0.8-5.3,1.2-5.4c1.6-0.7,4.2,1.9,4.2,1.9c7.3-7.6,20.6-8.4,20.6-8.4
	c2-0.4,10.3-0.5,14.2,0.6c3.8,1,7.5,4.4,7.5,4.4s5-3.1,7.3-3.6c3.4-0.7,6.4-2.1,18.8,1.3c7.3,2,17,6.6,18.9,10.5
	c2.3,4.6,1.8,6.2,0.2,14.8c-1,5.4-1.7,7.9-0.8,11.4c1.3,5.1,3,8.9,4.9,14.2c1.7,4.6,0.7,9-0.7,15.2c-0.9,3.7-1.6,5.3-3.3,10
	c-4,11.2-3.2,12.4-5.3,17.5c-3.1,7.7-7.7,12.1-16.3,20.5c-3.5,3.4-7.8,6.7-16.4,13.3c-13.5,10.3-18.5,11.4-18.5,11.4
	s-4.5-5.6-10.3-13.6c-7.5-10.2-16.2-16.7-21.4-20.5c-10.6-7.8-11.7-8.4-16.3-13.7c-6.1-6.9-5.5-16.1-5.4-17.4
	c0.5-6.8,2.9-7.5,3.3-14.4c0.4-8.3-2.3-11.1-2.1-18.4C90.3,259.9,95.6,249,98.7,245z"/>
<path class="st5" d="M107.2,228.6c-1.2,0.9-2,14.5-1.6,18.2c0.1,0.8,12.1-9.6,12.1-10.1C117.7,236.2,109.3,227.2,107.2,228.6z"/>
<path class="st6" d="M146.3,265.1c-0.6-0.4-0.5-1.3,0.1-1.7c1.6-0.9,4.3-2.4,6.1-2.2c3.4,0.2,4.8,3.8,8.1,3.8c3,0,5.1-2.8,9.9-3.7
	c1-0.2,4.3,2,6.4,3.4c0.6,0.4,0.4,1.4-0.3,1.6c-1.8,0.3-4.2,0.8-5.1,1.5c-3.6,2.5-5.6,4.8-9.9,5.1
	C157.1,273.3,149.2,267.4,146.3,265.1z"/>
<path class="st1" d="M145.1,261.8c-0.2-1.9,0.4-3.1-0.5-3.7c-1-0.6-3.2,0.7-4.3,1.7c-2.4,2.3-1.8,3.6-3.7,5.2
	c-2.4,2.1-5,1.2-6.1,2.9c-1,1.6,1,5.4,1,5.4s-4.5,6.2-3.6,9.2c0.6,1.9,3.7,2.6,7.9,5.5c5.4,3.7,5.2,4.5,10,6.7
	c3.2,1.5,3.6,0.8,12.9,2.2c11.4,1.8,12.7,2.2,15.4,0.6c2.6-1.5,4.7-9.9,4.3-11.4c-0.8-2.6-2.7-2.9-2.7-5.3c-0.1-2.2,1.3-3.1,2.4-5.8
	c1.2-3,1-8.4-0.8-9c-0.4-0.1-4.2,0.5-5.5,1.5c-4.7,3.5-6.8,4.6-8.7,5.1c-4.5,1.1-11.1-3.4-12-4.2C149.3,267.1,145.6,266,145.1,261.8
	z"/>
<path class="st0" d="M175.9,281.9c-5-2.2-10.6-3.7-13.4-3.9c-7.1-0.4-13,1.2-13,1.2c-4.6,1.2-7.6,3-9.7,1.4
	c-1.1-0.7-2.1-2.4-2.7-3.3c-0.9-1.4-1.4-2.6-2.7-3.3c-0.7-0.4-2.2-0.5-2.6-0.5"/>
<path class="st0" d="M108.2,287.6c9.6-0.3,17.2-2.3,20.3-4.2c0,0,1.9,1.8,8.9,5.7c2,1.1,5.3,4.9,9.9,6.2c3.9,1.1,6.5,1.1,11.9,1.7
	c4.8,0.5,11.1,2.1,13.4,1.4c1.3-0.3,2.5-0.8,4.6-5.4c1.2-2.7,1.4-6.8,1.4-6.8c1.9-1.4,9.9,0.2,10,2.6c0,0.5-1,3-3.9,5.8
	c-4.2,4.2-5.7,5.1-10.6,9c-2.6,2-4.3,4-6,6.4c-1.2,1.7-2.5,3.9-4.4,8.2c-1.7,3.7-2,4.5-2.4,6.7c-0.6,3.1-1.7,7.5-1.7,7.5
	s-4.7-6.5-10.1-11.3c-4.9-4.3-7.3-5.3-15.7-10.3c-4.7-2.8-8.8-5.1-13-8.8C112.6,295,108.2,287.6,108.2,287.6z"/>
<path class="st1" d="M126.9,291c1,1.8,2.6,4.5,5,7.3c4.3,5,8.9,8,9.9,8.7c3.9,2.5,5.4,2.6,7.9,5.1c2.2,2.2,3.4,4.4,4.1,6"/>
<path class="st1" d="M129.7,247.6c-0.4-0.7,2.9-4.2,7.3-5c3.8-0.7,6.8,0.8,7.8,1.4c1.3,0.7,1.5,1,2.1,2.4c1.1,2.6-1.3,6.4-1.3,6.4
	s-0.9-1.9-2.9-3.7c-2-1.8-4.6-2.1-5.8-2.3C132.6,246.2,130,248.1,129.7,247.6z"/>
<path class="st7" d="M133.3,251.9c1.7,0.6,3.4,0.5,4.8,0.6c1.4,0.2,2.2-4.2,1.1-5.1c-1.1-0.9-3.2-0.6-4.8-0.6
	C133.4,246.8,132.3,251.5,133.3,251.9z"/>
<path class="st8" d="M128.8,248.8c0,0,0.9,3,7.5,3.6c7,0.6,8.8,2.8,9.4,1.1c0.4-1.2-2.5-4.2-3.7-5.1c-4.4-3-8.1-1.5-9.9-1.4
	C130.6,247.2,128.8,248.8,128.8,248.8z"/>
<path class="st7" d="M167.5,251.6c0,0-0.1-2.8,1.1-4.6c0.4-0.6,2.5-3.4,6-3.4c2.9,0,4.7,1.9,5.3,2.5c1.3,1.4,1.7,4.2,1.7,4.2
	s-1.5-1.2-4.3-1.6c-0.9-0.2-3-0.4-5.2,0.4C169.2,250.1,167.5,251.6,167.5,251.6z"/>
<path class="st2" d="M167.3,252.3c-0.2,1,1.2,2.6,1.7,2.8c0.7,0.3,9.5,0.1,13.2-2.5c0.5-0.3,0.4-1.6-0.6-2.3
	c-2.5-1.8-4.8-2.1-7.9-1.6C170.9,249.2,167.6,251,167.3,252.3z"/>
<path class="st7" d="M176.1,254.7c-0.2,0.2-2.4,0.6-3,0.3c-0.9-0.4-1.5-1.8-1.6-2.6c-0.2-1.2,0.3-3.1,1.1-3.4
	c0.7-0.3,2.3-0.6,3.6-0.4c1.3,0.2,1.1,1.8,1.1,3C177.3,253.5,176.8,254.1,176.1,254.7z"/>
<path class="st2" d="M148.2,246.8c-0.6,1.9-1.9,4-2.4,6.3c-0.3,1.5-0.6,3.9-0.8,5.2"/>
<path class="st2" d="M164.6,247.5c1.3,7.3,9,10.9,11.7,16.9"/>
<path class="st2" d="M154.6,229.3c1.1,1.1,2.6,2.8,3.9,5.2c1.4,2.7,1.9,5.1,2.1,6.7"/>
<path class="st2" d="M187.4,303.3c-2.1,2.7-5.1,7-7.8,12.5c-2.9,5.9-3.4,9.2-5,12.8c-2.2,5-6.8,11.5-17.3,17.4"/>
<path class="st2" d="M100.5,298.9c5.3,9.3,11.2,14.7,15.5,17.8c8.1,5.8,14,6.3,20.6,13c5.1,5.2,7.6,11.1,8.9,15"/>
<path class="st5" d="M126,237.6c1.1-1.7,4.1-3.2,5.5-3.7c2.5-0.8,3.5,0.2,4.6,0.7c7.4,4.1,21.8,8.5,24.6,8.8
	c3.3,0.3,6.2-5.1,13.6-5.5c5.8-0.3,11.2,2.3,13.2,5.5c0.2,0.3,0.1,0.7-1.6,6.9c-1,3.7-1.2,4.1-1.1,4.9c0.1,0.6,3.3,5.3,4.7,7.1
	c2.6,3.5,4.3,19-1.3,26.5c0,0,0,0,0,0c0,0,0,0,0,0c-0.6-0.9-1.5-1.3-3.7-2.3c-2.2-0.9-6.4-0.3-6.4-0.3s-2.3-3.4-2.6-4.7
	c-0.3-1.7,1.5-4.7,2.1-5.7c0.9-1.4,0.9-3.5,1-4.7c0.2-3-0.1-4.5-1.8-4.8c-0.6-0.1-5.1,1-8.3,3.7c0,0,0,0,0,0
	c-2.2,1.8-5.1,3.2-7.8,3.2c-2.5,0-7.6-2.8-7.7-2.9c-0.7-0.7-5.9-4.1-7.3-6c-1.9-2.6,0.1-6.3-2-6.1c-5,0.4-6,5.9-7.3,7.1
	c-1,0.9-2,1.4-3.5,1.6c-1.8,0.2-2.7,0.7-2.8,1.8c-0.1,2.9,1.2,4.9,1.2,4.9s-2.2,1.7-3.7,8.1c-0.2,0.8,0.6,1.9,0.6,1.9
	c-5.5,3.2-19.9,4.7-20.3,4.2c-1.7-2.4-1.7-2.4-2.7-4.2c-0.4-0.7-4.4-8.4-1.3-22.2c0.4-1.8,4.3-1.9,9.1-4.7c3.6-2.1,7.5-5.9,9.6-10.8
	C123.6,243.1,123.4,241.4,126,237.6z"/>
</svg>
