<?xml version="1.0" encoding="utf-8"?>
<!-- Generator: Adobe Illustrator 26.0.3, SVG Export Plug-In . SVG Version: 6.00 Build 0)  -->
<svg version="1.1" id="Layer_1" xmlns="http://www.w3.org/2000/svg" xmlns:xlink="http://www.w3.org/1999/xlink" x="0px" y="0px"
	 viewBox="0 0 566.9 566.9" style="enable-background:new 0 0 566.9 566.9;" xml:space="preserve">
<style type="text/css">
	.st0{fill:none;stroke:#DB088C;stroke-miterlimit:10;}
</style>
<path class="st0" d="M300.5,313.8c-2.5,0-5.2-0.4-10.5-1.3l-2.9-0.5c-3.4-0.5-5.5-0.7-7.1-0.9c-2.8-0.3-5-0.5-8.4-2.1
	c-3.9-1.8-5.6-3-7.9-4.8c-0.9-0.7-2-1.6-3.7-2.7c-1.2-0.8-2.3-1.4-3.3-2c-2.7-1.5-6.8-3.7-8.4-8.7c-1.4-4.5,0-9.4,2.1-13.4
	c-0.6-2.9-0.5-6.3,1.4-9.4c2.3-3.8,5.8-5,7.8-5.5c0.7-1.2,1.7-2.8,3.5-4.5c1.1-1.1,5.2-4.7,10.6-4.7c1.9,0,3.8,0.5,5.5,1.4
	c2.1,1.2,5.5,4,5.6,9.8c0.7,0.4,1.5,1,2.4,1.7c0.9,0.7,2.7,1.6,3.8,2c0.6-0.4,2-1.2,4.7-3.2c3.9-2.9,10-3.5,11.3-3.5
	c1,0,1.9,0.1,2.8,0.4c3.1,0.9,5.7,3,7.2,6.1c2.4,4.8,1.9,11.8,0.2,16.1c-0.2,0.6-0.5,1.1-0.7,1.6c0.5,0.9,0.9,1.9,1.3,3.1
	c1.7,5.7-1.9,18.9-8.8,22.9C306.3,313.1,303.7,313.8,300.5,313.8z"/>
<path class="st0" d="M274.9,267c-0.2-2,0.4-3.1-0.5-3.7c-1.1-0.6-3.2,0.7-4.3,1.7c-2.4,2.3-1.8,3.6-3.7,5.2
	c-2.4,2.1-5.1,1.2-6.1,2.9c-1,1.6,1,5.4,1,5.4s-4.5,6.2-3.6,9.2c0.6,1.9,3.7,2.6,7.9,5.5c5.4,3.7,5.3,4.5,10.1,6.7
	c3.2,1.5,3.6,0.8,12.9,2.2c11.4,1.8,12.7,2.2,15.4,0.6c2.6-1.5,4.7-10,4.3-11.4c-0.8-2.6-2.7-2.9-2.7-5.3c-0.1-2.2,1.3-3.1,2.4-5.9
	c1.2-3,1-8.5-0.8-9c-0.4-0.1-4.2,0.5-5.5,1.6c-4.7,3.5-6.8,4.6-8.7,5.1c-4.5,1.1-11.1-3.4-12-4.2C279.2,272.3,275.4,271.2,274.9,267
	z"/>
</svg>
