<?xml version="1.0" encoding="utf-8"?>
<!-- Generator: Adobe Illustrator 26.0.3, SVG Export Plug-In . SVG Version: 6.00 Build 0)  -->
<svg version="1.1" id="Layer_1" xmlns="http://www.w3.org/2000/svg" xmlns:xlink="http://www.w3.org/1999/xlink" x="0px" y="0px"
	 viewBox="0 0 566.9 566.9" style="enable-background:new 0 0 566.9 566.9;" xml:space="preserve">
<style type="text/css">
	.st0{fill:none;stroke:#00C2F3;stroke-miterlimit:10;}
</style>
<path class="st0" d="M311.6,319l-0.6,0.1c-0.9,0.2-1.9-0.3-2.4-1l-2.6-4c-3.3-4.8-3.8-6.9-4-7.7l-0.1-0.3l-0.1-0.3
	c-0.1-0.3-0.1-0.6-0.1-0.9c-1.6,0.4-3.3,0.7-4.9,0.7c-5.6,0-12.9-4.2-14.5-5.6c0.1,0.1,0.2,0.2,0.4,0.3c0,0,0,0,0,0
	c-1.3,0-2.2-0.1-3.5-0.1l-2.7,1.8c-1.1,0.8-1.4,2.3-0.6,3.4l1.2,1.7c0.8,1.2,0.5,2.8-0.8,3.5l-7.1,4.1c-7.4,4.3-21.2,5.6-24.5,5.6
	c-4.9,0-7.6-2.3-9-4.3c-1.9-2.6-2.1-3-3.3-5.2c-1.5-2.7-5.9-12.8-2.2-29.1c1.4-6.3,6.8-8.3,9.8-9.4c1.3-0.5,2.7-1,4.1-1.8
	c1.7-1,4.2-3.2,5.5-6.1c0.2-0.4,0.3-0.9,0.5-1.6c0.6-1.9,1.4-4.5,3.8-8.3c3.2-5,9.4-7.3,10.6-7.7c1.7-0.6,3.3-0.9,5-0.9
	c3.9,0,6.5,1.6,7.6,2.3l0.1,0.1c4.7,2.6,13.1,5.5,17.8,6.8c0.7,0.2,1.4,0.1,2-0.3c2.8-1.8,7-4.1,13-4.5c0.5,0,1,0,1.6,0
	c8.7,0,17,4.2,20.7,10.3c2.3,3.9,1.6,6.5-0.2,13.6l-0.1,0.5c-0.2,0.7-0.1,1.4,0.4,2c0.5,0.8,1,1.5,1.4,2c5.3,7,6.9,27.4-1.2,38.5
	l-13.5,18.4c-1.4,1.9-4.4,0.9-4.4-1.4v-12.6C314.4,319.9,313.1,318.7,311.6,319z"/>
<path class="st0" d="M262.1,259.7c1.1-1.7,4.1-3.2,5.5-3.7c2.5-0.8,3.6,0.2,4.6,0.7c7.4,4.1,21.9,8.6,24.6,8.8
	c3.3,0.3,6.2-5.1,13.6-5.5c5.8-0.3,11.3,2.3,13.2,5.5c0.2,0.3,0.1,0.7-1.6,6.9c-1,3.8-1.2,4.2-1.1,4.9c0.1,0.6,3.3,5.3,4.7,7.1
	c2.7,3.5,4.3,19-1.3,26.6c0,0,0,0,0,0c0,0,0,0,0,0c-0.6-0.9-1.5-1.3-3.7-2.3c-2.2-0.9-6.5-0.3-6.5-0.3s-2.3-3.4-2.6-4.7
	c-0.3-1.7,1.5-4.7,2.1-5.8c0.9-1.4,0.9-3.5,1-4.7c0.2-3.1-0.1-4.5-1.8-4.8c-0.6-0.1-5.2,1-8.3,3.7c0,0,0,0,0,0
	c-2.2,1.8-5.1,3.2-7.8,3.2c-2.5,0-7.6-2.8-7.7-2.9c-0.7-0.7-5.9-4.1-7.3-6c-1.9-2.6,0.1-6.3-2-6.1c-5,0.4-6,5.9-7.3,7.1
	c-1,0.9-2,1.4-3.5,1.6c-1.8,0.2-2.7,0.7-2.8,1.8c-0.1,2.9,1.2,5,1.2,5s-2.2,1.7-3.7,8.1c-0.2,0.8,0.6,1.9,0.6,1.9
	c-5.5,3.2-20,4.7-20.4,4.2c-1.7-2.5-1.7-2.5-2.7-4.2c-0.4-0.7-4.4-8.4-1.3-22.2c0.4-1.8,4.3-1.9,9.2-4.8c3.6-2.1,7.5-5.9,9.6-10.8
	C259.7,265.3,259.6,263.6,262.1,259.7z"/>
</svg>
