<?xml version="1.0" encoding="utf-8"?>
<!-- Generator: Adobe Illustrator 26.0.3, SVG Export Plug-In . SVG Version: 6.00 Build 0)  -->
<svg version="1.1" id="Layer_1" xmlns="http://www.w3.org/2000/svg" xmlns:xlink="http://www.w3.org/1999/xlink" x="0px" y="0px"
	 viewBox="0 0 566.9 566.9" style="enable-background:new 0 0 566.9 566.9;" xml:space="preserve">
<style type="text/css">
	.st0{fill:none;stroke:#D87227;stroke-miterlimit:10;}
</style>
<path class="st0" d="M304.3,289.9c-5.1-2.2-10.4-3.6-12.8-3.7c-6.7-0.4-12.3,1.1-12.4,1.1c-1.1,0.3-2.2,0.6-3.1,0.9
	c-3.1,1-5.8,1.9-8.3,0.2c-1.3-0.9-2.3-2.5-3.3-3.9c-0.2-0.3-0.4-0.6-0.5-0.9c-0.6-1-0.9-1.5-1.5-1.7c-0.2-0.1-1.2-0.3-1.8-0.3l0.3-4
	c0.5,0,2.3,0.2,3.4,0.8c1.6,0.8,2.3,2,3,3.2c0.2,0.2,0.3,0.5,0.5,0.8c0.5,0.7,1.5,2.3,2.2,2.8c0.8,0.6,2.2,0.1,4.8-0.7
	c1-0.3,2.1-0.7,3.3-1c0.3-0.1,6.3-1.6,13.6-1.2c3.3,0.2,9.3,1.9,14.2,4.1L304.3,289.9z"/>
</svg>
