<?xml version="1.0" encoding="utf-8"?>
<!-- Generator: Adobe Illustrator 26.0.3, SVG Export Plug-In . SVG Version: 6.00 Build 0)  -->
<svg version="1.1" id="Layer_1" xmlns="http://www.w3.org/2000/svg" xmlns:xlink="http://www.w3.org/1999/xlink" x="0px" y="0px"
	 viewBox="0 0 566.9 566.9" style="enable-background:new 0 0 566.9 566.9;" xml:space="preserve">
<style type="text/css">
	.st0{fill:none;stroke:#2A2774;stroke-miterlimit:10;}
	.st1{fill:none;stroke:#00C2F3;stroke-miterlimit:10;}
	.st2{fill:none;stroke:#732B90;stroke-miterlimit:10;}
	.st3{fill:none;stroke:#DB088C;stroke-miterlimit:10;}
	.st4{fill:none;stroke:#450023;stroke-miterlimit:10;}
	.st5{fill:none;stroke:#3B54A5;stroke-miterlimit:10;}
	.st6{fill:none;stroke:#059447;stroke-miterlimit:10;}
</style>
<path class="st0" d="M193.9,322c0,0-4.6-5.7-10.4-13.7c-7.2-9.9-15.7-16.1-20.8-19.8l-2.5-1.8c-8.4-6.1-9.9-7.2-14.4-12.3
	c-6.5-7.4-6.3-16.8-6.1-19.6c0.3-3.7,1.1-5.9,1.8-7.9c0.7-1.8,1.3-3.4,1.5-6.5c0.2-4-0.4-6.5-1-9.3c-0.6-2.5-1.2-5.3-1.1-9.1
	c0.1-6.3,5.6-17.8,9.2-22.5c1-1.3,2.6-3.8,4-5.9c1.2-1.8,2.2-3.4,2.9-4.4c0.8-5.2,1.3-6.3,2.8-6.9c0.5-0.2,1.1-0.3,1.7-0.3
	c1.2,0,2.4,0.5,3.4,1.1c7.7-6.3,18.6-7.3,20.4-7.5c1.1-0.2,2.9-0.3,5.1-0.3c2,0,7,0.1,10.2,1c2.7,0.8,5.3,2.4,7,3.7
	c2-1.1,4.6-2.5,6.5-2.9c0.3-0.1,0.7-0.1,1-0.2c1.4-0.3,3.2-0.7,5.8-0.7c3.4,0,7.8,0.8,13.4,2.3c4.8,1.3,17.8,6,20.8,12.1
	c2.6,5.2,2.1,7.8,0.7,15.5l-0.6,3c-0.8,4.1-1.1,5.9-0.5,8.4c0.9,3.5,2,6.4,3.3,9.7l0,0.1c0.5,1.3,1,2.6,1.5,4.1
	c2,5.4,0.8,10.5-0.6,16.9c-0.7,2.9-1.3,4.7-2.3,7.3c-0.3,0.9-0.7,1.9-1.1,3.1c-2.1,6-2.8,9-3.4,11.4c-0.5,2-0.9,3.7-1.9,6.3
	c-3.4,8.2-8.2,13-17,21.5c-3.7,3.6-8,6.9-16.7,13.5c-13.6,10.5-19.2,11.9-19.8,12l-1.8,0.4L193.9,322z"/>
<path class="st0" d="M195.5,320.8c0-0.1-4.6-5.7-10.4-13.7c-7.4-10.1-16-16.5-21.2-20.3l-2.5-1.8c-8.4-6.2-9.7-7.1-14-12
	c-6-6.8-5.8-15.6-5.6-18.1c0.3-3.5,1-5.4,1.7-7.3c0.7-1.9,1.4-3.7,1.6-7.1c0.2-4.2-0.4-7.1-1-9.8c-0.6-2.5-1.2-5.1-1.1-8.7
	c0.1-5.9,5.4-17,8.8-21.3c1.1-1.4,2.7-3.9,4.1-6.1c1.3-2.1,2.5-3.9,3.1-4.7c0.8-5.5,1.2-5.7,1.7-5.9c0.3-0.1,0.6-0.2,1-0.2
	c1.3,0,2.7,1,3.6,1.6c7.4-7,19.3-7.9,20.5-8c0.9-0.2,2.7-0.3,4.9-0.3c1.5,0,6.6,0.1,9.7,0.9c3.1,0.9,6.1,3.1,7.3,4.1
	c1.4-0.9,5-2.9,7-3.3c0.4-0.1,0.7-0.2,1.1-0.2c1.4-0.3,3-0.7,5.3-0.7c3.2,0,7.5,0.7,12.9,2.2c6.8,1.9,17.3,6.5,19.6,11
	c2.3,4.6,1.9,6.7,0.5,14.2l-0.2,1.3c-0.1,0.6-0.2,1.2-0.3,1.7c-0.8,4.2-1.2,6.3-0.5,9.2c0.9,3.6,2,6.5,3.3,9.9
	c0.5,1.3,1,2.7,1.6,4.2c1.8,4.9,0.7,9.4-0.7,15.7c-0.6,2.8-1.3,4.5-2.2,7c-0.3,0.9-0.7,1.9-1.1,3.2c-2.2,6.1-2.9,9.2-3.5,11.6
	c-0.5,2-0.9,3.6-1.8,6c-3.2,7.9-7.9,12.5-16.5,20.8c-3.6,3.5-7.9,6.8-16.6,13.4c-13.5,10.4-18.8,11.6-19,11.6l-0.6,0.1L195.5,320.8z
	"/>
<path class="st1" d="M291.4,345.3l-0.2-1.8c0-0.2-0.4-18,2.5-20c0.5-0.3,1.1-0.5,1.7-0.5c3.1,0,8.1,5,10.1,7.2
	c1.5,1.6,1.9,2.2,1.8,3.1c-0.1,0.8-0.1,1.2-6.4,6.6c-6.3,5.4-6.9,5.4-7.6,5.4C293.2,345.3,291.4,345.3,291.4,345.3z"/>
<path class="st1" d="M294.7,325.1c-1.3,0.9-2,14.6-1.6,18.2c0.1,0.8,12.1-9.6,12.1-10.2C305.3,332.7,296.8,323.7,294.7,325.1z"/>
<path class="st2" d="M349.3,421.2c-4.9,0-12.2-5.2-16.1-8.3c-0.8-0.6-1.2-1.6-1.1-2.6s0.6-1.9,1.5-2.4c2.8-1.7,5.1-2.5,6.9-2.5
	c0.1,0,0.2,0,0.4,0c2.3,0.2,3.9,1.4,5.1,2.4c1.2,0.9,1.9,1.5,2.9,1.5c1,0,2-0.5,3.3-1.2c1.6-0.8,3.5-1.9,6.3-2.4c0.1,0,0.3,0,0.5,0
	c0.7,0,1.9,0,7.4,3.8c1,0.7,1.4,1.8,1.2,3c-0.2,1.1-1.1,2-2.3,2.2c-3.5,0.6-4.3,1.2-4.4,1.2c-0.7,0.5-1.4,1-2,1.5
	c-2.5,1.9-4.9,3.7-8.8,4C349.7,421.2,349.5,421.2,349.3,421.2z"/>
<path class="st2" d="M334.4,411.3c-0.6-0.4-0.5-1.3,0.1-1.7c1.6-0.9,4.3-2.4,6.1-2.2c3.4,0.2,4.8,3.8,8.1,3.8c3,0,5.1-2.8,9.9-3.7
	c1-0.2,4.3,2,6.4,3.4c0.6,0.4,0.4,1.4-0.3,1.6c-1.8,0.3-4.2,0.8-5.1,1.5c-3.6,2.5-5.6,4.8-9.9,5.1
	C345.3,419.6,337.3,413.7,334.4,411.3z"/>
<path class="st3" d="M383.6,296.9c-1.9,0-4.5-0.4-9.2-1.2l-2.9-0.5c-3.6-0.6-5.9-0.8-7.5-1c-2.5-0.3-3.7-0.4-5.9-1.4
	c-3.3-1.5-4.5-2.4-6.3-3.9c-1-0.8-2.2-1.7-4.1-3c-1.5-1-2.9-1.8-4-2.4c-2.2-1.2-4-2.2-4.6-4.1c-1-3.1,1.7-7.7,3.2-10
	c-0.8-1.7-1.6-4.4-0.4-6.3c0.9-1.5,2.5-1.9,3.7-2.2c1-0.2,1.9-0.5,2.8-1.2c0.6-0.5,0.8-0.9,1.1-1.6c0.4-0.9,1-2.1,2.5-3.6
	c0.9-0.8,3-2.4,5-2.4c0.6,0,1.1,0.1,1.6,0.4c1.7,0.9,1.6,2.6,1.5,3.6c0,0.5-0.1,1,0,1.5c0.3,2.2,1.8,3.2,3.5,4.2
	c0.6,0.4,1.3,0.8,1.8,1.2c0.9,0.8,5.8,3.9,9.2,3.9c0.4,0,0.7,0,1-0.1c1.5-0.4,3.2-1.2,8-4.8c1.7-1.3,5.6-2,6.6-2
	c0.2,0,0.5,0,0.7,0.1c0.6,0.2,1.6,0.7,2.2,2c1.3,2.5,1,7-0.1,9.7c-0.5,1.2-1,2.1-1.4,2.8c-0.6,1.1-0.9,1.5-0.8,2.3
	c0,0.6,0.2,0.8,0.8,1.5c0.6,0.7,1.4,1.7,1.9,3.2c0.7,2.2-1.5,11.6-5.2,13.7C386.9,296.4,385.7,296.9,383.6,296.9z"/>
<path class="st3" d="M358,258c-0.2-2,0.4-3.1-0.5-3.7c-1.1-0.6-3.2,0.7-4.3,1.7c-2.4,2.3-1.8,3.6-3.7,5.2c-2.4,2.1-5.1,1.2-6.1,2.9
	c-1,1.6,1,5.4,1,5.4s-4.5,6.2-3.6,9.2c0.6,1.9,3.7,2.6,7.9,5.5c5.4,3.7,5.3,4.5,10.1,6.7c3.2,1.5,3.6,0.8,12.9,2.2
	c11.4,1.8,12.7,2.2,15.4,0.6c2.6-1.5,4.7-10,4.3-11.4c-0.8-2.6-2.7-2.9-2.7-5.3c-0.1-2.2,1.3-3.1,2.4-5.9c1.2-3,1-8.5-0.8-9
	c-0.4-0.1-4.2,0.5-5.5,1.6c-4.7,3.5-6.8,4.6-8.7,5.1c-4.5,1.1-11.1-3.4-12-4.2C362.3,263.3,358.5,262.2,358,258z"/>
<path class="st3" d="M355.2,219.2c0-0.1-0.8-1.6-2.5-3.1c-1.6-1.4-3.7-1.7-4.7-1.8c-0.4,0-0.8-0.1-1.2-0.1c-1.6,0-2.9,0.4-3.9,0.7
	c-0.6,0.2-1.1,0.3-1.7,0.3c-0.9,0-1.6-0.4-2-1.1c-0.2-0.4-0.5-1.2,0-2.3c0.9-1.9,4.4-4.8,8.7-5.6c0.8-0.1,1.5-0.2,2.3-0.2
	c3.4,0,5.9,1.3,6.8,1.8c1.8,0.9,2.3,1.7,3,3.4c1.4,3.4-1.1,7.7-1.4,8.2l-1.9,3L355.2,219.2z"/>
<path class="st3" d="M341,213.2c-0.4-0.7,2.9-4.2,7.3-5c3.8-0.7,6.8,0.8,7.8,1.4c1.3,0.7,1.5,1,2.1,2.4c1.1,2.6-1.3,6.4-1.3,6.4
	s-0.9-1.9-2.9-3.7c-2.1-1.8-4.6-2.1-5.8-2.3C344,211.9,341.3,213.8,341,213.2z"/>
<path class="st4" d="M351.5,156l-0.2,0c-0.4,0-0.7-0.1-1.1-0.1c-1.2,0-2.6-0.1-4.1-0.6c-1-0.4-2.1-1.5-1.5-4.6
	c0.3-1.6,1.1-4.3,3.3-4.3c0.3,0,0.6,0,0.9,0c0.4,0,0.8,0,1.2,0c1.2,0,2.8,0.1,4,1.1c1.7,1.4,1.4,4.3,0.8,6c-0.9,2.4-2.4,2.6-3.1,2.6
	H351.5z"/>
<path class="st4" d="M346.7,153.4c1.7,0.6,3.4,0.5,4.8,0.6c1.4,0.2,2.2-4.2,1.1-5.1c-1.1-0.9-3.2-0.6-4.8-0.6
	C346.8,148.3,345.8,153.1,346.7,153.4z"/>
<path class="st5" d="M357.4,186c-0.7,0-1.4-0.2-2.3-0.5c-1.3-0.4-3.4-1-6.5-1.3c-7.6-0.7-9-4.3-9.2-5L339,178l1-0.8
	c0.4-0.3,2.4-2,4.4-2.2c0.3,0,0.6-0.1,1-0.2c0.8-0.2,2-0.4,3.3-0.4c2.5,0,4.8,0.7,6.9,2.2c0.1,0,5.6,4.2,4.5,7.4
	C359.6,185.3,358.7,186,357.4,186C357.4,186,357.4,186,357.4,186z"/>
<path class="st5" d="M341.3,178.7c0,0,0.9,3,7.5,3.6c7,0.6,8.8,2.8,9.4,1.1c0.4-1.2-2.5-4.2-3.7-5.1c-4.4-3-8.1-1.5-9.9-1.4
	C343.1,177,341.3,178.7,341.3,178.7z"/>
<path class="st4" d="M377.7,218.4c0-0.4-0.1-3.5,1.5-5.8c0.7-1,3.3-4.2,7.6-4.2c3.7,0,6,2.4,6.8,3.1c1.7,1.8,2.2,4.9,2.2,5.3
	l0.6,4.7l-3.8-2.9c0,0-1.2-0.9-3.4-1.3c-0.5-0.1-1.1-0.1-1.6-0.1c-1,0-1.9,0.1-2.7,0.4c-2.4,0.8-3.9,2.1-3.9,2.1l-3.2,2.9
	L377.7,218.4z"/>
<path class="st4" d="M379.7,218.3c0,0-0.1-2.8,1.1-4.6c0.4-0.6,2.5-3.4,6-3.4c2.9,0,4.7,1.9,5.3,2.5c1.3,1.4,1.7,4.2,1.7,4.2
	s-1.5-1.2-4.3-1.6c-0.9-0.2-3-0.4-5.2,0.4C381.4,216.8,379.7,218.3,379.7,218.3z"/>
<path class="st6" d="M378.3,187.7c-1.4,0-2-0.1-2.4-0.3c-1-0.5-3.2-2.9-2.8-5c0.5-2.6,5.2-4.7,8.1-5.1c1-0.1,1.8-0.2,2.6-0.2
	c2.5,0,4.6,0.7,6.7,2.2c1.1,0.8,1.7,2,1.7,3.2c0,1-0.4,1.8-1.1,2.3C387,187.7,378.7,187.7,378.3,187.7z"/>
<path class="st6" d="M375.2,182.8c-0.2,1,1.2,2.6,1.7,2.8c0.7,0.3,9.5,0.1,13.3-2.5c0.5-0.3,0.4-1.6-0.6-2.3
	c-2.6-1.8-4.8-2.1-7.9-1.6C378.8,179.6,375.4,181.5,375.2,182.8z"/>
<path class="st4" d="M376.1,156.4c-0.6,0-1-0.1-1.4-0.3c-1.8-0.8-2.6-3-2.7-4.1c-0.3-1.6,0.3-4.8,2.3-5.6c0.8-0.3,2.2-0.6,3.6-0.6
	c0.3,0,0.7,0,1,0.1c2.9,0.4,2.9,3.5,2.9,4.7l0,0.2c0,2.3-0.6,3.6-2,4.7C378.7,156.4,376.1,156.4,376.1,156.4z"/>
<path class="st4" d="M378.5,154c-0.2,0.2-2.4,0.6-3,0.3c-0.9-0.4-1.5-1.8-1.6-2.6c-0.2-1.2,0.3-3.2,1.1-3.4c0.7-0.3,2.3-0.6,3.6-0.4
	c1.3,0.2,1.1,1.8,1.1,3C379.7,152.9,379.2,153.4,378.5,154z"/>
<path class="st1" d="M417.8,387.9c-0.4-0.3-1.1-0.6-2.5-1.2c-0.3-0.1-1-0.3-2.5-0.3c-1.5,0-2.8,0.2-2.8,0.2l-1.3,0.2l-0.7-1
	c-0.8-1.1-2.6-3.9-2.9-5.3l0-0.1c-0.3-1.7,0.5-4.1,2.4-7.2c0.5-0.8,0.6-2.4,0.7-3.4l0-0.3c0.1-1.8,0-2.5-0.1-2.7
	c-1,0.2-4.4,1.1-6.7,3.2c-2.7,2.3-6.1,3.7-9.1,3.7c-3.1,0-8.6-3.1-9-3.5c-0.2-0.1-0.9-0.7-1.5-1.1c-2.6-1.9-5-3.7-6.1-5.1
	c-1.3-1.7-1.3-3.8-1.3-5.1c-1.6,0.6-2.5,2.1-3.5,4c-0.5,1-0.9,1.8-1.6,2.4c-1.4,1.2-2.8,1.8-4.6,2.1c-0.5,0.1-0.9,0.2-1.1,0.2
	c0,2,0.9,3.5,0.9,3.5l1,1.5l-1.4,1.1h0c0,0-1.7,1.6-3,6.8c0,0.1,0.1,0.3,0.2,0.5l1.2,1.8l-1.8,1.1c-5.4,3.1-17.6,4.6-20.5,4.6
	c-0.7,0-1.8,0-2.5-0.9c-1.8-2.5-1.8-2.6-2.8-4.4c-0.8-1.5-4.6-9.6-1.5-23.6c0.5-2.1,2.5-2.8,4.8-3.7c1.5-0.5,3.3-1.2,5.3-2.4
	c3.8-2.2,7-5.9,8.8-9.9c0.4-0.8,0.6-1.6,0.8-2.4c0.5-1.6,1.1-3.5,2.9-6.3c1.6-2.4,5.2-4.1,6.5-4.5c0.9-0.3,1.6-0.4,2.4-0.4
	c1.6,0,2.7,0.7,3.5,1.1c0.1,0.1,0.2,0.1,0.3,0.2c7.3,4.1,21.5,8.3,23.8,8.5c0,0,0,0,0,0c0.8,0,1.9-0.7,3.1-1.6
	c2.3-1.5,5.5-3.7,10.2-3.9c0.4,0,0.7,0,1.1,0c5.9,0,11.6,2.7,13.9,6.5c0.6,1,0.6,1-1.1,7.5l-0.7,2.7c-0.4,1.4-0.5,1.9-0.6,2.2
	c0.6,1.1,3,4.6,4.3,6.3c3.3,4.3,4.8,20.7-1.3,29l-3.6,4.9V387.9z"/>
<path class="st1" d="M357.6,335.8c1.1-1.7,4.1-3.2,5.5-3.7c2.5-0.8,3.6,0.2,4.6,0.7c7.4,4.1,21.9,8.6,24.6,8.8
	c3.3,0.3,6.2-5.1,13.6-5.5c5.8-0.3,11.3,2.3,13.2,5.5c0.2,0.3,0.1,0.7-1.6,6.9c-1,3.8-1.2,4.2-1.1,4.9c0.1,0.6,3.3,5.3,4.7,7.1
	c2.7,3.5,4.3,19-1.3,26.6c0,0,0,0,0,0c0,0,0,0,0,0c-0.6-0.9-1.5-1.3-3.7-2.3c-2.2-0.9-6.5-0.3-6.5-0.3s-2.3-3.4-2.6-4.7
	c-0.3-1.7,1.5-4.7,2.1-5.8c0.9-1.4,0.9-3.5,1-4.7c0.2-3.1-0.1-4.5-1.8-4.8c-0.6-0.1-5.2,1-8.3,3.7c0,0,0,0,0,0
	c-2.2,1.8-5.1,3.2-7.8,3.2c-2.5,0-7.6-2.8-7.7-2.9c-0.7-0.7-5.9-4.1-7.3-6c-1.9-2.6,0.1-6.3-2-6.1c-5,0.4-6,5.9-7.3,7.1
	c-1,0.9-2,1.4-3.5,1.6c-1.8,0.2-2.7,0.7-2.8,1.8c-0.1,2.9,1.2,5,1.2,5s-2.2,1.7-3.7,8.1c-0.2,0.8,0.6,1.9,0.6,1.9
	c-5.5,3.2-20,4.7-20.4,4.2c-1.7-2.5-1.7-2.5-2.7-4.2c-0.4-0.7-4.4-8.4-1.3-22.2c0.4-1.8,4.3-1.9,9.2-4.8c3.6-2.1,7.5-5.9,9.6-10.8
	C355.2,341.4,355,339.7,357.6,335.8z"/>
</svg>
