<?xml version="1.0" encoding="utf-8"?>
<!-- Generator: Adobe Illustrator 26.0.3, SVG Export Plug-In . SVG Version: 6.00 Build 0)  -->
<svg version="1.1" id="Layer_1" xmlns="http://www.w3.org/2000/svg" xmlns:xlink="http://www.w3.org/1999/xlink" x="0px" y="0px"
	 viewBox="0 0 566.9 566.9" style="enable-background:new 0 0 566.9 566.9;" xml:space="preserve">
<style type="text/css">
	.st0{fill:none;stroke:#2A2774;stroke-miterlimit:10;}
	.st1{fill:none;stroke:#00C2F3;stroke-miterlimit:10;}
	.st2{fill:none;stroke:#732B90;stroke-miterlimit:10;}
	.st3{fill:none;stroke:#DB088C;stroke-miterlimit:10;}
	.st4{fill:none;stroke:#450023;stroke-miterlimit:10;}
	.st5{fill:none;stroke:#3B54A5;stroke-miterlimit:10;}
	.st6{fill:none;stroke:#059447;stroke-miterlimit:10;}
</style>
<path class="st0" d="M187.7,326.4c-0.2-0.2-4.7-5.8-10.6-14c-6.6-9-14.2-14.6-19.3-18.3l-2.5-1.8c-8.5-6.2-10.5-7.7-15.5-13.4
	c-8.3-9.4-8.1-21.2-7.8-24.7c0.3-4.8,1.5-7.7,2.3-9.8c0.6-1.6,0.9-2.4,1-4.4c0.2-3-0.3-4.8-0.8-7.4c-0.6-2.7-1.4-6.2-1.3-10.8
	c0.2-8.8,6.9-21.8,10.7-26.6c0.8-1.1,2.4-3.5,3.6-5.4c0.9-1.4,1.6-2.5,2.2-3.4c0.8-4.6,2-8.7,6.7-10.7c1.4-0.6,2.9-0.9,4.4-0.9
	c0.8,0,1.6,0.1,2.4,0.2c8-5,17.1-6.3,20.5-6.5c1.5-0.2,3.5-0.4,6.1-0.4c2.8,0,8.2,0.2,12.1,1.3c2,0.5,3.8,1.4,5.5,2.3
	c1.6-0.7,3.2-1.4,4.7-1.7c0.3-0.1,0.6-0.1,0.8-0.2c1.7-0.4,4-0.9,7.3-0.9c4.1,0,9,0.8,15.3,2.5c2.1,0.6,20.3,5.8,25.2,15.7
	c3.6,7.3,2.8,11.8,1.3,19.8l-0.6,3.1c-0.7,3.8-0.8,4.5-0.6,5.3c0.8,3.1,1.8,5.7,3,8.9c0.5,1.4,1.1,2.8,1.6,4.3
	c2.7,7.4,1.2,13.9-0.4,20.8c-0.8,3.4-1.5,5.5-2.5,8.1c-0.3,0.9-0.7,1.9-1.1,3.1c-2,5.7-2.7,8.5-3.2,10.8c-0.5,2.2-1,4.2-2.2,7.3
	c-3.9,9.6-9.7,15.3-18.6,23.9c-4,3.9-8.4,7.3-17.4,14.1c-13.8,10.5-20.3,12.8-22.5,13.3l-6,1.3L187.7,326.4z"/>
<path class="st0" d="M151.7,201.3c2.2-2.8,6.2-9.7,7.4-11c0,0,0.8-5.3,1.2-5.4c1.6-0.7,4.2,1.9,4.2,1.9c7.3-7.6,20.6-8.4,20.6-8.4
	c2-0.4,10.3-0.5,14.2,0.6c3.8,1,7.5,4.4,7.5,4.4s5-3.1,7.3-3.6c3.4-0.7,6.4-2.1,18.8,1.3c7.3,2,17,6.6,18.9,10.5
	c2.3,4.6,1.8,6.2,0.2,14.9c-1,5.4-1.7,7.9-0.8,11.4c1.3,5.1,3,8.9,4.9,14.2c1.7,4.6,0.7,9-0.7,15.2c-0.9,3.7-1.6,5.3-3.3,10.1
	c-4,11.2-3.2,12.4-5.3,17.6c-3.1,7.7-7.7,12.1-16.3,20.5c-3.5,3.4-7.8,6.7-16.5,13.4c-13.5,10.3-18.6,11.4-18.6,11.4
	s-4.5-5.6-10.3-13.6c-7.5-10.3-16.2-16.7-21.4-20.5c-10.6-7.8-11.7-8.4-16.4-13.7c-6.1-6.9-5.5-16.2-5.4-17.4
	c0.5-6.8,2.9-7.5,3.3-14.5c0.4-8.3-2.3-11.1-2.1-18.5C143.3,216.2,148.6,205.3,151.7,201.3z"/>
<path class="st1" d="M289.5,353.3c-3.5,0-6.4-2.7-6.8-6.1l-0.3-2.9c-0.3-2.8-0.1-7.9,0.2-11.8c0.5-7.4,1.2-12.5,5.7-15.5
	c1.8-1.2,3.9-1.9,6.2-1.9c1.9,0,6.9,0,15.9,9.8c1.6,1.7,4.3,4.6,3.9,9.2c-0.4,4.5-2.8,6.5-9.1,12c-6.4,5.5-8.8,7.3-12.8,7.3
	L289.5,353.3z"/>
<path class="st1" d="M294,325.1c-1.3,0.9-2,14.6-1.6,18.2c0.1,0.8,12.1-9.6,12.1-10.2C304.5,332.7,296.1,323.7,294,325.1z"/>
<path class="st2" d="M348.6,429.2c-2.1,0-8.4,0-21.1-10c-2.8-2.2-4.4-5.7-4.1-9.3s2.2-6.8,5.3-8.7c4.1-2.5,8.5-1.5,11.4-2.2
	c3.5-0.8,6.7,0.2,8.5,1.5c1.8-0.9,4.3-2.1,7.6-2.7c0.6-0.1,1.2-0.2,1.9-0.2c3.3,0,6.3,1.3,11.9,5.2c3.6,2.5,5.3,6.9,4.4,11.2
	c-0.9,4.3-4.3,7.6-8.6,8.3c-1,0.2-1.6,0.3-2,0.4c-0.4,0.3-0.7,0.5-1.1,0.8c-2.8,2.1-6.7,5.1-13,5.5
	C349.3,429.1,348.9,429.2,348.6,429.2z"/>
<path class="st2" d="M333.7,411.3c-0.6-0.4-0.5-1.3,0.1-1.7c1.6-0.9,4.3-2.4,6.1-2.2c3.4,0.2,4.8,3.8,8.1,3.8c3,0,5.1-2.8,9.9-3.7
	c1-0.2,4.3,2,6.4,3.4c0.6,0.4,0.4,1.4-0.3,1.6c-1.8,0.3-4.2,0.8-5.1,1.5c-3.6,2.5-5.6,4.8-9.9,5.1
	C344.5,419.6,336.6,413.7,333.7,411.3z"/>
<path class="st3" d="M382.9,304.8c-2.5,0-5.2-0.4-10.5-1.3l-2.9-0.5c-3.4-0.5-5.5-0.7-7.1-0.9c-2.8-0.3-5-0.5-8.4-2.1
	c-3.9-1.8-5.6-3-7.9-4.8c-0.9-0.7-2-1.6-3.7-2.7c-1.1-0.8-2.3-1.4-3.3-2c-2.7-1.5-6.8-3.7-8.4-8.7c-1.4-4.5,0-9.4,2.1-13.4
	c-0.6-2.9-0.5-6.3,1.4-9.4c2.3-3.8,5.8-5,7.8-5.5c0.7-1.2,1.7-2.8,3.5-4.5c1.1-1.1,5.2-4.7,10.6-4.7c1.9,0,3.8,0.5,5.5,1.4
	c2.1,1.2,5.5,4,5.6,9.8c0.7,0.4,1.5,1,2.4,1.7c0.9,0.7,2.7,1.7,3.8,2c0.6-0.4,2-1.2,4.7-3.2c3.9-2.9,10-3.5,11.3-3.5
	c1,0,1.9,0.1,2.8,0.4c3.1,0.9,5.7,3,7.2,6.1c2.4,4.8,1.9,11.8,0.2,16.1c-0.2,0.6-0.5,1.1-0.7,1.6c0.5,0.9,0.9,1.9,1.3,3.1
	c1.7,5.7-1.9,18.9-8.8,22.9C388.7,304.1,386,304.8,382.9,304.8z"/>
<path class="st3" d="M357.3,258c-0.2-2,0.4-3.1-0.5-3.7c-1.1-0.6-3.2,0.7-4.3,1.7c-2.4,2.3-1.8,3.6-3.7,5.2
	c-2.4,2.1-5.1,1.2-6.1,2.9c-1,1.6,1,5.4,1,5.4s-4.5,6.2-3.6,9.2c0.6,1.9,3.7,2.6,7.9,5.5c5.4,3.7,5.3,4.5,10.1,6.7
	c3.2,1.5,3.6,0.8,12.9,2.2c11.4,1.8,12.7,2.2,15.4,0.6c2.6-1.5,4.7-10,4.3-11.4c-0.8-2.6-2.7-2.9-2.7-5.3c-0.1-2.2,1.3-3.1,2.4-5.9
	c1.2-3,1-8.5-0.8-9c-0.4-0.1-4.2,0.5-5.5,1.6c-4.7,3.5-6.8,4.6-8.7,5.1c-4.5,1.1-11.1-3.4-12-4.2C361.5,263.3,357.8,262.2,357.3,258
	z"/>
<path class="st3" d="M347.3,222.9c-0.1-0.1-0.2-0.3-0.5-0.6c-0.2,0-0.4-0.1-0.6-0.1c-0.1,0-0.2,0-0.3,0c-0.5,0-0.9,0.1-1.6,0.3
	c-1,0.3-2.3,0.7-4,0.7h0c-3.8,0-7.2-2-9-5.3c-1.6-2.9-1.6-6.4-0.2-9.5c2.2-4.7,8.3-8.9,14.4-10c1.2-0.2,2.5-0.3,3.8-0.3
	c3.6,0,7.1,0.9,10.5,2.7c3.8,2,5.4,4.4,6.6,7.3c2.8,6.7-0.8,13.5-2,15.4l-2.9,4.6c-3,4.9-10.4,4.4-12.6-1L347.3,222.9z"/>
<path class="st3" d="M340.2,213.2c-0.4-0.7,2.9-4.2,7.3-5c3.8-0.7,6.8,0.8,7.8,1.4c1.3,0.7,1.5,1,2.1,2.4c1.1,2.6-1.3,6.4-1.3,6.4
	s-0.9-1.9-2.9-3.7c-2.1-1.8-4.6-2.1-5.8-2.3C343.2,211.9,340.6,213.8,340.2,213.2z"/>
<path class="st4" d="M350.3,163.9l-0.6-0.1c-0.2,0-0.4,0-0.6,0c-1.5-0.1-3.9-0.1-6.5-1.1c-3.9-1.4-8-5.8-6.6-13.5
	c1.4-8,6.7-10.9,11.1-10.9c0.2,0,0.4,0,0.7,0c0.5,0,1,0,1.4,0c1.4,0,5.1,0.6,9,2.9c4.7,2.8,3,5.6,2.7,13.2c-0.3,6.2-6.3,9.5-10,9.5
	C350.8,163.9,350.3,163.9,350.3,163.9z"/>
<path class="st4" d="M346,153.4c1.7,0.6,3.4,0.5,4.8,0.6c1.4,0.2,2.2-4.2,1.1-5.1c-1.1-0.9-3.2-0.6-4.8-0.6
	C346,148.3,345,153.1,346,153.4z"/>
<path class="st5" d="M356.6,193.9c-1.8,0-3.3-0.4-4.6-0.8c-1.2-0.4-2.6-0.8-4.9-1c-12.4-1.1-15.5-8.5-16.1-10.7l-0.4-1.4
	c-0.8-2.9,0.1-6,2.3-7.9l1.1-0.9c1.6-1.4,4.8-3.7,8.8-4.1c0.1,0,0.2,0,0.4-0.1c1-0.2,2.7-0.5,4.8-0.5c4.1,0,8,1.2,11.4,3.6
	c0.4,0.3,5.8,7.3,5.8,15C365.1,189.8,361.3,193.9,356.6,193.9C356.6,193.9,356.6,193.9,356.6,193.9z"/>
<path class="st5" d="M340.5,178.7c0,0,0.9,3,7.5,3.6c7,0.6,8.8,2.8,9.4,1.1c0.4-1.2-2.5-4.2-3.7-5.1c-4.4-3-8.1-1.5-9.9-1.4
	C342.3,177,340.5,178.7,340.5,178.7z"/>
<path class="st4" d="M369,218.6c0-1.4,0-6.4,2.9-10.5c3.3-4.8,8.6-7.7,14.1-7.7c3.3,0,8,1,12.5,5.6c3.3,3.4,4.1,8,4.4,9.8l0.4,3.1
	c1,7.6-7.7,12.6-13.8,7.9l-2-1.6c-0.1,0-0.2-0.1-0.4-0.1c0,0-0.1,0-0.3,0c-0.1,0-0.2,0-0.2,0c-0.5,0.2-0.9,0.4-1.1,0.6l-6.4,6.8
	c-3.6,3.8-10,1.3-10-3.9L369,218.6z"/>
<path class="st4" d="M378.9,218.3c0,0-0.1-2.8,1.1-4.6c0.4-0.6,2.5-3.4,6-3.4c2.9,0,4.7,1.9,5.3,2.5c1.3,1.4,1.7,4.2,1.7,4.2
	s-1.5-1.2-4.3-1.6c-0.9-0.2-3-0.4-5.2,0.4C380.6,216.8,378.9,218.3,378.9,218.3z"/>
<path class="st6" d="M377.6,195.6c-1.8,0-3.8-0.1-5.9-1.1c-3.6-1.8-6-8.5-4-14.7c2.3-7.2,5.8-9.9,11.8-10.5c1.4-0.1,2.6-0.3,3.8-0.3
	c4.2,0,7.9,1.2,11.3,3.7c3.2,2.3,5,5.9,5,9.7c0,3.5-1.7,6.8-4.6,8.7C389,195.4,379.4,195.6,377.6,195.6L377.6,195.6z"/>
<path class="st6" d="M374.4,182.8c-0.2,1,1.2,2.6,1.7,2.8c0.7,0.3,9.5,0.1,13.3-2.5c0.5-0.3,0.4-1.6-0.6-2.3
	c-2.6-1.8-4.8-2.1-7.9-1.6C378,179.6,374.7,181.5,374.4,182.8z"/>
<path class="st4" d="M375.3,164.4c-1.8,0-3.3-0.3-4.8-1c-4.5-2.1-5.7-7-6.2-10.5c-0.8-5.2,0.5-11.6,6.3-13.8
	c1.8-0.7,4.2-1.1,6.4-1.1c0.7,0,1.3,0,1.9,0.1c1,0.1,9.9,1.5,9.9,12.6l0,0.2c0,4.7-1.6,8.3-5,11
	C380.9,164.1,376.9,164.4,375.3,164.4z"/>
<path class="st4" d="M377.7,154c-0.2,0.2-2.4,0.6-3,0.3c-0.9-0.4-1.5-1.8-1.6-2.6c-0.2-1.2,0.3-3.2,1.1-3.4c0.7-0.3,2.3-0.6,3.6-0.4
	c1.3,0.2,1.1,1.8,1.1,3C378.9,152.9,378.5,153.4,377.7,154z"/>
<path class="st1" d="M412.1,394.3C412.1,394.3,412.1,394.3,412.1,394.3c-0.1,0-0.1,0-0.2,0c-0.7,0-1.4,0.1-1.6,0.1l-6.3,1l-3.5-5.3
	c-3.3-4.8-3.8-6.9-4-7.7l-0.1-0.3l-0.1-0.4c-0.1-0.3-0.1-0.6-0.1-0.9c-1.6,0.4-3.3,0.7-4.9,0.7c-5.6,0-12.9-4.2-14.5-5.6
	c0.1,0.1,0.2,0.2,0.4,0.3c-0.2-0.2-0.6-0.5-1.1-0.8c-0.2-0.2-0.5-0.3-0.7-0.5l-6.5,4.3l4.2,5.9l-9.4,5.4c-7.4,4.3-21.2,5.6-24.5,5.6
	c-4.9,0-7.6-2.3-8.9-4.3c-1.9-2.7-2.1-3-3.3-5.2c-1.5-2.7-5.9-12.8-2.2-29.1c1.4-6.3,6.8-8.3,9.8-9.4c1.3-0.5,2.7-1,4.1-1.8
	c1.7-1,4.2-3.2,5.5-6.1c0.2-0.4,0.3-0.9,0.5-1.6c0.6-1.9,1.4-4.5,3.8-8.3c3.2-5,9.4-7.3,10.6-7.7c1.7-0.6,3.3-0.9,5-0.9
	c3.9,0,6.5,1.6,7.6,2.3l0.1,0.1c5.1,2.8,14.5,5.9,18.9,7.1c2.7-1.8,7.2-4.7,13.9-5.1c0.5,0,1,0,1.6,0c8.7,0,17,4.2,20.7,10.3
	c2.3,3.9,1.6,6.6-0.2,13.6l-0.4,1.5c0.7,1.1,1.5,2.2,2,2.9c5.3,7,6.9,27.4-1.2,38.5l-4,5.4c-1.5,2-4.4,2.3-6.2,0.5L412.1,394.3z"/>
<path class="st1" d="M356.8,335.8c1.1-1.7,4.1-3.2,5.5-3.7c2.5-0.8,3.6,0.2,4.6,0.7c7.4,4.1,21.9,8.6,24.6,8.8
	c3.3,0.3,6.2-5.1,13.6-5.5c5.8-0.3,11.3,2.3,13.2,5.5c0.2,0.3,0.1,0.7-1.6,6.9c-1,3.8-1.2,4.2-1.1,4.9c0.1,0.6,3.3,5.3,4.7,7.1
	c2.7,3.5,4.3,19-1.3,26.6c0,0,0,0,0,0c0,0,0,0,0,0c-0.6-0.9-1.5-1.3-3.7-2.3c-2.2-0.9-6.5-0.3-6.5-0.3s-2.3-3.4-2.6-4.7
	c-0.3-1.7,1.5-4.7,2.1-5.8c0.9-1.4,0.9-3.5,1-4.7c0.2-3.1-0.1-4.5-1.8-4.8c-0.6-0.1-5.2,1-8.3,3.7c0,0,0,0,0,0
	c-2.2,1.8-5.1,3.2-7.8,3.2c-2.5,0-7.6-2.8-7.7-2.9c-0.7-0.7-5.9-4.1-7.3-6c-1.9-2.6,0.1-6.3-2-6.1c-5,0.4-6,5.9-7.3,7.1
	c-1,0.9-2,1.4-3.5,1.6c-1.8,0.2-2.7,0.7-2.8,1.8c-0.1,2.9,1.2,5,1.2,5s-2.2,1.7-3.7,8.1c-0.2,0.8,0.6,1.9,0.6,1.9
	c-5.5,3.2-20,4.7-20.4,4.2c-1.7-2.5-1.7-2.5-2.7-4.2c-0.4-0.7-4.4-8.4-1.3-22.2c0.4-1.8,4.3-1.9,9.2-4.8c3.6-2.1,7.5-5.9,9.6-10.8
	C354.4,341.4,354.3,339.7,356.8,335.8z"/>
</svg>
