<?xml version="1.0" encoding="utf-8"?>
<!-- Generator: Adobe Illustrator 26.0.3, SVG Export Plug-In . SVG Version: 6.00 Build 0)  -->
<svg version="1.1" id="Layer_1" xmlns="http://www.w3.org/2000/svg" xmlns:xlink="http://www.w3.org/1999/xlink" x="0px" y="0px"
	 viewBox="0 0 566.9 566.9" style="enable-background:new 0 0 566.9 566.9;" xml:space="preserve">
<style type="text/css">
	.st0{fill:none;stroke:#059447;stroke-miterlimit:10;}
</style>
<path class="st0" d="M282.6,281.2l-3.9-0.5c0.2-1.2,0.5-3.8,0.9-5.4c0.4-1.7,1-3.2,1.6-4.5c0.3-0.7,0.6-1.4,0.8-2l3.8,1.3
	c-0.3,0.8-0.6,1.5-0.9,2.3c-0.5,1.2-1.1,2.5-1.4,3.8C283.1,277.6,282.7,280.1,282.6,281.2z"/>
<path class="st0" d="M310.2,287.9c-1-2.2-2.9-4.1-4.8-6.2c-2.9-3-6.2-6.4-7-11.2l3.9-0.7c0.7,3.6,3.2,6.3,6,9.2
	c2.1,2.2,4.3,4.5,5.6,7.3L310.2,287.9z"/>
</svg>
