<?xml version="1.0" encoding="utf-8"?>
<!-- Generator: Adobe Illustrator 26.1.0, SVG Export Plug-In . SVG Version: 6.00 Build 0)  -->
<svg version="1.1" id="Layer_1" xmlns="http://www.w3.org/2000/svg" xmlns:xlink="http://www.w3.org/1999/xlink" x="0px" y="0px"
	 viewBox="0 0 566.9 566.9" style="enable-background:new 0 0 566.9 566.9;" xml:space="preserve">
<style type="text/css">
	.st0{fill:none;stroke:#000000;stroke-miterlimit:10;}
</style>
<path class="st0" d="M352.6,435.5c-5.7-0.1-15.3-4.3-20.5-6.7c-2.6-1.2-4.3-1.8-6.3-2.6c-2.8-1-5.9-2.1-11.6-4.9l-0.3-0.1
	c-3.6-1.7-7.2-3.5-9.9-6.1c-3.8,4.2-9,6.1-10.8,6.6c-4.2,1.2-6.6,2.3-8.9,3.4c-3.1,1.4-6.4,2.8-11.7,3.6c-1.9,0.3-4.2,0.4-6.5,0.4
	c-5.1,0-14.7-0.7-22.5-5.3c-7-4.1-13.9-12-12.2-21.6c1.3-7.3,6.8-12.1,9.5-13.6c1.6-0.9,5.4-2.1,9.1-2.3c-1-1.8-2-3.8-2.8-6
	c-1.2-3.2-4.7-13.1-0.8-23.2c1.8-4.5,4.5-6.8,9.8-11.1c-0.4-0.5-0.8-1.1-1.2-1.7c-0.2-0.1-0.5-0.2-0.7-0.4c-2.2,3.1-4.8,4.9-6.9,6.3
	c-0.2,0.1-0.3,0.2-0.5,0.3c-0.2,0.4-0.3,0.7-0.5,1.1c-0.8,1.5-5.2,7.3-11.1,8.4c-0.7,0.6-1.2,1.2-1.4,1.4
	c-2.9,3.2-6.6,6.8-13.8,13.6l-0.7,0.7c-9.7,9.2-15,13.2-20.7,13.2c0,0,0,0,0,0c-2.5,0-4.8-0.8-6.7-2.2c-4.3-3.3-5.3-8.5-2.9-15.3
	c0.9-2.6,2.3-5.9,4.6-11c4.5-10.3,7.6-16.3,10.6-20.7c0.4-0.5,0.7-1.1,1.1-1.6c-2.4-1.8-4.2-4.4-4.6-7.7c-0.5-3.8,1.1-9.3,7.2-11.9
	c0.7-3.1,2.3-5.6,4.7-7.3c-1-0.9-1.8-1.9-2.5-3.1c-1-1.8-1.6-3.7-1.7-5.6c-0.8-0.7-1.5-1.5-2.2-2.4c-2.6-3.9-2.9-9.6-0.6-13.8
	c1.9-3.5,5.4-5.7,9.3-5.7h0.5l0.5,0c7.9,0.7,26.9,5,44.9,9.1c0.1-0.1,0.2-0.2,0.3-0.3c0-0.1,0.1-0.2,0.1-0.2c0.5-0.9,0.5-1,0.6-1.2
	c0.3-0.9,0.4-2.7-1.1-9c-2.3-9.4-3.1-14.7-3-18.7c0.1-3.2,0.5-6,1.1-8.4c0,0-0.1,0-0.1-0.1c-2.7-1.2-10.5-5.7-16.4-10.5
	c-5.4-4.3-9.8-10.1-12.8-16.5c-4.2-9-3.8-18.4-3.2-34c0.3-7.3,0.6-10.9,0.8-13.6c0.2-2.6,0.3-4,0.3-7.4c0-2.2-0.1-4-0.2-5.7
	c-0.1-3-0.2-5.9-0.1-10c0.2-6,0.5-15.1,8.9-17.6c1-0.3,2-0.4,3-0.4c4.6,0,7.5,2.9,8.9,4.3c0.8,0.8,1.6,1.6,3.1,2.6
	c1.7,1.1,2.8,1.7,3.7,2.2c1.6,0.9,3.1,1.7,5.2,3.5c3.8,3.1,9,12.9,11,30.2c0.9,7.7,2.8,14.6,4.1,19.2c0.2,0.8,0.4,1.5,0.6,2.2
	l0.3,1.3v0c0.5,1.8,2,6.3,5,11.5c1.2-1,2.5-1.8,3.6-2.3c2.7-1.4,5.9-2.1,9.6-2.1c0.8,0,1.5,0,2.3,0.1c0.9-0.4,1.8-0.7,2.8-0.8
	c0.7-5.5,2.2-11.6,4.1-18.7c4.2-15.3,11-28.7,20.2-39.7c4.2-5,9-7.8,12.5-9.8c1.2-0.7,2.4-1.4,3-1.8c5.3-4.2,10.1-6.3,14.7-6.3
	c2.6,0,5.1,0.7,7.2,2.1c5.6,3.6,6.5,9.6,4.1,26c-1.6,11.1-4.6,24.2-8.4,36.9c-0.4,1.5-0.8,2.8-1.2,4c-2.1,7.2-3.5,11.9-7,17.8
	c-1.4,2.5-3,4.7-4.5,6.8c2.8,2.5,4.9,5.2,7.1,8c0.2,0.3,0.4,0.5,0.7,0.8c1.8,2.2,4.7,5.8,6.6,11.3c0.8,2.3,1.2,4,1.5,5.3
	c0.5,1.9,0.7,2.8,1.8,5.1c0.6,1.2,1.8,3.7,4.1,6.2c0.6,0.7,1.1,1.1,1.7,1.6c1.1,0.9,2.4,2.1,4.2,4.3c4.2,5,9.3,15,2.4,21.3
	c-0.1,0.1-0.3,0.3-0.4,0.4c-0.4,1.1-1,2.1-1.7,3.1c-0.5,0.7-1.1,1.2-1.7,1.8c-1.9,7.6-6.4,9.5-9.4,9.9c-0.2,0.2-0.5,0.5-0.7,0.7
	c1.7,1.2,3.5,2.6,5.3,4.3c6.5,6.1,10.5,10.7,11.8,16.2c0.3,1.1,0.5,2.3,0.8,4.3c0.6,3.7,1,6,0.9,8.6l0,0.2c-0.1,1.8-0.2,5.9-2.7,10
	c-1.2,2-3.1,3.7-5.4,5.1c3.3,4.9,5.2,10.8,5.2,15.8c0.2,11.1-6.3,19.7-12.2,25.3c1.8,0.3,3.6,0.8,5.5,2c7.4,4.5,7.8,14.5,6.3,19.8
	c-0.3,1.1-0.7,2.1-1.2,2.9c-1,4.4-4,7.2-6,8.6c-1.4,1-3,1.7-4.5,2.2c-2.4,2.5-6.3,5.3-11.3,5.3L352.6,435.5z"/>
<path class="st0" d="M267.8,299.1c-0.7-2.4,1.2-3.6,1.3-3.8c1-1.9,1.5-2.7,2-4.3c1-3.3,0.8-7-0.9-14.1c-2.1-8.9-2.8-13.3-2.7-16.2
	c0.2-7.7,2.5-11.6,4.8-13.2c0,0-3.3-1.7-9.7-4.6c-2.2-1-9.2-5-14.3-9.1c-6.3-5.1-9.2-11.3-10-13c-3.1-6.7-2.9-14.3-2.3-29.4
	c0.6-14.4,1.2-13.8,1.1-21.4c-0.1-6.2-0.4-9.2-0.2-15.3c0.2-5.7,0.6-8.1,1.8-8.4c1.2-0.4,2.2,2.3,6.8,5.2c4.6,2.9,5.4,2.9,8,5
	c1.1,0.9,5.6,8.1,7.4,23.7c1.1,9.8,3.7,18.2,5,22.8c0,0,2.4,11.4,11.6,22.8c1.9,2.4,5.7,5.8,5.7,5.8s1.2-2.8,3.1-4.4
	c1.9-1.6,4.1-2.5,4.1-2.5s-0.9-1.4-4.4-1.9c-1.3-0.2,2.8-2.9,3.2-3.1c3.7-2,10.6-0.3,10.6-0.3l0.5-1.3c0.1-0.2,0.3-0.3,0.5-0.2
	c1.4,0.4,6.6,2.2,6.7,8.2c0,0.6,1,0.5,1.5,0.2c1.5-0.8,0-6-0.1-7.1c-1-6.8,0.8-15.7,4-27.2c2-7.3,6.7-22.1,18.2-36
	c4.6-5.5,10.6-7.5,14-10.2c5.4-4.3,8.8-4.7,10.4-3.6c2.2,1.4-0.3,24.5-8.4,51.6c-2.9,9.8-3.9,14-7.2,19.6c-4.8,8.1-11,14-11,14
	s2,1,5.5,3.1c3.8,2.3,5.9,5,8.8,8.8c1.5,2,4.2,4.8,5.7,9.2c1.7,5.2,1.3,6.5,3.9,11.6c0.8,1.7,2.6,5.1,5.8,8.6
	c2.3,2.4,3.3,2.7,5.6,5.5c2.5,3,3.9,7,3.3,7.5c-0.6,0.6-4.5-3.1-4.5-3.1s1.4,1.7,1.7,4.1c0.3,1.9-0.3,4-1,4.1
	c-0.9,0.1-2.4-3.3-2.4-3.3s0.2,2.3-0.1,5.4c-0.3,3-1.2,5.5-1.6,5.5c-0.5-0.1-0.8-4.1-0.8-4.1s-1.9,2.9-2.9,4.3
	c-3.5,5.5-12.3,11-19,12.3c-1.1,0.2,4.8,5,8.7,4.7c1.6-0.1,2.7-0.3,4.2-0.4c1.7-0.2,5.1,1.5,9,5.2c5,4.7,8.3,8.3,9,11.3
	c0.2,0.7,0.4,1.9,0.7,3.6c0.6,3.3,0.9,5,0.8,6.5c0,1.1,0,3.3-1.3,5.4c-1.2,1.9-6.7,4.6-9.8,5c-4.5,0.5-8.5-5-8.5-5
	c0.9,3,1.7,6.8,1.4,9.2c0,0,3.9,0.8,6.5,1.8c4.4,1.8,8.8,9.2,8.9,15.2c0.2,10.7-9.8,18.9-13,21.2c-7.6,5.7-15.4,7-15,9
	c0.2,0.8,2.6,1.4,7.5,2.5c4.2,0.9,6.3,1.4,9.5,1.7c6,0.6,7.4,0.1,9.1,1.1c3.2,1.9,2.7,10.1,0.8,10.1c-0.5,0,1.1,2.4-2.2,4.6
	c-1.5,1.1-4.6,1.7-4.6,1.7s-2.7,4.1-5.7,4.1c-1.8,0-7.3-1.4-16.4-5.8c-6.8-3.2-8.4-2.8-17.9-7.4c-5.8-2.8-8.7-4.1-8.9-7.3
	c-0.2-2.4,0.4-6,0.4-6s-7.4-0.2-13.1-0.5c-1,0,2.4,4.7,0.8,8.3c-1.2,2.5-4.4,4.4-7.3,5.3c-10.4,3.1-12,5.6-19.2,6.7
	c-4.8,0.7-15.5,0.5-22.5-3.6c-1.5-0.9-8.5-5.5-7.4-11.4c0.7-4,4.2-6.4,4.5-6.5c0.3-0.1,4.9-1.9,7.9-0.7c2.4,1,5.8,2.6,7,2.2
	c6.2-1.9,10.3-1.4,10.6-2.2c0.3-1.3-1.9-2.3-6.6-7.4c-1.7-1.9-5.7-6.3-7.9-12.3c-1-2.6-3.5-9.6-0.9-16.2c1.2-3,3.6-4.2,14-12.9
	c10.5-8.7,15.8-15,15.4-16.5c-0.5-1.9-15.3,1.8-15.3,1.8s0.7,2.3,0.3,2.7c-0.4,0.4-2.7-0.6-2.7-0.6s-0.3,3-0.8,3.1
	c-0.5,0.1-2-2.2-2-2.2s-0.8,3.3-1,3.2c-0.3,0-0.9-3.5-0.9-3.5s-0.7,0.9-1.1,0.9c-0.6-0.1-0.9-3-0.9-3s-0.7,1.7-1.1,1.7
	c-0.6,0-1.3-3.2-1.3-3.2s-0.6,1.3-0.9,1.3c-0.6,0-1.3-3.6-1.3-3.6s-0.9,3.7-1.3,3.7c-0.5,0,0.1-4.5-2.3-6.2
	c-1.7-1.2-4.2-0.8-4.8,0.4c-0.4,0.8,0,1.1,0.3,2.9c0,0,0.4,2.2-0.3,4.5c-1.5,5.3-5.7,6.2-9.5,9.7c-0.3,0.3-0.7,1-0.3,1.6
	c0.4,0.6-3.6,4.4-4.7,3.8c-0.6-0.3-0.5-1.3-0.5-1.3s-5,4.6-6,5.8c-2.8,3-6.2,6.4-13.3,13.1c-3.4,3.2-13.1,12.7-15.3,11
	c-1.2-0.9,0.8-5.4,4.7-14.5c4.6-10.6,7.3-15.6,9.7-19.1c4-5.9,9.1-11.8,9.1-11.8c-0.2-0.4-0.9-1.5-1.6-1.9c-0.5-0.3-2.2,0.1-4.1,0
	c-2.2-0.1-5.1-1.2-5.2-2.5c-0.1-0.7,0.6-1.2,1.3-1.5c1.6-0.7,3.8,0.1,5.2,1.3c0.6,0.5,1.8,1.3,2.7,1.2c0.1,0,0.7-0.1,0.9-0.6
	c0.3-0.6-0.4-1.4-1.1-2.5c-0.9-1.4-1.9-2.8-2.1-4.4c-0.2-1.4,0.2-3.1,1-3.3c0.9-0.2,2.8,1.9,3.1,4.2c0.3,1.8,0.2,3.8,0.2,3.8
	c0.4,0.2,1.1,0.1,1.1-0.1c1-6.5,0.6-23.7,0.2-25.7c-0.2-0.7-1.7,2.8-3.1,2.6c-1-0.1-2-1.8-1.6-2.9c0.6-1.5,3.6-0.8,4.5-2.7
	c0.1-0.1,0.5-1.1,0.2-1.8c-1-2.3-7,0.3-8.6-2.1c-0.9-1.3-0.4-4.1,0.4-4c11.1,1,52.1,11,54.2,11.3C269.5,301.9,268.4,301,267.8,299.1
	z"/>
</svg>
