<?xml version="1.0" encoding="utf-8"?>
<!-- Generator: Adobe Illustrator 26.1.0, SVG Export Plug-In . SVG Version: 6.00 Build 0)  -->
<svg version="1.1" id="Layer_1" xmlns="http://www.w3.org/2000/svg" xmlns:xlink="http://www.w3.org/1999/xlink" x="0px" y="0px"
	 viewBox="0 0 566.9 566.9" style="enable-background:new 0 0 566.9 566.9;" xml:space="preserve">
<style type="text/css">
	.st0{fill:none;stroke:#B24C9D;stroke-miterlimit:10;}
	.st1{fill:none;stroke:#010101;stroke-miterlimit:10;}
</style>
<path class="st0" d="M239.2,342.3c-0.2,0-0.4,0-0.5,0c-1.6-0.1-7.4-0.9-10.3-3l2.3-3.3c2,1.4,6.6,2.2,8.2,2.3
	c7.3,0.3,18.3-7.2,19.5-8.4c0,0-0.1,0.1-0.1,0.1l3.1,2.5C260.4,333.5,248.3,342.3,239.2,342.3z"/>
<path class="st0" d="M227,314.1c-0.1,0-0.2,0-0.3,0c-0.3,0-7.5-0.8-10-2.8l2.5-3.1c0.7,0.6,3.6,1.3,6.5,1.7c0.6-1.6,1.8-4.4,5.9-6.9
	c1.4-0.8,2.4-1.8,3.5-2.8c2.2-2,4.5-4.1,9.5-4.6l0.5,0c2.2-0.2,4.9-0.5,9.3,1.3c3.6,1.4,5.3,2.5,7,3.5c1.5,0.9,2.9,1.7,5.7,2.9
	c5,2.1,9.6,3.2,13.9,3.3l1.5,0c1.3,0,4.1,0.1,4.6,0.1l0.3,4c-0.6,0-2.6,0-5-0.1l-1.4,0c-4.7-0.1-9.9-1.3-15.3-3.6
	c-3.1-1.3-4.7-2.3-6.3-3.2c-1.6-1-3.1-1.9-6.4-3.2c-3.5-1.4-5.4-1.2-7.4-1l-0.5,0c-3.7,0.3-5.2,1.7-7.2,3.5c-1.1,1-2.3,2.2-4.1,3.2
	c-3.3,2-3.9,4-4.3,5.2C229.3,312.4,228.7,314.1,227,314.1z"/>
<path class="st0" d="M259.3,303.8c-1-0.8-3.1-2-5.5-3.4c-5.8-3.3-13.6-7.7-17.3-12.9c-1.2-1.8-2.6-4.3-3.9-6.8
	c-1.2-2.3-2.5-4.7-3.4-6l3.2-2.4c1.2,1.5,2.4,4,3.8,6.6c1.2,2.3,2.5,4.8,3.6,6.3c3.1,4.5,10.6,8.7,16,11.7c2.7,1.5,4.9,2.8,6.1,3.8
	L259.3,303.8z"/>
<path class="st0" d="M219.6,300.8l-3.1-2.5c1.7-2,2.8-6.3,3.7-9.7c0.6-2.1,1.1-3.9,1.6-5.1c1.7-3.5,3.3-6.3,6.5-10.1l3,2.6
	c-3,3.5-4.4,6-6,9.3c-0.4,0.8-0.9,2.6-1.4,4.4C223.1,293.4,221.8,298.2,219.6,300.8z"/>
<path class="st0" d="M291.9,219.2c-2.1-2-9.9-4.9-15.2-5.3c-6-0.4-12,0.1-15.3,0.9l-0.9-3.9c3.4-0.8,9.7-1.5,16.5-1
	c5.9,0.4,14.6,3.6,17.6,6.3L291.9,219.2z"/>
<path class="st0" d="M316.2,247.8c-0.1-1-1.5-4.3-4.2-9.8c-1.7-3.5-6.5-8-8.2-9.3l2.4-3.1c1.7,1.3,7.1,6.3,9.3,10.7
	c2.7,5.5,4.5,9.3,4.6,11.2L316.2,247.8z"/>
<path class="st1" d="M249.1,330.8c-1.8,0.3-3.3,0.2-3.9,0.2l0.9-2.9c0.7,0.1,3.2,0.2,5.4-1.1c1.1-0.7,1.7-1.5,2-2.1l3.6,0.8
	c-0.5,0.9-1.5,2.2-3.4,3.4C252.2,330.1,250.6,330.5,249.1,330.8z"/>
</svg>
