<?xml version="1.0" encoding="utf-8"?>
<!-- Generator: Adobe Illustrator 26.1.0, SVG Export Plug-In . SVG Version: 6.00 Build 0)  -->
<svg version="1.1" id="Layer_1" xmlns="http://www.w3.org/2000/svg" xmlns:xlink="http://www.w3.org/1999/xlink" x="0px" y="0px"
	 viewBox="0 0 566.9 566.9" style="enable-background:new 0 0 566.9 566.9;" xml:space="preserve">
<style type="text/css">
	.st0{fill:none;stroke:#E71B69;stroke-miterlimit:10;}
</style>
<path class="st0" d="M315.6,421c-3,0-18.1-3.3-22.9-8.4c-0.7-0.8-2.7-3-3.6-5.1l-9-0.4c0.2,0.6,0.4,1.4,0.5,2.5
	c0.2,2.3-1.9,5.4-7,6.8c-2.3,0.6-4.4,0.9-6.6,0.9c-3.9,0-8-1-14.1-3.3c-3.4-1.3-5.9-4.5-7-8.7c-0.2-0.6-0.4-1.5,0.2-2.4
	c0.6-0.8,1.4-1,2.3-1c-0.3-0.3-0.6-0.6-1.1-1c-5-4.4-7-7.5-9.8-12.1c-3.4-5.7-5.6-15.8-3-22.2c1.2-3,4.5-5.6,8.9-9
	c3-2.3,6.7-5.2,10.6-8.9c7.5-7.1,9.2-9.6,9.6-10.4c-0.1-0.3-0.3-0.6-0.5-0.9c-0.8-1.6-1.9-3.7-0.7-6.6c2.1-5.2,4-10.3,4-10.3
	l0.7-1.7c-0.6-0.4-1.2-0.8-1.8-1.2c-0.3-0.2-0.7-0.5-1.1-0.7c-0.3,0.9-0.8,2.1-2.2,2.2l-0.1,0c0,0-0.1,0-0.1,0
	c-1.3,0-1.8-0.8-3.1-2.8c-0.4-0.6-1.1-1.6-1.7-2.4c-0.3,0.8-0.8,1.9-2.2,1.9h-0.3l-0.3-0.1c-0.8-0.2-1.4-0.8-3.6-3.4
	c-0.6-0.8-1.3-1.6-1.8-2.1l-0.1-0.1c-0.9-1-2.9-3.1-2.4-6.5c0.1-0.9,0.7-1.6,1.2-2.2c0.7-0.8,1.6-2,2.2-4.2c0.9-3.6,1-6.5-1.1-13.8
	c-3.2-11.4-3.7-16.1-2-22c0.5-1.8,1.3-4.5,2.9-6.7c-5.7-2.4-7.6-3.4-11.7-5.7c-5.4-3.1-9.7-5.6-14.2-10.8c-0.1-0.1-0.3-0.3-0.4-0.5
	c-1.7-1.9-6.4-7-8.2-15.2c-1.7-7.9-1-19.3-0.1-31.4c0.5-7.7,0.6-15.3,0.7-21.5c0.1-14,0.3-18,3.3-18.7c0.2,0,0.4-0.1,0.6-0.1
	c1.3,0,2.3,1,3.7,2.3c1.3,1.2,2.9,2.8,5.1,3.9l0.3,0.2c2.9,1.6,4.8,2.6,6.3,3.9c4.2,3.6,7,11.6,8.4,23.9c1.5,12.6,3.1,18.9,5.7,26.1
	c2.6,7.4,3.4,9.5,7.5,15.6c1.8,2.8,4.9,6.1,6.8,8.1c0.6-1,1.4-2,2.4-2.7c0.4-0.3,0.8-0.5,1.2-0.8c-1.2-0.4-1.8-0.6-2.2-1.5l-0.4-0.8
	l0.4-0.9c0.5-1.1,2.8-4.9,10.2-4.9c1.4,0,2.8,0.1,4.4,0.4c0.1-0.2,0.2-0.3,0.3-0.5c0.4-0.5,0.9-0.7,1.5-0.8c0.1,0,0.2,0,0.3,0
	c1.6,0,4.1,0.8,6.1,3.4c0-0.1,0-0.2,0-0.3c-0.7-8.7,1.2-16.9,5.9-33.5c2.7-9.8,11.4-26.1,19.6-33.9c1.4-1.4,4.1-3,7.5-5
	c1.5-0.9,3.1-1.9,4.7-2.9c4.5-2.9,7.2-4,9.3-4c0.5,0,1.1,0.1,1.6,0.2c2.9,1,5.1,5.1,1.8,28.5c-2.1,14.6-4,23.9-8.8,34
	c-6.1,12.8-12.1,21.4-15,25.1c2.6,1.4,6.7,4.1,10.3,9.3c0.4,0.6,0.9,1.2,1.4,1.9c2.4,3.2,5.4,7.1,7.3,15.2
	c1.6,6.7,5.1,11.1,6.7,12.6c7.6,6.6,10.8,12.4,10.5,15.1c-0.1,0.8-0.5,1.5-1.2,1.9c-0.4,0.2-0.9,0.4-1.4,0.4c0.1,1.3-0.3,2.9-2,4.5
	l-0.6,0.5l-0.8,0c-0.2,0-0.3,0-0.5,0c-0.4,5-1.5,6.5-2.4,7.2l-0.5,0.4c0,0-0.7,0-0.7,0c-0.8,0-1.3-0.3-1.6-0.8
	c-2.2,3.3-6.9,8.3-17.6,12.3c1,0.6,2.3,1.3,3.6,1.6c0.5,0.1,1,0.2,1.4,0.2c0.4,0,0.8-0.1,1.3-0.2c0.6-0.1,1.4-0.3,2.5-0.3
	c0.7,0,1.4,0.1,2.1,0.2c6.2,1.1,16.3,12.2,18.1,16.9c1.2,3.1,3.2,12.5,0.9,17.1c-1.7,3.3-7.8,6.9-13.4,6.9h-0.1
	c-1.5,0-2.7-0.5-3.8-1.3c0.1,0.5,0.1,1.1,0.1,1.7c1.7,0.5,4.6,1.4,7.5,3.1c5.4,3.1,8.4,12.3,7.7,18.7c-0.7,6.5-5.3,12.7-9.3,16.3
	c-6.8,6.1-11.4,8.1-14.8,9.5c-1,0.4-1.8,0.8-2.5,1.1c3.7,1.7,4.8,4,5.1,5.7c0.4,2.4-0.7,4.7-2,5.9l-0.2,0.2
	c-2.5,2.3-4.1,3.4-9.3,3.4L315.6,421z M279,322.1c2.9,0.8,5.8,1.7,8.1,2.3c3.9,1.2,5.3,1.6,5.1,3.4c-0.7,6.7,1.7,10.6,2.9,11.9
	c1.3-0.7,3.9-2.4,6.6-4.6c0-0.3,0-0.9-0.1-1.3c-0.2-1.8-0.4-4.5,1.3-6.8c0.4-0.6,0.8-1,1.1-1.4c-0.6-0.1-1.3-0.2-1.8-0.3
	c-3.1-0.5-5-0.8-5.2-2.8c-0.1-1.9,1.9-2.5,2.6-2.7c9.6-2.8,15.3-7.6,15.9-13.5c0.4-3.6-1.3-6.3-2-6.9H311l0.8-2.6
	c0-0.2,4.8-16,2.6-24.5c-2.8-10.8-8.3-17.2-12.1-17.2c-0.1,0-0.2,0-0.4,0c-2.9,0.3-4.8,6.2-4.7,14.3c0.2,10.2,6.8,19.2,6.9,19.3
	l2.4,3.2l-4,0c-0.4,0-9.3,0-17.2,1.5l-4.2,0.8l2.1-3.7c0.1-0.1,1.7-3.5-1.5-10c-4.7-9.5-10.1-15.3-14.5-15.6c-0.1,0-0.1,0-0.2,0
	c-3,0-4.9,5.5-5,9.4c-0.1,10.1,1.8,16.6,6.6,22.7c0.7,0.9,4.3,4.1,6.4,5.9l0.9,0.8l-0.3,1.2c-0.1,0.3-1.6,7.2,7.4,13.2l5.3,3.5
	l-6.4,0.1c0,0-0.4,0-1,0c-1.2,0-2.5,0-3.8-0.1C277.8,321.8,278.4,321.9,279,322.1z"/>
<path class="st0" d="M253.2,253.7c-7.8-3.2-9.4-4-14.1-6.7c-5.3-3-9.4-5.4-13.7-10.3c-1.3-1.5-6.3-6.3-8.2-14.8
	c-1.6-7.3-1-17.8-0.1-30.8c1.3-19.4-0.2-37.8,2.4-38.4c1.2-0.3,3.5,3.5,8,6c3,1.6,4.9,2.6,6.3,3.9c3.8,3.3,6.4,11.3,7.8,22.7
	c1.5,13,3.3,19.4,5.8,26.5c2.6,7.3,3.5,9.7,7.7,16c3,4.5,8.9,10.3,8.9,10.3s1.4-3.2,3.1-4.4c1.6-1.2,4.1-2.3,4.1-2.5
	c0.3-1-4.7-1.9-4.5-2.2c0.2-0.5,2.5-5.4,13.9-3.1c1.3,0.3,0.2-1.5,0.8-1.5c1.2-0.1,5.8,1,6.9,8.4c0,0.3,1.9,0.7,1.9-0.1
	c0.3-3.9-0.5-5.3-0.7-7.3c-0.7-8.5,1.4-16.9,5.8-32.8c2.7-9.6,11.3-25.6,19-33c1.8-1.7,6.6-4.3,12-7.7c5.6-3.5,7.8-4,9.2-3.6
	c3.9,1.3,1.2,20.6,0.4,26.4c-2.2,15.4-4.1,24-8.6,33.5c-8.1,17.2-16.3,26.7-16.3,26.7s6.5,2,11.9,9.7c2.6,3.7,6.2,7,8.4,16.3
	c1.7,7,5.3,11.9,7.3,13.6c9.2,8,10.4,13.4,9.6,13.8c-1.1,0.6-2.9-1.3-3.2-0.6c-0.3,0.7,2.2,3.1-0.6,5.7c-0.2,0.2-0.7-0.6-1.2-1.5
	c-0.3-0.6-1.2-0.3-1.2,0.3c0,3-0.3,7.7-1.7,8.7c-0.3,0.2-0.7-3.8-1.3-3.3c-1.2,1.2-2.9,9.8-21.4,15.8c-1.1,0.4,2.7,3.4,6.5,4.4
	c3.4,0.9,3.6-0.7,7.5,0c5.3,0.9,15,11.5,16.6,15.6c1.3,3.5,2.8,11.9,0.9,15.4c-1.4,2.7-7,5.9-11.8,5.9c-3.5,0-5.7-4.4-7.2-5.3
	c0,0,1.6,3.4,1.5,9.3c0,0,4.3,0.8,8.4,3.2c4.8,2.8,7.3,11.2,6.7,16.7c-0.6,5.6-4.6,11.4-8.7,15.1c-10.5,9.5-15.8,8.7-19.1,11.9
	c-1.1,1.1-0.4,0.9,1.3,1.6c7,2.8,5.1,7.4,3.6,8.8c-2.4,2.1-3.4,3.1-8.4,3.1c-2.7,0-17.2-3.3-21.5-7.7c-1.9-1.9-3.5-4.3-3.5-5.7
	l-13.4-0.6c0,1.4,1.2,2,1.4,4.7c0.1,1.5-1.7,3.7-5.5,4.7c-6.5,1.8-11.6,0.7-19.5-2.4c-3.3-1.3-5.1-4.5-5.8-7.4
	c-0.3-1.2-0.2-0.7,3.5-1.2c0.6-0.1,0.9-1.1-2.6-4.2c-4.9-4.2-6.8-7.3-9.4-11.6c-3.1-5.2-5.2-14.7-2.8-20.4
	c1.8-4.4,9.6-8.3,19.1-17.3c7.6-7.2,10.7-11,10.3-12.1c-0.9-2.2-2.4-3.8-1.4-6.5c2.1-5.3,4-10.4,4-10.4c3.5,1.3,21.7,6.1,21.6,6.6
	c-1,9.5,3.8,14.4,4.6,14.3c0.8-0.1,4.9-2.7,8.4-5.5c1.4-1.1-0.9-5.3,1.3-8.3c1.9-2.7,2.5-2.5,2.3-3.5c-0.2-1.4-11.4-1.5-6.6-2.9
	c24.9-7.3,16.6-24.2,13.6-24.2c0,0,5-16.4,2.6-25.6c-3-11.8-9.4-19.3-14.6-18.7c-5,0.6-6.5,9.1-6.4,16.3c0.2,11,7.3,20.5,7.3,20.5
	s-9.3,0-17.6,1.5c0,0,2.4-4.1-1.4-11.9c-3.3-6.6-9.3-16.3-16.2-16.7c-5-0.3-7.2,7-7.3,11.3c-0.1,9,1.2,16.6,7,24
	c1.1,1.4,6.6,6.1,6.6,6.1s-2.2,8.4,8.2,15.4c0,0-8.3,0.2-10.9-1.2c-3.6-1.9-6.6-4.5-7.4-4.3c-0.8,0.2-1.2,2.7-1.6,2.8
	c-0.5,0.1-3.7-6.1-5.3-6.2c-1.4-0.1-1.2,3-1.7,2.9c-0.5-0.2-3-3.4-4.5-5c-0.8-0.9-2.4-2.4-2-5c0.1-1,2.3-2.1,3.3-6.2
	c1.1-4.3,1-7.6-1.1-14.8c-3.1-10.8-3.6-15.4-2-20.9C249.5,259.4,250.5,255.7,253.2,253.7z"/>
</svg>
