<?xml version="1.0" encoding="utf-8"?>
<!-- Generator: Adobe Illustrator 26.1.0, SVG Export Plug-In . SVG Version: 6.00 Build 0)  -->
<svg version="1.1" id="Layer_1" xmlns="http://www.w3.org/2000/svg" xmlns:xlink="http://www.w3.org/1999/xlink" x="0px" y="0px"
	 viewBox="0 0 566.9 566.9" style="enable-background:new 0 0 566.9 566.9;" xml:space="preserve">
<style type="text/css">
	.st0{fill:none;stroke:#E71B69;stroke-miterlimit:10;}
</style>
<path class="st0" d="M315.5,428.9c-3.8,0-21.5-3.4-28.6-10.8c-0.3-0.3-0.5-0.6-0.8-0.8c-2.2,3.1-5.8,5.6-10.4,6.8
	c-3,0.8-5.8,1.2-8.7,1.2c-6.2,0-11.8-1.9-17-3.9c-5.8-2.3-10.1-7.4-11.8-14.1c-0.4-1.6-0.5-3.1-0.3-4.5c-3-3.2-4.9-6.2-7.1-9.9
	c-4.5-7.4-7.2-20.2-3.5-29.3c2-5,6.2-8.2,11.4-12.3c3-2.3,6.4-5,10.1-8.4c2.9-2.7,4.8-4.6,6-6c-0.6-2.4-0.9-5.5,0.6-9.1
	c0.4-0.9,0.7-1.8,1.1-2.7c-0.6-0.5-1.2-1-1.7-1.5h-0.9l-1.4-0.4c-3.2-1-4.9-2.9-7.4-5.9c-0.6-0.7-1.2-1.4-1.6-1.8l-0.1-0.1
	c-3.6-3.9-5.1-8.2-4.5-12.9c0.4-3.2,2.1-5.2,2.9-6.2c0.5-0.6,0.5-0.6,0.7-1.2c0.5-1.8,0.8-3.1-1-9.6c-3.2-11.3-4.3-18.1-2-26.3
	c0-0.2,0.1-0.3,0.1-0.5c-1.6-0.8-3.2-1.7-5.2-2.9c-5.6-3.2-10.9-6.2-16.3-12.4c-0.1-0.1-0.2-0.2-0.3-0.3c-2.1-2.3-7.8-8.5-10.1-18.9
	c-2-9-1.2-21-0.3-33.6c0.5-7.4,0.6-14.6,0.6-21c0-5,0.1-9.2,0.3-12.5c0.3-3.3,0.9-12,9.1-13.8c0.8-0.2,1.6-0.3,2.4-0.3
	c4.5,0,7.3,2.7,9.2,4.4c1.1,1,2.2,2,3.4,2.7l0.3,0.2c3.2,1.7,5.5,3,7.7,4.9c5.8,5,9.4,14.5,11.1,29c1.4,11.9,2.9,17.6,5.3,24.4
	c2,5.7,2.8,7.8,4.9,11.2c2.7-2.3,6.9-4.4,13.4-4.4c0.7,0,1.4,0,2.1,0.1c0.9-0.4,1.9-0.7,3-0.9c0.9-7,3-14.7,5.8-24.6
	c3.1-11,12.5-28.7,21.7-37.5c2.1-2,4.9-3.7,8.9-6.1c1.4-0.9,3-1.8,4.6-2.8c5.2-3.2,9.2-5.2,13.5-5.2c1.4,0,2.8,0.2,4.1,0.7
	c10.9,3.6,9.8,18.3,7.1,37.2c-2.2,15.4-4.2,25.2-9.5,36.3c-3.9,8.3-7.9,15-11.1,19.8c1.9,1.7,3.9,3.9,5.8,6.5
	c0.4,0.5,0.8,1.1,1.2,1.6c2.7,3.6,6.5,8.4,8.8,18.2c1.1,4.8,3.6,7.8,4.2,8.4c5.3,4.6,14.1,13.6,13.1,22c-0.3,2.7-1.6,5.2-3.7,6.9
	c-1,2.3-2.4,3.9-3.4,4.8l0,0c-0.8,3.4-2.3,6.3-5.1,8.3l-2.6,1.8l-1.7,0c-0.2,0.2-0.4,0.4-0.6,0.6c7.5,4.9,14.5,13.6,16.4,18.4
	c1.2,3,4.6,15.6,0.5,23.6c-1.3,2.5-3.4,4.7-6.1,6.6c3.8,5.8,5.5,13.6,4.9,19.8c-1.2,11-9.4,19.1-11.9,21.4
	c-3.9,3.5-7.2,5.8-10.1,7.5c0.2,0.6,0.3,1.1,0.4,1.6c0.9,4.8-0.9,10-4.6,13.2l-0.2,0.2c-3.5,3.1-6.7,5.5-14.6,5.5L315.5,428.9z
	 M283.5,306.4c0,0.6,0.3,2.6,4,5l4.9,3.3c1.2-1,2.7-1.9,4.8-2.5c4.9-1.5,7.9-3.3,9.2-4.8h-6.2l2.2-7.4h0c-0.1,0-8.6,0-15.8,1.3
	l-2,0.4L283.5,306.4z"/>
<path class="st0" d="M253.2,253.7c-7.8-3.2-9.4-4-14.1-6.7c-5.3-3-9.4-5.4-13.7-10.3c-1.3-1.5-6.3-6.3-8.2-14.8
	c-1.6-7.3-1-17.8-0.1-30.8c1.3-19.4-0.2-37.8,2.4-38.4c1.2-0.3,3.5,3.5,8,6c3,1.6,4.9,2.6,6.3,3.9c3.8,3.3,6.4,11.3,7.8,22.7
	c1.5,13,3.3,19.4,5.8,26.5c2.6,7.3,3.5,9.7,7.7,16c3,4.5,8.9,10.3,8.9,10.3s1.4-3.2,3.1-4.4c1.6-1.2,4.1-2.3,4.1-2.5
	c0.3-1-4.7-1.9-4.5-2.2c0.2-0.5,2.5-5.4,13.9-3.1c1.3,0.3,0.2-1.5,0.8-1.5c1.2-0.1,5.8,1,6.9,8.4c0,0.3,1.9,0.7,1.9-0.1
	c0.3-3.9-0.5-5.3-0.7-7.3c-0.7-8.5,1.4-16.9,5.8-32.8c2.7-9.6,11.3-25.6,19-33c1.8-1.7,6.6-4.3,12-7.7c5.6-3.5,7.8-4,9.2-3.6
	c3.9,1.3,1.2,20.6,0.4,26.4c-2.2,15.4-4.1,24-8.6,33.5c-8.1,17.2-16.3,26.7-16.3,26.7s6.5,2,11.9,9.7c2.6,3.7,6.2,7,8.4,16.3
	c1.7,7,5.3,11.9,7.3,13.6c9.2,8,10.4,13.4,9.6,13.8c-1.1,0.6-2.9-1.3-3.2-0.6c-0.3,0.7,2.2,3.1-0.6,5.7c-0.2,0.2-0.7-0.6-1.2-1.5
	c-0.3-0.6-1.2-0.3-1.2,0.3c0,3-0.3,7.7-1.7,8.7c-0.3,0.2-0.7-3.8-1.3-3.3c-1.2,1.2-2.9,9.8-21.4,15.8c-1.1,0.4,2.7,3.4,6.5,4.4
	c3.4,0.9,3.6-0.7,7.5,0c5.3,0.9,15,11.5,16.6,15.6c1.3,3.5,2.8,11.9,0.9,15.4c-1.4,2.7-7,5.9-11.8,5.9c-3.5,0-5.7-4.4-7.2-5.3
	c0,0,1.6,3.4,1.5,9.3c0,0,4.3,0.8,8.4,3.2c4.8,2.8,7.3,11.2,6.7,16.7c-0.6,5.6-4.6,11.4-8.7,15.1c-10.5,9.5-15.8,8.7-19.1,11.9
	c-1.1,1.1-0.4,0.9,1.3,1.6c7,2.8,5.1,7.4,3.6,8.8c-2.4,2.1-3.4,3.1-8.4,3.1c-2.7,0-17.2-3.3-21.5-7.7c-1.9-1.9-3.5-4.3-3.5-5.7
	l-13.4-0.6c0,1.4,1.2,2,1.4,4.7c0.1,1.5-1.7,3.7-5.5,4.7c-6.5,1.8-11.6,0.7-19.5-2.4c-3.3-1.3-5.1-4.5-5.8-7.4
	c-0.3-1.2-0.2-0.7,3.5-1.2c0.6-0.1,0.9-1.1-2.6-4.2c-4.9-4.2-6.8-7.3-9.4-11.6c-3.1-5.2-5.2-14.7-2.8-20.4
	c1.8-4.4,9.6-8.3,19.1-17.3c7.6-7.2,10.7-11,10.3-12.1c-0.9-2.2-2.4-3.8-1.4-6.5c2.1-5.3,4-10.4,4-10.4c3.5,1.3,21.7,6.1,21.6,6.6
	c-1,9.5,3.8,14.4,4.6,14.3c0.8-0.1,4.9-2.7,8.4-5.5c1.4-1.1-0.9-5.3,1.3-8.3c1.9-2.7,2.5-2.5,2.3-3.5c-0.2-1.4-11.4-1.5-6.6-2.9
	c24.9-7.3,16.6-24.2,13.6-24.2c0,0,5-16.4,2.6-25.6c-3-11.8-9.4-19.3-14.6-18.7c-5,0.6-6.5,9.1-6.4,16.3c0.2,11,7.3,20.5,7.3,20.5
	s-9.3,0-17.6,1.5c0,0,2.4-4.1-1.4-11.9c-3.3-6.6-9.3-16.3-16.2-16.7c-5-0.3-7.2,7-7.3,11.3c-0.1,9,1.2,16.6,7,24
	c1.1,1.4,6.6,6.1,6.6,6.1s-2.2,8.4,8.2,15.4c0,0-8.3,0.2-10.9-1.2c-3.6-1.9-6.6-4.5-7.4-4.3c-0.8,0.2-1.2,2.7-1.6,2.8
	c-0.5,0.1-3.7-6.1-5.3-6.2c-1.4-0.1-1.2,3-1.7,2.9c-0.5-0.2-3-3.4-4.5-5c-0.8-0.9-2.4-2.4-2-5c0.1-1,2.3-2.1,3.3-6.2
	c1.1-4.3,1-7.6-1.1-14.8c-3.1-10.8-3.6-15.4-2-20.9C249.5,259.4,250.5,255.7,253.2,253.7z"/>
</svg>
