<?xml version="1.0" encoding="utf-8"?>
<!-- Generator: Adobe Illustrator 26.1.0, SVG Export Plug-In . SVG Version: 6.00 Build 0)  -->
<svg version="1.1" id="Layer_1" xmlns="http://www.w3.org/2000/svg" xmlns:xlink="http://www.w3.org/1999/xlink" x="0px" y="0px"
	 viewBox="0 0 566.9 566.9" style="enable-background:new 0 0 566.9 566.9;" xml:space="preserve">
<style type="text/css">
	.st0{fill:none;stroke:#000000;stroke-miterlimit:10;}
	.st1{fill:none;stroke:#2C2D84;stroke-miterlimit:10;}
	.st2{fill:none;stroke:#5EBB47;stroke-miterlimit:10;}
	.st3{fill:none;stroke:#414EA1;stroke-miterlimit:10;}
	.st4{fill:#931D3F;stroke:#35121B;stroke-miterlimit:10;}
	.st5{fill:none;stroke:#57C7D9;stroke-miterlimit:10;}
	.st6{fill:none;stroke:#DBD622;stroke-miterlimit:10;}
	.st7{fill:none;stroke:#DF1C4D;stroke-miterlimit:10;}
</style>
<path class="st0" d="M314.9,248.4c-4,0-21.1-6.3-32-18.3c-6.7-7.4-7.4-21.8-7.4-27.7c0-9.9,3.8-31,4.9-33.8c0.4-1.2,1.4-2,2.6-2
	c1.3,0,2.3,0.9,2.4,2.3c1.8,13.2,4.9,31.1,8.2,41.7c2.6,8.2,4.5,12.6,11.6,20.6c2.8,3.2,5.2,5.7,7.2,7.7c4.4,4.5,6,6.2,4.9,8.3
	C317,247.7,316.4,248.4,314.9,248.4C314.9,248.4,314.9,248.4,314.9,248.4z"/>
<path class="st0" d="M282.3,169.3c-1,2.7-4.7,23.7-4.7,33.2c0,6.2,0.8,19.6,6.9,26.3c11.5,12.7,30.4,18.9,31.2,17.5
	c0.6-1.2-4-5-11.8-13.7c-7.5-8.4-9.4-13.1-12-21.3c-3.3-10.6-6.4-28.2-8.3-42C283.3,168.3,282.6,168.4,282.3,169.3z"/>
<path class="st0" d="M352,245.2c-0.3,0-0.6-0.1-0.9-0.2c-0.6-0.2-1.4-0.7-1.9-1.9c-2.4-5.8,2.4-29.6,11.5-49.1
	c1.9-4,11.5-24.1,17-24.1c0.4,0,0.7,0.1,1,0.2c2.9,1.1,3.6,5.6-1.1,25.5c-3.1,13.3-8,25.2-14.8,36.4
	C357,241.6,354.8,245.2,352,245.2L352,245.2z"/>
<path class="st0" d="M378.1,171.9c-2.8-1.1-10.8,12.7-15.6,22.9c-10.4,22.3-14.2,47.2-10.8,48.4c1.6,0.6,4.5-4.2,9.4-12.3
	c6.9-11.4,11.6-23.2,14.6-35.8C377,189.9,381,173,378.1,171.9z"/>
<path class="st1" d="M139.9,422.1c-1.2,0-2.5,0-3.8-0.1c-3.4-0.2-11.4-0.7-18-6.5c-3.7-3.2-6.5-8.8-4.4-13.3c2.1-4.5,5.8-7,10.4-7
	c3,0,5,1,6.6,1.8c1,0.5,1.8,0.9,2.5,0.9c0.1,0,0.1,0,0.2,0c1.7-0.1,5.5-1,6.8-1.4l1.9-0.5l0.5,1.9c0.2,0.9,1.1,3.4,2.2,4.6
	c2.6,2.8,7.2,4.1,10.6,4.7c2,0.4,3.9,0.5,5.6,0.5c4.1,0,7.1-1,9.1-2.9c0.3-0.3,0.8-0.8,1.7-0.8h1.8l0.2,1.8c0.2,1.4-1.9,7.4-7.9,8.9
	c-5.7,1.4-9.1,2.9-12,4.3C149.8,420.7,146.6,422.1,139.9,422.1z"/>
<path class="st1" d="M140.7,398.4c0,0-5,1.3-7.2,1.4c-3,0.2-4.7-2.7-9.4-2.6c-5,0-7.4,3.3-8.6,5.8c-1.7,3.6,1,8.4,3.9,11
	c6.1,5.3,13.6,5.8,16.9,6c14.9,1,14.1-3.7,29.3-7.4c4.9-1.2,6.4-6.2,6.4-6.7c-0.1-0.5-3.1,5.6-16.8,3.1c-4.3-0.8-8.9-2.3-11.7-5.2
	C141.7,402,140.7,398.4,140.7,398.4z"/>
<path class="st1" d="M158.4,473.6c-0.2,0-0.4,0-0.6,0c-6.3-0.8-12.7-3.6-26.7-9.7l-1.4-0.6c-1-0.5-2.2-0.9-3.3-1.4
	c-5-2-10.6-4.2-12.9-8.2c-0.5-0.9-1.6-8.2,0.6-9.6c0.4-0.2,0.8-0.4,1.2-0.4c1.4,0,2,1.2,2.3,1.9c1,2,3.9,7.9,21.4,10.9
	c0.8,0.1,1.5,0.2,2.2,0.2c2.8,0,5-0.9,6.5-2.8c0.5-0.6,0.7-1.3,0.6-2.1c-0.2-1.1-1-2.1-2.2-2.8l1.3-3.7c2.7,0.4,5.2,1.1,7.4,1.6
	c2.2,0.6,4.1,1,5.6,1.2c1.9,0.2,3.5,0.2,4.7,0.3c3.1,0.1,4.9,0.2,6.2,1.4c3.4,3.4,3.1,8.4,2.1,10.9c-0.3,0.7-0.6,1.2-1,1.6
	c0,1.3-0.4,2.4-1.1,3.5c-1.7,2.3-4.8,3.3-6.3,3.6C163.8,470.8,161.4,473.6,158.4,473.6C158.4,473.6,158.4,473.6,158.4,473.6z"/>
<path class="st1" d="M115.1,452.7c2.4,4.2,9.9,6.4,15.3,8.8c14.9,6.5,21.3,9.4,27.6,10.2c3,0.4,5.7-4.1,5.7-4.1s7.5-1,6.6-6
	c0-0.2,0-0.5,0.2-0.4c1.1,0.3,3.3-6.1-0.6-9.9c-1.1-1-4-0.6-9.7-1.1c-3.1-0.3-7.7-1.9-13.2-2.8c3.2,1.9,4.2,5.4,2.1,7.9
	c-2.6,3.1-6.5,3.9-10.6,3.2c-23.2-3.9-22.4-13.3-23.5-12.6C114.4,446.1,114.6,451.8,115.1,452.7z"/>
<path class="st2" d="M108.8,356.3c-3.7,0-9.1-0.8-14.3-4.4c-10.8-7.5-10.8-20.6-10.8-21.2c0.1-9.2,5-18.6,6.8-20.6l1.7-1.8l1.4,2
	c0.1,0.2,0.3,0.5,0.5,0.7c0.9,1.4,2.9,4.4,4.7,5c2.2,0.9,4.6,1.3,6.9,1.3c4.3,0,8.1-1.5,10.7-4.3c1.3-1.4,2-2.8,2.8-4.3
	c1-2.1,2.2-4.4,5.3-6.9c0.4-0.3,3.7-2.8,8-2.9l0.5,0c3.5,0,7.8,0.4,10,3.2c5.1,6.4,0.7,22.3-1.2,27.3c-4.4,11.4-11.5,17.8-16.7,21.2
	c-3.1,2-7.8,5-14.5,5.5C110.1,356.3,109.6,356.3,108.8,356.3z"/>
<path class="st2" d="M92,311.6c-1.4,1.5-6.2,10.3-6.3,19.2c0,0.8,0.1,12.7,9.9,19.5c6.3,4.4,13,4.1,14.7,4c6.1-0.4,10.3-3,13.6-5.1
	c10.6-6.9,14.7-17.1,15.9-20.2c2-5.3,5.8-19.9,1.5-25.3c-1.6-2-5-2.5-8.9-2.5c-3,0-5.7,1.6-6.8,2.5c-4.8,3.8-4.3,7.1-7.8,10.9
	c-4.8,5.2-12.7,6.3-19.8,3.5C95.4,317,93,313,92,311.6z"/>
<path class="st2" d="M291.5,285.7c-0.6,0-1.2-0.1-1.8-0.3l-0.2-0.1c-1.2-0.3-4.3-1-6.8-3.2c-0.6-0.5-2.1-2.7-1.9-4.6
	c0.1-1.1,0.7-1.9,1.6-2.5c2.8-1.6,7.3-3.3,11.7-3.3c0.6,0,1.2,0,1.8,0.1c1.6,0.2,2.5,1,2.9,1.6c0.6,0.9,0.8,2.1,0.5,3.4
	c-0.7,2.7-1.9,6-4.7,7.8C293.5,285.4,292.5,285.7,291.5,285.7z"/>
<path class="st2" d="M284,280.7c-0.3-0.3-2.2-3-0.6-3.9c2.8-1.6,7.8-3.5,12.3-2.9c1.6,0.2,2,1.3,1.7,2.6c-0.7,2.8-1.7,5.3-3.8,6.6
	c-1.4,0.9-2.1,0.8-3.4,0.5C289.3,283.3,286.3,282.7,284,280.7z"/>
<path class="st2" d="M375.5,58c-1.2,0-2.4-0.4-3.4-1.3c-1.7-1.4-2.2-2.9-2.6-7c-0.5-6,2.2-7.3,3.9-7.6c0.4-0.1,0.7-0.1,1.1-0.1
	c2.4,0,4.3,1.3,4.9,3.4c0.8,2.9,1.1,5.1,1.2,6.5c0.1,1.7,0,3.9-2.5,5.4C377.3,57.8,376.4,58,375.5,58z"/>
<path class="st2" d="M371.5,49.5c-0.3-3.4,0.5-5.2,2.2-5.4c1.7-0.3,3.3,0.4,3.7,1.9c0.8,2.8,1,4.9,1.1,6.1c0.1,1.5-0.1,2.7-1.5,3.6
	c-1.2,0.7-2.5,0.5-3.6-0.4C372.3,54.3,371.9,53.4,371.5,49.5z"/>
<path class="st2" d="M345.7,324.6c-0.5,0-1,0-1.4-0.2c-2.6-1.1-2.9-4-2.1-6.4c0.6-1.9,2.8-2.6,4.8-3c0.5-0.1,1-0.2,1.6-0.2
	c1.9,0,3.6,0.8,4.2,1.5c1.6,2,1.6,4.9,0.9,6.1C352.6,324.5,346.8,324.6,345.7,324.6z"/>
<path class="st2" d="M344,318.7c0.2-0.7,1.2-1.2,3.3-1.7c2.2-0.4,3.7,0.5,3.8,0.6c1.1,1.4,1,3.5,0.7,4c-0.3,0.6-6.2,1.2-6.7,0.9
	C343.1,321.7,343.9,319,344,318.7z"/>
<path class="st2" d="M357.8,291.1c-3.3,0-11.4-4.7-11.9-6.8c-0.2-1,0.3-1.8,0.7-2.4c1.1-1.5,4.3-4.6,8.8-5.3
	c0.8-0.1,1.7-0.2,2.6-0.2c1.4,0,2.8,0.2,4,0.3c1.3,0.1,2.5,0.3,3.7,0.3c1.2,0,2.1,0.9,2.1,2.1c0,2.3-5.2,11.9-10,12L357.8,291.1z"/>
<path class="st2" d="M347.9,283.9c-0.1-0.7,3.2-4.6,7.9-5.4c3.6-0.6,6.6,0.4,10.1,0.4c1,0-4.2,10.1-8,10.2
	C354.7,289.2,348,284.5,347.9,283.9z"/>
<path class="st3" d="M468.9,471.2c-0.3-0.6-0.6-1.3-0.9-2c-0.6-1.5-1.3-3.2-3-5.4c-1.4-1.7-2.3-2.7-3.3-3.7
	c-0.6-0.6-1.1-1.2-1.8-1.9c-1.6-1.8-0.1-6.1,1-7.3c1.2-1.4,4.3-4.8,7.1-5.7c1.3-0.4,2.6-0.9,4.1-0.9c1.4,0,2.8,0.4,4.1,1.2
	c1.8,1,2.8,2.7,3.5,3.8c0.1,0.2,0.3,0.4,0.4,0.6c0.1,0.2,0.2,0.3,0.4,0.5c0.9,1.2,2.3,3.1,2.3,5.9c-0.1,3.5-1.1,5.9-1.9,7.3
	c-1.5,2.5-7.8,7.2-9,8.2l-1.8,1.4L468.9,471.2z"/>
<path class="st3" d="M462.5,452.2c1.3-1.5,4.1-4.4,6.2-5.1c2.3-0.8,4.1-1.3,6.6,0.2c1.7,1,2.6,2.8,3.3,3.8c0.8,1.2,2.3,2.7,2.3,5.2
	c0,0.6,0,3.6-1.7,6.3c-1.4,2.3-8.5,7.6-8.5,7.6c-1-1.8-1.4-4.3-4.1-7.7c-2.3-2.9-3.5-3.8-5.1-5.6
	C460.8,456.2,461.7,453.1,462.5,452.2z"/>
<path class="st4" d="M352,456.3c-0.3,0-0.6,0-0.8-0.1c-1.1-0.2-2.1-0.8-2.7-1.9c-0.7-1.1-0.8-2.5-0.4-3.8c0.6-1.7,1.9-2.7,3.7-2.7
	c0.5,0,1,0.1,1.5,0.2c3.1,0.8,3,3.1,3,4.4C356.1,454.8,354.4,456.3,352,456.3L352,456.3z"/>
<path class="st4" d="M352.7,450c-1.7-0.4-2.4,0.1-2.8,1.2c-0.4,1.2,0.2,2.8,1.5,3c1.4,0.2,2.7-0.4,2.8-1.8
	C354.3,451.2,354.3,450.5,352.7,450z"/>
<path class="st2" d="M374,14.5c-4.8,0-6.5-5-7.4-12.4c-1-7.7,1.6-13.8,6.2-14.5c0.3,0,0.5-0.1,0.8-0.1c4.4,0,8.3,5.1,9.4,12.1
	c1,6.6,0.7,10.1-0.8,12.2c-1.3,1.8-3.2,2-4.8,2.2l-0.6,0.1l-0.6,0.1C375.5,14.4,374.8,14.5,374,14.5z"/>
<path class="st2" d="M381-0.1c1.8,12.1-1.1,11.7-4.5,12.3s-6.4,1.8-7.9-10.4c-0.8-6.3,1.1-11.7,4.5-12.3S380.1-6.3,381-0.1z"/>
<path class="st2" d="M332.4,63.7c-2.9,0-4.2-1.8-5-3.3c-0.6-1.3-1.6-3.3-2.4-6.1c-0.7-2.4,0.7-4.8,3.3-5.9c0.5-0.2,1.1-0.3,1.6-0.3
	c2.2,0,4,1.6,5.6,4.8c1.9,3.7,2.2,5.3,1.5,7.4C336.4,62.4,334.6,63.7,332.4,63.7L332.4,63.7z"/>
<path class="st2" d="M333.9,53.7c-1.5-3.1-3.2-4.1-4.7-3.5c-1.6,0.7-2.6,2-2.2,3.5c0.8,2.8,1.7,4.7,2.2,5.8c0.7,1.3,1.5,2.2,3.2,2.2
	c1.4,0,2.4-0.9,2.8-2.2C335.7,58.2,335.7,57.2,333.9,53.7z"/>
<path class="st2" d="M324.3,14.2c-3.2,0-5.7-2.9-8.9-10.3c-1.3-3.1-1.9-6.4-1.6-9.2c0.3-3.2,1.7-5.5,4-6.5c0.7-0.3,1.4-0.4,2.2-0.4
	c3.9,0,8.1,3.7,10.7,9.5c2.7,5.9,3.4,9.5,2.4,11.9c-0.8,2.1-2.7,2.9-4.2,3.5l-0.5,0.2l-0.5,0.2C326.6,13.7,325.6,14.2,324.3,14.2z"
	/>
<path class="st2" d="M317.2,3.1c4.8,11.3,7.1,9.4,10.3,8.1c3.2-1.4,6.3-1.8,1.3-13c-2.6-5.8-7.1-9.4-10.3-8.1
	C315.3-8.5,314.7-2.7,317.2,3.1z"/>
<path class="st5" d="M383.3,146.2c-1.6,0-3.1-0.6-4.6-1.2c-0.8-0.3-1.5-0.6-2.2-0.8c-3.3-0.9-5.6-1.2-6.7-1.3c-0.5,0-0.8-0.1-1-0.1
	l-0.2-0.1l-0.2-0.1c-0.2-0.1-2.4-1.4-5.3-4.9c-3.6-4.2-3.7-8.8-3.6-11c-2.2-1.8-7.6-6.5-10.3-12.6c-3.9-9-5.2-25.3,1.7-30.3
	c1.4-1,2.9-1.5,4.4-1.5c4.1,0,8.5,3.5,13.9,11c5.7,8,6.5,13.9,6.2,17.3c2.9-0.4,7.5-1,11.2-1.2c-3.1-5.3-7.9-16.2-4-29.7
	c1.8-6.3,5.4-7.2,7.3-7.2c1.9,0,4.1,0.9,6.3,2.6c10.2,7.8,13,23.9,7.6,43.1c2.3,2,6.3,7.3,1.3,16.1c-3.9,6.9-12.8,9.5-20,11.6
	C384.4,146.1,383.8,146.2,383.3,146.2z"/>
<path class="st5" d="M350.9,113.3c-4-9.3-4.5-23.9,1-27.9c4-2.9,8.9-0.3,15.6,9c8.6,12,5.2,18.6,5.2,18.6s13-2.2,17.6-1.5
	c0,0-11.1-13.4-6-31.2c1.6-5.6,5-7.8,10.5-3.6c11.1,8.5,11.3,26.2,6.5,42.3c0,0,7.5,4.4,1.8,14.4c-3.5,6.2-12.2,8.7-18.9,10.7
	c-2.2,0.7-4.7-1.1-7.2-1.8c-4.6-1.3-7.3-1.3-7.8-1.4c0,0-2-1.1-4.8-4.4c-4.3-5-2.9-10.6-2.9-10.6S354.1,120.6,350.9,113.3z"/>
<path class="st2" d="M290.3,322c-0.5,0-1,0-1.4-0.2c-2.6-1.1-2.9-4-2.1-6.4c0.6-1.9,2.8-2.6,4.8-3c0.5-0.1,1-0.2,1.6-0.2
	c1.9,0,3.6,0.8,4.2,1.5c1.6,2,1.6,4.9,0.9,6.1C297.2,321.9,291.4,322,290.3,322z"/>
<path class="st2" d="M288.6,316c0.2-0.7,1.2-1.2,3.3-1.7c2.2-0.4,3.7,0.5,3.8,0.6c1.1,1.4,1,3.5,0.7,4c-0.3,0.6-6.2,1.2-6.7,0.9
	C287.7,319.1,288.5,316.3,288.6,316z"/>
<path class="st6" d="M294.9,319.8h-4c0-1.4-0.2-3.9-0.5-5l3.9-0.9C294.7,315.5,294.9,318.3,294.9,319.8z"/>
<path class="st6" d="M292.4,314.3c0.3,1.3,0.5,3.9,0.5,5.4"/>
<path class="st6" d="M413,416.5c-0.3,0-0.7-0.1-1-0.2c-10-4.7-16.5-6.8-38-13.6l-8.8-2.8c-2.5-0.8-4.9-1.5-7.4-2.2
	c-6.1-1.8-13.1-3.7-24.7-8.2c-2.3-0.9-4.5-1.3-6.5-1.3c-1.6,0-2.4,0.3-2.4,0.3l-0.7-1.2c-0.2,0.1-0.3,0.2-0.5,0.3l-4.7,3.6l1.1-4.2
	c-0.2,0.1-0.5,0.2-0.7,0.4l-3.4,1.9l0.1-1.3l-3.7,2.7l0.4-3.1l-6.5,6l2.2-7c0.3-1.1,0.7-2.3,0.8-3.1c-0.7-0.2-1.8-0.5-3.4-0.9
	c-5.7-1.3-15.9-4.2-22.6-6.2c-2.5-0.7-4.5-1.3-5.6-1.6c-2.3-0.6-4.8-0.9-7.1-1.2l-1.5-0.2c-0.7-0.1-1.7-0.6-2.4-1.6
	c-0.6-0.9-1.2-2.4-0.7-4.9c0.3-1.3,1.5-2.3,2.9-2.3c0.2,0,0.4,0,0.6,0.1c31.7,6.1,44,9,49.9,10.3c2,0.5,3.2,0.8,4.3,0.9
	c1,0.2,1.6,1,3,2.8c0.2,0.2,0.4,0.5,0.6,0.8c0.3-0.5,0.9-0.9,1.7-1.2c0.2-0.1,0.5-0.1,0.8-0.1c2.2,0,3.7,2.3,4.9,4.4
	c0.4-0.5,1.1-1,2.1-1c0.6,0,1.1,0.2,1.7,0.5c1.1,0.7,2.1,1.3,2.9,1.9c2.8,2,4.6,3.1,11.8,3.1c0.3,0,1.2,0,1.2,0c4,0,9,1.4,21.8,5.6
	l9.8,3.2c29.5,9.6,29.5,9.6,30.2,11c0.9,2.1,0.4,6.8-0.6,8.4C414.5,416.1,413.8,416.5,413,416.5z"/>
<path class="st6" d="M267.3,367.2c0.1-0.5,0.7-0.9,1.2-0.8c42.3,8.1,50,10.5,54.2,11.3c0.6,0.1,3.7,5.3,4.8,5.3
	c1.1,0-0.1-2.4,1.4-2.8c2-0.5,4.2,5.5,5.2,5.9c1.5,0.6,0.6-3.6,2.7-2.3c5.2,3.1,5.7,5.4,16.6,5.3c3.8-0.1,8.8,1.4,21.4,5.5
	c30.6,9.9,38.4,12.4,38.8,13.1c0.8,1.8,0.1,7.2-0.9,6.8c-11.3-5.4-18.2-7.3-47-16.5c-8.7-2.8-15.7-4.1-32-10.4
	c-6.5-2.5-10.3-1.1-10.3-1.1s2.1-1.9,1.4-2c-1.1-0.1-3.1,1.5-3.1,1.5s0.5-1.9,0.2-2c-0.7-0.3-4.1,1.6-4.1,1.6s0.3-2.9-0.1-2.4
	c-1.2,1.6-3.3,3.1-3.3,3.1s0.2-1.4,0.3-2.5c0.1-0.5-0.5-0.8-0.9-0.5l-4,3.7c0,0,1.5-4.7,1-4.9c-1.1-0.7-3.4-1.2-5-1.6
	c-7.8-1.7-24.2-6.7-28.2-7.8c-3-0.8-6-1.1-8.9-1.4C268.5,371.3,266.6,370.5,267.3,367.2z"/>
<path class="st2" d="M302.3,496.1c-1.2,0-2.1-0.8-2.3-1.9c-1.1-6.8-4.1-9.8-9.1-14.8l-1.1-1.1c-0.5-0.5-1.1-1.1-1.4-1.3
	c-0.8,0.1-1.7,0.1-2.5,0.1c-3.6,0-6.5-0.9-7.9-2.6c-0.6-0.7-0.8-1.7-0.6-2.6c0.1-0.6,0.6-1.8,2.2-2.5c0.8-0.4,1.6-0.5,2.4-0.5
	c1.5,0,2.8,0.6,3.9,1.2c-1.4-2.3-2.7-5.6-0.2-8.6c0.4-0.5,1.1-0.8,1.8-0.8c0.9,0,1.8,0.5,2.6,1.3c0-1.5,0-2.8,0.1-3.9
	c0-2.6,0.1-3.9,0.1-4.5c0-0.5,0.1-2.6,0-4.5c-0.4,0.2-0.9,0.4-1.5,0.4c-1.4,0-2.6-0.9-3.5-2.7c-0.6-1.1-0.6-2.1-0.2-3
	c0.6-1.5,2.1-1.9,3.3-2.3c0.5-0.1,1.3-0.4,1.5-0.6c0-0.4,0.1-1.1,0.1-1.8c0.2-3.4,0.4-5.8,2.7-5.8h0.2l0.2,0
	c0.5,0.1,0.9,0.2,1.4,0.2c1,0.2,1.9,0.3,2.7,0.6c1.3,0.5,1.4,1.7,1.5,3.5c0.1,1,0.2,2.9,0.5,3.7c0.3,0.3,1.3,0.8,2,1.1
	c1.9,1,3.5,1.8,3.6,3.4c0.1,1.4-0.8,2.3-1.8,3.3c-0.3,0.3-0.7,0.7-1.2,1.1c-0.5,0.5-1.1,0.7-1.8,0.7c-0.6,0-1.1-0.2-1.6-0.5
	c0.3,6.2,0.7,15.7,0.6,24.1c2.1,1.8,7.9,7.4,9.3,14.6c0.2,1-0.2,2.2-1.3,3.5C307,493,304.5,496.1,302.3,496.1
	C302.3,496.1,302.3,496.1,302.3,496.1z"/>
<path class="st2" d="M300.4,449c1.5-1.6,2.5-2.2,2.4-2.8c-0.1-1.1-4.7-2.5-5.4-3.8c-0.8-1.8-0.6-6.2-1-6.3c-0.8-0.3-2.3-0.4-3.7-0.7
	c-0.7-0.1-0.7,4.3-0.9,5.9c-0.4,2.9-6.3,1.5-4.7,4.7c2.2,4.3,4.1-1.6,4.7-1c0.6,0.6,0.5,8.2,0.4,8.8c-0.1,1.5-0.1,14.9-0.6,16.9
	c-0.1,0.2-1.1,0.4-1.1,0.1c0.5-6.1-2.7-8.7-3.4-7.9c-3.4,4,3.7,9.3,2.1,10.4c-2.3,1.5-5.2-3.7-9-2c-1.3,0.6-1.2,1.6-0.9,2
	c1.4,1.6,5,2.3,8.9,1.8c0.9-0.1,1.6,0.6,3,2c5.5,5.6,9.3,8.9,10.5,16.8c0.2,1.4,4.8-2.6,4.6-4.1c-1.5-8-9.3-14-9.3-14
	c0.1-12.1-0.7-27.3-0.9-30.6C296.2,443.8,299.3,450.2,300.4,449z"/>
<path class="st3" d="M388.7,485.6c-0.6,0-1.1-0.1-1.5-0.4c-0.5-0.3-1.1-1-1.2-2.3c-0.5-6.2,14.8-37.5,25-46.6l0.6-0.5l0.8,0
	c2.3,0,8.4,7.7,9.9,10.1c2.5,3.8,3.2,6.7,2.2,8.8c-0.7,1.5-10.5,11.1-15.8,16C392.8,485.6,389.9,485.6,388.7,485.6z"/>
<path class="st3" d="M388.2,483.5c-2.8-1.8,13.3-36.2,24-45.6c0.5-0.4,12.4,11.5,10.4,16.1C421.9,455.5,391.7,485.7,388.2,483.5z"/>
<path class="st7" d="M391.8,579.5c-1.2-0.1-1.6-0.6-2.1-2.5l-0.1,0c-0.7-0.1-1.2-0.5-1.6-1.2h-0.1l-0.2,0c-0.9-0.1-1.5-0.7-2-1.9
	l0,0c-0.4,0-0.7-0.2-1-0.4c-0.4,0.3-0.8,0.4-1.3,0.4c-2,0-2.2-1.9-2.4-3.3c-0.1-0.7-0.4-2.7-0.8-3.1c-0.2-0.2-0.9-0.4-1.6-0.4
	c-0.5,0-0.7,0.1-0.8,0.1c-0.3,0.7-1.1,1.2-1.9,1.2c-1.4,0-2.2-1.1-4.3-4.5c-0.2-0.4-0.5-0.9-0.7-1.1l-0.6-0.5l0-1.1
	c0.1-1.2,1-1.8,2.3-2.5c0.9-0.5,3-1.7,3.3-2.5c0-0.1,0-0.2-0.1-0.4c-0.1-0.5-0.3-1.4-0.3-2.7c0-2.7,1.6-6.7,4.1-6.9l0.2,0
	c0.7,0,1.4,0.3,1.9,0.9c0.2-0.3,0.5-0.6,0.7-1c0.4-0.6,1.9-2.5,3.5-2.5h0.5l0.5,0.2c0.4,0.2,0.6,0.4,0.8,0.7c0.7-0.6,1.2-1,2-1h0.5
	l0.5,0.3c0.3,0.2,0.5,0.3,0.7,0.6c0.4-0.5,0.9-0.9,1.8-0.9h0.4l0.4,0.1c0.6,0.2,1,0.7,1.2,1.2c0.8-0.4,1.4-0.6,2.1-0.6
	c0.5,0,0.9,0.1,1.2,0.3c0.3,0.2,0.5,0.4,0.6,0.6c0.8-0.3,1-0.3,1.3-0.3h1l0.6,0.8c0.4,0.5,0.5,0.9,0.4,1.4c1.8,0.2,3.4,0.9,3.4,2.7
	c0,1-0.8,1.8-1.8,2.3c0,0.1,0,0.3,0,0.5c-0.1,1.2-0.7,1.7-2.8,2.1c0,0.2,0,0.4-0.1,0.7c-0.1,0.5-0.4,0.8-0.7,1.1
	c0,0.2-0.1,0.5-0.1,0.7c-0.4,1.2-1.5,1.4-2.4,1.4c0.1,0.6,0,1-0.1,1.2c0,0.1-0.1,0.3-0.2,0.4c0.2,0.2,0.3,0.4,0.4,0.7
	c0.1,0.4,0.1,0.8,0,1.1c1.7,1,2.4,1.6,2.3,2.8c0,0.3-0.1,0.5-0.2,0.7c1.3,1.5,1.5,2.3,1.2,3.2c0,0.1-0.1,0.1-0.1,0.2
	c1.4,1.1,1.9,2.1,1.4,3.3c-0.3,0.7-0.9,1-1.6,1.2c0.1,1.3-0.1,2-0.7,2.6c-0.3,0.2-0.8,0.5-1.5,0.5c-0.3,0-0.6,0-0.9-0.1
	c-0.4,1.6-0.9,2.3-1.9,2.5l-0.2,0.1l-0.3,0c-0.4,0-0.8-0.1-1.3-0.4c-0.5,0.9-0.9,1.2-1.8,1.2L391.8,579.5L391.8,579.5z"/>
<path class="st7" d="M372.1,561.4c-0.6-0.4,4.5-2.1,5.4-4.6c0.4-1.1-0.3-1.5-0.2-3.8c0-2.3,1.4-4.9,2.2-4.9c0.8-0.1,1.6,2.6,1.6,2.6
	s1-1.1,2.7-3.5c0.5-0.7,1.7-1.8,1.9-1.6c0.4,0.2-0.9,4-0.9,4s0.7-0.3,2.8-2.3c1.4-1.4,1.8-1.8,2-1.7c0.5,0.3,0.1,3,0.1,3
	s1.8-1,2.7-2.3c0.3-0.4,0.5-0.8,0.7-0.8c0.3,0.1,0.1,2.4,0.1,2.4s2.3-1,2.5-1.1c0.9-0.5,1.5-0.7,1.7-0.5c0.3,0.2,0,1.8,0,1.8
	s2.8-1.4,3-1.3c0.1,0.1-1.4,2-1.4,2s4.8-0.1,4.8,0.8c0,0.4-2.5,1.5-6.3,1.5c0,0,4.5,0.7,4.4,1c0,0.3-5.6,1.1-5.6,1.1s2.9,1,2.8,1.4
	c-0.1,0.4-3.8,0.4-3.8,0.4s3,1.1,3,1.3c-0.1,0.2-4.7,0-4.7,0s2.4,1.8,2.1,2.6c-0.4,1.1-6.9-0.1-6.9-0.1s4.7,0.9,5.5,1.5
	c0.4,0.3-1.8,0.7-1.8,0.7s3.3-0.1,3.4,0.2c0.1,0.2-1.1,1.2-1.1,1.2s3.3,1.7,3.3,1.9c0,0.2-1.4,0.5-1.4,0.5s2.7,2.4,2.5,2.9
	c-0.1,0.4-2.1,0.6-2.1,0.6s3.6,2.4,3.4,2.7c-0.1,0.2-2.2,0.2-2.2,0.2s0.7,2.6,0.4,2.9c-0.3,0.2-2.7-0.6-2.7-0.6s-0.4,3-0.8,3.1
	c-0.5,0.1-2-2.2-2-2.2s-1.1,3-1.2,3c-0.1,0-0.8-3.6-0.8-3.6s-0.7,1.1-1.2,1c-0.6-0.1-0.8-2.9-0.8-2.9s-0.7,1.7-1.1,1.7
	c-0.6-0.1-1.3-3.2-1.3-3.2s-0.5,1.4-0.9,1.3c-0.6-0.1-1.3-4.1-1.3-4.1s-0.6,4.1-1.2,4.1c-0.6,0-0.3-4.7-2.1-6
	c-1.4-1-4.6-1.3-5.4,0.5C375.5,567.2,372.5,561.7,372.1,561.4z"/>
</svg>
