<?xml version="1.0" encoding="utf-8"?>
<!-- Generator: Adobe Illustrator 26.1.0, SVG Export Plug-In . SVG Version: 6.00 Build 0)  -->
<svg version="1.1" id="Layer_1" xmlns="http://www.w3.org/2000/svg" xmlns:xlink="http://www.w3.org/1999/xlink" x="0px" y="0px"
	 viewBox="0 0 566.9 566.9" style="enable-background:new 0 0 566.9 566.9;" xml:space="preserve">
<style type="text/css">
	.st0{fill:none;stroke:#000000;stroke-miterlimit:10;}
	.st1{fill:none;stroke:#2C2D84;stroke-miterlimit:10;}
	.st2{fill:none;stroke:#5EBB47;stroke-miterlimit:10;}
	.st3{fill:none;stroke:#414EA1;stroke-miterlimit:10;}
	.st4{fill:#931D3F;stroke:#35121B;stroke-miterlimit:10;}
	.st5{fill:none;stroke:#57C7D9;stroke-miterlimit:10;}
	.st6{fill:none;stroke:#DBD622;stroke-miterlimit:10;}
	.st7{fill:none;stroke:#DF1C4D;stroke-miterlimit:10;}
</style>
<path class="st0" d="M343.5,257.4c-7.5,0-26.5-8.3-37.9-20.9c-8.2-9.1-9.5-24.6-9.4-33c0-10,3.8-32.1,5.3-36.5
	c1.5-4.4,5.6-7.3,10.1-7.3c5.3,0,9.6,3.9,10.3,9.2c1.7,12.9,4.7,30.3,7.9,40.4c2.2,7.1,3.5,10.5,9.9,17.7c2.7,3.1,5.1,5.5,7,7.5
	c4.9,5.1,10,10.4,6.2,17.5C351.1,255.4,347.6,257.4,343.5,257.4C343.5,257.4,343.5,257.4,343.5,257.4z"/>
<path class="st0" d="M310.8,170.3c-1,2.7-4.7,23.7-4.7,33.2c0,6.2,0.8,19.6,6.9,26.3c11.5,12.7,30.4,18.9,31.2,17.5
	c0.6-1.2-4-5-11.8-13.7c-7.5-8.4-9.4-13.1-12-21.3c-3.3-10.6-6.4-28.2-8.3-42C311.9,169.4,311.1,169.5,310.8,170.3z"/>
<path class="st0" d="M380.6,254.2c-1.2,0-2.4-0.2-3.5-0.6c-3-1-5.3-3.3-6.6-6.4c-4.4-10.5,3.9-39,11.7-55.6
	c2.6-5.6,5.9-11.7,8.8-16.3c4.9-7.6,9.1-12.4,15.4-12.4c1.3,0,2.6,0.2,3.9,0.7c11,4.2,7.5,19,3.8,34.7c-3.3,14.1-8.5,26.8-15.8,38.7
	C391.1,248.8,387.8,254.2,380.6,254.2C380.6,254.2,380.6,254.2,380.6,254.2z"/>
<path class="st0" d="M406.7,173c-2.8-1.1-10.8,12.7-15.6,22.9c-10.4,22.3-14.2,47.2-10.8,48.4c1.6,0.6,4.5-4.2,9.4-12.3
	c6.9-11.4,11.6-23.2,14.6-35.8C405.6,190.9,409.6,174.1,406.7,173z"/>
<path class="st1" d="M168.4,431.1c-1.3,0-2.8-0.1-4.4-0.2c-3.8-0.2-14-0.9-22.7-8.4c-5.8-5-10.3-14.3-6.4-22.7
	c3.4-7.3,9.8-11.5,17.6-11.6l0.1,0c4.6,0,7.8,1.5,9.8,2.5c1.2-0.2,2.8-0.6,4.3-1l9.4-2.4l2.6,9.4c0.1,0.4,0.4,1,0.5,1.4
	c0.7,0.6,2.6,1.5,6,2.1c1.6,0.3,3,0.4,4.3,0.4c2.1,0,3.2-0.4,3.5-0.6l0.1-0.1c2.1-2,4.5-3.1,7.2-3.1h8.8l1.1,8.8
	c0.7,5.7-4.3,15.2-13.9,17.5c-5,1.2-7.9,2.5-10.6,3.8C181.4,429.1,176.9,431.1,168.4,431.1z"/>
<path class="st1" d="M169.2,399.5c0,0-5,1.3-7.2,1.4c-3,0.2-4.7-2.7-9.4-2.6c-5,0-7.4,3.3-8.6,5.8c-1.7,3.6,1,8.4,3.9,11
	c6.1,5.3,13.6,5.8,16.9,6c14.9,1,14.1-3.7,29.3-7.4c4.9-1.2,6.4-6.2,6.4-6.7c-0.1-0.5-3.1,5.6-16.8,3.1c-4.3-0.8-8.9-2.3-11.7-5.2
	C170.2,403.1,169.2,399.5,169.2,399.5z"/>
<path class="st1" d="M186.9,482.6c-0.5,0-1.1,0-1.6-0.1c-7.5-1-14.2-3.9-28.8-10.3l-1.4-0.6c-1-0.4-2-0.8-3.1-1.3
	c-5.8-2.3-13.1-5.3-16.8-11.6c-0.8-1.4-1.7-3.5-1.8-8.4c-0.1-2.6-0.2-8.6,4.9-11.9c1.6-1.1,3.5-1.6,5.5-1.6c2.4,0,6.7,0.8,9.4,6.3
	c1.3,2.7,7.1,5.1,15.6,6.5c0.3,0.1,0.6,0.1,0.9,0.1c0.4,0,0.6-0.1,0.6-0.1c0,0-0.1,0.1-0.2,0.1c-1,1.2-1.4,2.8-1.2,4.4
	c0.2,1.4,0.9,2.3,1.5,2.7l6.7-18.3c3.1,0.5,5.9,1.2,8.1,1.8c1.6,0.4,3.5,0.9,4.3,0.9c1.7,0.1,3.1,0.2,4.4,0.2
	c3.8,0.1,8,0.3,11.5,3.7c5.8,5.7,6,14.2,3.8,19.6c-0.2,0.5-0.4,1-0.7,1.4c-0.4,1.9-1.2,3.7-2.3,5.3c-2.3,3.2-5.5,4.9-8.2,5.9
	C195.6,479.9,191.9,482.6,186.9,482.6C186.9,482.6,186.9,482.6,186.9,482.6z"/>
<path class="st1" d="M143.7,453.8c2.4,4.2,9.9,6.4,15.3,8.8c14.9,6.5,21.3,9.4,27.6,10.2c3,0.4,5.7-4.1,5.7-4.1s7.5-1,6.6-6
	c0-0.2,0-0.5,0.2-0.4c1.1,0.3,3.3-6.1-0.6-9.9c-1.1-1-4-0.6-9.7-1.1c-3.1-0.3-7.7-1.9-13.2-2.8c3.2,1.9,4.2,5.4,2.1,7.9
	c-2.6,3.1-6.5,3.9-10.6,3.2c-23.2-3.9-22.4-13.3-23.5-12.6C142.9,447.2,143.2,452.9,143.7,453.8z"/>
<path class="st2" d="M137.4,365.4c-4.8,0-12-1-18.9-5.8c-13.9-9.7-14.2-25.9-14.2-27.8c0.1-11.6,5.9-22.6,8.9-25.9l8.4-9l7.1,10.1
	c0.2,0.2,0.4,0.5,0.6,0.9c0.4,0.5,1.1,1.7,1.7,2.3c1.1,0.3,2.2,0.5,3.3,0.5c1.2,0,3.4-0.2,4.8-1.8c0.5-0.6,0.8-1.2,1.5-2.4
	c1.2-2.4,3-6,7.5-9.5c2.8-2.2,7.6-4.5,12.8-4.6l0.6,0c4.8,0,11.8,0.6,16.2,6.2c8.8,11.1,0.9,32.7,0,35.1c-5.1,13.4-13.6,21-19.8,25
	c-3.6,2.3-9.5,6.2-18.4,6.7C139.1,365.3,138.3,365.4,137.4,365.4z"/>
<path class="st2" d="M120.6,312.6c-1.4,1.5-6.2,10.3-6.3,19.2c0,0.8,0.1,12.7,9.9,19.5c6.3,4.4,13,4.1,14.7,4
	c6.1-0.4,10.3-3,13.6-5.1c10.6-6.9,14.7-17.1,15.9-20.2c2-5.3,5.8-19.9,1.5-25.3c-1.6-2-5-2.5-8.9-2.5c-3,0-5.7,1.6-6.8,2.5
	c-4.8,3.8-4.3,7.1-7.8,10.9c-4.8,5.2-12.7,6.3-19.8,3.5C123.9,318.1,121.6,314.1,120.6,312.6z"/>
<path class="st2" d="M320.1,294.7c-1.5,0-2.8-0.3-3.8-0.5l-0.1,0c-1.7-0.4-6.2-1.5-10.2-5c-2.1-1.8-5.1-6.4-4.6-11.4
	c0.4-3.6,2.4-6.7,5.5-8.6c1.8-1,8.1-4.3,15.7-4.3c0.9,0,1.8,0.1,2.7,0.2c3.6,0.4,6.6,2.2,8.5,5c1.9,2.8,2.5,6.4,1.7,9.9
	c-1,3.8-2.9,9.3-8.2,12.6C325.8,293.5,323.4,294.7,320.1,294.7z"/>
<path class="st2" d="M312.6,281.7c-0.3-0.3-2.2-3-0.6-3.9c2.8-1.6,7.8-3.5,12.3-2.9c1.6,0.2,2,1.3,1.7,2.6c-0.7,2.8-1.7,5.3-3.8,6.6
	c-1.4,0.9-2.1,0.8-3.4,0.5C317.9,284.4,314.9,283.8,312.6,281.7z"/>
<path class="st2" d="M404.1,67c-3,0-6-1.1-8.4-3.1c-4.3-3.6-5.1-7.9-5.5-12.5c-1-10.5,5.1-15.3,10.5-16.1c0.8-0.1,1.5-0.2,2.3-0.2
	c5.9,0,11,3.7,12.5,9.1c1,3.6,1.3,6.3,1.5,8c0.6,7.4-3.7,11.2-6.2,12.8C408.7,66.4,406.4,67,404.1,67z"/>
<path class="st2" d="M400.1,50.6c-0.3-3.4,0.5-5.2,2.2-5.4c1.7-0.3,3.3,0.4,3.7,1.9c0.8,2.8,1,4.9,1.1,6.1c0.1,1.5-0.1,2.7-1.5,3.6
	c-1.2,0.7-2.5,0.5-3.6-0.4C400.9,55.4,400.4,54.5,400.1,50.6z"/>
<path class="st2" d="M374.3,333.7c-1.1,0-2.8-0.1-4.6-0.9c-6-2.6-8.7-9.4-6.5-16.1c1.4-4.3,5-7.1,10.7-8.2c1-0.2,2.1-0.3,3.1-0.3
	c4.1,0,8.1,1.7,10.3,4.4c3.8,4.6,3.8,10.9,1.9,14.7C388.4,328.9,386,333.7,374.3,333.7z"/>
<path class="st2" d="M372.6,319.8c0.2-0.7,1.2-1.2,3.3-1.7c2.2-0.4,3.7,0.5,3.8,0.6c1.1,1.4,1,3.5,0.7,4c-0.3,0.6-6.2,1.2-6.7,0.9
	C371.7,322.8,372.5,320.1,372.6,319.8z"/>
<path class="st2" d="M386.4,300.1c-3.3,0-6.9-1.2-11.2-3.8c-5.5-3.3-7.7-5.8-8.4-9.4c-0.4-2-0.4-5.1,2-8.5c2.3-3.3,7.4-7.6,14.1-8.6
	c1.3-0.2,2.5-0.3,3.8-0.3c1.9,0,3.5,0.2,5,0.4c1.1,0.1,2,0.2,2.8,0.2c5.5,0,10,4.4,10,10c0.1,5.7-7.5,19.7-17.7,20.1L386.4,300.1z"
	/>
<path class="st2" d="M376.4,285c-0.1-0.7,3.2-4.6,7.9-5.4c3.6-0.6,6.6,0.4,10.1,0.4c1,0-4.2,10.1-8,10.2
	C383.3,290.3,376.6,285.5,376.4,285z"/>
<path class="st3" d="M490.5,476c-0.5-1-0.9-1.9-1.2-2.7c-0.5-1.3-0.9-2.2-1.9-3.5c-1.1-1.4-1.8-2.1-2.7-3c-0.6-0.6-1.3-1.3-2.1-2.2
	c-5.2-5.8-1.9-14.5,0.9-17.8c2.5-2.9,6.3-6.6,10.5-8c2-0.7,4.1-1.3,6.7-1.3c2.8,0,5.5,0.8,8.1,2.3c3.5,2,5.3,4.9,6.2,6.4
	c0.1,0.1,0.1,0.2,0.2,0.3c0,0.1,0.1,0.2,0.2,0.3c1.2,1.6,4,5.3,3.9,10.8c-0.1,5.2-1.7,9-3.1,11.3c-0.6,1-2.4,4-11.1,10.4l-9.2,6.9
	L490.5,476z"/>
<path class="st3" d="M491,453.3c1.3-1.5,4.1-4.4,6.2-5.1c2.3-0.8,4.1-1.3,6.6,0.2c1.7,1,2.6,2.8,3.3,3.8c0.8,1.2,2.3,2.7,2.3,5.2
	c0,0.6,0,3.6-1.7,6.3c-1.4,2.3-8.5,7.6-8.5,7.6c-1-1.8-1.4-4.3-4.1-7.7c-2.3-2.9-3.5-3.8-5.1-5.6C489.4,457.3,490.2,454.2,491,453.3
	z"/>
<path class="st4" d="M381.3,451.1c-1.7-0.4-2.4,0.1-2.8,1.2c-0.4,1.2,0.2,2.8,1.5,3c1.4,0.2,2.7-0.4,2.8-1.8
	C382.8,452.3,382.9,451.6,381.3,451.1z"/>
<path class="st2" d="M402.6,23.5c-12.8,0-14.6-14.1-15.3-19.4c-1.6-12.2,3.9-22,12.9-23.3c0.7-0.1,1.3-0.1,2-0.1
	c8.5,0,15.5,7.8,17.2,18.9c1,6.5,1.4,13.2-2.3,18.1c-3.3,4.4-8.1,5.1-10.1,5.3l-0.5,0.1l-0.5,0.1C405.2,23.3,404,23.5,402.6,23.5z"
	/>
<path class="st2" d="M409.6,1c1.8,12.1-1.1,11.7-4.5,12.3c-3.4,0.5-6.4,1.8-7.9-10.4c-0.8-6.3,1.1-11.7,4.5-12.3
	C405.1-9.9,408.7-5.2,409.6,1z"/>
<path class="st2" d="M361,72.7c-3,0-8.6-1-12-7.6c-0.8-1.6-2-4-3-7.6c-1.7-6.3,1.6-12.7,7.9-15.4c1.5-0.6,3.1-0.9,4.7-0.9
	c3,0,8.8,1.2,12.7,9.2c2,4.1,3.7,8.2,1.9,13.5C371.4,69.2,366.6,72.7,361,72.7C361,72.7,361,72.7,361,72.7z"/>
<path class="st2" d="M362.5,54.8c-1.5-3.1-3.2-4.1-4.7-3.5c-1.6,0.7-2.6,2-2.2,3.5c0.8,2.8,1.7,4.7,2.2,5.8c0.7,1.3,1.5,2.2,3.2,2.2
	c1.4,0,2.4-0.9,2.8-2.2C364.3,59.3,364.2,58.3,362.5,54.8z"/>
<path class="st2" d="M352.8,23.2c-9.8,0-14.1-10.2-16.2-15.1c-4.8-11.2-2-22.4,6.5-26c1.7-0.7,3.5-1.1,5.3-1.1
	c7.1,0,14,5.4,17.9,14.2c2.7,6,4.9,12.3,2.5,18.1c-2.1,5.2-6.6,7.1-8.6,7.9l-0.4,0.2l-0.4,0.2C358.1,22.2,355.8,23.2,352.8,23.2
	C352.8,23.2,352.8,23.2,352.8,23.2z"/>
<path class="st2" d="M345.7,4.2c4.8,11.3,7.1,9.4,10.3,8.1c3.2-1.4,6.3-1.8,1.3-13c-2.6-5.8-7.1-9.4-10.3-8.1
	C343.8-7.5,343.3-1.6,345.7,4.2z"/>
<path class="st5" d="M411.8,155.2c-3.2,0-5.7-1-7.6-1.8c-0.4-0.2-1-0.4-1.3-0.5c-2.7-0.7-4.4-0.9-5.4-1c-0.6-0.1-1.4-0.1-2.3-0.4
	l-1.2-0.3l-1.1-0.6c-1.1-0.6-3.9-2.4-7.5-6.7c-3.4-4-4.9-8.4-5.4-12.4c-3.1-2.9-7.2-7.5-9.7-13.1c-4.9-11.2-6.9-31.7,4.3-39.9
	c2.7-2,5.9-3,9.1-3c7.6,0,13.5,5.5,18,11.2c0.3-2.6,0.7-5.2,1.5-8c3.5-12,12.3-13,15-13c3.7,0,7.5,1.4,11.1,4.2
	c12.1,9.3,16.2,26.7,11.5,47.4c3.4,5.2,4.7,13-0.5,22c-5.5,9.7-17.1,13.1-24.7,15.3C414.4,155,413.1,155.2,411.8,155.2z"/>
<path class="st5" d="M379.5,114.4c-4-9.3-4.5-23.9,1-27.9c4-2.9,8.9-0.3,15.6,9c8.6,12,5.2,18.6,5.2,18.6s13-2.2,17.6-1.5
	c0,0-11.1-13.4-6-31.2c1.6-5.6,5-7.8,10.5-3.6c11.1,8.5,11.3,26.2,6.5,42.3c0,0,7.5,4.4,1.8,14.4c-3.5,6.2-12.2,8.7-18.9,10.7
	c-2.2,0.7-4.7-1.1-7.2-1.8c-4.6-1.3-7.3-1.3-7.8-1.4c0,0-2-1.1-4.8-4.4c-4.3-5-2.9-10.6-2.9-10.6S382.7,121.6,379.5,114.4z"/>
<path class="st2" d="M318.8,331c-1.1,0-2.8-0.1-4.6-0.9c-6-2.6-8.7-9.4-6.5-16.1c1.4-4.3,5-7.1,10.7-8.3c1-0.2,2.1-0.3,3.1-0.3
	c4.1,0,8.1,1.7,10.3,4.4c3.8,4.6,3.8,10.9,1.9,14.7C333,326.3,330.6,331,318.8,331z"/>
<path class="st2" d="M317.2,317.1c0.2-0.7,1.2-1.2,3.3-1.7c2.2-0.4,3.7,0.5,3.8,0.6c1.1,1.4,1,3.5,0.7,4c-0.3,0.6-6.2,1.2-6.7,0.9
	C316.3,320.1,317.1,317.4,317.2,317.1z"/>
<path class="st6" d="M331.4,320.9h-19.8c0-0.9-0.2-2.7-0.3-3.3l19.4-4.3C331.1,315.5,331.4,318.9,331.4,320.9z"/>
<path class="st6" d="M320.9,315.4c0.3,1.3,0.5,3.9,0.5,5.4"/>
<path class="st6" d="M295.9,368.3c0.1-0.5,0.7-0.9,1.2-0.8c42.3,8.1,50,10.5,54.2,11.3c0.6,0.1,3.7,5.3,4.8,5.3
	c1.1,0-0.1-2.4,1.4-2.8c2-0.5,4.2,5.5,5.2,5.9c1.5,0.6,0.6-3.6,2.7-2.3c5.2,3.1,5.7,5.4,16.6,5.3c3.8-0.1,8.8,1.4,21.4,5.5
	c30.6,9.9,38.4,12.4,38.8,13.1c0.8,1.8,0.1,7.2-0.9,6.8c-11.3-5.4-18.2-7.3-47-16.5c-8.7-2.8-15.7-4.1-32-10.4
	c-6.5-2.5-10.3-1.1-10.3-1.1s2.1-1.9,1.4-2c-1.1-0.1-3.1,1.5-3.1,1.5s0.5-1.9,0.2-2c-0.7-0.3-4.1,1.6-4.1,1.6s0.3-2.9-0.1-2.4
	c-1.2,1.6-3.3,3.1-3.3,3.1s0.2-1.4,0.3-2.5c0.1-0.5-0.5-0.8-0.9-0.5l-4,3.7c0,0,1.5-4.7,1-4.9c-1.1-0.7-3.4-1.2-5-1.6
	c-7.8-1.7-24.2-6.7-28.2-7.8c-3-0.8-6-1.1-8.9-1.4C297.1,372.3,295.1,371.6,295.9,368.3z"/>
<path class="st2" d="M330.8,505.1c-5.1,0-9.3-3.6-10.1-8.6c-0.7-4.1-1.9-5.5-6.7-10.3c-5.8-0.1-10.4-1.9-13.4-5.3
	c-2.2-2.6-3.1-6.1-2.4-9.5c0.8-3.5,3.2-6.5,6.6-8.1c0.2-0.1,0.3-0.1,0.5-0.2c0.5-2,1.5-3.9,3-5.6c0.5-0.6,1.2-1.2,1.8-1.7
	c-1.1-1-2.2-2.4-3.2-4.2c-2.2-4.3-1.2-7.9-0.5-9.7c1.1-2.6,2.9-4.1,4.5-5.2c0-0.1,0-0.2,0-0.3c1.1-7.8,7-9.8,10.3-9.8h0.9l0.9,0.2
	c0.4,0.1,0.8,0.1,1.2,0.2c1.3,0.2,2.7,0.4,4.2,1c5.5,2,6.4,7.2,6.6,9.6c2.5,1.5,5.6,4,6.1,8.7c0.5,5.3-3,8.6-4.3,9.8
	c-0.3,0.2-0.6,0.5-0.9,0.9c-0.3,0.3-0.5,0.5-0.8,0.8c0.2,4.5,0.3,9.7,0.4,14.7c3.3,3.5,7.8,9.3,9.2,16.5c0.5,2.4,0.3,6.1-3,10
	C339.9,501.3,336,505.1,330.8,505.1C330.8,505.1,330.8,505.1,330.8,505.1z"/>
<path class="st2" d="M329,450.1c1.5-1.6,2.5-2.2,2.4-2.8c-0.1-1.1-4.7-2.5-5.4-3.8c-0.8-1.8-0.6-6.2-1-6.3c-0.8-0.3-2.3-0.4-3.7-0.7
	c-0.7-0.1-0.7,4.3-0.9,5.9c-0.4,2.9-6.3,1.5-4.7,4.7c2.2,4.3,4.1-1.6,4.7-1c0.6,0.6,0.5,8.2,0.4,8.8c-0.1,1.5-0.1,14.9-0.6,16.9
	c-0.1,0.2-1.1,0.4-1.1,0.1c0.5-6.1-2.7-8.7-3.4-7.9c-3.4,4,3.7,9.3,2.1,10.4c-2.3,1.5-5.2-3.7-9-2c-1.3,0.6-1.2,1.6-0.9,2
	c1.4,1.6,5,2.3,8.9,1.8c0.9-0.1,1.6,0.6,3,2c5.5,5.6,9.3,8.9,10.5,16.8c0.2,1.4,4.8-2.6,4.6-4.1c-1.5-8-9.3-14-9.3-14
	c0.1-12.1-0.7-27.3-0.9-30.6C324.8,444.9,327.9,451.3,329,450.1z"/>
<path class="st3" d="M417.2,494.6c-2,0-4-0.6-5.7-1.6c-2.9-1.8-4.7-4.8-4.9-8.3c-0.4-4.9,2.7-13.8,9.3-26.5
	c3.7-7.2,11-20.2,18.3-26.6l2.8-2.5l3.8,0c4.4,0,7.2,2.6,10.4,6c1.4,1.5,4,4.4,6.2,7.7c4,6.1,4.9,11.6,2.8,16.4
	c-0.4,0.9-1.7,3.8-17.6,18.6C425.8,493.4,421.3,494.6,417.2,494.6z"/>
<path class="st3" d="M416.8,484.6c-2.8-1.8,13.3-36.2,24-45.6c0.5-0.4,12.4,11.5,10.4,16.1C450.5,456.6,420.3,486.8,416.8,484.6z"/>
<path class="st7" d="M419.7,588.5c-1-0.1-5.2-0.7-7.7-4.8c-0.5-0.3-1-0.5-1.4-0.9c-2.1-0.3-5.6-1.3-7.7-5.4c-4.9-0.6-7.4-4.5-9.6-8
	l-2.9-2.2l0.3-5.4c0.3-4.5,3.2-7,5.2-8.2c0.3-5.7,3.9-13.6,11.4-14.1c1.8-1.4,4.1-2.6,6.9-2.6h2.4l0.1,0.1c0.4,0,0.8-0.1,1.3-0.1
	h2.4c0.4,0,0.8-0.1,1.1-0.1h1.8l1.7,0.6c0.1,0,0.2,0.1,0.3,0.1c0.1,0,0.1,0,0.2,0c1.2,0,2.4,0.2,3.5,0.6h4.5l2.9,3.6
	c1,0.5,1.9,1.1,2.7,1.9c1.9,1.9,3,4.5,3,7.2c0,2.8-1,5.2-2.8,7.1c-0.8,1.7-2.1,2.9-3.6,3.8c0.3,0.8,0.6,1.6,0.7,2.5
	c0.4,0.9,0.8,1.8,1,2.8c2.4,3.8,1.6,7.3,0.6,9.4c-0.4,0.9-0.9,1.7-1.5,2.3c-0.5,1.4-1.4,2.9-2.9,4.1c-0.7,0.6-1.6,1.1-2.4,1.5
	c-1.2,1.4-2.8,2.5-5.1,3.1l-1.2,0.3l-0.3,0c-1.1,0.5-2.5,0.8-4,0.8l-0.4,0L419.7,588.5z"/>
<path class="st7" d="M400.7,562.5c-0.6-0.4,4.5-2.1,5.4-4.6c0.4-1.1-0.3-1.5-0.2-3.8c0-2.3,1.4-4.9,2.2-4.9c0.8-0.1,1.6,2.6,1.6,2.6
	s1-1.1,2.7-3.5c0.5-0.7,1.7-1.8,1.9-1.6c0.4,0.2-0.9,4-0.9,4s0.7-0.3,2.8-2.3c1.4-1.4,1.8-1.8,2-1.7c0.5,0.3,0.1,3,0.1,3
	s1.8-1,2.7-2.3c0.3-0.4,0.5-0.8,0.7-0.8c0.3,0.1,0.1,2.4,0.1,2.4s2.3-1,2.5-1.1c0.9-0.5,1.5-0.7,1.7-0.5c0.3,0.2,0,1.8,0,1.8
	s2.8-1.4,3-1.3c0.1,0.1-1.4,2-1.4,2s4.8-0.1,4.8,0.8c0,0.4-2.5,1.5-6.3,1.5c0,0,4.5,0.7,4.4,1c0,0.3-5.6,1.1-5.6,1.1s2.9,1,2.8,1.4
	c-0.1,0.4-3.8,0.4-3.8,0.4s3,1.1,3,1.3c-0.1,0.2-4.7,0-4.7,0s2.4,1.8,2.1,2.6c-0.4,1.1-6.9-0.1-6.9-0.1s4.7,0.9,5.5,1.5
	c0.4,0.3-1.8,0.7-1.8,0.7s3.3-0.1,3.4,0.2c0.1,0.2-1.1,1.2-1.1,1.2s3.3,1.7,3.3,1.9c0,0.2-1.4,0.5-1.4,0.5s2.7,2.4,2.5,2.9
	c-0.1,0.4-2.1,0.6-2.1,0.6s3.6,2.4,3.4,2.7c-0.1,0.2-2.2,0.2-2.2,0.2s0.7,2.6,0.4,2.9c-0.3,0.2-2.7-0.6-2.7-0.6s-0.4,3-0.8,3.1
	c-0.5,0.1-2-2.2-2-2.2s-1.1,3-1.2,3c-0.1,0-0.8-3.6-0.8-3.6s-0.7,1.1-1.2,1c-0.6-0.1-0.8-2.9-0.8-2.9s-0.7,1.7-1.1,1.7
	c-0.6-0.1-1.3-3.2-1.3-3.2s-0.5,1.4-0.9,1.3c-0.6-0.1-1.3-4.1-1.3-4.1s-0.6,4.1-1.2,4.1c-0.6,0-0.3-4.7-2.1-6
	c-1.4-1-4.6-1.3-5.4,0.5C404.1,568.3,401,562.8,400.7,562.5z"/>
<path class="st6" d="M443.3,425.5c-1.5,0-3-0.3-4.4-1c-9.5-4.5-15.9-6.5-37-13.2l-8.8-2.8c-2.4-0.8-4.7-1.4-7.2-2.1
	c-6.3-1.8-13.4-3.8-25.4-8.5c-1.8-0.7-3.1-0.8-3.6-0.8c-0.3,0-0.4,0-0.4,0c0,0,0.3,0,0.8-0.2c0,0-8.5,1.9-11.3,1.4
	c-4.6-0.8-16.9-8.3-16.9-8.3c0,0,0,0,0,0c-5.8-1.5-13.1-3.6-18.3-5.1c-2.4-0.7-4.4-1.3-5.5-1.6c-1.7-0.5-3.8-0.7-5.9-0.9
	c-0.5-0.1-1-0.1-1.6-0.2c-3-0.4-6-2.2-7.9-4.9c-2.2-3.1-2.9-7.1-1.9-11.3c1.1-4.9,5.6-8.5,10.7-8.5c0.7,0,1.4,0.1,2.1,0.2
	c31.8,6.1,44.2,9,50.2,10.4c1.8,0.4,3.1,0.7,3.9,0.9c2,0.4,3.5,1.2,4.8,2.3c0,0,0,0,0,0c3.6,0,6.2,1.6,8.1,3.5c0,0,0,0,0,0
	c1.6,0.2,3.1,0.7,4.6,1.6c1.4,0.8,2.5,1.6,3.3,2.2c2,1.4,2.5,1.7,7.2,1.7c0.3,0,1.2,0,1.2,0c5.4,0,11.5,1.8,24.3,5.9l9.8,3.2
	c11.1,3.6,18.5,6,22.9,7.5c6.5,2.2,10.1,3.4,12.1,7.9c1.9,4.4,1.4,12-1.2,15.9C450.1,423.7,446.8,425.5,443.3,425.5L443.3,425.5z"/>
</svg>
