<?xml version="1.0" encoding="utf-8"?>
<!-- Generator: Adobe Illustrator 26.1.0, SVG Export Plug-In . SVG Version: 6.00 Build 0)  -->
<svg version="1.1" id="Layer_1" xmlns="http://www.w3.org/2000/svg" xmlns:xlink="http://www.w3.org/1999/xlink" x="0px" y="0px"
	 viewBox="0 0 566.9 566.9" style="enable-background:new 0 0 566.9 566.9;" xml:space="preserve">
<style type="text/css">
	.st0{fill:none;stroke:#DBD622;stroke-miterlimit:10;}
	.st1{fill:none;stroke:#F1E912;stroke-miterlimit:10;}
	.st2{fill:none;stroke:#ECE727;stroke-miterlimit:10;}
	.st3{fill:none;stroke:#DF1C4D;stroke-miterlimit:10;}
	.st4{fill:none;stroke:#35121B;stroke-miterlimit:10;}
</style>
<path class="st0" d="M274,115.4c-0.4,0-0.8-0.1-1.2-0.4c-1.6-1-5.8-7.7-4.9-12.7c0-0.2,0.1-0.5,0.1-0.7c-0.8,0.8-1.5,1.7-2.1,2.6
	c-0.6,0.9-1.6,1.2-2.6,0.8c-1.5-0.6-1.8-2.7-0.9-6.2c0.8-3.1,4.4-13.1,18.7-12l-0.3,4c-5.2-0.4-9.2,0.8-11.8,3.7
	c-0.7,0.7-1.2,1.6-1.6,2.4c3.2-2.6,6.7-4.3,8.1-5c0,0,0.1,0,0.1-0.1c0.4-0.3,0.7-0.4,0.9-0.5l1.2-0.4l1.6,1.6l-0.1,0.6
	c0.7,0,1.4,0.4,1.8,1c0.7,1.1,0.2,2.3-0.6,3.9c-0.9,2-2.5,5.4-1.8,8.1c0.2,0.9,1,1.9,2,2.8l0.4-11.8c0-1.1,0.9-2.1,2.1-2.2
	c1.1-0.1,2.2,0.7,2.4,1.8c0.3,1.6,0.8,3.8,1.2,5.8c0.3,1.4,1,2.4,1.5,2.9c-0.1-1-0.5-3.3-2.4-8.8l3.8-1.3c3.2,9.4,3.4,12.2,0.8,13.8
	c-1,0.6-2.2,0.7-3.3,0.2c-0.9-0.4-1.8-1.1-2.5-2.1l-0.2,4.5c0,0.9-0.5,1.7-1.3,2.1c-0.8,0.4-1.7,0.4-2.4-0.1c-1.4-0.9-3.6-2.5-5-4.6
	c0,1.1,0,2.2,0.2,3.1c0.3,1.4-0.5,2.1-0.8,2.4C274.8,115.3,274.4,115.4,274,115.4z M274.6,97.9c-1.2,1.4-2.4,3.1-2.8,5.1
	c-0.2,0.9,0,2.1,0.3,3.2C272.6,103.3,273.6,100.2,274.6,97.9z"/>
<path class="st0" d="M301.3,181.5l-1.1-3.8c3.8-1.1,7-2.6,9.7-3.9c3.4-1.6,5.8-2.8,8-2.4c1.3,0.3,2,1,3,2l0.2,0.2l-2.9,2.8l-0.2-0.2
	c-0.4-0.4-0.8-0.8-0.9-0.9c-0.9-0.2-3.2,1-5.5,2C308.8,178.7,305.4,180.3,301.3,181.5z"/>
<path class="st0" d="M290.8,264.7v-4c9.9,0,14.1-0.7,21.7-5.3c6.8-4.1,10.7-9.5,12.9-13.3l3.5,2c-2.4,4.2-6.8,10.2-14.3,14.7
	C306.2,263.9,301.3,264.7,290.8,264.7z"/>
<path class="st0" d="M276.3,263c-0.8-0.8-1.8-2.2-2.9-3.6c-1-1.2-1.9-2.5-2.6-3.2l2.8-2.8c0.8,0.8,1.8,2.2,2.9,3.6
	c1,1.2,1.9,2.5,2.6,3.2L276.3,263z"/>
<path class="st0" d="M272.5,323.6h-4c0-4.5,2-7.2,3.3-9c0.3-0.4,0.5-0.7,0.7-1l3.4,2.1c-0.2,0.4-0.6,0.8-0.9,1.3
	C273.8,318.5,272.5,320.4,272.5,323.6z"/>
<path class="st0" d="M275.2,329c-1.3-6.9,2-11.4,5.5-13.2l1.9,3.5c-1.1,0.6-4.5,2.9-3.4,9L275.2,329z"/>
<path class="st0" d="M321.7,369.2c-1.1-2.7-2.5-4.7-3.6-5l1-3.8c3.2,0.8,5.2,4.4,6.4,7.3L321.7,369.2z"/>
<path class="st0" d="M319.3,374.7h-4c0-4.4-0.9-7.2-2.5-7.5l0.6-3.9C316.1,363.7,319.3,366,319.3,374.7z"/>
<path class="st0" d="M292.9,224.3c-2.4,0-4.6-0.5-6.5-1.6c-0.6-0.4-4-2.5-7.6-7.4c-0.6-0.8-1.3-1.5-2-2.2c-0.5-0.5-1-1-1.5-1.6
	c-0.4-0.5-1.8-2.1-3.4-4c-2.5-3-4.9-6.4-7.4-10.1l3.3-2.2c2.4,3.6,4.8,6.9,7.1,9.8c1.5,1.9,3,3.6,3.3,3.9c0.4,0.5,0.9,0.9,1.3,1.4
	c0.8,0.8,1.6,1.6,2.4,2.7c3.2,4.3,6.1,6.1,6.4,6.3c3.8,2.2,10.2,0.6,14.5-1.8c1.1-0.6,2.3-2.5,3.8-5.1c0.6-1,1.3-2.2,2.1-3.5
	c1.1-1.7,2.5-3.2,4-4.3l0.1-0.1c0.6-0.6,1.6-1.4,3.3-2.8c1.2-1,1.7-1.5,2.7-2.4l1-0.9c1.4-1.3,2.6-2.4,3.5-3.3c1.9-1.7,3.2-3,5.3-5
	c0.1-0.1,0.2-0.2,0.3-0.3c0.2-0.2,0.5-0.5,0.7-0.7c0.6-0.5,1.1-1,1.7-1.5c0.2-0.1,0.3-0.3,0.5-0.4c-0.7,0-1.5,0-2.3,0.1l-0.7-3.9
	c0.5-0.1,1.1-0.4,1.5-0.6c-0.3-0.2-0.8-0.5-1.3-0.6c-1.8-0.4-3.7,0.2-3.7,0.2l-3.9,1.1l1.4-3.8c0.2-0.5,0.3-1.1,0.4-1.5
	c-0.3,0-0.6,0-1.2,0.1c-4.4,0.7-11.4,4.6-14,6.1l-1.9-3.5c4.8-2.7,10.9-5.8,15.4-6.6c1-0.2,3.8-0.6,5.2,1.3c0.5,0.7,0.7,1.5,0.7,2.4
	c0.8,0,1.7,0,2.6,0.2c2.7,0.5,5.3,2.7,4.9,5c0,0.1,0,0.1,0,0.2c1.1,0.3,1.9,0.9,2.2,1.6c1,1.9-0.7,3.4-3.1,5.4
	c-0.5,0.4-1,0.9-1.6,1.4c-0.1,0.1-0.3,0.3-0.4,0.4c-0.2,0.2-0.3,0.3-0.4,0.5c-2.1,2.1-3.5,3.3-5.4,5.1c-1,0.9-2.1,1.9-3.5,3.3
	l-1,0.9c-1,0.9-1.6,1.5-2.9,2.5c-1.1,0.9-2.1,1.8-2.8,2.3v0.3l-1,0.5c-1.1,0.8-2.1,1.9-2.9,3.1c-0.8,1.3-1.5,2.4-2.1,3.4
	c-2,3.2-3.3,5.4-5.3,6.5C301.4,222.8,297,224.3,292.9,224.3z M323.3,178L323.3,178L323.3,178z"/>
<path class="st1" d="M320.1,467.3l-2.1-3.4l0.4-0.2c0.9-0.5,2.5-1.5,3.2-2.2c0.8-0.8,1.5-1.6,2.1-2.5l3.3,2.2
	c-0.8,1.1-1.6,2.2-2.6,3.1c-1.1,1-2.8,2.1-3.9,2.8L320.1,467.3z"/>
<path class="st1" d="M300.5,472.3c-1.6-0.3-3.6-1-5.3-2c-1.2-0.7-2.3-1.9-3-2.7c-0.1-0.2-0.3-0.3-0.4-0.4l2.8-2.8
	c0.1,0.1,0.3,0.3,0.4,0.5c0.5,0.6,1.5,1.6,2.1,2c1.6,0.9,3,1.4,3.9,1.5L300.5,472.3z"/>
<path class="st2" d="M289.8,462.2l-3.9-0.6c0.8-4.7,3.9-7.8,5.3-9.3c2.7-2.7,5.8-5.2,10.2-5.6c0.9-0.1,2-0.2,3.1-0.3
	c1.8-0.2,3.6-0.4,5.2-0.5c3.7-0.3,8.8-0.3,11.8,0.9c4.4,1.8,6,4.3,7.4,6.6c0.2,0.3,0.4,0.6,0.5,0.9l-3.3,2.2
	c-0.2-0.3-0.4-0.6-0.6-0.9c-1.3-2-2.3-3.7-5.5-5c-1.8-0.7-5.5-1-10.1-0.6c-1.5,0.1-3.3,0.3-5,0.5c-1.1,0.1-2.2,0.2-3.1,0.3
	c-3,0.3-5.2,1.9-7.7,4.5C292.9,456.3,290.4,458.7,289.8,462.2z"/>
<path class="st3" d="M301.2,549.7c-0.6-0.3-1.5-0.6-1.9-0.7c-0.1,0-0.2,0-0.2,0c-0.1,0.1-0.2,0.2-0.2,0.2c-0.2,0.2-0.5,0.5-0.8,0.7
	c-0.4,0.3-0.9,0.5-1.4,0.5c-1.5,0-2.4-1.4-2.7-2.7c-0.3-1.5,0.5-2.4,1.2-2.7c0.4-0.2,0.9-0.9,1.3-1.4c0.6-0.9,1.4-1.9,2.8-1.9
	c0.4,0,0.8,0.1,1.2,0.3c0.3,0.1,0.5,0.3,0.7,0.5c0.1,0,0.2,0,0.3,0h0.3l0.4,0.1c0.6,0.2,1.2,0.6,1.5,1.4c1.2,0.3,1.8,0.8,1.9,1.9
	c0,0.2,0,1.2-0.9,1.8l3.1,4.7L301.2,549.7z"/>
<path class="st3" d="M299.3,543.8c0.5,0.3,0.8,1.4,0.8,1.4s0.8-0.8,1.2-0.6c0.4,0.1,0.2,1.1,0.2,1.1s1.7,0.4,1.8,0.5
	c0,0.1-1.3,0-1.6,0.6c-0.2,0.4,0.3,1.1,0.3,1.1s-1.5-0.7-2.5-0.8c-1.5-0.2-1.7,0.4-2.8,1.4c-0.5,0.4-1.2-1.3-0.8-1.5
	C297.7,546.1,298.5,543.3,299.3,543.8z"/>
<path class="st4" d="M303.3,547.4l-2.3-3.3c2.3-1.6,7.7-2.3,9.5-2l-0.6,3.9C308.8,546,304.5,546.5,303.3,547.4z"/>
<path class="st4" d="M295.2,550.8l-2.5-3.1c0.2-0.1,0.7-0.5,1.2-0.8c0.4-0.2,0.7-0.5,0.9-0.6l2.5,3.1c-0.2,0.1-0.7,0.5-1.2,0.8
	C295.7,550.5,295.4,550.7,295.2,550.8z"/>
</svg>
