<?xml version="1.0" encoding="utf-8"?>
<!-- Generator: Adobe Illustrator 26.0.3, SVG Export Plug-In . SVG Version: 6.00 Build 0)  -->
<svg version="1.1" id="Layer_1" xmlns="http://www.w3.org/2000/svg" xmlns:xlink="http://www.w3.org/1999/xlink" x="0px" y="0px"
	 viewBox="0 0 566.9 566.9" style="enable-background:new 0 0 566.9 566.9;" xml:space="preserve">
<style type="text/css">
	.st0{fill:none;stroke:#CC3F97;stroke-miterlimit:10;}
	.st1{fill:none;stroke:#1D000E;stroke-miterlimit:10;}
</style>
<path class="st0" d="M213.9,424.4c-27.5,0-44.1-1.2-50.8-3.8c-11.8-4.5-8.7-19.4-7.3-26.6c1.6-7.9,8.7-20.9,12.5-27.9
	c0.9-1.7,1.6-3,2-3.7c24.5-51,30.8-68.5,35.9-82.6c1.7-4.9,3.4-9.5,5.6-14.9c13.6-33.2,18.5-77.3,21.2-101
	c0.7-6.3,1.3-11.3,1.8-14.4c1.1-6.5,4.6-10.4,10-10.7c0.2,0,0.3,0,0.5,0c3.7,0,6.8,3,9.8,5.9c2.7,2.6,5.5,5.3,8.1,5.3
	c0.1,0,0.2,0,0.2,0c8.7-0.5,10.3-3.5,11.8-6.3c1.4-2.6,3-5.6,8.7-5.7l0.2,0c4.9,0,6.9,3.9,8.4,6.7c1.5,3,2.4,4.3,4.4,4.3
	c0.2,0,0.4,0,0.6,0c3.9-0.5,6.8-3.1,9.8-5.8c3.2-2.9,6.5-5.9,11.1-6.1c0.1,0,0.3,0,0.4,0c9.5,0,11.8,11.8,12.3,15.4
	c1.3,9,2.6,19.9,3.8,32.5c2.2,22.3,4.9,35.2,16.5,85.2c3.4,14.7,20.3,53.8,44.9,97.5c1.2,2.1,2.6,4.4,4.2,6.8
	c4.8,7.5,9.7,15.3,9.7,21.9c0,0.2,0,0.7,0.1,1.2c0.3,3,1,9.3-3.1,14c-3,3.5-8,5.4-14.8,5.6c-2.3,0.1-8.7,0.5-17.5,1
	C339.3,420.1,265.3,424.4,213.9,424.4z"/>
<path class="st0" d="M163.8,418.8c-9.4-3.6-8-14.9-6-24.4c2-9.6,12.7-27.7,14.3-31.2c33.2-69,33.1-77,41.5-97.5
	c17.3-42.2,20.6-100.9,23.1-115.8c0.8-4.6,3-8.7,8.2-9.1c6.2-0.5,11.6,11.6,18.6,11.2c17.4-1,10.1-11.8,20.5-12
	c7.7-0.1,5.9,11.8,13.7,10.9c8.9-1.1,12.9-11.6,20.7-11.9c9-0.3,10.5,12.8,10.7,13.8c1.6,11.3,3,23.8,3.8,32.3
	c2.2,22.3,4.8,34.9,16.6,85.4c3.7,16.2,22.2,57.3,45.1,98c4.8,8.4,13.6,19.7,13.7,27.7c0,3,4,18.1-15.9,18.8
	C376.7,415.6,189.4,428.6,163.8,418.8z"/>
<path class="st1" d="M223.1,392.1c-2,0-4.5-0.3-5.7-2.2c-1.2-2.1-0.3-4.7,1.8-8.5c0.2-0.4,2.5-6.2,4.3-10.8c1.8-4.7,3.6-9.1,4-10.1
	c13-31,23.4-72.6,29.6-97.5c1.4-5.5,2.6-10.3,3.5-14c0.7-2.8,1.5-5.7,2.3-8.6c5.7-21.7,11.6-44.2,16-53.6c0.8-1.6,2.4-2.6,4.2-2.6
	c1.8,0,3.4,1,4.2,2.6c3.6,7.5,8.9,23.9,14.1,39.8c3,9.2,6.1,18.8,8.8,26.3c2.3,6.5,5.6,16,9,26.1c7.2,21.1,16.2,47.4,20.6,57.8
	c1.4,3.3,2.9,6.9,4.4,10.8c3.5,8.7,7.1,17.8,10.4,23.8c0.9,1.6,1.8,3.1,2.5,4.4c2.7,4.6,4.3,7.4,3,9.8c-1.2,2.1-4.1,2.4-7.1,2.5
	c-19.4,0.3-68.9,2.1-101.6,3.2c-14.2,0.5-24.4,0.8-27.5,0.9C223.5,392.1,223.3,392.1,223.1,392.1z"/>
<path class="st1" d="M223.6,390.1c-5.9,0.2-5.8-2-2.7-7.8c0.3-0.5,7.5-19.1,8.3-21.1c15.9-37.9,27.7-90.9,33.2-111.8
	c6.1-23.3,13.2-51.4,18.2-61.9c0.9-2,3.8-2,4.8,0c5.6,11.6,15.5,45.5,22.8,65.9c7.1,20,23.1,68.6,29.6,84
	c4.6,11,10.1,25.9,14.9,34.8c5.5,10.1,9.4,13.6,0.1,13.8C324.8,386.5,233.7,389.9,223.6,390.1z"/>
</svg>
