<?xml version="1.0" encoding="utf-8"?>
<!-- Generator: Adobe Illustrator 26.0.3, SVG Export Plug-In . SVG Version: 6.00 Build 0)  -->
<svg version="1.1" id="Layer_1" xmlns="http://www.w3.org/2000/svg" xmlns:xlink="http://www.w3.org/1999/xlink" x="0px" y="0px"
	 viewBox="0 0 566.9 566.9" style="enable-background:new 0 0 566.9 566.9;" xml:space="preserve">
<style type="text/css">
	.st0{fill:none;stroke:#CC3F97;stroke-miterlimit:10;}
	.st1{fill:none;stroke:#1D000E;stroke-miterlimit:10;}
	.st2{fill:none;stroke:#EE489A;stroke-miterlimit:10;}
</style>
<path class="st0" d="M147.3,425.6c-48.2,0-75.9-1.8-84.9-5.6c-11.6-4.9-8.2-19.8-6.6-27c1.8-7.9,9.3-20.9,13.3-27.8
	c1-1.7,1.7-3,2.1-3.7c25.9-50.7,32.6-68.2,38-82.3c1.9-4.9,3.6-9.5,6-14.8c14.5-33.1,20.5-77.4,23.8-101.2
	c0.9-6.3,1.6-11.3,2.2-14.5c1.3-6.6,4.9-10.3,10.3-10.6c0.1,0,0.2,0,0.3,0c3.8,0,6.8,3.2,9.8,6.2c2.7,2.7,5.4,5.5,8.1,5.5l0.1,0
	c8.7-0.3,10.4-3.2,12-6c1.4-2.4,3.2-5.5,8.7-5.5l0.2,0c5,0,7,4,8.4,7c1.5,3.1,2.3,4.4,4.4,4.4c0.2,0,0.3,0,0.5,0
	c3.9-0.4,6.8-2.9,9.9-5.6c3.3-2.8,6.7-5.8,11.2-5.8l0.1,0c6.5,0,11.1,5.9,12.2,15.8c1.1,9.1,2.1,20.1,3,32.8
	c1.6,22.6,4,35.6,14.3,86.3c3,14.9,18.9,54.8,42.4,99.5c1.1,2.2,2.5,4.5,4,7c4.4,7.4,9.3,15.7,9.2,22.3c0,0.2,0,0.7,0.1,1.2
	c0.2,3,0.7,9.4-3.5,14c-3.1,3.4-8.1,5.1-14.9,5.2c-2.3,0-8.7,0.2-17.4,0.5C246.1,423.9,193.7,425.6,147.3,425.6z"/>
<path class="st0" d="M63.2,418.2c-9.3-3.9-7.6-15.2-5.4-24.7c2.2-9.6,13.4-27.6,15.1-31c35-68.7,35.1-76.7,44-97.2
	c18.4-42.1,23.2-101.2,26.1-116.1c0.9-4.6,3.2-8.7,8.4-9c6.2-0.3,11.3,12,18.3,11.7c17.4-0.6,10.4-11.6,20.8-11.5
	c7.7,0.1,5.6,12.1,13.4,11.3c9-0.9,13.2-11.3,21-11.4c9-0.1,10.2,13.2,10.3,14.2c1.3,11.5,2.3,24,3,32.6
	c1.6,22.6,3.9,35.3,14.3,86.6c3.3,16.4,20.7,58.3,42.6,100c4.5,8.6,13.1,20.2,12.9,28.3c-0.1,3,3.5,18.3-16.4,18.5
	C276.1,420.6,88.5,428.8,63.2,418.2z"/>
<path class="st1" d="M140.5,374.3c-1.8,0-4.1-0.2-5.1-2c-1.1-2,0.1-4.5,1.4-6.9c0.3-0.6,2-4.8,3.4-8.2c1.5-3.5,2.9-6.9,3.2-7.6
	c10.4-23.4,19-54.9,24.1-73.7c1.1-4.2,2.1-7.8,2.9-10.6c0.6-2.1,1.2-4.3,1.9-6.5c4.7-16.5,9.6-33.5,13.1-40.6
	c0.7-1.4,2.1-2.2,3.6-2.2c1.6,0,3,0.9,3.6,2.3c2.6,5.8,6.4,18.4,10.1,30.6c2.1,7.1,4.3,14.4,6.2,20.2c1.6,5,4,12.3,6.4,20.1
	c5.1,16.2,11.5,36.3,14.7,44.3c1,2.6,2.1,5.3,3.2,8.3c2.5,6.7,5.1,13.6,7.5,18.3c0.7,1.3,1.3,2.4,1.8,3.4c2,3.7,3.3,6,2.1,8
	c-1,1.8-3.4,2-5.7,2c0,0-1.8,0-2.8,0c-16.3,0-51.4,0.4-74.6,0.7C150.8,374.2,143,374.3,140.5,374.3L140.5,374.3z"/>
<path class="st1" d="M140.6,372.3c-4.5,0-4.4-1.6-1.9-6c0.2-0.4,6-14.4,6.7-15.9c12.7-28.6,22.6-68.8,27.1-84.6
	c5.1-17.6,10.9-38.9,14.9-46.8c0.8-1.5,2.9-1.5,3.6,0.1c4.1,9,11.1,34.9,16.2,50.6c5.1,15.4,16.5,52.6,21.2,64.5
	c3.3,8.4,7.2,19.9,10.8,26.7c4,7.8,6.9,10.5-0.2,10.5C217.7,371.3,148.3,372.3,140.6,372.3z"/>
<path class="st2" d="M384.5,426c-2.2,0-4.2-0.4-6.1-1c-6.7-2.4-9.1-9.7-11.3-16.1c-1.9-5.7-3.2-9.1-5.6-9.1
	c-0.8,0.6-1.7,4.2-2.2,6.6c-1.4,5.5-3,12.4-7.9,15.7c-3.2,2.2-6.6,3.3-9.7,3.3c0,0,0,0,0,0c-3.3,0-6.3-1.3-8.6-3.8
	c-4.5-4.9-6.2-14.1-5.1-27.3c8.5-100.1,7.8-168-2.4-213.7c-0.1-0.3-6.4-31.6-2.1-37.2c2.1-2.8,6-4.5,10.7-4.5c2.7,0,5.2,0.6,6.6,1.6
	c3.7,2.5,4.6,4.1,5.4,5.4c0.5,0.8,0.8,1.3,1.8,2.1c1.3,0.9,3.4,1.6,5.3,1.6c1.2,0,2.2-0.2,2.8-0.7c1.3-0.9,2-2.1,2.8-3.3
	c1.7-2.6,3.6-5.6,9.8-6.1c1.4-0.1,2.5-0.2,3.6-0.2c8.6,0,9.3,4.6,9.4,10.3c0.6,35.7,3.1,93.6,3.6,104.9c0,0.7,0.6,1.3,1.3,1.3h60.2
	c0.4,0,0.7-0.3,0.8-0.8c0.2-7.7,1-35,2.2-60.4c2.2-48.8,3.8-50.7,4.6-51.7c2.7-3.3,6.9-4,9.9-4c1.9,0,4,0.3,5.7,0.8
	c4.3,1.4,5.7,4.4,6.8,6.6c1.1,2.3,1.6,3.4,4.4,3.5l0.4,0c4.6,0,5.3-1.3,6.6-3.5c1.1-1.9,2.4-4.2,6-5.8c2.7-1.2,5.3-1.8,7.7-1.8
	c3.1,0,5.7,1.1,7.5,3.3c2.9,3.5,3.6,9.5,2,17.8c-18.1,96.4-10,180.4-6.1,220.7c0.9,9.3,1.6,16.7,1.8,21.7c0,0.9,0.1,1.7,0.1,2.6
	c0.3,5.9,0.7,12.7-3.3,16.8c-2.2,2.3-5.5,3.5-9.8,3.5c-0.2,0-0.5,0-0.7,0c-12.4-0.3-16.1-10.3-18.5-16.9c-1.2-3.3-2.3-6.3-3.8-6.4
	c-0.9,0.6-2.3,4.6-3.3,7.3c-1.5,4.4-3.2,9.3-6,12.2c-2.6,2.8-6.7,4.3-11.2,4.3c-4.4,0-8.5-1.6-11.4-4.3c-5.1-4.8-2.7-18.5,1.9-42.2
	c4.2-21.7,9.5-48.7,5.4-67c-1.4-1.3-10.7-3.2-27.3-3.2c-20.2,0-32.5,2.7-33.6,4.7c-0.8,28,6.3,53.3,11.5,71.8
	c5.7,20.5,9.5,34.1-0.6,37.9C393.4,424.3,389.1,426,384.5,426z"/>
<path class="st2" d="M327.5,180.2c11.3,51,10,125.7,2.4,214.3c-2.6,30.4,10.9,32.3,20.3,25.9c7.7-5.3,6.5-22.6,11.1-22.7
	c8.5-0.2,6.5,21.3,17.7,25.3c6.2,2.2,12.4-0.1,16.5-1.7c16.6-6.3-13.8-50.7-12.2-108c0.2-8.2,63.3-8.4,64.7-2
	c7.9,35.3-17.6,99.3-7.9,108.4c5.5,5.2,15.3,4.7,19.8,0c5.2-5.5,6.7-20.1,10.6-20.1c7.4,0,4.2,22.8,22.4,23.3
	c14.1,0.4,12-11.9,11.7-20.9c-0.9-27-17.8-124.5,4.4-242.8c3.6-19.2-5.8-21-14.4-17.1c-7.1,3.2-3.4,9.7-13.7,9.5
	c-7.6-0.1-4.4-7.8-11.7-10.1c-3.2-1-10.1-1.6-13.4,2.5c-3.1,3.8-5.9,94-6.4,110.9c0,1.5-1.3,2.7-2.7,2.7h-60.2
	c-1.7,0-3.2-1.4-3.2-3.2c-0.6-13.8-3-69.7-3.6-104.9c-0.1-6.5-1.2-9.1-10.9-8.1c-8.1,0.8-7.3,6-11.6,9.1c-2.6,1.9-7.8,1-10.4-0.9
	c-3.2-2.4-1.4-3.6-7.1-7.5c-2.5-1.7-11.1-2.2-14.6,2.5C321.9,148.8,326.6,176,327.5,180.2z"/>
</svg>
