<?xml version="1.0" encoding="utf-8"?>
<!-- Generator: Adobe Illustrator 26.0.3, SVG Export Plug-In . SVG Version: 6.00 Build 0)  -->
<svg version="1.1" id="Layer_1" xmlns="http://www.w3.org/2000/svg" xmlns:xlink="http://www.w3.org/1999/xlink" x="0px" y="0px"
	 viewBox="0 0 566.9 566.9" style="enable-background:new 0 0 566.9 566.9;" xml:space="preserve">
<style type="text/css">
	.st0{fill:none;stroke:#CC3F97;stroke-miterlimit:10;}
	.st1{fill:none;stroke:#1D000E;stroke-miterlimit:10;}
	.st2{fill:none;stroke:#EE489A;stroke-miterlimit:10;}
</style>
<path class="st0" d="M147.3,433.5c-64.9,0-81.1-3.3-87.9-6.2c-17.8-7.4-13-28.2-11.3-36.1c1.9-8.4,8.3-19.9,14.1-30
	c0.8-1.4,1.6-2.8,1.9-3.3c25.7-50.3,32.3-67.6,37.7-81.5c1.9-5,3.7-9.6,6.1-15.2c14-32.1,20-75.7,23.2-99.1
	c0.9-6.5,1.6-11.6,2.2-14.9c2-10.2,8.6-16.5,17.7-17c0.2,0,0.5,0,0.7,0c7.1,0,12,5,15.5,8.6c1,1,2.4,2.4,3.3,3.1
	c2.7-0.2,3.6-0.7,3.6-0.7c0.1-0.1,0.5-0.8,0.8-1.3c1.6-2.8,5.4-9.5,15.6-9.5l0.2,0c8.9,0.1,12.9,6.4,14.8,10.2c1-0.7,2-1.6,3.1-2.5
	c3.7-3.2,8.9-7.7,16.4-7.8l0.2,0c10.8,0,18.5,8.8,20.1,22.9c1.1,9.1,2.1,20.3,3,33.1c1.6,22.1,3.9,35,14.1,85.3
	c2.9,14.5,19.3,54.9,41.6,97.3c1,2,2.4,4.2,3.8,6.6c4.9,8.2,10.4,17.5,10.3,26.3c0,0.2,0,0.4,0,0.6c0.3,3.8,1,12.8-5.6,20
	c-4.7,5.1-11.6,7.7-20.6,7.8c-2.2,0-8.5,0.2-17.3,0.5C246.3,431.8,193.9,433.5,147.3,433.5z"/>
<path class="st0" d="M63.2,418.2c-9.3-3.9-7.6-15.2-5.4-24.7c2.2-9.6,13.4-27.6,15.1-31c35-68.7,35.1-76.7,44-97.2
	c18.4-42.1,23.2-101.2,26.1-116.1c0.9-4.6,3.2-8.7,8.4-9c6.2-0.3,11.3,12,18.3,11.7c17.4-0.6,10.4-11.6,20.8-11.5
	c7.7,0.1,5.6,12.1,13.4,11.3c9-0.9,13.2-11.3,21-11.4c9-0.1,10.2,13.2,10.3,14.2c1.3,11.5,2.3,24,3,32.6
	c1.6,22.6,3.9,35.3,14.3,86.6c3.3,16.4,20.7,58.3,42.6,100c4.5,8.6,13.1,20.2,12.9,28.3c-0.1,3,3.5,18.3-16.4,18.5
	C276.1,420.6,88.5,428.8,63.2,418.2z"/>
<path class="st1" d="M140.5,382.3c-7,0-10.4-3.2-11.9-5.9c-3.4-5.8-0.4-11.6,1.2-14.4c0.5-1.2,2.1-4.9,3.2-7.7
	c1.8-4.3,2.9-7,3.3-7.8c10.1-22.8,18.6-54,23.7-72.6c1.1-4.2,2.1-7.8,3-10.7c0.6-2.1,1.2-4.3,1.9-6.5c5-17.6,9.8-34.2,13.7-42
	c2-4,6.1-6.6,10.7-6.6c4.7,0,8.9,2.7,10.9,7c2.9,6.3,6.6,18.6,10.5,31.6c2.1,7,4.3,14.3,6.2,20c1.7,5,4,12.4,6.5,20.2
	c5.1,16.1,11.4,36.1,14.5,43.8c1,2.6,2.1,5.4,3.2,8.4c2.4,6.5,4.9,13.2,7.1,17.4c0.6,1.2,1.2,2.3,1.7,3.2c2.4,4.4,5.5,9.9,2,15.8
	c-3.5,5.9-10.3,5.9-12.6,5.9c0,0-1.8,0-2.8,0c-16.2,0-51.3,0.4-74.5,0.7c-10.9,0.1-18.8,0.2-21.1,0.2L140.5,382.3z"/>
<path class="st1" d="M140.6,372.3c-4.5,0-4.4-1.6-1.9-6c0.2-0.4,6-14.4,6.7-15.9c12.7-28.6,22.6-68.8,27.1-84.6
	c5.1-17.6,10.9-38.9,14.9-46.8c0.8-1.5,2.9-1.5,3.6,0.1c4.1,9,11.1,34.9,16.2,50.6c5.1,15.4,16.5,52.6,21.2,64.5
	c3.3,8.4,7.2,19.9,10.8,26.7c4,7.8,6.9,10.5-0.2,10.5C217.7,371.3,148.3,372.3,140.6,372.3z"/>
<path class="st2" d="M384.5,433.9c-3.1,0-6-0.5-8.8-1.5c-6.4-2.3-10.2-7.2-12.7-12.3c-1.6,3.2-3.9,6.2-7.2,8.5
	c-4.5,3.1-9.4,4.7-14.2,4.7c0,0,0,0,0,0c-5.5,0-10.6-2.3-14.4-6.4c-6.2-6.7-8.5-17.6-7.2-33.3c8.5-99.3,7.8-166.4-2.2-211.3
	c-0.6-2.6-2-10.7-3-18.8c-1.8-15.9-0.6-21.2,2.2-24.9c3.6-4.9,9.8-7.6,17-7.6c2.5,0,7.4,0.4,11.1,2.9c4.1,2.8,5.9,5.1,7.2,7
	c2-3.1,5.8-8.5,15.5-9.4c1.6-0.2,3-0.2,4.4-0.2c11.3,0,17.2,6.1,17.4,18.1c0.5,31.1,2.5,79.2,3.3,98.3h46.8
	c0.4-11.8,1.1-33.3,2-53.6c2.3-51.4,3.8-53.2,6.4-56.4c3.7-4.4,9.4-6.9,16-6.9c2.8,0,5.6,0.4,8.1,1.2c5.5,1.8,8.4,5.2,10.1,8
	c1.5-2.2,3.9-5,8.3-7c3.8-1.7,7.4-2.5,10.9-2.5c5.5,0,10.3,2.2,13.6,6.2c4.5,5.5,5.7,13.4,3.7,24.3c-17.9,95.3-9.9,178.5-6,218.5
	c0.9,9.5,1.6,17,1.8,22.2c0,0.8,0.1,1.7,0.1,2.5c0.4,6.8,0.8,16.1-5.5,22.7c-3.8,4-9,6-15.6,6c-0.3,0-0.6,0-0.9,0
	c-11.3-0.3-17.6-6.3-21.4-12.5c-1.1,2.2-2.5,4.4-4.2,6.2c-4.1,4.3-10.3,6.8-17,6.8c-6.4,0-12.4-2.3-16.8-6.4
	c-8.6-8-5.5-23.7-0.5-49.5c3.7-19.2,8.3-42.7,6.2-59.4c-3.7-0.6-10.4-1.3-20.3-1.3c-11.9,0-21,1-25.7,2.1
	c0.2,24.7,6.3,46.5,11.2,64.3c2.8,10,5.2,18.7,5.8,25.7c1.3,14.8-6.5,20-11.2,21.8C395.9,431.9,390.6,433.9,384.5,433.9z"/>
<path class="st2" d="M327.5,180.2c11.3,51,10,125.7,2.4,214.3c-2.6,30.4,10.9,32.3,20.3,25.9c7.7-5.3,6.5-22.6,11.1-22.7
	c8.5-0.2,6.5,21.3,17.7,25.3c6.2,2.2,12.4-0.1,16.5-1.7c16.6-6.3-13.8-50.7-12.2-108c0.2-8.2,63.3-8.4,64.7-2
	c7.9,35.3-17.6,99.3-7.9,108.4c5.5,5.2,15.3,4.7,19.8,0c5.2-5.5,6.7-20.1,10.6-20.1c7.4,0,4.2,22.8,22.4,23.3
	c14.1,0.4,12-11.9,11.7-20.9c-0.9-27-17.8-124.5,4.4-242.8c3.6-19.2-5.8-21-14.4-17.1c-7.1,3.2-3.4,9.7-13.7,9.5
	c-7.6-0.1-4.4-7.8-11.7-10.1c-3.2-1-10.1-1.6-13.4,2.5c-3.1,3.8-5.9,94-6.4,110.9c0,1.5-1.3,2.7-2.7,2.7h-60.2
	c-1.7,0-3.2-1.4-3.2-3.2c-0.6-13.8-3-69.7-3.6-104.9c-0.1-6.5-1.2-9.1-10.9-8.1c-8.1,0.8-7.3,6-11.6,9.1c-2.6,1.9-7.8,1-10.4-0.9
	c-3.2-2.4-1.4-3.6-7.1-7.5c-2.5-1.7-11.1-2.2-14.6,2.5C321.9,148.8,326.6,176,327.5,180.2z"/>
</svg>
