<?xml version="1.0" encoding="utf-8"?>
<!-- Generator: Adobe Illustrator 26.0.3, SVG Export Plug-In . SVG Version: 6.00 Build 0)  -->
<svg version="1.1" id="Layer_1" xmlns="http://www.w3.org/2000/svg" xmlns:xlink="http://www.w3.org/1999/xlink" x="0px" y="0px"
	 viewBox="0 0 566.9 566.9" style="enable-background:new 0 0 566.9 566.9;" xml:space="preserve">
<style type="text/css">
	.st0{fill:none;stroke:#CC3F97;stroke-miterlimit:10;}
	.st1{fill:none;stroke:#1D000E;stroke-miterlimit:10;}
</style>
<path class="st0" d="M213.9,432.4c-37.6,0-48.4-2.3-53.6-4.3c-7.6-2.9-12.4-9.3-13.5-18c-0.8-6,0.2-12.3,1.3-17.6
	c1.7-8.4,7.8-20,13.3-30.2c0.8-1.4,1.6-2.8,1.8-3.3c24.3-50.6,30.5-67.9,35.5-81.8c1.8-5,3.5-9.6,5.7-15.2
	c13.2-32.2,18-75.6,20.6-98.9c0.7-6.4,1.3-11.5,1.9-14.9c1.7-10.2,8.2-16.7,17.2-17.3c0.4,0,0.7,0,1.1,0c6.9,0,11.8,4.7,15.3,8.1
	c1,1,2.4,2.4,3.3,3c2.8-0.3,3.6-0.8,3.6-0.8c0.1-0.1,0.5-0.8,0.8-1.3c1.6-2.9,5.3-9.6,15.6-9.8l0.3,0c8.7,0,12.8,6.1,14.8,9.7
	c0.9-0.7,2-1.6,3-2.6c3.7-3.3,8.7-7.8,16.1-8.1c0.2,0,0.5,0,0.7,0c10.6,0,18.3,8.5,20.1,22.3c1.3,9.1,2.6,20.1,3.9,32.7
	c2.2,21.9,4.9,34.6,16.3,84.2c3.3,14.3,20.7,53.9,44.1,95.4c1.1,1.9,2.5,4.1,4,6.5c5.3,8.4,10.9,17.1,11,25.9c0,0.2,0,0.4,0.1,0.6
	c0.4,3.5,1.3,12.7-5.1,20c-4.5,5.2-11.4,8-20.5,8.3c-2.2,0.1-8.5,0.5-17.3,1C339.7,428,265.5,432.4,213.9,432.4z"/>
<path class="st0" d="M163.8,418.8c-9.4-3.6-8-14.9-6-24.4c2-9.6,12.7-27.7,14.3-31.2c33.2-69,33.1-77,41.5-97.5
	c17.3-42.2,20.6-100.9,23.1-115.8c0.8-4.6,3-8.7,8.2-9.1c6.2-0.5,11.6,11.6,18.6,11.2c17.4-1,10.1-11.8,20.5-12
	c7.7-0.1,5.9,11.8,13.7,10.9c8.9-1.1,12.9-11.6,20.7-11.9c9-0.3,10.5,12.8,10.7,13.8c1.6,11.3,3,23.8,3.8,32.3
	c2.2,22.3,4.8,34.9,16.6,85.4c3.7,16.2,22.2,57.3,45.1,98c4.8,8.4,13.6,19.7,13.7,27.7c0,3,4,18.1-15.9,18.8
	C376.7,415.6,189.4,428.6,163.8,418.8z"/>
<path class="st1" d="M223.1,400.1c-5.9,0-10.1-2-12.5-6.1c-3.6-6.1-0.4-12.6,1.4-15.9c0.6-1.4,2.6-6.5,4.1-10.3
	c2.2-5.7,3.6-9.3,4.1-10.3c12.8-30.4,23-71.7,29.2-96.4c1.4-5.5,2.6-10.3,3.6-14.1c0.7-2.8,1.5-5.7,2.3-8.6
	c5.8-22.1,11.8-44.9,16.6-55c2.1-4.4,6.5-7.1,11.3-7.1c4.9,0,9.2,2.7,11.3,7.1c3.8,7.9,9,23.9,14.5,40.8c3,9.2,6.1,18.7,8.7,26.1
	c2.3,6.5,5.6,16.1,9.1,26.2c7.2,21,16.1,47.1,20.4,57.2c1.4,3.4,2.9,7,4.4,10.9c3.4,8.5,6.9,17.3,10,23c0.8,1.5,1.7,3,2.4,4.2
	c3.2,5.6,6.6,11.3,3,17.7c-3.6,6.3-11.1,6.5-13.9,6.5c-19.4,0.3-68.8,2.1-101.5,3.2c-14.2,0.5-24.5,0.8-27.6,0.9
	C223.6,400.1,223.4,400.1,223.1,400.1z"/>
<path class="st1" d="M223.6,390.1c-5.9,0.2-5.8-2-2.7-7.8c0.3-0.5,7.5-19.1,8.3-21.1c15.9-37.9,27.7-90.9,33.2-111.8
	c6.1-23.3,13.2-51.4,18.2-61.9c0.9-2,3.8-2,4.8,0c5.6,11.6,15.5,45.5,22.8,65.9c7.1,20,23.1,68.6,29.6,84
	c4.6,11,10.1,25.9,14.9,34.8c5.5,10.1,9.4,13.6,0.1,13.8C324.8,386.5,233.7,389.9,223.6,390.1z"/>
</svg>
