<?xml version="1.0" encoding="utf-8"?>
<!-- Generator: Adobe Illustrator 26.0.3, SVG Export Plug-In . SVG Version: 6.00 Build 0)  -->
<svg version="1.1" id="Layer_1" xmlns="http://www.w3.org/2000/svg" xmlns:xlink="http://www.w3.org/1999/xlink" x="0px" y="0px"
	 viewBox="0 0 566.9 566.9" style="enable-background:new 0 0 566.9 566.9;" xml:space="preserve">
<style type="text/css">
	.st0{fill:none;stroke:#000000;stroke-miterlimit:10;}
</style>
<path class="st0" d="M173.1,425.6c-7.7,0-12.5-3.3-12.5-8.6c0-15.1,2.7-31.8,5.7-49.4c3.4-20.9,7-42.5,7.1-65.8
	c0.1-27.4-0.5-96.9-1.5-127.6l-0.1-3.6c-0.6-18-1-28,13.3-29.1c0.9-0.1,1.7-0.1,2.5-0.1c10.1,0,11.5,5.9,12.6,10.7
	c0.3,1.3,0.6,2.6,1.1,3.8c1.2,2.9,2.8,4.4,4.7,4.4c2.3,0,4.8-2,5.8-3.8c2.2-3.9,3.5-6.1,6.4-10.3c1.6-2.3,5.5-4.6,10.5-4.6
	c1.3,0,2.6,0.2,3.9,0.5c2,0.5,9,2.9,12.9,13.4c3.6,9.5,5.4,15.8,6.7,20.4c0.7,2.5,1.3,4.5,1.9,6.2c3,8.3,4.8,15.4,6.6,22.3
	c1.4,5.3,2.8,10.7,4.7,16.7c3.7,11.4,9,24.5,17.7,24.5l0.3,0c4.1-0.1,12.9-9.9,17-24.4l1.4-5c2.8-10.1,3.3-11.9,8.9-30.1
	c1.3-4.1,2.4-8.1,3.5-12c2.4-8.4,4.5-15.7,6.8-21.1c3.6-8.4,8.8-12.6,15.5-12.6c1.2,0,2.2,0.1,2.9,0.2l0.1,0
	c8.4,1.2,10.3,6.4,11.5,9.9c0.1,0.3,0.2,0.6,0.3,0.8c1.9,5,4.4,7.8,7.1,7.8c1.7,0,3.6-1,5.3-2.9c1.3-1.4,1.8-3.3,2.3-5.4
	c1.1-4.2,2.5-9.4,11.6-9.4c1,0,2,0.1,3.2,0.2c8.9,0.9,13.3,6,13.4,15.5c0.1,9.4-0.2,16.9-0.5,25c-0.4,9.2-0.8,18.8-0.6,32
	c0.1,3.4,0,7.5-0.2,13.7c-0.3,11.4-0.7,30.4-0.5,64.3c0.2,38.9,3.7,59.9,7.1,75.4c4.8,22.4,7.1,43.7,5.5,51.8
	c-1.2,6.1-8.3,6.3-13.9,6.4l-1.1,0c-0.2,0-0.4,0-0.6,0c-6.9,0-11.6-2.8-18-10.8c-1.5-1.9-2.7-2.2-4.8-2.2c-0.4,0-0.8,0-1.2,0l-0.5,0
	c-1.9,0-2,0.1-4.3,2.4c-0.8,0.8-1.8,1.8-3.1,3c-5.2,4.8-8.2,6.2-16.2,7.5c-0.4,0.1-0.8,0.1-1.3,0.1c-3.6,0-9.1-2-12.2-5.4
	c-1.8-2-2.6-4.4-2.4-6.9c0.6-5.8,1.2-10.9,1.8-15.9c2.1-18.6,3.9-34.7,6.6-69.5c2.6-33.8,5.1-82.9,2.6-89.5
	c-2.2,0.2-3.2,3.2-3.5,4.9c-3.4,16.2-6.2,26.4-8.3,33.9c-0.8,2.9-1.4,5.4-2.1,7.9c-2.4,9.3-4.3,16.7-10.6,30.2
	c-3.2,6.7-7.9,7.7-10.5,7.7c-3.5,0-7.1-1.7-9.9-4.7c-1.8-1.9-5.9-4.7-7.8-4.8c-1.4,0-6,3-8.9,5.7c-2.3,2-6.7,4.1-11.4,4.1
	c-5.7,0-9.8-3.1-11.6-8.6c-2.2-6.6-4.9-17.5-8-30.1c-3.5-14-7.4-29.8-11.6-43.8c-0.4-1.5-1.1-2.2-1.6-2.5
	c-3.1,25.7,1.5,118.3,10,169.6c0.6,3.5,1,8.6-1.9,12.3c-2.1,2.7-5.6,4.2-10.3,4.6c-1.2,0.1-2.3,0.1-3.3,0.1c-7,0-9.8-2.1-12.6-4.1
	l-0.6-0.4c-3.2-2.4-5-4.1-6.3-5.4c-1.7-1.7-2.2-2.2-4.4-2.5c-0.5-0.1-1-0.1-1.4-0.1c-1.8,0-4.3,1-10.6,7.9
	C185.6,423.9,178.4,425.6,173.1,425.6C173.1,425.6,173.1,425.6,173.1,425.6z"/>
<path class="st0" d="M173.9,174c1,30.2,1.6,99.9,1.5,127.7c-0.2,43.9-12.8,83.1-12.8,115.3c0,9.5,19.7,7.5,24.8,2
	c8.2-8.9,10.7-8.9,13.8-8.5c4.8,0.6,3.9,2.6,11.6,8.2c3.3,2.4,5.8,4.8,15.1,4.1c11.3-0.9,11.5-8.3,10.4-14.6
	c-8.7-52.6-13.3-146-9.9-171c0.2-1.8,4-1.7,5.4,2.9c8,26.8,15.1,60.2,19.6,73.9c3.5,10.8,15.6,7.4,19.8,3.6c2-1.8,7.8-6.3,10.3-6.2
	c3,0.1,7.6,3.7,9.2,5.4c4.8,5,12.9,6.6,17.2-2.5c7.9-16.8,8.8-24.1,12.6-37.7c2.2-8.1,5-18,8.2-33.7c1.5-7.2,5.8-6.6,6.4-6.5
	c5.2,0.6-0.9,83.6-1.6,91.6c-3.4,44.4-5.5,58.7-8.3,85.5c-0.7,6.9,9.7,10.6,13.5,10c7.7-1.3,10.3-2.5,15.2-7c5.4-5,5.2-5.9,8.7-6
	c3.1-0.1,5.5-0.3,8.1,2.9c6.4,8,10.6,10.2,17.1,10.1c5.6-0.1,12.2,0.1,13.1-4.8c1.4-7.2-0.3-27.4-5.4-51
	c-3.4-15.9-6.9-37.4-7.1-75.8c-0.3-51.5,0.9-68.1,0.7-77.9c-0.5-24.7,1.4-36.9,1.1-57c-0.1-9.9-5.3-12.9-11.6-13.6
	c-15.2-1.6-10.4,8.5-15.4,14c-4.6,5-11.5,6-15.8-5.5c-1.3-3.5-2.4-8.4-10.2-9.5c-2.9-0.4-10.8-1.7-16.4,11.2
	c-3.3,7.7-6.3,19.9-10.3,32.9c-6.4,20.8-6.1,20.2-10.3,35.1c-4.1,14.7-13.4,25.7-18.8,25.9c-10.3,0.3-16.1-14-19.9-25.9
	c-4.5-13.8-6-24.3-11.3-39c-1.8-5.1-3.2-12-8.6-26.6c-3.1-8.3-8.2-11.4-11.5-12.1c-5.8-1.4-10.6,1-12.3,3.4
	c-2.9,4.2-4.2,6.4-6.3,10.1c-2.3,4.1-10.2,8.7-14.1-0.8c-2.4-6-0.6-14.2-14.2-13.1C172,144.3,173.2,153.5,173.9,174z"/>
</svg>
