<?xml version="1.0" encoding="utf-8"?>
<!-- Generator: Adobe Illustrator 26.0.3, SVG Export Plug-In . SVG Version: 6.00 Build 0)  -->
<svg version="1.1" id="Layer_1" xmlns="http://www.w3.org/2000/svg" xmlns:xlink="http://www.w3.org/1999/xlink" x="0px" y="0px"
	 viewBox="0 0 566.9 566.9" style="enable-background:new 0 0 566.9 566.9;" xml:space="preserve">
<style type="text/css">
	.st0{fill:none;stroke:#32409A;stroke-miterlimit:10;}
</style>
<path class="st0" d="M393.4,428.6c-0.8,0-1.7,0-2.7-0.1c-1.1-0.1-2.3-0.1-3.8-0.1c-16.8-0.2-33.2-0.5-49.2-0.8
	c-41-0.7-79.7-1.3-112.5-1.3c-20.7,0-37.7,0.2-51.9,0.8l-0.2,0c-1,0-2.4-0.3-3.7-1.9c-7-8.6-4-52.7-0.6-68.7c0.9-4.1,2.8-8,5.6-11.2
	c10.4-11.8,36-40.6,47.8-53.5c8.5-9.3,5.4-22.2-1.6-30.8c-5.8-7.2-12.9-17.4-20.4-28.2c-8.9-12.8-18.2-26.1-25.8-35.1
	c-5.3-6.3-5.6-43.3-0.5-54.3c1.3-2.8,3-4.2,5.1-4.2l6.3,0c56.3,0,101.2-0.7,134-1.2c19.2-0.3,34.3-0.5,45.4-0.5c1.2,0,2.3,0,3.3,0
	c9.6,0,12.7,4.8,13.7,7.6c2.1,6-1.2,13.6-5.5,17.1c-0.7,0.5-1.2,1-1.8,1.4c-2.9,2.3-3.5,2.8-4,4.1c-0.7,2.2,0.4,3.7,2.3,6l0.1,0.1
	c0.4,0.5,1.1,1,2,1.6c1.4,0.9,3.1,2.1,4.8,4c4.2,4.6,3.5,12.3,2.1,15.5c-1.4,3.4-4.8,7.5-13,7.5c0,0,0,0,0,0c-1.1,0-2.3-0.1-3.5-0.2
	c-24.5-3.1-55.6-5.3-77.3-5.4c0,0,0,0,0,0c-2,0-3.7,1-4.7,2.6c-1.1,1.9-1,4.3,0.3,6.4c4.8,7.9,11.2,22.1,16.9,34.7
	c3.6,8,7.1,15.6,9.6,20.5c5,9.7,4.7,20.2-0.8,28.1c-2,2.9-4.2,6.1-6.5,9.6c-10.6,15.7-23.9,35.3-34.4,45.9c-2.3,2.3-6.2,10.9-4,16.2
	c1.2,2.9,4.1,4.5,8.7,4.6c3.4,0.1,7.2,0.2,11.6,0.2c9.8,0,20.8-0.3,32.4-0.5c12.2-0.3,24.9-0.6,36.7-0.6c19.8,0,33.2,0.9,41.9,2.7
	c3.4,0.7,5.7,4.4,5.9,9.5c0.3,6.6-3,14.7-10.8,17.1c-1,0.3-1.4,1.6-1.5,2.8c-0.2,2.4,0.8,5.4,3.2,6.5c7.7,3.7,10.6,9.9,8.6,17.9
	C400.1,426.1,398.6,428.6,393.4,428.6z"/>
<path class="st0" d="M368.4,139.3c-29.6-0.2-93.1,1.9-189.1,1.8c-8.5,0-8.2,49.2-3.1,55.3c14,16.7,33.5,47.5,46.2,63.3
	c8.2,10.2,10.3,23.8,1.5,33.4c-11.9,13-38,42.4-47.8,53.5c-2.6,2.9-4.4,6.5-5.2,10.3c-3.8,17.8-6.5,68.6,2.4,68.3
	c50.6-1.8,127.5,0.1,213.7,1.3c8.7,0.1,10.5,1.9,12.6-6.2c1.5-5.7,0.4-11.7-7.5-15.6c-5.3-2.6-5.7-11.7-1.4-13
	c11.4-3.5,11.6-21.4,5.1-22.8c-25.9-5.6-88.6-0.6-122.3-1.7c-17.7-0.6-10.3-19.9-6-24.2c12.7-12.8,29.9-39.6,40.7-55.2
	c5.4-7.8,5-17.6,0.6-26.1c-6.4-12.4-18.6-42.3-26.4-55.1c-3.2-5.3-0.1-12,6.1-12c21.4,0.2,52.2,2.2,77.5,5.4
	c8.9,1.1,12.9-2.2,14.5-6c1.1-2.6,1.8-9.5-1.8-13.4c-2.7-3-5.6-4.1-6.9-5.6c-1.8-2.1-3.9-4.5-2.8-8c0.7-2.4,2-3.1,6.4-6.5
	C381.5,155.6,385.7,139.4,368.4,139.3z"/>
</svg>
