<?xml version="1.0" encoding="utf-8"?>
<!-- Generator: Adobe Illustrator 26.0.3, SVG Export Plug-In . SVG Version: 6.00 Build 0)  -->
<svg version="1.1" id="Layer_1" xmlns="http://www.w3.org/2000/svg" xmlns:xlink="http://www.w3.org/1999/xlink" x="0px" y="0px"
	 viewBox="0 0 566.9 566.9" style="enable-background:new 0 0 566.9 566.9;" xml:space="preserve">
<style type="text/css">
	.st0{fill:none;stroke:#454EA1;stroke-miterlimit:10;}
</style>
<path class="st0" d="M393.4,436.6c-1,0-2-0.1-3.1-0.1c-1.1-0.1-2.2-0.1-3.5-0.1c-16.8-0.2-33.3-0.5-49.2-0.8
	c-41-0.7-79.6-1.3-112.4-1.3c-20.6,0-37.5,0.2-51.6,0.7l-0.4,0c-3.8,0-7.3-1.7-9.8-4.8c-2-2.4-6.6-8.1-5.9-36.8
	c0.3-14,1.8-29.5,3.7-38.6c1.2-5.5,3.7-10.6,7.5-14.8c10.4-11.8,36-40.6,47.9-53.6c5.7-6.2,2.5-14.9-1.9-20.5
	c-6-7.4-13.1-17.7-20.7-28.6c-8.8-12.7-18-25.8-25.4-34.6c-1.4-1.7-5.7-6.7-5.9-30.3c-0.1-6.8,0.2-23.6,4.4-32.5
	c3.7-7.9,9.8-8.8,12.3-8.8l6.3,0c56.2,0,101.1-0.7,133.8-1.2c19.2-0.3,34.4-0.5,45.6-0.5c1.2,0,2.3,0,3.4,0
	c15.1,0.1,19.8,9.1,21.1,13c3.3,9.6-1.5,20.7-8.1,25.9c-0.4,0.3-0.8,0.6-1.1,0.9c1.5,1,3.5,2.5,5.5,4.7c6.8,7.5,5.8,18.6,3.6,23.9
	c-3.3,7.8-10.7,12.3-20.3,12.3c0,0,0,0,0,0c-1.4,0-3-0.1-4.5-0.3c-22.7-2.8-51-4.9-72.1-5.3c4.7,8.5,10.4,21.1,15.5,32.5
	c3.6,7.9,7,15.5,9.4,20.1c6.4,12.3,5.9,25.9-1.3,36.3c-2,2.8-4.2,6.1-6.5,9.5c-10.8,15.9-24.2,35.8-35.2,46.9
	c-1.2,1.4-2.5,5.3-2.5,7.2c0.4,0.1,0.9,0.2,1.7,0.2c3.3,0.1,7,0.2,11.3,0.2c9.7,0,20.6-0.3,32.2-0.5c12.3-0.3,25-0.6,36.9-0.6
	c20.4,0,34.3,0.9,43.6,2.9c7,1.5,11.8,8.2,12.2,17c0.3,7.5-2.7,16.5-9.9,21.7c8.3,5.7,11.7,14.7,9.1,24.8
	C408.1,426.8,405.6,436.6,393.4,436.6z"/>
<path class="st0" d="M368.4,139.3c-29.6-0.2-93.1,1.9-189.1,1.8c-8.5,0-8.2,49.2-3.1,55.3c14,16.7,33.5,47.5,46.2,63.3
	c8.2,10.2,10.3,23.8,1.5,33.4c-11.9,13-38,42.4-47.8,53.5c-2.6,2.9-4.4,6.5-5.2,10.3c-3.8,17.8-6.5,68.6,2.4,68.3
	c50.6-1.8,127.5,0.1,213.7,1.3c8.7,0.1,10.5,1.9,12.6-6.2c1.5-5.7,0.4-11.7-7.5-15.6c-5.3-2.6-5.7-11.7-1.4-13
	c11.4-3.5,11.6-21.4,5.1-22.8c-25.9-5.6-88.6-0.6-122.3-1.7c-17.7-0.6-10.3-19.9-6-24.2c12.7-12.8,29.9-39.6,40.7-55.2
	c5.4-7.8,5-17.6,0.6-26.1c-6.4-12.4-18.6-42.3-26.4-55.1c-3.2-5.3-0.1-12,6.1-12c21.4,0.2,52.2,2.2,77.5,5.4
	c8.9,1.1,12.9-2.2,14.5-6c1.1-2.6,1.8-9.5-1.8-13.4c-2.7-3-5.6-4.1-6.9-5.6c-1.8-2.1-3.9-4.5-2.8-8c0.7-2.4,2-3.1,6.4-6.5
	C381.5,155.6,385.7,139.4,368.4,139.3z"/>
</svg>
