<?xml version="1.0" encoding="utf-8"?>
<!-- Generator: Adobe Illustrator 26.1.0, SVG Export Plug-In . SVG Version: 6.00 Build 0)  -->
<svg version="1.1" id="Layer_1" xmlns="http://www.w3.org/2000/svg" xmlns:xlink="http://www.w3.org/1999/xlink" x="0px" y="0px"
	 viewBox="0 0 566.9 566.9" style="enable-background:new 0 0 566.9 566.9;" xml:space="preserve">
<style type="text/css">
	.st0{fill:none;stroke:#37409A;stroke-miterlimit:10;}
	.st1{fill:none;stroke:#54C8E4;stroke-miterlimit:10;}
	.st2{fill:none;stroke:#EAA822;stroke-miterlimit:10;}
	.st3{fill:none;stroke:#007E49;stroke-miterlimit:10;}
	.st4{fill:none;stroke:#CD1D5D;stroke-miterlimit:10;}
</style>
<image style="overflow:visible;" width="5100" height="7020" xlink:href="../../../ScreenShots/2022-03-24/001.jpg"  transform="matrix(-2.315525e-03 0.12 -0.12 -2.315525e-03 951.5408 677.5529)">
</image>
<path class="st0" d="M310.3,265.3c0,0-18.2-6.4-25.6-17.7c-3.6-5.5-5.6-18.9-0.3-27.3c2.8-4.4,5.2-7.2,7.8-8.8c4.8-3,4.5-2.3,8.7-4
	l3.3-11.9c0.1-0.1,0.3-0.1,0.3,0l1.4,4.7c0,0.2,0.3,0.2,0.3,0l3-12.6c0-0.2,0.3-0.2,0.3,0l2.4,13.1c0,0.2,0.2,0.2,0.3,0l1.9-4.1
	c0.1-0.1,0.3-0.1,0.3,0l1.1,9.5c0.2,1.4,0.1,1.4,0.2,1.4c1.3-0.3,10.1,2.5,15.6,12.5c4.5,8.2,4.4,18.1,0.8,24
	C324.6,257,310.3,265.3,310.3,265.3z"/>
<path class="st0" d="M296.4,225.2c-2.3,0.5-3.5,3.4-3.1,5.7c0.6,2.7,3.3,5.2,6,4.5c2.5-0.7,3.8-4,3.1-6.5
	C301.8,226.1,298.6,224.7,296.4,225.2z"/>
<path class="st0" d="M297.3,228.7c-0.9,0.2-1.6,0.8-1.7,1.9c-0.1,1.3,0.8,2.5,1.9,2.7c1.6,0.3,3-0.9,2.9-2.3
	C300.3,229.6,298.8,228.4,297.3,228.7z"/>
<path class="st0" d="M314.7,223.6c-2.3,0.5-3.5,3.4-3.1,5.7c0.6,2.7,3.3,5.2,6,4.5c2.5-0.7,3.8-4,3.1-6.5
	C320,224.5,316.8,223.1,314.7,223.6z"/>
<path class="st0" d="M315.6,227.1c-0.9,0.2-1.6,0.8-1.7,1.9c-0.1,1.3,0.8,2.5,1.9,2.7c1.6,0.3,3-0.9,2.9-2.3
	C318.6,228.1,317.1,226.8,315.6,227.1z"/>
<path class="st0" d="M304.1,239.3l7.6-0.4c0.2,0,0.4,0.2,0.3,0.4l-3.5,10c-0.1,0.3-0.5,0.3-0.6,0l-4.1-9.6
	C303.7,239.5,303.9,239.3,304.1,239.3z"/>
<path class="st0" d="M270.2,281.4l6.9,6.9l2.3-4.2h10.2l1,6.9l5.4-5.7l6.9,7.4l7.2-8.4l7.3,8.1l1.3-7.9l8.4-3.8l2.8,9.7l2.1-12.5
	l5.7-2.8c0,0,5,19.9-1.7,28.9c-6.5,8.6-16.7,10.4-23.8,11.6c-3.9,0.7-13.8,2.2-24.7-2.4c-3.6-1.5-9.5-4-13.8-10.1
	C267.5,293.8,270.2,281.4,270.2,281.4z"/>
<path class="st1" d="M270.2,281.4c0-1.5-0.1-2.2,0.4-3.5c0.2-0.6,4.2-3.2,6-4.6c3.2-2.5,5.7-4.6,7.1-5.8c11.1-9.3,9.4-11.1,9.4-11.1
	l0,0c6.9,4.9,17.1,9.1,17.1,9.1s7.6-5.5,9.9-7.3c6.1-5,21.1,7.8,18,17l-5.9,2.6l-2.2,13l-2.6-9.7l-8.5,3.5l-1.3,7.7l-7.3-7.6
	l-7.1,7.9l-7.1-6.9l-5.2,5.2l-1.1-6.5l-10.3-0.2l-2.2,4L270.2,281.4z"/>
<path class="st1" d="M297,322.8c0,0,0.4-7-0.1-7c-1.5-0.2-3.1-0.6-4.8-1.1c-1.3-0.4-1,8-1,8s-6.6-1.6-8-0.7c-1,0.6-1.9,3.9-0.6,3.9
	c6.6-0.1,13.6,1.1,18.4,1.1c1.6,0,1-4,0.2-4.5C300.1,321.8,297,322.8,297,322.8z"/>
<path class="st1" d="M315.7,323l-0.2-7.9c-0.8,0.1-2.7,0.8-4.2,0.7l0.5,7.3c0,0-3.8-1.4-4.8-0.1c-0.8,1-1.2,3.3,0.3,4
	c0.7,0.3,14.1,0.3,14.4,0.2c2.4-0.7,1.4-3.8,0-4.7C320.1,321.4,315.7,323,315.7,323z"/>
<path class="st2" d="M293.2,256.4c-1.1-1.8-13.1,1.9-16.1,3.2c-5.6,2.4-13.5,8.2-14,12.2c-0.1,0.6,3.1,7,3.9,8.5
	c0.1,0.2,0.3,0.2,0.4,0.1C270.2,278.2,295.2,259.7,293.2,256.4z"/>
<path class="st2" d="M320.9,257.6c0,0,3.5-3.4,10.6-2.1c6.5,1.3,12.5,7.2,12.4,10.5c0,0.1,0,0.2-0.1,0.2l-3.9,4.5
	c-0.1,0.1-0.4,0.2-0.5,0c-2.3-3.6-4.5-7.8-8.1-10.5C324.5,255.1,320.9,257.6,320.9,257.6z"/>
<path class="st3" d="M292.6,255.7c0,0-9.3-5.3-11.1-17.4c-1.6-10.8,2-17.9,7-23.5c5.6-6.2,12.4-7.3,12.4-7.3l3-12
	c0.2-0.5,0.9-0.5,1,0l1.3,5.1l3-13c0.1-0.3,0.5-0.3,0.5,0l2.6,13.3l1.9-4.1c0.1-0.2,0.3-0.1,0.3,0.1l1.2,10.9c0,0,9.4,3.4,13.7,9.6
	c9.2,13.2,5.1,24.1,1.3,30.5c-2.5,4.3-9.3,9.1-9.3,9.1s3.8-2.8,9.8-1.5c6.1,1.3,11.8,5.8,12.7,10.5c0,0-3.4,4-4.2,4.8
	c-0.5,0.5-2-1.9-2-1.9s1.7,5.1,0,6.3c0,0,2.8,13.4,1.3,20.9c-0.7,3.8-2,7.8-6.6,11.7c-6.8,5.7-17.3,7.4-17.3,7.4l0.3,7.7
	c0,0,4.2-1.8,6.3-0.4c0.5,0.3,0.9,1.1,1.2,2c0.4,1.4-0.6,2.8-2.1,2.7l-13.1-0.4c-1,0-1.7-0.8-1.7-1.8v-0.7c0-1.3,1.2-2.3,2.5-2
	l3,0.6l-0.5-7.3c0,0-8.2,1.3-13.7,0.1c-0.5-0.1-0.3,0.3-0.3,0.7l-0.2,6.3l3-0.6c0.7-0.1,1.4,0.3,1.5,1l0.6,2.2
	c0.2,0.7-0.5,1.6-1.3,1.6l-18.3-1.1c-0.8,0-0.6-0.9-0.5-1.7l0.3-0.9c0.4-1.2,1.6-1.9,2.8-1.7l6,1.1c-0.4-3.3,0.4-8.1,0.4-8.1
	s-6.5-2.3-9.4-3.9c-3.2-1.8-8.4-6.7-10-10c-2.7-5.8-2.5-11.5-2.5-15.1c0,0,0.2-3.1,0.4-4.2c0.1-0.9,0.6-3.4,0.6-3.4l-3.5,2.5
	l-4.1-8.6c0,0,0.4-5,11.3-10.8C274.4,260.9,284,256,292.6,255.7z"/>
<path class="st0" d="M443.4,271c0,0-18.2-6.4-25.6-17.7c-3.6-5.5-5.6-18.9-0.3-27.3c2.8-4.4,5.2-7.2,7.8-8.8c4.8-3,4.5-2.3,8.7-4
	l3.3-11.9c0.1-0.1,0.3-0.1,0.3,0l1.4,4.7c0,0.2,0.3,0.2,0.3,0l3-12.6c0-0.2,0.3-0.2,0.3,0l2.4,13.1c0,0.2,0.2,0.2,0.3,0l1.9-4.1
	c0.1-0.1,0.3-0.1,0.3,0l1.1,9.5c0.2,1.4,0.1,1.4,0.2,1.4c1.3-0.3,10.1,2.5,15.6,12.5c4.5,8.2,4.4,18.1,0.8,24
	C457.7,262.7,443.4,271,443.4,271z"/>
<path class="st0" d="M429.6,230.9c-2.3,0.5-3.5,3.4-3.1,5.7c0.6,2.7,3.3,5.2,6,4.5c2.5-0.7,3.8-4,3.1-6.5
	C434.9,231.8,431.7,230.4,429.6,230.9z"/>
<path class="st0" d="M430.4,234.4c-0.9,0.2-1.6,0.8-1.7,1.9c-0.1,1.3,0.8,2.5,1.9,2.7c1.6,0.3,3-0.9,2.9-2.3
	C433.5,235.3,431.9,234.1,430.4,234.4z"/>
<path class="st0" d="M447.8,229.3c-2.3,0.5-3.5,3.4-3.1,5.7c0.6,2.7,3.3,5.2,6,4.5c2.5-0.7,3.8-4,3.1-6.5
	C453.1,230.2,450,228.8,447.8,229.3z"/>
<path class="st0" d="M448.7,232.8c-0.9,0.2-1.6,0.8-1.7,1.9c-0.1,1.3,0.8,2.5,1.9,2.7c1.6,0.3,3-0.9,2.9-2.3
	C451.7,233.8,450.2,232.5,448.7,232.8z"/>
<path class="st0" d="M437.2,245l7.6-0.4c0.2,0,0.4,0.2,0.3,0.4l-3.5,10c-0.1,0.3-0.5,0.3-0.6,0l-4.1-9.6
	C436.8,245.2,437,245,437.2,245z"/>
<path class="st0" d="M403.3,287.1l6.9,6.9l2.3-4.2h10.2l1,6.9l5.4-5.7l6.9,7.4l7.2-8.4l7.3,8.1l1.3-7.9l8.4-3.8l2.8,9.7l2.1-12.5
	l5.7-2.8c0,0,5,19.9-1.7,28.9c-6.5,8.6-16.7,10.4-23.8,11.6c-3.9,0.7-13.8,2.2-24.7-2.4c-3.6-1.5-9.5-4-13.8-10.1
	C400.6,299.5,403.3,287.1,403.3,287.1z"/>
<path class="st1" d="M403.3,287.1c0-1.5-0.1-2.2,0.4-3.5c0.2-0.6,4.2-3.2,6-4.6c3.2-2.5,5.7-4.6,7.1-5.8c11.1-9.3,9.4-11.1,9.4-11.1
	l0,0c6.9,4.9,17.1,9.1,17.1,9.1s7.6-5.5,9.9-7.3c6.1-5,21.1,7.8,18,17l-5.9,2.6l-2.2,13l-2.6-9.7l-8.5,3.5l-1.3,7.7l-7.3-7.6
	l-7.1,7.9l-7.1-6.9l-5.2,5.2l-1.1-6.5l-10.3-0.2l-2.2,4L403.3,287.1z"/>
<path class="st1" d="M430.1,328.5c0,0,0.4-7-0.1-7c-1.5-0.2-3.1-0.6-4.8-1.1c-1.3-0.4-1,8-1,8s-6.6-1.6-8-0.7
	c-1,0.6-1.9,3.9-0.6,3.9c6.6-0.1,13.6,1.1,18.4,1.1c1.6,0,1-4,0.2-4.5C433.2,327.5,430.1,328.5,430.1,328.5z"/>
<path class="st1" d="M448.8,328.7l-0.2-7.9c-0.8,0.1-2.7,0.8-4.2,0.7l0.5,7.3c0,0-3.8-1.4-4.8-0.1c-0.8,1-1.2,3.3,0.3,4
	c0.7,0.3,14.1,0.3,14.4,0.2c2.4-0.7,1.4-3.8,0-4.7C453.2,327.1,448.8,328.7,448.8,328.7z"/>
<path class="st2" d="M426.3,262.1c-1.1-1.8-13.1,1.9-16.1,3.2c-5.6,2.4-13.5,8.2-14,12.2c-0.1,0.6,3.1,7,3.9,8.5
	c0.1,0.2,0.3,0.2,0.4,0.1C403.3,283.9,428.3,265.4,426.3,262.1z"/>
<path class="st2" d="M454,263.3c0,0,3.5-3.4,10.6-2.1c6.5,1.3,12.5,7.2,12.4,10.5c0,0.1,0,0.2-0.1,0.2l-3.9,4.5
	c-0.1,0.1-0.4,0.2-0.5,0c-2.3-3.6-4.5-7.8-8.1-10.5C457.6,260.8,454,263.3,454,263.3z"/>
<path class="st3" d="M425.7,261.4c0,0-9.3-5.3-11.1-17.4c-1.6-10.8,2-17.9,7-23.5c5.6-6.2,12.4-7.3,12.4-7.3l3-12
	c0.2-0.5,0.9-0.5,1,0l1.3,5.1l3-13c0.1-0.3,0.5-0.3,0.5,0l2.6,13.3l1.9-4.1c0.1-0.2,0.3-0.1,0.3,0.1l1.2,10.9c0,0,9.4,3.4,13.7,9.6
	c9.2,13.2,5.1,24.1,1.3,30.5c-2.5,4.3-9.3,9.1-9.3,9.1s3.8-2.8,9.8-1.5c6.1,1.3,11.8,5.8,12.7,10.5c0,0-3.4,4-4.2,4.8
	c-0.5,0.5-2-1.9-2-1.9s1.7,5.1,0,6.3c0,0,2.8,13.4,1.3,20.9c-0.7,3.8-2,7.8-6.6,11.7c-6.8,5.7-17.3,7.4-17.3,7.4l0.3,7.7
	c0,0,4.2-1.8,6.3-0.4c0.5,0.3,0.9,1.1,1.2,2c0.4,1.4-0.6,2.8-2.1,2.7l-13.1-0.4c-1,0-1.7-0.8-1.7-1.8v-0.7c0-1.3,1.2-2.3,2.5-2
	l3,0.6l-0.5-7.3c0,0-8.2,1.3-13.7,0.1c-0.5-0.1-0.3,0.3-0.3,0.7l-0.2,6.3l3-0.6c0.7-0.1,1.4,0.3,1.5,1l0.6,2.2
	c0.2,0.7-0.5,1.6-1.3,1.6l-18.3-1.1c-0.8,0-0.6-0.9-0.5-1.7l0.3-0.9c0.4-1.2,1.6-1.9,2.8-1.7l6,1.1c-0.4-3.3,0.4-8.1,0.4-8.1
	s-6.5-2.3-9.4-3.9c-3.2-1.8-8.4-6.7-10-10c-2.7-5.8-2.5-11.5-2.5-15.1c0,0,0.2-3.1,0.4-4.2c0.1-0.9,0.6-3.4,0.6-3.4l-3.5,2.5
	l-4.1-8.6c0,0,0.4-5,11.3-10.8C407.5,266.6,417.1,261.7,425.7,261.4z"/>
<path class="st4" d="M454,263.3c0,0,3.5-3.4,10.6-2.1c9.8,1.9,13.8,10.8,13.6,14c0,0-1.7,1.4-2.3,1.9c-0.5,0.4-2.1,1.4-2.1,1.4
	c-2.4-3.7-5.7-9.8-9.3-12.6C457.6,260.8,454,263.3,454,263.3z"/>
</svg>
