<?xml version="1.0" encoding="utf-8"?>
<!-- Generator: Adobe Illustrator 26.0.3, SVG Export Plug-In . SVG Version: 6.00 Build 0)  -->
<svg version="1.1" id="Layer_1" xmlns="http://www.w3.org/2000/svg" xmlns:xlink="http://www.w3.org/1999/xlink" x="0px" y="0px"
	 viewBox="0 0 566.9 566.9" style="enable-background:new 0 0 566.9 566.9;" xml:space="preserve">
<style type="text/css">
	.st0{fill:none;stroke:#2CBDBA;stroke-miterlimit:10;}
</style>
<path class="st0" d="M83.1,333.3c-1-0.8-25.4-20.9-23.1-35l0.3-1.6l13.2-0.3l0,2c0.3,15.8,12.3,32,12.5,32.2L83.1,333.3z"/>
<path class="st0" d="M62,298.6l9.6-0.2c0.3,16.7,12.9,33.3,12.9,33.3S59.9,311.7,62,298.6z"/>
<path class="st0" d="M179.3,342.2c-13.4-0.7-27.4-13.9-32.7-18.9c-0.6-0.6-1.2-1.1-1.4-1.3l-6-3.7l7,0c0.6,0,1.1,0.3,1.3,0.5
	c2.1,1.2,16.9,9.7,31.9,9.7h2v14L179.3,342.2z"/>
<path class="st0" d="M179.4,330.3v9.9c-15.5-0.8-32.6-20-33.3-20C146.1,320.2,162.5,330.3,179.4,330.3z"/>
<path class="st0" d="M529.8,482.1c-28.8,0-52.9-19.2-53.8-20.6l-0.6-0.9l0.5-1l0.5-1.1l1.3,0c0.6,0,0.9,0.2,1.5,0.6
	c7.8,4.7,17,8,26.5,9.4c5.2,0.8,10.2,1.2,14.7,1.2c12.5,0,19.9-2.9,24.4-5.1c13.8-6.8,21.4-11.9,31-29.3c4.1-7.4,6.5-15.6,6.9-23.5
	c2.4-46.4-1.7-86.5-1.7-86.9l-0.4-3.8l3.3,1.8c0.1,0.1,15,8.2,23.4,11.3c11.1,4.2,22.4,4.7,26.5,4.7v-25.7l12.7,0l0.9,39.5l-1.7,0.2
	c-0.2,0-6,0.9-14.1,0.9c-10.8,0-25.3-1.5-35.6-8.2c0.7,10,2.3,36.4,1.6,69c-0.3,15.5-5.6,29.7-15.7,42.2c-2.9,3.6-18.7,21.6-44,24.9
	C535.2,482,532.5,482.1,529.8,482.1z"/>
<path class="st0" d="M635.7,315.1l8.8,0l0.8,35.8c0,0-34.9,5-51.7-9.6c0,0,2.8,31.1,1.9,73.2c-0.3,12.6-4,27.1-15.2,41
	c-1.9,2.3-17.4,20.9-42.7,24.2c-32,4.1-60-19-59.9-19.2c0.1-0.1,10.7,7.4,27.7,9.9c22.9,3.4,34.4-1.3,40.2-4.2
	c14.3-7.1,22.1-12.4,31.9-30.1c4.6-8.2,6.8-16.6,7.2-24.4c2.5-47.1-1.7-87.2-1.7-87.2s15.1,8.2,23.7,11.4
	c14.6,5.4,29.2,4.8,29.2,4.8V315.1z"/>
<path class="st0" d="M-43.9,498.1c-0.7-0.4-17.1-10.7-24.2-25.1c-4.3-8.8-13.3-32-3.3-58.3c9.5-25.3,24.3-33.2,35-39
	c13.1-7,23-8.3,37.9-8.3c0.6,0,3.6,0,3.6,0l0,1.9c0,0,0,2.7,0,5.4c-0.1,5-0.1,7.2-2.4,7.4c-13.6,0.7-20.9,1.6-37.3,13.8
	c-16.9,12.1-24.6,35.7-25.4,42.4c-1.4,12.6,1.6,23.1,3.4,29.4c4.5,15.7,15,27.2,15.1,27.3L-43.9,498.1z"/>
<path class="st0" d="M-42.8,496.4c0,0-16.5-10.2-23.4-24.3c-6-12.1-12-33.6-3.3-56.8c9.1-24.2,23-32,34.1-37.9
	c12.6-6.8,22.2-8.2,38.6-8.1c0,0,0.2,10.7-0.5,10.8c-14.4,0.8-21.9,2-38.4,14.1c-17.7,12.7-25.4,37.3-26.2,43.8
	c-1.5,13,1.6,23.7,3.5,30.2C-53.7,484.7-42.8,496.4-42.8,496.4z"/>
<path class="st0" d="M38.3,481.9c-0.4-0.2-9.4-4.6-14.3-13.7c-7.2-13.5-2.6-27.1-2.5-27.2c2.7-7.6,10-17.5,21.6-20.3
	c3.5-0.8,7.4-1.3,11.4-1.3c2.4,0,4.4,0.1,5.9,0.3l-0.8-27.6l13.7-0.2l2,41.9l-2.6-0.6c0,0-3.5-0.8-8.4-0.8c-2.1,0-4.1,0.1-6,0.4
	c-8,1.2-15.9,7.1-20.1,15.1c-1.7,3.3-4.5,10-3.1,17.7c1.5,8,5.6,13.1,5.7,13.1L38.3,481.9z"/>
<path class="st0" d="M61.6,394.2l9.8-0.1l1.7,37.4c0,0-6.9-1.7-15.2-0.4c-9.3,1.4-17.4,8.2-21.6,16.1c-1.4,2.6-4.9,10.1-3.3,19
	c1.6,8.6,6.1,14.1,6.1,14.1s-8.8-4.2-13.4-12.9c-6.4-11.9-2.9-24.3-2.4-25.6c2.9-8.2,10.3-16.7,20.2-19c9.7-2.3,18.9-0.6,18.9-0.6
	L61.6,394.2z"/>
<path class="st0" d="M228.7,251c-1.5,0-3.1-0.1-4.7-0.3c-12.2-1.5-21.4-10.6-21.8-11l-5.3-5.3l7.2,2c0,0,3.8,1,9.1,1
	c6,0,11.6-1.3,16.5-3.7c13-6.6,16-17.6,16.1-21.4c0.8-36.9-3.8-152.1-3.8-153.3L242,57l41.9-0.2l0.3,13.8l-26.9-0.3
	c0.7,15.1,4.9,106.9,3.7,148.9c-0.3,11-2,13.7-9.6,21.6C244.9,247.7,237.5,251,228.7,251z"/>
<path class="st0" d="M203.6,238.3c0,0,8.9,9,20.6,10.5c9.3,1.1,17.8-1,25.9-9.3c7.4-7.7,8.7-10.1,9-20.3
	c1.3-46.1-3.8-150.9-3.8-150.9l26.9,0.3l-0.2-9.8L244,59c0,0,4.6,116,3.8,153.4c-0.1,5.3-4.2,16.6-17.2,23.1
	C217.3,242.1,203.6,238.3,203.6,238.3z"/>
<path class="st0" d="M330.9,510.3c-4.4,0-8.7-0.5-12.9-1.4c-13.2-2.8-27.2-9-27.8-9.2l-0.4-0.2l-0.3-0.3c-1-1.1-24.2-26.3-21.5-59.7
	c1.7-21.3,17.2-37.8,23.8-43.9c16-14.9,31.5-17.1,39.3-17.1c2.9,0,4.6,0.3,4.7,0.3l1.5,0.3l0.1,1.5c0,0.2,1.4,17.7,1.3,28.2l0,2.3
	l-2.3-0.4c0,0-2.4-0.4-5.9-0.4c-8.4,0-23.5,2.1-29.5,16.1c-10.7,24.8,13.7,39.6,14.8,40.2l0.3,0.2l0.2,0.3
	c0.1,0.1,9.3,10.9,23.2,10.9c0.5,0,1,0,1.5,0c13.3-0.7,20.5-10.3,23.5-14.4c0.3-0.4,0.6-0.8,0.8-1.1c3.4-4.3,3.3-15.1,3.2-30.2
	c0-3.4-0.1-7.1-0.1-11c0-29.1-0.5-38.9-1-48.4c-0.1-1.7-0.2-3.4-0.3-5.2c-0.3-7.6-1.2-27.9-1.6-39.3c-0.3-7.7-1-26.8-1-26.8
	c-0.1-3.1-0.2-4.3,1.8-4.4l0.1,0l28.2,0.6l0.3,1.5c4.5,21.9,24.2,31,24.4,31.1l0.7,0.3l0.3,0.6c0.1,0.1,6.5,12.8,28,16.8l1.6,0.3
	v30.6l-1.9,0l-0.3,0c-2.9,0-27.8-0.4-50.4-14.5c0.2,6,0.8,20,2,47.1c1.6,34-0.9,51.4-9.4,64c-12.2,18.4-18.2,22-27,26.4
	C352.3,507.6,341.6,510.3,330.9,510.3z"/>
<path class="st0" d="M335.4,380.9c0,0,1.4,17.4,1.2,28c0,0-28.3-4.5-37.5,16.9c-11.5,26.8,15.6,42.7,15.6,42.7s10.3,12.5,26.4,11.6
	c15.7-0.9,23.5-13.4,25.8-16.3c4.7-5.8,3.5-20.2,3.5-42.4c0-34.4-0.7-42-1.2-53.6c-0.6-13.4-2.8-68.5-2.7-68.5l26.5,0.6
	c4.8,23.1,25.6,32.5,25.6,32.5s6.5,13.6,29.4,17.9v27c0,0-28.4,0.5-52.8-16.2c0,0,0.3,11.4,2.2,51c1.7,35.4-1.2,51.1-9,62.9
	c-12.2,18.3-18.1,21.6-26.3,25.7c-13.2,6.6-28.3,9.7-43.5,6.4c-13.2-2.8-27.4-9.1-27.4-9.1s-23.7-25.2-21-58.2
	c1.6-20.3,16.5-36.5,23.1-42.6C314.8,377,335.4,380.9,335.4,380.9z"/>
</svg>
