<?xml version="1.0" encoding="utf-8"?>
<!-- Generator: Adobe Illustrator 26.0.3, SVG Export Plug-In . SVG Version: 6.00 Build 0)  -->
<svg version="1.1" id="Layer_1" xmlns="http://www.w3.org/2000/svg" xmlns:xlink="http://www.w3.org/1999/xlink" x="0px" y="0px"
	 viewBox="0 0 566.9 566.9" style="enable-background:new 0 0 566.9 566.9;" xml:space="preserve">
<style type="text/css">
	.st0{fill:none;stroke:#F7EC13;stroke-width:1.9843;stroke-miterlimit:10;}
	.st1{fill:none;stroke:#F3931F;stroke-width:1.9843;stroke-miterlimit:10;}
</style>
<polygon class="st0" points="210.7,390.6 211.2,331.7 243.7,331.7 243.7,391.1 "/>
<polygon class="st0" points="221.1,341.6 220.7,380.8 233.7,381 233.7,341.6 "/>
<polygon class="st0" points="278.5,314.6 275.7,311 275.7,314.2 242.2,314.7 243.4,239.9 275.5,239.9 275.5,253.4 279.3,249.6 
	320.1,250.5 291.6,280 319.3,315.4 "/>
<polygon class="st0" points="253.2,249.8 265.6,249.8 265.6,277.5 283.3,259.7 297.1,259.9 278.4,279.3 298.6,305 283.4,304.8 
	269.1,286.6 265.6,289.9 265.7,304.4 252.3,304.6 "/>
<path class="st0" d="M246.4,207.4c-8.7,0-15.8-7.1-15.8-15.8c0-8.7,7.1-15.8,15.8-15.8c8.7,0,15.8,7.1,15.8,15.8
	C262.2,200.4,255.1,207.4,246.4,207.4z"/>
<circle class="st0" cx="246.4" cy="191.6" r="5.9"/>
<path class="st0" d="M272.9,386.2c-11.1,0-20.1-9-20.1-20.1c0-11.1,9-20.1,20.1-20.1s20.1,9,20.1,20.1
	C293,377.2,284,386.2,272.9,386.2z"/>
<circle class="st0" cx="272.9" cy="366.1" r="10.2"/>
<path class="st0" d="M359.7,320c-20,0-36.3-16.3-36.3-36.3c0-20,16.3-36.3,36.3-36.3c20,0,36.3,16.3,36.3,36.3
	C396,303.7,379.7,320,359.7,320z"/>
<circle class="st0" cx="359.7" cy="283.7" r="26.4"/>
<path class="st0" d="M356.6,393.5c-2.3,0-4.4-0.7-6.2-2l-4.4-3.3l0.4-5.4c0.2-2,1.1-5.8,5.6-8.2c0.3-0.2,0.7-0.4,1-0.7
	c0-0.1,0-0.2,0-0.3c-0.2-0.1-0.3-0.2-0.5-0.2c-5.8-1.4-7.3-6.1-7.6-7.5l-1.4-5.9l4.6-3.9c1.3-1.1,3.5-2.4,6.7-2.4
	c6.9,0,20.2,5.3,21,18.2c0.5,7.8-2.5,12.7-5.1,15.5C366.5,391.9,360.5,393.5,356.6,393.5z"/>
<path class="st0" d="M354.5,363.6c0.4-0.3,10.9,1.3,11.4,8.9c0.7,10.8-9.4,11.2-9.6,11.1c-0.2-0.1,4.1-1.5,5.9-6.1
	c1-2.6,0.7-6.8-0.5-8.7C358.6,363.8,354.3,363.7,354.5,363.6z"/>
<path class="st0" d="M312.8,371.5c-3.9,0-9.9-1.7-14.2-6.4c-2.6-2.8-5.6-7.9-4.9-15.7c1.2-13.3,15-17.8,21.2-17.8
	c3.3,0,5.6,1.4,6.9,2.5l4.6,4l-1.5,5.9c-0.4,1.4-2,6-7.8,7.3c-0.2,0-0.3,0.1-0.5,0.2c0,0.1,0,0.2,0,0.3c0.2,0.3,0.6,0.5,0.9,0.7
	c4.4,2.5,5.3,6.3,5.4,8.3l0.3,5.4l-4.4,3.2C317.1,370.9,315.1,371.5,312.8,371.5L312.8,371.5z"/>
<path class="st0" d="M315.2,341.7c-0.4-0.3-10.9,1.1-11.6,8.7c-0.9,10.8,9.2,11.4,9.4,11.2c0.2-0.1-4-1.6-5.8-6.3
	c-1-2.6-0.6-6.8,0.7-8.7C311.2,341.8,315.4,341.8,315.2,341.7z"/>
<polygon class="st1" points="182.9,270.2 170.6,270.1 170.6,237.6 233.4,237.6 225.1,270.6 216.2,270.5 216.7,317.1 183.4,317.3 "/>
<polygon class="st1" points="192.8,260.4 180.5,260.2 180.5,247.5 220.7,247.5 217.4,260.6 206.1,260.4 206.7,307.3 193.2,307.3 "/>
</svg>
