<?xml version="1.0" encoding="utf-8"?>
<!-- Generator: Adobe Illustrator 26.0.3, SVG Export Plug-In . SVG Version: 6.00 Build 0)  -->
<svg version="1.1" id="Layer_1" xmlns="http://www.w3.org/2000/svg" xmlns:xlink="http://www.w3.org/1999/xlink" x="0px" y="0px"
	 viewBox="0 0 566.9 566.9" style="enable-background:new 0 0 566.9 566.9;" xml:space="preserve">
<style type="text/css">
	.st0{fill:none;stroke:#F7EC13;stroke-miterlimit:10;}
	.st1{fill:none;stroke:#F7EC13;stroke-width:0.2835;stroke-miterlimit:10;}
	.st2{fill:none;stroke:#F7EC13;stroke-width:0.9921;stroke-miterlimit:10;}
	.st3{fill:none;stroke:#F3931F;stroke-miterlimit:10;}
</style>
<polygon class="st0" points="270.6,401.9 271,358.8 287.6,358.8 287.6,402.2 "/>
<polygon class="st0" points="272.9,360.8 272.6,400 285.6,400.2 285.6,360.8 "/>
<polygon class="st0" points="334.3,325.9 320.8,308.7 319.5,310 319.6,325.5 302.1,325.8 303.1,267 319.4,267 319.4,291.8 
	334.4,276.8 353.6,277.2 332.9,298.6 354.7,326.3 "/>
<polygon class="st0" points="305.1,269 317.5,269 317.5,296.7 335.2,278.8 349,279.1 330.3,298.5 350.5,324.2 335.3,323.9 
	321,305.8 317.5,309.1 317.6,323.6 304.1,323.8 "/>
<path class="st0" d="M298.3,218.7c-4.3,0-7.9-3.5-7.9-7.9c0-4.3,3.5-7.9,7.9-7.9c4.3,0,7.9,3.5,7.9,7.9
	C306.1,215.2,302.6,218.7,298.3,218.7z"/>
<circle class="st0" cx="298.3" cy="210.8" r="5.9"/>
<path class="st1" d="M324.7,397.4c-6.7,0-12.2-5.5-12.2-12.2S318,373,324.7,373s12.2,5.5,12.2,12.2S331.5,397.4,324.7,397.4z"/>
<circle class="st1" cx="324.7" cy="385.2" r="10.2"/>
<circle class="st2" cx="411.5" cy="302.9" r="28.4"/>
<circle class="st2" cx="411.5" cy="302.9" r="26.4"/>
<path class="st1" d="M408.5,404.7c-0.3,0-0.9,0-1.5-0.4l-0.9-0.7l0.1-1.1c0.1-1.1,0.9-1.6,1.4-1.8c0.9-0.5,3.5-1.8,4.7-4.9
	c0.8-2.1,0.5-5.6-0.4-6.9c-2.1-3.3-4.8-3.9-5.7-4.1c-0.4-0.1-1.5-0.4-1.8-1.6l-0.3-1.2l0.9-0.8c0.5-0.5,1.1-0.5,1.6-0.5
	c2.7,0,12.6,2.6,13.1,10.8c0.3,3.9-0.7,7.2-2.9,9.5C413.5,404.7,408.7,404.7,408.5,404.7z"/>
<path class="st1" d="M406.4,382.7c0.4-0.3,10.9,1.3,11.4,8.9c0.7,10.8-9.4,11.2-9.6,11.1c-0.2-0.1,4.1-1.5,5.9-6.1
	c1-2.6,0.7-6.8-0.5-8.7C410.4,383,406.2,382.9,406.4,382.7z"/>
<path class="st1" d="M364.7,382.8c-1.7,0-5.6-0.8-8.4-3.8c-2.2-2.4-3.2-5.7-2.8-9.7c0.7-7.9,10.1-10.5,13.3-10.5c0.3,0,1,0,1.6,0.5
	l0.9,0.8l-0.3,1.2c-0.3,1.2-1.4,1.5-1.8,1.5c-0.9,0.2-3.6,0.8-5.7,4c-0.9,1.3-1.3,4.8-0.5,6.9c1.2,3.1,3.6,4.5,4.6,5
	c0.5,0.3,1.3,0.7,1.4,1.8l0.1,1.1l-0.9,0.6C365.5,382.8,365,382.8,364.7,382.8C364.7,382.8,364.7,382.8,364.7,382.8z"/>
<path class="st1" d="M367.1,360.9c-0.4-0.3-10.9,1.1-11.6,8.7c-0.9,10.8,9.2,11.4,9.4,11.2c0.2-0.1-4-1.6-5.8-6.3
	c-1-2.6-0.6-6.8,0.7-8.7C363.1,361,367.3,361,367.1,360.9z"/>
<polygon class="st3" points="242.7,281.5 230.4,281.4 230.4,264.7 275.1,264.7 270.8,281.8 260,281.6 260.6,328.4 243.1,328.5 "/>
<polygon class="st3" points="244.6,279.6 232.4,279.4 232.4,266.7 272.6,266.7 269.3,279.8 258,279.6 258.6,326.4 245.1,326.5 "/>
</svg>
