<?xml version="1.0" encoding="utf-8"?>
<!-- Generator: Adobe Illustrator 26.0.3, SVG Export Plug-In . SVG Version: 6.00 Build 0)  -->
<svg version="1.1" id="Layer_1" xmlns="http://www.w3.org/2000/svg" xmlns:xlink="http://www.w3.org/1999/xlink" x="0px" y="0px"
	 viewBox="0 0 566.9 566.9" style="enable-background:new 0 0 566.9 566.9;" xml:space="preserve">
<style type="text/css">
	.st0{fill:none;stroke:#3BBFBE;stroke-miterlimit:10;}
</style>
<path class="st0" d="M88,339.3c-2,1.4-4.8,1.3-6.7-0.2c-9.8-8-31.4-26.7-29-41.9l1.3-8.2l27.8-0.6l0.2,10
	c0.1,7.6,6.9,18.9,11.9,26.4c2.7,4,1.7,9.5-2.3,12.3L88,339.3z"/>
<path class="st0" d="M62.2,298.6l9.6-0.2c0.3,16.7,12.9,33.3,12.9,33.3S60.1,311.7,62.2,298.6z"/>
<path class="st0" d="M179.1,350.2c-16.4-0.8-31.9-15.6-37.8-21.1c-0.3-0.3-0.5-0.5-0.8-0.7l-12.6-7.9c-4.7-2.9-2.6-10.2,2.9-10.2
	l15.5,0c1.4,0,3.4,0.3,5.5,1.7c2,1.2,15.1,8.5,27.7,8.5h9.9v30.3L179.1,350.2z"/>
<path class="st0" d="M179.6,330.3v9.9c-15.5-0.8-32.6-20-33.3-20C146.3,320.2,162.7,330.3,179.6,330.3z"/>
<path class="st0" d="M530,490.1c-16.7,0-31.6-5.8-41.1-10.7c-6.5-3.3-17.1-9.9-19.4-13.5l-2.9-4.6l5-10.6l6.3,0
	c2.8,0,4.7,1.2,5.6,1.7c6.8,4.1,15.2,7.1,23.5,8.3c4.8,0.7,9.4,1.1,13.5,1.1c10.7,0,16.8-2.3,20.9-4.3c12.9-6.4,19-10.5,27.6-26
	c3.5-6.4,5.6-13.3,6-20.1c2.4-45.8-1.7-85.2-1.7-85.6l-0.5-4.4c-0.6-6.1,5.8-10.4,11.1-7.4l3.9,2.1c0.1,0.1,14.6,7.9,22.4,10.8
	c5.6,2.1,11.2,3.1,15.8,3.7v-25.2l28.4,0l1.2,54.3l-8.7,1.3c-0.3,0-6.6,0.9-15.2,0.9c-8,0-17.7-0.8-26.9-3.6
	c0.7,13.3,1.3,33.2,0.8,56.7c-0.4,17.1-6.4,33.4-17.5,47c-3.2,4-20.8,24.1-49.1,27.8C536.1,489.9,533.1,490.1,530,490.1
	C530,490.1,530,490.1,530,490.1z"/>
<path class="st0" d="M635.9,315.1l8.8,0l0.8,35.8c0,0-34.9,5-51.7-9.6c0,0,2.8,31.1,1.9,73.2c-0.3,12.6-4,27.1-15.2,41
	c-1.9,2.3-17.4,20.9-42.7,24.2c-32,4.1-60-19-59.9-19.2c0.1-0.1,10.7,7.4,27.7,9.9c22.9,3.4,34.4-1.3,40.2-4.2
	c14.3-7.1,22.1-12.4,31.9-30.1c4.6-8.2,6.8-16.6,7.2-24.4c2.5-47.1-1.7-87.2-1.7-87.2s15.1,8.2,23.7,11.4
	c14.6,5.4,29.2,4.8,29.2,4.8V315.1z"/>
<path class="st0" d="M-37.4,504c-1.6,3.7-6.3,4.9-9.5,2.4c-8.3-6.4-22.4-18.5-28-29.9c-4.8-9.7-14.7-35.4-3.7-64.6
	c10.6-28.1,27.5-37.2,38.7-43.2c14.5-7.8,25.8-9.2,41.6-9.2c0.6,0,1.1,0,1.7,0l9.7,0.1l0.2,9.7c0,0.1,0,2.9,0,5.7
	c0,1.8-0.1,3.2-0.2,4.3c-0.7,9.9-8.2,10.8-9.7,10.9c-12.6,0.7-18.3,1.4-33,12.2l-0.1,0.1c-14.6,10.5-21.5,32-22.1,36.9
	c-1.2,11,1.4,20.2,3.2,26.3c3,10.4,10.8,20.4,14.4,24.7c1.2,1.4,1.4,3.3,0.7,4.9L-37.4,504z"/>
<path class="st0" d="M-42.6,496.4c0,0-16.5-10.2-23.4-24.3c-6-12.1-12-33.6-3.3-56.8c9.1-24.2,23-32,34.1-37.9
	c12.6-6.8,22.2-8.2,38.6-8.1c0,0,0.2,10.7-0.5,10.8c-14.4,0.8-21.9,2-38.4,14.1c-17.7,12.7-25.4,37.3-26.2,43.8
	c-1.5,13,1.6,23.7,3.5,30.2C-53.5,484.7-42.6,496.4-42.6,496.4z"/>
<path class="st0" d="M44.1,488.3c-1.1,2.4-4,3.3-6.3,2c-6-3.4-16.4-10.3-20.7-18.4c-8.8-16.5-3.2-32.9-3-33.6
	c4.4-12.5,15.1-22.5,27.3-25.4c3.4-0.8,7.1-1.3,10.9-1.4l-0.8-27.2l29.5-0.3l2.8,60.2L71,441.1c0,0-2.8-0.6-6.6-0.6
	c-1.7,0-3.3,0.1-4.9,0.3c-5.5,0.8-11.2,5.2-14.3,10.9c-1,1.9-3.3,7-2.3,12.5c1,5.7,4,9.6,4.1,9.6h0c1.4,1.9,1.7,4.4,0.7,6.5
	L44.1,488.3z"/>
<path class="st0" d="M61.8,394.2l9.8-0.1l1.7,37.4c0,0-6.9-1.7-15.2-0.4c-9.3,1.4-17.4,8.2-21.6,16.1c-1.4,2.6-4.9,10.1-3.3,19
	c1.6,8.6,6.1,14.1,6.1,14.1s-8.8-4.2-13.4-12.9c-6.4-11.9-2.9-24.3-2.4-25.6c2.9-8.2,10.3-16.7,20.2-19c9.7-2.3,18.9-0.6,18.9-0.6
	L61.8,394.2z"/>
<path class="st0" d="M228.9,259c-1.8,0-3.7-0.1-5.7-0.4c-14.7-1.8-25.3-12.2-26.4-13.3l-7.8-7.9c-5-5.1,0-13.6,6.9-11.6l10.7,3h0
	c0,0,2.9,0.7,7,0.7c4.8,0,9.1-1,12.9-2.9c9.6-4.8,11.7-12.6,11.8-14.4c0.7-36.7-3.8-151.6-3.8-152.8l-0.4-10.3l57.9-0.3l0.7,29.8
	l-26.7-0.3c1.3,27.9,4.4,103.3,3.3,141.1c-0.4,13.1-3,17.8-11.8,26.9C249.4,254.7,239.8,259,228.9,259z"/>
<path class="st0" d="M203.8,238.3c0,0,8.9,9,20.6,10.5c9.3,1.1,17.8-1,25.9-9.3c7.4-7.7,8.7-10.1,9-20.3
	c1.3-46.1-3.8-150.9-3.8-150.9l26.9,0.3l-0.2-9.8L244.2,59c0,0,4.6,116,3.8,153.4c-0.1,5.3-4.2,16.6-17.2,23.1
	C217.5,242.2,203.8,238.3,203.8,238.3z"/>
<path class="st0" d="M331.1,518.3c-4.9,0-9.8-0.5-14.6-1.5c-14-3-28.7-9.4-29.3-9.7l-1.9-0.8l-1.4-1.5c-1.1-1.2-26.6-28.9-23.6-65.8
	c2-24.1,19-42.3,26.3-49c18-16.7,35.8-19.2,44.7-19.2c3.4,0,5.5,0.4,6.1,0.5l7.5,1.4l0.6,7.6c0.1,0.7,1.4,18,1.3,28.9l-0.1,11.5
	l-11.3-1.8c0,0-1.9-0.3-4.6-0.3c-7.9,0-18.2,2-22.2,11.3c-7.7,18,9.5,29,11.5,30.2l1.6,0.9l1,1.3c0,0,7,8,17.1,8c0.4,0,0.7,0,1.1,0
	c9.6-0.5,15-7.8,17.6-11.2c0.4-0.5,0.7-1,1-1.3c1.6-2.6,1.5-14.6,1.4-25.1c0-3.4-0.1-7.1-0.1-11.1c0-28.9-0.5-38.6-1-48
	c-0.1-1.7-0.2-3.4-0.3-5.2c-0.3-7.6-1.2-27.9-1.6-39.3c-0.3-7.7-0.6-15-0.8-20.4l-0.3-8.2c-0.3-7.5,5.4-10.6,9.2-10.9l0.4,0
	l34.9,0.8l1.6,7.7c3.7,17.7,19.8,25.4,19.9,25.5l3.5,1.6l1.3,3c0.7,1.1,6.1,9.5,22.3,12.5l8.1,1.5v45l-9.7,0.2l-0.5,0
	c-4.2,0-22.3-0.5-41.9-9c0.3,7.8,0.8,18.6,1.5,33.4c1.7,36.4-1.1,54.4-10.7,68.8c-13.1,19.6-20.4,24.2-30.1,29.1
	C355,515.3,343,518.3,331.1,518.3z"/>
<path class="st0" d="M335.6,380.9c0,0,1.4,17.4,1.2,28c0,0-28.3-4.5-37.5,16.9c-11.5,26.8,15.6,42.7,15.6,42.7s10.3,12.5,26.4,11.6
	c15.7-0.9,23.5-13.4,25.8-16.3c4.7-5.8,3.5-20.2,3.5-42.4c0-34.4-0.7-42-1.2-53.6c-0.6-13.4-2.8-68.5-2.7-68.5l26.5,0.6
	c4.8,23.1,25.6,32.5,25.6,32.5s6.5,13.6,29.4,17.9v27c0,0-28.4,0.5-52.8-16.2c0,0,0.3,11.4,2.2,51c1.7,35.4-1.2,51.1-9,62.9
	c-12.2,18.3-18.1,21.6-26.3,25.7c-13.2,6.6-28.3,9.7-43.5,6.4c-13.2-2.8-27.4-9.1-27.4-9.1s-23.7-25.2-21-58.2
	c1.6-20.3,16.5-36.5,23.1-42.6C315,377.1,335.6,380.9,335.6,380.9z"/>
</svg>
