<?xml version="1.0" encoding="utf-8"?>
<!-- Generator: Adobe Illustrator 26.1.0, SVG Export Plug-In . SVG Version: 6.00 Build 0)  -->
<svg version="1.1" id="Layer_1" xmlns="http://www.w3.org/2000/svg" xmlns:xlink="http://www.w3.org/1999/xlink" x="0px" y="0px"
	 viewBox="0 0 595.3 841.9" style="enable-background:new 0 0 595.3 841.9;" xml:space="preserve">
<style type="text/css">
	.st0{fill:none;stroke:#000000;stroke-miterlimit:10;}
	.st1{fill:none;stroke:#E71B69;stroke-miterlimit:10;}
	.st2{fill:none;stroke:#5EBB47;stroke-miterlimit:10;}
	.st3{fill:none;stroke:#414EA1;stroke-miterlimit:10;}
	.st4{fill:none;stroke:#DF1C4D;stroke-miterlimit:10;}
	.st5{fill:none;stroke:#DBD622;stroke-miterlimit:10;}
	.st6{fill:none;stroke:#F1E912;stroke-miterlimit:10;}
	.st7{fill:none;stroke:#EEE812;stroke-miterlimit:10;}
	.st8{fill:none;stroke:#35121B;stroke-miterlimit:10;}
	.st9{fill:none;stroke:#ECE727;stroke-miterlimit:10;}
	.st10{fill:none;stroke:#57C7D9;stroke-miterlimit:10;}
	.st11{fill:none;stroke:#2C2D84;stroke-miterlimit:10;}
</style>
<path class="st0" d="M267,173.7c2.4-0.8,3.6,1.1,3.8,1.3c1.9,0.9,2.7,1.5,4.3,2c3.3,1,7,0.8,14.1-1c8.9-2.2,13.3-2.9,16.2-2.9
	c7.7,0.1,11.6,2.4,13.3,4.7c0,0,1.6-3.3,4.5-9.7c1-2.2,4.9-9.2,9-14.3c5.1-6.3,11.2-9.3,12.9-10.1c6.6-3.2,14.3-3,29.4-2.5
	c14.4,0.4,13.8,1.1,21.4,1c6.2-0.1,9.2-0.5,15.3-0.3c5.7,0.2,8.1,0.6,8.5,1.8c0.4,1.2-2.3,2.2-5.2,6.9c-2.9,4.7-2.9,5.4-5,8
	c-0.9,1.1-8,5.7-23.7,7.6c-9.8,1.2-18.2,3.9-22.8,5.2c0,0-11.4,2.5-22.7,11.7c-2.4,2-5.7,5.7-5.7,5.7s2.8,1.1,4.4,3
	c1.6,1.9,2.5,4.1,2.5,4.1s1.4-0.9,1.9-4.5c0.2-1.3,2.9,2.8,3.1,3.2c2,3.7,0.4,10.6,0.4,10.6l1.3,0.5c0.2,0.1,0.3,0.3,0.2,0.5
	c-0.4,1.4-2.2,6.6-8.1,6.8c-0.6,0-0.4,1.1-0.2,1.5c0.8,1.5,6,0,7.1-0.2c6.8-1.1,15.7,0.7,27.3,3.8c7.3,1.9,22.2,6.5,36.1,18
	c5.5,4.6,7.6,10.6,10.3,13.9c4.3,5.3,4.7,8.7,3.7,10.3c-1.4,2.2-24.6-0.1-51.7-8c-9.8-2.9-14-3.8-19.7-7.1
	c-8.1-4.7-14.1-10.9-14.1-10.9s-0.9,2-3,5.5c-2.2,3.8-5,5.9-8.7,8.8c-2,1.6-4.7,4.2-9.2,5.8c-5.1,1.8-6.5,1.4-11.6,4
	c-1.7,0.8-5.1,2.6-8.5,5.9c-2.4,2.3-2.7,3.3-5.4,5.6c-2.9,2.5-7,4-7.5,3.4c-0.6-0.6,3.1-4.5,3.1-4.5s-1.7,1.4-4.1,1.7
	c-1.9,0.3-4-0.3-4.1-1c-0.1-0.9,3.3-2.4,3.3-2.4s-2.3,0.2-5.4-0.1c-3-0.2-5.5-1.2-5.5-1.6c0.1-0.5,4.1-0.8,4.1-0.8s-2.9-1.9-4.4-2.8
	c-5.5-3.4-11.1-12.2-12.5-18.9c-0.2-1.1-5,4.9-4.6,8.7c0.2,1.6,0.3,2.7,0.4,4.2c0.2,1.7-1.5,5.1-5.2,9.1c-4.7,5-8.2,8.3-11.3,9.1
	c-0.7,0.2-1.9,0.4-3.6,0.7c-3.3,0.6-5,0.9-6.5,0.8c-1.1,0-3.3,0-5.4-1.2c-1.9-1.2-4.7-6.6-5.1-9.8c-0.6-4.5,4.9-8.6,4.9-8.6
	c-3,0.9-6.8,1.7-9.2,1.4c0,0-0.8,3.9-1.8,6.5c-1.8,4.5-9.1,8.9-15.2,9c-10.7,0.2-19-9.7-21.4-12.8c-5.8-7.6-7.1-15.4-9.1-15
	c-0.8,0.2-1.4,2.6-2.4,7.5c-0.9,4.2-1.4,6.3-1.6,9.5c-0.5,6-0.1,7.4-1.1,9.1c-1.9,3.2-10.1,2.7-10.1,0.9c0-0.5-2.4,1.1-4.7-2.2
	c-1.1-1.5-1.7-4.5-1.7-4.5s-4.2-2.6-4.1-5.7c0-1.8,1.4-7.3,5.6-16.5c3.2-6.9,2.8-8.4,7.3-18c2.7-5.8,4.1-8.7,7.2-9
	c2.4-0.2,6,0.3,6,0.3s0.2-7.4,0.4-13.1c0-1-4.7,2.5-8.3,0.9c-2.5-1.1-4.5-4.4-5.3-7.3c-3.2-10.4-5.7-11.9-6.8-19.2
	c-0.8-4.8-0.7-15.5,3.4-22.5c0.9-1.6,5.5-8.5,11.3-7.5c4,0.7,6.4,4.2,6.6,4.4c0.1,0.3,1.9,4.9,0.7,7.9c-1,2.4-2.5,5.8-2.1,7
	c2,6.2,1.5,10.3,2.3,10.5c1.3,0.3,2.3-1.9,7.4-6.6c1.9-1.7,6.2-5.7,12.3-8c2.6-1,9.6-3.6,16.2-1c3,1.1,4.2,3.6,13,13.9
	c8.8,10.4,15.1,15.7,16.7,15.3c1.9-0.5-1.9-15.3-1.9-15.3s-2.3,0.7-2.7,0.3c-0.4-0.4,0.6-2.7,0.6-2.7s-3-0.3-3.1-0.8
	c-0.1-0.5,2.2-2,2.2-2s-3.3-0.8-3.3-1c0-0.3,3.5-0.9,3.5-0.9s-0.9-0.7-0.9-1.1c0.1-0.6,3-0.9,3-0.9s-1.7-0.7-1.7-1.1
	c0-0.6,3.2-1.3,3.2-1.3s-1.3-0.5-1.3-0.9c0-0.6,3.6-1.3,3.6-1.3s-3.7-0.8-3.7-1.3c0-0.5,4.5,0.1,6.2-2.4c1.2-1.7,0.8-4.2-0.5-4.8
	c-0.8-0.4-1.1,0-2.9,0.3c0,0-2.2,0.4-4.5-0.2c-5.3-1.4-6.2-5.7-9.8-9.4c-0.3-0.3-1-0.6-1.6-0.3c-0.6,0.4-4.4-3.6-3.8-4.6
	c0.3-0.6,1.3-0.5,1.3-0.5s-4.7-5-5.8-6c-3-2.7-6.5-6.2-13.2-13.2c-3.3-3.4-12.8-13-11.1-15.2c0.9-1.2,5.4,0.7,14.5,4.6
	c10.6,4.5,15.7,7.2,19.2,9.5c5.9,4,11.9,9,11.9,9c0.4-0.2,1.5-0.9,1.8-1.6c0.2-0.5-0.1-2.2,0-4.1c0.1-2.2,1.1-5.1,2.5-5.3
	c0.7-0.1,1.2,0.6,1.5,1.3c0.7,1.6-0.1,3.8-1.3,5.3c-0.5,0.6-1.3,1.8-1.1,2.7c0,0.1,0.1,0.7,0.6,0.9c0.6,0.3,1.4-0.4,2.5-1.2
	c1.4-0.9,2.8-1.9,4.4-2.1c1.4-0.2,3.1,0.2,3.3,0.9c0.2,0.9-1.8,2.8-4.1,3.2c-1.8,0.3-3.8,0.2-3.8,0.2c-0.2,0.4-0.1,1.1,0.1,1.1
	c6.5,1,23.7,0.4,25.7,0c0.7-0.2-2.8-1.7-2.6-3.1c0.1-1,1.8-2,2.9-1.6c1.5,0.6,0.9,3.5,2.8,4.5c0.1,0.1,1.1,0.5,1.8,0.2
	c2.2-1.1-0.3-7,2.1-8.6c1.3-0.9,4.1-0.5,4,0.4c-0.9,11.1-10.6,52.2-10.9,54.3C264.2,175.4,265.1,174.3,267,173.7z"/>
<path class="st1" d="M319,178.2c3.2-7.8,4-9.5,6.6-14.2c3-5.3,5.3-9.5,10.2-13.8c1.5-1.3,6.2-6.3,14.8-8.3
	c7.3-1.7,17.8-1.1,30.8-0.3c19.4,1.2,37.8-0.5,38.4,2.1c0.3,1.2-3.5,3.5-5.9,8c-1.6,3-2.6,4.9-3.8,6.3c-3.2,3.8-11.2,6.5-22.6,7.9
	c-13,1.6-19.4,3.4-26.5,6c-7.3,2.7-9.7,3.6-16,7.8c-4.5,3-10.2,9-10.2,9s3.2,1.4,4.4,3c1.2,1.6,2.3,4.1,2.5,4.1
	c1,0.3,1.9-4.7,2.2-4.6c0.5,0.2,5.5,2.4,3.2,13.9c-0.3,1.3,1.5,0.2,1.5,0.8c0.1,1.2-1,5.8-8.3,7c-0.3,0-0.7,1.9,0.1,1.9
	c3.9,0.2,5.3-0.6,7.3-0.7c8.5-0.8,16.9,1.3,32.8,5.6c9.6,2.6,25.6,11.1,33.1,18.8c1.8,1.8,4.2,6.7,7.8,11.9c3.8,5.5,4.1,7.7,3.6,9.1
	c-1.3,3.9-20.7-0.6-26.5-1.4c-15.5-2.1-22.8-5.1-32.9-8.3c-20.5-6.5-26.5-15.9-26.5-15.9s-2.8,8.2-10.4,13.6
	c-3.7,2.6-7,6.3-16.3,8.5c-7,1.7-11.8,5.4-13.5,7.4c-7.9,9.2-13.3,10.5-13.7,9.7c-0.6-1.1,1.2-2.9,0.5-3.2c-0.7-0.3-3.1,2.2-5.7-0.6
	c-0.2-0.2,0.6-0.7,1.5-1.2c0.6-0.3,0.3-1.2-0.3-1.2c-3,0-7.7-0.2-8.7-1.6c-0.2-0.3,3.8-0.8,3.3-1.3c-1.2-1.2-9.8-2.8-16-21.3
	c-0.4-1.1-3.4,2.7-4.4,6.6c-0.9,3.4,0.7,3.6,0.1,7.5c-0.9,5.3-11.3,15.1-15.5,16.7c-3.5,1.4-11.9,2.9-15.4,1.1
	c-2.7-1.4-6-6.9-6-11.7c0-3.5,4.3-5.7,5.2-7.2c0,0-3.4,1.6-9.3,1.6c0,0-0.7,4.3-3.1,8.5c-2.7,4.8-11.2,7.4-16.7,6.9
	c-5.6-0.6-11.5-4.5-15.1-8.5c-9.5-10.5-8.8-15.8-12.1-19c-1.1-1.1-0.9-0.4-1.6,1.3c-2.7,7-7.3,5.2-8.7,3.6c-2.1-2.3-3.2-3.3-3.2-8.4
	c0-2.7,3.2-17.3,7.6-21.5c1.9-1.9,4.3-3.5,5.6-3.5l0.5-13.4c-1.4,0-2,1.2-4.7,1.4c-1.5,0.1-3.7-1.7-4.8-5.5
	c-1.8-6.4-0.8-11.6,2.2-19.5c1.3-3.3,4.4-5.1,7.3-5.9c1.2-0.3,0.7-0.2,1.3,3.5c0.1,0.6,1.1,0.8,4.1-2.7c4.2-4.9,7.2-6.9,11.6-9.5
	c5.2-3.2,14.6-5.3,20.4-3c4.4,1.7,8.4,9.5,17.4,19c7.3,7.6,11.1,10.7,12.2,10.2c2.2-0.9,3.8-2.5,6.5-1.4c5.3,2,10.4,4,10.4,4
	c-1.3,3.5-5.9,21.7-6.4,21.7c-9.5-0.9-14.3,3.9-14.3,4.7c0.1,0.8,2.7,4.9,5.5,8.4c1.1,1.4,5.3-1,8.3,1.2c2.7,1.9,2.5,2.4,3.6,2.3
	c1.4-0.2,1.4-11.5,2.9-6.6c7.5,24.8,24.4,16.4,24.3,13.4c0,0,16.5,4.8,25.6,2.4c11.7-3.1,19.2-9.5,18.5-14.7
	c-0.6-5-9.1-6.4-16.4-6.3c-11,0.3-20.4,7.5-20.4,7.5s-0.1-9.3-1.6-17.5c0,0,4.2,2.4,11.9-1.5c6.6-3.3,16.2-9.4,16.6-16.3
	c0.3-5-7-7.2-11.4-7.2c-9-0.1-16.6,1.3-23.9,7.2c-1.4,1.1-6.1,6.7-6.1,6.7s-8.5-2.1-15.3,8.3c0,0-0.2-8.3,1.1-10.9
	c1.9-3.6,4.5-6.6,4.3-7.5c-0.2-0.8-2.7-1.2-2.8-1.6c-0.1-0.5,6.1-3.7,6.2-5.3c0.1-1.4-3-1.2-2.9-1.7c0.2-0.5,3.4-3,5-4.6
	c0.9-0.8,2.4-2.4,5-2.1c1,0.1,2.1,2.3,6.2,3.3c4.3,1.1,7.6,0.9,14.8-1.2c10.8-3.1,15.4-3.7,20.9-2.2
	C313.3,174.5,317,175.5,319,178.2z"/>
<path class="st2" d="M216.7,205.8c-1.5-1.4-10.3-6.2-19.3-6.1c-0.8,0-12.7,0.2-19.5,10.1c-4.3,6.4-4,13-3.9,14.8
	c0.4,6.1,3.1,10.3,5.2,13.5c7,10.6,17.2,14.6,20.3,15.7c5.3,2,20,5.6,25.4,1.3c2-1.6,2.5-5,2.4-9c-0.1-3-1.7-5.7-2.5-6.7
	c-3.8-4.7-7.1-4.2-11-7.7c-5.2-4.7-6.4-12.7-3.7-19.7C211.3,209.2,215.3,206.8,216.7,205.8z"/>
<path class="st2" d="M272.6,211.9c0.3-0.3,3-2.2,3.9-0.7c1.6,2.7,3.5,7.8,3,12.3c-0.2,1.6-1.3,2-2.5,1.7c-2.8-0.7-5.3-1.7-6.6-3.8
	c-0.9-1.4-0.9-2.1-0.5-3.4C270,217.2,270.6,214.2,272.6,211.9z"/>
<path class="st2" d="M294.6,228.5c3.4-0.3,5.2,0.5,5.4,2.1c0.3,1.7-0.3,3.3-1.8,3.7c-2.8,0.8-4.9,1-6.1,1.1c-1.5,0.1-2.7,0-3.6-1.5
	c-0.7-1.2-0.5-2.5,0.4-3.6C289.9,229.4,290.7,228.9,294.6,228.5z"/>
<path class="st2" d="M263.5,216.4c0.7,0.2,1.2,1.2,1.7,3.3c0.5,2.2-0.5,3.7-0.6,3.8c-1.4,1.1-3.4,1-4,0.7c-0.6-0.3-1.2-6.2-1-6.7
	C260.5,215.5,263.2,216.3,263.5,216.4z"/>
<path class="st2" d="M259.9,212.5c0.7-0.2,4.7,3.1,5.4,7.8c0.6,3.6-0.4,6.6-0.3,10.1c0,1-10.1-4.2-10.3-7.9
	C254.6,219.4,259.3,212.6,259.9,212.5z"/>
<path class="st2" d="M260.3,137.9c1.6,1.5,2.2,2.5,2.8,2.4c1.1-0.1,2.4-4.8,3.7-5.4c1.8-0.9,6.2-0.7,6.3-1c0.3-0.8,0.4-2.3,0.7-3.7
	c0.1-0.7-4.3-0.6-5.9-0.9c-2.9-0.4-1.6-6.3-4.7-4.7c-4.3,2.2,1.6,4.1,1,4.7c-0.6,0.6-8.2,0.5-8.8,0.5c-1.5-0.1-14.9,0-16.9-0.5
	c-0.2,0-0.4-1.1-0.1-1.1c6.1,0.5,8.7-2.8,7.9-3.5c-4-3.4-9.3,3.8-10.4,2.2c-1.6-2.2,3.7-5.2,1.9-9c-0.6-1.3-1.6-1.2-2-0.9
	c-1.6,1.4-2.2,5-1.7,8.9c0.1,0.9-0.6,1.6-2,3c-5.5,5.6-8.9,9.3-16.7,10.7c-1.4,0.2,2.7,4.8,4.1,4.5c8-1.6,14-9.4,14-9.4
	c12.1,0,27.3-1,30.6-1.1C265.5,133.6,259.1,136.8,260.3,137.9z"/>
<path class="st3" d="M186.7,104.9c1.8-2.9,36.3,13,45.8,23.7c0.4,0.5-11.4,12.5-16,10.5C214.9,138.4,184.5,108.4,186.7,104.9z"/>
<path class="st3" d="M238.4,136c1.5,1.3,4.4,4.1,5.2,6.2c0.8,2.3,1.3,4.1-0.1,6.6c-1,1.7-2.8,2.6-3.8,3.3c-1.2,0.8-2.7,2.4-5.2,2.3
	c-0.6,0-3.6,0-6.3-1.6c-2.3-1.4-7.7-8.5-7.7-8.5c1.8-1,4.3-1.5,7.6-4.2c2.8-2.3,3.7-3.5,5.6-5.2C234.4,134.4,237.5,135.2,238.4,136z
	"/>
<path class="st4" d="M242.9,150c0.4-0.6,2.2,4.5,4.6,5.4c1.1,0.4,1.5-0.3,3.8-0.3c2.3,0,4.9,1.4,4.9,2.2c0.1,0.8-2.6,1.6-2.6,1.6
	s1.2,1,3.5,2.7c0.7,0.5,1.8,1.6,1.6,1.9c-0.2,0.4-4-0.9-4-0.9s0.3,0.7,2.4,2.7c1.4,1.4,1.8,1.8,1.7,2c-0.3,0.5-3,0.1-3,0.1
	s1.1,1.8,2.4,2.7c0.4,0.2,0.8,0.5,0.8,0.7c-0.1,0.3-2.4,0.1-2.4,0.1s1,2.3,1.1,2.4c0.5,0.9,0.7,1.5,0.5,1.7c-0.2,0.3-1.8,0-1.8,0
	s1.4,2.8,1.3,2.9c-0.1,0.1-2-1.4-2-1.4s0.1,4.8-0.8,4.8c-0.4,0-1.5-2.5-1.6-6.2c0,0-0.7,4.5-0.9,4.4c-0.3,0-1.1-5.6-1.1-5.6
	s-1,2.9-1.4,2.8c-0.4-0.1-0.5-3.8-0.5-3.8s-1.1,3-1.2,3c-0.2-0.1,0-4.7,0-4.7s-1.8,2.4-2.6,2.2c-1.1-0.4,0-6.9,0-6.9
	s-0.9,4.7-1.4,5.5c-0.3,0.4-0.7-1.8-0.7-1.8s0.1,3.3-0.2,3.4c-0.2,0.1-1.2-1.1-1.2-1.1s-1.6,3.3-1.9,3.3c-0.2,0-0.5-1.4-0.5-1.4
	s-2.4,2.7-2.9,2.5c-0.4-0.1-0.6-2-0.6-2s-2.3,3.6-2.7,3.4c-0.2-0.1-0.2-2.2-0.2-2.2s-2.6,0.7-2.9,0.4c-0.3-0.3,0.6-2.7,0.6-2.7
	s-3-0.4-3.1-0.8c-0.1-0.5,2.2-2,2.2-2s-3-1-3-1.1c0-0.1,3.6-0.9,3.6-0.9s-1.1-0.7-1.1-1.2c0.1-0.6,2.9-0.8,2.9-0.8s-1.7-0.6-1.7-1.1
	c0.1-0.6,3.2-1.3,3.2-1.3s-1.4-0.5-1.3-0.9c0.1-0.6,4-1.4,4-1.4s-4.1-0.5-4.1-1.2c0-0.6,4.7-0.4,6-2.1c1-1.4,1.3-4.6-0.5-5.4
	C237.1,153.4,242.6,150.3,242.9,150z"/>
<path class="st4" d="M245.5,157.2c-0.3,0.5-1.4,0.8-1.4,0.8s0.8,0.8,0.6,1.2c-0.1,0.4-1.1,0.2-1.1,0.2s-0.4,1.8-0.5,1.8
	c-0.1,0,0-1.3-0.6-1.6c-0.4-0.2-1.1,0.3-1.1,0.3s0.7-1.5,0.8-2.5c0.2-1.6-0.4-1.7-1.4-2.8c-0.4-0.5,1.3-1.3,1.5-0.8
	C243.2,155.6,245.9,156.4,245.5,157.2z"/>
<path class="st5" d="M274.4,120.3c0.5,0.1,0.9,0.7,0.8,1.2c-7.8,42.4-10.1,50.1-10.9,54.3c-0.1,0.6-5.3,3.8-5.3,4.8
	c0,1.1,2.4-0.1,2.8,1.4c0.5,2-5.5,4.3-5.9,5.3c-0.6,1.5,3.6,0.5,2.3,2.7c-3,5.2-5.4,5.8-5.1,16.7c0.1,3.8-1.3,8.8-5.3,21.5
	c-9.7,30.6-12.1,38.5-12.8,38.9c-1.8,0.8-7.2,0.1-6.8-0.9c5.3-11.4,7.2-18.3,16.1-47.1c2.7-8.7,4-15.7,10.2-32.1
	c2.5-6.5,1-10.3,1-10.3s2,2.1,2,1.4c0.1-1.1-1.5-3.1-1.5-3.1s1.9,0.5,2,0.1c0.3-0.7-1.6-4.1-1.6-4.1s2.9,0.3,2.4-0.1
	c-1.6-1.2-3.1-3.3-3.1-3.3s1.4,0.2,2.5,0.3c0.5,0.1,0.8-0.5,0.5-0.9l-3.7-4c0,0,4.7,1.4,5,0.9c0.6-1.1,1.2-3.4,1.5-5
	c1.7-7.8,6.5-24.2,7.5-28.2c0.8-3,1-6,1.3-8.9C270.4,121.5,271.1,119.5,274.4,120.3z"/>
<path class="st5" d="M340.5,205.8c1.3-17.8-15.7-17.4-14.4-16.6c6.3,3.9,9.9,13,10,12.8c0.1-0.1-3.7-6.2-9.4-7.2
	c-4.9-0.8-12.4,4.7-10.3,4.3c6-1.4,17.8,2.5,17.8,4.9c0,1.2-6.3-3.8-11.6-2.3c-2.6,0.7-4.8,3.8-5.6,5.2c-0.2,0.3,0,0.7,0.4,0.7
	l14.7,0.4c0.3,0,0.4,0.5,0.1,0.6c-1.6,0.3-3.8,0.8-5.8,1.3c-3.2,0.7-5.6,3.1-4.6,4.6c0.6,1,1.7,1.7,11.5-1.7"/>
<path class="st5" d="M265.2,220.1c-1.3,0.3-3.9,0.6-5.4,0.6"/>
<path class="st5" d="M248.5,232.2c1.7,2.9,5.4,9.2,6.1,13.4c0.2,0.9,0.4,2.4-0.4,3c-1,0.7-3.4-0.2-3.4-0.2s0.7,2.1,0.3,4.3
	c-0.3,1.7-1.7,3.2-2.6,3.1c-1.3-0.2-2.1-3.2-2.1-3.2s0.6,4.8-0.7,5.4c-0.8,0.4-4-1.6-5.1-4.7"/>
<path class="st5" d="M250,226.3c2.4,8.2,6.9,13.7,6.4,16.7c-0.1,0.8-0.6,1.2-1.6,2.2"/>
<path class="st5" d="M186.7,253.1c-3-1.7-9.3-5.7-14.1-13.5c-4.9-7.9-5.7-12.5-5.8-22.7"/>
<path class="st5" d="M174.5,198.3c-1.5,1.5-5.2,4.1-6.7,5.6"/>
<path class="st5" d="M163.8,154.3c-1.8-1.1-4.2-3.7-9-3.7"/>
<path class="st5" d="M160.9,161.7c-1.1-1.9-4.3-5.7-11.2-4.3"/>
<path class="st5" d="M157.9,267.2c-0.5,2.2-3.5,4-6.1,5.1"/>
<path class="st5" d="M155,261.9c-0.5,3.4-5.1,4.3-9.4,4.3"/>
<path class="st6" d="M270.6,236.6c-0.8-0.5-1.8-1.3-2.8-2.3c-1-1-2.2-3-2.7-3.9"/>
<path class="st6" d="M264.6,204.5c-0.6,0.6-2.1,1.9-2.7,3c-1,1.8-1.6,3.5-1.8,4.6"/>
<path class="st7" d="M234.4,191.5c-4,2.4-7.3,5.3-9.9,7.3c-3,2.4-5.6,4.8-7.8,7"/>
<path class="st8" d="M237.4,131.8c0.4-1.7-0.2-2.4-1.2-2.8c-1.2-0.4-2.8,0.3-3,1.5c-0.2,1.4,0.4,2.7,1.8,2.8
	C236.2,133.4,237,133.4,237.4,131.8z"/>
<path class="st8" d="M245.2,168.1c0.2-1.5-0.4-6.3-1.7-8.1"/>
<path class="st8" d="M239.9,151.9c0.2,0.3,1.2,1.7,1.4,2"/>
<path class="st9" d="M268.5,199.2c3.9,0.6,6.6,3.2,8.2,4.7c2.5,2.4,4.7,5.1,5.1,8.9c0.3,2.4,0.7,5.7,0.9,8.2c0.2,1.9,0.6,7.8-0.7,11
	c-1.7,4.4-4.2,5.5-6.6,7.1"/>
<path class="st9" d="M277.2,207.2"/>
<path class="st2" d="M298.5,237.6c-12.1,1.9-11.8-1-12.3-4.4s-1.8-6.3,10.3-8c6.3-0.9,11.8,1,12.3,4.4
	C309.4,233.1,304.8,236.6,298.5,237.6z"/>
<path class="st2" d="M289.1,201.4c3.1-1.6,4.1-3.2,3.4-4.7c-0.7-1.6-2.1-2.6-3.5-2.2c-2.8,0.8-4.7,1.7-5.7,2.3
	c-1.3,0.7-2.2,1.5-2.2,3.2c0,1.4,0.9,2.4,2.2,2.8C284.6,203.3,285.6,203.2,289.1,201.4z"/>
<path class="st2" d="M287.4,191.4c-11.2,4.9-9.4,7.2-8,10.3c1.4,3.2,1.9,6.3,13,1.2c5.8-2.6,9.4-7.2,8-10.3
	C299,189.4,293.2,188.8,287.4,191.4z"/>
<path class="st10" d="M280.9,188.5c9.3-4.1,23.8-4.6,27.9,0.8c2.9,4,0.3,8.9-8.9,15.6c-11.9,8.7-18.6,5.4-18.6,5.4s2.3,13,1.6,17.5
	c0,0,13.3-11.2,31.2-6.2c5.6,1.6,7.9,5,3.7,10.5c-8.4,11.2-26.1,11.5-42.2,6.9c0,0-4.3,7.6-14.4,2c-6.2-3.5-8.8-12.1-10.9-18.9
	c-0.7-2.2,1.1-4.7,1.7-7.3c1.2-4.6,1.2-7.3,1.4-7.8c0,0,1.1-2,4.4-4.8c5-4.3,10.6-3,10.6-3S273.7,191.7,280.9,188.5z"/>
<path class="st11" d="M168.5,173.6c0,0-1.3-4.9-1.5-7.2c-0.2-2.9,2.6-4.8,2.6-9.4c-0.1-5-3.3-7.4-5.9-8.6c-3.6-1.7-8.4,1-10.9,4
	c-5.3,6.2-5.7,13.7-5.9,16.9c-0.9,14.9,3.8,14.1,7.6,29.2c1.2,4.9,6.3,6.4,6.8,6.3c0.5-0.1-5.6-3.1-3.3-16.8
	c0.7-4.3,2.3-8.9,5.2-11.7C165,174.6,168.5,173.6,168.5,173.6z"/>
<path class="st11" d="M159.8,216.6c-4.2,2.5-6.3,9.9-8.6,15.4c-6.4,14.9-9.2,21.4-10,27.7c-0.4,3,4.1,5.7,4.1,5.7s1.1,7.5,6.1,6.5
	c0.2,0,0.5,0,0.4,0.2c-0.3,1.1,6.1,3.2,9.9-0.6c1-1.1,0.6-4,1-9.7c0.2-3.1,1.9-7.8,2.7-13.2c-1.9,3.2-5.3,4.3-7.9,2.2
	c-3.1-2.6-4-6.5-3.3-10.5c3.7-23.2,13.1-22.5,12.5-23.6C166.4,215.9,160.7,216.2,159.8,216.6z"/>
<path class="st0" d="M402.3,151.2c-2.6-0.8-22.9-3.9-32-3.9c-6,0-18.9,0.8-25.4,6.2c-12.2,10.1-18,26.6-16.6,27.3
	c1.2,0.5,4.8-3.5,13.2-10.4c8.1-6.6,12.6-8.3,20.5-10.6c10.2-3,27.2-5.8,40.5-7.5C403.3,152.1,403.2,151.4,402.3,151.2z"/>
<path class="st0" d="M412.2,250.6c1-2.8-12.8-10.7-23-15.4c-22.4-10.2-47.3-13.8-48.5-10.4c-0.5,1.6,4.2,4.5,12.3,9.3
	c11.4,6.8,23.2,11.4,35.9,14.3C394.3,249.6,411.1,253.5,412.2,250.6z"/>
<path class="st0" d="M281.3,405.4c2.4-0.8,3.6,1.1,3.8,1.3c1.9,0.9,2.7,1.5,4.3,2c3.3,1,7,0.8,14.1-1c8.9-2.2,13.3-2.9,16.2-2.9
	c7.7,0.1,11.6,2.4,13.3,4.7c0,0,1.6-3.3,4.5-9.7c1-2.2,4.9-9.2,9-14.3c5.1-6.3,11.2-9.3,12.9-10.1c6.6-3.2,14.3-3,29.4-2.5
	c14.4,0.4,13.8,1.1,21.4,1c6.2-0.1,9.2-0.5,15.3-0.3c5.7,0.2,8.1,0.6,8.5,1.8c0.4,1.2-2.3,2.2-5.2,6.9c-2.9,4.7-2.9,5.4-5,8
	c-0.9,1.1-8,5.7-23.7,7.6c-9.8,1.2-18.2,3.9-22.8,5.2c0,0-11.4,2.5-22.7,11.7c-2.4,2-5.7,5.7-5.7,5.7s2.8,1.1,4.4,3
	c1.6,1.9,2.5,4.1,2.5,4.1s1.4-0.9,1.9-4.5c0.2-1.3,2.9,2.8,3.1,3.2c2,3.7,0.4,10.6,0.4,10.6l1.3,0.5c0.2,0.1,0.3,0.3,0.2,0.5
	c-0.4,1.4-2.2,6.6-8.1,6.8c-0.6,0-0.4,1.1-0.2,1.5c0.8,1.5,6,0,7.1-0.2c6.8-1.1,15.7,0.7,27.3,3.8c7.3,1.9,22.2,6.5,36.1,18
	c5.5,4.6,7.6,10.6,10.3,13.9c4.3,5.3,4.7,8.7,3.7,10.3c-1.4,2.2-24.6-0.1-51.7-8c-9.8-2.9-14-3.8-19.7-7.1
	c-8.1-4.7-14.1-10.9-14.1-10.9s-0.9,2-3,5.5c-2.2,3.8-5,5.9-8.7,8.8c-2,1.6-4.7,4.2-9.2,5.8c-5.1,1.8-6.5,1.4-11.6,4
	c-1.7,0.8-5.1,2.6-8.5,5.9c-2.4,2.3-2.7,3.3-5.4,5.6c-2.9,2.5-7,4-7.5,3.4c-0.6-0.6,3.1-4.5,3.1-4.5s-1.7,1.4-4.1,1.7
	c-1.9,0.3-4-0.3-4.1-1c-0.1-0.9,3.3-2.4,3.3-2.4s-2.3,0.2-5.4-0.1c-3-0.2-5.5-1.2-5.5-1.6c0.1-0.5,4.1-0.8,4.1-0.8s-2.9-1.9-4.4-2.8
	c-5.5-3.4-11.1-12.2-12.5-18.9c-0.2-1.1-5,4.9-4.6,8.7c0.2,1.6,0.3,2.7,0.4,4.2c0.2,1.7-1.5,5.1-5.2,9.1c-4.7,5-8.2,8.3-11.3,9.1
	c-0.7,0.2-1.9,0.4-3.6,0.7c-3.3,0.6-5,0.9-6.5,0.8c-1.1,0-3.3,0-5.4-1.2c-1.9-1.2-4.7-6.6-5.1-9.8c-0.6-4.5,4.9-8.6,4.9-8.6
	c-3,0.9-6.8,1.7-9.2,1.4c0,0-0.8,3.9-1.8,6.5c-1.8,4.5-9.1,8.9-15.2,9c-10.7,0.2-19-9.7-21.4-12.8c-5.8-7.6-7.1-15.4-9.1-15
	c-0.8,0.2-1.4,2.6-2.4,7.5c-0.9,4.2-1.4,6.3-1.6,9.5c-0.5,6-0.1,7.4-1.1,9.1c-1.9,3.2-10.1,2.7-10.1,0.9c0-0.5-2.4,1.1-4.7-2.2
	c-1.1-1.5-1.7-4.5-1.7-4.5s-4.2-2.6-4.1-5.7c0-1.8,1.4-7.3,5.6-16.5c3.2-6.9,2.8-8.4,7.3-18c2.7-5.8,4.1-8.7,7.2-9
	c2.4-0.2,6,0.3,6,0.3s0.2-7.4,0.4-13.1c0-1-4.7,2.5-8.3,0.9c-2.5-1.1-4.5-4.4-5.3-7.3c-3.2-10.4-5.7-11.9-6.8-19.2
	c-0.8-4.8-0.7-15.5,3.4-22.5c0.9-1.6,5.5-8.5,11.3-7.5c4,0.7,6.4,4.2,6.6,4.4c0.1,0.3,1.9,4.9,0.7,7.9c-1,2.4-2.5,5.8-2.1,7
	c2,6.2,1.5,10.3,2.3,10.5c1.3,0.3,2.3-1.9,7.4-6.6c1.9-1.7,6.2-5.7,12.3-8c2.6-1,9.6-3.6,16.2-1c3,1.1,4.2,3.6,13,13.9
	c8.8,10.4,15.1,15.7,16.7,15.3c1.9-0.5-1.9-15.3-1.9-15.3s-2.3,0.7-2.7,0.3c-0.4-0.4,0.6-2.7,0.6-2.7s-3-0.3-3.1-0.8
	c-0.1-0.5,2.2-2,2.2-2s-3.3-0.8-3.3-1c0-0.3,3.5-0.9,3.5-0.9s-0.9-0.7-0.9-1.1c0.1-0.6,3-0.9,3-0.9s-1.7-0.7-1.7-1.1
	c0-0.6,3.2-1.3,3.2-1.3s-1.3-0.5-1.3-0.9c0-0.6,3.6-1.3,3.6-1.3s-3.7-0.8-3.7-1.3c0-0.5,4.5,0.1,6.2-2.4c1.2-1.7,0.8-4.2-0.5-4.8
	c-0.8-0.4-1.1,0-2.9,0.3c0,0-2.2,0.4-4.5-0.2c-5.3-1.4-6.2-5.7-9.8-9.4c-0.3-0.3-1-0.6-1.6-0.3c-0.6,0.4-4.4-3.6-3.8-4.6
	c0.3-0.6,1.3-0.5,1.3-0.5s-4.7-5-5.8-6c-3-2.7-6.5-6.2-13.2-13.2c-3.3-3.4-12.8-13-11.1-15.2c0.9-1.2,5.4,0.7,14.5,4.6
	c10.6,4.5,15.7,7.2,19.2,9.5c5.9,4,11.9,9,11.9,9c0.4-0.2,1.5-0.9,1.8-1.6c0.2-0.5-0.1-2.2,0-4.1c0.1-2.2,1.1-5.1,2.5-5.3
	c0.7-0.1,1.2,0.6,1.5,1.3c0.7,1.6-0.1,3.8-1.3,5.3c-0.5,0.6-1.3,1.8-1.1,2.7c0,0.1,0.1,0.7,0.6,0.9c0.6,0.3,1.4-0.4,2.5-1.2
	c1.4-0.9,2.8-1.9,4.4-2.1c1.4-0.2,3.1,0.2,3.3,0.9c0.2,0.9-1.8,2.8-4.1,3.2c-1.8,0.3-3.8,0.2-3.8,0.2c-0.2,0.4-0.1,1.1,0.1,1.1
	c6.5,1,23.7,0.4,25.7,0c0.7-0.2-2.8-1.7-2.6-3.1c0.1-1,1.8-2,2.9-1.6c1.5,0.6,0.9,3.5,2.8,4.5c0.1,0.1,1.1,0.5,1.8,0.2
	c2.2-1.1-0.3-7,2.1-8.6c1.3-0.9,4.1-0.5,4,0.4c-0.9,11.1-10.6,52.2-10.9,54.3C278.4,407.1,279.3,406,281.3,405.4z"/>
<path class="st1" d="M333.2,409.9c3.2-7.8,4-9.5,6.6-14.2c3-5.3,5.3-9.5,10.2-13.8c1.5-1.3,6.2-6.3,14.8-8.3
	c7.3-1.7,17.8-1.1,30.8-0.3c19.4,1.2,37.8-0.5,38.4,2.1c0.3,1.2-3.5,3.5-5.9,8c-1.6,3-2.6,4.9-3.8,6.3c-3.2,3.8-11.2,6.5-22.6,7.9
	c-13,1.6-19.4,3.4-26.5,6c-7.3,2.7-9.7,3.6-16,7.8c-4.5,3-10.2,9-10.2,9s3.2,1.4,4.4,3c1.2,1.6,2.3,4.1,2.5,4.1
	c1,0.3,1.9-4.7,2.2-4.6c0.5,0.2,5.5,2.4,3.2,13.9c-0.3,1.3,1.5,0.2,1.5,0.8c0.1,1.2-1,5.8-8.3,7c-0.3,0-0.7,1.9,0.1,1.9
	c3.9,0.2,5.3-0.6,7.3-0.7c8.5-0.8,16.9,1.3,32.8,5.6c9.6,2.6,25.6,11.1,33.1,18.8c1.8,1.8,4.2,6.7,7.8,11.9c3.8,5.5,4.1,7.7,3.6,9.1
	c-1.3,3.9-20.7-0.6-26.5-1.4c-15.5-2.1-22.8-5.1-32.9-8.3c-20.5-6.5-26.5-15.9-26.5-15.9s-2.8,8.2-10.4,13.6
	c-3.7,2.6-7,6.3-16.3,8.5c-7,1.7-11.8,5.4-13.5,7.4c-7.9,9.2-13.3,10.5-13.7,9.7c-0.6-1.1,1.2-2.9,0.5-3.2c-0.7-0.3-3.1,2.2-5.7-0.6
	c-0.2-0.2,0.6-0.7,1.5-1.2c0.6-0.3,0.3-1.2-0.3-1.2c-3,0-7.7-0.2-8.7-1.6c-0.2-0.3,3.8-0.8,3.3-1.3c-1.2-1.2-9.8-2.8-16-21.3
	c-0.4-1.1-3.4,2.7-4.4,6.6c-0.9,3.4,0.7,3.6,0.1,7.5c-0.9,5.3-11.3,15.1-15.5,16.7c-3.5,1.4-11.9,2.9-15.4,1.1
	c-2.7-1.4-6-6.9-6-11.7c0-3.5,4.3-5.7,5.2-7.2c0,0-3.4,1.6-9.3,1.6c0,0-0.7,4.3-3.1,8.5c-2.7,4.8-11.2,7.4-16.7,6.9
	c-5.6-0.6-11.5-4.5-15.1-8.5c-9.5-10.5-8.8-15.8-12.1-19c-1.1-1.1-0.9-0.4-1.6,1.3c-2.7,7-7.3,5.2-8.7,3.6c-2.1-2.3-3.2-3.3-3.2-8.4
	c0-2.7,3.2-17.3,7.6-21.5c1.9-1.9,4.3-3.5,5.6-3.5l0.5-13.4c-1.4,0-2,1.2-4.7,1.4c-1.5,0.1-3.7-1.7-4.8-5.5
	c-1.8-6.4-0.8-11.6,2.2-19.5c1.3-3.3,4.4-5.1,7.3-5.9c1.2-0.3,0.7-0.2,1.3,3.5c0.1,0.6,1.1,0.8,4.1-2.7c4.2-4.9,7.2-6.9,11.6-9.5
	c5.2-3.2,14.6-5.3,20.4-3c4.4,1.7,8.4,9.5,17.4,19c7.3,7.6,11.1,10.7,12.2,10.2c2.2-0.9,3.8-2.5,6.5-1.4c5.3,2,10.4,4,10.4,4
	c-1.3,3.5-5.9,21.7-6.4,21.7c-9.5-0.9-14.3,3.9-14.3,4.7c0.1,0.8,2.7,4.9,5.5,8.4c1.1,1.4,5.3-1,8.3,1.2c2.7,1.9,2.5,2.4,3.6,2.3
	c1.4-0.2,1.4-11.5,2.9-6.6c7.5,24.8,24.4,16.4,24.3,13.4c0,0,16.5,4.8,25.6,2.4c11.7-3.1,19.2-9.5,18.5-14.7
	c-0.6-5-9.1-6.4-16.4-6.3c-11,0.3-20.4,7.5-20.4,7.5s-0.1-9.3-1.6-17.5c0,0,4.2,2.4,11.9-1.5c6.6-3.3,16.2-9.4,16.6-16.3
	c0.3-5-7-7.2-11.4-7.2c-9-0.1-16.6,1.3-23.9,7.2c-1.4,1.1-6.1,6.7-6.1,6.7s-8.5-2.1-15.3,8.3c0,0-0.2-8.3,1.1-10.9
	c1.9-3.6,4.5-6.6,4.3-7.5c-0.2-0.8-2.7-1.2-2.8-1.6c-0.1-0.5,6.1-3.7,6.2-5.3c0.1-1.4-3-1.2-2.9-1.7c0.2-0.5,3.4-3,5-4.6
	c0.9-0.8,2.4-2.4,5-2.1c1,0.1,2.1,2.3,6.2,3.3c4.3,1.1,7.6,0.9,14.8-1.2c10.8-3.1,15.4-3.7,20.9-2.2
	C327.5,406.2,331.2,407.2,333.2,409.9z"/>
<path class="st2" d="M231,437.5c-1.5-1.4-10.3-6.2-19.3-6.1c-0.8,0-12.7,0.2-19.5,10.1c-4.3,6.4-4,13-3.9,14.8
	c0.4,6.1,3.1,10.3,5.2,13.5c7,10.6,17.2,14.6,20.3,15.7c5.3,2,20,5.6,25.4,1.3c2-1.6,2.5-5,2.4-9c-0.1-3-1.7-5.7-2.5-6.7
	c-3.8-4.7-7.1-4.2-11-7.7c-5.2-4.7-6.4-12.7-3.7-19.7C225.6,440.9,229.6,438.5,231,437.5z"/>
<path class="st2" d="M286.9,443.5c0.3-0.3,3-2.2,3.9-0.7c1.6,2.7,3.5,7.8,3,12.3c-0.2,1.6-1.3,2-2.5,1.7c-2.8-0.7-5.3-1.7-6.6-3.8
	c-0.9-1.4-0.9-2.1-0.5-3.4C284.3,448.8,284.8,445.9,286.9,443.5z"/>
<path class="st2" d="M308.9,460.2c3.4-0.3,5.2,0.5,5.4,2.1c0.3,1.7-0.3,3.3-1.8,3.7c-2.8,0.8-4.9,1-6.1,1.1c-1.5,0.1-2.7,0-3.6-1.5
	c-0.7-1.2-0.5-2.5,0.4-3.6C304.1,461.1,305,460.6,308.9,460.2z"/>
<path class="st2" d="M277.8,448c0.7,0.2,1.2,1.2,1.7,3.3c0.5,2.2-0.5,3.7-0.6,3.8c-1.4,1.1-3.4,1-4,0.7c-0.6-0.3-1.2-6.2-1-6.7
	C274.7,447.2,277.5,447.9,277.8,448z"/>
<path class="st2" d="M274.2,444.2c0.7-0.2,4.7,3.1,5.4,7.8c0.6,3.6-0.4,6.6-0.3,10.1c0,1-10.1-4.2-10.3-7.9
	C268.9,451,273.6,444.3,274.2,444.2z"/>
<path class="st2" d="M274.5,369.5c1.6,1.5,2.2,2.5,2.8,2.4c1.1-0.1,2.4-4.8,3.7-5.4c1.8-0.9,6.2-0.7,6.3-1c0.3-0.8,0.4-2.3,0.7-3.7
	c0.1-0.7-4.3-0.6-5.9-0.9c-2.9-0.4-1.6-6.3-4.7-4.7c-4.3,2.2,1.6,4.1,1,4.7c-0.6,0.6-8.2,0.5-8.8,0.5c-1.5-0.1-14.9,0-16.9-0.5
	c-0.2,0-0.4-1.1-0.1-1.1c6.1,0.5,8.7-2.8,7.9-3.5c-4-3.4-9.3,3.8-10.4,2.2c-1.6-2.2,3.7-5.2,1.9-9c-0.6-1.3-1.6-1.2-2-0.9
	c-1.6,1.4-2.2,5-1.7,8.9c0.1,0.9-0.6,1.6-2,3c-5.5,5.6-8.9,9.3-16.7,10.7c-1.4,0.2,2.7,4.8,4.1,4.5c8-1.6,14-9.4,14-9.4
	c12.1,0,27.3-1,30.6-1.1C279.7,365.3,273.3,368.4,274.5,369.5z"/>
<path class="st3" d="M200.9,336.5c1.8-2.9,36.3,13,45.8,23.7c0.4,0.5-11.4,12.5-16,10.5C229.2,370,198.8,340,200.9,336.5z"/>
<path class="st3" d="M252.7,367.7c1.5,1.3,4.4,4.1,5.2,6.2c0.8,2.3,1.3,4.1-0.1,6.6c-1,1.7-2.8,2.6-3.8,3.3
	c-1.2,0.8-2.7,2.4-5.2,2.3c-0.6,0-3.6,0-6.3-1.6c-2.3-1.4-7.7-8.5-7.7-8.5c1.8-1,4.3-1.5,7.6-4.2c2.8-2.3,3.7-3.5,5.6-5.2
	C248.6,366,251.7,366.9,252.7,367.7z"/>
<path class="st4" d="M257.1,381.6c0.4-0.6,2.2,4.5,4.6,5.4c1.1,0.4,1.5-0.3,3.8-0.3c2.3,0,4.9,1.4,4.9,2.2c0.1,0.8-2.6,1.6-2.6,1.6
	s1.2,1,3.5,2.7c0.7,0.5,1.8,1.6,1.6,1.9c-0.2,0.4-4-0.9-4-0.9s0.3,0.7,2.4,2.7c1.4,1.4,1.8,1.8,1.7,2c-0.3,0.5-3,0.1-3,0.1
	s1.1,1.8,2.4,2.7c0.4,0.2,0.8,0.5,0.8,0.7c-0.1,0.3-2.4,0.1-2.4,0.1s1,2.3,1.1,2.4c0.5,0.9,0.7,1.5,0.5,1.7c-0.2,0.3-1.8,0-1.8,0
	s1.4,2.8,1.3,2.9c-0.1,0.1-2-1.4-2-1.4s0.1,4.8-0.8,4.8c-0.4,0-1.5-2.5-1.6-6.2c0,0-0.7,4.5-0.9,4.4c-0.3,0-1.1-5.6-1.1-5.6
	s-1,2.9-1.4,2.8c-0.4-0.1-0.5-3.8-0.5-3.8s-1.1,3-1.2,3c-0.2-0.1,0-4.7,0-4.7s-1.8,2.4-2.6,2.2c-1.1-0.4,0-6.9,0-6.9
	s-0.9,4.7-1.4,5.5c-0.3,0.4-0.7-1.8-0.7-1.8s0.1,3.3-0.2,3.4c-0.2,0.1-1.2-1.1-1.2-1.1s-1.6,3.3-1.9,3.3c-0.2,0-0.5-1.4-0.5-1.4
	s-2.4,2.7-2.9,2.5c-0.4-0.1-0.6-2-0.6-2s-2.3,3.6-2.7,3.4c-0.2-0.1-0.2-2.2-0.2-2.2s-2.6,0.7-2.9,0.4c-0.3-0.3,0.6-2.7,0.6-2.7
	s-3-0.4-3.1-0.8c-0.1-0.5,2.2-2,2.2-2s-3-1-3-1.1c0-0.1,3.6-0.9,3.6-0.9s-1.1-0.7-1.1-1.2c0.1-0.6,2.9-0.8,2.9-0.8s-1.7-0.6-1.7-1.1
	c0.1-0.6,3.2-1.3,3.2-1.3s-1.4-0.5-1.3-0.9c0.1-0.6,4-1.4,4-1.4s-4.1-0.5-4.1-1.2c0-0.6,4.7-0.4,6-2.1c1-1.4,1.3-4.6-0.5-5.4
	C251.4,385.1,256.9,382,257.1,381.6z"/>
<path class="st4" d="M259.7,388.9c-0.3,0.5-1.4,0.8-1.4,0.8s0.8,0.8,0.6,1.2c-0.1,0.4-1.1,0.2-1.1,0.2s-0.4,1.8-0.5,1.8
	c-0.1,0,0-1.3-0.6-1.6c-0.4-0.2-1.1,0.3-1.1,0.3s0.7-1.5,0.8-2.5c0.2-1.6-0.4-1.7-1.4-2.8c-0.4-0.5,1.3-1.3,1.5-0.8
	C257.4,387.3,260.2,388,259.7,388.9z"/>
<path class="st5" d="M288.7,351.9c0.5,0.1,0.9,0.7,0.8,1.2c-7.8,42.4-10.1,50.1-10.9,54.3c-0.1,0.6-5.3,3.8-5.3,4.8
	c0,1.1,2.4-0.1,2.8,1.4c0.5,2-5.5,4.3-5.9,5.3c-0.6,1.5,3.6,0.5,2.3,2.7c-3,5.2-5.4,5.8-5.1,16.7c0.1,3.8-1.3,8.8-5.3,21.5
	c-9.7,30.6-12.1,38.5-12.8,38.9c-1.8,0.8-7.2,0.1-6.8-0.9c5.3-11.4,7.2-18.3,16.1-47.1c2.7-8.7,4-15.7,10.2-32.1
	c2.5-6.5,1-10.3,1-10.3s2,2.1,2,1.4c0.1-1.1-1.5-3.1-1.5-3.1s1.9,0.5,2,0.1c0.3-0.7-1.6-4.1-1.6-4.1s2.9,0.3,2.4-0.1
	c-1.6-1.2-3.1-3.3-3.1-3.3s1.4,0.2,2.5,0.3c0.5,0.1,0.8-0.5,0.5-0.9l-3.7-4c0,0,4.7,1.4,5,0.9c0.6-1.1,1.2-3.4,1.5-5
	c1.7-7.8,6.5-24.2,7.5-28.2c0.8-3,1-6,1.3-8.9C284.6,353.2,285.4,351.2,288.7,351.9z"/>
<path class="st5" d="M354.8,437.4c1.3-17.8-15.7-17.4-14.4-16.6c6.3,3.9,9.9,13,10,12.8c0.1-0.1-3.7-6.2-9.4-7.2
	c-4.9-0.8-12.4,4.7-10.3,4.3c6-1.4,17.8,2.5,17.8,4.9c0,1.2-6.3-3.8-11.6-2.3c-2.6,0.7-4.8,3.8-5.6,5.2c-0.2,0.3,0,0.7,0.4,0.7
	l14.7,0.4c0.3,0,0.4,0.5,0.1,0.6c-1.6,0.3-3.8,0.8-5.8,1.3c-3.2,0.7-5.6,3.1-4.6,4.6c0.6,1,1.7,1.7,11.5-1.7"/>
<path class="st5" d="M279.5,451.8c-1.3,0.3-3.9,0.6-5.4,0.6"/>
<path class="st5" d="M262.7,463.9c1.7,2.9,5.4,9.2,6.1,13.4c0.2,0.9,0.4,2.4-0.4,3c-1,0.7-3.4-0.2-3.4-0.2s0.7,2.1,0.3,4.3
	c-0.3,1.7-1.7,3.2-2.6,3.1c-1.3-0.2-2.1-3.2-2.1-3.2s0.6,4.8-0.7,5.4c-0.8,0.4-4-1.6-5.1-4.7"/>
<path class="st5" d="M264.3,457.9c2.4,8.2,6.9,13.7,6.4,16.7c-0.1,0.8-0.6,1.2-1.6,2.2"/>
<path class="st5" d="M201,484.8c-3-1.7-9.3-5.7-14.1-13.5c-4.9-7.9-5.7-12.5-5.8-22.7"/>
<path class="st5" d="M188.8,429.9c-1.5,1.5-5.2,4.1-6.7,5.6"/>
<path class="st5" d="M178,386c-1.8-1.1-4.2-3.7-9-3.7"/>
<path class="st5" d="M175.2,393.4c-1.1-1.9-4.3-5.7-11.2-4.3"/>
<path class="st5" d="M172.2,498.9c-0.5,2.2-3.5,4-6.1,5.1"/>
<path class="st5" d="M169.2,493.5c-0.5,3.4-5.1,4.3-9.4,4.3"/>
<path class="st6" d="M284.8,468.3c-0.8-0.5-1.8-1.3-2.8-2.3c-1-1-2.2-3-2.7-3.9"/>
<path class="st6" d="M278.8,436.2c-0.6,0.6-2.1,1.9-2.7,3c-1,1.8-1.6,3.5-1.8,4.6"/>
<path class="st7" d="M248.7,423.1c-4,2.4-7.3,5.3-9.9,7.3c-3,2.4-5.6,4.8-7.8,7"/>
<path class="st8" d="M251.6,363.5c0.4-1.7-0.2-2.4-1.2-2.8c-1.2-0.4-2.8,0.3-3,1.5c-0.2,1.4,0.4,2.7,1.8,2.8
	C250.5,365,251.2,365.1,251.6,363.5z"/>
<path class="st8" d="M259.4,399.8c0.2-1.5-0.4-6.3-1.7-8.1"/>
<path class="st8" d="M254.2,383.6c0.2,0.3,1.2,1.7,1.4,2"/>
<path class="st9" d="M282.7,430.8c3.9,0.6,6.6,3.2,8.2,4.7c2.5,2.4,4.7,5.1,5.1,8.9c0.3,2.4,0.7,5.7,0.9,8.2c0.2,1.9,0.6,7.8-0.7,11
	c-1.7,4.4-4.2,5.5-6.6,7.1"/>
<path class="st9" d="M291.4,438.8"/>
<path class="st2" d="M312.8,469.3c-12.1,1.9-11.8-1-12.3-4.4c-0.5-3.4-1.8-6.3,10.3-8c6.3-0.9,11.8,1,12.3,4.4
	C323.6,464.7,319,468.3,312.8,469.3z"/>
<path class="st2" d="M303.3,433.1c3.1-1.6,4.1-3.2,3.4-4.7c-0.7-1.6-2.1-2.6-3.5-2.2c-2.8,0.8-4.7,1.7-5.7,2.3
	c-1.3,0.7-2.2,1.5-2.2,3.2c0,1.4,0.9,2.4,2.2,2.8C298.8,435,299.8,434.9,303.3,433.1z"/>
<path class="st2" d="M301.6,423c-11.2,4.9-9.4,7.2-8,10.3c1.4,3.2,1.9,6.3,13,1.2c5.8-2.6,9.4-7.2,8-10.3
	C313.2,421,307.4,420.5,301.6,423z"/>
<path class="st10" d="M295.2,420.1c9.3-4.1,23.8-4.6,27.9,0.8c2.9,4,0.3,8.9-8.9,15.6c-11.9,8.7-18.6,5.4-18.6,5.4s2.3,13,1.6,17.5
	c0,0,13.3-11.2,31.2-6.2c5.6,1.6,7.9,5,3.7,10.5c-8.4,11.2-26.1,11.5-42.2,6.9c0,0-4.3,7.6-14.4,2c-6.2-3.5-8.8-12.1-10.9-18.9
	c-0.7-2.2,1.1-4.7,1.7-7.3c1.2-4.6,1.2-7.3,1.4-7.8c0,0,1.1-2,4.4-4.8c5-4.3,10.6-3,10.6-3S288,423.4,295.2,420.1z"/>
<path class="st11" d="M182.8,405.2c0,0-1.3-4.9-1.5-7.2c-0.2-2.9,2.6-4.8,2.6-9.4c-0.1-5-3.3-7.4-5.9-8.6c-3.6-1.7-8.4,1-10.9,4
	c-5.3,6.2-5.7,13.7-5.9,16.9c-0.9,14.9,3.8,14.1,7.6,29.2c1.2,4.9,6.3,6.4,6.8,6.3c0.5-0.1-5.6-3.1-3.3-16.8
	c0.7-4.3,2.3-8.9,5.2-11.7C179.2,406.2,182.8,405.2,182.8,405.2z"/>
<path class="st11" d="M174.1,448.3c-4.2,2.5-6.3,9.9-8.6,15.4c-6.4,14.9-9.2,21.4-10,27.7c-0.4,3,4.1,5.7,4.1,5.7s1.1,7.5,6.1,6.5
	c0.2,0,0.5,0,0.4,0.2c-0.3,1.1,6.1,3.2,9.9-0.6c1-1.1,0.6-4,1-9.7c0.2-3.1,1.9-7.8,2.7-13.2c-1.9,3.2-5.3,4.3-7.9,2.2
	c-3.1-2.6-4-6.5-3.3-10.5c3.7-23.2,13.1-22.5,12.5-23.6C180.6,447.5,174.9,447.8,174.1,448.3z"/>
<path class="st0" d="M416.6,382.8c-2.6-0.8-22.9-3.9-32-3.9c-6,0-18.9,0.8-25.4,6.2c-12.2,10.1-18,26.6-16.6,27.3
	c1.2,0.5,4.8-3.5,13.2-10.4c8.1-6.6,12.6-8.3,20.5-10.6c10.2-3,27.2-5.8,40.5-7.5C417.5,383.8,417.4,383.1,416.6,382.8z"/>
<path class="st0" d="M426.5,482.2c1-2.8-12.8-10.7-23-15.4c-22.4-10.2-47.3-13.8-48.5-10.4c-0.5,1.6,4.2,4.5,12.3,9.3
	c11.4,6.8,23.2,11.4,35.9,14.3C408.5,481.3,425.4,485.1,426.5,482.2z"/>
<path class="st0" d="M287.8,640.1c2.4-0.8,3.6,1.1,3.8,1.3c1.9,0.9,2.7,1.5,4.3,2c3.3,1,7,0.8,14.1-1c8.9-2.2,13.3-2.9,16.2-2.9
	c7.7,0.1,11.6,2.4,13.3,4.7c0,0,1.6-3.3,4.5-9.7c1-2.2,4.9-9.2,9-14.3c5.1-6.3,11.2-9.3,12.9-10.1c6.6-3.2,14.3-3,29.4-2.5
	c14.4,0.4,13.8,1.1,21.4,1c6.2-0.1,9.2-0.5,15.3-0.3c5.7,0.2,8.1,0.6,8.5,1.8c0.4,1.2-2.3,2.2-5.2,6.9c-2.9,4.7-2.9,5.4-5,8
	c-0.9,1.1-8,5.7-23.7,7.6c-9.8,1.2-18.2,3.9-22.8,5.2c0,0-11.4,2.5-22.7,11.7c-2.4,2-5.7,5.7-5.7,5.7s2.8,1.1,4.4,3
	c1.6,1.9,2.5,4.1,2.5,4.1s1.4-0.9,1.9-4.5c0.2-1.3,2.9,2.8,3.1,3.2c2,3.7,0.4,10.6,0.4,10.6l1.3,0.5c0.2,0.1,0.3,0.3,0.2,0.5
	c-0.4,1.4-2.2,6.6-8.1,6.8c-0.6,0-0.4,1.1-0.2,1.5c0.8,1.5,6,0,7.1-0.2c6.8-1.1,15.7,0.7,27.3,3.8c7.3,1.9,22.2,6.5,36.1,18
	c5.5,4.6,7.6,10.6,10.3,13.9c4.3,5.3,4.7,8.7,3.7,10.3c-1.4,2.2-24.6-0.1-51.7-8c-9.8-2.9-14-3.8-19.7-7.1
	c-8.1-4.7-14.1-10.9-14.1-10.9s-0.9,2-3,5.5c-2.2,3.8-5,5.9-8.7,8.8c-2,1.6-4.7,4.2-9.2,5.8c-5.1,1.8-6.5,1.4-11.6,4
	c-1.7,0.8-5.1,2.6-8.5,5.9c-2.4,2.3-2.7,3.3-5.4,5.6c-2.9,2.5-7,4-7.5,3.4c-0.6-0.6,3.1-4.5,3.1-4.5s-1.7,1.4-4.1,1.7
	c-1.9,0.3-4-0.3-4.1-1c-0.1-0.9,3.3-2.4,3.3-2.4s-2.3,0.2-5.4-0.1c-3-0.2-5.5-1.2-5.5-1.6c0.1-0.5,4.1-0.8,4.1-0.8s-2.9-1.9-4.4-2.8
	c-5.5-3.4-11.1-12.2-12.5-18.9c-0.2-1.1-5,4.9-4.6,8.7c0.2,1.6,0.3,2.7,0.4,4.2c0.2,1.7-1.5,5.1-5.2,9.1c-4.7,5-8.2,8.3-11.3,9.1
	c-0.7,0.2-1.9,0.4-3.6,0.7c-3.3,0.6-5,0.9-6.5,0.8c-1.1,0-3.3,0-5.4-1.2c-1.9-1.2-4.7-6.6-5.1-9.8c-0.6-4.5,4.9-8.6,4.9-8.6
	c-3,0.9-6.8,1.7-9.2,1.4c0,0-0.8,3.9-1.8,6.5c-1.8,4.5-9.1,8.9-15.2,9c-10.7,0.2-19-9.7-21.4-12.8c-5.8-7.6-7.1-15.4-9.1-15
	c-0.8,0.2-1.4,2.6-2.4,7.5c-0.9,4.2-1.4,6.3-1.6,9.5c-0.5,6-0.1,7.4-1.1,9.1c-1.9,3.2-10.1,2.7-10.1,0.9c0-0.5-2.4,1.1-4.7-2.2
	c-1.1-1.5-1.7-4.5-1.7-4.5s-4.2-2.6-4.1-5.7c0-1.8,1.4-7.3,5.6-16.5c3.2-6.9,2.8-8.4,7.3-18c2.7-5.8,4.1-8.7,7.2-9
	c2.4-0.2,6,0.3,6,0.3s0.2-7.4,0.4-13.1c0-1-4.7,2.5-8.3,0.9c-2.5-1.1-4.5-4.4-5.3-7.3c-3.2-10.4-5.7-11.9-6.8-19.2
	c-0.8-4.8-0.7-15.5,3.4-22.5c0.9-1.6,5.5-8.5,11.3-7.5c4,0.7,6.4,4.2,6.6,4.4c0.1,0.3,1.9,4.9,0.7,7.9c-1,2.4-2.5,5.8-2.1,7
	c2,6.2,1.5,10.3,2.3,10.5c1.3,0.3,2.3-1.9,7.4-6.6c1.9-1.7,6.2-5.7,12.3-8c2.6-1,9.6-3.6,16.2-1c3,1.1,4.2,3.6,13,13.9
	c8.8,10.4,15.1,15.7,16.7,15.3c1.9-0.5-1.9-15.3-1.9-15.3s-2.3,0.7-2.7,0.3c-0.4-0.4,0.6-2.7,0.6-2.7s-3-0.3-3.1-0.8
	c-0.1-0.5,2.2-2,2.2-2s-3.3-0.8-3.3-1c0-0.3,3.5-0.9,3.5-0.9s-0.9-0.7-0.9-1.1c0.1-0.6,3-0.9,3-0.9s-1.7-0.7-1.7-1.1
	c0-0.6,3.2-1.3,3.2-1.3s-1.3-0.5-1.3-0.9c0-0.6,3.6-1.3,3.6-1.3s-3.7-0.8-3.7-1.3c0-0.5,4.5,0.1,6.2-2.4c1.2-1.7,0.8-4.2-0.5-4.8
	c-0.8-0.4-1.1,0-2.9,0.3c0,0-2.2,0.4-4.5-0.2c-5.3-1.4-6.2-5.7-9.8-9.4c-0.3-0.3-1-0.6-1.6-0.3c-0.6,0.4-4.4-3.6-3.8-4.6
	c0.3-0.6,1.3-0.5,1.3-0.5s-4.7-5-5.8-6c-3-2.7-6.5-6.2-13.2-13.2c-3.3-3.4-12.8-13-11.1-15.2c0.9-1.2,5.4,0.7,14.5,4.6
	c10.6,4.5,15.7,7.2,19.2,9.5c5.9,4,11.9,9,11.9,9c0.4-0.2,1.5-0.9,1.8-1.6c0.2-0.5-0.1-2.2,0-4.1c0.1-2.2,1.1-5.1,2.5-5.3
	c0.7-0.1,1.2,0.6,1.5,1.3c0.7,1.6-0.1,3.8-1.3,5.3c-0.5,0.6-1.3,1.8-1.1,2.7c0,0.1,0.1,0.7,0.6,0.9c0.6,0.3,1.4-0.4,2.5-1.2
	c1.4-0.9,2.8-1.9,4.4-2.1c1.4-0.2,3.1,0.2,3.3,0.9c0.2,0.9-1.8,2.8-4.1,3.2c-1.8,0.3-3.8,0.2-3.8,0.2c-0.2,0.4-0.1,1.1,0.1,1.1
	c6.5,1,23.7,0.4,25.7,0c0.7-0.2-2.8-1.7-2.6-3.1c0.1-1,1.8-2,2.9-1.6c1.5,0.6,0.9,3.5,2.8,4.5c0.1,0.1,1.1,0.5,1.8,0.2
	c2.2-1.1-0.3-7,2.1-8.6c1.3-0.9,4.1-0.5,4,0.4c-0.9,11.1-10.6,52.2-10.9,54.3C284.9,641.8,285.8,640.8,287.8,640.1z"/>
<path class="st1" d="M339.7,644.6c3.2-7.8,4-9.5,6.6-14.2c3-5.3,5.3-9.5,10.2-13.8c1.5-1.3,6.2-6.3,14.8-8.3
	c7.3-1.7,17.8-1.1,30.8-0.3c19.4,1.2,37.8-0.5,38.4,2.1c0.3,1.2-3.5,3.5-5.9,8c-1.6,3-2.6,4.9-3.8,6.3c-3.2,3.8-11.2,6.5-22.6,7.9
	c-13,1.6-19.4,3.4-26.5,6c-7.3,2.7-9.7,3.6-16,7.8c-4.5,3-10.2,9-10.2,9s3.2,1.4,4.4,3c1.2,1.6,2.3,4.1,2.5,4.1
	c1,0.3,1.9-4.7,2.2-4.6c0.5,0.2,5.5,2.4,3.2,13.9c-0.3,1.3,1.5,0.2,1.5,0.8c0.1,1.2-1,5.8-8.3,7c-0.3,0-0.7,1.9,0.1,1.9
	c3.9,0.2,5.3-0.6,7.3-0.7c8.5-0.8,16.9,1.3,32.8,5.6c9.6,2.6,25.6,11.1,33.1,18.8c1.8,1.8,4.2,6.7,7.8,11.9c3.8,5.5,4.1,7.7,3.6,9.1
	c-1.3,3.9-20.7-0.6-26.5-1.4c-15.5-2.1-22.8-5.1-32.9-8.3C366,710,360,700.6,360,700.6s-2.8,8.2-10.4,13.6c-3.7,2.6-7,6.3-16.3,8.5
	c-7,1.7-11.8,5.4-13.5,7.4c-7.9,9.2-13.3,10.5-13.7,9.7c-0.6-1.1,1.2-2.9,0.5-3.2c-0.7-0.3-3.1,2.2-5.7-0.6
	c-0.2-0.2,0.6-0.7,1.5-1.2c0.6-0.3,0.3-1.2-0.3-1.2c-3,0-7.7-0.2-8.7-1.6c-0.2-0.3,3.8-0.8,3.3-1.3c-1.2-1.2-9.8-2.8-16-21.3
	c-0.4-1.1-3.4,2.7-4.4,6.6c-0.9,3.4,0.7,3.6,0.1,7.5c-0.9,5.3-11.3,15.1-15.5,16.7c-3.5,1.4-11.9,2.9-15.4,1.1
	c-2.7-1.4-6-6.9-6-11.7c0-3.5,4.3-5.7,5.2-7.2c0,0-3.4,1.6-9.3,1.6c0,0-0.7,4.3-3.1,8.5c-2.7,4.8-11.2,7.4-16.7,6.9
	c-5.6-0.6-11.5-4.5-15.1-8.5c-9.5-10.5-8.8-15.8-12.1-19c-1.1-1.1-0.9-0.4-1.6,1.3c-2.7,7-7.3,5.2-8.7,3.6c-2.1-2.3-3.2-3.3-3.2-8.4
	c0-2.7,3.2-17.3,7.6-21.5c1.9-1.9,4.3-3.5,5.6-3.5l0.5-13.4c-1.4,0-2,1.2-4.7,1.4c-1.5,0.1-3.7-1.7-4.8-5.5
	c-1.8-6.4-0.8-11.6,2.2-19.5c1.3-3.3,4.4-5.1,7.3-5.9c1.2-0.3,0.7-0.2,1.3,3.5c0.1,0.6,1.1,0.8,4.1-2.7c4.2-4.9,7.2-6.9,11.6-9.5
	c5.2-3.2,14.6-5.3,20.4-3c4.4,1.7,8.4,9.5,17.4,19c7.3,7.6,11.1,10.7,12.2,10.2c2.2-0.9,3.8-2.5,6.5-1.4c5.3,2,10.4,4,10.4,4
	c-1.3,3.5-5.9,21.7-6.4,21.7c-9.5-0.9-14.3,3.9-14.3,4.7c0.1,0.8,2.7,4.9,5.5,8.4c1.1,1.4,5.3-1,8.3,1.2c2.7,1.9,2.5,2.4,3.6,2.3
	c1.4-0.2,1.4-11.5,2.9-6.6c7.5,24.8,24.4,16.4,24.3,13.4c0,0,16.5,4.8,25.6,2.4c11.7-3.1,19.2-9.5,18.5-14.7
	c-0.6-5-9.1-6.4-16.4-6.3c-11,0.3-20.4,7.5-20.4,7.5s-0.1-9.3-1.6-17.5c0,0,4.2,2.4,11.9-1.5c6.6-3.3,16.2-9.4,16.6-16.3
	c0.3-5-7-7.2-11.4-7.2c-9-0.1-16.6,1.3-23.9,7.2c-1.4,1.1-6.1,6.7-6.1,6.7s-8.5-2.1-15.3,8.3c0,0-0.2-8.3,1.1-10.9
	c1.9-3.6,4.5-6.6,4.3-7.5c-0.2-0.8-2.7-1.2-2.8-1.6c-0.1-0.5,6.1-3.7,6.2-5.3c0.1-1.4-3-1.2-2.9-1.7c0.2-0.5,3.4-3,5-4.6
	c0.9-0.8,2.4-2.4,5-2.1c1,0.1,2.1,2.3,6.2,3.3c4.3,1.1,7.6,0.9,14.8-1.2c10.8-3.1,15.4-3.7,20.9-2.2
	C334,640.9,337.7,642,339.7,644.6z"/>
<path class="st2" d="M237.5,672.2c-1.5-1.4-10.3-6.2-19.3-6.1c-0.8,0-12.7,0.2-19.5,10.1c-4.3,6.4-4,13-3.9,14.8
	c0.4,6.1,3.1,10.3,5.2,13.5c7,10.6,17.2,14.6,20.3,15.7c5.3,2,20,5.6,25.4,1.3c2-1.6,2.5-5,2.4-9c-0.1-3-1.7-5.7-2.5-6.7
	c-3.8-4.7-7.1-4.2-11-7.7c-5.2-4.7-6.4-12.7-3.7-19.7C232,675.7,236,673.3,237.5,672.2z"/>
<path class="st2" d="M293.3,678.3c0.3-0.3,3-2.2,3.9-0.7c1.6,2.7,3.5,7.8,3,12.3c-0.2,1.6-1.3,2-2.5,1.7c-2.8-0.7-5.3-1.7-6.6-3.8
	c-0.9-1.4-0.9-2.1-0.5-3.4C290.7,683.6,291.3,680.6,293.3,678.3z"/>
<path class="st2" d="M315.4,695c3.4-0.3,5.2,0.5,5.4,2.1c0.3,1.7-0.3,3.3-1.8,3.7c-2.8,0.8-4.9,1-6.1,1.1c-1.5,0.1-2.7,0-3.6-1.5
	c-0.7-1.2-0.5-2.5,0.4-3.6C310.6,695.8,311.5,695.4,315.4,695z"/>
<path class="st2" d="M284.3,682.8c0.7,0.2,1.2,1.2,1.7,3.3c0.5,2.2-0.5,3.7-0.6,3.8c-1.4,1.1-3.4,1-4,0.7c-0.6-0.3-1.2-6.2-1-6.7
	C281.2,681.9,283.9,682.7,284.3,682.8z"/>
<path class="st2" d="M280.7,678.9c0.7-0.2,4.7,3.1,5.4,7.8c0.6,3.6-0.4,6.6-0.3,10.1c0,1-10.1-4.2-10.3-7.9
	C275.4,685.8,280.1,679,280.7,678.9z"/>
<path class="st2" d="M281,604.3c1.6,1.5,2.2,2.5,2.8,2.4c1.1-0.1,2.4-4.8,3.7-5.4c1.8-0.9,6.2-0.7,6.3-1c0.3-0.8,0.4-2.3,0.7-3.7
	c0.1-0.7-4.3-0.6-5.9-0.9c-2.9-0.4-1.6-6.3-4.7-4.7c-4.3,2.2,1.6,4.1,1,4.7c-0.6,0.6-8.2,0.5-8.8,0.5c-1.5-0.1-14.9,0-16.9-0.5
	c-0.2,0-0.4-1.1-0.1-1.1c6.1,0.5,8.7-2.8,7.9-3.5c-4-3.4-9.3,3.8-10.4,2.2c-1.6-2.2,3.7-5.2,1.9-9c-0.6-1.3-1.6-1.2-2-0.9
	c-1.6,1.4-2.2,5-1.7,8.9c0.1,0.9-0.6,1.6-2,3c-5.5,5.6-8.9,9.3-16.7,10.7c-1.4,0.2,2.7,4.8,4.1,4.5c8-1.6,14-9.4,14-9.4
	c12.1,0,27.3-1,30.6-1.1C286.2,600.1,279.8,603.2,281,604.3z"/>
<path class="st3" d="M207.4,571.3c1.8-2.9,36.3,13,45.8,23.7c0.4,0.5-11.4,12.5-16,10.5C235.7,604.8,205.3,574.8,207.4,571.3z"/>
<path class="st3" d="M259.1,602.4c1.5,1.3,4.4,4.1,5.2,6.2c0.8,2.3,1.3,4.1-0.1,6.6c-1,1.7-2.8,2.6-3.8,3.3
	c-1.2,0.8-2.7,2.4-5.2,2.3c-0.6,0-3.6,0-6.3-1.6c-2.3-1.4-7.7-8.5-7.7-8.5c1.8-1,4.3-1.5,7.6-4.2c2.8-2.3,3.7-3.5,5.6-5.2
	C255.1,600.8,258.2,601.6,259.1,602.4z"/>
<path class="st4" d="M263.6,616.4c0.4-0.6,2.2,4.5,4.6,5.4c1.1,0.4,1.5-0.3,3.8-0.3c2.3,0,4.9,1.4,4.9,2.2c0.1,0.8-2.6,1.6-2.6,1.6
	s1.2,1,3.5,2.7c0.7,0.5,1.8,1.6,1.6,1.9c-0.2,0.4-4-0.9-4-0.9s0.3,0.7,2.4,2.7c1.4,1.4,1.8,1.8,1.7,2c-0.3,0.5-3,0.1-3,0.1
	s1.1,1.8,2.4,2.7c0.4,0.2,0.8,0.5,0.8,0.7c-0.1,0.3-2.4,0.1-2.4,0.1s1,2.3,1.1,2.4c0.5,0.9,0.7,1.5,0.5,1.7c-0.2,0.3-1.8,0-1.8,0
	s1.4,2.8,1.3,2.9c-0.1,0.1-2-1.4-2-1.4s0.1,4.8-0.8,4.8c-0.4,0-1.5-2.5-1.6-6.2c0,0-0.7,4.5-0.9,4.4c-0.3,0-1.1-5.6-1.1-5.6
	s-1,2.9-1.4,2.8c-0.4-0.1-0.5-3.8-0.5-3.8s-1.1,3-1.2,3c-0.2-0.1,0-4.7,0-4.7s-1.8,2.4-2.6,2.2c-1.1-0.4,0-6.9,0-6.9
	s-0.9,4.7-1.4,5.5c-0.3,0.4-0.7-1.8-0.7-1.8s0.1,3.3-0.2,3.4c-0.2,0.1-1.2-1.1-1.2-1.1s-1.6,3.3-1.9,3.3c-0.2,0-0.5-1.4-0.5-1.4
	s-2.4,2.7-2.9,2.5c-0.4-0.1-0.6-2-0.6-2s-2.3,3.6-2.7,3.4c-0.2-0.1-0.2-2.2-0.2-2.2s-2.6,0.7-2.9,0.4c-0.3-0.3,0.6-2.7,0.6-2.7
	s-3-0.4-3.1-0.8c-0.1-0.5,2.2-2,2.2-2s-3-1-3-1.1c0-0.1,3.6-0.9,3.6-0.9s-1.1-0.7-1.1-1.2c0.1-0.6,2.9-0.8,2.9-0.8s-1.7-0.6-1.7-1.1
	c0.1-0.6,3.2-1.3,3.2-1.3s-1.4-0.5-1.3-0.9c0.1-0.6,4-1.4,4-1.4s-4.1-0.5-4.1-1.2c0-0.6,4.7-0.4,6-2.1c1-1.4,1.3-4.6-0.5-5.4
	C257.9,619.8,263.3,616.7,263.6,616.4z"/>
<path class="st4" d="M266.2,623.6c-0.3,0.5-1.4,0.8-1.4,0.8s0.8,0.8,0.6,1.2c-0.1,0.4-1.1,0.2-1.1,0.2s-0.4,1.8-0.5,1.8
	c-0.1,0,0-1.3-0.6-1.6c-0.4-0.2-1.1,0.3-1.1,0.3s0.7-1.5,0.8-2.5c0.2-1.6-0.4-1.7-1.4-2.8c-0.4-0.5,1.3-1.3,1.5-0.8
	C263.9,622,266.7,622.8,266.2,623.6z"/>
<path class="st5" d="M295.2,586.7c0.5,0.1,0.9,0.7,0.8,1.2c-7.8,42.4-10.1,50.1-10.9,54.3c-0.1,0.6-5.3,3.8-5.3,4.8
	c0,1.1,2.4-0.1,2.8,1.4c0.5,2-5.5,4.3-5.9,5.3c-0.6,1.5,3.6,0.5,2.3,2.7c-3,5.2-5.4,5.8-5.1,16.7c0.1,3.8-1.3,8.8-5.3,21.5
	c-9.7,30.6-12.1,38.5-12.8,38.9c-1.8,0.8-7.2,0.1-6.8-0.9c5.3-11.4,7.2-18.3,16.1-47.1c2.7-8.7,4-15.7,10.2-32.1
	c2.5-6.5,1-10.3,1-10.3s2,2.1,2,1.4c0.1-1.1-1.5-3.1-1.5-3.1s1.9,0.5,2,0.1c0.3-0.7-1.6-4.1-1.6-4.1s2.9,0.3,2.4-0.1
	c-1.6-1.2-3.1-3.3-3.1-3.3s1.4,0.2,2.5,0.3c0.5,0.1,0.8-0.5,0.5-0.9l-3.7-4c0,0,4.7,1.4,5,0.9c0.6-1.1,1.2-3.4,1.5-5
	c1.7-7.8,6.5-24.2,7.5-28.2c0.8-3,1-6,1.3-8.9C291.1,587.9,291.8,586,295.2,586.7z"/>
<path class="st5" d="M361.2,672.2c1.3-17.8-15.7-17.4-14.4-16.6c6.3,3.9,9.9,13,10,12.8c0.1-0.1-3.7-6.2-9.4-7.2
	c-4.9-0.8-12.4,4.7-10.3,4.3c6-1.4,17.8,2.5,17.8,4.9c0,1.2-6.3-3.8-11.6-2.3c-2.6,0.7-4.8,3.8-5.6,5.2c-0.2,0.3,0,0.7,0.4,0.7
	l14.7,0.4c0.3,0,0.4,0.5,0.1,0.6c-1.6,0.3-3.8,0.8-5.8,1.3c-3.2,0.7-5.6,3.1-4.6,4.6c0.6,1,1.7,1.7,11.5-1.7"/>
<path class="st5" d="M286,686.5c-1.3,0.3-3.9,0.6-5.4,0.6"/>
<path class="st5" d="M269.2,698.7c1.7,2.9,5.4,9.2,6.1,13.4c0.2,0.9,0.4,2.4-0.4,3c-1,0.7-3.4-0.2-3.4-0.2s0.7,2.1,0.3,4.3
	c-0.3,1.7-1.7,3.2-2.6,3.1c-1.3-0.2-2.1-3.2-2.1-3.2s0.6,4.8-0.7,5.4c-0.8,0.4-4-1.6-5.1-4.7"/>
<path class="st5" d="M270.8,692.7c2.4,8.2,6.9,13.7,6.4,16.7c-0.1,0.8-0.6,1.2-1.6,2.2"/>
<path class="st5" d="M207.5,719.5c-3-1.7-9.3-5.7-14.1-13.5c-4.9-7.9-5.7-12.5-5.8-22.7"/>
<path class="st5" d="M195.2,664.7c-1.5,1.5-5.2,4.1-6.7,5.6"/>
<path class="st5" d="M184.5,620.7c-1.8-1.1-4.2-3.7-9-3.7"/>
<path class="st5" d="M181.7,628.1c-1.1-1.9-4.3-5.7-11.2-4.3"/>
<path class="st5" d="M178.7,733.7c-0.5,2.2-3.5,4-6.1,5.1"/>
<path class="st5" d="M175.7,728.3c-0.5,3.4-5.1,4.3-9.4,4.3"/>
<path class="st6" d="M291.3,703c-0.8-0.5-1.8-1.3-2.8-2.3c-1-1-2.2-3-2.7-3.9"/>
<path class="st6" d="M285.3,670.9c-0.6,0.6-2.1,1.9-2.7,3c-1,1.8-1.6,3.5-1.8,4.6"/>
<path class="st7" d="M255.2,657.9c-4,2.4-7.3,5.3-9.9,7.3c-3,2.4-5.6,4.8-7.8,7"/>
<path class="st8" d="M258.1,598.2c0.4-1.7-0.2-2.4-1.2-2.8c-1.2-0.4-2.8,0.3-3,1.5c-0.2,1.4,0.4,2.7,1.8,2.8
	C256.9,599.8,257.7,599.8,258.1,598.2z"/>
<path class="st8" d="M265.9,634.5c0.2-1.5-0.4-6.3-1.7-8.1"/>
<path class="st8" d="M260.7,618.3c0.2,0.3,1.2,1.7,1.4,2"/>
<path class="st9" d="M289.2,665.6c3.9,0.6,6.6,3.2,8.2,4.7c2.5,2.4,4.7,5.1,5.1,8.9c0.3,2.4,0.7,5.7,0.9,8.2c0.2,1.9,0.6,7.8-0.7,11
	c-1.7,4.4-4.2,5.5-6.6,7.1"/>
<path class="st9" d="M297.9,673.6"/>
<path class="st2" d="M319.2,704c-12.1,1.9-11.8-1-12.3-4.4c-0.5-3.4-1.8-6.3,10.3-8c6.3-0.9,11.8,1,12.3,4.4
	C330.1,699.5,325.5,703.1,319.2,704z"/>
<path class="st2" d="M309.8,667.9c3.1-1.6,4.1-3.2,3.4-4.7c-0.7-1.6-2.1-2.6-3.5-2.2c-2.8,0.8-4.7,1.7-5.7,2.3
	c-1.3,0.7-2.2,1.5-2.2,3.2c0,1.4,0.9,2.4,2.2,2.8C305.3,669.7,306.3,669.6,309.8,667.9z"/>
<path class="st2" d="M308.1,657.8c-11.2,4.9-9.4,7.2-8,10.3s1.9,6.3,13,1.2c5.8-2.6,9.4-7.2,8-10.3
	C319.7,655.8,313.9,655.2,308.1,657.8z"/>
<path class="st10" d="M301.7,654.9c9.3-4.1,23.8-4.6,27.9,0.8c2.9,4,0.3,8.9-8.9,15.6c-11.9,8.7-18.6,5.4-18.6,5.4s2.3,13,1.6,17.5
	c0,0,13.3-11.2,31.2-6.2c5.6,1.6,7.9,5,3.7,10.5c-8.4,11.2-26.1,11.5-42.2,6.9c0,0-4.3,7.6-14.4,2c-6.2-3.5-8.8-12.1-10.9-18.9
	c-0.7-2.2,1.1-4.7,1.7-7.3c1.2-4.6,1.2-7.3,1.4-7.8c0,0,1.1-2,4.4-4.8c5-4.3,10.6-3,10.6-3S294.4,658.1,301.7,654.9z"/>
<path class="st11" d="M189.3,640c0,0-1.3-4.9-1.5-7.2c-0.2-2.9,2.6-4.8,2.6-9.4c-0.1-5-3.3-7.4-5.9-8.6c-3.6-1.7-8.4,1-10.9,4
	c-5.3,6.2-5.7,13.7-5.9,16.9c-0.9,14.9,3.8,14.1,7.6,29.2c1.2,4.9,6.3,6.4,6.8,6.3c0.5-0.1-5.6-3.1-3.3-16.8
	c0.7-4.3,2.3-8.9,5.2-11.7C185.7,641,189.3,640,189.3,640z"/>
<path class="st11" d="M180.6,683.1c-4.2,2.5-6.3,9.9-8.6,15.4c-6.4,14.9-9.2,21.4-10,27.7c-0.4,3,4.1,5.7,4.1,5.7s1.1,7.5,6.1,6.5
	c0.2,0,0.5,0,0.4,0.2c-0.3,1.1,6.1,3.2,9.9-0.6c1-1.1,0.6-4,1-9.7c0.2-3.1,1.9-7.8,2.7-13.2c-1.9,3.2-5.3,4.3-7.9,2.2
	c-3.1-2.6-4-6.5-3.3-10.5c3.7-23.2,13.1-22.5,12.5-23.6C187.1,682.3,181.4,682.6,180.6,683.1z"/>
<path class="st0" d="M423.1,617.6c-2.6-0.8-22.9-3.9-32-3.9c-6,0-18.9,0.8-25.4,6.2c-12.2,10.1-18,26.6-16.6,27.3
	c1.2,0.5,4.8-3.5,13.2-10.4c8.1-6.6,12.6-8.3,20.5-10.6c10.2-3,27.2-5.8,40.5-7.5C424,618.5,423.9,617.8,423.1,617.6z"/>
<path class="st0" d="M432.9,717c1-2.8-12.8-10.7-23-15.4c-22.4-10.2-47.3-13.8-48.5-10.4c-0.5,1.6,4.2,4.5,12.3,9.3
	c11.4,6.8,23.2,11.4,35.9,14.3C415,716,431.9,719.9,432.9,717z"/>
<rect x="496" y="104.2" class="st0" width="57" height="57"/>
</svg>
