<?xml version="1.0" encoding="utf-8"?>
<!-- Generator: Adobe Illustrator 26.0.3, SVG Export Plug-In . SVG Version: 6.00 Build 0)  -->
<svg version="1.1" id="Layer_1" xmlns="http://www.w3.org/2000/svg" xmlns:xlink="http://www.w3.org/1999/xlink" x="0px" y="0px"
	 viewBox="0 0 566.9 566.9" style="enable-background:new 0 0 566.9 566.9;" xml:space="preserve">
<style type="text/css">
	.st0{fill:none;stroke:#C057A1;stroke-miterlimit:10;}
	.st1{fill:none;stroke:#4552A3;stroke-miterlimit:10;}
</style>
<path class="st0" d="M249.1,318c-2.3,0-4.1-2-4.1-4.6c0,0,0.4-49.3,0.4-49.3h-23.5c0,0.2-0.2,49.5-0.2,49.5c0,1.2,0,4.5-3.3,4.5
	h-15.4c-2.5,0-4.5-2.1-4.5-4.7v-65.1c0-2.7,2.1-5,4.7-5h60.6c2.4,0,4.3,2,4.3,4.6V313c0,2.7-2.1,5-4.7,5H249.1z"/>
<path class="st0" d="M218.5,316h-15.4c-1.4,0-2.5-1.2-2.5-2.8v-65.1c0-1.7,1.2-3,2.7-3h60.6c1.3,0,2.3,1.2,2.3,2.6V313
	c0,1.6-1.2,3-2.7,3h-14.4c-1.3,0-2.1-1.2-2.1-2.7l0.4-49.2c0-1.4-0.6-2-1.9-2h-24.3c-1.3,0-1.3,1.1-1.3,2.5l-0.2,49
	C219.8,314.9,219.8,316,218.5,316z"/>
<path class="st1" d="M309.3,323.9c-0.4,0-1.6-0.1-2.2-1.5c-1.3-2.8-0.9-17.8,0.9-19.9c6.1-7.1,12.5-12.9,16.8-16.5
	c0.4-0.4,0.5-0.8,0.5-1.1c0-0.2-0.1-0.7-0.6-1c-3.6-2.5-9.2-6.6-15.5-12.4c-2.4-2.2-1.9-16.9-0.6-20.2c0.7-1.9,1.9-2.1,2.6-2.1
	c0,0,0,0,0,0c8.1,0,15.5,0,22,0c8,0,27.9,0,27.9,0c3.1,0,5,3.6,5,9.6c0,5.2-1.4,11.2-5.5,11.3c-2.7,0-6,0.1-9.3,0.1
	c-4.6,0-9.2,0-12.4,0c9.1,12.4,9.1,13.7,9,14.6c-0.1,1-0.2,3.3-12.9,18.2c2.6-0.1,6.7-0.2,11.7-0.2c5.8,0,11.6,0.1,17.3,0.4
	c3.7,0.2,3.8,9.5,3.7,12.4c0,2.1-0.2,8.5-4.2,8.5H309.3z"/>
<path class="st1" d="M361.1,251.1c-7.8,0-25.6,0-49.9,0c-2.2,0-2.2,17.6-0.7,18.9c6.3,5.8,11.8,9.9,15.3,12.2
	c1.8,1.2,1.9,3.9,0.2,5.3c-3.9,3.2-10.4,9-16.6,16.3c-1.2,1.4-1.9,18.2-0.2,18.2c9.9,0,32.9,0,54.6,0c3.5,0,2.2-16.8,0.3-16.9
	c-12.9-0.5-23.5-0.4-29.1-0.2c-1.7,0.1-2.6-1.9-1.5-3.1c4.4-5.2,12.4-14.9,12.5-17.2c0.1-1.3-5.5-9.1-8.7-13.5c-0.9-1.3,0-3,1.5-3
	c5.4,0,15.4,0.1,21.8,0C365,267.9,365.4,251.1,361.1,251.1z"/>
</svg>
