<?xml version="1.0" encoding="utf-8"?>
<!-- Generator: Adobe Illustrator 26.0.3, SVG Export Plug-In . SVG Version: 6.00 Build 0)  -->
<svg version="1.1" id="Layer_1" xmlns="http://www.w3.org/2000/svg" xmlns:xlink="http://www.w3.org/1999/xlink" x="0px" y="0px"
	 viewBox="0 0 566.9 566.9" style="enable-background:new 0 0 566.9 566.9;" xml:space="preserve">
<style type="text/css">
	.st0{fill:none;stroke:#C057A1;stroke-miterlimit:10;}
	.st1{fill:none;stroke:#4552A3;stroke-miterlimit:10;}
</style>
<path class="st0" d="M260,325.9c-6.7,0-12-5.5-12-12.6l0.3-41.4h-7.6l-0.1,41.6c0,9.8-7.1,12.4-11.2,12.4H214
	c-6.8,0-12.4-5.7-12.4-12.7v-65.1c0-7.1,5.7-12.9,12.6-12.9h60.6c6.8,0,12.3,5.6,12.3,12.5V313c0,7.1-5.7,12.9-12.6,12.9H260z"/>
<path class="st0" d="M229.4,316H214c-1.4,0-2.5-1.2-2.5-2.8v-65.1c0-1.7,1.2-3,2.7-3h60.6c1.3,0,2.3,1.2,2.3,2.6V313
	c0,1.6-1.2,3-2.7,3H260c-1.3,0-2.1-1.2-2.1-2.7l0.4-49.2c0-1.4-0.6-2-1.9-2h-24.3c-1.3,0-1.3,1.1-1.3,2.5l-0.2,49
	C230.7,314.9,230.7,316,229.4,316z"/>
<path class="st1" d="M320.2,331.9c-4.1,0-7.7-2.4-9.4-6.1c-0.6-1.3-1.8-4-1.4-13.9c0.4-9.2,1.5-12.2,3.5-14.5
	c3.9-4.6,7.9-8.6,11.5-11.9c-2.9-2.2-6.1-4.9-9.6-8.1c-3.1-2.8-4.2-6.9-4.2-15.4c0-4.2,0.2-10,1.7-13.6c2.1-5.3,6.5-7.2,10-7.2
	c0,0,0,0,0,0c8.1,0,15.5,0,22,0c8,0,27.9,0,27.9,0c5.9,0,12.9,4.6,13,17.5c0.1,14.1-7.1,19.2-13.3,19.3c-1.8,0-4.1,0-6.7,0
	c1.8,3.3,2,5,1.9,7.1c-0.1,2.3-0.6,4.5-4.2,9.8c4.3,0,8.6,0.2,12.9,0.3c3.3,0.1,9,1.8,10.7,11.7c0.5,2.7,0.7,5.9,0.6,8.8
	c-0.3,15.1-9.3,16.3-12.1,16.3H320.2z"/>
<path class="st1" d="M372,251.1c-7.8,0-25.6,0-49.9,0c-2.2,0-2.2,17.6-0.7,18.9c6.3,5.8,11.8,9.9,15.3,12.2c1.8,1.2,1.9,3.9,0.2,5.3
	c-3.9,3.2-10.4,9-16.6,16.3c-1.2,1.4-1.9,18.2-0.2,18.2c9.9,0,32.9,0,54.6,0c3.5,0,2.2-16.8,0.3-16.9c-12.9-0.5-23.5-0.4-29.1-0.2
	c-1.7,0.1-2.6-1.9-1.5-3.1c4.4-5.2,12.4-14.9,12.5-17.2c0.1-1.3-5.5-9.1-8.7-13.5c-0.9-1.3,0-3,1.5-3c5.4,0,15.4,0.1,21.8,0
	C375.9,267.9,376.3,251.1,372,251.1z"/>
</svg>
