<?xml version="1.0" encoding="utf-8"?>
<!-- Generator: Adobe Illustrator 26.0.3, SVG Export Plug-In . SVG Version: 6.00 Build 0)  -->
<svg version="1.1" id="Layer_1" xmlns="http://www.w3.org/2000/svg" xmlns:xlink="http://www.w3.org/1999/xlink" x="0px" y="0px"
	 viewBox="0 0 566.9 566.9" style="enable-background:new 0 0 566.9 566.9;" xml:space="preserve">
<style type="text/css">
	.st0{fill:none;stroke:#C057A1;stroke-miterlimit:10;}
</style>
<path class="st0" d="M224.2,272.2c-4.9,0-9.7-0.2-14.4-0.4c-4.7-0.2-9.5-0.4-14.5-0.4c-2.7,0-5.2,0.1-7.6,0.2c-0.3,0-0.5,0-0.7,0
	c-4,0-7.1-1.5-9-4.2c-2.1-3.1-2.2-7.3-0.3-11.9c4.3-10.8,8.9-20.4,13.8-30.5c3.3-6.8,6.7-13.9,10.3-21.9c1.6-3.5,5.4-5.8,9.5-5.8
	c3.8,0,7,2,8.8,5.4c5.9,11.4,9.5,19.3,13.3,27.6c2.7,5.8,5.5,11.9,9.2,19.5c3.7,7.6,4.5,13.2,2.2,17c-1.7,2.9-5,4.6-9.9,4.9
	C231.4,272.1,227.9,272.2,224.2,272.2z"/>
<path class="st0" d="M187.5,269.7c-7.9,0.4-11.2-5.6-8.1-13.3c7.2-18,15.1-32.4,24-52.3c2.3-5.2,11.2-6.9,14.7-0.3
	c10,19.5,13.6,28.8,22.5,47c6.6,13.4,2.6,18.5-6,19.1C218,271,204.2,269,187.5,269.7z"/>
<path class="st0" d="M132.1,242.1c-1.7,0-3.4-0.1-5-0.1c-1.6-0.1-3.3-0.1-5-0.1c-0.8,0-1.7,0-2.6,0.1c-0.1,0-0.2,0-0.3,0
	c-1.8,0-3.3-0.7-4.2-2c-1-1.4-1.1-3.3-0.2-5.3c1.5-3.8,3.1-7.1,4.8-10.6c1.1-2.4,2.3-4.8,3.5-7.5c0.7-1.7,2.5-2.8,4.5-2.8
	c1.8,0,3.4,1,4.2,2.6c2.1,4,3.3,6.7,4.6,9.6c0.9,2,1.9,4.1,3.2,6.7c1.5,3.1,1.7,5.4,0.7,7.1c-0.6,1-1.8,2.2-4.5,2.3
	C134.7,242,133.5,242.1,132.1,242.1z"/>
<path class="st0" d="M119.5,239.9c-2.7,0.1-3.9-1.9-2.8-4.6c2.5-6.2,5.2-11.2,8.3-18.1c0.8-1.8,3.9-2.4,5.1-0.1
	c3.5,6.7,4.7,9.9,7.8,16.3c2.3,4.6,0.9,6.4-2.1,6.6C130,240.3,125.2,239.6,119.5,239.9z"/>
<path class="st0" d="M317.7,276.5c-0.8,0-1.6,0-2.4-0.1c-10.1-0.7-19.2-5.9-25.7-14.5c-6.9-9.2-9.8-21-7.5-31.6
	c2.9-13.9,14.5-25.5,28.2-28.1c2-0.4,4.1-0.6,6.1-0.6c18.3,0,38,14.8,38.3,36.9c0.1,9.8-3.9,19.5-11,26.8
	C336.6,272.4,327.1,276.5,317.7,276.5C317.7,276.5,317.7,276.5,317.7,276.5z"/>
<path class="st0" d="M310.5,204.2c-13,2.5-23.9,13.5-26.6,26.5c-4.1,19.4,9.9,42.2,31.5,43.7c19.9,1.4,37.5-15.9,37.3-35.9
	C352.3,216.4,330.1,200.5,310.5,204.2z"/>
<path class="st0" d="M138.8,339.7c-0.4,0-0.9,0-1.3,0c-5.5-0.4-10.4-3.2-14-7.8c-3.7-5-5.3-11.4-4.1-17.1
	c1.6-7.6,7.9-13.8,15.3-15.2c1.1-0.2,2.2-0.3,3.3-0.3c9.9,0,20.6,8,20.7,20c0.1,5.3-2.1,10.6-6,14.5
	C149.1,337.5,144,339.7,138.8,339.7C138.8,339.7,138.8,339.7,138.8,339.7z"/>
<path class="st0" d="M135.2,301.4c-6.7,1.3-12.3,6.9-13.7,13.7c-2.1,10,5.1,21.7,16.2,22.5c10.3,0.7,19.4-8.2,19.2-18.5
	C156.7,307.7,145.2,299.5,135.2,301.4z"/>
<path class="st0" d="M246.4,347c-2.5,0-4.5-2-4.5-4.5v-5.7c0-2.5,2-4.5,4.5-4.5h22.9c2.5,0,4.5,2,4.5,4.5v5.7c0,2.5-2,4.5-4.5,4.5
	H246.4z"/>
<path class="st0" d="M269.3,345h-22.9c-1.4,0-2.5-1.1-2.5-2.5v-5.7c0-1.4,1.1-2.5,2.5-2.5h22.9c1.4,0,2.5,1.1,2.5,2.5v5.7
	C271.8,343.9,270.7,345,269.3,345z"/>
<path class="st0" d="M385.5,225c-1.9,0-3.5-1.6-3.5-3.5v-14.9c0-1.9,1.6-3.5,3.5-3.5H449c1.9,0,3.5,1.6,3.5,3.5v14.9
	c0,1.9-1.6,3.5-3.5,3.5H385.5z"/>
<path class="st0" d="M449,223.1h-63.5c-0.8,0-1.5-0.7-1.5-1.5v-14.9c0-0.8,0.7-1.5,1.5-1.5H449c0.8,0,1.5,0.7,1.5,1.5v14.9
	C450.5,222.4,449.8,223.1,449,223.1z"/>
<path class="st0" d="M331.1,371.5c-1.8,0-3.3-1.5-3.3-3.3v-15.3c0-1.8,1.5-3.3,3.3-3.3H395c1.8,0,3.3,1.5,3.3,3.3v15.3
	c0,1.8-1.5,3.3-3.3,3.3H331.1z"/>
<path class="st0" d="M395,369.5h-63.9c-0.7,0-1.3-0.6-1.3-1.3v-15.3c0-0.7,0.6-1.3,1.3-1.3H395c0.7,0,1.3,0.6,1.3,1.3v15.3
	C396.3,368.9,395.7,369.5,395,369.5z"/>
<path class="st0" d="M339.6,321.4c-2.5,0-4.5-2-4.5-4.5v-7.7c0-2.5,2-4.5,4.5-4.5h34.9c2.5,0,4.5,2,4.5,4.5v7.7c0,2.5-2,4.5-4.5,4.5
	H339.6z"/>
<path class="st0" d="M374.5,319.4h-34.9c-1.4,0-2.5-1.1-2.5-2.5v-7.7c0-1.4,1.1-2.5,2.5-2.5h34.9c1.4,0,2.5,1.1,2.5,2.5v7.7
	C377,318.3,375.9,319.4,374.5,319.4z"/>
</svg>
