<?xml version="1.0" encoding="utf-8"?>
<!-- Generator: Adobe Illustrator 26.0.3, SVG Export Plug-In . SVG Version: 6.00 Build 0)  -->
<svg version="1.1" id="Layer_1" xmlns="http://www.w3.org/2000/svg" xmlns:xlink="http://www.w3.org/1999/xlink" x="0px" y="0px"
	 viewBox="0 0 566.9 566.9" style="enable-background:new 0 0 566.9 566.9;" xml:space="preserve">
<style type="text/css">
	.st0{fill:none;stroke:#C057A1;stroke-miterlimit:10;}
</style>
<path class="st0" d="M206.4,306.3c-5.1,0-10-0.2-14.7-0.4c-4.6-0.2-9.4-0.4-14.2-0.4c-2.6,0-5,0-7.3,0.2c-0.4,0-0.7,0-1.1,0
	c-6.6,0-12.3-2.8-15.6-7.7c-3.6-5.3-4-12.3-1.1-19.4c4.4-11.1,9.1-20.7,14-31c3.3-6.8,6.6-13.8,10.2-21.7
	c2.8-6.3,9.6-10.5,16.8-10.5c6.8,0,12.8,3.7,15.9,9.8c6,11.6,9.6,19.5,13.5,28c2.7,5.8,5.4,11.8,9.1,19.3c1.8,3.8,7.4,15.2,2,24.6
	c-2.2,3.7-6.7,8.3-16.3,8.9C214,306.2,210.4,306.3,206.4,306.3z"/>
<path class="st0" d="M169.8,295.8c-7.9,0.4-11.2-5.6-8.1-13.3c7.2-18,15.1-32.4,24-52.3c2.3-5.2,11.2-6.9,14.7-0.3
	c10,19.5,13.6,28.8,22.5,47c6.6,13.4,2.6,18.5-6,19.1C200.3,297.1,186.4,295,169.8,295.8z"/>
<path class="st0" d="M114.4,276.2c-1.9,0-3.6-0.1-5.3-0.1c-1.6-0.1-3.1-0.1-4.7-0.1c-0.7,0-1.5,0-2.2,0c-0.2,0-0.4,0-0.7,0
	c-4.5,0-8.4-2-10.8-5.5c-2.5-3.6-2.8-8.3-1-12.8c1.6-4,3.3-7.5,5-11.1c1.1-2.3,2.3-4.7,3.4-7.3c2-4.6,6.7-7.5,11.8-7.5
	c4.8,0,9.1,2.7,11.3,6.9c2.1,4.1,3.5,7.1,4.8,9.9c0.9,2,1.8,4,3.1,6.5c2.7,5.6,2.9,10.5,0.5,14.7c-1.3,2.2-4.4,5.9-10.9,6.3
	C117.3,276.1,115.9,276.2,114.4,276.2z"/>
<path class="st0" d="M101.8,266c-2.7,0.1-3.9-1.9-2.8-4.6c2.5-6.2,5.2-11.2,8.3-18.1c0.8-1.8,3.9-2.4,5.1-0.1
	c3.5,6.7,4.7,9.9,7.8,16.3c2.3,4.6,0.9,6.4-2.1,6.6C112.3,266.4,107.5,265.7,101.8,266z"/>
<path class="st0" d="M299.9,310.6c-1,0-2,0-3-0.1c-12.4-0.9-23.7-7.2-31.6-17.6c-8.3-11-11.7-25.3-9-38.1
	c3.6-17,17.8-31.1,34.6-34.3c2.5-0.5,5.1-0.7,7.6-0.7c22.1,0,46,18,46.3,44.8c0.2,11.9-4.7,23.8-13.4,32.5
	C323,305.7,311.5,310.6,299.9,310.6C299.9,310.6,299.9,310.6,299.9,310.6z"/>
<path class="st0" d="M292.8,230.3c-13,2.5-23.9,13.5-26.6,26.5c-4.1,19.4,9.9,42.2,31.5,43.7c19.9,1.4,37.5-15.9,37.3-35.9
	C334.6,242.5,312.3,226.6,292.8,230.3z"/>
<path class="st0" d="M121.1,373.8c-0.6,0-1.3,0-1.9-0.1c-7.8-0.6-14.9-4.5-19.8-11c-5.1-6.8-7.2-15.6-5.5-23.6
	c2.3-10.8,11-19.4,21.7-21.4c1.6-0.3,3.2-0.4,4.8-0.4c15.4,0,28.5,12.8,28.7,27.9c0.1,7.4-2.9,14.8-8.3,20.2
	C135.6,370.7,128.4,373.8,121.1,373.8C121.1,373.8,121.1,373.8,121.1,373.8z"/>
<path class="st0" d="M117.4,327.5c-6.7,1.3-12.3,6.9-13.7,13.7c-2.1,10,5.1,21.7,16.2,22.5c10.3,0.7,19.4-8.2,19.2-18.5
	C139,333.8,127.5,325.6,117.4,327.5z"/>
<path class="st0" d="M228.7,381.1c-6.9,0-12.5-5.6-12.5-12.5v-5.7c0-6.9,5.6-12.5,12.5-12.5h22.9c6.9,0,12.5,5.6,12.5,12.5v5.7
	c0,6.9-5.6,12.5-12.5,12.5H228.7z"/>
<path class="st0" d="M251.6,371.1h-22.9c-1.4,0-2.5-1.1-2.5-2.5v-5.7c0-1.4,1.1-2.5,2.5-2.5h22.9c1.4,0,2.5,1.1,2.5,2.5v5.7
	C254.1,370,253,371.1,251.6,371.1z"/>
<path class="st0" d="M367.8,259.2c-6.3,0-11.5-5.2-11.5-11.5v-14.9c0-6.3,5.2-11.5,11.5-11.5h63.5c6.3,0,11.5,5.2,11.5,11.5v14.9
	c0,6.3-5.2,11.5-11.5,11.5H367.8z"/>
<path class="st0" d="M431.3,249.2h-63.5c-0.8,0-1.5-0.7-1.5-1.5v-14.9c0-0.8,0.7-1.5,1.5-1.5h63.5c0.8,0,1.5,0.7,1.5,1.5v14.9
	C432.8,248.5,432.1,249.2,431.3,249.2z"/>
<path class="st0" d="M313.4,405.6c-6.2,0-11.3-5.1-11.3-11.3v-15.3c0-6.2,5.1-11.3,11.3-11.3h63.9c6.2,0,11.3,5.1,11.3,11.3v15.3
	c0,6.2-5.1,11.3-11.3,11.3H313.4z"/>
<path class="st0" d="M377.3,395.6h-63.9c-0.7,0-1.3-0.6-1.3-1.3v-15.3c0-0.7,0.6-1.3,1.3-1.3h63.9c0.7,0,1.3,0.6,1.3,1.3v15.3
	C378.6,395,378,395.6,377.3,395.6z"/>
<path class="st0" d="M321.9,355.5c-6.9,0-12.5-5.6-12.5-12.5v-7.7c0-6.9,5.6-12.5,12.5-12.5h34.9c6.9,0,12.5,5.6,12.5,12.5v7.7
	c0,6.9-5.6,12.5-12.5,12.5H321.9z"/>
<path class="st0" d="M356.8,345.5h-34.9c-1.4,0-2.5-1.1-2.5-2.5v-7.7c0-1.4,1.1-2.5,2.5-2.5h34.9c1.4,0,2.5,1.1,2.5,2.5v7.7
	C359.3,344.4,358.2,345.5,356.8,345.5z"/>
</svg>
