<?xml version="1.0" encoding="utf-8"?>
<!-- Generator: Adobe Illustrator 26.0.3, SVG Export Plug-In . SVG Version: 6.00 Build 0)  -->
<svg version="1.1" id="Layer_1" xmlns="http://www.w3.org/2000/svg" xmlns:xlink="http://www.w3.org/1999/xlink" x="0px" y="0px"
	 viewBox="0 0 566.9 566.9" style="enable-background:new 0 0 566.9 566.9;" xml:space="preserve">
<style type="text/css">
	.st0{fill:none;stroke:#DD9A34;stroke-miterlimit:10;}
</style>
<path class="st0" d="M299.1,321.2c-11.3,0-12-1.1-12.6-2c-2.4-3.6-0.9-12.7-0.9-12.8c0.4-2.3,1.4-3.4,2.5-4.5c0.9-0.9,1.9-2,3.2-4.3
	c7.1-12.7,5.4-26.1,1.5-30.5c-2.2-2.4-5.4-3.8-9.1-3.8c-3.8,0-7.6,1.5-9.9,3.9c-5.9,6-5.3,16.9,1.7,30.5c0.7,1.3,1.6,2.5,2.4,3.6
	c1.4,1.8,2.6,3.4,3,5.5c0,0.1,1.5,8.2-0.1,12.1c-0.6,1.5-2.1,2.1-9.8,2.1c-4.6,0-10.5-0.3-15.6-0.7c-2.3-0.2-2.5-3-2.7-4.2
	c0-0.1-1-10.5,2.1-11.4c0.4-0.1,1-0.3,5.9-0.3c-0.1-0.1-0.2-0.2-0.3-0.3c-1.9-1.8-8-9-7.6-24.4c0.4-16.4,7.8-23.8,15-28.9
	c4.7-3.4,11.5-3.9,15.1-3.9c6.3,0,12.3,1.5,15.7,3.9c7,5,14.9,12.8,14.6,29.2c-0.3,14.4-5.1,21.5-7.1,23.8c-0.2,0.2-0.3,0.3-0.5,0.5
	c1.1,0,2.3,0,3.2,0c1.2,0,1.7,0,2-0.1l0.1,0l0.1,0c2.3,0,2.6,2.8,2.7,3.8c0.2,1.7,0.2,4.3,0,6.7c-0.2,3.5-0.7,5.3-2.3,5.6
	C309.5,320.9,303.6,321.2,299.1,321.2z"/>
<path class="st0" d="M278.9,318.1c-0.5,1.3-14.5,0.9-23.4,0.2c-1.5-0.1-1-11.5-0.1-11.7c1.2-0.3,9.4-0.2,11.7-0.2
	c0.1,0,0.2-0.2,0-0.2c-1.2-0.5-3.8-2-5.3-3.5c-3-2.9-7.3-10.1-7-22.9c0.3-14.8,6.6-22,14.2-27.3c7.2-5.1,22.6-4.2,28.4,0
	c8.1,5.8,14,13.4,13.8,27.6c-0.3,12.4-3.9,19.4-6.6,22.6c-2,2.4-4.7,3-6.1,3.5c-0.1,0,0,0.1,0,0.1c1.9,0,10.2,0.4,12.5,0.1
	c1.4-0.1,0.9,12,0,12.2c-3.3,0.7-21.9,1.1-23-0.5c-1.6-2.5-0.9-9.6-0.6-11.3c0.6-3.3,2.5-2.9,5.5-8.2c7.6-13.6,5.6-27.8,1.2-32.8
	c-5.8-6.5-16.7-5.3-21.9,0c-6.2,6.4-6.4,17.7,1.3,32.8c1.8,3.4,4.7,5.7,5.3,8.6C279.2,308,280.2,315,278.9,318.1z"/>
</svg>
