<?xml version="1.0" encoding="utf-8"?>
<!-- Generator: Adobe Illustrator 26.0.3, SVG Export Plug-In . SVG Version: 6.00 Build 0)  -->
<svg version="1.1" id="Layer_1" xmlns="http://www.w3.org/2000/svg" xmlns:xlink="http://www.w3.org/1999/xlink" x="0px" y="0px"
	 viewBox="0 0 566.9 566.9" style="enable-background:new 0 0 566.9 566.9;" xml:space="preserve">
<style type="text/css">
	.st0{fill:none;stroke:#DD9A34;stroke-miterlimit:10;}
</style>
<path class="st0" d="M299.1,329.1c-7.5,0-12.2-0.4-15.5-2.1c-3.6,1.9-8.3,1.9-12.6,1.9c-4.8,0-11-0.3-16.2-0.7
	c-2.1-0.2-8.9-1.5-9.9-11.3c-0.2-2.1-0.2-5,0-7.6c0.2-2.1,0.5-6.6,3.5-9.7c-2-4.9-3.6-11.4-3.4-20c0.5-20.2,10.7-29.8,18.4-35.2
	c6.5-4.6,15.1-5.3,19.7-5.3c3.9,0,13.6,0.5,20.3,5.4c7.9,5.7,18.3,15.5,17.9,35.8c-0.2,8-1.5,14.2-3.3,18.8c1.8,1.6,3.3,4.2,3.8,8.3
	c0.2,2.2,0.3,5.2,0.1,8.1c-0.2,3-0.8,11.1-8.6,12.8C309.4,329.1,300.1,329.1,299.1,329.1z M283.7,271.3c-1.8,0-3.5,0.7-4.2,1.5
	c-3.2,3.3-2,11.4,3.1,21.3c0.2,0.4,0.5,0.8,0.8,1.3c0.3-0.4,0.6-0.9,1-1.6c5.9-10.6,3.6-19.8,2.4-21.4
	C285.9,271.4,284.5,271.3,283.7,271.3z"/>
<path class="st0" d="M278.9,318.1c-0.5,1.3-14.5,0.9-23.4,0.2c-1.5-0.1-1-11.5-0.1-11.7c1.2-0.3,9.4-0.2,11.7-0.2
	c0.1,0,0.2-0.2,0-0.2c-1.2-0.5-3.8-2-5.3-3.5c-3-2.9-7.3-10.1-7-22.9c0.3-14.8,6.6-22,14.2-27.3c7.2-5.1,22.6-4.2,28.4,0
	c8.1,5.8,14,13.4,13.8,27.6c-0.3,12.4-3.9,19.4-6.6,22.6c-2,2.4-4.7,3-6.1,3.5c-0.1,0,0,0.1,0,0.1c1.9,0,10.2,0.4,12.5,0.1
	c1.4-0.1,0.9,12,0,12.2c-3.3,0.7-21.9,1.1-23-0.5c-1.6-2.5-0.9-9.6-0.6-11.3c0.6-3.3,2.5-2.9,5.5-8.2c7.6-13.6,5.6-27.8,1.2-32.8
	c-5.8-6.5-16.7-5.3-21.9,0c-6.2,6.4-6.4,17.7,1.3,32.8c1.8,3.4,4.7,5.7,5.3,8.6C279.2,308,280.2,315,278.9,318.1z"/>
</svg>
