<?xml version="1.0" encoding="utf-8"?>
<!-- Generator: Adobe Illustrator 26.1.0, SVG Export Plug-In . SVG Version: 6.00 Build 0)  -->
<svg version="1.1" id="Layer_1" xmlns="http://www.w3.org/2000/svg" xmlns:xlink="http://www.w3.org/1999/xlink" x="0px" y="0px"
	 viewBox="0 0 566.9 566.9" style="enable-background:new 0 0 566.9 566.9;" xml:space="preserve">
<style type="text/css">
	.st0{fill:none;stroke:#010101;stroke-miterlimit:10;}
	.st1{fill:none;stroke:#51B848;stroke-miterlimit:10;}
	.st2{fill:none;stroke:#E4178E;stroke-miterlimit:10;}
</style>
<path class="st0" d="M262,469.3c-3.4,0-9.2-0.8-16.5-1.9c-6.3-0.9-12.6-1.1-20.7-1.3l-1.1,0c-4.5-0.1-8-0.2-12.5-2
	c-2.9-1.1-6.1-2.8-8.8-7.4c-0.8-1.4-2.7-6.1-1.3-10.3c2-5.8,8.1-6.8,10.1-7.1l0.2,0c1-0.2,2-0.2,3-0.2c3.9,0,7.5,1.2,11.7,2.7
	c0.8,0.3,1.5,0.5,2.2,0.7c-1-1.1-2-2.2-3.1-3.5c-2.4-2.8-5.4-6.4-7.7-11.6c-1.2-2.7-4.9-12.4-1.3-21.9c1.2-3.1,3.2-6.7,6.6-11.6
	c2.4-3.5,2.9-4.6,3.9-7.5c0.8-2.4,1.3-4.3,1.3-7c-1.7-1.4-6.4-4.9-12.5-7.3c-4.6-1.8-7.2-2.9-8.8-2.9c-0.2,0-0.4,0-0.6,0
	c-2.3,0-3.9,0.6-5.5,1.2c-1.3,0.5-2.5,0.9-3.9,0.9c-1.2,0-2.3-0.3-3.3-1c-3.4-2.2-2.6-5-2.3-6.3c0.1-0.2,0.1-0.5,0.2-0.7
	c-0.1-0.1-0.2-0.1-0.4-0.2c-0.5-0.2-1.4-0.5-2-1.6c-1-2,0.2-3.9,1.5-5.9c0.3-0.4,0.5-0.9,0.8-1.3c1-1.6,1.4-2.9,1.8-3.9
	c0.5-1.5,1.1-3.1,3-3.8c3.7-1.4,7.4-1.7,9.9-1.7c1.8,0,3.5,0.2,4.4,0.4c2.7,0.7,4.6,1.4,6,2.1c0-0.4,0-0.8,0-1.1
	c0-1.1,0.1-2.1,0.1-3c-1.9,0.8-4.2,1.6-5.7,1.6c-0.9,0-1.6-0.3-2.1-0.8c-1-1-0.7-2.4-0.6-3.2c0-0.1,0-0.2,0.1-0.4
	c-0.5-0.1-1.3-0.3-1.9-1.1c-1-1.4-1.2-3.4,4.9-9.1c4-3.7,6.3-4.6,8.3-5.5c0.4-0.1,0.7-0.3,1.1-0.4c0.2-0.3,0.4-0.9,0.6-1.4
	c0.5-1.2,1.1-2.7,1.9-4.1c1.1-1.8,3.4-3.5,5.2-4.9c0.2-0.1,0.4-0.3,0.6-0.5c-0.2-0.3-0.5-0.6-0.8-1c-0.9-1.1-2.1-2.5-3.3-4.2
	c-2.4-3.2-2.9-6-3.5-9.9c-0.1-0.8-0.3-1.6-0.4-2.5c-0.2-1.3-0.5-2.5-0.7-3.7c-1-4.8-1.6-8.3,0-12.2c1.4-3.3,2.6-4.2,8.3-8.6
	c1.2-0.9,2.5-2,4.2-3.2c4-3.1,6.3-5.1,8-6.6c2.4-2.1,3.8-3.3,6.9-5c5.4-2.9,9.3-4.2,11.2-4.8c0,0,0.1,0,0.1,0
	c0.3-2.8,0.3-5.3,0.4-7.8c0.2-6.7,0.3-13.1,4.1-20.7c4.3-8.5,20.3-14.6,33.9-17.5c12-2.5,18.3-8.5,24.1-14.8
	c3.2-3.6,4.4-6.3,5.2-8.2c0.7-1.7,1.5-3.7,3.9-3.7c0.2,0,0.5,0,0.7,0.1c6.3,1.1,9.3,16.5,7.6,29l-0.1,0.6c-0.8,6.3-3,22.9-16.4,34.1
	c-9.3,7.7-19.1,13.4-24,16c2.4,1.6,5.7,4,7.9,6.4c4-1.3,16.2-5.1,27.4-5.2c0.9,0,1.9,0,3-0.1c1.4,0,3-0.1,4.7-0.1
	c8,0,18.4,1.1,27.9,9.7c10.8,9.7,11.5,23.6,11.4,39.4c-0.1,11.8-4.7,23.5-4.9,24l-2.4,5.9l-1.4-6.1c0-0.1-2-8.1-8.7-15.2
	c-6-6.3-14.5-10-18.7-10.9c-3.6-0.8-6.1-1.2-8.1-1.5c-3.5-0.6-5.9-1-10.4-2.6c-1.7-0.6-3.1-1.4-4.2-2.4c0,2.4,0,4.9-0.2,7.7
	c-0.4,5.7-6.8,15.6-10.6,21c-1.6,2.3-2,4.1-2.1,8.4c-0.1,6.4-4.8,9.2-6.9,10.4l-0.2,0.1c-4.1,2.4-9.2,3.1-11.9,3.3
	c0,4,0.3,10.3,0.8,12c2.2,6.9,8.8,11.3,13.2,14.2c1.3,0.9,2.4,1.6,3.1,2.2c10.1,8.8,14.5,20.9,16.5,26.7c0.4,1.2,0.8,2.2,1,2.7
	c0.3-0.2,0.8-0.5,1.4-0.5l0.1,0l0.1,0c0.8,0,2.7,0,5.7,6.4c0,0,0.1,0,0.1,0h0.1c1.1,0,2,0.3,3.1,3.6c0.1,0,0.2,0,0.3,0
	c4.2,0,7.3,12.7,7.3,12.8c1.9,8.1,0.3,13.7,0,14.8c-0.7,2.3-2.7,8.3-8.6,13.2c-0.1,0.1-7.8,6.3-17.2,6.3c-0.6,0-1.1,0-1.7-0.1
	c-7.1-0.6-10.9-2.5-12.6-3.7c-0.9,0.4-2.2,0.8-3.6,1.2c-2.6,0.6-4.3,0.7-8.9,0.8l-0.4,0c-0.8,0-1.6,0-2.5,0
	c-6.8,0-11.6-0.9-14.8-2.7c-1.3-0.7-3.3-1.9-4.3-1.9c-0.1,0.3-0.1,1-0.2,1.5c-0.1,0.7-0.2,1.6-0.3,2.6c-0.3,1.5-0.3,2.2-0.3,2.7
	c0,0.7,0,1.6-1,2.6C265.3,469,264.1,469.3,262,469.3z"/>
<path class="st0" d="M260.6,253.3c1.2-10.8-0.8-18.7,4.4-29c3.8-7.6,18.8-13.5,32.5-16.4c12.3-2.6,18.8-8.5,25.1-15.4
	c6.7-7.3,5.2-11.6,8-11.1c4.4,0.7,7.7,14.2,6,26.8c-0.8,5.7-2.6,22.4-15.8,33.4c-12.6,10.6-26.7,17.4-26.7,17.4s8.1,4.9,11.2,8.9
	c0,0,14.9-5.4,28.1-5.5c8.1-0.1,22.1-2,34.3,9c10.2,9.2,10.9,22.3,10.8,37.9c-0.1,11.5-4.8,23.3-4.8,23.3s-2-8.5-9.2-16.1
	c-6.6-7-15.6-10.6-19.8-11.5c-9.7-2.1-11.3-1.6-18.3-4.1c-8-2.8-7.8-12.2-7.8-12.2s1.5,8.6,0.7,19.2c-0.3,4.1-4.6,11.9-10.3,20.1
	c-1.9,2.6-2.4,4.9-2.5,9.5c-0.1,5.5-4.2,7.7-6.1,8.8c-5.4,3.1-12.9,3.1-12.9,3.1s0,11.6,0.9,14.5c3.1,9.7,14,14.8,16.9,17.4
	c11.9,10.3,15.5,25.5,17.1,28.8c0.1,0.3,0.7,1.5,1.5,1.5c0.9,0,1.1-0.9,1.9-0.9c1.8-0.1,5,7.8,5,7.8s0.5-1.5,0.9-1.5
	c0.9-0.1,2.5,6.3,2.5,6.3s0.1-2.5,0.9-2.7c1.2-0.4,4.1,5.2,5.5,11.3c1.5,6.5,0.7,11.7,0,13.7c-0.8,2.4-2.6,7.8-8,12.3
	c-1.3,1.1-9,6.5-17.5,5.8c-9.5-0.8-12.4-4.1-12.4-4.1s-2.1,1-4.4,1.5c-2.4,0.6-4,0.6-8.8,0.7c-4.9,0.1-12,0-16.3-2.4
	c-2.5-1.4-4.9-2.7-6.3-2c-1.3,0.6-1,2.6-1.5,5.5c-0.6,3.4,0,3.5-0.7,4.2c-1.2,1.2-8.6,0.2-18.9-1.4c-6.4-0.9-12.8-1.1-20.9-1.4
	c-5-0.1-8.4-0.1-12.9-1.8c-2.5-1-5.4-2.5-7.8-6.5c-0.7-1.2-2.3-5.2-1.1-8.6c1.7-4.9,7.2-5.5,8.7-5.8c4.5-0.7,8.3,0.5,13.8,2.3
	c6.8,2.3,11,4.2,11,4.2s-4.4-3.8-9.7-10.1c-2.3-2.7-5.2-6.1-7.4-11.1c-1.5-3.5-4.4-12.1-1.3-20.4c0.9-2.3,2.5-5.6,6.3-11.1
	c2.5-3.7,3.1-4.9,4.2-8c1-2.8,1.5-5.2,1.4-8.6c0,0-5.7-5.1-13.7-8.2c-5-2-7.5-3-9.5-3.1c-6.4-0.3-8.9,3.6-12.3,1.4
	c-3.8-2.5,0.3-5-1.8-6.8c-0.9-0.7-1.6-0.5-2-1.2c-0.6-1.2,0.7-2.8,2.2-5.3c2.5-4.1,1.9-6.2,3.8-6.9c5.5-2.1,11.6-1.6,13-1.2
	c6.4,1.7,8.5,3.4,8.5,3.4c0-4.3,0.4-7.7,0-10.4c0,0-7.2,3.5-8.2,2.5c-0.6-0.6,0.7-2.5-0.2-3.6c-0.6-0.7-1.6-0.3-2-0.9
	c-0.7-0.9,2.4-4.3,4.7-6.4c4.6-4.4,6.6-4.5,9.2-5.7c0.7-0.3,1.4-3.6,2.9-6.1c1.5-2.6,6.7-5.4,6.6-6.1c-0.1-0.6-2.4-3-5.1-6.6
	c-2.6-3.4-2.6-6.3-3.5-11.6c-1.2-6.8-2.6-10.6-0.8-14.8c1.4-3.4,2.4-3.7,11.8-11c9.6-7.6,9.6-8.7,14.6-11.4
	C256.1,254.3,260.6,253.6,260.6,253.3z"/>
<path class="st1" d="M189,215.3l-0.2,0c-0.4-0.1-1.2-0.4-1.6-1.5c-0.9-2.4-0.7-16.4,5.2-24.3c3.8-5.1,15.3-12,25.8-13.8
	c8.1-1.4,12.6-3.3,15.3-4.5c1.7-0.7,2.8-1.2,3.9-1.2c0.8,0,1.5,0.2,2.1,0.7c1.1,0.8,3.2,2.6-9.1,18.7c-2.1,2.8-4.3,3.3-8.3,4.1
	c-2.9,0.6-6.8,1.4-13,3.5c-7,2.3-9.1,3.4-11.2,5.5c-2.4,2.5-4.2,6.5-5.4,9.1c-1.2,2.6-1.7,3.7-3.2,3.7H189z"/>
<path class="st1" d="M189.2,213.3c-0.9-0.2-1-15,4.8-22.7c3.4-4.6,14.4-11.3,24.5-13c14.8-2.6,17.9-6.8,19.7-5.3
	c1,0.8-3.6,8.4-9.4,15.9c-2.9,3.8-5.6,2-20.4,6.9c-6.9,2.3-9.5,3.5-12,6C192.3,205.6,189.9,213.5,189.2,213.3z"/>
<path class="st2" d="M277.3,143.9c0-0.1-2.8-9.2-8.7-15.3c-6-6.2-12.9-9.9-21.6-11.5c-1.4-0.3-2.8-0.5-4.1-0.7
	c-6.2-1.1-11.6-2-15.7-5.1c-1.8-1.3-5.7-10.1-5-12l0.5-1.3l1.5,0c0.3,0,0.8,0.1,1.3,0.5c3,2.4,5.8,2.6,11,2.9
	c2.8,0.2,6.4,0.4,10.9,1.1c17.5,2.7,24.9,5.3,32.5,21.3c4.4,9.3,1.4,19.9,1.3,20.3l-1.9,6.5L277.3,143.9z"/>
<path class="st2" d="M224.2,99.8c5.3,4.3,10.2,2.5,22.8,4.5c17.2,2.7,23.9,5.1,31,20.2c4.1,8.7,1.2,18.9,1.2,18.9s-2.8-9.6-9.2-16.1
	c-7.3-7.6-15.1-10.7-22.6-12.1c-7.6-1.5-14.4-2-19-5.5C226.8,108.3,223.3,99,224.2,99.8z"/>
</svg>
