<?xml version="1.0" encoding="utf-8"?>
<!-- Generator: Adobe Illustrator 26.1.0, SVG Export Plug-In . SVG Version: 6.00 Build 0)  -->
<svg version="1.1" id="Layer_1" xmlns="http://www.w3.org/2000/svg" xmlns:xlink="http://www.w3.org/1999/xlink" x="0px" y="0px"
	 viewBox="0 0 566.9 566.9" style="enable-background:new 0 0 566.9 566.9;" xml:space="preserve">
<style type="text/css">
	.st0{fill:none;stroke:#31C5F4;stroke-miterlimit:10;}
	.st1{fill:none;stroke:#AB519F;stroke-miterlimit:10;}
	.st2{fill:none;stroke:#4FB848;stroke-miterlimit:10;}
	.st3{fill:none;stroke:#3A489E;stroke-miterlimit:10;}
	.st4{fill:none;stroke:#B24C9D;stroke-miterlimit:10;}
	.st5{fill:none;stroke:#43BCEC;stroke-miterlimit:10;}
	.st6{fill:none;stroke:#41B649;stroke-miterlimit:10;}
	.st7{fill:none;stroke:#2FB44A;stroke-miterlimit:10;}
	.st8{fill:none;stroke:#3E499E;stroke-miterlimit:10;}
</style>
<path class="st0" d="M185.1,218.8c-0.7,0-1.4,0-2-0.1l-0.6-0.1c-4.2-0.4-12.8-1.3-18.1-9.9c-6.7-10.7-1.2-24.1-1.1-24.2
	c2.3-4.8,7.5-12.5,12.2-12.5c0.5,0,1,0.1,1.5,0.3c0.8,0.3,1.3,0.8,1.7,1.4c2-3.5,3.6-4.9,5.3-4.9c0.1,0,0.3,0,0.4,0
	c3.5-7.7,4.2-7.7,5.4-7.7l0.1,0c1,0,1.6,0.6,2,1.1c0.4-0.3,0.9-0.5,1.5-0.5c0.3,0,0.7,0.1,1,0.2c2.6,0.8,4.2,3.6,5.1,5.9
	c0.9,0,2,0.2,3.2,3.8h0c1.2,0,2,0.9,2.6,1.5c2.8,3.4,7.3,14.5,5.5,22.5c-2.1,9.6-5,13.4-10.2,17.4
	C194.3,218,188.2,218.8,185.1,218.8z"/>
<path class="st0" d="M176.2,174.2c-2.8-1.2-8.3,5.1-11.1,11.2c-0.4,0.9-4.9,12.9,1,22.3c5.1,8.2,13.7,8.6,17.3,9
	c2.6,0.3,9.1,0.2,16-5.2c4.9-3.8,7.5-7.3,9.4-16.2c1.9-8.8-4.6-21.9-6.2-21.6c-0.9,0.1-0.6,3.3-0.6,3.3s-1.5-7.1-2.7-7.1
	c-0.7,0-0.8,2-0.8,2s-1.4-6.9-4.8-8c-1.3-0.4-1,1.2-2.5,0.7c-0.9-0.3-0.8-1.4-1.6-1.4c-0.7,0-4.7,9.2-4.7,9.2s-0.5-5.2-5.2,3.5
	c-2,3.7-3.1,7.7-3.3,7.7C176.2,183.5,179,175.4,176.2,174.2z"/>
<path class="st0" d="M290.7,271.4c-0.4,0-0.9-0.1-1.3-0.2c-1.2-0.4-1.4-1.5-1.7-2.7c-0.4-1.8-1.2-5.6-4.5-9.5
	c-5.6-6.6-13.1-10.1-13.1-10.1l-1.7-0.8l0.6-1.7c0.5-1.3,4.8-12.5,9.6-15.8c4.3-2.9,8.4-4.4,12.3-4.4c1.8,0,3.6,0.3,5.2,1
	c9.6,3.9,10.8,17.6,10.4,20.2C305.2,255.3,297,271.4,290.7,271.4z"/>
<path class="st0" d="M270.9,247c0,0,4.4-11.8,8.8-14.8c1.6-1.1,8.8-6,15.7-3.2c8.8,3.6,9.4,16.5,9.2,18
	c-1.5,8.4-10.1,23.8-14.5,22.3c-0.6-0.2-0.3-5.6-5.3-11.6C278.8,250.6,270.9,247,270.9,247z"/>
<path class="st1" d="M263.8,341.7c-0.7,0-1.4-0.3-1.9-0.7c-0.6-0.6-1-1.3-1.6-2.3c-0.9-1.5-2.1-3.5-4.5-5.8
	c-3.8-3.6-4.5-4.1-6.4-5.2l-0.4-0.3c-0.8-0.5-1.5-1.5-1-3.1c0.9-3.3,9.6-11.9,14.6-11.9c0.1,0,0.2,0,0.3,0c6.5,0.4,8.1,2.7,10.1,6.4
	c3,5.7,0.2,11.5-1,13.9l-0.2,0.4C271.8,333.2,267.4,341.7,263.8,341.7z"/>
<path class="st1" d="M250,325.7c-1.9-1.2,8.4-11.5,12.7-11.2c5.5,0.4,6.7,1.9,8.5,5.3c2.7,5.1-0.2,10.4-1.2,12.5
	c-0.7,1.5-5.2,8.8-6.8,7.2c-1.1-1.1-2-4.2-6.1-8.1C253,327.4,252.4,327.1,250,325.7z"/>
<path class="st2" d="M189.6,345.9l-0.1,0c-1.6-0.2-2.7-1.7-4.5-4.4c-1-1.5-2.2-3.2-3.3-4.3c-1.2-1.2-2.2-2-3-2.6
	c-1.2-0.9-2.3-1.8-2.3-3.3c0-0.9,0.5-1.9,1.6-3c2.2-2.2,6.4-4.8,11.1-4.8l0.3,0c3.4,0.1,4.6,1.1,6.2,2.7l0.3,0.4
	c2.9,3,3.4,7,1.6,11.3C195.9,341.5,192.1,345.9,189.6,345.9L189.6,345.9z"/>
<path class="st2" d="M178.4,331.2c0-1.2,5.1-5.9,11-5.8c3.1,0.1,3.7,1,5.1,2.5c6.2,6.5-3.2,16.1-4.8,16c-1.2-0.1-3.9-5.3-6.5-8.1
	C180.3,332.9,178.4,332.3,178.4,331.2z"/>
<path class="st3" d="M211.8,290.1c-0.8,0-1.6-0.5-2-1.2c-0.4-0.8-1.6-2.4-2.6-3.9c-2.9-4.1-3.6-5.1-3.4-6.3c0.5-3.1,5-4.6,8-4.6
	c0.3,0,0.6,0,0.8,0c3.3,0.3,5.8,2.3,6.6,5.4c0.6,2.2-0.9,4.8-2.3,6.5C216.1,287.3,213.8,290.1,211.8,290.1z"/>
<path class="st3" d="M205.8,279c0.3-1.7,4-3.1,6.7-2.9c2,0.2,4.1,1.3,4.9,4c0.8,2.8-5.2,8.9-5.7,7.9
	C210.6,285.9,205.7,279.9,205.8,279z"/>
<path class="st4" d="M345.9,199.5c-1.5,0-2.4-1.1-3.7-2.7c-1.4-1.7-3.2-4-6.3-6.1c-4.7-3.4-9-4.1-12.2-4.7c-2.8-0.5-4.9-0.9-5.9-2.9
	c-2.3-4.7,7-13.7,10.3-15.9c0.2-0.2,0.5-0.3,0.8-0.5c2.7-1.9,7.8-5.5,14.4-5.5c1.7,0,3.4,0.2,5.1,0.7l0.2,0.1
	c8.4,2.1,13.2,6.5,13.5,12.4c0.3,4.3-3.4,14.7-14.4,24.5C347.1,199.2,346.5,199.5,345.9,199.5z"/>
<path class="st4" d="M319.6,182.2c-1.3-2.7,5.4-10.6,9.6-13.4c2.8-1.9,9.7-7.5,18.6-5c1,0.3,11.8,2.5,12.3,10.7
	c0.2,3.7-3.4,13.7-13.8,22.9c-1.2,1.1-3-3.9-9.2-8.3C328.4,182.8,320.8,184.8,319.6,182.2z"/>
<path class="st3" d="M155,286.6c-0.7,0-1.3-0.3-1.8-0.8c-4-4.4-9.6-7.2-13.2-8c-1.7-0.4-2.3-1.7-2.2-2.7c0.2-3.6,9.7-9.1,14.2-9.6
	c0.7-0.1,1.4-0.1,2.1-0.1c3.4,0,6.4,1,8.7,2.9c3,2.5,2.5,6.9,0.8,10.1C163.6,278.4,158.3,286.6,155,286.6z"/>
<path class="st3" d="M140.5,275.9c-3.3-0.7,6.6-7.8,11.8-8.5c2.4-0.3,6.3-0.2,9.3,2.3c2.1,1.8,1.6,5.2,0.3,7.6
	c-1,1.9-6.2,8.2-7.2,7.1C150.6,280,144.7,276.8,140.5,275.9z"/>
<path class="st5" d="M364,291.8c-0.7,0-1.3-0.3-1.7-0.8c-1.4-1.7-6.9-5.9-8.8-6.6c-1.1-0.4-1.7-1.4-1.5-2.5c0.5-2.7,6.5-4.1,9.6-4.1
	c2.6,0,4.8,0.7,6.5,2c1.8,1.4,2.3,3.6,1.5,6.1C368.8,288.3,366.1,291.8,364,291.8z"/>
<path class="st5" d="M354.2,282.6c-1.9-0.6,7.8-5,12.7-1.2c3.6,2.8-2.4,9.1-3,8.3C362.3,287.9,356.4,283.4,354.2,282.6z"/>
<path class="st4" d="M394.6,338.7c-1,0-1.9-0.2-2.7-0.5c-2.2-0.9-4.5-2.9-5.4-4.8c-0.6-1.1-1-2.9-1.2-5.4c-0.2-2.4,0.2-3.5,0.9-4.3
	c0.5-0.6,1.4-1.2,3-1.2c1.7,0,3.5,0.7,5.2,1.3c2.4,1,6.5,2.6,7.4,6.6c0.4,1.6,0.2,3.3-0.5,4.6C400.1,337.3,397.5,338.7,394.6,338.7z
	"/>
<path class="st4" d="M387.3,327.8c-0.2-2.2,0.2-2.5,0.4-2.8c1.1-1.3,4.7,0.2,5.9,0.7c2.3,0.9,5.5,2.2,6.2,5.2
	c0.1,0.4,0.4,1.8-0.3,3.2c-1.2,2.2-4.5,3.2-6.8,2.2c-1.9-0.8-3.7-2.5-4.4-3.9C387.9,331.8,387.5,330.5,387.3,327.8z"/>
<path class="st6" d="M417.8,259.3c-0.6,0-1.2-0.2-1.6-0.7c-1.1-1.1-2.4-2-4.5-3.6c-0.7-0.5-1.5-1.1-2.3-1.7
	c-3.2-2.4-6.5-2.7-8.2-2.9c-1.2-0.1-2.9-0.3-3.1-2.1c-0.4-3.5,5.6-12.3,13.5-14.1c1.9-0.5,4-0.7,5.9-0.7c4.8,0,8.3,1.6,10.2,4.6
	c4.2,6.6-2.4,15.1-2.7,15.5C424.9,253.6,420.4,259.3,417.8,259.3z"/>
<path class="st6" d="M400,248.1c-0.3-2.5,5-10.3,12-12c1-0.2,10.5-2.5,14,3c3.4,5.3-2.3,12.8-2.6,13.2c-1.1,1.4-5.1,5.6-5.8,4.9
	c-1.6-1.6-3.5-2.8-7.1-5.6C405.3,247.8,400.1,248.7,400,248.1z"/>
<path class="st7" d="M342.3,401.1c-2,0-4.8-0.3-8.8-0.9c-7.7-1.2-13-4.2-17.2-9.8c-1.9-2.5-4.9-7.7-4.4-14.5
	c0-0.1,1.3-10.1,7.4-12.2c0.7-0.3,1.6-0.4,2.8-0.4c2.8,0,6.5,0.7,8.5,1.1c0.6-0.5,1.5-0.9,2.8-0.9c0.1,0,0.3,0,0.5,0
	c2.2,0.1,8.7,2.3,11,5.6c1.5,2.1,1.2,4.6,0.6,6.3c1.1,2.1,3.7,7.8,4.1,13c0.2,2.7,0.1,7.8-3.2,11.4
	C345.7,400.8,344.4,401.1,342.3,401.1z"/>
<path class="st7" d="M320,365.7c-4.6,1.6-6,9.7-6.1,10.5c-0.5,6.5,2.8,11.5,4,13.1c3.9,5.3,8.9,7.9,15.9,9
	c5.1,0.8,10.3,1.3,11.2,0.3c2.4-2.6,3-6.5,2.7-9.9c-0.5-6.1-4.3-13.1-4.3-13.1s1.6-2.9,0-5.2c-1.8-2.6-7.6-4.7-9.5-4.8
	c-2.2-0.1-2.2,1.1-2.2,1.1S322.8,364.7,320,365.7z"/>
<path class="st8" d="M249.8,407.3c-0.7,0-7.1-0.1-13.9-2.3c-0.1,0-9.1-3.2-10.1-13.4c-0.3-2.9,0.5-5.4,2.2-7.4
	c3.1-3.5,8.2-3.9,9.7-3.9c0.3,0,0.6,0,0.9,0c4,0,9.2,0.6,10.4,2.1c3.8,4.9,5.9,15.1,2.8,23.6l-0.5,1.3L249.8,407.3z"/>
<path class="st8" d="M249.9,405.3c0,0-6.4,0.1-13.3-2.2c-1.2-0.4-8-3.6-8.8-11.8c-0.7-7,6-9,9.9-9.1c6.6-0.1,9.5,1,9.7,1.4
	C250.7,387.8,252.9,397.3,249.9,405.3z"/>
</svg>
