<?xml version="1.0" encoding="utf-8"?>
<!-- Generator: Adobe Illustrator 26.1.0, SVG Export Plug-In . SVG Version: 6.00 Build 0)  -->
<svg version="1.1" id="Layer_1" xmlns="http://www.w3.org/2000/svg" xmlns:xlink="http://www.w3.org/1999/xlink" x="0px" y="0px"
	 viewBox="0 0 566.9 566.9" style="enable-background:new 0 0 566.9 566.9;" xml:space="preserve">
<style type="text/css">
	.st0{fill:none;stroke:#31C5F4;stroke-miterlimit:10;}
	.st1{fill:none;stroke:#AB519F;stroke-miterlimit:10;}
	.st2{fill:none;stroke:#4FB848;stroke-miterlimit:10;}
	.st3{fill:none;stroke:#3A489E;stroke-miterlimit:10;}
	.st4{fill:none;stroke:#B24C9D;stroke-miterlimit:10;}
	.st5{fill:none;stroke:#43BCEC;stroke-miterlimit:10;}
	.st6{fill:none;stroke:#41B649;stroke-miterlimit:10;}
	.st7{fill:none;stroke:#2FB44A;stroke-miterlimit:10;}
	.st8{fill:none;stroke:#3E499E;stroke-miterlimit:10;}
</style>
<path class="st0" d="M185.1,226.7c-1,0-1.9-0.1-2.9-0.2l-0.6-0.1c-4.6-0.5-16.7-1.7-24-13.5c-9.2-14.6-1.7-31.6-1.6-31.8
	c1.3-2.8,8.5-17,19.4-17c0.2,0,0.4,0,0.6,0c0.8-0.7,1.6-1.3,2.6-1.9c2.8-5.8,5.6-9.1,11.1-9.1h0.2l0.2,0c0.7,0,1.7,0.2,3,0.6
	c0.1,0,0.1,0,0.2,0c1.2,0,2.3,0.2,3.4,0.5c4.1,1.3,6.8,4.3,8.5,7.4c1.4,1,2.4,2.3,3.3,3.8c1,0.7,1.9,1.5,2.9,2.7
	c3.6,4.4,9.5,18,7.1,29.2c-2.2,10.3-5.7,16.2-13,21.9C197.3,225.7,189.2,226.7,185.1,226.7z"/>
<path class="st0" d="M176.2,174.2c-2.8-1.2-8.3,5.1-11.1,11.2c-0.4,0.9-4.9,12.9,1,22.3c5.1,8.2,13.7,8.6,17.3,9
	c2.6,0.3,9.1,0.2,16-5.2c4.9-3.8,7.5-7.3,9.4-16.2c1.9-8.8-4.6-21.9-6.2-21.6c-0.9,0.1-0.6,3.3-0.6,3.3s-1.5-7.1-2.7-7.1
	c-0.7,0-0.8,2-0.8,2s-1.4-6.9-4.8-8c-1.3-0.4-1,1.2-2.5,0.7c-0.9-0.3-0.8-1.4-1.6-1.4c-0.7,0-4.7,9.2-4.7,9.2s-0.5-5.2-5.2,3.5
	c-2,3.7-3.1,7.7-3.3,7.7C176.2,183.5,179,175.4,176.2,174.2z"/>
<path class="st0" d="M290.7,279.4c-1.3,0-2.7-0.2-3.9-0.7c-5.4-1.9-6.5-6.9-6.8-8.6c-0.3-1.5-0.8-3.6-2.8-6.1
	c-4.3-5.2-10.3-8-10.4-8l-8.4-3.8l3.3-8.7c1.7-4.4,6.2-15.2,12.5-19.6c5.6-3.8,11.2-5.8,16.8-5.8c2.9,0,5.7,0.5,8.3,1.6
	c14.4,5.9,16,24.2,15.2,28.9C313.2,255.2,304.4,279.4,290.7,279.4z"/>
<path class="st0" d="M270.9,247c0,0,4.4-11.8,8.8-14.8c1.6-1.1,8.8-6,15.7-3.2c8.8,3.6,9.4,16.5,9.2,18
	c-1.5,8.4-10.1,23.8-14.5,22.3c-0.6-0.2-0.3-5.6-5.3-11.6C278.8,250.6,270.9,247,270.9,247z"/>
<path class="st1" d="M263.8,349.7c-2.7,0-5.4-1-7.3-2.9c-1.4-1.3-2.2-2.8-3-4c-0.7-1.3-1.5-2.6-3.1-4.1c-3.2-3-3.5-3.2-5-4.2
	l-0.5-0.3c-4-2.5-5.8-7.3-4.5-12c1.8-6.5,13.5-17.6,22.2-17.6c0.3,0,0.6,0,0.8,0c9.4,0.6,13.4,4.7,16.6,10.6
	c4.9,9.2,0.6,18.1-0.8,21.1l-0.1,0.3c-0.7,1.5-2.2,4-3.6,5.9C272.8,345.8,269.3,349.7,263.8,349.7z"/>
<path class="st1" d="M250,325.7c-1.9-1.2,8.4-11.5,12.7-11.2c5.5,0.4,6.7,1.9,8.5,5.3c2.7,5.1-0.2,10.4-1.2,12.5
	c-0.7,1.5-5.2,8.8-6.8,7.2c-1.1-1.1-2-4.2-6.1-8.1C253,327.4,252.4,327.1,250,325.7z"/>
<path class="st2" d="M189.3,353.8l-0.5,0c-5.3-0.5-7.9-4.4-10.3-7.8c-0.8-1.1-1.8-2.6-2.4-3.2c-0.8-0.8-1.5-1.3-2.1-1.8
	c-1.6-1.2-5.4-4.1-5.5-9.5c0-3.1,1.3-6,3.9-8.7c3.4-3.5,9.6-7.1,16.7-7.1c0.2,0,0.3,0,0.5,0c6.5,0.2,9.5,2.8,11.8,5.2l0.3,0.3
	c5,5.3,6.2,12.7,3.2,19.9c-1.5,3.6-7.2,12.9-15.1,12.9H189.3z"/>
<path class="st2" d="M178.4,331.2c0-1.2,5.1-5.9,11-5.8c3.1,0.1,3.7,1,5.1,2.5c6.2,6.5-3.2,16.1-4.8,16c-1.2-0.1-3.9-5.3-6.5-8.1
	C180.3,332.9,178.4,332.3,178.4,331.2z"/>
<path class="st3" d="M211.8,298c-3.8,0-7.3-2.1-9-5.5c-0.3-0.5-1.4-2-2-2.9c-3.3-4.6-5.5-7.6-4.8-12.1c1.1-7.5,8.8-11.4,15.8-11.4
	c0.5,0,1.1,0,1.6,0.1c6.7,0.6,11.8,5,13.5,11.3c0.8,2.9,0.8,7.7-3.6,13.4C217.9,298,213.3,298,211.8,298z"/>
<path class="st3" d="M205.8,279c0.3-1.7,4-3.1,6.7-2.9c2,0.2,4.1,1.3,4.9,4c0.8,2.8-5.2,8.9-5.7,7.9
	C210.6,285.9,205.7,279.9,205.8,279z"/>
<path class="st4" d="M345.9,207.4c-5.2,0-8.1-3.5-9.8-5.6c-1.2-1.5-2.6-3.1-4.8-4.7c-3.2-2.3-6.2-2.8-9-3.3
	c-3.3-0.6-8.9-1.6-11.7-7.2c-5.9-12.2,12.8-25.8,13-26c0.2-0.1,0.4-0.3,0.6-0.5c3.2-2.2,9.8-6.9,18.9-6.9c2.4,0,4.8,0.3,7.1,1l0.1,0
	c16.8,4.2,19.3,15.1,19.5,19.6c0.4,7.2-4.7,20-17.1,30.9C350.9,206.4,348.5,207.4,345.9,207.4z"/>
<path class="st4" d="M319.6,182.2c-1.3-2.7,5.4-10.6,9.6-13.4c2.8-1.9,9.7-7.5,18.6-5c1,0.3,11.8,2.5,12.3,10.7
	c0.2,3.7-3.4,13.7-13.8,22.9c-1.2,1.1-3-3.9-9.2-8.3C328.4,182.8,320.8,184.8,319.6,182.2z"/>
<path class="st3" d="M155,294.5c-2.9,0-5.7-1.2-7.7-3.4c-2.8-3.1-7-5.1-9-5.6c-5.2-1.2-8.7-5.6-8.4-10.9c0.2-4.5,3.1-8.4,9.2-12.3
	c2.4-1.6,7.3-4.3,12-4.8c1-0.1,2.1-0.2,3.1-0.2c5.3,0,10.1,1.6,13.8,4.8c5.4,4.6,6.5,12.8,2.7,20c-1.4,2.5-4.1,5.6-4.6,6.2
	C163.3,291.4,159.8,294.5,155,294.5z"/>
<path class="st3" d="M140.5,275.9c-3.3-0.7,6.6-7.8,11.8-8.5c2.4-0.3,6.3-0.2,9.3,2.3c2.1,1.8,1.6,5.2,0.3,7.6
	c-1,1.9-6.2,8.2-7.2,7.1C150.6,280,144.7,276.8,140.5,275.9z"/>
<path class="st5" d="M364,299.8c-3,0-5.8-1.3-7.7-3.6c-1-1.1-4.4-3.7-5.7-4.3c-4.5-1.7-7.2-6.4-6.4-11.2c1.4-8.5,12-10.7,17.5-10.7
	c4.4,0,8.3,1.3,11.3,3.6c4.5,3.5,6.1,9.2,4.1,14.9C376,291.7,371.6,299.8,364,299.8z"/>
<path class="st5" d="M354.2,282.6c-1.9-0.6,7.8-5,12.7-1.2c3.6,2.8-2.4,9.1-3,8.3C362.3,287.9,356.4,283.4,354.2,282.6z"/>
<path class="st4" d="M394.6,346.6c-2,0-3.9-0.4-5.7-1.1c-4-1.6-7.6-4.9-9.5-8.5c-1.1-2.1-1.7-4.7-2.1-8.3c-0.2-2.7-0.2-6.7,2.8-10.2
	c2.1-2.5,5.3-3.9,9-3.9c3.1,0,6,1,8.2,1.9c3.1,1.2,10.2,4.2,12.1,12.1c0.8,3.6,0.4,7.2-1.3,10.2
	C405.7,343.6,400.3,346.6,394.6,346.6z"/>
<path class="st4" d="M387.3,327.8c-0.2-2.2,0.2-2.5,0.4-2.8c1.1-1.3,4.7,0.2,5.9,0.7c2.3,0.9,5.5,2.2,6.2,5.2
	c0.1,0.4,0.4,1.8-0.3,3.2c-1.2,2.2-4.5,3.2-6.8,2.2c-1.9-0.8-3.7-2.5-4.4-3.9C387.9,331.8,387.5,330.5,387.3,327.8z"/>
<path class="st6" d="M417.8,267.3c-2.8,0-5.4-1.1-7.3-3c-0.6-0.6-1.8-1.5-3.6-2.8c-0.7-0.5-1.5-1.1-2.4-1.8
	c-1.4-1.1-2.9-1.2-4.3-1.4c-8.6-0.9-10-7.2-10.2-9.1c-1-8.7,8.9-20.2,19.6-22.7c2.5-0.6,5.2-0.9,7.7-0.9c10.2,0,15,5.2,16.9,8.2
	c5.4,8.4,1.7,18.5-3.1,24.7C426.7,264.3,422.2,267.3,417.8,267.3z"/>
<path class="st6" d="M400,248.1c-0.3-2.5,5-10.3,12-12c1-0.2,10.5-2.5,14,3c3.4,5.3-2.3,12.8-2.6,13.2c-1.1,1.4-5.1,5.6-5.8,4.9
	c-1.6-1.6-3.5-2.8-7.1-5.6C405.3,247.8,400.1,248.7,400,248.1z"/>
<path class="st7" d="M342.3,409.1c-2.4,0-5.6-0.3-10-1c-9.8-1.5-16.9-5.6-22.4-12.9c-2.5-3.4-6.7-10.5-5.9-19.8
	c0-0.2,1.5-15.1,12.7-19.1c1.6-0.6,3.4-0.8,5.5-0.8c2.4,0,5.2,0.4,7.5,0.8c1.1-0.3,2.4-0.5,3.8-0.5c0.3,0,0.6,0,1,0
	c3,0.2,12.6,2.7,17,9c2.2,3.2,2.7,6.7,2.4,9.8c1.5,3.3,3.3,8.4,3.7,13.3c0.5,6.9-1.3,13.1-5.3,17.4
	C348.8,409.1,344.1,409.1,342.3,409.1z"/>
<path class="st7" d="M320,365.7c-4.6,1.6-6,9.7-6.1,10.5c-0.5,6.5,2.8,11.5,4,13.1c3.9,5.3,8.9,7.9,15.9,9
	c5.1,0.8,10.3,1.3,11.2,0.3c2.4-2.6,3-6.5,2.7-9.9c-0.5-6.1-4.3-13.1-4.3-13.1s1.6-2.9,0-5.2c-1.8-2.6-7.6-4.7-9.5-4.8
	c-2.2-0.1-2.2,1.1-2.2,1.1S322.8,364.7,320,365.7z"/>
<path class="st8" d="M249.8,415.3c-1.4,0-8.6-0.1-16.4-2.7c-4.8-1.6-14.3-7.9-15.5-20.2c-0.5-5.1,1-9.8,4.2-13.4
	c3.6-4,9.3-6.5,15.5-6.6c0.4,0,0.7,0,1,0c12.6,0,15.6,3.8,16.7,5.2c5.1,6.5,8.2,19.7,4,31.3l-2.4,6.4L249.8,415.3z"/>
<path class="st8" d="M249.9,405.3c0,0-6.4,0.1-13.3-2.2c-1.2-0.4-8-3.6-8.8-11.8c-0.7-7,6-9,9.9-9.1c6.6-0.1,9.5,1,9.7,1.4
	C250.7,387.8,252.9,397.3,249.9,405.3z"/>
</svg>
