<?xml version="1.0" encoding="utf-8"?>
<!-- Generator: Adobe Illustrator 26.1.0, SVG Export Plug-In . SVG Version: 6.00 Build 0)  -->
<svg version="1.1" id="Layer_1" xmlns="http://www.w3.org/2000/svg" xmlns:xlink="http://www.w3.org/1999/xlink" x="0px" y="0px"
	 viewBox="0 0 566.9 566.9" style="enable-background:new 0 0 566.9 566.9;" xml:space="preserve">
<style type="text/css">
	.st0{fill:none;stroke:#2FB44A;stroke-miterlimit:10;}
	.st1{fill:none;stroke:#B24C9D;stroke-miterlimit:10;}
	.st2{fill:none;stroke:#3E499E;stroke-miterlimit:10;}
</style>
<path class="st0" d="M293.4,328.3c-2,0-4.9-0.3-8.9-0.9c-7.8-1.2-13.2-4.2-17.4-9.9c-1.9-2.5-5-7.8-4.4-14.7
	c0-0.1,1.3-10.2,7.5-12.4c0.7-0.3,1.7-0.4,2.9-0.4c2.8,0,6.6,0.7,8.6,1.2c0.6-0.5,1.5-0.9,2.8-0.9c0.2,0,0.3,0,0.5,0
	c2.2,0.1,8.8,2.3,11.2,5.7c1.5,2.2,1.2,4.7,0.6,6.4c1.1,2.2,3.8,7.9,4.2,13.2c0.2,2.7,0.1,7.9-3.3,11.5
	C296.9,328,295.6,328.3,293.4,328.3z"/>
<path class="st0" d="M271,292.5c-4.6,1.6-6,9.7-6.1,10.5c-0.5,6.5,2.8,11.5,4,13.1c3.9,5.3,8.9,7.9,15.9,9
	c5.1,0.8,10.3,1.3,11.2,0.3c2.4-2.6,3-6.5,2.7-9.9c-0.5-6.1-4.3-13.1-4.3-13.1s1.6-2.9,0-5.2c-1.8-2.6-7.6-4.7-9.5-4.8
	c-2.2-0.1-2.2,1.1-2.2,1.1S273.8,291.5,271,292.5z"/>
<path class="st1" d="M296.5,323.7c-2.4-0.8-10-4.5-12.2-8.6c-1.1-1.9-1.7-4-2-5.4c-2.8-0.4-8.7-1.7-11.8-4.7
	c-1.8-1.6-3.5-5.5-3.4-10.3l4,0.1c-0.1,4.3,1.6,6.8,2.2,7.4c2.6,2.4,8.8,3.6,11,3.8l1.5,0.2l0.2,1.5c0,0,0.5,3.1,1.9,5.6
	c1.4,2.5,7.4,5.8,10.1,6.8L296.5,323.7z"/>
<path class="st1" d="M280.3,261.2l-2.8-2.7c3.1-3.6,5.7-6.7,10.2-6.6c5.4,0.1,11.1,2.5,14.7,4.8l-0.2,4.3c-2-2.3-10.8-5.9-13.9-5.6
	C285.3,255.8,281.7,257.3,280.3,261.2z"/>
<path class="st1" d="M277.3,253.4l-1.6,1.5l-0.8-2.7l-0.2-2c0.1,0,0.2-0.1,0.3-0.2c5-3.8,9.7-5.7,14.1-5.7c4.2,0,11.3,3.6,12.4,4.4
	l0.9,4.2c-1-0.7-10.6-4.7-13.3-4.7c0,0,0,0,0,0c-3.3,0-7.1,1.6-11.2,4.8C277.5,253.2,277.4,253.3,277.3,253.4z"/>
<path class="st2" d="M299.2,266.8c-0.7,0-7.3-0.1-14.4-2.4c-0.1,0-9.4-3.3-10.5-13.9c-0.3-3,0.5-5.6,2.3-7.6c3.3-3.7,8.5-4,10-4
	c0.3,0,0.6,0,0.9,0c4.2,0,9.5,0.6,10.8,2.2c4,5.1,6.1,15.6,2.9,24.5l-0.5,1.3L299.2,266.8z"/>
<path class="st2" d="M298.8,264.8c0,0-6.4,0.1-13.3-2.2c-1.2-0.4-8-3.6-8.8-11.8c-0.7-7,6-9,9.9-9.1c6.6-0.1,9.5,1,9.7,1.4
	C299.7,247.3,301.8,256.8,298.8,264.8z"/>
</svg>
