<?xml version="1.0" encoding="utf-8"?>
<!-- Generator: Adobe Illustrator 26.1.0, SVG Export Plug-In . SVG Version: 6.00 Build 0)  -->
<svg version="1.1" id="Layer_1" xmlns="http://www.w3.org/2000/svg" xmlns:xlink="http://www.w3.org/1999/xlink" x="0px" y="0px"
	 viewBox="0 0 566.9 566.9" style="enable-background:new 0 0 566.9 566.9;" xml:space="preserve">
<style type="text/css">
	.st0{fill:none;stroke:#2FB44A;stroke-miterlimit:10;}
	.st1{fill:none;stroke:#AB519F;stroke-miterlimit:10;}
	.st2{fill:none;stroke:#41B649;stroke-miterlimit:10;}
	.st3{fill:none;stroke:#3E499E;stroke-miterlimit:10;}
	.st4{fill:none;stroke:#B83694;stroke-miterlimit:10;}
</style>
<path class="st0" d="M293.5,388.2c-2.4,0-5.6-0.3-10-1c-9.8-1.5-16.9-5.6-22.4-12.9c-2.5-3.4-6.7-10.5-5.9-19.8
	c0-0.2,1.5-15.1,12.7-19.1c1.6-0.6,3.4-0.8,5.5-0.8c2.4,0,5.2,0.4,7.5,0.8c1.1-0.3,2.4-0.5,3.8-0.5c0.3,0,0.6,0,1,0
	c3,0.2,12.6,2.7,17,9c2.2,3.2,2.7,6.7,2.4,9.8c1.5,3.3,3.3,8.4,3.7,13.3c0.5,6.9-1.3,13.1-5.3,17.4
	C300,388.2,295.3,388.2,293.5,388.2z"/>
<path class="st0" d="M271.2,344.8c-4.6,1.6-6,9.7-6.1,10.5c-0.5,6.5,2.8,11.5,4,13.1c3.9,5.3,8.9,7.9,15.9,9
	c5.1,0.8,10.3,1.3,11.2,0.3c2.4-2.6,3-6.5,2.7-9.9c-0.5-6.1-4.3-13.1-4.3-13.1s1.6-2.9,0-5.2c-1.8-2.6-7.6-4.7-9.5-4.8
	c-2.2-0.1-2.2,1.1-2.2,1.1S274.1,343.8,271.2,344.8z"/>
<path class="st1" d="M267.1,208.4c-1.9-1.2,8.4-11.5,12.7-11.2c5.5,0.4,6.7,1.9,8.5,5.3c2.7,5.1-0.2,10.4-1.2,12.5
	c-0.7,1.5-5.2,8.8-6.8,7.2c-1.1-1.1-2-4.2-6.1-8.1C270,210.1,269.4,209.8,267.1,208.4z"/>
<path class="st2" d="M268.5,252.6c-0.3-2.5,5-10.3,12-12c1-0.2,10.5-2.5,14,3c3.4,5.3-2.3,12.8-2.6,13.2c-1.1,1.4-5.1,5.6-5.8,4.9
	c-1.6-1.6-3.5-2.9-7.1-5.6C273.9,252.3,268.6,253.2,268.5,252.6z"/>
<path class="st3" d="M299,327c-1.4,0-8.6-0.1-16.4-2.7c-4.8-1.6-14.3-7.9-15.5-20.2c-0.5-5.1,1-9.8,4.2-13.4c3.6-4,9.3-6.5,15.5-6.6
	c0.4,0,0.7,0,1,0c12.6,0,15.6,3.8,16.7,5.2c5.1,6.5,8.2,19.7,4,31.3l-2.4,6.4L299,327z"/>
<path class="st3" d="M299,317.1c0,0-6.4,0.1-13.3-2.2c-1.2-0.4-8-3.6-8.8-11.8c-0.7-7,6-9,9.9-9.1c6.6-0.1,9.5,1,9.7,1.4
	C299.9,299.6,302,309.1,299,317.1z"/>
<circle class="st4" cx="277.6" cy="208" r="20.3"/>
<circle class="st4" cx="283.3" cy="250.9" r="20.3"/>
</svg>
