<?xml version="1.0" encoding="utf-8"?>
<!-- Generator: Adobe Illustrator 26.1.0, SVG Export Plug-In . SVG Version: 6.00 Build 0)  -->
<svg version="1.1" id="Layer_1" xmlns="http://www.w3.org/2000/svg" xmlns:xlink="http://www.w3.org/1999/xlink" x="0px" y="0px"
	 viewBox="0 0 566.9 566.9" style="enable-background:new 0 0 566.9 566.9;" xml:space="preserve">
<style type="text/css">
	.st0{fill:none;stroke:#B24C9D;stroke-miterlimit:10;}
	.st1{fill:none;stroke:#41B649;stroke-miterlimit:10;}
	.st2{fill:none;stroke:#AB519F;stroke-miterlimit:10;}
</style>
<path class="st0" d="M296.7,376c-2.4-0.8-10-4.5-12.2-8.6c-1.1-1.9-1.7-4-2-5.4c-2.8-0.4-8.7-1.7-11.8-4.7
	c-1.8-1.6-3.5-5.5-3.4-10.3l4,0.1c-0.1,4.3,1.6,6.8,2.2,7.4c2.6,2.4,8.8,3.6,11,3.8l1.5,0.2l0.2,1.5c0,0,0.5,3.1,1.9,5.6
	c1.4,2.5,7.4,5.8,10.1,6.8L296.7,376z"/>
<path class="st1" d="M295.5,272.1c-0.6,0-1.2-0.2-1.6-0.7c-1.1-1.1-2.4-2-4.5-3.6c-0.7-0.5-1.5-1.1-2.3-1.7
	c-3.2-2.4-6.5-2.7-8.2-2.9c-1.2-0.1-2.9-0.3-3.1-2.1c-0.4-3.5,5.6-12.3,13.5-14.1c1.9-0.5,4-0.7,5.9-0.7c4.8,0,8.3,1.6,10.2,4.6
	c4.2,6.6-2.4,15.1-2.7,15.5C302.6,266.4,298.1,272.1,295.5,272.1z"/>
<path class="st0" d="M280.5,313.5l-2.8-2.7c3.1-3.6,5.7-6.7,10.2-6.6c5.4,0.1,11.1,2.5,14.7,4.8l-0.2,4.3c-2-2.3-10.8-5.9-13.9-5.6
	C285.5,308.1,281.9,309.6,280.5,313.5z"/>
<path class="st0" d="M277.5,305.7l-1.6,1.5l-0.8-2.7l-0.2-2c0.1,0,0.2-0.1,0.3-0.2c5-3.8,9.7-5.7,14.1-5.7c4.2,0,11.3,3.6,12.4,4.4
	l0.9,4.2c-1-0.7-10.6-4.7-13.3-4.7c0,0,0,0,0,0c-3.3,0-7.1,1.6-11.2,4.8C277.8,305.5,277.6,305.6,277.5,305.7z"/>
<path class="st1" d="M277.7,260.8c-0.3-2.5,5-10.3,12-12c1-0.2,10.5-2.5,14,3c3.4,5.3-2.3,12.8-2.6,13.2c-1.1,1.4-5.1,5.6-5.8,4.9
	c-1.6-1.6-3.5-2.9-7.1-5.6C283,260.6,277.7,261.5,277.7,260.8z"/>
<path class="st0" d="M305.3,251.1l-1.9-1.9c0.3-0.1,0.8-0.4,1.3-0.6c0.6-0.3,1.1-0.6,1.6-0.7l1.9,1.9c-0.3,0.1-0.8,0.4-1.3,0.6
	C306.3,250.6,305.8,250.9,305.3,251.1z"/>
<path class="st0" d="M306.9,255v-2c0.2,0,0.8-0.2,1.8-0.5l0.3-0.1l1.9,1.7l-0.2,0.1C309.4,254.6,308.1,255,306.9,255z"/>
<path class="st0" d="M306.1,260.7v-2.4c0.6,0,1.6-0.3,2.1-0.4c0.3-0.1,0.5-0.1,0.7-0.2l1.4,2.3c-0.1,0-0.2,0.1-0.4,0.1
	C309,260.3,307.6,260.7,306.1,260.7z"/>
<path class="st2" d="M290,232.8c-0.7,0-1.4-0.3-1.9-0.7c-0.6-0.6-1-1.3-1.6-2.3c-0.9-1.5-2.1-3.5-4.5-5.8c-3.8-3.6-4.5-4.1-6.4-5.2
	l-0.4-0.3c-0.8-0.5-1.5-1.5-1-3.1c0.9-3.3,9.6-11.9,14.6-11.9c0.1,0,0.2,0,0.3,0c6.5,0.4,8.1,2.7,10.1,6.4c3,5.7,0.2,11.5-1,13.9
	l-0.2,0.4C298,224.3,293.7,232.8,290,232.8z"/>
<path class="st2" d="M276.3,216.7c-1.9-1.2,8.4-11.5,12.7-11.2c5.5,0.4,6.7,1.9,8.5,5.3c2.7,5.1-0.2,10.4-1.2,12.5
	c-0.7,1.5-5.2,8.8-6.8,7.2c-1.1-1.1-2-4.2-6.1-8.1C279.2,218.4,278.6,218.2,276.3,216.7z"/>
<path class="st0" d="M286,203.9l2.7,0c-0.1-0.3-0.3-0.9-0.5-1.4c-0.2-0.6-0.4-1.2-0.6-1.6l-2.7,0c0.1,0.3,0.3,0.9,0.5,1.4
	C285.6,202.8,285.8,203.4,286,203.9z"/>
<path class="st0" d="M282.7,205.5l1.4-1.4c-0.1-0.2-0.5-0.7-1-1.6l-0.1-0.3l-2.6-0.1l0.1,0.2C281.2,203.4,281.9,204.6,282.7,205.5z"
	/>
<path class="st0" d="M279.7,208.6l1.7-1.7c-0.4-0.4-0.9-1.3-1.2-1.8c-0.1-0.2-0.3-0.4-0.4-0.6l-2.6,0.6c0.1,0.1,0.1,0.2,0.2,0.4
	C277.9,206.3,278.7,207.6,279.7,208.6z"/>
</svg>
