<?xml version="1.0" encoding="utf-8"?>
<!-- Generator: Adobe Illustrator 26.0.3, SVG Export Plug-In . SVG Version: 6.00 Build 0)  -->
<svg version="1.1" id="Layer_1" xmlns="http://www.w3.org/2000/svg" xmlns:xlink="http://www.w3.org/1999/xlink" x="0px" y="0px"
	 viewBox="0 0 566.9 566.9" style="enable-background:new 0 0 566.9 566.9;" xml:space="preserve">
<style type="text/css">
	.st0{fill:none;stroke:#2A2774;stroke-miterlimit:10;}
	.st1{fill:none;stroke:#00C2F3;stroke-miterlimit:10;}
	.st2{fill:none;stroke:#732B90;stroke-miterlimit:10;}
	.st3{fill:none;stroke:#DB088C;stroke-miterlimit:10;}
	.st4{fill:none;stroke:#450023;stroke-miterlimit:10;}
	.st5{fill:none;stroke:#3B54A5;stroke-miterlimit:10;}
	.st6{fill:none;stroke:#059447;stroke-miterlimit:10;}
</style>
<path class="st0" d="M106.7,358c-0.1-0.1-9.1-11.4-20.7-27.3c-14.8-20.3-32.1-33-42.4-40.6l-5-3.7c-16.8-12.3-19.4-14.2-28.1-24.1
	c-11.9-13.6-11.7-31.2-11.3-36.2c0.5-6.9,2-10.8,3.4-14.6c1.4-3.8,2.8-7.4,3.2-14.2c0.5-8.5-0.8-14.1-2.1-19.6
	c-1.1-5-2.3-10.2-2.1-17.3c0.2-11.7,10.8-33.9,17.5-42.6c2.1-2.8,5.3-7.8,8.1-12.2c2.6-4.1,4.9-7.7,6.3-9.4
	C35.2,85.2,36,84.8,37,84.4c0.6-0.3,1.3-0.4,1.9-0.4c2.6,0,5.5,1.9,7.2,3.3c14.8-14,38.7-15.9,41-16c1.8-0.4,5.4-0.6,9.8-0.6
	c3,0,13.2,0.1,19.4,1.9c6.2,1.7,12.2,6.3,14.7,8.3c2.9-1.7,10-5.8,14.1-6.6c0.7-0.1,1.4-0.3,2.1-0.5c2.8-0.6,6-1.4,10.7-1.4
	c6.5,0,14.9,1.5,25.8,4.5c13.6,3.7,34.7,13,39.1,22.1c4.6,9.3,3.8,13.3,1,28.4l-0.5,2.6c-0.2,1.2-0.5,2.4-0.7,3.5
	c-1.6,8.4-2.4,12.7-1,18.5c1.8,7.2,4.1,13,6.7,19.8c1,2.6,2.1,5.4,3.2,8.4c3.6,9.8,1.5,18.9-1.4,31.5c-1.3,5.6-2.5,9-4.4,14
	c-0.7,1.8-1.4,3.8-2.3,6.3c-4.3,12.2-5.8,18.3-7,23.3c-1,4-1.7,7.2-3.7,11.9c-6.4,15.7-15.9,24.9-33,41.7
	c-7.1,7-15.8,13.6-33.1,26.9c-27,20.7-37.5,23.1-37.9,23.2l-1.2,0.3L106.7,358z"/>
<path class="st0" d="M20.7,119.1c4.3-5.6,12.4-19.3,14.8-22c0,0,1.5-10.5,2.3-10.9c3.2-1.3,8.4,3.8,8.4,3.8
	c14.6-15.2,41.2-16.8,41.2-16.8c4-0.8,20.6-0.9,28.4,1.2c7.5,2.1,15,8.8,15,8.8s9.9-6.2,14.7-7.1c6.9-1.4,12.8-4.3,37.6,2.6
	c14.6,4,34,13.3,37.9,21c4.5,9.2,3.6,12.4,0.3,29.7c-2,10.8-3.4,15.8-1.6,22.8c2.6,10.1,6,17.8,9.9,28.4c3.4,9.2,1.4,18-1.5,30.4
	c-1.7,7.5-3.3,10.7-6.6,20.1c-7.9,22.4-6.4,24.9-10.6,35.1c-6.2,15.3-15.4,24.3-32.6,41c-7.1,6.9-15.7,13.5-32.9,26.7
	c-27,20.7-37.1,22.9-37.1,22.9s-8.9-11.1-20.7-27.3c-14.9-20.5-32.4-33.4-42.8-41c-21.3-15.6-23.4-16.8-32.7-27.4
	c-12.2-13.8-11-32.3-10.8-34.8c1-13.6,5.8-15,6.6-28.9c0.9-16.5-4.5-22.3-4.2-37C3.8,149,14.5,127,20.7,119.1z"/>
<path class="st1" d="M302,405.1c-1.1,0-2-0.8-2.1-1.9c-0.4-3.8-0.2-12.4,0.4-20.6c1.2-15.9,2.8-17,3.7-17.6c0.6-0.4,1.4-0.7,2.2-0.7
	c5.7,0,16.5,11.4,18.6,13.7c3.1,3.4,3.3,4,3.2,4.8c-0.1,0.8-0.1,1.7-12.1,11.9C304.1,405,302.8,405.1,302,405.1
	C302,405.1,302,405.1,302,405.1z"/>
<path class="st1" d="M305.1,366.7c-2.5,1.7-4,29.1-3.3,36.4c0.2,1.6,24.2-19.2,24.2-20.3C326.2,381.8,309.3,363.8,305.1,366.7z"/>
<path class="st2" d="M414.2,556.8c-9.2,0-23.4-10.2-31-16.2c-1-0.8-1.6-2.1-1.5-3.4c0.1-1.3,0.8-2.5,1.9-3.2
	c3.6-2.2,8.8-4.8,12.8-4.8c0.2,0,0.4,0,0.6,0c3.9,0.3,6.7,2.4,9.1,4.3c2.3,1.8,4.3,3.4,7,3.4c2.5,0,4.7-1.2,7.5-2.7
	c3-1.6,6.8-3.6,11.9-4.6c0.2,0,0.4-0.1,0.6-0.1c0.9,0,3.2,0,13.6,7.2c1.2,0.9,1.8,2.4,1.5,3.9c-0.3,1.5-1.5,2.6-3,2.9
	c-4.8,0.8-8.3,1.8-9.5,2.7c-1.5,1-2.8,2.1-4.2,3c-5,3.8-9.3,7-16.6,7.6C414.8,556.8,414.5,556.8,414.2,556.8z"/>
<path class="st2" d="M384.5,539c-1.1-0.9-1-2.6,0.2-3.4c3.1-1.9,8.5-4.7,12.2-4.5c6.8,0.5,9.6,7.7,16.3,7.7c6,0,10.3-5.6,19.8-7.3
	c1.9-0.3,8.6,4,12.7,6.8c1.3,0.9,0.8,2.9-0.7,3.1c-3.6,0.6-8.4,1.7-10.3,3c-7.1,4.9-11.3,9.6-19.8,10.2
	C406.1,555.5,390.3,543.7,384.5,539z"/>
<path class="st3" d="M482.9,308.2c-3.6,0-8.8-0.8-18.2-2.3c-1.8-0.3-3.7-0.6-5.8-0.9c-7.3-1.1-11.8-1.6-15.1-1.9
	c-5-0.5-7.1-0.7-11.2-2.6c-6.4-2.9-8.5-4.6-12.2-7.5c-2-1.5-4.4-3.5-8.3-6.1c-3.1-2.1-5.8-3.6-8.3-4.9c-4.2-2.3-7.2-3.9-8.2-7.1
	c-1.9-5.9,4.5-15.9,6.8-19.2c-1.2-2.6-3.5-8.4-1.5-11.7c1.5-2.4,3.9-2.9,6.2-3.5c2.1-0.5,4.3-1,6.4-2.8c1.5-1.3,2-2.4,2.7-3.9
	c0.8-1.7,1.8-3.9,4.5-6.5c1.8-1.7,5.5-4.3,8.7-4.3c0.8,0,1.6,0.2,2.2,0.5c2.3,1.3,2.1,3.5,2,5.4c-0.1,1-0.1,2.1,0,3.4
	c0.6,5.4,4.3,7.7,7.9,9.9c1.2,0.8,2.4,1.5,3.3,2.3c2,1.8,12.2,8.3,19.7,8.3c0.9,0,1.8-0.1,2.6-0.3c3.7-0.9,8.1-3.5,16.7-9.9
	c3-2.2,10.2-3.5,12-3.5c0.3,0,0.6,0,0.8,0.1c0.9,0.2,2.2,1,3.1,2.9c2,4.1,1.9,12.3-0.2,17.7c-0.9,2.2-1.8,3.8-2.7,5.3
	c-1.2,2.1-2,3.5-2,5.7c0,1.9,0.8,2.9,2,4.3c1.1,1.4,2.5,3,3.4,5.8c1.1,3.5-3.2,21.5-9.4,25.1C488.5,307.4,486.4,308.2,482.9,308.2z"
	/>
<path class="st3" d="M431.7,232.5c-0.5-3.9,0.9-6.3-1-7.3c-2.1-1.2-6.5,1.4-8.5,3.4c-4.7,4.6-3.6,7.3-7.3,10.5
	c-4.9,4.2-10.1,2.5-12.2,5.9c-2,3.2,2.1,10.9,2.1,10.9s-9.1,12.5-7.2,18.4c1.2,3.9,7.4,5.2,15.7,11c10.8,7.5,10.5,9,20.1,13.4
	c6.4,2.9,7.2,1.5,25.8,4.4c22.9,3.6,25.4,4.4,30.8,1.2c5.2-3,9.4-19.9,8.5-22.8c-1.6-5.2-5.4-5.9-5.5-10.6
	c-0.1-4.5,2.6-6.2,4.8-11.7c2.3-6,2-16.9-1.6-17.9c-0.8-0.2-8.4,1.1-11.1,3.1c-9.4,6.9-13.6,9.3-17.4,10.2c-9,2.2-22.1-6.8-24.1-8.5
	C440.1,243.1,432.7,240.9,431.7,232.5z"/>
<path class="st3" d="M427.7,154.1c0-0.1-1.8-3.5-5.4-6.7c-3.6-3.3-8.2-3.8-10.4-4.1c-0.9-0.1-1.8-0.2-2.7-0.2
	c-3.6,0-6.4,0.9-8.3,1.4c-1.1,0.3-2,0.6-2.7,0.6c-1.4,0-2-0.9-2.2-1.3c-0.3-0.5-0.5-1.5,0.1-2.8c1.5-3.2,8.1-8.7,15.9-10.2
	c1.4-0.3,2.8-0.4,4.3-0.4c6.3,0,11,2.5,12.6,3.3c3,1.6,3.9,2.7,5.1,5.7c2.5,5.9-2.2,13.7-2.7,14.6l-1.9,3L427.7,154.1z"/>
<path class="st3" d="M397.6,142.9c-0.7-1.4,5.7-8.4,14.6-10.1c7.6-1.4,13.6,1.7,15.6,2.7c2.6,1.4,3.1,2.1,4.2,4.8
	c2.1,5.2-2.6,12.8-2.6,12.8s-1.9-3.7-5.9-7.3c-4.1-3.7-9.2-4.3-11.5-4.6C403.6,140.3,398.3,144.1,397.6,142.9z"/>
<path class="st4" d="M418.8,26.6c-0.1,0-0.2,0-0.4,0c-0.7-0.1-1.6-0.1-2.4-0.1c-2.3-0.1-4.9-0.2-7.6-1.2c-1.9-0.7-2.5-3.1-1.8-7
	c0.4-2.1,1.6-7,4.6-7c0.6,0,1.3,0,1.9,0c0.7,0,1.5-0.1,2.3-0.1c2.3,0,4.9,0.2,6.7,1.7c2.4,2,2,6.9,0.9,9.8
	C421.8,26.1,419.8,26.6,418.8,26.6C418.8,26.6,418.8,26.6,418.8,26.6z"/>
<path class="st4" d="M409.1,23.4c3.3,1.2,6.9,0.9,9.6,1.2c2.8,0.3,4.4-8.4,2.2-10.2c-2.1-1.8-6.4-1.2-9.6-1.2
	C409.2,13.2,407.1,22.7,409.1,23.4z"/>
<path class="st5" d="M430.4,86.5c-1.1,0-2.3-0.4-4.1-0.9c-2.8-0.8-6.9-2.1-13.3-2.6c-14.3-1.3-16.5-7.8-16.8-8.6l-0.4-1.2l1-0.8
	c0.4-0.4,4.3-3.7,7.7-4c0.5,0,1.3-0.2,2.1-0.3c1.7-0.3,3.8-0.7,6.3-0.7c4.6,0,8.7,1.3,12.7,4.1c1.2,0.8,9.7,8.1,8.2,12.5
	C433.3,85.6,432,86.5,430.4,86.5C430.4,86.5,430.4,86.5,430.4,86.5z"/>
<path class="st5" d="M398.1,73.9c0,0,1.7,5.9,15,7.1c14,1.3,17.7,5.6,18.8,2.3c0.8-2.4-5-8.4-7.5-10.2c-8.7-6-16.2-3-19.8-2.7
	C401.8,70.6,398.1,73.9,398.1,73.9z"/>
<path class="st4" d="M473,153.2c0-0.3-0.2-6.3,2.6-10.3c1.2-1.8,5.8-7.6,13.6-7.6c6.6,0,10.8,4.3,12.1,5.7c3,3.1,3.8,8.8,3.9,9.5
	l0.6,4.7l-3.8-2.9c0,0-2.8-2.1-7.7-2.9c-1.1-0.2-2.3-0.3-3.5-0.3c-2.1,0-4.1,0.3-6,0.9c-5.2,1.8-8.4,4.6-8.4,4.6l-3.2,2.9L473,153.2
	z"/>
<path class="st4" d="M475,153.2c0,0-0.2-5.6,2.3-9.1c0.9-1.3,4.9-6.8,12-6.8c5.8,0,9.4,3.8,10.7,5.1c2.6,2.7,3.3,8.3,3.3,8.3
	s-3-2.3-8.6-3.3c-1.8-0.3-6-0.8-10.5,0.7C478.4,150.1,475,153.2,475,153.2z"/>
<path class="st6" d="M472.3,89.9c-2.9,0-3.5-0.3-3.9-0.4c-1.6-0.8-5.1-4.7-4.5-7.8c0.9-4.2,9.2-8,14.6-8.7c1.9-0.3,3.5-0.4,5-0.4
	c4.6,0,8.3,1.2,12.2,4c1.6,1.2,2.6,3,2.6,4.8c0,1.3-0.5,2.4-1.4,3C490.5,88.8,478,89.9,472.3,89.9C472.3,89.9,472.3,89.9,472.3,89.9
	z"/>
<path class="st6" d="M465.9,82.1c-0.4,2,2.4,5.2,3.4,5.6c1.4,0.7,19,0.2,26.5-5c1-0.7,0.8-3.1-1.2-4.5c-5.1-3.7-9.6-4.2-15.8-3.3
	C473.1,75.7,466.4,79.5,465.9,82.1z"/>
<path class="st4" d="M467.8,27.4c-0.9,0-1.5-0.1-2-0.3c-2.6-1.2-4-4.7-4.4-6.7c-0.5-2.9,0.7-8,3.4-9c1.3-0.5,3.9-1.1,6.4-1.1
	c0.6,0,1.2,0,1.7,0.1c4.1,0.5,4.1,5,4,7.4l0,0.5c0,4.5-1.2,6.3-3.2,7.9C472.7,27,468.8,27.4,467.8,27.4z"/>
<path class="st4" d="M472.5,24.6c-0.4,0.3-4.8,1.1-5.9,0.6c-1.7-0.8-3-3.5-3.2-5.2c-0.4-2.4,0.7-6.3,2.2-6.9
	c1.4-0.5,4.6-1.1,7.1-0.8c2.5,0.3,2.3,3.6,2.3,6C475,22.3,474,23.5,472.5,24.6z"/>
<path class="st1" d="M553.2,491.5c-0.9-1.1-2.4-1.9-6.4-3.6c-1.3-0.5-3.3-0.8-5.8-0.8c-3.1,0-6,0.5-6,0.5l-1.3,0.2l-0.7-1.1
	c-0.8-1.2-4.9-7.3-5.6-10l0-0.1c-0.5-2.9,1-7.3,4.5-12.9c1.3-2.1,1.5-5.5,1.6-7.8l0-0.7c0.3-6.4-0.6-7.3-1.9-7.5
	c-1.3,0.1-9.3,2-15,6.9c-5.1,4.3-11.4,6.9-17,6.9c-5.6,0-16.2-5.9-16.7-6.4c-0.4-0.3-1.8-1.4-3.2-2.4c-4.1-2.9-9.6-7-11.7-9.8
	c-2.3-3.1-2.3-6.6-2.2-9.3c0-0.7,0-1.7-0.1-2.2c-6,0.6-8.6,5.5-10.6,9.5c-0.9,1.8-1.7,3.3-2.7,4.2c-2.4,2.1-4.8,3.2-8.1,3.7
	c-3.8,0.5-3.8,1.3-3.8,1.7c-0.2,5.1,2.1,8.7,2.1,8.7l1,1.5l-1.5,1.1c0,0-4,3.4-6.7,15.1c-0.1,0.4,0.3,1.5,0.8,2.2l1.2,1.8l-1.9,1.1
	c-10.5,6.1-34.3,8.8-40,8.8c-1.5,0-2.6-0.1-3.3-1.1c-3.5-5-3.5-5-5.5-8.6c-0.9-1.8-9-17.9-2.8-45.8c0.7-3.1,3.9-4.3,8.3-5.9
	c3-1.1,6.8-2.5,11-4.9c7.9-4.6,14.8-12.3,18.4-20.7c0.8-1.8,1.2-3.3,1.7-4.9c1-3.3,2.1-6.7,5.6-12.1c2.5-3.8,8.7-7.1,12-8.2
	c1.5-0.5,2.8-0.8,4.1-0.8c2.7,0,4.5,1.1,5.9,1.9c0.3,0.2,0.5,0.3,0.7,0.4c15,8.4,43.5,16.9,48.4,17.3c0.1,0,0.2,0,0.3,0
	c2,0,4.3-1.5,7.2-3.5c4.4-3,10.5-7,19.5-7.5c0.7,0,1.4-0.1,2.1-0.1c10.9,0,21.9,5,26.1,12c0.8,1.3,0.8,1.3-2.4,13.4l-0.5,1.9
	c-0.4,1.4-0.7,2.6-1,3.6c-1,3.9-1.2,4.6-1.2,5.4c0.7,1.6,6,9.6,8.9,13.4c6.1,8,8.8,40-2.6,55.5l-2.3,3.1L553.2,491.5z"/>
<path class="st1" d="M430.7,388c2.3-3.5,8.2-6.4,11-7.4c4.9-1.7,7.1,0.3,9.1,1.5c14.8,8.3,43.7,17.1,49.2,17.6
	c6.6,0.5,12.5-10.1,27.3-11c11.6-0.7,22.5,4.6,26.3,11c0.4,0.7,0.2,1.4-3.1,13.7c-2,7.5-2.3,8.3-2.2,9.9c0.1,1.1,6.6,10.7,9.3,14.3
	c5.3,7,8.5,38-2.6,53.2c0,0,0,0,0,0c0,0,0,0,0,0c-1.2-1.8-3-2.7-7.5-4.6c-4.5-1.9-12.9-0.5-12.9-0.5s-4.6-6.9-5.3-9.3
	c-0.6-3.4,2.9-9.4,4.2-11.5c1.8-2.8,1.8-7.1,1.9-9.4c0.3-6.1-0.3-9-3.6-9.6c-1.1-0.2-10.3,1.9-16.5,7.4c0,0,0,0,0,0
	c-4.3,3.7-10.2,6.4-15.7,6.4c-4.9,0-15.2-5.6-15.4-5.8c-1.5-1.4-11.9-8.2-14.7-11.9c-3.9-5.1,0.3-12.6-3.9-12.3
	c-10,0.8-12,11.8-14.6,14.2c-2,1.7-4,2.8-7.1,3.2c-3.6,0.5-5.5,1.4-5.5,3.6c-0.2,5.8,2.5,9.9,2.5,9.9s-4.5,3.4-7.5,16.2
	c-0.4,1.6,1.1,3.8,1.1,3.8c-11.1,6.4-40,9.4-40.7,8.4c-3.5-4.9-3.5-4.9-5.4-8.4c-0.7-1.4-8.8-16.8-2.6-44.5
	c0.8-3.6,8.5-3.9,18.3-9.5c7.2-4.2,15-11.8,19.2-21.6C425.9,399.2,425.6,395.8,430.7,388z"/>
</svg>
