<?xml version="1.0" encoding="utf-8"?>
<!-- Generator: Adobe Illustrator 26.0.3, SVG Export Plug-In . SVG Version: 6.00 Build 0)  -->
<svg version="1.1" id="Layer_1" xmlns="http://www.w3.org/2000/svg" xmlns:xlink="http://www.w3.org/1999/xlink" x="0px" y="0px"
	 viewBox="0 0 566.9 566.9" style="enable-background:new 0 0 566.9 566.9;" xml:space="preserve">
<style type="text/css">
	.st0{fill:none;stroke:#D87227;stroke-miterlimit:10;}
</style>
<path class="st0" d="M326.4,293.9c-10.3-4.6-21.2-7.3-26.2-7.6c-13.7-0.8-25.2,2.2-25.4,2.3c-2.3,0.6-4.5,1.3-6.4,1.9
	c-6,1.9-10.7,3.5-14.8,0.6c-2.4-1.7-4.7-5.2-6-7.2c-0.4-0.6-0.7-1.2-1.1-1.7c-1.2-2-2-3.3-3.7-4.2c-0.8-0.4-3.2-0.8-4.5-0.9l0.3-4
	c0.4,0,4.1,0.3,6,1.3c2.6,1.4,3.9,3.4,5.2,5.7c0.3,0.5,0.6,1.1,1,1.6c1.1,1.7,3.2,4.9,5,6.2c2.3,1.7,5.5,0.8,11.3-1.1
	c2-0.6,4.2-1.3,6.6-2c0.5-0.1,12.3-3.2,26.6-2.4c6.4,0.4,18,3.7,27.6,7.9L326.4,293.9z"/>
</svg>
