<?xml version="1.0" encoding="utf-8"?>
<!-- Generator: Adobe Illustrator 26.0.3, SVG Export Plug-In . SVG Version: 6.00 Build 0)  -->
<svg version="1.1" id="Layer_1" xmlns="http://www.w3.org/2000/svg" xmlns:xlink="http://www.w3.org/1999/xlink" x="0px" y="0px"
	 viewBox="0 0 566.9 566.9" style="enable-background:new 0 0 566.9 566.9;" xml:space="preserve">
<style type="text/css">
	.st0{fill:none;stroke:#DB088C;stroke-miterlimit:10;}
</style>
<path class="st0" d="M318.1,334.1c-4.2,0-9.3-0.8-19.4-2.4c-1.8-0.3-3.7-0.6-5.8-0.9c-7.1-1.1-11.5-1.6-14.7-1.9
	c-5.2-0.5-8.4-0.9-13.7-3.3c-7.2-3.3-10-5.5-13.8-8.4c-2-1.5-4.2-3.3-7.9-5.8c-2.7-1.9-5.3-3.3-7.5-4.5c-4.9-2.7-10-5.4-12-11.6
	c-2.3-7.3,1.5-16,5.4-22.5c-1.5-4.6-2.2-10.3,0.7-15c3.2-5.2,8.4-6.4,11.1-7c1.8-0.4,2.5-0.6,3-1.1c0.1-0.1,0.1-0.1,0.1-0.1
	c0.1-0.1,0.3-0.7,0.5-1.1c1-2.1,2.4-5.2,6.2-8.9c0.7-0.7,6.9-6.5,14.2-6.5c2.2,0,4.3,0.5,6.1,1.5c6.7,3.7,6.2,10.6,6,12.9
	c-0.1,0.8-0.1,1.4,0,2c0.2,1.3,0.7,1.9,4.2,4.1c1.4,0.9,2.9,1.8,4.3,3c2.3,1.9,10.1,6.4,14.6,6.4c0.4,0,0.6,0,0.7-0.1
	c2.4-0.6,6.5-3.1,13.9-8.5c4.8-3.6,13.9-5.1,16.7-5.1c1,0,2,0.1,2.9,0.4c3.5,1,6.4,3.4,8.1,7c3.4,6.7,2.7,17.6,0.1,24.2
	c-1.1,2.8-2.3,4.9-3.2,6.4c-0.2,0.3-0.4,0.7-0.6,1c1.3,1.6,3.5,4.2,4.7,8.4c2.1,6.9-3.3,28.6-13,34.3
	C326.2,333.1,322.7,334.1,318.1,334.1z"/>
<path class="st0" d="M266.9,250.5c-0.5-3.9,0.9-6.3-1-7.3c-2.1-1.2-6.5,1.4-8.5,3.4c-4.7,4.6-3.6,7.3-7.3,10.5
	c-4.9,4.2-10.1,2.5-12.2,5.9c-2,3.2,2.1,10.9,2.1,10.9s-9.1,12.5-7.2,18.4c1.2,3.9,7.4,5.2,15.7,11c10.8,7.5,10.5,9,20.1,13.4
	c6.4,2.9,7.2,1.5,25.8,4.4c22.9,3.6,25.4,4.4,30.8,1.2c5.2-3,9.4-19.9,8.5-22.8c-1.6-5.2-5.4-5.9-5.5-10.6
	c-0.1-4.5,2.6-6.2,4.8-11.7c2.3-6,2-16.9-1.6-17.9c-0.8-0.2-8.4,1.1-11.1,3.1c-9.4,6.9-13.6,9.3-17.4,10.2c-9,2.2-22.1-6.8-24.1-8.5
	C275.4,261.1,267.9,258.9,266.9,250.5z"/>
</svg>
