<?xml version="1.0" encoding="utf-8"?>
<!-- Generator: Adobe Illustrator 26.0.3, SVG Export Plug-In . SVG Version: 6.00 Build 0)  -->
<svg version="1.1" id="Layer_1" xmlns="http://www.w3.org/2000/svg" xmlns:xlink="http://www.w3.org/1999/xlink" x="0px" y="0px"
	 viewBox="0 0 566.9 566.9" style="enable-background:new 0 0 566.9 566.9;" xml:space="preserve">
<style type="text/css">
	.st0{fill:none;stroke:#059447;stroke-miterlimit:10;}
</style>
<path class="st0" d="M253.9,289.1l-3.9-0.5c0.3-2.2,1-7.5,1.7-10.6c0.7-3.2,2-6.1,3.1-8.7c0.7-1.5,1.3-2.9,1.7-4.2l3.8,1.3
	c-0.5,1.5-1.2,2.9-1.8,4.5c-1.1,2.5-2.3,5.1-2.9,7.9C254.9,281.8,254.2,286.9,253.9,289.1z"/>
<path class="st0" d="M312.9,301.9c-2.1-4.7-6-8.7-10.1-12.9c-5.9-6.1-11.9-12.3-13.5-21.4l3.9-0.7c1.4,7.9,7.1,13.7,12.5,19.3
	c4.1,4.3,8.4,8.7,10.8,14L312.9,301.9z"/>
</svg>
