<?xml version="1.0" encoding="utf-8"?>
<!-- Generator: Adobe Illustrator 26.0.3, SVG Export Plug-In . SVG Version: 6.00 Build 0)  -->
<svg version="1.1" id="Layer_1" xmlns="http://www.w3.org/2000/svg" xmlns:xlink="http://www.w3.org/1999/xlink" x="0px" y="0px"
	 viewBox="0 0 566.9 566.9" style="enable-background:new 0 0 566.9 566.9;" xml:space="preserve">
<style type="text/css">
	.st0{fill:none;stroke:#00C2F3;stroke-miterlimit:10;}
</style>
<path class="st0" d="M356.9,340.1c-1-0.5-2.6-1.1-3.2-1.4c0,0,0,0,0,0c0,0-0.8-0.2-2.8-0.2c-2.4,0-4.7,0.4-4.7,0.4l-6.2,1l-3.6-5.2
	c-3.7-5.5-6-9.7-6.7-12.4l-0.1-0.3l-0.1-0.3c-0.6-3.2-0.7-8.6,5.5-18.5c0.1-0.3,0.2-0.8,0.3-1.4c-1.2,0.7-2.5,1.4-3.5,2.4l-0.1,0.1
	c-6.5,5.5-14.7,8.7-22.1,8.7c-7.9,0-20.4-6.9-22.2-8.5c0.1,0.1,0.1,0.1,0.2,0.2c-0.3-0.3-1.6-1.2-2.6-1.9c-5.8-4.2-10.8-8-13.4-11.5
	c-0.2-0.3-0.5-0.6-0.7-1c-0.9,1.6-1.9,3.1-3.4,4.4c-2.4,2.1-5,3.6-7.8,4.6l5.3,7.1l-7.6,5.2c-0.5,0.7-2.1,3.1-3.5,8.2l5.4,7.4
	l-9.7,5.4c-12.6,7.3-38.5,9.9-44,9.9c-1.8,0-6.7,0-9.8-4.4c-3.5-5-3.8-5.4-6-9.4c-1.8-3.3-10.3-21.3-3.5-51.3
	c1.6-7.3,8.1-9.7,13.3-11.6c2.9-1.1,6.2-2.3,9.7-4.3c5-2.9,11.6-8.8,15.1-16.9c0.6-1.4,1-2.7,1.4-4.1c1.1-3.5,2.4-7.8,6.5-14.1
	c4.9-7.5,15.6-11.2,16.1-11.4c2.3-0.8,4.6-1.2,6.7-1.2c4.9,0,8.2,2,10,3.1c0.2,0.1,0.3,0.2,0.5,0.3c13,7.3,38.1,15.1,44.5,16.2
	c0.8-0.4,2.1-1.3,3.2-2c4.9-3.3,12.3-8.2,23.5-8.9c0.8,0,1.7-0.1,2.6-0.1c14,0,27.2,6.4,32.9,15.9c2.3,3.9,1.5,7.6,1.1,9.5
	c-0.4,1.8-1.1,4.5-2.6,10.1c0,0-1.8,6.8-2,7.4c1.8,2.8,5,7.5,6.9,10.1c7.8,10.2,11.5,46-2.5,65l-9.7,13.2L356.9,340.1z M254.3,300.3
	L254.3,300.3z"/>
<path class="st0" d="M240.7,231.4c2.3-3.5,8.2-6.4,11-7.4c4.9-1.7,7.1,0.3,9.1,1.5c14.8,8.3,43.7,17.1,49.2,17.6
	c6.6,0.5,12.5-10.1,27.3-11c11.6-0.7,22.5,4.6,26.3,11c0.4,0.7,0.2,1.4-3.1,13.7c-2,7.5-2.3,8.3-2.2,9.9c0.1,1.1,6.6,10.7,9.3,14.3
	c5.3,7,8.5,38-2.6,53.2c0,0,0,0,0,0c0,0,0,0,0,0c-1.2-1.8-3-2.7-7.5-4.6c-4.5-1.9-12.9-0.5-12.9-0.5s-4.6-6.9-5.3-9.3
	c-0.6-3.4,2.9-9.4,4.2-11.5c1.8-2.8,1.8-7.1,1.9-9.4c0.3-6.1-0.3-9-3.6-9.6c-1.1-0.2-10.3,1.9-16.5,7.4c0,0,0,0,0,0
	c-4.3,3.7-10.2,6.4-15.7,6.4c-4.9,0-15.2-5.6-15.4-5.8c-1.5-1.4-11.9-8.2-14.7-11.9c-3.9-5.1,0.3-12.6-3.9-12.3
	c-10,0.8-12,11.8-14.6,14.2c-2,1.7-4,2.8-7.1,3.2c-3.6,0.5-5.5,1.4-5.5,3.6c-0.2,5.8,2.5,9.9,2.5,9.9s-4.5,3.4-7.5,16.2
	c-0.4,1.6,1.1,3.8,1.1,3.8c-11.1,6.4-40,9.4-40.7,8.4c-3.5-4.9-3.5-4.9-5.4-8.4c-0.7-1.4-8.8-16.8-2.6-44.5
	c0.8-3.6,8.5-3.9,18.3-9.5c7.2-4.2,15-11.8,19.2-21.6C235.9,242.6,235.6,239.2,240.7,231.4z"/>
</svg>
