<?xml version="1.0" encoding="utf-8"?>
<!-- Generator: Adobe Illustrator 26.0.3, SVG Export Plug-In . SVG Version: 6.00 Build 0)  -->
<svg version="1.1" id="Layer_1" xmlns="http://www.w3.org/2000/svg" xmlns:xlink="http://www.w3.org/1999/xlink" x="0px" y="0px"
	 viewBox="0 0 566.9 566.9" style="enable-background:new 0 0 566.9 566.9;" xml:space="preserve">
<style type="text/css">
	.st0{fill:none;stroke:#57B947;stroke-miterlimit:10;}
	.st1{fill:none;stroke:#00C2F3;stroke-miterlimit:10;}
</style>
<path class="st0" d="M273.2,426.7c-0.1-0.1-9.1-11.4-20.7-27.3c-14.8-20.3-32-33-42.4-40.5l-5-3.7c-16.8-12.3-19.4-14.2-28.1-24.1
	c-11.9-13.6-11.7-31.2-11.3-36.2c0.5-6.9,2-10.8,3.4-14.6c1.4-3.8,2.8-7.4,3.2-14.2c0.5-8.5-0.8-14.1-2.1-19.6
	c-1.1-5-2.3-10.2-2.1-17.3c0.2-11.7,10.8-33.9,17.5-42.6c2.2-2.8,5.3-7.8,8.2-12.2c2.9-4.5,5.4-8.5,6.7-9.9l3.9-4.3l-0.5,5.8
	c0,0.1-1,12-1.3,22.1c1.6-1.2,4.4-3.4,9.1-7.5c0.6-0.5,1-0.9,1.1-0.9c1.1-0.9,6.5-5.8,9.7-8.8c-5.3-6.3-10.9-10.4-11-10.5l-1.6-1.2
	l1.2-1.6c6.8-9.5,29.9-15.5,42.5-17.6c1.7-0.4,5.4-0.6,9.8-0.6c3,0,13.2,0.1,19.4,1.9c6.2,1.7,12.2,6.3,14.7,8.3
	c3-1.8,10.5-5.9,14.7-6.5c1.1-0.1,2.1-0.4,3.3-0.6c2.6-0.5,5.6-1.2,10-1.2c6.4,0,14.5,1.4,24.7,4.2c13.6,3.7,34.7,13,39.1,22.1
	c4.6,9.3,3.8,13.3,1,28.4l-0.5,2.6c-0.2,1.2-0.5,2.4-0.7,3.5c-1.6,8.4-2.4,12.7-1,18.5c1.8,7.2,4.1,13,6.7,19.8
	c1,2.7,2.1,5.4,3.2,8.4c3.6,9.8,1.5,18.9-1.4,31.5c-1.3,5.6-2.5,9-4.4,14c-0.7,1.8-1.4,3.8-2.3,6.3c-4.3,12.2-5.8,18.3-7,23.3
	c-1,4-1.7,7.2-3.7,11.9c-6.4,15.7-15.8,24.9-33,41.7c-7.2,7-15.8,13.6-33.1,26.9c-27,20.7-37.5,23.1-37.9,23.2l-1.2,0.3L273.2,426.7
	z"/>
<path class="st0" d="M187.2,187.7c4.3-5.6,12.4-19.3,14.8-22c0,0-1.2,14.5-1.3,25.2c0,2.2,12.8-9.4,13.4-9.9
	c1.7-1.3,11.2-10.2,11.2-10.2c-5.9-7.4-12.5-12.3-12.5-12.3c6.2-8.7,28.1-14.6,41.2-16.8c0,0,0,0,0,0c4-0.8,20.6-0.9,28.4,1.2
	c7.5,2.1,15,8.8,15,8.8s10.4-6.3,15.2-7c6.8-0.9,12.3-4.5,37.1,2.4c14.6,4,34,13.3,37.9,21c4.5,9.2,3.6,12.4,0.3,29.7
	c-2,10.8-3.4,15.8-1.6,22.8c2.6,10.1,6,17.8,9.9,28.4c3.4,9.2,1.4,18-1.5,30.4c-1.7,7.5-3.3,10.7-6.6,20.1
	c-7.9,22.4-6.4,24.9-10.6,35.1c-6.2,15.3-15.4,24.3-32.6,41c-7.1,6.9-15.7,13.5-32.9,26.7c-27,20.7-37.1,22.9-37.1,22.9
	s-8.9-11.1-20.7-27.3c-14.9-20.5-32.4-33.4-42.8-41c-21.3-15.6-23.4-16.8-32.7-27.4c-12.2-13.8-11-32.3-10.8-34.8
	c1-13.6,5.8-15,6.6-28.9c0.9-16.5-4.5-22.3-4.2-37C170.4,217.6,181,195.7,187.2,187.7z"/>
<path class="st1" d="M332.1,297.2c-3,0-6.5-0.6-8.3-0.9l-0.7-0.1c-4.6-0.7-7.9-1.2-10.5-1.5c-2.2-0.3-3.9-0.5-5.5-0.8
	c-0.3,0-1.5-0.2-2.7-0.3c-3.6-0.3-9.5-0.8-13.8-1.6l0,0c-1.6-0.2-8.1-1.4-13.7-4.4c-4.4-2.4-6.7-4.4-8.8-6.2c-0.6-0.5-1.2-1-1.8-1.5
	c-1.8-1.4-3-2.2-7.1-4.6c-1-0.6-2.1-1.2-3.4-2c-1.2-0.7-6.8-4.6-9.1-6.2c-10.8,5.5-33,7.9-38.9,7.9c-1.6,0-2.9-0.1-3.6-1.1
	c-2.5-3.6-3.1-4.7-3.9-6.3c-0.3-0.6-0.6-1.3-1.2-2.3c-0.9-1.8-9-17.9-2.8-45.8c0.7-3.1,3.9-4.3,8.3-5.9c3-1.1,6.8-2.5,11-4.9
	c7.9-4.6,14.8-12.3,18.4-20.7c0.8-1.8,1.2-3.3,1.7-4.9c1-3.3,2.1-6.7,5.6-12.1c2.5-3.8,8.7-7.1,12-8.2c1.5-0.5,2.8-0.8,4.1-0.8
	c2.7,0,4.5,1.1,5.9,1.9c0.2,0.2,0.5,0.3,0.7,0.4c15,8.4,43.5,16.9,48.4,17.3c0.1,0,0.2,0,0.3,0c2,0,4.3-1.5,7.2-3.5
	c4.4-3,10.5-7,19.5-7.5c0.7,0,1.4-0.1,2.1-0.1c10.9,0,21.9,5,26.1,12c0.8,1.3,0.8,1.3-2.4,13.4l-0.5,1.8c-0.4,1.4-0.7,2.6-1,3.6
	c-1,3.9-1.2,4.6-1.2,5.4c0.7,1.6,6,9.6,8.9,13.4c6.1,8,8.8,40-2.6,55.5l-2.1,2.9l-0.6-1.5l-0.3,0l-0.6-0.9c-0.9-1.3-1.9-2.2-6.1-3.9
	c-2.6-0.8-4.9-1.2-6.9-1.2c-1.6,0-2.7,0.2-3.3,0.5c-0.2,2.8-0.9,10-3.8,15.2c-0.4,0.7-0.7,1.3-1,1.9c-1.5,3-2.8,5.5-7.1,7.6
	C335.8,296.9,334.2,297.2,332.1,297.2z"/>
<path class="st1" d="M243.1,172c2.3-3.5,8.2-6.4,11-7.4c4.9-1.7,7.1,0.3,9.1,1.5c14.8,8.3,43.7,17.1,49.2,17.6
	c6.6,0.5,12.5-10.1,27.3-11c11.6-0.7,22.5,4.6,26.3,11c0.4,0.7,0.2,1.4-3.1,13.7c-2,7.5-2.3,8.3-2.2,9.9c0.1,1.1,6.6,10.7,9.3,14.3
	c5.3,7,8.5,38-2.6,53.2c0,0,0,0,0,0c0,0-0.4,0.5-0.4,0.5c-1.2-1.8-2.6-2.8-7.1-4.7c-9.2-2.8-12.8-0.1-12.8-0.1s-0.2,9.3-3.6,15.5
	c-2.2,3.9-2.8,6.5-7.3,8.7c-3,1.5-10.4,0-12.7-0.3c-8.6-1.4-12.6-1.7-16-2.4c-1.1-0.2-10.5-0.8-16.5-1.9c0,0-7.1-1-13.1-4.2
	c-5.5-3-7.6-5.4-10.2-7.4c-2.4-1.9-3.7-2.6-10.7-6.8c-1.4-0.8-10-6.9-10-6.9c-11.1,6.4-40.3,9.1-41,8c-3.5-4.9-3-4.9-4.9-8.4
	c-0.7-1.4-8.8-16.8-2.6-44.5c0.8-3.6,8.5-3.9,18.3-9.5c7.2-4.2,15-11.8,19.2-21.6C238.3,183.2,238,179.8,243.1,172z"/>
</svg>
