<?xml version="1.0" encoding="utf-8"?>
<!-- Generator: Adobe Illustrator 26.0.3, SVG Export Plug-In . SVG Version: 6.00 Build 0)  -->
<svg version="1.1" id="Layer_1" xmlns="http://www.w3.org/2000/svg" xmlns:xlink="http://www.w3.org/1999/xlink" x="0px" y="0px"
	 viewBox="0 0 566.9 566.9" style="enable-background:new 0 0 566.9 566.9;" xml:space="preserve">
<style type="text/css">
	.st0{fill:none;stroke:#57B947;stroke-miterlimit:10;}
	.st1{fill:none;stroke:#00C2F3;stroke-miterlimit:10;}
</style>
<path class="st0" d="M265.8,432c-0.4-0.5-9.2-11.5-21-27.7c-13.9-19.1-30.5-31.3-40.4-38.5l-5-3.7c-16.7-12.2-20.2-14.8-29.6-25.4
	c-14.3-16.3-14-37.1-13.6-43.1c0.6-8.3,2.5-13.3,4-17.3c1.3-3.5,2.3-6.1,2.6-11.4c0.4-7.2-0.6-11.7-1.8-17
	c-1.2-5.3-2.6-11.3-2.4-19.6c0.3-15.3,13.1-39.8,19.5-48.1c1.9-2.4,5-7.2,7.7-11.5c3.8-6,5.9-9.2,7.7-11.2l22.5-24.7l-0.7,8.9
	c12.8-7.1,29.9-10.5,36.5-11.6c3.1-0.6,8-0.7,11.5-0.7c4.2,0,14.8,0.2,21.9,2.2c4.8,1.3,9.4,3.9,12.9,6.2c4.1-2.1,8.9-4.2,12.7-4.7
	c0.7-0.1,1.6-0.3,2.6-0.5c2.8-0.6,6.5-1.3,11.9-1.3c7.3,0,16,1.4,27.2,4.5c12.7,3.5,38.4,13.6,45,26.9c6,12.1,4.8,18.6,1.8,34.3
	l-0.5,2.6c-0.2,1.2-0.5,2.4-0.7,3.5c-1.6,8.2-2,10.8-1.1,14.4c1.7,6.6,3.8,12.2,6.3,18.8c1,2.7,2.1,5.5,3.2,8.5
	c4.5,12.4,1.9,23.7-1.1,36.8c-1.4,6.2-2.8,10-4.7,15.2c-0.7,1.8-1.4,3.8-2.2,6.2c-4.1,11.8-5.6,17.6-6.7,22.3
	c-1,4.2-1.9,7.9-4.1,13.3c-7.1,17.5-17.7,27.8-35.2,44.8c-7.5,7.4-16.4,14.1-33.9,27.6c-26.9,20.6-38.7,24.3-41.6,25l-6.9,1.5
	L265.8,432z"/>
<path class="st0" d="M187.1,187.2c4.3-5.6,12.4-19.3,14.8-22c0,0-1.2,14.5-1.3,25.2c0,2.2,12.8-9.4,13.4-9.9
	c1.7-1.3,11.2-10.2,11.2-10.2c-5.9-7.4-12.5-12.3-12.5-12.3c6.2-8.7,28.1-14.6,41.2-16.8c0,0,0,0,0,0c4-0.8,20.6-0.9,28.4,1.2
	c7.5,2.1,15,8.8,15,8.8s10.4-6.3,15.2-7c6.8-0.9,12.3-4.5,37.1,2.4c14.6,4,34,13.3,37.9,21c4.5,9.2,3.6,12.4,0.3,29.7
	c-2,10.8-3.4,15.8-1.6,22.8c2.6,10.1,6,17.8,9.9,28.4c3.4,9.2,1.4,18-1.5,30.4c-1.7,7.5-3.3,10.7-6.6,20.1
	c-7.9,22.4-6.4,24.9-10.6,35.1c-6.2,15.3-15.4,24.3-32.6,41c-7.1,6.9-15.7,13.5-32.9,26.7c-27,20.7-37.1,22.9-37.1,22.9
	s-8.9-11.1-20.7-27.3c-14.9-20.5-32.4-33.4-42.8-41c-21.3-15.6-23.4-16.8-32.7-27.4c-12.2-13.8-11-32.3-10.8-34.8
	c1-13.6,5.8-15,6.6-28.9c0.9-16.5-4.5-22.3-4.2-37C170.2,217.1,180.9,195.2,187.1,187.2z"/>
<path class="st1" d="M332,306.1c-3.8,0-7.8-0.7-9.9-1l-0.6-0.1c-4.5-0.7-7.7-1.2-10.3-1.5c-2.2-0.3-4-0.5-5.7-0.8
	c-0.4,0-1.2-0.1-2.1-0.2c-3.7-0.3-9.8-0.9-14.5-1.7c-1.8-0.3-9.5-1.6-16.6-5.4c-5.4-2.9-8.3-5.5-10.5-7.4c-0.5-0.4-1-0.8-1.4-1.2
	c-1.2-1-1.9-1.4-6-3.8c-1-0.6-2.1-1.2-3.5-2c-0.9-0.5-3.1-2-5.5-3.7c-13.6,4.9-32.9,6.6-37.8,6.6c-2.1,0-7.6,0-11.2-5
	c-2.8-3.9-3.6-5.5-4.6-7.6c-0.3-0.5-0.5-1.1-1-2c-1.8-3.4-10.5-21.7-3.6-52.3c1.8-8.1,9-10.7,14.2-12.6c2.8-1,6.1-2.2,9.5-4.2
	c4.8-2.8,11.1-8.5,14.5-16.3c0.6-1.3,0.9-2.5,1.4-4c1.1-3.5,2.5-7.9,6.7-14.4c5-7.8,15.6-11.6,16.8-12c2.4-0.8,4.9-1.3,7.2-1.3
	c5.3,0,9,2.2,10.7,3.3c0.1,0.1,0.3,0.2,0.4,0.3c12.4,6.9,36.6,14.5,43.5,16c0.7-0.4,1.8-1.1,2.6-1.7c5-3.4,12.6-8.4,24.2-9.1
	c0.9-0.1,1.8-0.1,2.6-0.1c14.5,0,28.2,6.6,34.1,16.5c2.6,4.3,1.7,8.5,1.2,10.5c-0.4,1.8-1.1,4.6-2.6,10.1c0,0-1.7,6.4-1.8,6.8
	c1.8,2.8,4.7,7.1,6.5,9.4c6.5,8.6,7.2,25.3,7.2,30.3c0.1,8.6-1.1,24.8-9.7,36.5l-12.2,16.6l-5.9-15.1l-0.5-0.8
	c-0.2-0.1-0.5-0.3-1-0.5c-0.7,3.2-1.9,6.7-3.6,9.8c-0.3,0.6-0.6,1.1-0.9,1.7c-1.8,3.5-4.2,8.2-11.3,11.7
	C338.5,305.5,335.6,306.1,332,306.1z"/>
<path class="st1" d="M242.9,171.5c2.3-3.5,8.2-6.4,11-7.4c4.9-1.7,7.1,0.3,9.1,1.5c14.8,8.3,43.7,17.1,49.2,17.6
	c6.6,0.5,12.5-10.1,27.3-11c11.6-0.7,22.5,4.6,26.3,11c0.4,0.7,0.2,1.4-3.1,13.7c-2,7.5-2.3,8.3-2.2,9.9c0.1,1.1,6.6,10.7,9.3,14.3
	c5.3,7,8.5,38-2.6,53.2c0,0,0,0,0,0c0,0-0.4,0.5-0.4,0.5c-1.2-1.8-2.6-2.8-7.1-4.7c-9.2-2.8-12.8-0.1-12.8-0.1s-0.2,9.3-3.6,15.5
	c-2.2,3.9-2.8,6.5-7.3,8.7c-3,1.5-10.4,0-12.7-0.3c-8.6-1.4-12.6-1.7-16-2.4c-1.1-0.2-10.5-0.8-16.5-1.9c0,0-7.1-1-13.1-4.2
	c-5.5-3-7.6-5.4-10.2-7.4c-2.4-1.9-3.7-2.6-10.7-6.8c-1.4-0.8-10-6.9-10-6.9c-11.1,6.4-40.3,9.1-41,8c-3.5-4.9-3-4.9-4.9-8.4
	c-0.7-1.4-8.8-16.8-2.6-44.5c0.8-3.6,8.5-3.9,18.3-9.5c7.2-4.2,15-11.8,19.2-21.6C238.2,182.7,237.9,179.3,242.9,171.5z"/>
</svg>
