<?xml version="1.0" encoding="utf-8"?>
<!-- Generator: Adobe Illustrator 26.0.3, SVG Export Plug-In . SVG Version: 6.00 Build 0)  -->
<svg version="1.1" id="Layer_1" xmlns="http://www.w3.org/2000/svg" xmlns:xlink="http://www.w3.org/1999/xlink" x="0px" y="0px"
	 viewBox="0 0 566.9 566.9" style="enable-background:new 0 0 566.9 566.9;" xml:space="preserve">
<style type="text/css">
	.st0{fill:none;stroke:#D87227;stroke-miterlimit:10;}
	.st1{fill:none;stroke:#DB088C;stroke-miterlimit:10;}
	.st2{fill:none;stroke:#059447;stroke-miterlimit:10;}
</style>
<path class="st0" d="M307.6,364.5c-0.1-0.1-9.3-13-19.9-22.2c-7.4-6.4-11.9-9.1-21-14.5c-2.9-1.7-6.1-3.6-10.1-6
	c-1.2-0.8-2.5-1.5-3.7-2.2c-7.8-4.7-15.2-9.1-22.6-15.6c-16.3-14.4-25.1-29-25.5-29.7l-1.7-2.9l3.4-0.1c19.1-0.5,34-4.6,39.7-8.1
	l1.3-0.8l1.1,1c0,0,4,3.5,17.5,11.2c1.3,0.8,2.8,2,4.6,3.4c3.7,3,8.7,7.1,14.7,8.8c6.2,1.7,10.8,2.1,17.8,2.8
	c1.7,0.2,3.6,0.3,5.6,0.6c3.4,0.4,7.1,1,10.7,1.6c5.1,0.8,9.9,1.6,13.1,1.6c1,0,1.7-0.1,2.3-0.2c1.9-0.5,3.9-1,7.8-9.8
	c2.3-5.1,2.6-12.9,2.6-13l0-1l0.8-0.6c1.3-0.9,3.4-1.4,6.1-1.4c5.7,0,16.8,2.5,17,8.3c0,1.7-2.4,7.2-8.4,13.2
	c-7.2,7.1-10.5,9.7-17.1,14.8c-1.3,1-2.8,2.2-4.4,3.5c-4.4,3.5-7.8,7.1-11.7,12.4c-2.7,3.7-5.2,8.3-8.7,16.1
	c-3.3,7.3-3.9,8.8-4.6,12.9c-1.1,6.1-3.4,15.1-3.4,15.2l-1,4.2L307.6,364.5z"/>
<path class="st0" d="M206.6,273.3c19.2-0.5,34.5-4.6,40.7-8.4c0,0,3.9,3.5,17.8,11.5c3.9,2.2,10.5,9.9,19.8,12.4
	c7.8,2.1,13.1,2.3,23.8,3.4c9.5,1,22.2,4.1,26.9,2.9c2.6-0.7,4.9-1.6,9.1-10.9c2.5-5.5,2.8-13.7,2.8-13.7c3.9-2.8,19.8,0.3,20,5.3
	c0,0.9-2.1,6.1-7.8,11.7c-8.5,8.4-11.4,10.3-21.3,18.1c-5.2,4.1-8.6,8.1-12.1,12.8c-2.5,3.4-5,7.8-8.9,16.4c-3.4,7.5-4,9.1-4.8,13.3
	c-1.1,6.1-3.4,15.1-3.4,15.1s-9.3-13.1-20.2-22.5c-9.8-8.6-14.7-10.6-31.4-20.7c-9.4-5.7-17.7-10.3-25.9-17.6
	C215.4,288.1,206.6,273.3,206.6,273.3z"/>
<path class="st1" d="M296.4,335.4c-2-4.4-4.6-8.3-7.8-11.5c-2.9-2.9-5-4-8.2-5.7c-2-1.1-4.3-2.3-7.4-4.3
	c-3.4-2.2-12.1-8.3-20.2-17.8c-3.9-4.6-7.4-9.6-10.3-15l3.5-1.9c2.8,5.1,6.1,9.9,9.8,14.3c7.8,9.1,16.1,14.9,19.3,17
	c2.9,1.9,5.2,3.1,7.1,4.1c3.2,1.7,5.8,3.1,9.1,6.4c3.6,3.6,6.5,7.8,8.6,12.7L296.4,335.4z"/>
<path class="st2" d="M309.7,184c-0.4-3.1-1.4-11.1-3.9-16c-1.9-3.7-4.4-7.1-7.4-10l2.8-2.9c3.3,3.2,6.1,6.9,8.2,11
	c2.9,5.6,3.9,13.8,4.3,17.3L309.7,184z"/>
<path class="st2" d="M306.1,392.2l-1.9-3.5c16.6-9.3,28-20.8,33.8-34c1.2-2.8,2.1-5.4,3.1-8.4c1.6-4.7,3.4-9.9,6.9-17.3
	c4.3-9,9.7-17.5,15.8-25.5l3.1,2.4c-6,7.7-11.2,16-15.4,24.8c-3.4,7.1-5.2,12.3-6.7,16.8c-1,3-2,5.8-3.3,8.7
	C335.4,370.4,323.5,382.4,306.1,392.2z"/>
<path class="st2" d="M279.3,388.4c-3.8-11.5-9.6-21.3-17.3-29.2c-7.5-7.6-14.3-11-22.3-15c-5.8-2.9-11.8-5.9-18.7-10.9
	c-12.4-9-23-21.2-31.5-36.3l3.5-1.9c8.2,14.6,18.4,26.4,30.4,35c6.6,4.8,12.5,7.7,18.2,10.5c7.9,4,15.4,7.7,23.3,15.8
	c8.2,8.3,14.3,18.7,18.3,30.8L279.3,388.4z"/>
</svg>
